<?xml version="1.0" encoding="UTF-8"?>
<svg xmlns="http://www.w3.org/2000/svg" viewBox="-240 -20 980 1766.4499999999998" preserveAspectRatio="xMidYMid meet">
<title>Soundboard-face view</title>
<rect x="-240" y="-20" width="980" height="1766.4499999999998" fill="#fff"/>
<path d="M 87.374 1726.450 L 88.322 1722.134 L 89.271 1717.818 L 90.219 1713.502 L 91.168 1709.185 L 92.116 1704.869 L 93.065 1700.553 L 94.013 1696.237 L 94.960 1691.921 L 95.907 1687.605 L 96.853 1683.289 L 97.799 1678.973 L 98.743 1674.656 L 99.687 1670.340 L 100.629 1666.024 L 101.571 1661.708 L 102.511 1657.392 L 103.449 1653.076 L 104.387 1648.760 L 105.322 1644.444 L 106.256 1640.127 L 107.188 1635.811 L 108.118 1631.495 L 109.047 1627.179 L 109.973 1622.863 L 110.897 1618.547 L 111.818 1614.231 L 112.737 1609.915 L 113.654 1605.598 L 114.568 1601.282 L 115.479 1596.966 L 116.387 1592.650 L 117.293 1588.334 L 118.195 1584.018 L 119.094 1579.702 L 119.990 1575.386 L 120.883 1571.069 L 121.772 1566.753 L 122.658 1562.437 L 123.540 1558.121 L 124.419 1553.805 L 125.293 1549.489 L 126.164 1545.173 L 127.031 1540.857 L 127.893 1536.540 L 128.751 1532.224 L 129.605 1527.908 L 130.455 1523.592 L 131.300 1519.276 L 132.141 1514.960 L 132.976 1510.644 L 133.808 1506.328 L 134.634 1502.011 L 135.455 1497.695 L 136.271 1493.379 L 137.082 1489.063 L 137.888 1484.747 L 138.689 1480.431 L 139.484 1476.115 L 140.273 1471.799 L 141.057 1467.482 L 141.836 1463.166 L 142.608 1458.850 L 143.375 1454.534 L 144.136 1450.218 L 144.891 1445.902 L 145.639 1441.586 L 146.382 1437.270 L 147.118 1432.953 L 147.848 1428.637 L 148.571 1424.321 L 149.288 1420.005 L 149.999 1415.689 L 150.703 1411.373 L 151.400 1407.057 L 152.090 1402.741 L 152.773 1398.424 L 153.449 1394.108 L 154.118 1389.792 L 154.781 1385.476 L 155.435 1381.160 L 156.083 1376.844 L 156.723 1372.528 L 157.356 1368.212 L 157.982 1363.895 L 158.600 1359.579 L 159.210 1355.263 L 159.812 1350.947 L 160.407 1346.631 L 160.994 1342.315 L 161.573 1337.999 L 162.144 1333.683 L 162.707 1329.367 L 163.262 1325.050 L 163.809 1320.734 L 164.348 1316.418 L 164.879 1312.102 L 165.401 1307.786 L 165.914 1303.470 L 166.420 1299.154 L 166.917 1294.838 L 167.405 1290.521 L 167.885 1286.205 L 168.356 1281.889 L 168.818 1277.573 L 169.271 1273.257 L 169.716 1268.941 L 170.152 1264.625 L 170.579 1260.308 L 170.997 1255.992 L 171.406 1251.676 L 171.806 1247.360 L 172.197 1243.044 L 172.579 1238.728 L 172.951 1234.412 L 173.315 1230.096 L 173.669 1225.780 L 174.014 1221.463 L 174.349 1217.147 L 174.676 1212.831 L 174.992 1208.515 L 175.300 1204.199 L 175.597 1199.883 L 175.886 1195.567 L 176.164 1191.251 L 176.434 1186.934 L 176.693 1182.618 L 176.943 1178.302 L 177.183 1173.986 L 177.414 1169.670 L 177.635 1165.354 L 177.846 1161.038 L 178.048 1156.722 L 178.239 1152.405 L 178.421 1148.089 L 178.593 1143.773 L 178.755 1139.457 L 178.907 1135.141 L 179.050 1130.825 L 179.182 1126.509 L 179.305 1122.193 L 179.418 1117.876 L 179.520 1113.560 L 179.613 1109.244 L 179.696 1104.928 L 179.769 1100.612 L 179.832 1096.296 L 179.885 1091.980 L 179.928 1087.664 L 179.961 1083.347 L 179.984 1079.031 L 179.997 1074.715 L 180.000 1070.399 L 179.995 1066.083 L 179.982 1061.767 L 179.961 1057.451 L 179.933 1053.135 L 179.898 1048.818 L 179.854 1044.502 L 179.804 1040.186 L 179.746 1035.870 L 179.680 1031.554 L 179.606 1027.238 L 179.526 1022.922 L 179.437 1018.606 L 179.341 1014.289 L 179.238 1009.973 L 179.127 1005.657 L 179.008 1001.341 L 178.883 997.025 L 178.749 992.709 L 178.608 988.393 L 178.460 984.077 L 178.304 979.760 L 178.141 975.444 L 177.971 971.128 L 177.793 966.812 L 177.607 962.496 L 177.414 958.180 L 177.214 953.864 L 177.007 949.548 L 176.792 945.231 L 176.570 940.915 L 176.341 936.599 L 176.104 932.283 L 175.861 927.967 L 175.609 923.651 L 175.351 919.335 L 175.086 915.019 L 174.813 910.702 L 174.534 906.386 L 174.247 902.070 L 173.953 897.754 L 173.652 893.438 L 173.344 889.122 L 173.029 884.806 L 172.707 880.490 L 172.378 876.173 L 172.042 871.857 L 171.699 867.541 L 171.350 863.225 L 170.993 858.909 L 170.630 854.593 L 170.260 850.277 L 169.883 845.961 L 169.500 841.644 L 169.109 837.328 L 168.713 833.012 L 168.309 828.696 L 167.899 824.380 L 167.482 820.064 L 167.059 815.748 L 166.630 811.432 L 166.194 807.115 L 165.751 802.799 L 165.302 798.483 L 164.847 794.167 L 164.386 789.851 L 163.918 785.535 L 163.444 781.219 L 162.964 776.902 L 162.478 772.586 L 161.985 768.270 L 161.487 763.954 L 160.983 759.638 L 160.472 755.322 L 159.956 751.006 L 159.434 746.690 L 158.906 742.374 L 158.372 738.057 L 157.832 733.741 L 157.287 729.425 L 156.736 725.109 L 156.179 720.793 L 155.617 716.477 L 155.050 712.161 L 154.477 707.845 L 153.898 703.528 L 153.314 699.212 L 152.725 694.896 L 152.131 690.580 L 151.531 686.264 L 150.926 681.948 L 150.316 677.632 L 149.701 673.316 L 149.081 668.999 L 148.456 664.683 L 147.826 660.367 L 147.191 656.051 L 146.551 651.735 L 145.907 647.419 L 145.258 643.103 L 144.604 638.787 L 143.945 634.470 L 143.283 630.154 L 142.615 625.838 L 141.943 621.522 L 141.267 617.206 L 140.587 612.890 L 139.902 608.574 L 139.213 604.258 L 138.520 599.941 L 137.823 595.625 L 137.122 591.309 L 136.417 586.993 L 135.707 582.677 L 134.995 578.361 L 134.278 574.045 L 133.558 569.728 L 132.833 565.412 L 132.106 561.096 L 131.375 556.780 L 130.640 552.464 L 129.902 548.148 L 129.160 543.832 L 128.416 539.516 L 127.668 535.199 L 126.917 530.883 L 126.162 526.567 L 125.405 522.251 L 124.645 517.935 L 123.882 513.619 L 123.116 509.303 L 122.347 504.987 L 121.575 500.670 L 120.801 496.354 L 120.024 492.038 L 119.245 487.722 L 118.463 483.406 L 117.679 479.090 L 116.893 474.774 L 116.104 470.458 L 115.313 466.141 L 114.520 461.825 L 113.725 457.509 L 112.928 453.193 L 112.129 448.877 L 111.328 444.561 L 110.525 440.245 L 109.721 435.929 L 108.914 431.612 L 108.107 427.296 L 107.298 422.980 L 106.487 418.664 L 105.675 414.348 L 104.861 410.032 L 104.047 405.716 L 103.231 401.400 L 102.414 397.083 L 101.596 392.767 L 100.777 388.451 L 99.957 384.135 L 99.137 379.819 L 98.315 375.503 L 97.493 371.187 L 96.670 366.871 L 95.847 362.554 L 95.023 358.238 L 94.199 353.922 L 93.374 349.606 L 92.550 345.290 L 91.724 340.974 L 90.899 336.658 L 90.074 332.342 L 89.249 328.025 L 88.423 323.709 L 87.598 319.393 L 86.773 315.077 L 85.949 310.761 L 85.124 306.445 L 84.300 302.129 L 83.477 297.813 L 82.654 293.496 L 81.832 289.180 L 81.010 284.864 L 80.190 280.548 L 79.370 276.232 L 78.550 271.916 L 77.732 267.600 L 76.915 263.284 L 76.099 258.967 L 75.284 254.651 L 74.471 250.335 L 73.659 246.019 L 72.848 241.703 L 72.038 237.387 L 71.230 233.071 L 70.424 228.755 L 69.619 224.438 L 68.816 220.122 L 68.015 215.806 L 67.215 211.490 L 66.418 207.174 L 65.622 202.858 L 64.829 198.542 L 64.038 194.226 L 63.249 189.909 L 62.462 185.593 L 61.677 181.277 L 60.895 176.961 L 60.115 172.645 L 59.338 168.329 L 58.563 164.013 L 57.791 159.697 L 57.022 155.380 L 56.255 151.064 L 55.492 146.748 L 54.731 142.432 L 53.973 138.116 L 53.218 133.800 L 52.467 129.484 L 51.718 125.168 L 50.973 120.851 L 50.231 116.535 L 49.492 112.219 L 48.757 107.903 L 48.025 103.587 L 47.297 99.271 L 46.572 94.955 L 45.851 90.639 L 45.134 86.322 L 44.420 82.006 L 43.710 77.690 L 43.004 73.374 L 42.302 69.058 L 41.605 64.742 L 40.911 60.426 L 40.221 56.110 L 39.536 51.793 L 38.854 47.477 L 38.177 43.161 L 37.505 38.845 L 36.837 34.529 L 36.173 30.213 L 35.514 25.897 L 34.859 21.581 L 34.209 17.264 L 33.564 12.948 L 32.923 8.632 L 32.288 4.316 L 31.657 0.000 L -31.657 0.000 L -32.288 4.316 L -32.923 8.632 L -33.564 12.948 L -34.209 17.264 L -34.859 21.581 L -35.514 25.897 L -36.173 30.213 L -36.837 34.529 L -37.505 38.845 L -38.177 43.161 L -38.854 47.477 L -39.536 51.793 L -40.221 56.110 L -40.911 60.426 L -41.605 64.742 L -42.302 69.058 L -43.004 73.374 L -43.710 77.690 L -44.420 82.006 L -45.134 86.322 L -45.851 90.639 L -46.572 94.955 L -47.297 99.271 L -48.025 103.587 L -48.757 107.903 L -49.492 112.219 L -50.231 116.535 L -50.973 120.851 L -51.718 125.168 L -52.467 129.484 L -53.218 133.800 L -53.973 138.116 L -54.731 142.432 L -55.492 146.748 L -56.255 151.064 L -57.022 155.380 L -57.791 159.697 L -58.563 164.013 L -59.338 168.329 L -60.115 172.645 L -60.895 176.961 L -61.677 181.277 L -62.462 185.593 L -63.249 189.909 L -64.038 194.226 L -64.829 198.542 L -65.622 202.858 L -66.418 207.174 L -67.215 211.490 L -68.015 215.806 L -68.816 220.122 L -69.619 224.438 L -70.424 228.755 L -71.230 233.071 L -72.038 237.387 L -72.848 241.703 L -73.659 246.019 L -74.471 250.335 L -75.284 254.651 L -76.099 258.967 L -76.915 263.284 L -77.732 267.600 L -78.550 271.916 L -79.370 276.232 L -80.190 280.548 L -81.010 284.864 L -81.832 289.180 L -82.654 293.496 L -83.477 297.813 L -84.300 302.129 L -85.124 306.445 L -85.949 310.761 L -86.773 315.077 L -87.598 319.393 L -88.423 323.709 L -89.249 328.025 L -90.074 332.342 L -90.899 336.658 L -91.724 340.974 L -92.550 345.290 L -93.374 349.606 L -94.199 353.922 L -95.023 358.238 L -95.847 362.554 L -96.670 366.871 L -97.493 371.187 L -98.315 375.503 L -99.137 379.819 L -99.957 384.135 L -100.777 388.451 L -101.596 392.767 L -102.414 397.083 L -103.231 401.400 L -104.047 405.716 L -104.861 410.032 L -105.675 414.348 L -106.487 418.664 L -107.298 422.980 L -108.107 427.296 L -108.914 431.612 L -109.721 435.929 L -110.525 440.245 L -111.328 444.561 L -112.129 448.877 L -112.928 453.193 L -113.725 457.509 L -114.520 461.825 L -115.313 466.141 L -116.104 470.458 L -116.893 474.774 L -117.679 479.090 L -118.463 483.406 L -119.245 487.722 L -120.024 492.038 L -120.801 496.354 L -121.575 500.670 L -122.347 504.987 L -123.116 509.303 L -123.882 513.619 L -124.645 517.935 L -125.405 522.251 L -126.162 526.567 L -126.917 530.883 L -127.668 535.199 L -128.416 539.516 L -129.160 543.832 L -129.902 548.148 L -130.640 552.464 L -131.375 556.780 L -132.106 561.096 L -132.833 565.412 L -133.558 569.728 L -134.278 574.045 L -134.995 578.361 L -135.707 582.677 L -136.417 586.993 L -137.122 591.309 L -137.823 595.625 L -138.520 599.941 L -139.213 604.258 L -139.902 608.574 L -140.587 612.890 L -141.267 617.206 L -141.943 621.522 L -142.615 625.838 L -143.283 630.154 L -143.945 634.470 L -144.604 638.787 L -145.258 643.103 L -145.907 647.419 L -146.551 651.735 L -147.191 656.051 L -147.826 660.367 L -148.456 664.683 L -149.081 668.999 L -149.701 673.316 L -150.316 677.632 L -150.926 681.948 L -151.531 686.264 L -152.131 690.580 L -152.725 694.896 L -153.314 699.212 L -153.898 703.528 L -154.477 707.845 L -155.050 712.161 L -155.617 716.477 L -156.179 720.793 L -156.736 725.109 L -157.287 729.425 L -157.832 733.741 L -158.372 738.057 L -158.906 742.374 L -159.434 746.690 L -159.956 751.006 L -160.472 755.322 L -160.983 759.638 L -161.487 763.954 L -161.985 768.270 L -162.478 772.586 L -162.964 776.902 L -163.444 781.219 L -163.918 785.535 L -164.386 789.851 L -164.847 794.167 L -165.302 798.483 L -165.751 802.799 L -166.194 807.115 L -166.630 811.432 L -167.059 815.748 L -167.482 820.064 L -167.899 824.380 L -168.309 828.696 L -168.713 833.012 L -169.109 837.328 L -169.500 841.644 L -169.883 845.961 L -170.260 850.277 L -170.630 854.593 L -170.993 858.909 L -171.350 863.225 L -171.699 867.541 L -172.042 871.857 L -172.378 876.173 L -172.707 880.490 L -173.029 884.806 L -173.344 889.122 L -173.652 893.438 L -173.953 897.754 L -174.247 902.070 L -174.534 906.386 L -174.813 910.702 L -175.086 915.019 L -175.351 919.335 L -175.609 923.651 L -175.861 927.967 L -176.104 932.283 L -176.341 936.599 L -176.570 940.915 L -176.792 945.231 L -177.007 949.548 L -177.214 953.864 L -177.414 958.180 L -177.607 962.496 L -177.793 966.812 L -177.971 971.128 L -178.141 975.444 L -178.304 979.760 L -178.460 984.077 L -178.608 988.393 L -178.749 992.709 L -178.883 997.025 L -179.008 1001.341 L -179.127 1005.657 L -179.238 1009.973 L -179.341 1014.289 L -179.437 1018.606 L -179.526 1022.922 L -179.606 1027.238 L -179.680 1031.554 L -179.746 1035.870 L -179.804 1040.186 L -179.854 1044.502 L -179.898 1048.818 L -179.933 1053.135 L -179.961 1057.451 L -179.982 1061.767 L -179.995 1066.083 L -180.000 1070.399 L -179.997 1074.715 L -179.984 1079.031 L -179.961 1083.347 L -179.928 1087.664 L -179.885 1091.980 L -179.832 1096.296 L -179.769 1100.612 L -179.696 1104.928 L -179.613 1109.244 L -179.520 1113.560 L -179.418 1117.876 L -179.305 1122.193 L -179.182 1126.509 L -179.050 1130.825 L -178.907 1135.141 L -178.755 1139.457 L -178.593 1143.773 L -178.421 1148.089 L -178.239 1152.405 L -178.048 1156.722 L -177.846 1161.038 L -177.635 1165.354 L -177.414 1169.670 L -177.183 1173.986 L -176.943 1178.302 L -176.693 1182.618 L -176.434 1186.934 L -176.164 1191.251 L -175.886 1195.567 L -175.597 1199.883 L -175.300 1204.199 L -174.992 1208.515 L -174.676 1212.831 L -174.349 1217.147 L -174.014 1221.463 L -173.669 1225.780 L -173.315 1230.096 L -172.951 1234.412 L -172.579 1238.728 L -172.197 1243.044 L -171.806 1247.360 L -171.406 1251.676 L -170.997 1255.992 L -170.579 1260.308 L -170.152 1264.625 L -169.716 1268.941 L -169.271 1273.257 L -168.818 1277.573 L -168.356 1281.889 L -167.885 1286.205 L -167.405 1290.521 L -166.917 1294.838 L -166.420 1299.154 L -165.914 1303.470 L -165.401 1307.786 L -164.879 1312.102 L -164.348 1316.418 L -163.809 1320.734 L -163.262 1325.050 L -162.707 1329.367 L -162.144 1333.683 L -161.573 1337.999 L -160.994 1342.315 L -160.407 1346.631 L -159.812 1350.947 L -159.210 1355.263 L -158.600 1359.579 L -157.982 1363.895 L -157.356 1368.212 L -156.723 1372.528 L -156.083 1376.844 L -155.435 1381.160 L -154.781 1385.476 L -154.118 1389.792 L -153.449 1394.108 L -152.773 1398.424 L -152.090 1402.741 L -151.400 1407.057 L -150.703 1411.373 L -149.999 1415.689 L -149.288 1420.005 L -148.571 1424.321 L -147.848 1428.637 L -147.118 1432.953 L -146.382 1437.270 L -145.639 1441.586 L -144.891 1445.902 L -144.136 1450.218 L -143.375 1454.534 L -142.608 1458.850 L -141.836 1463.166 L -141.057 1467.482 L -140.273 1471.799 L -139.484 1476.115 L -138.689 1480.431 L -137.888 1484.747 L -137.082 1489.063 L -136.271 1493.379 L -135.455 1497.695 L -134.634 1502.011 L -133.808 1506.328 L -132.976 1510.644 L -132.141 1514.960 L -131.300 1519.276 L -130.455 1523.592 L -129.605 1527.908 L -128.751 1532.224 L -127.893 1536.540 L -127.031 1540.857 L -126.164 1545.173 L -125.293 1549.489 L -124.419 1553.805 L -123.540 1558.121 L -122.658 1562.437 L -121.772 1566.753 L -120.883 1571.069 L -119.990 1575.386 L -119.094 1579.702 L -118.195 1584.018 L -117.293 1588.334 L -116.387 1592.650 L -115.479 1596.966 L -114.568 1601.282 L -113.654 1605.598 L -112.737 1609.915 L -111.818 1614.231 L -110.897 1618.547 L -109.973 1622.863 L -109.047 1627.179 L -108.118 1631.495 L -107.188 1635.811 L -106.256 1640.127 L -105.322 1644.444 L -104.387 1648.760 L -103.449 1653.076 L -102.511 1657.392 L -101.571 1661.708 L -100.629 1666.024 L -99.687 1670.340 L -98.743 1674.656 L -97.799 1678.973 L -96.853 1683.289 L -95.907 1687.605 L -94.960 1691.921 L -94.013 1696.237 L -93.065 1700.553 L -92.116 1704.869 L -91.168 1709.185 L -90.219 1713.502 L -89.271 1717.818 L -88.322 1722.134 L -87.374 1726.450 Z" fill="#e4d4b5" stroke="#222" stroke-width="3.0"/>
<line x1="0" y1="1726.450" x2="0" y2="0.000" stroke="#2e8b57" stroke-width="3.0"/>
<circle cx="0" cy="1426.917" r="3" fill="#2e8b57"/>
<text x="-8" y="1429.917" font-family="sans-serif" font-size="11" fill="#666" text-anchor="end">C1</text>
<circle cx="0" cy="1393.074" r="3" fill="#2e8b57"/>
<circle cx="0" cy="1359.231" r="3" fill="#2e8b57"/>
<circle cx="0" cy="1325.374" r="3" fill="#2e8b57"/>
<text x="-8" y="1328.374" font-family="sans-serif" font-size="11" fill="#666" text-anchor="end">F1</text>
<circle cx="0" cy="1291.509" r="3" fill="#2e8b57"/>
<circle cx="0" cy="1257.666" r="3" fill="#2e8b57"/>
<circle cx="0" cy="1223.822" r="3" fill="#2e8b57"/>
<circle cx="0" cy="1189.979" r="3" fill="#2e8b57"/>
<text x="-8" y="1192.979" font-family="sans-serif" font-size="11" fill="#666" text-anchor="end">C2</text>
<circle cx="0" cy="1156.122" r="3" fill="#2e8b57"/>
<circle cx="0" cy="1122.279" r="3" fill="#2e8b57"/>
<circle cx="0" cy="1088.414" r="3" fill="#2e8b57"/>
<text x="-8" y="1091.414" font-family="sans-serif" font-size="11" fill="#666" text-anchor="end">F2</text>
<circle cx="0" cy="1054.571" r="3" fill="#2e8b57"/>
<circle cx="0" cy="1021.685" r="3" fill="#2e8b57"/>
<circle cx="0" cy="988.822" r="3" fill="#2e8b57"/>
<circle cx="0" cy="955.937" r="3" fill="#2e8b57"/>
<text x="-8" y="958.937" font-family="sans-serif" font-size="11" fill="#666" text-anchor="end">C3</text>
<circle cx="0" cy="923.052" r="3" fill="#2e8b57"/>
<circle cx="0" cy="892.106" r="3" fill="#2e8b57"/>
<circle cx="0" cy="861.137" r="3" fill="#2e8b57"/>
<text x="-8" y="864.137" font-family="sans-serif" font-size="11" fill="#666" text-anchor="end">F3</text>
<circle cx="0" cy="830.205" r="3" fill="#2e8b57"/>
<circle cx="0" cy="801.176" r="3" fill="#2e8b57"/>
<circle cx="0" cy="772.181" r="3" fill="#2e8b57"/>
<circle cx="0" cy="743.166" r="3" fill="#2e8b57"/>
<text x="-8" y="746.166" font-family="sans-serif" font-size="11" fill="#666" text-anchor="end">C4</text>
<circle cx="0" cy="714.136" r="3" fill="#2e8b57"/>
<circle cx="0" cy="685.121" r="3" fill="#2e8b57"/>
<circle cx="0" cy="656.125" r="3" fill="#2e8b57"/>
<text x="-8" y="659.125" font-family="sans-serif" font-size="11" fill="#666" text-anchor="end">F4</text>
<circle cx="0" cy="627.110" r="3" fill="#2e8b57"/>
<circle cx="0" cy="600.032" r="3" fill="#2e8b57"/>
<circle cx="0" cy="572.955" r="3" fill="#2e8b57"/>
<circle cx="0" cy="545.878" r="3" fill="#2e8b57"/>
<text x="-8" y="548.878" font-family="sans-serif" font-size="11" fill="#666" text-anchor="end">C5</text>
<circle cx="0" cy="518.800" r="3" fill="#2e8b57"/>
<circle cx="0" cy="491.723" r="3" fill="#2e8b57"/>
<circle cx="0" cy="464.645" r="3" fill="#2e8b57"/>
<text x="-8" y="467.645" font-family="sans-serif" font-size="11" fill="#666" text-anchor="end">F5</text>
<circle cx="0" cy="437.567" r="3" fill="#2e8b57"/>
<circle cx="0" cy="412.408" r="3" fill="#2e8b57"/>
<circle cx="0" cy="387.261" r="3" fill="#2e8b57"/>
<circle cx="0" cy="362.122" r="3" fill="#2e8b57"/>
<text x="-8" y="365.122" font-family="sans-serif" font-size="11" fill="#666" text-anchor="end">C6</text>
<circle cx="0" cy="336.961" r="3" fill="#2e8b57"/>
<circle cx="0" cy="311.835" r="3" fill="#2e8b57"/>
<circle cx="0" cy="286.675" r="3" fill="#2e8b57"/>
<text x="-8" y="289.675" font-family="sans-serif" font-size="11" fill="#666" text-anchor="end">F6</text>
<circle cx="0" cy="261.528" r="3" fill="#2e8b57"/>
<circle cx="0" cy="236.390" r="3" fill="#2e8b57"/>
<circle cx="0" cy="211.229" r="3" fill="#2e8b57"/>
<circle cx="0" cy="186.103" r="3" fill="#2e8b57"/>
<text x="-8" y="189.103" font-family="sans-serif" font-size="11" fill="#666" text-anchor="end">C7</text>
<circle cx="0" cy="160.943" r="3" fill="#2e8b57"/>
<circle cx="0" cy="135.818" r="3" fill="#2e8b57"/>
<circle cx="0" cy="110.658" r="3" fill="#2e8b57"/>
<text x="-8" y="113.658" font-family="sans-serif" font-size="11" fill="#666" text-anchor="end">F7</text>
<circle cx="0" cy="85.519" r="3" fill="#2e8b57"/>
<text x="200" y="1597.860" font-family="sans-serif" font-size="11" fill="#333">s'=0.0 D=231.8 (CO)</text>
<text x="200" y="1524.270" font-family="sans-serif" font-size="11" fill="#333">s'=73.6 D=261.8 (CI)</text>
<text x="200" y="1074.270" font-family="sans-serif" font-size="11" fill="#333">s'=523.6 D=360.0 (peak)</text>
<text x="200" y="39.007" font-family="sans-serif" font-size="11" fill="#333">s'=1558.9 D=74.1 (ST)</text>
<text x="200" y="3.000" font-family="sans-serif" font-size="11" fill="#333">s'=1594.9 D=63.3 (treble clear)</text>
<text x="200" y="1729.450" font-family="sans-serif" font-size="11" fill="#333">s'=-131.6 D=174.7 (bass clear)</text>
</svg>