<svg xmlns="http://www.w3.org/2000/svg" width="444" height="900" viewBox="0 0 952.24 1928.2" preserveAspectRatio="xMidYMid meet">
<style>.str{fill:none;stroke-linecap:round}.key{stroke:#888;stroke-width:0.35;fill:none}.sb{stroke:#555;stroke-width:0.6;fill:none}.g{fill:#1f77b4}.n{fill:#2ca02c}.f{fill:#d62728}.s{fill:#ff7f0e}.p{fill:#9467bd}.sml{font-family:sans-serif;font-size:10px;fill:#333}.lbl{font-family:sans-serif;font-size:14px;fill:#222;font-weight:bold}.big{font-family:sans-serif;font-size:18px;fill:#000;font-weight:bold}.col{font-family:sans-serif;font-size:14px;fill:#000;font-weight:bold}</style>
<rect x="0" y="0" width="952.24" height="1928.2" fill="#fff"/>
<line class="sb" x1="51.700" y1="1741.510" x2="838.784" y2="481.939"/>
<line x1="32.20" y1="38.10" x2="32.20" y2="1915.50" stroke="#888" stroke-width="0.4" stroke-dasharray="3,2"/>
<text x="32.20" y="976.80" text-anchor="middle" transform="rotate(-90 32.20 976.80)" class="col">COLUMN  39 x 1877 mm</text>
<line class="str" stroke="#c00000" stroke-width="1.676" x1="101.7" y1="1661.495" x2="101.7" y2="146.563"/>
<line class="str" stroke="#888" stroke-width="1.549" x1="119.632" y1="1632.793" x2="119.632" y2="143.109"/>
<line class="str" stroke="#888" stroke-width="1.448" x1="137.565" y1="1604.091" x2="137.565" y2="139.654"/>
<line class="str" stroke="#1060d0" stroke-width="1.27" x1="155.523" y1="1575.389" x2="155.523" y2="136.2"/>
<line class="str" stroke="#888" stroke-width="1.219" x1="173.455" y1="1546.662" x2="173.455" y2="137.775"/>
<line class="str" stroke="#888" stroke-width="1.219" x1="191.387" y1="1517.96" x2="191.387" y2="139.375"/>
<line class="str" stroke="#888" stroke-width="1.016" x1="209.32" y1="1489.258" x2="209.32" y2="140.975"/>
<line class="str" stroke="#c00000" stroke-width="1.016" x1="227.252" y1="1460.556" x2="227.252" y2="142.575"/>
<line class="str" stroke="#888" stroke-width="0.914" x1="245.21" y1="1431.854" x2="245.21" y2="149.23"/>
<line class="str" stroke="#888" stroke-width="2.642" x1="263.142" y1="1403.152" x2="263.142" y2="160.914"/>
<line class="str" stroke="#1060d0" stroke-width="2.489" x1="281.075" y1="1374.425" x2="281.075" y2="152.38"/>
<line class="str" stroke="#888" stroke-width="2.337" x1="299.007" y1="1345.723" x2="299.007" y2="159.035"/>
<line class="str" stroke="#888" stroke-width="2.184" x1="316.432" y1="1317.833" x2="316.432" y2="206.888"/>
<line class="str" stroke="#888" stroke-width="2.057" x1="333.856" y1="1289.97" x2="333.856" y2="234.574"/>
<line class="str" stroke="#c00000" stroke-width="2.057" x1="351.28" y1="1262.08" x2="351.28" y2="272.319"/>
<line class="str" stroke="#888" stroke-width="1.93" x1="368.705" y1="1234.191" x2="368.705" y2="310.088"/>
<line class="str" stroke="#888" stroke-width="1.676" x1="385.113" y1="1207.953" x2="385.113" y2="344.455"/>
<line class="str" stroke="#1060d0" stroke-width="1.676" x1="401.522" y1="1181.689" x2="401.522" y2="388.879"/>
<line class="str" stroke="#888" stroke-width="1.549" x1="417.905" y1="1155.451" x2="417.905" y2="423.245"/>
<line class="str" stroke="#888" stroke-width="1.549" x1="433.297" y1="1130.839" x2="433.297" y2="464.266"/>
<line class="str" stroke="#888" stroke-width="1.27" x1="448.664" y1="1106.251" x2="448.664" y2="485.12"/>
<line class="str" stroke="#c00000" stroke-width="1.27" x1="464.031" y1="1081.639" x2="464.031" y2="511.028"/>
<line class="str" stroke="#888" stroke-width="1.27" x1="479.423" y1="1057.026" x2="479.423" y2="531.856"/>
<line class="str" stroke="#888" stroke-width="1.143" x1="494.79" y1="1032.414" x2="494.79" y2="547.629"/>
<line class="str" stroke="#1060d0" stroke-width="1.143" x1="510.157" y1="1007.826" x2="510.157" y2="558.399"/>
<line class="str" stroke="#888" stroke-width="1.143" x1="525.524" y1="983.214" x2="525.524" y2="569.143"/>
<line class="str" stroke="#888" stroke-width="1.016" x1="539.875" y1="960.252" x2="539.875" y2="576.484"/>
<line class="str" stroke="#888" stroke-width="1.016" x1="554.226" y1="937.291" x2="554.226" y2="583.799"/>
<line class="str" stroke="#c00000" stroke-width="1.016" x1="568.577" y1="914.329" x2="568.577" y2="586.085"/>
<line class="str" stroke="#888" stroke-width="0.914" x1="582.928" y1="891.367" x2="582.928" y2="588.371"/>
<line class="str" stroke="#888" stroke-width="0.914" x1="597.279" y1="868.406" x2="597.279" y2="590.657"/>
<line class="str" stroke="#1060d0" stroke-width="0.914" x1="611.63" y1="845.444" x2="611.63" y2="582.834"/>
<line class="str" stroke="#888" stroke-width="0.813" x1="625.981" y1="822.482" x2="625.981" y2="585.12"/>
<line class="str" stroke="#888" stroke-width="0.813" x1="639.316" y1="801.147" x2="639.316" y2="578.947"/>
<line class="str" stroke="#888" stroke-width="0.813" x1="652.626" y1="779.811" x2="652.626" y2="572.775"/>
<line class="str" stroke="#c00000" stroke-width="0.813" x1="665.961" y1="758.5" x2="665.961" y2="566.603"/>
<line class="str" stroke="#888" stroke-width="0.762" x1="679.296" y1="737.164" x2="679.296" y2="560.431"/>
<line class="str" stroke="#888" stroke-width="0.762" x1="692.606" y1="715.853" x2="692.606" y2="554.259"/>
<line class="str" stroke="#1060d0" stroke-width="0.762" x1="705.941" y1="694.517" x2="705.941" y2="548.086"/>
<line class="str" stroke="#888" stroke-width="0.711" x1="719.25" y1="673.181" x2="719.25" y2="541.889"/>
<line class="str" stroke="#888" stroke-width="0.711" x1="732.585" y1="651.871" x2="732.585" y2="530.687"/>
<line class="str" stroke="#888" stroke-width="0.66" x1="745.92" y1="630.535" x2="745.92" y2="519.435"/>
<line class="str" stroke="#c00000" stroke-width="0.635" x1="759.23" y1="609.224" x2="759.23" y2="508.234"/>
<line class="str" stroke="#888" stroke-width="0.635" x1="772.565" y1="587.888" x2="772.565" y2="496.982"/>
<line class="str" stroke="#888" stroke-width="0.635" x1="785.874" y1="566.578" x2="785.874" y2="485.78"/>
<line class="str" stroke="#1060d0" stroke-width="0.635" x1="799.209" y1="545.242" x2="799.209" y2="474.553"/>
<line class="str" stroke="#888" stroke-width="0.635" x1="812.544" y1="523.931" x2="812.544" y2="463.327"/>
<line class="key" x1="101.7" y1="146.563" x2="112.803" y2="108.463"/>
<line class="key" x1="119.632" y1="143.109" x2="130.735" y2="105.009"/>
<line class="key" x1="137.565" y1="139.654" x2="148.667" y2="101.554"/>
<line class="key" x1="155.523" y1="136.2" x2="166.6" y2="98.1"/>
<line class="key" x1="173.455" y1="137.775" x2="182.558" y2="99.675"/>
<line class="key" x1="191.387" y1="139.375" x2="200.49" y2="101.275"/>
<line class="key" x1="209.32" y1="140.975" x2="218.422" y2="102.875"/>
<line class="key" x1="227.252" y1="142.575" x2="236.355" y2="104.475"/>
<line class="key" x1="245.21" y1="149.23" x2="254.287" y2="111.13"/>
<line class="key" x1="263.142" y1="160.914" x2="272.245" y2="122.814"/>
<line class="key" x1="281.075" y1="152.38" x2="290.175" y2="114.28"/>
<line class="key" x1="299.007" y1="159.035" x2="308.107" y2="120.935"/>
<line class="key" x1="316.432" y1="206.888" x2="325.532" y2="168.788"/>
<line class="key" x1="333.856" y1="234.574" x2="342.956" y2="196.474"/>
<line class="key" x1="351.28" y1="272.319" x2="360.38" y2="234.219"/>
<line class="key" x1="368.705" y1="310.088" x2="377.805" y2="271.988"/>
<line class="key" x1="385.113" y1="344.455" x2="394.213" y2="306.355"/>
<line class="key" x1="401.522" y1="388.879" x2="410.622" y2="350.779"/>
<line class="key" x1="417.905" y1="423.245" x2="427.005" y2="385.145"/>
<line class="key" x1="433.297" y1="464.266" x2="442.397" y2="426.166"/>
<line class="key" x1="448.664" y1="485.12" x2="457.764" y2="447.02"/>
<line class="key" x1="464.031" y1="511.028" x2="473.131" y2="472.928"/>
<line class="key" x1="479.423" y1="531.856" x2="488.523" y2="493.756"/>
<line class="key" x1="494.79" y1="547.629" x2="503.89" y2="509.529"/>
<line class="key" x1="510.157" y1="558.399" x2="519.257" y2="520.299"/>
<line class="key" x1="525.524" y1="569.143" x2="534.624" y2="531.043"/>
<line class="key" x1="539.875" y1="576.484" x2="548.975" y2="538.384"/>
<line class="key" x1="554.226" y1="583.799" x2="563.326" y2="545.699"/>
<line class="key" x1="568.577" y1="586.085" x2="577.677" y2="547.985"/>
<line class="key" x1="582.928" y1="588.371" x2="592.028" y2="550.271"/>
<line class="key" x1="597.279" y1="590.657" x2="606.379" y2="552.557"/>
<line class="key" x1="611.63" y1="582.834" x2="620.73" y2="544.734"/>
<line class="key" x1="625.981" y1="585.12" x2="635.081" y2="547.02"/>
<line class="key" x1="639.316" y1="578.947" x2="648.416" y2="540.847"/>
<line class="key" x1="652.626" y1="572.775" x2="661.751" y2="534.675"/>
<line class="key" x1="665.961" y1="566.603" x2="675.061" y2="528.503"/>
<line class="key" x1="679.296" y1="560.431" x2="688.396" y2="522.331"/>
<line class="key" x1="692.606" y1="554.259" x2="701.706" y2="516.159"/>
<line class="key" x1="705.941" y1="548.086" x2="715.041" y2="509.986"/>
<line class="key" x1="719.25" y1="541.889" x2="728.35" y2="503.789"/>
<line class="key" x1="732.585" y1="530.687" x2="741.685" y2="492.587"/>
<line class="key" x1="745.92" y1="519.435" x2="755.02" y2="481.335"/>
<line class="key" x1="759.23" y1="508.234" x2="768.33" y2="470.134"/>
<line class="key" x1="772.565" y1="496.982" x2="781.665" y2="458.882"/>
<line class="key" x1="785.874" y1="485.78" x2="794.974" y2="447.68"/>
<line class="key" x1="799.209" y1="474.553" x2="808.309" y2="436.453"/>
<line class="key" x1="812.544" y1="463.327" x2="821.622" y2="425.227"/>
<circle cx="112.803" cy="108.463" r="12.0" fill="none" stroke="#000" stroke-width="0.4"/>
<text x="112.803" y="103.463" text-anchor="middle" font-family="sans-serif" font-size="5" fill="#000">C1</text>
<circle class="p" cx="112.803" cy="108.463" r="2.6416"/>
<circle class="f" cx="101.7" cy="146.563" r="2.6416"/>
<circle cx="130.735" cy="105.009" r="12.0" fill="none" stroke="#000" stroke-width="0.4"/>
<text x="130.735" y="100.009" text-anchor="middle" font-family="sans-serif" font-size="5" fill="#000">D1</text>
<circle class="p" cx="130.735" cy="105.009" r="2.6416"/>
<circle class="f" cx="119.632" cy="143.109" r="2.6416"/>
<circle cx="148.667" cy="101.554" r="12.0" fill="none" stroke="#000" stroke-width="0.4"/>
<text x="148.667" y="96.554" text-anchor="middle" font-family="sans-serif" font-size="5" fill="#000">E1</text>
<circle class="p" cx="148.667" cy="101.554" r="2.6416"/>
<circle class="f" cx="137.565" cy="139.654" r="2.6416"/>
<circle cx="166.6" cy="98.1" r="12.0" fill="none" stroke="#000" stroke-width="0.4"/>
<text x="166.600" y="93.100" text-anchor="middle" font-family="sans-serif" font-size="5" fill="#000">F1</text>
<circle class="p" cx="166.6" cy="98.1" r="2.6416"/>
<circle class="f" cx="155.523" cy="136.2" r="2.6416"/>
<circle class="p" cx="182.558" cy="99.675" r="2.6416"/>
<circle class="f" cx="173.455" cy="137.775" r="2.6416"/>
<circle class="p" cx="200.49" cy="101.275" r="2.6416"/>
<circle class="f" cx="191.387" cy="139.375" r="2.6416"/>
<circle class="p" cx="218.422" cy="102.875" r="2.6416"/>
<circle class="f" cx="209.32" cy="140.975" r="2.6416"/>
<circle cx="236.355" cy="104.475" r="12.0" fill="none" stroke="#000" stroke-width="0.4"/>
<text x="236.355" y="99.475" text-anchor="middle" font-family="sans-serif" font-size="5" fill="#000">C2</text>
<circle class="p" cx="236.355" cy="104.475" r="2.6416"/>
<circle class="f" cx="227.252" cy="142.575" r="2.6416"/>
<circle class="p" cx="254.287" cy="111.13" r="2.6416"/>
<circle class="f" cx="245.21" cy="149.23" r="2.6416"/>
<circle class="p" cx="272.245" cy="122.814" r="2.6416"/>
<circle class="f" cx="263.142" cy="160.914" r="2.6416"/>
<circle cx="290.175" cy="114.28" r="12.0" fill="none" stroke="#000" stroke-width="0.4"/>
<text x="290.175" y="109.280" text-anchor="middle" font-family="sans-serif" font-size="5" fill="#000">F2</text>
<circle class="p" cx="290.175" cy="114.28" r="2.6416"/>
<circle class="f" cx="281.075" cy="152.38" r="2.6416"/>
<circle cx="308.107" cy="120.935" r="12.0" fill="none" stroke="#000" stroke-width="0.4"/>
<text x="308.107" y="115.935" text-anchor="middle" font-family="sans-serif" font-size="5" fill="#000">G2</text>
<circle class="p" cx="308.107" cy="120.935" r="2.6416"/>
<circle class="f" cx="299.007" cy="159.035" r="2.6416"/>
<circle class="p" cx="325.532" cy="168.788" r="2.6416"/>
<circle class="f" cx="316.432" cy="206.888" r="2.6416"/>
<circle cx="342.956" cy="196.474" r="12.0" fill="none" stroke="#000" stroke-width="0.4"/>
<text x="342.956" y="191.474" text-anchor="middle" font-family="sans-serif" font-size="5" fill="#000">B2</text>
<circle class="p" cx="342.956" cy="196.474" r="2.6416"/>
<circle class="f" cx="333.856" cy="234.574" r="2.6416"/>
<circle cx="360.38" cy="234.219" r="12.0" fill="none" stroke="#000" stroke-width="0.4"/>
<text x="360.380" y="229.219" text-anchor="middle" font-family="sans-serif" font-size="5" fill="#000">C3</text>
<circle class="p" cx="360.38" cy="234.219" r="2.6416"/>
<circle class="f" cx="351.28" cy="272.319" r="2.6416"/>
<circle cx="377.805" cy="271.988" r="12.0" fill="none" stroke="#000" stroke-width="0.4"/>
<text x="377.805" y="266.988" text-anchor="middle" font-family="sans-serif" font-size="5" fill="#000">D3</text>
<circle class="p" cx="377.805" cy="271.988" r="2.6416"/>
<circle class="f" cx="368.705" cy="310.088" r="2.6416"/>
<circle cx="394.213" cy="306.355" r="12.0" fill="none" stroke="#000" stroke-width="0.4"/>
<text x="394.213" y="301.355" text-anchor="middle" font-family="sans-serif" font-size="5" fill="#000">E3</text>
<circle class="p" cx="394.213" cy="306.355" r="2.6416"/>
<circle class="f" cx="385.113" cy="344.455" r="2.6416"/>
<circle cx="410.622" cy="350.779" r="12.0" fill="none" stroke="#000" stroke-width="0.4"/>
<text x="410.622" y="345.779" text-anchor="middle" font-family="sans-serif" font-size="5" fill="#000">F3</text>
<circle class="p" cx="410.622" cy="350.779" r="2.6416"/>
<circle class="f" cx="401.522" cy="388.879" r="2.6416"/>
<circle cx="427.005" cy="385.145" r="12.0" fill="none" stroke="#000" stroke-width="0.4"/>
<text x="427.005" y="380.145" text-anchor="middle" font-family="sans-serif" font-size="5" fill="#000">G3</text>
<circle class="p" cx="427.005" cy="385.145" r="2.6416"/>
<circle class="f" cx="417.905" cy="423.245" r="2.6416"/>
<circle cx="442.397" cy="426.166" r="12.0" fill="none" stroke="#000" stroke-width="0.4"/>
<text x="442.397" y="421.166" text-anchor="middle" font-family="sans-serif" font-size="5" fill="#000">A3</text>
<circle class="p" cx="442.397" cy="426.166" r="2.6416"/>
<circle class="f" cx="433.297" cy="464.266" r="2.6416"/>
<circle cx="457.764" cy="447.02" r="12.0" fill="none" stroke="#000" stroke-width="0.4"/>
<text x="457.764" y="442.020" text-anchor="middle" font-family="sans-serif" font-size="5" fill="#000">B3</text>
<circle class="p" cx="457.764" cy="447.02" r="2.6416"/>
<circle class="f" cx="448.664" cy="485.12" r="2.6416"/>
<circle cx="473.131" cy="472.928" r="12.0" fill="none" stroke="#000" stroke-width="0.4"/>
<text x="473.131" y="467.928" text-anchor="middle" font-family="sans-serif" font-size="5" fill="#000">C4</text>
<circle class="p" cx="473.131" cy="472.928" r="2.6416"/>
<circle class="f" cx="464.031" cy="511.028" r="2.6416"/>
<circle cx="488.523" cy="493.756" r="12.0" fill="none" stroke="#000" stroke-width="0.4"/>
<text x="488.523" y="488.756" text-anchor="middle" font-family="sans-serif" font-size="5" fill="#000">D4</text>
<circle class="p" cx="488.523" cy="493.756" r="2.6416"/>
<circle class="f" cx="479.423" cy="531.856" r="2.6416"/>
<circle cx="503.89" cy="509.529" r="12.0" fill="none" stroke="#000" stroke-width="0.4"/>
<text x="503.890" y="504.529" text-anchor="middle" font-family="sans-serif" font-size="5" fill="#000">E4</text>
<circle class="p" cx="503.89" cy="509.529" r="2.6416"/>
<circle class="f" cx="494.79" cy="547.629" r="2.6416"/>
<circle cx="519.257" cy="520.299" r="12.0" fill="none" stroke="#000" stroke-width="0.4"/>
<text x="519.257" y="515.299" text-anchor="middle" font-family="sans-serif" font-size="5" fill="#000">F4</text>
<circle class="p" cx="519.257" cy="520.299" r="2.6416"/>
<circle class="f" cx="510.157" cy="558.399" r="2.6416"/>
<circle cx="534.624" cy="531.043" r="12.0" fill="none" stroke="#000" stroke-width="0.4"/>
<text x="534.624" y="526.043" text-anchor="middle" font-family="sans-serif" font-size="5" fill="#000">G4</text>
<circle class="p" cx="534.624" cy="531.043" r="2.6416"/>
<circle class="f" cx="525.524" cy="569.143" r="2.6416"/>
<circle cx="548.975" cy="538.384" r="12.0" fill="none" stroke="#000" stroke-width="0.4"/>
<text x="548.975" y="533.384" text-anchor="middle" font-family="sans-serif" font-size="5" fill="#000">A4</text>
<circle class="p" cx="548.975" cy="538.384" r="2.6416"/>
<circle class="f" cx="539.875" cy="576.484" r="2.6416"/>
<circle cx="563.326" cy="545.699" r="12.0" fill="none" stroke="#000" stroke-width="0.4"/>
<text x="563.326" y="540.699" text-anchor="middle" font-family="sans-serif" font-size="5" fill="#000">B4</text>
<circle class="p" cx="563.326" cy="545.699" r="2.6416"/>
<circle class="f" cx="554.226" cy="583.799" r="2.6416"/>
<circle cx="577.677" cy="547.985" r="12.0" fill="none" stroke="#000" stroke-width="0.4"/>
<text x="577.677" y="542.985" text-anchor="middle" font-family="sans-serif" font-size="5" fill="#000">C5</text>
<circle class="p" cx="577.677" cy="547.985" r="2.6416"/>
<circle class="f" cx="568.577" cy="586.085" r="2.6416"/>
<circle class="p" cx="592.028" cy="550.271" r="2.6416"/>
<circle class="f" cx="582.928" cy="588.371" r="2.6416"/>
<circle class="p" cx="606.379" cy="552.557" r="2.6416"/>
<circle class="f" cx="597.279" cy="590.657" r="2.6416"/>
<circle cx="620.73" cy="544.734" r="12.0" fill="none" stroke="#000" stroke-width="0.4"/>
<text x="620.730" y="539.734" text-anchor="middle" font-family="sans-serif" font-size="5" fill="#000">F5</text>
<circle class="p" cx="620.73" cy="544.734" r="2.6416"/>
<circle class="f" cx="611.63" cy="582.834" r="2.6416"/>
<circle class="p" cx="635.081" cy="547.02" r="2.6416"/>
<circle class="f" cx="625.981" cy="585.12" r="2.6416"/>
<circle class="p" cx="648.416" cy="540.847" r="2.6416"/>
<circle class="f" cx="639.316" cy="578.947" r="2.6416"/>
<circle cx="661.751" cy="534.675" r="12.0" fill="none" stroke="#000" stroke-width="0.4"/>
<text x="661.751" y="529.675" text-anchor="middle" font-family="sans-serif" font-size="5" fill="#000">B5</text>
<circle class="p" cx="661.751" cy="534.675" r="2.6416"/>
<circle class="f" cx="652.626" cy="572.775" r="2.6416"/>
<circle cx="675.061" cy="528.503" r="12.0" fill="none" stroke="#000" stroke-width="0.4"/>
<text x="675.061" y="523.503" text-anchor="middle" font-family="sans-serif" font-size="5" fill="#000">C6</text>
<circle class="p" cx="675.061" cy="528.503" r="2.6416"/>
<circle class="f" cx="665.961" cy="566.603" r="2.6416"/>
<circle cx="688.396" cy="522.331" r="12.0" fill="none" stroke="#000" stroke-width="0.4"/>
<text x="688.396" y="517.331" text-anchor="middle" font-family="sans-serif" font-size="5" fill="#000">D6</text>
<circle class="p" cx="688.396" cy="522.331" r="2.6416"/>
<circle class="f" cx="679.296" cy="560.431" r="2.6416"/>
<circle cx="701.706" cy="516.159" r="12.0" fill="none" stroke="#000" stroke-width="0.4"/>
<text x="701.706" y="511.159" text-anchor="middle" font-family="sans-serif" font-size="5" fill="#000">E6</text>
<circle class="p" cx="701.706" cy="516.159" r="2.6416"/>
<circle class="f" cx="692.606" cy="554.259" r="2.6416"/>
<circle cx="715.041" cy="509.986" r="12.0" fill="none" stroke="#000" stroke-width="0.4"/>
<text x="715.041" y="504.986" text-anchor="middle" font-family="sans-serif" font-size="5" fill="#000">F6</text>
<circle class="p" cx="715.041" cy="509.986" r="2.6416"/>
<circle class="f" cx="705.941" cy="548.086" r="2.6416"/>
<circle class="p" cx="728.35" cy="503.789" r="2.6416"/>
<circle class="f" cx="719.25" cy="541.889" r="2.6416"/>
<circle cx="741.685" cy="492.587" r="12.0" fill="none" stroke="#000" stroke-width="0.4"/>
<text x="741.685" y="487.587" text-anchor="middle" font-family="sans-serif" font-size="5" fill="#000">A6</text>
<circle class="p" cx="741.685" cy="492.587" r="2.6416"/>
<circle class="f" cx="732.585" cy="530.687" r="2.6416"/>
<circle cx="755.02" cy="481.335" r="12.0" fill="none" stroke="#000" stroke-width="0.4"/>
<text x="755.020" y="476.335" text-anchor="middle" font-family="sans-serif" font-size="5" fill="#000">B6</text>
<circle class="p" cx="755.02" cy="481.335" r="2.6416"/>
<circle class="f" cx="745.92" cy="519.435" r="2.6416"/>
<circle cx="768.33" cy="470.134" r="12.0" fill="none" stroke="#000" stroke-width="0.4"/>
<text x="768.330" y="465.134" text-anchor="middle" font-family="sans-serif" font-size="5" fill="#000">C7</text>
<circle class="p" cx="768.33" cy="470.134" r="2.6416"/>
<circle class="f" cx="759.23" cy="508.234" r="2.6416"/>
<circle cx="781.665" cy="458.882" r="12.0" fill="none" stroke="#000" stroke-width="0.4"/>
<text x="781.665" y="453.882" text-anchor="middle" font-family="sans-serif" font-size="5" fill="#000">D7</text>
<circle class="p" cx="781.665" cy="458.882" r="2.6416"/>
<circle class="f" cx="772.565" cy="496.982" r="2.6416"/>
<circle cx="794.974" cy="447.68" r="12.0" fill="none" stroke="#000" stroke-width="0.4"/>
<text x="794.974" y="442.680" text-anchor="middle" font-family="sans-serif" font-size="5" fill="#000">E7</text>
<circle class="p" cx="794.974" cy="447.68" r="2.6416"/>
<circle class="f" cx="785.874" cy="485.78" r="2.6416"/>
<circle cx="808.309" cy="436.453" r="12.0" fill="none" stroke="#000" stroke-width="0.4"/>
<text x="808.309" y="431.453" text-anchor="middle" font-family="sans-serif" font-size="5" fill="#000">F7</text>
<circle class="p" cx="808.309" cy="436.453" r="2.6416"/>
<circle class="f" cx="799.209" cy="474.553" r="2.6416"/>
<circle cx="821.622" cy="425.227" r="12.0" fill="none" stroke="#000" stroke-width="0.4"/>
<text x="821.622" y="420.227" text-anchor="middle" font-family="sans-serif" font-size="5" fill="#000">G7</text>
<circle class="p" cx="821.622" cy="425.227" r="2.6416"/>
<circle class="f" cx="812.544" cy="463.327" r="2.6416"/>
<circle class="n" cx="101.700" cy="231.590" r="2.6416"/>
<circle cx="101.700" cy="311.844" r="12.0" fill="none" stroke="#000" stroke-width="0.4"/>
<text x="101.700" y="306.844" text-anchor="middle" font-family="sans-serif" font-size="5" fill="#000">C1</text>
<circle class="s" cx="101.700" cy="311.844" r="2.6416"/>
<circle class="g" cx="101.7" cy="1661.495" r="2.6416"/>
<circle class="n" cx="119.632" cy="226.719" r="2.6416"/>
<circle cx="119.632" cy="305.635" r="12.0" fill="none" stroke="#000" stroke-width="0.4"/>
<text x="119.632" y="300.635" text-anchor="middle" font-family="sans-serif" font-size="5" fill="#000">D1</text>
<circle class="s" cx="119.632" cy="305.635" r="2.6416"/>
<circle class="g" cx="119.632" cy="1632.793" r="2.6416"/>
<circle class="n" cx="137.565" cy="221.847" r="2.6416"/>
<circle cx="137.565" cy="299.426" r="12.0" fill="none" stroke="#000" stroke-width="0.4"/>
<text x="137.565" y="294.426" text-anchor="middle" font-family="sans-serif" font-size="5" fill="#000">E1</text>
<circle class="s" cx="137.565" cy="299.426" r="2.6416"/>
<circle class="g" cx="137.565" cy="1604.091" r="2.6416"/>
<circle class="n" cx="155.523" cy="216.975" r="2.6416"/>
<circle cx="155.523" cy="293.217" r="12.0" fill="none" stroke="#000" stroke-width="0.4"/>
<text x="155.523" y="288.217" text-anchor="middle" font-family="sans-serif" font-size="5" fill="#000">F1</text>
<circle class="s" cx="155.523" cy="293.217" r="2.6416"/>
<circle class="g" cx="155.523" cy="1575.389" r="2.6416"/>
<circle class="n" cx="173.455" cy="216.850" r="2.6416"/>
<circle cx="173.455" cy="291.486" r="12.0" fill="none" stroke="#000" stroke-width="0.4"/>
<text x="173.455" y="286.486" text-anchor="middle" font-family="sans-serif" font-size="5" fill="#000">G1</text>
<circle class="s" cx="173.455" cy="291.486" r="2.6416"/>
<circle class="g" cx="173.455" cy="1546.662" r="2.6416"/>
<circle class="n" cx="191.387" cy="216.749" r="2.6416"/>
<circle cx="191.387" cy="289.780" r="12.0" fill="none" stroke="#000" stroke-width="0.4"/>
<text x="191.387" y="284.780" text-anchor="middle" font-family="sans-serif" font-size="5" fill="#000">A1</text>
<circle class="s" cx="191.387" cy="289.780" r="2.6416"/>
<circle class="g" cx="191.387" cy="1517.96" r="2.6416"/>
<circle class="n" cx="209.320" cy="216.648" r="2.6416"/>
<circle cx="209.320" cy="288.074" r="12.0" fill="none" stroke="#000" stroke-width="0.4"/>
<text x="209.320" y="283.074" text-anchor="middle" font-family="sans-serif" font-size="5" fill="#000">B1</text>
<circle class="s" cx="209.320" cy="288.074" r="2.6416"/>
<circle class="g" cx="209.32" cy="1489.258" r="2.6416"/>
<circle class="n" cx="227.252" cy="216.548" r="2.6416"/>
<circle class="s" cx="227.252" cy="286.368" r="2.6416"/>
<circle class="g" cx="227.252" cy="1460.556" r="2.6416"/>
<circle class="n" cx="245.210" cy="221.218" r="2.6416"/>
<circle class="s" cx="245.210" cy="289.166" r="2.6416"/>
<circle class="g" cx="245.21" cy="1431.854" r="2.6416"/>
<circle class="n" cx="263.142" cy="230.635" r="2.6416"/>
<circle cx="263.142" cy="296.444" r="12.0" fill="none" stroke="#000" stroke-width="0.4"/>
<text x="263.142" y="291.444" text-anchor="middle" font-family="sans-serif" font-size="5" fill="#000">E2</text>
<circle class="s" cx="263.142" cy="296.444" r="2.6416"/>
<circle class="g" cx="263.142" cy="1403.152" r="2.6416"/>
<circle class="n" cx="281.075" cy="220.968" r="2.6416"/>
<circle class="s" cx="281.075" cy="285.707" r="2.6416"/>
<circle class="g" cx="281.075" cy="1374.425" r="2.6416"/>
<circle class="n" cx="299.007" cy="225.639" r="2.6416"/>
<circle class="s" cx="299.007" cy="288.504" r="2.6416"/>
<circle class="g" cx="299.007" cy="1345.723" r="2.6416"/>
<circle class="n" cx="316.432" cy="269.241" r="2.6416"/>
<circle cx="316.432" cy="328.094" r="12.0" fill="none" stroke="#000" stroke-width="0.4"/>
<text x="316.432" y="323.094" text-anchor="middle" font-family="sans-serif" font-size="5" fill="#000">A2</text>
<circle class="s" cx="316.432" cy="328.094" r="2.6416"/>
<circle class="g" cx="316.432" cy="1317.833" r="2.6416"/>
<circle class="n" cx="333.856" cy="293.809" r="2.6416"/>
<circle cx="333.856" cy="349.719" r="12.0" fill="none" stroke="#000" stroke-width="0.4"/>
<text x="333.856" y="344.719" text-anchor="middle" font-family="sans-serif" font-size="5" fill="#000">B2</text>
<circle class="s" cx="333.856" cy="349.719" r="2.6416"/>
<circle class="g" cx="333.856" cy="1289.97" r="2.6416"/>
<circle class="n" cx="351.280" cy="327.870" r="2.6416"/>
<circle cx="351.280" cy="380.303" r="12.0" fill="none" stroke="#000" stroke-width="0.4"/>
<text x="351.280" y="375.303" text-anchor="middle" font-family="sans-serif" font-size="5" fill="#000">C3</text>
<circle class="s" cx="351.280" cy="380.303" r="2.6416"/>
<circle class="g" cx="351.28" cy="1262.08" r="2.6416"/>
<circle class="n" cx="368.705" cy="361.954" r="2.6416"/>
<circle cx="368.705" cy="410.909" r="12.0" fill="none" stroke="#000" stroke-width="0.4"/>
<text x="368.705" y="405.909" text-anchor="middle" font-family="sans-serif" font-size="5" fill="#000">D3</text>
<circle class="s" cx="368.705" cy="410.909" r="2.6416"/>
<circle class="g" cx="368.705" cy="1234.191" r="2.6416"/>
<circle class="n" cx="385.113" cy="392.919" r="2.6416"/>
<circle cx="385.113" cy="438.664" r="12.0" fill="none" stroke="#000" stroke-width="0.4"/>
<text x="385.113" y="433.664" text-anchor="middle" font-family="sans-serif" font-size="5" fill="#000">E3</text>
<circle class="s" cx="385.113" cy="438.664" r="2.6416"/>
<circle class="g" cx="385.113" cy="1207.953" r="2.6416"/>
<circle class="n" cx="401.522" cy="433.376" r="2.6416"/>
<circle cx="401.522" cy="475.376" r="12.0" fill="none" stroke="#000" stroke-width="0.4"/>
<text x="401.522" y="470.376" text-anchor="middle" font-family="sans-serif" font-size="5" fill="#000">F3</text>
<circle class="s" cx="401.522" cy="475.376" r="2.6416"/>
<circle class="g" cx="401.522" cy="1181.689" r="2.6416"/>
<circle class="n" cx="417.905" cy="464.341" r="2.6416"/>
<circle cx="417.905" cy="503.130" r="12.0" fill="none" stroke="#000" stroke-width="0.4"/>
<text x="417.905" y="498.130" text-anchor="middle" font-family="sans-serif" font-size="5" fill="#000">G3</text>
<circle class="s" cx="417.905" cy="503.130" r="2.6416"/>
<circle class="g" cx="417.905" cy="1155.451" r="2.6416"/>
<circle class="n" cx="433.297" cy="501.678" r="2.6416"/>
<circle cx="433.297" cy="536.990" r="12.0" fill="none" stroke="#000" stroke-width="0.4"/>
<text x="433.297" y="531.990" text-anchor="middle" font-family="sans-serif" font-size="5" fill="#000">A3</text>
<circle class="s" cx="433.297" cy="536.990" r="2.6416"/>
<circle class="g" cx="433.297" cy="1130.839" r="2.6416"/>
<circle class="n" cx="448.664" cy="519.981" r="2.6416"/>
<circle class="s" cx="448.664" cy="552.886" r="2.6416"/>
<circle class="g" cx="448.664" cy="1106.251" r="2.6416"/>
<circle class="n" cx="464.031" cy="543.054" r="2.6416"/>
<circle cx="464.031" cy="573.282" r="12.0" fill="none" stroke="#000" stroke-width="0.4"/>
<text x="464.031" y="568.282" text-anchor="middle" font-family="sans-serif" font-size="5" fill="#000">C4</text>
<circle class="s" cx="464.031" cy="573.282" r="2.6416"/>
<circle class="g" cx="464.031" cy="1081.639" r="2.6416"/>
<circle class="n" cx="479.423" cy="561.332" r="2.6416"/>
<circle cx="479.423" cy="589.153" r="12.0" fill="none" stroke="#000" stroke-width="0.4"/>
<text x="479.423" y="584.153" text-anchor="middle" font-family="sans-serif" font-size="5" fill="#000">D4</text>
<circle class="s" cx="479.423" cy="589.153" r="2.6416"/>
<circle class="g" cx="479.423" cy="1057.026" r="2.6416"/>
<circle class="n" cx="494.790" cy="574.838" r="2.6416"/>
<circle cx="494.790" cy="600.520" r="12.0" fill="none" stroke="#000" stroke-width="0.4"/>
<text x="494.790" y="595.520" text-anchor="middle" font-family="sans-serif" font-size="5" fill="#000">E4</text>
<circle class="s" cx="494.790" cy="600.520" r="2.6416"/>
<circle class="g" cx="494.79" cy="1032.414" r="2.6416"/>
<circle class="n" cx="510.157" cy="583.623" r="2.6416"/>
<circle cx="510.157" cy="607.432" r="12.0" fill="none" stroke="#000" stroke-width="0.4"/>
<text x="510.157" y="602.432" text-anchor="middle" font-family="sans-serif" font-size="5" fill="#000">F4</text>
<circle class="s" cx="510.157" cy="607.432" r="2.6416"/>
<circle class="g" cx="510.157" cy="1007.826" r="2.6416"/>
<circle class="n" cx="525.524" cy="592.383" r="2.6416"/>
<circle cx="525.524" cy="614.319" r="12.0" fill="none" stroke="#000" stroke-width="0.4"/>
<text x="525.524" y="609.319" text-anchor="middle" font-family="sans-serif" font-size="5" fill="#000">G4</text>
<circle class="s" cx="525.524" cy="614.319" r="2.6416"/>
<circle class="g" cx="525.524" cy="983.214" r="2.6416"/>
<circle class="n" cx="539.875" cy="598.023" r="2.6416"/>
<circle cx="539.875" cy="618.354" r="12.0" fill="none" stroke="#000" stroke-width="0.4"/>
<text x="539.875" y="613.354" text-anchor="middle" font-family="sans-serif" font-size="5" fill="#000">A4</text>
<circle class="s" cx="539.875" cy="618.354" r="2.6416"/>
<circle class="g" cx="539.875" cy="960.252" r="2.6416"/>
<circle class="n" cx="554.226" cy="603.639" r="2.6416"/>
<circle cx="554.226" cy="622.365" r="12.0" fill="none" stroke="#000" stroke-width="0.4"/>
<text x="554.226" y="617.365" text-anchor="middle" font-family="sans-serif" font-size="5" fill="#000">B4</text>
<circle class="s" cx="554.226" cy="622.365" r="2.6416"/>
<circle class="g" cx="554.226" cy="937.291" r="2.6416"/>
<circle class="n" cx="568.577" cy="604.508" r="2.6416"/>
<circle class="s" cx="568.577" cy="621.897" r="2.6416"/>
<circle class="g" cx="568.577" cy="914.329" r="2.6416"/>
<circle class="n" cx="582.928" cy="605.377" r="2.6416"/>
<circle class="s" cx="582.928" cy="621.428" r="2.6416"/>
<circle class="g" cx="582.928" cy="891.367" r="2.6416"/>
<circle class="n" cx="597.279" cy="606.246" r="2.6416"/>
<circle cx="597.279" cy="620.960" r="12.0" fill="none" stroke="#000" stroke-width="0.4"/>
<text x="597.279" y="615.960" text-anchor="middle" font-family="sans-serif" font-size="5" fill="#000">E5</text>
<circle class="s" cx="597.279" cy="620.960" r="2.6416"/>
<circle class="g" cx="597.279" cy="868.406" r="2.6416"/>
<circle class="n" cx="611.630" cy="597.573" r="2.6416"/>
<circle class="s" cx="611.630" cy="611.485" r="2.6416"/>
<circle class="g" cx="611.63" cy="845.444" r="2.6416"/>
<circle class="n" cx="625.981" cy="598.442" r="2.6416"/>
<circle cx="625.981" cy="611.016" r="12.0" fill="none" stroke="#000" stroke-width="0.4"/>
<text x="625.981" y="606.016" text-anchor="middle" font-family="sans-serif" font-size="5" fill="#000">G5</text>
<circle class="s" cx="625.981" cy="611.016" r="2.6416"/>
<circle class="g" cx="625.981" cy="822.482" r="2.6416"/>
<circle class="n" cx="639.316" cy="591.418" r="2.6416"/>
<circle cx="639.316" cy="603.189" r="12.0" fill="none" stroke="#000" stroke-width="0.4"/>
<text x="639.316" y="598.189" text-anchor="middle" font-family="sans-serif" font-size="5" fill="#000">A5</text>
<circle class="s" cx="639.316" cy="603.189" r="2.6416"/>
<circle class="g" cx="639.316" cy="801.147" r="2.6416"/>
<circle class="n" cx="652.626" cy="584.395" r="2.6416"/>
<circle cx="652.626" cy="595.363" r="12.0" fill="none" stroke="#000" stroke-width="0.4"/>
<text x="652.626" y="590.363" text-anchor="middle" font-family="sans-serif" font-size="5" fill="#000">B5</text>
<circle class="s" cx="652.626" cy="595.363" r="2.6416"/>
<circle class="g" cx="652.626" cy="779.811" r="2.6416"/>
<circle class="n" cx="665.961" cy="577.373" r="2.6416"/>
<circle cx="665.961" cy="587.539" r="12.0" fill="none" stroke="#000" stroke-width="0.4"/>
<text x="665.961" y="582.539" text-anchor="middle" font-family="sans-serif" font-size="5" fill="#000">C6</text>
<circle class="s" cx="665.961" cy="587.539" r="2.6416"/>
<circle class="g" cx="665.961" cy="758.5" r="2.6416"/>
<circle class="n" cx="679.296" cy="570.350" r="2.6416"/>
<circle cx="679.296" cy="579.713" r="12.0" fill="none" stroke="#000" stroke-width="0.4"/>
<text x="679.296" y="574.713" text-anchor="middle" font-family="sans-serif" font-size="5" fill="#000">D6</text>
<circle class="s" cx="679.296" cy="579.713" r="2.6416"/>
<circle class="g" cx="679.296" cy="737.164" r="2.6416"/>
<circle class="n" cx="692.606" cy="563.329" r="2.6416"/>
<circle cx="692.606" cy="571.889" r="12.0" fill="none" stroke="#000" stroke-width="0.4"/>
<text x="692.606" y="566.889" text-anchor="middle" font-family="sans-serif" font-size="5" fill="#000">E6</text>
<circle class="s" cx="692.606" cy="571.889" r="2.6416"/>
<circle class="g" cx="692.606" cy="715.853" r="2.6416"/>
<circle class="n" cx="705.941" cy="556.305" r="2.6416"/>
<circle cx="705.941" cy="564.062" r="12.0" fill="none" stroke="#000" stroke-width="0.4"/>
<text x="705.941" y="559.062" text-anchor="middle" font-family="sans-serif" font-size="5" fill="#000">F6</text>
<circle class="s" cx="705.941" cy="564.062" r="2.6416"/>
<circle class="g" cx="705.941" cy="694.517" r="2.6416"/>
<circle class="n" cx="719.250" cy="549.258" r="2.6416"/>
<circle cx="719.250" cy="556.213" r="12.0" fill="none" stroke="#000" stroke-width="0.4"/>
<text x="719.250" y="551.213" text-anchor="middle" font-family="sans-serif" font-size="5" fill="#000">G6</text>
<circle class="s" cx="719.250" cy="556.213" r="2.6416"/>
<circle class="g" cx="719.25" cy="673.181" r="2.6416"/>
<circle class="n" cx="732.585" cy="537.489" r="2.6416"/>
<circle cx="732.585" cy="543.908" r="12.0" fill="none" stroke="#000" stroke-width="0.4"/>
<text x="732.585" y="538.908" text-anchor="middle" font-family="sans-serif" font-size="5" fill="#000">A6</text>
<circle class="s" cx="732.585" cy="543.908" r="2.6416"/>
<circle class="g" cx="732.585" cy="651.871" r="2.6416"/>
<circle class="n" cx="745.920" cy="525.671" r="2.6416"/>
<circle cx="745.920" cy="531.556" r="12.0" fill="none" stroke="#000" stroke-width="0.4"/>
<text x="745.920" y="526.556" text-anchor="middle" font-family="sans-serif" font-size="5" fill="#000">B6</text>
<circle class="s" cx="745.920" cy="531.556" r="2.6416"/>
<circle class="g" cx="745.92" cy="630.535" r="2.6416"/>
<circle class="n" cx="759.230" cy="513.902" r="2.6416"/>
<circle cx="759.230" cy="519.252" r="12.0" fill="none" stroke="#000" stroke-width="0.4"/>
<text x="759.230" y="514.252" text-anchor="middle" font-family="sans-serif" font-size="5" fill="#000">C7</text>
<circle class="s" cx="759.230" cy="519.252" r="2.6416"/>
<circle class="g" cx="759.23" cy="609.224" r="2.6416"/>
<circle class="n" cx="772.565" cy="502.084" r="2.6416"/>
<circle cx="772.565" cy="506.900" r="12.0" fill="none" stroke="#000" stroke-width="0.4"/>
<text x="772.565" y="501.900" text-anchor="middle" font-family="sans-serif" font-size="5" fill="#000">D7</text>
<circle class="s" cx="772.565" cy="506.900" r="2.6416"/>
<circle class="g" cx="772.565" cy="587.888" r="2.6416"/>
<circle class="n" cx="785.874" cy="490.315" r="2.6416"/>
<circle cx="785.874" cy="494.595" r="12.0" fill="none" stroke="#000" stroke-width="0.4"/>
<text x="785.874" y="489.595" text-anchor="middle" font-family="sans-serif" font-size="5" fill="#000">E7</text>
<circle class="s" cx="785.874" cy="494.595" r="2.6416"/>
<circle class="g" cx="785.874" cy="566.578" r="2.6416"/>
<circle class="n" cx="799.209" cy="478.520" r="2.6416"/>
<circle cx="799.209" cy="482.265" r="12.0" fill="none" stroke="#000" stroke-width="0.4"/>
<text x="799.209" y="477.265" text-anchor="middle" font-family="sans-serif" font-size="5" fill="#000">F7</text>
<circle class="s" cx="799.209" cy="482.265" r="2.6416"/>
<circle class="g" cx="799.209" cy="545.242" r="2.6416"/>
<circle class="n" cx="812.544" cy="466.728" r="2.6416"/>
<circle cx="812.544" cy="469.939" r="12.0" fill="none" stroke="#000" stroke-width="0.4"/>
<text x="812.544" y="464.939" text-anchor="middle" font-family="sans-serif" font-size="5" fill="#000">G7</text>
<circle class="s" cx="812.544" cy="469.939" r="2.6416"/>
<circle class="g" cx="812.544" cy="523.931" r="2.6416"/>
<text x="101.7" y="1693.495" text-anchor="middle" class="lbl">C1</text>
<text x="97.7" y="1679.495" class="sml">1</text>
<text x="119.632" y="1664.793" text-anchor="middle" class="lbl">D1</text>
<text x="115.632" y="1650.793" class="sml">2</text>
<text x="137.565" y="1636.091" text-anchor="middle" class="lbl">E1</text>
<text x="133.565" y="1622.091" class="sml">3</text>
<text x="155.523" y="1607.389" text-anchor="middle" class="lbl">F1</text>
<text x="151.523" y="1593.389" class="sml">4</text>
<text x="173.455" y="1578.662" text-anchor="middle" class="lbl">G1</text>
<text x="169.455" y="1564.662" class="sml">5</text>
<text x="191.387" y="1549.96" text-anchor="middle" class="lbl">A1</text>
<text x="187.387" y="1535.96" class="sml">6</text>
<text x="209.32" y="1521.258" text-anchor="middle" class="lbl">B1</text>
<text x="205.32" y="1507.258" class="sml">7</text>
<text x="227.252" y="1492.556" text-anchor="middle" class="lbl">C2</text>
<text x="223.252" y="1478.556" class="sml">8</text>
<text x="245.21" y="1463.854" text-anchor="middle" class="lbl">D2</text>
<text x="241.21" y="1449.854" class="sml">9</text>
<text x="263.142" y="1435.152" text-anchor="middle" class="lbl">E2</text>
<text x="259.142" y="1421.152" class="sml">10</text>
<text x="281.075" y="1406.425" text-anchor="middle" class="lbl">F2</text>
<text x="277.075" y="1392.425" class="sml">11</text>
<text x="299.007" y="1377.723" text-anchor="middle" class="lbl">G2</text>
<text x="295.007" y="1363.723" class="sml">12</text>
<text x="316.432" y="1349.833" text-anchor="middle" class="lbl">A2</text>
<text x="312.432" y="1335.833" class="sml">13</text>
<text x="333.856" y="1321.97" text-anchor="middle" class="lbl">B2</text>
<text x="329.856" y="1307.97" class="sml">14</text>
<text x="351.28" y="1294.08" text-anchor="middle" class="lbl">C3</text>
<text x="347.28" y="1280.08" class="sml">15</text>
<text x="368.705" y="1266.191" text-anchor="middle" class="lbl">D3</text>
<text x="364.705" y="1252.191" class="sml">16</text>
<text x="385.113" y="1239.953" text-anchor="middle" class="lbl">E3</text>
<text x="381.113" y="1225.953" class="sml">17</text>
<text x="401.522" y="1213.689" text-anchor="middle" class="lbl">F3</text>
<text x="397.522" y="1199.689" class="sml">18</text>
<text x="417.905" y="1187.451" text-anchor="middle" class="lbl">G3</text>
<text x="413.905" y="1173.451" class="sml">19</text>
<text x="433.297" y="1162.839" text-anchor="middle" class="lbl">A3</text>
<text x="429.297" y="1148.839" class="sml">20</text>
<text x="448.664" y="1138.251" text-anchor="middle" class="lbl">B3</text>
<text x="444.664" y="1124.251" class="sml">21</text>
<text x="464.031" y="1113.639" text-anchor="middle" class="lbl">C4</text>
<text x="460.031" y="1099.639" class="sml">22</text>
<text x="479.423" y="1089.026" text-anchor="middle" class="lbl">D4</text>
<text x="475.423" y="1075.026" class="sml">23</text>
<text x="494.79" y="1064.414" text-anchor="middle" class="lbl">E4</text>
<text x="490.79" y="1050.414" class="sml">24</text>
<text x="510.157" y="1039.826" text-anchor="middle" class="lbl">F4</text>
<text x="506.157" y="1025.826" class="sml">25</text>
<text x="525.524" y="1015.214" text-anchor="middle" class="lbl">G4</text>
<text x="521.524" y="1001.214" class="sml">26</text>
<text x="539.875" y="992.252" text-anchor="middle" class="lbl">A4</text>
<text x="535.875" y="978.252" class="sml">27</text>
<text x="554.226" y="969.291" text-anchor="middle" class="lbl">B4</text>
<text x="550.226" y="955.291" class="sml">28</text>
<text x="568.577" y="946.329" text-anchor="middle" class="lbl">C5</text>
<text x="564.577" y="932.329" class="sml">29</text>
<text x="582.928" y="923.367" text-anchor="middle" class="lbl">D5</text>
<text x="578.928" y="909.367" class="sml">30</text>
<text x="597.279" y="900.406" text-anchor="middle" class="lbl">E5</text>
<text x="593.279" y="886.406" class="sml">31</text>
<text x="611.63" y="877.444" text-anchor="middle" class="lbl">F5</text>
<text x="607.63" y="863.444" class="sml">32</text>
<text x="625.981" y="854.482" text-anchor="middle" class="lbl">G5</text>
<text x="621.981" y="840.482" class="sml">33</text>
<text x="639.316" y="833.147" text-anchor="middle" class="lbl">A5</text>
<text x="635.316" y="819.147" class="sml">34</text>
<text x="652.626" y="811.811" text-anchor="middle" class="lbl">B5</text>
<text x="648.626" y="797.811" class="sml">35</text>
<text x="665.961" y="790.5" text-anchor="middle" class="lbl">C6</text>
<text x="661.961" y="776.5" class="sml">36</text>
<text x="679.296" y="769.164" text-anchor="middle" class="lbl">D6</text>
<text x="675.296" y="755.164" class="sml">37</text>
<text x="692.606" y="747.853" text-anchor="middle" class="lbl">E6</text>
<text x="688.606" y="733.853" class="sml">38</text>
<text x="705.941" y="726.517" text-anchor="middle" class="lbl">F6</text>
<text x="701.941" y="712.517" class="sml">39</text>
<text x="719.25" y="705.181" text-anchor="middle" class="lbl">G6</text>
<text x="715.25" y="691.181" class="sml">40</text>
<text x="732.585" y="683.871" text-anchor="middle" class="lbl">A6</text>
<text x="728.585" y="669.871" class="sml">41</text>
<text x="745.92" y="662.535" text-anchor="middle" class="lbl">B6</text>
<text x="741.92" y="648.535" class="sml">42</text>
<text x="759.23" y="641.224" text-anchor="middle" class="lbl">C7</text>
<text x="755.23" y="627.224" class="sml">43</text>
<text x="772.565" y="619.888" text-anchor="middle" class="lbl">D7</text>
<text x="768.565" y="605.888" class="sml">44</text>
<text x="785.874" y="598.578" text-anchor="middle" class="lbl">E7</text>
<text x="781.874" y="584.578" class="sml">45</text>
<text x="799.209" y="577.242" text-anchor="middle" class="lbl">F7</text>
<text x="795.209" y="563.242" class="sml">46</text>
<text x="812.544" y="555.931" text-anchor="middle" class="lbl">G7</text>
<text x="808.544" y="541.931" class="sml">47</text>
<circle cx="12.700" cy="323.844" r="2.6416" fill="#000"/>
<text x="24.700" y="329.844" class="big">NB</text>
<circle cx="12.700" cy="146.563" r="2.6416" fill="#000"/>
<text x="24.700" y="152.563" class="big">NT</text>
<circle cx="838.784" cy="481.939" r="2.6416" fill="#000"/>
<text x="850.784" y="487.939" class="big">ST</text>
<path d="M 12.700 323.844 C 43.063 324.049 73.846 329.302 103.790 324.269 C 122.112 321.190 142.086 311.294 159.643 305.125 C 160.580 304.795 155.741 305.850 156.731 305.759 C 174.662 304.125 192.602 302.429 210.517 300.617 C 211.556 300.512 206.351 300.362 207.383 300.525 C 225.319 303.348 243.260 306.139 261.207 308.894 C 262.783 309.136 255.338 306.460 256.707 307.277 C 274.453 317.857 292.200 328.437 310.000 338.928 C 311.285 339.686 305.691 334.826 306.618 335.995 C 312.370 343.250 318.225 350.424 324.045 357.625 C 324.468 358.149 322.575 355.370 322.908 355.956 C 347.797 399.764 370.724 437.406 390.019 480.517 C 394.601 490.755 401.347 499.879 407.055 509.535 C 407.282 509.920 406.249 507.936 406.434 508.344 C 411.798 520.159 415.709 532.771 422.653 543.733 C 450.863 588.264 498.720 628.372 552.718 634.875 C 608.419 641.583 640.764 616.958 685.674 590.579 C 698.808 582.865 716.565 575.760 727.793 565.475 C 759.022 536.868 790.249 508.202 821.100 479.188 C 822.248 478.109 810.872 482.570 812.541 482.539 C 821.289 482.374 830.036 482.139 838.784 481.939" fill="none" stroke="#ff69b4" stroke-width="1.6"/>
<path d="M 838.784 481.939 C 881.178 414.096 832.643 384.946 811.445 418.868 C 809.106 422.612 804.217 423.939 800.607 426.481 C 795.711 429.928 791.439 434.185 786.859 438.041 C 758.762 461.693 736.481 480.893 708.151 499.437 C 707.642 499.770 710.302 498.297 709.749 498.551 C 691.962 506.734 674.174 514.931 656.448 523.245 C 655.712 523.591 659.541 522.245 658.751 522.437 C 601.463 536.398 636.222 530.805 576.727 535.421 C 575.751 535.497 580.629 535.703 579.663 535.542 C 574.881 534.749 570.097 533.959 565.301 533.255 C 564.000 533.064 570.219 535.086 569.054 534.476 C 559.540 529.495 549.931 524.697 540.361 519.825 C 539.847 519.563 542.317 521.049 541.845 520.717 C 531.611 513.537 521.380 506.353 511.120 499.210 C 510.475 498.761 513.463 501.302 512.916 500.737 C 507.807 495.466 502.677 490.214 497.547 484.963 C 497.148 484.554 498.995 486.728 498.657 486.268 C 482.433 464.261 470.044 442.200 452.539 418.689 C 451.848 417.761 454.598 422.826 454.194 421.741 C 435.690 371.995 443.433 390.285 421.996 345.357 C 421.831 345.012 422.574 346.772 422.442 346.413 C 407.377 305.594 389.938 268.198 371.821 228.941 C 366.014 216.357 360.202 203.777 354.396 191.193 C 342.106 164.558 338.191 131.619 316.668 111.690 C 303.077 99.106 242.815 92.843 238.613 92.079 C 179.070 81.245 175.416 83.570 128.351 92.637 C 127.924 92.719 112.500 94.414 107.030 97.263 C 75.566 113.656 12.700 111.084 12.700 146.563" fill="none" stroke="#ff69b4" stroke-width="1.6"/>
<path d="M 12.700 146.563 L 12.700 323.844" fill="none" stroke="#ff69b4" stroke-width="1.6"/>
<circle cx="12.700" cy="323.844" r="2" fill="#000"/>
<circle cx="103.790" cy="324.269" r="2" fill="#000"/>
<circle cx="159.643" cy="305.125" r="2" fill="#000"/>
<circle cx="156.731" cy="305.759" r="2" fill="#000"/>
<circle cx="210.517" cy="300.617" r="2" fill="#000"/>
<circle cx="207.383" cy="300.525" r="2" fill="#000"/>
<circle cx="261.207" cy="308.894" r="2" fill="#000"/>
<circle cx="256.707" cy="307.277" r="2" fill="#000"/>
<circle cx="310.000" cy="338.928" r="2" fill="#000"/>
<circle cx="306.618" cy="335.995" r="2" fill="#000"/>
<circle cx="324.045" cy="357.625" r="2" fill="#000"/>
<circle cx="322.908" cy="355.956" r="2" fill="#000"/>
<circle cx="390.019" cy="480.517" r="2" fill="#000"/>
<circle cx="407.055" cy="509.535" r="2" fill="#000"/>
<circle cx="406.434" cy="508.344" r="2" fill="#000"/>
<circle cx="422.653" cy="543.733" r="2" fill="#000"/>
<circle cx="552.718" cy="634.875" r="2" fill="#000"/>
<circle cx="685.674" cy="590.579" r="2" fill="#000"/>
<circle cx="727.793" cy="565.475" r="2" fill="#000"/>
<circle cx="821.100" cy="479.188" r="2" fill="#000"/>
<circle cx="812.541" cy="482.539" r="2" fill="#000"/>
<circle cx="838.784" cy="481.939" r="2" fill="#000"/>
<circle cx="811.445" cy="418.868" r="2" fill="#000"/>
<circle cx="800.607" cy="426.481" r="2" fill="#000"/>
<circle cx="786.859" cy="438.041" r="2" fill="#000"/>
<circle cx="708.151" cy="499.437" r="2" fill="#000"/>
<circle cx="709.749" cy="498.551" r="2" fill="#000"/>
<circle cx="656.448" cy="523.245" r="2" fill="#000"/>
<circle cx="658.751" cy="522.437" r="2" fill="#000"/>
<circle cx="576.727" cy="535.421" r="2" fill="#000"/>
<circle cx="579.663" cy="535.542" r="2" fill="#000"/>
<circle cx="565.301" cy="533.255" r="2" fill="#000"/>
<circle cx="569.054" cy="534.476" r="2" fill="#000"/>
<circle cx="540.361" cy="519.825" r="2" fill="#000"/>
<circle cx="541.845" cy="520.717" r="2" fill="#000"/>
<circle cx="511.120" cy="499.210" r="2" fill="#000"/>
<circle cx="512.916" cy="500.737" r="2" fill="#000"/>
<circle cx="497.547" cy="484.963" r="2" fill="#000"/>
<circle cx="498.657" cy="486.268" r="2" fill="#000"/>
<circle cx="452.539" cy="418.689" r="2" fill="#000"/>
<circle cx="454.194" cy="421.741" r="2" fill="#000"/>
<circle cx="421.996" cy="345.357" r="2" fill="#000"/>
<circle cx="422.442" cy="346.413" r="2" fill="#000"/>
<circle cx="371.821" cy="228.941" r="2" fill="#000"/>
<circle cx="354.396" cy="191.193" r="2" fill="#000"/>
<circle cx="316.668" cy="111.690" r="2" fill="#000"/>
<circle cx="238.613" cy="92.079" r="2" fill="#000"/>
<circle cx="128.351" cy="92.637" r="2" fill="#000"/>
<circle cx="107.030" cy="97.263" r="2" fill="#000"/>
<circle cx="12.700" cy="146.563" r="2" fill="#000"/>
</svg>