<?xml version="1.0" encoding="UTF-8"?>
<svg xmlns="http://www.w3.org/2000/svg" viewBox="-240 -20 480 1980" preserveAspectRatio="xMidYMid meet">
<title>Rear view</title>
<rect x="-240" y="-20" width="480" height="1980" fill="#fff"/>
<path d="M -106.426 1870.000 L -106.426 1867.246 L -107.328 1863.917 L -108.229 1860.588 L -109.128 1857.257 L -110.026 1853.927 L -110.921 1850.596 L -111.813 1847.264 L -112.704 1843.932 L -113.592 1840.599 L -114.478 1837.266 L -115.361 1833.932 L -116.242 1830.597 L -117.120 1827.262 L -117.995 1823.926 L -118.867 1820.589 L -119.736 1817.252 L -120.602 1813.914 L -121.464 1810.575 L -122.324 1807.235 L -123.180 1803.895 L -124.033 1800.554 L -124.882 1797.211 L -125.727 1793.868 L -126.569 1790.525 L -127.407 1787.180 L -128.241 1783.834 L -129.071 1780.487 L -129.897 1777.139 L -130.719 1773.791 L -131.536 1770.441 L -132.349 1767.090 L -133.158 1763.738 L -133.963 1760.385 L -134.762 1757.031 L -135.557 1753.676 L -136.348 1750.320 L -137.133 1746.962 L -137.914 1743.604 L -138.689 1740.244 L -139.460 1736.883 L -140.225 1733.520 L -140.985 1730.157 L -141.740 1726.792 L -142.489 1723.426 L -143.233 1720.058 L -143.971 1716.689 L -144.704 1713.319 L -145.431 1709.948 L -146.152 1706.575 L -146.868 1703.200 L -147.577 1699.825 L -148.280 1696.447 L -148.978 1693.069 L -149.669 1689.689 L -150.354 1686.307 L -151.033 1682.924 L -151.705 1679.539 L -152.371 1676.153 L -153.030 1672.765 L -153.683 1669.375 L -154.329 1665.984 L -154.969 1662.592 L -155.601 1659.198 L -156.227 1655.802 L -156.846 1652.404 L -157.458 1649.005 L -158.063 1645.604 L -158.661 1642.201 L -159.251 1638.797 L -159.835 1635.391 L -160.411 1631.983 L -160.980 1628.573 L -161.541 1625.162 L -162.095 1621.749 L -162.641 1618.334 L -163.180 1614.917 L -163.711 1611.498 L -164.235 1608.078 L -164.751 1604.655 L -165.259 1601.231 L -165.759 1597.805 L -166.251 1594.377 L -166.735 1590.947 L -167.212 1587.515 L -167.680 1584.081 L -168.140 1580.646 L -168.592 1577.208 L -169.036 1573.768 L -169.471 1570.326 L -169.899 1566.883 L -170.317 1563.437 L -170.728 1559.989 L -171.130 1556.540 L -171.524 1553.088 L -171.909 1549.634 L -172.285 1546.178 L -172.653 1542.720 L -173.013 1539.260 L -173.364 1535.798 L -173.706 1532.334 L -174.039 1528.868 L -174.364 1525.399 L -174.679 1521.929 L -174.986 1518.456 L -175.284 1514.981 L -175.573 1511.504 L -175.854 1508.025 L -176.125 1504.544 L -176.387 1501.061 L -176.641 1497.575 L -176.885 1494.087 L -177.120 1490.597 L -177.346 1487.105 L -177.563 1483.611 L -177.771 1480.115 L -177.970 1476.616 L -178.159 1473.115 L -178.340 1469.612 L -178.511 1466.107 L -178.673 1462.599 L -178.825 1459.089 L -178.969 1455.577 L -179.103 1452.063 L -179.228 1448.547 L -179.343 1445.028 L -179.449 1441.507 L -179.546 1437.984 L -179.634 1434.458 L -179.712 1430.931 L -179.781 1427.401 L -179.840 1423.868 L -179.890 1420.334 L -179.931 1416.797 L -179.962 1413.258 L -179.984 1409.717 L -179.997 1406.174 L -180.000 1402.628 L -179.995 1399.080 L -179.983 1395.531 L -179.964 1391.980 L -179.938 1388.427 L -179.905 1384.873 L -179.865 1381.316 L -179.818 1377.758 L -179.763 1374.199 L -179.702 1370.638 L -179.633 1367.075 L -179.558 1363.510 L -179.475 1359.943 L -179.385 1356.375 L -179.288 1352.806 L -179.184 1349.234 L -179.074 1345.661 L -178.956 1342.086 L -178.831 1338.509 L -178.699 1334.931 L -178.560 1331.351 L -178.414 1327.769 L -178.261 1324.186 L -178.101 1320.601 L -177.934 1317.014 L -177.760 1313.426 L -177.579 1309.836 L -177.392 1306.244 L -177.197 1302.651 L -176.996 1299.056 L -176.787 1295.459 L -176.572 1291.861 L -176.350 1288.261 L -176.121 1284.660 L -175.886 1281.056 L -175.643 1277.452 L -175.394 1273.845 L -175.138 1270.237 L -174.875 1266.627 L -174.606 1263.016 L -174.330 1259.403 L -174.047 1255.789 L -173.758 1252.172 L -173.462 1248.555 L -173.160 1244.935 L -172.851 1241.314 L -172.535 1237.692 L -172.213 1234.068 L -171.884 1230.442 L -171.549 1226.815 L -171.208 1223.187 L -170.860 1219.556 L -170.505 1215.924 L -170.145 1212.291 L -169.778 1208.656 L -169.404 1205.020 L -169.025 1201.382 L -168.639 1197.743 L -168.247 1194.102 L -167.849 1190.460 L -167.444 1186.816 L -167.034 1183.171 L -166.617 1179.524 L -166.195 1175.876 L -165.766 1172.226 L -165.332 1168.575 L -164.891 1164.922 L -164.445 1161.268 L -163.992 1157.613 L -163.534 1153.956 L -163.070 1150.298 L -162.600 1146.638 L -162.125 1142.978 L -161.644 1139.315 L -161.157 1135.652 L -160.664 1131.987 L -160.166 1128.320 L -159.663 1124.652 L -159.154 1120.983 L -158.639 1117.313 L -158.119 1113.642 L -157.594 1109.969 L -157.063 1106.294 L -156.527 1102.619 L -155.986 1098.942 L -155.440 1095.264 L -154.888 1091.585 L -154.332 1087.904 L -153.770 1084.223 L -153.203 1080.540 L -152.631 1076.856 L -152.054 1073.170 L -151.473 1069.484 L -150.886 1065.796 L -150.295 1062.107 L -149.699 1058.417 L -149.098 1054.726 L -148.493 1051.034 L -147.883 1047.341 L -147.268 1043.646 L -146.649 1039.951 L -146.025 1036.254 L -145.397 1032.557 L -144.765 1028.858 L -144.128 1025.158 L -143.487 1021.457 L -142.842 1017.756 L -142.192 1014.053 L -141.539 1010.349 L -140.881 1006.644 L -140.220 1002.939 L -139.554 999.232 L -138.884 995.524 L -138.211 991.816 L -137.534 988.106 L -136.853 984.396 L -136.168 980.685 L -135.480 976.972 L -134.788 973.259 L -134.093 969.546 L -133.394 965.831 L -132.692 962.115 L -131.986 958.399 L -131.277 954.682 L -130.565 950.964 L -129.849 947.245 L -129.131 943.526 L -128.409 939.806 L -127.684 936.085 L -126.957 932.363 L -126.226 928.641 L -125.493 924.918 L -124.756 921.194 L -124.017 917.470 L -123.276 913.745 L -122.531 910.019 L -121.785 906.293 L -121.035 902.566 L -120.283 898.839 L -119.529 895.111 L -118.773 891.382 L -118.014 887.653 L -117.253 883.923 L -116.489 880.193 L -115.724 876.462 L -114.957 872.731 L -114.188 868.999 L -113.416 865.267 L -112.643 861.535 L -111.868 857.802 L -111.092 854.068 L -110.314 850.335 L -109.534 846.600 L -108.752 842.866 L -107.970 839.131 L -107.185 835.396 L -106.400 831.660 L -105.613 827.924 L -104.825 824.188 L -104.035 820.452 L -103.245 816.715 L -102.453 812.978 L -101.661 809.241 L -100.867 805.503 L -100.073 801.766 L -99.278 798.028 L -98.482 794.290 L -97.686 790.552 L -96.889 786.813 L -96.091 783.075 L -95.293 779.336 L -94.495 775.598 L -93.696 771.859 L -92.897 768.120 L -92.097 764.381 L -91.298 760.642 L -90.498 756.903 L -89.698 753.164 L -88.899 749.425 L -88.099 745.686 L -87.300 741.947 L -86.501 738.209 L -85.702 734.470 L -84.903 730.731 L -84.105 726.993 L -83.307 723.254 L -82.510 719.516 L -81.713 715.777 L -80.917 712.039 L -80.122 708.302 L -79.328 704.564 L -78.534 700.826 L -77.741 697.089 L -76.950 693.352 L -76.159 689.615 L -75.369 685.879 L -74.581 682.142 L -73.794 678.406 L -73.008 674.671 L -72.223 670.935 L -71.440 667.200 L -70.658 663.466 L -69.878 659.732 L -69.099 655.998 L -68.322 652.264 L -67.547 648.531 L -66.774 644.798 L -66.002 641.066 L -65.232 637.334 L -64.464 633.603 L -63.699 629.872 L -62.935 626.142 L -62.173 622.412 L -61.414 618.683 L -60.657 614.954 L -59.902 611.226 L -59.149 607.499 L -58.399 603.772 L -57.652 600.045 L -56.907 596.319 L -56.165 592.594 L -55.425 588.870 L -54.688 585.146 L -53.954 581.423 L -53.223 577.700 L -52.494 573.978 L -51.769 570.257 L -51.046 566.537 L -50.327 562.817 L -49.611 559.098 L -48.898 555.380 L -48.188 551.663 L -47.481 547.946 L -46.778 544.231 L -46.079 540.516 L -45.382 536.802 L -44.690 533.089 L -44.000 529.376 L -43.315 525.665 L -42.633 521.954 L -41.955 518.244 L -41.281 514.536 L -40.610 510.828 L -39.944 507.121 L -39.281 503.415 L -38.623 499.710 L -37.968 496.006 L -37.318 492.303 L -36.671 488.601 L -36.029 484.900 L -35.391 481.200 L -34.758 477.501 L -34.129 473.803 L -33.504 470.106 L -32.884 466.410 L -32.268 462.716 L -31.657 459.022 L 31.657 459.022 L 32.268 462.716 L 32.884 466.410 L 33.504 470.106 L 34.129 473.803 L 34.758 477.501 L 35.391 481.200 L 36.029 484.900 L 36.671 488.601 L 37.318 492.303 L 37.968 496.006 L 38.623 499.710 L 39.281 503.415 L 39.944 507.121 L 40.610 510.828 L 41.281 514.536 L 41.955 518.244 L 42.633 521.954 L 43.315 525.665 L 44.000 529.376 L 44.690 533.089 L 45.382 536.802 L 46.079 540.516 L 46.778 544.231 L 47.481 547.946 L 48.188 551.663 L 48.898 555.380 L 49.611 559.098 L 50.327 562.817 L 51.046 566.537 L 51.769 570.257 L 52.494 573.978 L 53.223 577.700 L 53.954 581.423 L 54.688 585.146 L 55.425 588.870 L 56.165 592.594 L 56.907 596.319 L 57.652 600.045 L 58.399 603.772 L 59.149 607.499 L 59.902 611.226 L 60.657 614.954 L 61.414 618.683 L 62.173 622.412 L 62.935 626.142 L 63.699 629.872 L 64.464 633.603 L 65.232 637.334 L 66.002 641.066 L 66.774 644.798 L 67.547 648.531 L 68.322 652.264 L 69.099 655.998 L 69.878 659.732 L 70.658 663.466 L 71.440 667.200 L 72.223 670.935 L 73.008 674.671 L 73.794 678.406 L 74.581 682.142 L 75.369 685.879 L 76.159 689.615 L 76.950 693.352 L 77.741 697.089 L 78.534 700.826 L 79.328 704.564 L 80.122 708.302 L 80.917 712.039 L 81.713 715.777 L 82.510 719.516 L 83.307 723.254 L 84.105 726.993 L 84.903 730.731 L 85.702 734.470 L 86.501 738.209 L 87.300 741.947 L 88.099 745.686 L 88.899 749.425 L 89.698 753.164 L 90.498 756.903 L 91.298 760.642 L 92.097 764.381 L 92.897 768.120 L 93.696 771.859 L 94.495 775.598 L 95.293 779.336 L 96.091 783.075 L 96.889 786.813 L 97.686 790.552 L 98.482 794.290 L 99.278 798.028 L 100.073 801.766 L 100.867 805.503 L 101.661 809.241 L 102.453 812.978 L 103.245 816.715 L 104.035 820.452 L 104.825 824.188 L 105.613 827.924 L 106.400 831.660 L 107.185 835.396 L 107.970 839.131 L 108.752 842.866 L 109.534 846.600 L 110.314 850.335 L 111.092 854.068 L 111.868 857.802 L 112.643 861.535 L 113.416 865.267 L 114.188 868.999 L 114.957 872.731 L 115.724 876.462 L 116.489 880.193 L 117.253 883.923 L 118.014 887.653 L 118.773 891.382 L 119.529 895.111 L 120.283 898.839 L 121.035 902.566 L 121.785 906.293 L 122.531 910.019 L 123.276 913.745 L 124.017 917.470 L 124.756 921.194 L 125.493 924.918 L 126.226 928.641 L 126.957 932.363 L 127.684 936.085 L 128.409 939.806 L 129.131 943.526 L 129.849 947.245 L 130.565 950.964 L 131.277 954.682 L 131.986 958.399 L 132.692 962.115 L 133.394 965.831 L 134.093 969.546 L 134.788 973.259 L 135.480 976.972 L 136.168 980.685 L 136.853 984.396 L 137.534 988.106 L 138.211 991.816 L 138.884 995.524 L 139.554 999.232 L 140.220 1002.939 L 140.881 1006.644 L 141.539 1010.349 L 142.192 1014.053 L 142.842 1017.756 L 143.487 1021.457 L 144.128 1025.158 L 144.765 1028.858 L 145.397 1032.557 L 146.025 1036.254 L 146.649 1039.951 L 147.268 1043.646 L 147.883 1047.341 L 148.493 1051.034 L 149.098 1054.726 L 149.699 1058.417 L 150.295 1062.107 L 150.886 1065.796 L 151.473 1069.484 L 152.054 1073.170 L 152.631 1076.856 L 153.203 1080.540 L 153.770 1084.223 L 154.332 1087.904 L 154.888 1091.585 L 155.440 1095.264 L 155.986 1098.942 L 156.527 1102.619 L 157.063 1106.294 L 157.594 1109.969 L 158.119 1113.642 L 158.639 1117.313 L 159.154 1120.983 L 159.663 1124.652 L 160.166 1128.320 L 160.664 1131.987 L 161.157 1135.652 L 161.644 1139.315 L 162.125 1142.978 L 162.600 1146.638 L 163.070 1150.298 L 163.534 1153.956 L 163.992 1157.613 L 164.445 1161.268 L 164.891 1164.922 L 165.332 1168.575 L 165.766 1172.226 L 166.195 1175.876 L 166.617 1179.524 L 167.034 1183.171 L 167.444 1186.816 L 167.849 1190.460 L 168.247 1194.102 L 168.639 1197.743 L 169.025 1201.382 L 169.404 1205.020 L 169.778 1208.656 L 170.145 1212.291 L 170.505 1215.924 L 170.860 1219.556 L 171.208 1223.187 L 171.549 1226.815 L 171.884 1230.442 L 172.213 1234.068 L 172.535 1237.692 L 172.851 1241.314 L 173.160 1244.935 L 173.462 1248.555 L 173.758 1252.172 L 174.047 1255.789 L 174.330 1259.403 L 174.606 1263.016 L 174.875 1266.627 L 175.138 1270.237 L 175.394 1273.845 L 175.643 1277.452 L 175.886 1281.056 L 176.121 1284.660 L 176.350 1288.261 L 176.572 1291.861 L 176.787 1295.459 L 176.996 1299.056 L 177.197 1302.651 L 177.392 1306.244 L 177.579 1309.836 L 177.760 1313.426 L 177.934 1317.014 L 178.101 1320.601 L 178.261 1324.186 L 178.414 1327.769 L 178.560 1331.351 L 178.699 1334.931 L 178.831 1338.509 L 178.956 1342.086 L 179.074 1345.661 L 179.184 1349.234 L 179.288 1352.806 L 179.385 1356.375 L 179.475 1359.943 L 179.558 1363.510 L 179.633 1367.075 L 179.702 1370.638 L 179.763 1374.199 L 179.818 1377.758 L 179.865 1381.316 L 179.905 1384.873 L 179.938 1388.427 L 179.964 1391.980 L 179.983 1395.531 L 179.995 1399.080 L 180.000 1402.628 L 179.997 1406.174 L 179.984 1409.717 L 179.962 1413.258 L 179.931 1416.797 L 179.890 1420.334 L 179.840 1423.868 L 179.781 1427.401 L 179.712 1430.931 L 179.634 1434.458 L 179.546 1437.984 L 179.449 1441.507 L 179.343 1445.028 L 179.228 1448.547 L 179.103 1452.063 L 178.969 1455.577 L 178.825 1459.089 L 178.673 1462.599 L 178.511 1466.107 L 178.340 1469.612 L 178.159 1473.115 L 177.970 1476.616 L 177.771 1480.115 L 177.563 1483.611 L 177.346 1487.105 L 177.120 1490.597 L 176.885 1494.087 L 176.641 1497.575 L 176.387 1501.061 L 176.125 1504.544 L 175.854 1508.025 L 175.573 1511.504 L 175.284 1514.981 L 174.986 1518.456 L 174.679 1521.929 L 174.364 1525.399 L 174.039 1528.868 L 173.706 1532.334 L 173.364 1535.798 L 173.013 1539.260 L 172.653 1542.720 L 172.285 1546.178 L 171.909 1549.634 L 171.524 1553.088 L 171.130 1556.540 L 170.728 1559.989 L 170.317 1563.437 L 169.899 1566.883 L 169.471 1570.326 L 169.036 1573.768 L 168.592 1577.208 L 168.140 1580.646 L 167.680 1584.081 L 167.212 1587.515 L 166.735 1590.947 L 166.251 1594.377 L 165.759 1597.805 L 165.259 1601.231 L 164.751 1604.655 L 164.235 1608.078 L 163.711 1611.498 L 163.180 1614.917 L 162.641 1618.334 L 162.095 1621.749 L 161.541 1625.162 L 160.980 1628.573 L 160.411 1631.983 L 159.835 1635.391 L 159.251 1638.797 L 158.661 1642.201 L 158.063 1645.604 L 157.458 1649.005 L 156.846 1652.404 L 156.227 1655.802 L 155.601 1659.198 L 154.969 1662.592 L 154.329 1665.984 L 153.683 1669.375 L 153.030 1672.765 L 152.371 1676.153 L 151.705 1679.539 L 151.033 1682.924 L 150.354 1686.307 L 149.669 1689.689 L 148.978 1693.069 L 148.280 1696.447 L 147.577 1699.825 L 146.868 1703.200 L 146.152 1706.575 L 145.431 1709.948 L 144.704 1713.319 L 143.971 1716.689 L 143.233 1720.058 L 142.489 1723.426 L 141.740 1726.792 L 140.985 1730.157 L 140.225 1733.520 L 139.460 1736.883 L 138.689 1740.244 L 137.914 1743.604 L 137.133 1746.962 L 136.348 1750.320 L 135.557 1753.676 L 134.762 1757.031 L 133.963 1760.385 L 133.158 1763.738 L 132.349 1767.090 L 131.536 1770.441 L 130.719 1773.791 L 129.897 1777.139 L 129.071 1780.487 L 128.241 1783.834 L 127.407 1787.180 L 126.569 1790.525 L 125.727 1793.868 L 124.882 1797.211 L 124.033 1800.554 L 123.180 1803.895 L 122.324 1807.235 L 121.464 1810.575 L 120.602 1813.914 L 119.736 1817.252 L 118.867 1820.589 L 117.995 1823.926 L 117.120 1827.262 L 116.242 1830.597 L 115.361 1833.932 L 114.478 1837.266 L 113.592 1840.599 L 112.704 1843.932 L 111.813 1847.264 L 110.921 1850.596 L 110.026 1853.927 L 109.128 1857.257 L 108.229 1860.588 L 107.328 1863.917 L 106.426 1867.246 L 106.426 1870.000 Z" fill="#e4d4b5" fill-opacity="0.8" stroke="#222" stroke-width="3.0"/>
<circle cx="0" cy="1569.634" r="65.000" fill="#1c1c1c" stroke="#000" stroke-width="1.2" fill-opacity="0.55"/>
<text x="69.000" y="1574.634" font-family="sans-serif" font-size="14" fill="#000">bass Ø130</text>
<circle cx="0" cy="1236.337" r="57.500" fill="#1c1c1c" stroke="#000" stroke-width="1.2" fill-opacity="0.55"/>
<text x="61.500" y="1241.337" font-family="sans-serif" font-size="14" fill="#000">mid Ø115</text>
<circle cx="0" cy="781.273" r="70.000" fill="#1c1c1c" stroke="#000" stroke-width="1.2" fill-opacity="0.55"/>
<text x="74.000" y="786.273" font-family="sans-serif" font-size="14" fill="#000">treble Ø140</text>
<circle cx="0" cy="601.953" r="37.500" fill="#1c1c1c" stroke="#000" stroke-width="1.2" fill-opacity="0.55"/>
<text x="41.500" y="606.953" font-family="sans-serif" font-size="14" fill="#000">treble2 Ø75</text>
<line x1="-250" y1="1870.000" x2="250" y2="1870.000" stroke="#4a7c2e" stroke-width="3.0" stroke-dasharray="8 4"/>
<rect x="6.350" y="146.563" width="6.000" height="482.323" fill="#c79568" stroke="#8b4513" stroke-width="1.2"/>
<rect x="-12.350" y="146.563" width="6.000" height="482.323" fill="#c79568" stroke="#8b4513" stroke-width="1.2"/>
<rect x="12.350" y="126.963" width="19.400" height="39.200" fill="#d46a3a" fill-opacity="0.55" stroke="#000" stroke-width="0.3"/>
<rect x="-31.750" y="123.509" width="19.400" height="39.200" fill="#3a6fd4" fill-opacity="0.55" stroke="#000" stroke-width="0.3"/>
<rect x="12.350" y="120.054" width="19.400" height="39.200" fill="#d46a3a" fill-opacity="0.55" stroke="#000" stroke-width="0.3"/>
<rect x="-31.750" y="116.600" width="19.400" height="39.200" fill="#3a6fd4" fill-opacity="0.55" stroke="#000" stroke-width="0.3"/>
<rect x="12.350" y="118.175" width="19.400" height="39.200" fill="#d46a3a" fill-opacity="0.55" stroke="#000" stroke-width="0.3"/>
<rect x="-31.750" y="119.775" width="19.400" height="39.200" fill="#3a6fd4" fill-opacity="0.55" stroke="#000" stroke-width="0.3"/>
<rect x="12.350" y="121.375" width="19.400" height="39.200" fill="#d46a3a" fill-opacity="0.55" stroke="#000" stroke-width="0.3"/>
<rect x="-31.750" y="122.975" width="19.400" height="39.200" fill="#3a6fd4" fill-opacity="0.55" stroke="#000" stroke-width="0.3"/>
<rect x="12.350" y="129.630" width="19.400" height="39.200" fill="#d46a3a" fill-opacity="0.55" stroke="#000" stroke-width="0.3"/>
<rect x="-31.750" y="141.314" width="19.400" height="39.200" fill="#3a6fd4" fill-opacity="0.55" stroke="#000" stroke-width="0.3"/>
<rect x="12.350" y="132.780" width="19.400" height="39.200" fill="#d46a3a" fill-opacity="0.55" stroke="#000" stroke-width="0.3"/>
<rect x="-31.750" y="139.435" width="19.400" height="39.200" fill="#3a6fd4" fill-opacity="0.55" stroke="#000" stroke-width="0.3"/>
<rect x="12.350" y="187.288" width="19.400" height="39.200" fill="#d46a3a" fill-opacity="0.55" stroke="#000" stroke-width="0.3"/>
<rect x="-31.750" y="214.974" width="19.400" height="39.200" fill="#3a6fd4" fill-opacity="0.55" stroke="#000" stroke-width="0.3"/>
<rect x="12.350" y="252.719" width="19.400" height="39.200" fill="#d46a3a" fill-opacity="0.55" stroke="#000" stroke-width="0.3"/>
<rect x="-31.750" y="290.488" width="19.400" height="39.200" fill="#3a6fd4" fill-opacity="0.55" stroke="#000" stroke-width="0.3"/>
<rect x="12.350" y="324.855" width="19.400" height="39.200" fill="#d46a3a" fill-opacity="0.55" stroke="#000" stroke-width="0.3"/>
<rect x="-31.750" y="369.279" width="19.400" height="39.200" fill="#3a6fd4" fill-opacity="0.55" stroke="#000" stroke-width="0.3"/>
<rect x="12.350" y="403.645" width="19.400" height="39.200" fill="#d46a3a" fill-opacity="0.55" stroke="#000" stroke-width="0.3"/>
<rect x="-31.750" y="444.666" width="19.400" height="39.200" fill="#3a6fd4" fill-opacity="0.55" stroke="#000" stroke-width="0.3"/>
<rect x="12.350" y="465.520" width="19.400" height="39.200" fill="#d46a3a" fill-opacity="0.55" stroke="#000" stroke-width="0.3"/>
<rect x="-31.750" y="491.428" width="19.400" height="39.200" fill="#3a6fd4" fill-opacity="0.55" stroke="#000" stroke-width="0.3"/>
<rect x="12.350" y="512.256" width="19.400" height="39.200" fill="#d46a3a" fill-opacity="0.55" stroke="#000" stroke-width="0.3"/>
<rect x="-31.750" y="528.029" width="19.400" height="39.200" fill="#3a6fd4" fill-opacity="0.55" stroke="#000" stroke-width="0.3"/>
<rect x="12.350" y="538.799" width="19.400" height="39.200" fill="#d46a3a" fill-opacity="0.55" stroke="#000" stroke-width="0.3"/>
<rect x="-31.750" y="549.543" width="19.400" height="39.200" fill="#3a6fd4" fill-opacity="0.55" stroke="#000" stroke-width="0.3"/>
<rect x="12.350" y="556.884" width="19.400" height="39.200" fill="#d46a3a" fill-opacity="0.55" stroke="#000" stroke-width="0.3"/>
<rect x="-31.750" y="564.199" width="19.400" height="39.200" fill="#3a6fd4" fill-opacity="0.55" stroke="#000" stroke-width="0.3"/>
<rect x="12.350" y="566.485" width="19.400" height="39.200" fill="#d46a3a" fill-opacity="0.55" stroke="#000" stroke-width="0.3"/>
<rect x="-31.750" y="568.771" width="19.400" height="39.200" fill="#3a6fd4" fill-opacity="0.55" stroke="#000" stroke-width="0.3"/>
<rect x="12.350" y="571.057" width="19.400" height="39.200" fill="#d46a3a" fill-opacity="0.55" stroke="#000" stroke-width="0.3"/>
<rect x="-31.750" y="563.234" width="19.400" height="39.200" fill="#3a6fd4" fill-opacity="0.55" stroke="#000" stroke-width="0.3"/>
<rect x="12.350" y="565.520" width="19.400" height="39.200" fill="#d46a3a" fill-opacity="0.55" stroke="#000" stroke-width="0.3"/>
<rect x="-31.750" y="559.347" width="19.400" height="39.200" fill="#3a6fd4" fill-opacity="0.55" stroke="#000" stroke-width="0.3"/>
<rect x="12.350" y="553.175" width="19.400" height="39.200" fill="#d46a3a" fill-opacity="0.55" stroke="#000" stroke-width="0.3"/>
<rect x="-31.750" y="547.003" width="19.400" height="39.200" fill="#3a6fd4" fill-opacity="0.55" stroke="#000" stroke-width="0.3"/>
<rect x="12.350" y="540.831" width="19.400" height="39.200" fill="#d46a3a" fill-opacity="0.55" stroke="#000" stroke-width="0.3"/>
<rect x="-31.750" y="534.659" width="19.400" height="39.200" fill="#3a6fd4" fill-opacity="0.55" stroke="#000" stroke-width="0.3"/>
<rect x="12.350" y="528.486" width="19.400" height="39.200" fill="#d46a3a" fill-opacity="0.55" stroke="#000" stroke-width="0.3"/>
<rect x="-31.750" y="522.289" width="19.400" height="39.200" fill="#3a6fd4" fill-opacity="0.55" stroke="#000" stroke-width="0.3"/>
<rect x="12.350" y="511.087" width="19.400" height="39.200" fill="#d46a3a" fill-opacity="0.55" stroke="#000" stroke-width="0.3"/>
<rect x="-31.750" y="499.835" width="19.400" height="39.200" fill="#3a6fd4" fill-opacity="0.55" stroke="#000" stroke-width="0.3"/>
<rect x="12.350" y="488.634" width="19.400" height="39.200" fill="#d46a3a" fill-opacity="0.55" stroke="#000" stroke-width="0.3"/>
<rect x="-31.750" y="477.382" width="19.400" height="39.200" fill="#3a6fd4" fill-opacity="0.55" stroke="#000" stroke-width="0.3"/>
<rect x="12.350" y="466.180" width="19.400" height="39.200" fill="#d46a3a" fill-opacity="0.55" stroke="#000" stroke-width="0.3"/>
<rect x="-31.750" y="454.953" width="19.400" height="39.200" fill="#3a6fd4" fill-opacity="0.55" stroke="#000" stroke-width="0.3"/>
<rect x="12.350" y="443.727" width="19.400" height="39.200" fill="#d46a3a" fill-opacity="0.55" stroke="#000" stroke-width="0.3"/>
<line x1="0" y1="0" x2="0" y2="1870.000" stroke="#888" stroke-width="0.5" stroke-dasharray="6 4"/>
</svg>