<?xml version="1.0" encoding="UTF-8"?>
<svg xmlns="http://www.w3.org/2000/svg" viewBox="-240 -1020 480 1240" preserveAspectRatio="xMidYMid meet">
<title>Top view (rotated)</title>
<rect x="-240" y="-1020" width="480" height="1240" fill="#fff"/>
<g transform="rotate(-90)">
<path d="M -23.384 87.374 L -20.731 88.322 L -18.079 89.271 L -15.426 90.219 L -12.774 91.168 L -10.121 92.116 L -7.469 93.065 L -4.816 94.013 L -2.164 94.960 L 0.488 95.907 L 3.139 96.853 L 5.791 97.799 L 8.442 98.743 L 11.092 99.687 L 13.743 100.629 L 16.392 101.571 L 19.042 102.511 L 21.690 103.449 L 24.339 104.387 L 26.986 105.322 L 29.633 106.256 L 32.279 107.188 L 34.925 108.118 L 37.569 109.047 L 40.213 109.973 L 42.856 110.897 L 45.499 111.818 L 48.140 112.737 L 50.780 113.654 L 53.419 114.568 L 56.057 115.479 L 58.694 116.387 L 61.330 117.293 L 63.965 118.195 L 66.599 119.094 L 69.231 119.990 L 71.862 120.883 L 74.492 121.772 L 77.120 122.658 L 79.747 123.540 L 82.373 124.419 L 84.997 125.293 L 87.619 126.164 L 90.240 127.031 L 92.860 127.893 L 95.478 128.751 L 98.094 129.605 L 100.708 130.455 L 103.321 131.300 L 105.932 132.141 L 108.541 132.976 L 111.148 133.808 L 113.754 134.634 L 116.357 135.455 L 118.959 136.271 L 121.559 137.082 L 124.156 137.888 L 126.752 138.689 L 129.345 139.484 L 131.936 140.273 L 134.526 141.057 L 137.113 141.836 L 139.697 142.608 L 142.280 143.375 L 144.860 144.136 L 147.438 144.891 L 150.014 145.639 L 152.587 146.382 L 155.158 147.118 L 157.726 147.848 L 160.292 148.571 L 162.855 149.288 L 165.416 149.999 L 167.974 150.703 L 170.530 151.400 L 173.083 152.090 L 175.634 152.773 L 178.181 153.449 L 180.726 154.118 L 183.269 154.781 L 185.808 155.435 L 188.345 156.083 L 190.878 156.723 L 193.409 157.356 L 195.938 157.982 L 198.463 158.600 L 200.985 159.210 L 203.504 159.812 L 206.021 160.407 L 208.534 160.994 L 211.044 161.573 L 213.551 162.144 L 216.056 162.707 L 218.557 163.262 L 221.054 163.809 L 223.549 164.348 L 226.041 164.879 L 228.529 165.401 L 231.014 165.914 L 233.496 166.420 L 235.975 166.917 L 238.450 167.405 L 240.922 167.885 L 243.390 168.356 L 245.856 168.818 L 248.318 169.271 L 250.776 169.716 L 253.231 170.152 L 255.683 170.579 L 258.131 170.997 L 260.576 171.406 L 263.017 171.806 L 265.455 172.197 L 267.889 172.579 L 270.320 172.951 L 272.747 173.315 L 275.171 173.669 L 277.591 174.014 L 280.008 174.349 L 282.420 174.676 L 284.830 174.992 L 287.235 175.300 L 289.637 175.597 L 292.035 175.886 L 294.430 176.164 L 296.821 176.434 L 299.208 176.693 L 301.592 176.943 L 303.971 177.183 L 306.348 177.414 L 308.720 177.635 L 311.088 177.846 L 313.453 178.048 L 315.814 178.239 L 318.172 178.421 L 320.525 178.593 L 322.875 178.755 L 325.221 178.907 L 327.563 179.050 L 329.901 179.182 L 332.236 179.305 L 334.566 179.418 L 336.893 179.520 L 339.216 179.613 L 341.535 179.696 L 343.850 179.769 L 346.162 179.832 L 348.470 179.885 L 350.773 179.928 L 353.073 179.961 L 355.369 179.984 L 357.662 179.997 L 359.950 180.000 L 362.235 179.995 L 364.518 179.982 L 366.797 179.961 L 369.073 179.933 L 371.347 179.898 L 373.618 179.854 L 375.885 179.804 L 378.150 179.746 L 380.412 179.680 L 382.671 179.606 L 384.927 179.526 L 387.180 179.437 L 389.431 179.341 L 391.678 179.238 L 393.923 179.127 L 396.164 179.008 L 398.403 178.883 L 400.639 178.749 L 402.872 178.608 L 405.102 178.460 L 407.329 178.304 L 409.554 178.141 L 411.775 177.971 L 413.994 177.793 L 416.210 177.607 L 418.423 177.414 L 420.633 177.214 L 422.840 177.007 L 425.045 176.792 L 427.247 176.570 L 429.446 176.341 L 431.642 176.104 L 433.835 175.861 L 436.026 175.609 L 438.213 175.351 L 440.398 175.086 L 442.581 174.813 L 444.760 174.534 L 446.937 174.247 L 449.111 173.953 L 451.282 173.652 L 453.451 173.344 L 455.617 173.029 L 457.780 172.707 L 459.941 172.378 L 462.099 172.042 L 464.254 171.699 L 466.407 171.350 L 468.557 170.993 L 470.704 170.630 L 472.849 170.260 L 474.991 169.883 L 477.130 169.500 L 479.267 169.109 L 481.402 168.713 L 483.534 168.309 L 485.663 167.899 L 487.790 167.482 L 489.914 167.059 L 492.036 166.630 L 494.155 166.194 L 496.272 165.751 L 498.386 165.302 L 500.498 164.847 L 502.608 164.386 L 504.715 163.918 L 506.820 163.444 L 508.922 162.964 L 511.022 162.478 L 513.120 161.985 L 515.215 161.487 L 517.308 160.983 L 519.399 160.472 L 521.487 159.956 L 523.573 159.434 L 525.657 158.906 L 527.739 158.372 L 529.818 157.832 L 531.895 157.287 L 533.970 156.736 L 536.043 156.179 L 538.114 155.617 L 540.183 155.050 L 542.249 154.477 L 544.314 153.898 L 546.376 153.314 L 548.436 152.725 L 550.495 152.131 L 552.551 151.531 L 554.605 150.926 L 556.658 150.316 L 558.708 149.701 L 560.756 149.081 L 562.803 148.456 L 564.848 147.826 L 566.890 147.191 L 568.931 146.551 L 570.970 145.907 L 573.008 145.258 L 575.043 144.604 L 577.077 143.945 L 579.109 143.283 L 581.139 142.615 L 583.167 141.943 L 585.194 141.267 L 587.219 140.587 L 589.243 139.902 L 591.265 139.213 L 593.285 138.520 L 595.304 137.823 L 597.321 137.122 L 599.337 136.417 L 601.351 135.707 L 603.364 134.995 L 605.375 134.278 L 607.385 133.558 L 609.393 132.833 L 611.400 132.106 L 613.406 131.375 L 615.410 130.640 L 617.413 129.902 L 619.415 129.160 L 621.415 128.416 L 623.414 127.668 L 625.412 126.917 L 627.409 126.162 L 629.405 125.405 L 631.399 124.645 L 633.393 123.882 L 635.385 123.116 L 637.376 122.347 L 639.366 121.575 L 641.355 120.801 L 643.343 120.024 L 645.330 119.245 L 647.317 118.463 L 649.302 117.679 L 651.286 116.893 L 653.270 116.104 L 655.252 115.313 L 657.234 114.520 L 659.215 113.725 L 661.195 112.928 L 663.175 112.129 L 665.154 111.328 L 667.132 110.525 L 669.109 109.721 L 671.086 108.914 L 673.062 108.107 L 675.038 107.298 L 677.013 106.487 L 678.987 105.675 L 680.961 104.861 L 682.935 104.047 L 684.908 103.231 L 686.881 102.414 L 688.853 101.596 L 690.825 100.777 L 692.796 99.957 L 694.767 99.137 L 696.738 98.315 L 698.709 97.493 L 700.679 96.670 L 702.649 95.847 L 704.619 95.023 L 706.589 94.199 L 708.559 93.374 L 710.529 92.550 L 712.498 91.724 L 714.467 90.899 L 716.437 90.074 L 718.406 89.249 L 720.376 88.423 L 722.345 87.598 L 724.315 86.773 L 726.284 85.949 L 728.254 85.124 L 730.224 84.300 L 732.194 83.477 L 734.165 82.654 L 736.135 81.832 L 738.106 81.010 L 740.077 80.190 L 742.049 79.370 L 744.020 78.550 L 745.992 77.732 L 747.965 76.915 L 749.938 76.099 L 751.911 75.284 L 753.885 74.471 L 755.860 73.659 L 757.835 72.848 L 759.810 72.038 L 761.786 71.230 L 763.763 70.424 L 765.740 69.619 L 767.718 68.816 L 769.697 68.015 L 771.676 67.215 L 773.657 66.418 L 775.637 65.622 L 777.619 64.829 L 779.602 64.038 L 781.585 63.249 L 783.569 62.462 L 785.554 61.677 L 787.540 60.895 L 789.527 60.115 L 791.515 59.338 L 793.504 58.563 L 795.494 57.791 L 797.485 57.022 L 799.477 56.255 L 801.470 55.492 L 803.464 54.731 L 805.460 53.973 L 807.456 53.218 L 809.454 52.467 L 811.453 51.718 L 813.453 50.973 L 815.455 50.231 L 817.457 49.492 L 819.461 48.757 L 821.467 48.025 L 823.474 47.297 L 825.482 46.572 L 827.491 45.851 L 829.502 45.134 L 831.515 44.420 L 833.529 43.710 L 835.544 43.004 L 837.561 42.302 L 839.580 41.605 L 841.600 40.911 L 843.621 40.221 L 845.644 39.536 L 847.669 38.854 L 849.696 38.177 L 851.724 37.505 L 853.754 36.837 L 855.786 36.173 L 857.819 35.514 L 859.854 34.859 L 861.891 34.209 L 863.930 33.564 L 865.970 32.923 L 868.013 32.288 L 870.057 31.657 L 870.057 -31.657 L 868.013 -32.288 L 865.970 -32.923 L 863.930 -33.564 L 861.891 -34.209 L 859.854 -34.859 L 857.819 -35.514 L 855.786 -36.173 L 853.754 -36.837 L 851.724 -37.505 L 849.696 -38.177 L 847.669 -38.854 L 845.644 -39.536 L 843.621 -40.221 L 841.600 -40.911 L 839.580 -41.605 L 837.561 -42.302 L 835.544 -43.004 L 833.529 -43.710 L 831.515 -44.420 L 829.502 -45.134 L 827.491 -45.851 L 825.482 -46.572 L 823.474 -47.297 L 821.467 -48.025 L 819.461 -48.757 L 817.457 -49.492 L 815.455 -50.231 L 813.453 -50.973 L 811.453 -51.718 L 809.454 -52.467 L 807.456 -53.218 L 805.460 -53.973 L 803.464 -54.731 L 801.470 -55.492 L 799.477 -56.255 L 797.485 -57.022 L 795.494 -57.791 L 793.504 -58.563 L 791.515 -59.338 L 789.527 -60.115 L 787.540 -60.895 L 785.554 -61.677 L 783.569 -62.462 L 781.585 -63.249 L 779.602 -64.038 L 777.619 -64.829 L 775.637 -65.622 L 773.657 -66.418 L 771.676 -67.215 L 769.697 -68.015 L 767.718 -68.816 L 765.740 -69.619 L 763.763 -70.424 L 761.786 -71.230 L 759.810 -72.038 L 757.835 -72.848 L 755.860 -73.659 L 753.885 -74.471 L 751.911 -75.284 L 749.938 -76.099 L 747.965 -76.915 L 745.992 -77.732 L 744.020 -78.550 L 742.049 -79.370 L 740.077 -80.190 L 738.106 -81.010 L 736.135 -81.832 L 734.165 -82.654 L 732.194 -83.477 L 730.224 -84.300 L 728.254 -85.124 L 726.284 -85.949 L 724.315 -86.773 L 722.345 -87.598 L 720.376 -88.423 L 718.406 -89.249 L 716.437 -90.074 L 714.467 -90.899 L 712.498 -91.724 L 710.529 -92.550 L 708.559 -93.374 L 706.589 -94.199 L 704.619 -95.023 L 702.649 -95.847 L 700.679 -96.670 L 698.709 -97.493 L 696.738 -98.315 L 694.767 -99.137 L 692.796 -99.957 L 690.825 -100.777 L 688.853 -101.596 L 686.881 -102.414 L 684.908 -103.231 L 682.935 -104.047 L 680.961 -104.861 L 678.987 -105.675 L 677.013 -106.487 L 675.038 -107.298 L 673.062 -108.107 L 671.086 -108.914 L 669.109 -109.721 L 667.132 -110.525 L 665.154 -111.328 L 663.175 -112.129 L 661.195 -112.928 L 659.215 -113.725 L 657.234 -114.520 L 655.252 -115.313 L 653.270 -116.104 L 651.286 -116.893 L 649.302 -117.679 L 647.317 -118.463 L 645.330 -119.245 L 643.343 -120.024 L 641.355 -120.801 L 639.366 -121.575 L 637.376 -122.347 L 635.385 -123.116 L 633.393 -123.882 L 631.399 -124.645 L 629.405 -125.405 L 627.409 -126.162 L 625.412 -126.917 L 623.414 -127.668 L 621.415 -128.416 L 619.415 -129.160 L 617.413 -129.902 L 615.410 -130.640 L 613.406 -131.375 L 611.400 -132.106 L 609.393 -132.833 L 607.385 -133.558 L 605.375 -134.278 L 603.364 -134.995 L 601.351 -135.707 L 599.337 -136.417 L 597.321 -137.122 L 595.304 -137.823 L 593.285 -138.520 L 591.265 -139.213 L 589.243 -139.902 L 587.219 -140.587 L 585.194 -141.267 L 583.167 -141.943 L 581.139 -142.615 L 579.109 -143.283 L 577.077 -143.945 L 575.043 -144.604 L 573.008 -145.258 L 570.970 -145.907 L 568.931 -146.551 L 566.890 -147.191 L 564.848 -147.826 L 562.803 -148.456 L 560.756 -149.081 L 558.708 -149.701 L 556.658 -150.316 L 554.605 -150.926 L 552.551 -151.531 L 550.495 -152.131 L 548.436 -152.725 L 546.376 -153.314 L 544.314 -153.898 L 542.249 -154.477 L 540.183 -155.050 L 538.114 -155.617 L 536.043 -156.179 L 533.970 -156.736 L 531.895 -157.287 L 529.818 -157.832 L 527.739 -158.372 L 525.657 -158.906 L 523.573 -159.434 L 521.487 -159.956 L 519.399 -160.472 L 517.308 -160.983 L 515.215 -161.487 L 513.120 -161.985 L 511.022 -162.478 L 508.922 -162.964 L 506.820 -163.444 L 504.715 -163.918 L 502.608 -164.386 L 500.498 -164.847 L 498.386 -165.302 L 496.272 -165.751 L 494.155 -166.194 L 492.036 -166.630 L 489.914 -167.059 L 487.790 -167.482 L 485.663 -167.899 L 483.534 -168.309 L 481.402 -168.713 L 479.267 -169.109 L 477.130 -169.500 L 474.991 -169.883 L 472.849 -170.260 L 470.704 -170.630 L 468.557 -170.993 L 466.407 -171.350 L 464.254 -171.699 L 462.099 -172.042 L 459.941 -172.378 L 457.780 -172.707 L 455.617 -173.029 L 453.451 -173.344 L 451.282 -173.652 L 449.111 -173.953 L 446.937 -174.247 L 444.760 -174.534 L 442.581 -174.813 L 440.398 -175.086 L 438.213 -175.351 L 436.026 -175.609 L 433.835 -175.861 L 431.642 -176.104 L 429.446 -176.341 L 427.247 -176.570 L 425.045 -176.792 L 422.840 -177.007 L 420.633 -177.214 L 418.423 -177.414 L 416.210 -177.607 L 413.994 -177.793 L 411.775 -177.971 L 409.554 -178.141 L 407.329 -178.304 L 405.102 -178.460 L 402.872 -178.608 L 400.639 -178.749 L 398.403 -178.883 L 396.164 -179.008 L 393.923 -179.127 L 391.678 -179.238 L 389.431 -179.341 L 387.180 -179.437 L 384.927 -179.526 L 382.671 -179.606 L 380.412 -179.680 L 378.150 -179.746 L 375.885 -179.804 L 373.618 -179.854 L 371.347 -179.898 L 369.073 -179.933 L 366.797 -179.961 L 364.518 -179.982 L 362.235 -179.995 L 359.950 -180.000 L 357.662 -179.997 L 355.369 -179.984 L 353.073 -179.961 L 350.773 -179.928 L 348.470 -179.885 L 346.162 -179.832 L 343.850 -179.769 L 341.535 -179.696 L 339.216 -179.613 L 336.893 -179.520 L 334.566 -179.418 L 332.236 -179.305 L 329.901 -179.182 L 327.563 -179.050 L 325.221 -178.907 L 322.875 -178.755 L 320.525 -178.593 L 318.172 -178.421 L 315.814 -178.239 L 313.453 -178.048 L 311.088 -177.846 L 308.720 -177.635 L 306.348 -177.414 L 303.971 -177.183 L 301.592 -176.943 L 299.208 -176.693 L 296.821 -176.434 L 294.430 -176.164 L 292.035 -175.886 L 289.637 -175.597 L 287.235 -175.300 L 284.830 -174.992 L 282.420 -174.676 L 280.008 -174.349 L 277.591 -174.014 L 275.171 -173.669 L 272.747 -173.315 L 270.320 -172.951 L 267.889 -172.579 L 265.455 -172.197 L 263.017 -171.806 L 260.576 -171.406 L 258.131 -170.997 L 255.683 -170.579 L 253.231 -170.152 L 250.776 -169.716 L 248.318 -169.271 L 245.856 -168.818 L 243.390 -168.356 L 240.922 -167.885 L 238.450 -167.405 L 235.975 -166.917 L 233.496 -166.420 L 231.014 -165.914 L 228.529 -165.401 L 226.041 -164.879 L 223.549 -164.348 L 221.054 -163.809 L 218.557 -163.262 L 216.056 -162.707 L 213.551 -162.144 L 211.044 -161.573 L 208.534 -160.994 L 206.021 -160.407 L 203.504 -159.812 L 200.985 -159.210 L 198.463 -158.600 L 195.938 -157.982 L 193.409 -157.356 L 190.878 -156.723 L 188.345 -156.083 L 185.808 -155.435 L 183.269 -154.781 L 180.726 -154.118 L 178.181 -153.449 L 175.634 -152.773 L 173.083 -152.090 L 170.530 -151.400 L 167.974 -150.703 L 165.416 -149.999 L 162.855 -149.288 L 160.292 -148.571 L 157.726 -147.848 L 155.158 -147.118 L 152.587 -146.382 L 150.014 -145.639 L 147.438 -144.891 L 144.860 -144.136 L 142.280 -143.375 L 139.697 -142.608 L 137.113 -141.836 L 134.526 -141.057 L 131.936 -140.273 L 129.345 -139.484 L 126.752 -138.689 L 124.156 -137.888 L 121.559 -137.082 L 118.959 -136.271 L 116.357 -135.455 L 113.754 -134.634 L 111.148 -133.808 L 108.541 -132.976 L 105.932 -132.141 L 103.321 -131.300 L 100.708 -130.455 L 98.094 -129.605 L 95.478 -128.751 L 92.860 -127.893 L 90.240 -127.031 L 87.619 -126.164 L 84.997 -125.293 L 82.373 -124.419 L 79.747 -123.540 L 77.120 -122.658 L 74.492 -121.772 L 71.862 -120.883 L 69.231 -119.990 L 66.599 -119.094 L 63.965 -118.195 L 61.330 -117.293 L 58.694 -116.387 L 56.057 -115.479 L 53.419 -114.568 L 50.780 -113.654 L 48.140 -112.737 L 45.499 -111.818 L 42.856 -110.897 L 40.213 -109.973 L 37.569 -109.047 L 34.925 -108.118 L 32.279 -107.188 L 29.633 -106.256 L 26.986 -105.322 L 24.339 -104.387 L 21.690 -103.449 L 19.042 -102.511 L 16.392 -101.571 L 13.743 -100.629 L 11.092 -99.687 L 8.442 -98.743 L 5.791 -97.799 L 3.139 -96.853 L 0.488 -95.907 L -2.164 -94.960 L -4.816 -94.013 L -7.469 -93.065 L -10.121 -92.116 L -12.774 -91.168 L -15.426 -90.219 L -18.079 -89.271 L -20.731 -88.322 L -23.384 -87.374 Z" fill="#e4d4b5" stroke="#222" stroke-width="3.0"/>
<line x1="12.700" y1="0" x2="838.784" y2="0" stroke="#2e8b57" stroke-width="3.0"/>
<rect x="12.700" y="-19.500" width="39.000" height="39.000" fill="#d4c59c" stroke="#222" stroke-width="1.2"/>
<circle cx="101.698" cy="0" r="2" fill="#2e8b57"/>
<circle cx="119.633" cy="0" r="2" fill="#2e8b57"/>
<circle cx="137.567" cy="0" r="2" fill="#2e8b57"/>
<circle cx="155.509" cy="0" r="2" fill="#2e8b57"/>
<circle cx="173.455" cy="0" r="2" fill="#2e8b57"/>
<circle cx="191.389" cy="0" r="2" fill="#2e8b57"/>
<circle cx="209.324" cy="0" r="2" fill="#2e8b57"/>
<circle cx="227.259" cy="0" r="2" fill="#2e8b57"/>
<circle cx="245.201" cy="0" r="2" fill="#2e8b57"/>
<circle cx="263.135" cy="0" r="2" fill="#2e8b57"/>
<circle cx="281.081" cy="0" r="2" fill="#2e8b57"/>
<circle cx="299.016" cy="0" r="2" fill="#2e8b57"/>
<circle cx="316.443" cy="0" r="2" fill="#2e8b57"/>
<circle cx="333.858" cy="0" r="2" fill="#2e8b57"/>
<circle cx="351.285" cy="0" r="2" fill="#2e8b57"/>
<circle cx="368.712" cy="0" r="2" fill="#2e8b57"/>
<circle cx="385.111" cy="0" r="2" fill="#2e8b57"/>
<circle cx="401.522" cy="0" r="2" fill="#2e8b57"/>
<circle cx="417.914" cy="0" r="2" fill="#2e8b57"/>
<circle cx="433.298" cy="0" r="2" fill="#2e8b57"/>
<circle cx="448.663" cy="0" r="2" fill="#2e8b57"/>
<circle cx="464.039" cy="0" r="2" fill="#2e8b57"/>
<circle cx="479.423" cy="0" r="2" fill="#2e8b57"/>
<circle cx="494.799" cy="0" r="2" fill="#2e8b57"/>
<circle cx="510.165" cy="0" r="2" fill="#2e8b57"/>
<circle cx="525.540" cy="0" r="2" fill="#2e8b57"/>
<circle cx="539.890" cy="0" r="2" fill="#2e8b57"/>
<circle cx="554.239" cy="0" r="2" fill="#2e8b57"/>
<circle cx="568.588" cy="0" r="2" fill="#2e8b57"/>
<circle cx="582.937" cy="0" r="2" fill="#2e8b57"/>
<circle cx="597.286" cy="0" r="2" fill="#2e8b57"/>
<circle cx="611.636" cy="0" r="2" fill="#2e8b57"/>
<circle cx="625.985" cy="0" r="2" fill="#2e8b57"/>
<circle cx="639.318" cy="0" r="2" fill="#2e8b57"/>
<circle cx="652.644" cy="0" r="2" fill="#2e8b57"/>
<circle cx="665.966" cy="0" r="2" fill="#2e8b57"/>
<circle cx="679.299" cy="0" r="2" fill="#2e8b57"/>
<circle cx="692.614" cy="0" r="2" fill="#2e8b57"/>
<circle cx="705.947" cy="0" r="2" fill="#2e8b57"/>
<circle cx="719.274" cy="0" r="2" fill="#2e8b57"/>
<circle cx="732.595" cy="0" r="2" fill="#2e8b57"/>
<circle cx="745.929" cy="0" r="2" fill="#2e8b57"/>
<circle cx="759.244" cy="0" r="2" fill="#2e8b57"/>
<circle cx="772.577" cy="0" r="2" fill="#2e8b57"/>
<circle cx="785.891" cy="0" r="2" fill="#2e8b57"/>
<circle cx="799.224" cy="0" r="2" fill="#2e8b57"/>
<circle cx="812.546" cy="0" r="2" fill="#2e8b57"/>
<rect x="12.700" y="6.350" width="893.932" height="6.000" fill="#c79568" stroke="#8b4513" stroke-width="1.2"/>
<rect x="12.700" y="-12.350" width="893.932" height="6.000" fill="#c79568" stroke="#8b4513" stroke-width="1.2"/>
<circle cx="101.700" cy="0" r="1.000" fill="#c00000"/>
<circle cx="119.632" cy="0" r="1.000" fill="#888"/>
<circle cx="137.565" cy="0" r="1.000" fill="#888"/>
<circle cx="155.523" cy="0" r="1.000" fill="#1060d0"/>
<circle cx="173.455" cy="0" r="1.000" fill="#888"/>
<circle cx="191.387" cy="0" r="1.000" fill="#888"/>
<circle cx="209.320" cy="0" r="1.000" fill="#888"/>
<circle cx="227.252" cy="0" r="1.000" fill="#c00000"/>
<circle cx="245.210" cy="0" r="1.000" fill="#888"/>
<circle cx="263.142" cy="0" r="1.321" fill="#888"/>
<circle cx="281.075" cy="0" r="1.244" fill="#1060d0"/>
<circle cx="299.007" cy="0" r="1.169" fill="#888"/>
<circle cx="316.432" cy="0" r="1.092" fill="#888"/>
<circle cx="333.856" cy="0" r="1.028" fill="#888"/>
<circle cx="351.280" cy="0" r="1.028" fill="#c00000"/>
<circle cx="368.705" cy="0" r="1.000" fill="#888"/>
<circle cx="385.113" cy="0" r="1.000" fill="#888"/>
<circle cx="401.522" cy="0" r="1.000" fill="#1060d0"/>
<circle cx="417.905" cy="0" r="1.000" fill="#888"/>
<circle cx="433.297" cy="0" r="1.000" fill="#888"/>
<circle cx="448.664" cy="0" r="1.000" fill="#888"/>
<circle cx="464.031" cy="0" r="1.000" fill="#c00000"/>
<circle cx="479.423" cy="0" r="1.000" fill="#888"/>
<circle cx="494.790" cy="0" r="1.000" fill="#888"/>
<circle cx="510.157" cy="0" r="1.000" fill="#1060d0"/>
<circle cx="525.524" cy="0" r="1.000" fill="#888"/>
<circle cx="539.875" cy="0" r="1.000" fill="#888"/>
<circle cx="554.226" cy="0" r="1.000" fill="#888"/>
<circle cx="568.577" cy="0" r="1.000" fill="#c00000"/>
<circle cx="582.928" cy="0" r="1.000" fill="#888"/>
<circle cx="597.279" cy="0" r="1.000" fill="#888"/>
<circle cx="611.630" cy="0" r="1.000" fill="#1060d0"/>
<circle cx="625.981" cy="0" r="1.000" fill="#888"/>
<circle cx="639.316" cy="0" r="1.000" fill="#888"/>
<circle cx="652.626" cy="0" r="1.000" fill="#888"/>
<circle cx="665.961" cy="0" r="1.000" fill="#c00000"/>
<circle cx="679.296" cy="0" r="1.000" fill="#888"/>
<circle cx="692.606" cy="0" r="1.000" fill="#888"/>
<circle cx="705.941" cy="0" r="1.000" fill="#1060d0"/>
<circle cx="719.250" cy="0" r="1.000" fill="#888"/>
<circle cx="732.585" cy="0" r="1.000" fill="#888"/>
<circle cx="745.920" cy="0" r="1.000" fill="#888"/>
<circle cx="759.230" cy="0" r="1.000" fill="#c00000"/>
<circle cx="772.565" cy="0" r="1.000" fill="#888"/>
<circle cx="785.874" cy="0" r="1.000" fill="#888"/>
<circle cx="799.209" cy="0" r="1.000" fill="#1060d0"/>
<circle cx="812.544" cy="0" r="1.000" fill="#888"/>
<rect x="95.400" y="12.350" width="12.600" height="19.400" fill="#d46a3a" fill-opacity="0.55" stroke="#000" stroke-width="0.3"/>
<circle cx="101.700" cy="0" r="1.5" fill="#222"/>
<rect x="113.332" y="-31.750" width="12.600" height="19.400" fill="#3a6fd4" fill-opacity="0.55" stroke="#000" stroke-width="0.3"/>
<circle cx="119.632" cy="0" r="1.5" fill="#222"/>
<rect x="131.265" y="12.350" width="12.600" height="19.400" fill="#d46a3a" fill-opacity="0.55" stroke="#000" stroke-width="0.3"/>
<circle cx="137.565" cy="0" r="1.5" fill="#222"/>
<rect x="149.223" y="-31.750" width="12.600" height="19.400" fill="#3a6fd4" fill-opacity="0.55" stroke="#000" stroke-width="0.3"/>
<circle cx="155.523" cy="0" r="1.5" fill="#222"/>
<rect x="167.155" y="12.350" width="12.600" height="19.400" fill="#d46a3a" fill-opacity="0.55" stroke="#000" stroke-width="0.3"/>
<circle cx="173.455" cy="0" r="1.5" fill="#222"/>
<rect x="185.087" y="-31.750" width="12.600" height="19.400" fill="#3a6fd4" fill-opacity="0.55" stroke="#000" stroke-width="0.3"/>
<circle cx="191.387" cy="0" r="1.5" fill="#222"/>
<rect x="203.020" y="12.350" width="12.600" height="19.400" fill="#d46a3a" fill-opacity="0.55" stroke="#000" stroke-width="0.3"/>
<circle cx="209.320" cy="0" r="1.5" fill="#222"/>
<rect x="220.952" y="-31.750" width="12.600" height="19.400" fill="#3a6fd4" fill-opacity="0.55" stroke="#000" stroke-width="0.3"/>
<circle cx="227.252" cy="0" r="1.5" fill="#222"/>
<rect x="238.910" y="12.350" width="12.600" height="19.400" fill="#d46a3a" fill-opacity="0.55" stroke="#000" stroke-width="0.3"/>
<circle cx="245.210" cy="0" r="1.5" fill="#222"/>
<rect x="256.842" y="-31.750" width="12.600" height="19.400" fill="#3a6fd4" fill-opacity="0.55" stroke="#000" stroke-width="0.3"/>
<circle cx="263.142" cy="0" r="1.5" fill="#222"/>
<rect x="274.775" y="12.350" width="12.600" height="19.400" fill="#d46a3a" fill-opacity="0.55" stroke="#000" stroke-width="0.3"/>
<circle cx="281.075" cy="0" r="1.5" fill="#222"/>
<rect x="292.707" y="-31.750" width="12.600" height="19.400" fill="#3a6fd4" fill-opacity="0.55" stroke="#000" stroke-width="0.3"/>
<circle cx="299.007" cy="0" r="1.5" fill="#222"/>
<rect x="310.132" y="12.350" width="12.600" height="19.400" fill="#d46a3a" fill-opacity="0.55" stroke="#000" stroke-width="0.3"/>
<circle cx="316.432" cy="0" r="1.5" fill="#222"/>
<rect x="327.556" y="-31.750" width="12.600" height="19.400" fill="#3a6fd4" fill-opacity="0.55" stroke="#000" stroke-width="0.3"/>
<circle cx="333.856" cy="0" r="1.5" fill="#222"/>
<rect x="344.980" y="12.350" width="12.600" height="19.400" fill="#d46a3a" fill-opacity="0.55" stroke="#000" stroke-width="0.3"/>
<circle cx="351.280" cy="0" r="1.5" fill="#222"/>
<rect x="362.405" y="-31.750" width="12.600" height="19.400" fill="#3a6fd4" fill-opacity="0.55" stroke="#000" stroke-width="0.3"/>
<circle cx="368.705" cy="0" r="1.5" fill="#222"/>
<rect x="378.813" y="12.350" width="12.600" height="19.400" fill="#d46a3a" fill-opacity="0.55" stroke="#000" stroke-width="0.3"/>
<circle cx="385.113" cy="0" r="1.5" fill="#222"/>
<rect x="395.222" y="-31.750" width="12.600" height="19.400" fill="#3a6fd4" fill-opacity="0.55" stroke="#000" stroke-width="0.3"/>
<circle cx="401.522" cy="0" r="1.5" fill="#222"/>
<rect x="411.605" y="12.350" width="12.600" height="19.400" fill="#d46a3a" fill-opacity="0.55" stroke="#000" stroke-width="0.3"/>
<circle cx="417.905" cy="0" r="1.5" fill="#222"/>
<rect x="426.997" y="-31.750" width="12.600" height="19.400" fill="#3a6fd4" fill-opacity="0.55" stroke="#000" stroke-width="0.3"/>
<circle cx="433.297" cy="0" r="1.5" fill="#222"/>
<rect x="442.364" y="12.350" width="12.600" height="19.400" fill="#d46a3a" fill-opacity="0.55" stroke="#000" stroke-width="0.3"/>
<circle cx="448.664" cy="0" r="1.5" fill="#222"/>
<rect x="457.731" y="-31.750" width="12.600" height="19.400" fill="#3a6fd4" fill-opacity="0.55" stroke="#000" stroke-width="0.3"/>
<circle cx="464.031" cy="0" r="1.5" fill="#222"/>
<rect x="473.123" y="12.350" width="12.600" height="19.400" fill="#d46a3a" fill-opacity="0.55" stroke="#000" stroke-width="0.3"/>
<circle cx="479.423" cy="0" r="1.5" fill="#222"/>
<rect x="488.490" y="-31.750" width="12.600" height="19.400" fill="#3a6fd4" fill-opacity="0.55" stroke="#000" stroke-width="0.3"/>
<circle cx="494.790" cy="0" r="1.5" fill="#222"/>
<rect x="503.857" y="12.350" width="12.600" height="19.400" fill="#d46a3a" fill-opacity="0.55" stroke="#000" stroke-width="0.3"/>
<circle cx="510.157" cy="0" r="1.5" fill="#222"/>
<rect x="519.224" y="-31.750" width="12.600" height="19.400" fill="#3a6fd4" fill-opacity="0.55" stroke="#000" stroke-width="0.3"/>
<circle cx="525.524" cy="0" r="1.5" fill="#222"/>
<rect x="533.575" y="12.350" width="12.600" height="19.400" fill="#d46a3a" fill-opacity="0.55" stroke="#000" stroke-width="0.3"/>
<circle cx="539.875" cy="0" r="1.5" fill="#222"/>
<rect x="547.926" y="-31.750" width="12.600" height="19.400" fill="#3a6fd4" fill-opacity="0.55" stroke="#000" stroke-width="0.3"/>
<circle cx="554.226" cy="0" r="1.5" fill="#222"/>
<rect x="562.277" y="12.350" width="12.600" height="19.400" fill="#d46a3a" fill-opacity="0.55" stroke="#000" stroke-width="0.3"/>
<circle cx="568.577" cy="0" r="1.5" fill="#222"/>
<rect x="576.628" y="-31.750" width="12.600" height="19.400" fill="#3a6fd4" fill-opacity="0.55" stroke="#000" stroke-width="0.3"/>
<circle cx="582.928" cy="0" r="1.5" fill="#222"/>
<rect x="590.979" y="12.350" width="12.600" height="19.400" fill="#d46a3a" fill-opacity="0.55" stroke="#000" stroke-width="0.3"/>
<circle cx="597.279" cy="0" r="1.5" fill="#222"/>
<rect x="605.330" y="-31.750" width="12.600" height="19.400" fill="#3a6fd4" fill-opacity="0.55" stroke="#000" stroke-width="0.3"/>
<circle cx="611.630" cy="0" r="1.5" fill="#222"/>
<rect x="619.681" y="12.350" width="12.600" height="19.400" fill="#d46a3a" fill-opacity="0.55" stroke="#000" stroke-width="0.3"/>
<circle cx="625.981" cy="0" r="1.5" fill="#222"/>
<rect x="633.016" y="-31.750" width="12.600" height="19.400" fill="#3a6fd4" fill-opacity="0.55" stroke="#000" stroke-width="0.3"/>
<circle cx="639.316" cy="0" r="1.5" fill="#222"/>
<rect x="646.326" y="12.350" width="12.600" height="19.400" fill="#d46a3a" fill-opacity="0.55" stroke="#000" stroke-width="0.3"/>
<circle cx="652.626" cy="0" r="1.5" fill="#222"/>
<rect x="659.661" y="-31.750" width="12.600" height="19.400" fill="#3a6fd4" fill-opacity="0.55" stroke="#000" stroke-width="0.3"/>
<circle cx="665.961" cy="0" r="1.5" fill="#222"/>
<rect x="672.996" y="12.350" width="12.600" height="19.400" fill="#d46a3a" fill-opacity="0.55" stroke="#000" stroke-width="0.3"/>
<circle cx="679.296" cy="0" r="1.5" fill="#222"/>
<rect x="686.306" y="-31.750" width="12.600" height="19.400" fill="#3a6fd4" fill-opacity="0.55" stroke="#000" stroke-width="0.3"/>
<circle cx="692.606" cy="0" r="1.5" fill="#222"/>
<rect x="699.641" y="12.350" width="12.600" height="19.400" fill="#d46a3a" fill-opacity="0.55" stroke="#000" stroke-width="0.3"/>
<circle cx="705.941" cy="0" r="1.5" fill="#222"/>
<rect x="712.950" y="-31.750" width="12.600" height="19.400" fill="#3a6fd4" fill-opacity="0.55" stroke="#000" stroke-width="0.3"/>
<circle cx="719.250" cy="0" r="1.5" fill="#222"/>
<rect x="726.285" y="12.350" width="12.600" height="19.400" fill="#d46a3a" fill-opacity="0.55" stroke="#000" stroke-width="0.3"/>
<circle cx="732.585" cy="0" r="1.5" fill="#222"/>
<rect x="739.620" y="-31.750" width="12.600" height="19.400" fill="#3a6fd4" fill-opacity="0.55" stroke="#000" stroke-width="0.3"/>
<circle cx="745.920" cy="0" r="1.5" fill="#222"/>
<rect x="752.930" y="12.350" width="12.600" height="19.400" fill="#d46a3a" fill-opacity="0.55" stroke="#000" stroke-width="0.3"/>
<circle cx="759.230" cy="0" r="1.5" fill="#222"/>
<rect x="766.265" y="-31.750" width="12.600" height="19.400" fill="#3a6fd4" fill-opacity="0.55" stroke="#000" stroke-width="0.3"/>
<circle cx="772.565" cy="0" r="1.5" fill="#222"/>
<rect x="779.574" y="12.350" width="12.600" height="19.400" fill="#d46a3a" fill-opacity="0.55" stroke="#000" stroke-width="0.3"/>
<circle cx="785.874" cy="0" r="1.5" fill="#222"/>
<rect x="792.909" y="-31.750" width="12.600" height="19.400" fill="#3a6fd4" fill-opacity="0.55" stroke="#000" stroke-width="0.3"/>
<circle cx="799.209" cy="0" r="1.5" fill="#222"/>
<rect x="806.244" y="12.350" width="12.600" height="19.400" fill="#d46a3a" fill-opacity="0.55" stroke="#000" stroke-width="0.3"/>
<circle cx="812.544" cy="0" r="1.5" fill="#222"/>
<line x1="-150" y1="0" x2="950" y2="0" stroke="#888" stroke-width="0.5" stroke-dasharray="6 4"/>
</g>
</svg>