<?xml version="1.0" encoding="UTF-8" standalone="no"?>
<svg xmlns="http://www.w3.org/2000/svg" version="1.1"
     width="227.17mm" height="209.78mm"
     viewBox="-128.17 -54.70 227.17 209.78">
  <title>Erand47 — shoulder HLR detail</title>
  <rect x="-128.17" y="-54.70" width="227.17" height="209.78" fill="#fff"/>
  <g id="view-Front" transform="translate(0.0000,-0.0000)">
    <text x="0" y="0" font-family="sans-serif" font-size="4" fill="#444" text-anchor="middle">Front (scale 1.000)</text>
<g fill="none" stroke="#000000" stroke-opacity="1" stroke-width="0.7" stroke-linecap="butt" stroke-linejoin="miter" stroke-miterlimit="4">
<path d="M-15.164,22.6966 L-15.0637,22.6966  L-14.7679,22.6966  L-14.2914,22.6966  L-13.658,22.6966  L-12.8996,22.6966  L-12.0541,22.6966  L-11.164,22.6966  L-10.2739,22.6966  L-9.42849,22.6966  L-8.67007,22.6966  L-8.0367,22.6966  L-7.56015,22.6966  L-7.26431,22.6966  L-7.16403,22.6966 " /><path id= "2" d=" M -7.16403 34.6966 L -7.16403 22.6966 " />
<path d="M-15.164,34.6966 L-15.0637,34.6966  L-14.7679,34.6966  L-14.2914,34.6966  L-13.658,34.6966  L-12.8996,34.6966  L-12.0541,34.6966  L-11.164,34.6966  L-10.2739,34.6966  L-9.42849,34.6966  L-8.67007,34.6966  L-8.0367,34.6966  L-7.56015,34.6966  L-7.26431,34.6966  L-7.16403,34.6966 " /><path d="M-24.144,22.6966 L-24.0437,22.6966  L-23.7479,22.6966  L-23.2713,22.6966  L-22.638,22.6966  L-21.8795,22.6966  L-21.0341,22.6966  L-20.144,22.6966  L-19.2539,22.6966  L-18.4085,22.6966  L-17.6501,22.6966  L-17.0167,22.6966  L-16.5401,22.6966  L-16.2443,22.6966  L-16.144,22.6966 " /><path id= "5" d=" M -16.144 34.6966 L -16.144 22.6966 " />
<path d="M-24.144,34.6966 L-24.0437,34.6966  L-23.7479,34.6966  L-23.2713,34.6966  L-22.638,34.6966  L-21.8795,34.6966  L-21.0341,34.6966  L-20.144,34.6966  L-19.2539,34.6966  L-18.4085,34.6966  L-17.6501,34.6966  L-17.0167,34.6966  L-16.5401,34.6966  L-16.2443,34.6966  L-16.144,34.6966 " /><path id= "7" d=" M 24.1427 34.6966 L 24.1427 22.6966 " />
<path d="M16.1427,34.6966 L16.243,34.6966  L16.5389,34.6966  L17.0154,34.6966  L17.6488,34.6966  L18.4072,34.6966  L19.2527,34.6966  L20.1427,34.6966  L21.0328,34.6966  L21.8783,34.6966  L22.6367,34.6966  L23.2701,34.6966  L23.7466,34.6966  L24.0425,34.6966  L24.1427,34.6966 " /><path d="M23.0485,25.6512 L23.0485,33.8012 " /><path d="M23.7179,26.0694 Q23.583,24.388 23.4482,22.6966 " /><path d="M23.4482,22.6966 C23.6721,22.6966 23.8468,22.6966 23.9652,22.6966  C24.0818,22.6966 24.1418,22.6966 24.1427,22.6966 " /><path d="M23.7179,26.0694 Q23.6111,26.0027 23.2425,25.7724 " /><path d="M23.2425,25.7724 L21.3115,-0.303428 " /><path d="M21.3115,-0.303428 Q21.1112,-0.303428 20.8355,-0.303428 " /><path d="M22.7766,25.4813 Q21.8083,12.5883 20.8355,-0.303428 " /><path d="M22.7766,25.4813 C21.9725,24.9788 20.6797,24.1709 18.9634,23.0984  C17.41,22.1277 15.5102,20.9405 13.3482,19.5896  C10.3836,17.737 6.92035,15.5729 3.27287,13.2936  C0.773389,11.7317 -1.80977,10.1175 -4.34885,8.53087  C-10.2719,4.82965 -15.9535,1.27924 -19.5604,-0.974648  C-20.4014,-1.50018 -21.1245,-1.95201 -21.7296,-2.33014  C-22.4949,-2.8084 -23.0564,-3.15927 -23.414,-3.38275  C-23.6981,-3.56028 -23.8564,-3.65914 -23.9326,-3.70678  C-24.0171,-3.7596 -24.0099,-3.75511 -24.0116,-3.75618 " /><path d="M-24.0116,-3.75618 L-24.0116,-3.75618 " /><path d="M-23.9927,-3.74432 C-23.9634,-3.72604 -23.8767,-3.67183 -23.6569,-3.53452 " /><path d="M21.335,-7.2696 L21.335,-7.26959 " /><path d="M-22.5555,-34.6962 C-22.5508,-34.6933 -22.5746,-34.7082 -22.4919,-34.6565  C-22.4319,-34.619 -22.3089,-34.5421 -22.0869,-34.4034  C-21.8261,-34.2405 -21.4225,-33.9882 -20.8759,-33.6467  C-20.2336,-33.2453 -19.3902,-32.7183 -18.374,-32.0833  C-14.4609,-29.6381 -7.9696,-25.5817 -1.57786,-21.5876  C2.27841,-19.1778 6.09743,-16.7914 9.42109,-14.7145  C11.7824,-13.2389 13.8977,-11.9171 15.6517,-10.821  C17.4626,-9.68941 18.8884,-8.79847 19.8522,-8.19618  C20.8341,-7.58263 21.3338,-7.27035 21.335,-7.2696 " /><path d="M22.6206,25.3837 L22.6206,29.6966 " /><path d="M22.6206,29.6966 Q22.4193,29.6966 22.1422,29.6966 " /><path d="M22.1422,25.0848 L22.1422,29.6966 " /><path d="M-23.1033,4.96142 C-23.1512,4.93152 -23.161,4.92541 -23.1609,4.92541 " /><path d="M-23.1609,4.92541 C-23.161,4.92541 -23.1512,4.93152 -23.1033,4.96142 " /><path d="M-23.1033,-0.303428 L-23.1033,4.96142 " /><path d="M-23.1033,-0.303428 Q-23.0545,-0.303428 -22.939,-0.303428 " /><path d="M-22.939,-0.303428 L-22.939,5.06408 " /><path d="M23.0485,33.8012 C22.8475,33.6755 22.3474,33.3631 21.5647,32.8739  C20.5163,32.2188 18.9575,31.2448 16.9756,30.0063  C15.3981,29.0205 13.5538,27.868 11.5129,26.5927  C8.82252,24.9115 5.78784,23.0152 2.62904,21.0413  C-0.222425,19.2594 -3.17355,17.4153 -6.02147,15.6357  C-8.97005,13.7931 -11.8061,12.0209 -14.2763,10.4773  C-16.8328,8.87982 -18.9892,7.53227 -20.4947,6.5915  C-21.1494,6.1824 -21.6795,5.85117 -22.0849,5.59781  C-22.4981,5.33964 -22.7761,5.16589 -22.939,5.06408 " /><path id= "30" d=" M -23.1033 4.96142 L -22.939 5.06408 " />
<path id= "31" d=" M 22.7766 25.4813 L 23.2425 25.7724 " />
<path id= "32" d=" M 22.6206 29.6966 L 22.1422 29.6966 " />
<path id= "33" d=" M -23.1033 -0.303428 L -22.939 -0.303428 " />
<path id= "34" d=" M 20.8355 -0.303428 L 21.3115 -0.303428 " />
<path id= "1" d=" M -15.164 34.6966 L -15.164 22.6966 " />
<path id= "2" d=" M -24.144 34.6966 L -24.144 22.6966 " />
<path id= "3" d=" M 16.1427 34.6966 L 16.1427 29.4858 " />
<path d="M-24.0116,-3.75618 L-22.5555,-34.6962 " /><path d="M23.5146,22.6966 L21.335,-7.26959 " /><path d="M-23.1609,-3.22459 L-23.1609,4.92541 " /><path d="M23.5146,22.6966 L21.335,-7.2696 " /></g>
<g fill="none" stroke="#000000" stroke-opacity="1" stroke-width="0.35" stroke-linecap="butt" stroke-linejoin="miter" stroke-miterlimit="4" stroke-dasharray="2,1.5">
<path d="M-7.16403,22.6966 L-7.26431,22.6966  L-7.56015,22.6966  L-8.0367,22.6966  L-8.67007,22.6966  L-9.42849,22.6966  L-10.2739,22.6966  L-11.164,22.6966  L-12.0541,22.6966  L-12.8996,22.6966  L-13.658,22.6966  L-14.2914,22.6966  L-14.7679,22.6966  L-15.0637,22.6966  L-15.164,22.6966 " /><path d="M-7.16403,34.6966 L-7.26431,34.6966  L-7.56015,34.6966  L-8.0367,34.6966  L-8.67007,34.6966  L-9.42849,34.6966  L-10.2739,34.6966  L-11.164,34.6966  L-12.0541,34.6966  L-12.8996,34.6966  L-13.658,34.6966  L-14.2914,34.6966  L-14.7679,34.6966  L-15.0637,34.6966  L-15.164,34.6966 " /><path d="M-8.66403,34.6966 L-8.72671,34.6966  L-8.9116,34.6966  L-9.20945,34.6966  L-9.6053,34.6966  L-10.0793,34.6966  L-10.6077,34.6966  L-11.164,34.6966  L-11.7203,34.6966  L-12.2487,34.6966  L-12.7228,34.6966  L-13.1186,34.6966  L-13.4164,34.6966  L-13.6013,34.6966  L-13.664,34.6966 " /><path d="M-13.664,34.6966 L-13.6013,34.6966  L-13.4164,34.6966  L-13.1186,34.6966  L-12.7228,34.6966  L-12.2487,34.6966  L-11.7203,34.6966  L-11.164,34.6966  L-10.6077,34.6966  L-10.0793,34.6966  L-9.6053,34.6966  L-9.20945,34.6966  L-8.9116,34.6966  L-8.72671,34.6966  L-8.66403,34.6966 " /><path d="M-8.66403,26.6966 L-8.72671,26.6966  L-8.9116,26.6966  L-9.20945,26.6966  L-9.6053,26.6966  L-10.0793,26.6966  L-10.6077,26.6966  L-11.164,26.6966  L-11.7203,26.6966  L-12.2487,26.6966  L-12.7228,26.6966  L-13.1186,26.6966  L-13.4164,26.6966  L-13.6013,26.6966  L-13.664,26.6966 " /><path d="M-13.664,26.6966 L-13.6013,26.6966  L-13.4164,26.6966  L-13.1186,26.6966  L-12.7228,26.6966  L-12.2487,26.6966  L-11.7203,26.6966  L-11.164,26.6966  L-10.6077,26.6966  L-10.0793,26.6966  L-9.6053,26.6966  L-9.20945,26.6966  L-8.9116,26.6966  L-8.72671,26.6966  L-8.66403,26.6966 " /><path id= "7" d=" M -8.66403 34.6966 L -8.66403 26.6966 " />
<path d="M-16.144,22.6966 L-16.2443,22.6966  L-16.5401,22.6966  L-17.0167,22.6966  L-17.6501,22.6966  L-18.4085,22.6966  L-19.2539,22.6966  L-20.144,22.6966  L-21.0341,22.6966  L-21.8795,22.6966  L-22.638,22.6966  L-23.2713,22.6966  L-23.7479,22.6966  L-24.0437,22.6966  L-24.144,22.6966 " /><path d="M-16.144,34.6966 L-16.2443,34.6966  L-16.5401,34.6966  L-17.0167,34.6966  L-17.6501,34.6966  L-18.4085,34.6966  L-19.2539,34.6966  L-20.144,34.6966  L-21.0341,34.6966  L-21.8795,34.6966  L-22.638,34.6966  L-23.2713,34.6966  L-23.7479,34.6966  L-24.0437,34.6966  L-24.144,34.6966 " /><path d="M-17.644,34.6966 L-17.7067,34.6966  L-17.8916,34.6966  L-18.1894,34.6966  L-18.5853,34.6966  L-19.0593,34.6966  L-19.5877,34.6966  L-20.144,34.6966  L-20.7003,34.6966  L-21.2287,34.6966  L-21.7027,34.6966  L-22.0986,34.6966  L-22.3964,34.6966  L-22.5813,34.6966  L-22.644,34.6966 " /><path d="M-22.644,34.6966 L-22.5813,34.6966  L-22.3964,34.6966  L-22.0986,34.6966  L-21.7027,34.6966  L-21.2287,34.6966  L-20.7003,34.6966  L-20.144,34.6966  L-19.5877,34.6966  L-19.0593,34.6966  L-18.5853,34.6966  L-18.1894,34.6966  L-17.8916,34.6966  L-17.7067,34.6966  L-17.644,34.6966 " /><path d="M-17.644,26.6966 L-17.7067,26.6966  L-17.8916,26.6966  L-18.1894,26.6966  L-18.5853,26.6966  L-19.0593,26.6966  L-19.5877,26.6966  L-20.144,26.6966  L-20.7003,26.6966  L-21.2287,26.6966  L-21.7027,26.6966  L-22.0986,26.6966  L-22.3964,26.6966  L-22.5813,26.6966  L-22.644,26.6966 " /><path d="M-22.644,26.6966 L-22.5813,26.6966  L-22.3964,26.6966  L-22.0986,26.6966  L-21.7027,26.6966  L-21.2287,26.6966  L-20.7003,26.6966  L-20.144,26.6966  L-19.5877,26.6966  L-19.0593,26.6966  L-18.5853,26.6966  L-18.1894,26.6966  L-17.8916,26.6966  L-17.7067,26.6966  L-17.644,26.6966 " /><path id= "14" d=" M -17.644 34.6966 L -17.644 26.6966 " />
<path d="M-7.16403,22.6966 L-7.26431,22.6966  L-7.56015,22.6966  L-8.0367,22.6966  L-8.67007,22.6966  L-9.42849,22.6966  L-10.2739,22.6966  L-11.164,22.6966  L-12.0541,22.6966  L-12.8996,22.6966  L-13.658,22.6966  L-14.2914,22.6966  L-14.7679,22.6966  L-15.0637,22.6966  L-15.164,22.6966 " /><path d="M-15.164,22.6966 L-15.0637,22.6966  L-14.7679,22.6966  L-14.2914,22.6966  L-13.658,22.6966  L-12.8996,22.6966  L-12.0541,22.6966  L-11.164,22.6966  L-10.2739,22.6966  L-9.42849,22.6966  L-8.67007,22.6966  L-8.0367,22.6966  L-7.56015,22.6966  L-7.26431,22.6966  L-7.16403,22.6966 " /><path id= "17" d=" M -7.16403 34.6966 L -7.16403 22.6966 " />
<path d="M-7.16403,34.6966 L-7.26431,34.6966  L-7.56015,34.6966  L-8.0367,34.6966  L-8.67007,34.6966  L-9.42849,34.6966  L-10.2739,34.6966  L-11.164,34.6966  L-12.0541,34.6966  L-12.8996,34.6966  L-13.658,34.6966  L-14.2914,34.6966  L-14.7679,34.6966  L-15.0637,34.6966  L-15.164,34.6966 " /><path d="M-15.164,34.6966 L-15.0637,34.6966  L-14.7679,34.6966  L-14.2914,34.6966  L-13.658,34.6966  L-12.8996,34.6966  L-12.0541,34.6966  L-11.164,34.6966  L-10.2739,34.6966  L-9.42849,34.6966  L-8.67007,34.6966  L-8.0367,34.6966  L-7.56015,34.6966  L-7.26431,34.6966  L-7.16403,34.6966 " /><path d="M-8.66403,34.6966 L-8.72671,34.6966  L-8.9116,34.6966  L-9.20945,34.6966  L-9.6053,34.6966  L-10.0793,34.6966  L-10.6077,34.6966  L-11.164,34.6966  L-11.7203,34.6966  L-12.2487,34.6966  L-12.7228,34.6966  L-13.1186,34.6966  L-13.4164,34.6966  L-13.6013,34.6966  L-13.664,34.6966 " /><path d="M-13.664,34.6966 L-13.6013,34.6966  L-13.4164,34.6966  L-13.1186,34.6966  L-12.7228,34.6966  L-12.2487,34.6966  L-11.7203,34.6966  L-11.164,34.6966  L-10.6077,34.6966  L-10.0793,34.6966  L-9.6053,34.6966  L-9.20945,34.6966  L-8.9116,34.6966  L-8.72671,34.6966  L-8.66403,34.6966 " /><path d="M-8.66403,26.6966 L-8.72671,26.6966  L-8.9116,26.6966  L-9.20945,26.6966  L-9.6053,26.6966  L-10.0793,26.6966  L-10.6077,26.6966  L-11.164,26.6966  L-11.7203,26.6966  L-12.2487,26.6966  L-12.7228,26.6966  L-13.1186,26.6966  L-13.4164,26.6966  L-13.6013,26.6966  L-13.664,26.6966 " /><path d="M-13.664,26.6966 L-13.6013,26.6966  L-13.4164,26.6966  L-13.1186,26.6966  L-12.7228,26.6966  L-12.2487,26.6966  L-11.7203,26.6966  L-11.164,26.6966  L-10.6077,26.6966  L-10.0793,26.6966  L-9.6053,26.6966  L-9.20945,26.6966  L-8.9116,26.6966  L-8.72671,26.6966  L-8.66403,26.6966 " /><path id= "24" d=" M -8.66403 34.6966 L -8.66403 26.6966 " />
<path d="M24.1427,34.6966 L24.0425,34.6966  L23.7466,34.6966  L23.2701,34.6966  L22.6367,34.6966  L21.8783,34.6966  L21.0328,34.6966  L20.1427,34.6966  L19.2527,34.6966  L18.4072,34.6966  L17.6488,34.6966  L17.0154,34.6966  L16.5389,34.6966  L16.243,34.6966  L16.1427,34.6966 " /><path d="M24.1427,22.6966 C24.1418,22.6966 24.082,22.6966 23.9657,22.6966  C23.8476,22.6966 23.6734,22.6966 23.4502,22.6966 " /><path d="M23.7199,26.0707 Q23.5851,24.3887 23.4502,22.6966 " /><path d="M23.7199,26.0707 Q23.4551,25.9052 23.0504,25.6523 " /><path d="M23.0504,25.6523 L23.0504,33.8023 " /><path d="M23.0485,33.8012 L22.5407,33.4838  L21.9634,33.1231  L21.3336,32.7295  L20.6692,32.3144  L19.9897,31.8897  L19.3146,31.4679  L18.6634,31.0609  L18.055,30.6808  L17.507,30.3383  L17.0353,30.0436  L16.6534,29.8049  L16.3725,29.6294  L16.2006,29.522  L16.1427,29.4858 " /><path d="M16.1427,29.4858 Q16.1717,29.5039 16.2006,29.522  Q16.2866,29.5757 16.3726,29.6295  Q16.5131,29.7173 16.6537,29.8051  Q16.8447,29.9245 17.0358,30.0439  Q17.2718,30.1913 17.5078,30.3388  Q17.7819,30.5101 18.056,30.6814  Q18.3603,30.8716 18.6647,31.0617  Q18.9904,31.2653 19.3161,31.4688  Q19.9902,31.8901 20.6712,32.3156  Q21.0034,32.5232 21.3356,32.7308  Q21.6506,32.9276 21.9655,33.1244  Q22.2541,33.3047 22.5427,33.4851  Q22.7965,33.6437 23.0504,33.8023 " /><path d="M23.0485,25.6512 Q23.4528,25.9038 23.7179,26.0694 " /><path d="M22.6427,34.6966 L22.5801,34.6966  L22.3952,34.6966  L22.0973,34.6966  L21.7015,34.6966  L21.2275,34.6966  L20.699,34.6966  L20.1427,34.6966  L19.5864,34.6966  L19.058,34.6966  L18.584,34.6966  L18.1882,34.6966  L17.8903,34.6966  L17.7054,34.6966  L17.6427,34.6966 " /><path d="M17.6427,34.6966 L17.7054,34.6966  L17.8903,34.6966  L18.1882,34.6966  L18.584,34.6966  L19.058,34.6966  L19.5864,34.6966  L20.1427,34.6966  L20.699,34.6966  L21.2275,34.6966  L21.7015,34.6966  L22.0973,34.6966  L22.3952,34.6966  L22.5801,34.6966  L22.6427,34.6966 " /><path d="M23.4482,22.6966 Q23.5136,22.6966 23.5146,22.6966 " /><path d="M23.4502,22.6966 Q23.5145,22.6966 23.5146,22.6966 " /><path d="M23.5146,22.6966 L23.5146,22.6966 " /><path d="M-24.0116,-3.75618 L-24.0116,-3.75616 " /><path d="M-24.0116,-3.75616 L-24.0116,-3.75618 " /><path d="M-24.0116,-3.75618 C-24.0111,-3.75581 -24.0126,-3.75678 -23.9927,-3.74432 " /><path d="M-23.6569,-3.53452 C-23.4725,-3.41928 -23.1869,-3.24081 -22.8001,-2.9991  C-22.3552,-2.72112 -21.775,-2.35853 -21.0594,-1.91132  C-19.5537,-0.97046 -17.4578,0.339258 -14.9859,1.88391  C-10.8225,4.48554 -5.62223,7.73515 -0.523127,10.9215  C2.02848,12.516 4.55776,14.0965 6.94698,15.5895  C9.58616,17.2387 12.0536,18.7806 14.2233,20.1364  C16.4354,21.5187 18.3379,22.7076 19.8375,23.6446  C21.1241,24.4486 22.1154,25.0681 22.7762,25.481 " /><path d="M22.7762,25.481 Q21.8079,12.5881 20.8352,-0.303428 " /><path d="M20.8352,-0.303428 Q21.1107,-0.303428 21.3112,-0.303428 " /><path d="M23.2422,25.7722 L21.3112,-0.303428 " /><path d="M23.2422,25.7722 Q23.6128,26.0037 23.7199,26.0707 " /><path d="M21.335,-7.26959 C21.3347,-7.26981 20.8277,-7.58657 19.8522,-8.19618  C18.8887,-8.79828 17.4624,-9.68954 15.6517,-10.821  C13.8977,-11.9171 11.7824,-13.2389 9.42109,-14.7145  C6.09743,-16.7914 2.27841,-19.1778 -1.57786,-21.5876  C-7.9696,-25.5817 -14.4609,-29.6381 -18.374,-32.0833  C-19.3902,-32.7183 -20.2336,-33.2453 -20.8759,-33.6467  C-21.4225,-33.9882 -21.8261,-34.2405 -22.0869,-34.4034  C-22.3089,-34.5421 -22.4319,-34.619 -22.4919,-34.6565  C-22.5599,-34.699 -22.554,-34.6953 -22.5555,-34.6962 " /><path d="M23.0504,25.6523 Q22.9181,25.5696 22.6202,25.3835 " /><path id= "48" d=" M 22.6202 25.3835 L 23.2422 25.7722 " />
<path d="M22.6206,25.3837 Q22.9174,25.5692 23.0485,25.6512 " /><path d="M22.1418,25.0846 C21.1455,24.462 19.4092,23.377 17.0717,21.9163  C15.1968,20.7447 12.9364,19.3322 10.4146,17.7564  C8.01312,16.2557 5.3749,14.6071 2.64481,12.9011  C0.0905426,11.305 -2.54342,9.65906 -5.11245,8.0537  C-10.5531,4.6539 -15.6994,1.43803 -19.0011,-0.625154  C-20.5188,-1.57356 -21.6423,-2.27558 -22.3057,-2.69013  C-22.6655,-2.91496 -22.8934,-3.05741 -23.0169,-3.13458  C-23.1392,-3.21102 -23.1615,-3.22495 -23.1609,-3.22459 " /><path d="M-23.1609,-3.22459 Q-23.1572,-3.22225 -23.1546,-3.2206 " /><path d="M-23.1546,-3.2206 Q-23.1572,-3.22225 -23.1609,-3.22459 " /><path d="M-23.1609,-3.22459 C-23.1615,-3.22495 -23.1392,-3.21102 -23.0169,-3.13458  C-22.8934,-3.05741 -22.6655,-2.91496 -22.3057,-2.69013  C-21.6423,-2.27558 -20.5188,-1.57356 -19.0011,-0.625154  C-15.6994,1.43803 -10.5531,4.6539 -5.11245,8.0537  C-2.54342,9.65906 0.0905425,11.305 2.64481,12.9011  C5.3749,14.6071 8.01312,16.2557 10.4146,17.7564  C12.9365,19.3323 15.1968,20.7447 17.0717,21.9163  C19.4095,23.3772 21.1448,24.4616 22.1422,25.0848 " /><path d="M22.1418,25.0846 L22.1418,29.6966 " /><path d="M22.1418,29.6966 Q22.4186,29.6966 22.6202,29.6966 " /><path d="M22.6202,25.3835 L22.6202,29.6966 " /><path d="M-22.939,5.06408 C-22.758,5.17723 -22.4331,5.38024 -21.9398,5.68848  C-21.5554,5.92872 -21.0737,6.22973 -20.4947,6.5915  C-18.9893,7.53222 -16.8328,8.87978 -14.2763,10.4773  C-11.5504,12.1807 -8.37953,14.1621 -5.10288,16.2097  C-2.5421,17.8099 0.0829262,19.4502 2.62904,21.0413  C5.02314,22.5373 7.34749,23.9898 9.50279,25.3366  C12.3017,27.0856 14.8131,28.655 16.8746,29.9431  C18.5656,30.9998 19.9558,31.8686 20.988,32.5136  C22.1038,33.2108 22.801,33.6465 23.0504,33.8023 " /><path d="M-22.939,-0.303428 L-22.939,5.06408 " /><path d="M-22.939,-0.303428 Q-23.0545,-0.303428 -23.1033,-0.303428 " /><path d="M-23.1033,-0.303428 L-23.1033,4.96142 " /><path d="M-23.1609,4.92541 Q-23.1572,4.92775 -23.1546,4.9294 " /><path d="M-23.1546,4.9294 Q-23.1572,4.92775 -23.1609,4.92541 " /><path id= "63" d=" M -22.939 5.06408 L 16.48 29.6966 " />
<path id= "64" d=" M -23.1033 4.96142 L 16.48 29.6966 " />
<path id= "65" d=" M -22.939 5.06408 L 16.48 29.6966 " />
<path id= "66" d=" M -22.939 5.06408 L 16.48 29.6966 " />
<path id= "67" d=" M 22.6206 25.3837 L 22.7766 25.4813 " />
<path d="M22.6427,26.6966 L22.5801,26.6966  L22.3952,26.6966  L22.0973,26.6966  L21.7015,26.6966  L21.2275,26.6966  L20.699,26.6966  L20.1427,26.6966  L19.5864,26.6966  L19.058,26.6966  L18.584,26.6966  L18.1882,26.6966  L17.8903,26.6966  L17.7054,26.6966  L17.6427,26.6966 " /><path d="M17.6427,26.6966 L17.7054,26.6966  L17.8903,26.6966  L18.1882,26.6966  L18.584,26.6966  L19.058,26.6966  L19.5864,26.6966  L20.1427,26.6966  L20.699,26.6966  L21.2275,26.6966  L21.7015,26.6966  L22.0973,26.6966  L22.3952,26.6966  L22.5801,26.6966  L22.6427,26.6966 " /><path id= "70" d=" M 22.6427 34.6966 L 22.6427 26.6966 " />
<path id= "71" d=" M 22.1422 29.6966 L 16.48 29.6966 " />
<path id= "72" d=" M -22.939 -0.303428 L 20.8355 -0.303428 " />
<path id= "73" d=" M -22.939 -0.303428 L 20.8355 -0.303428 " />
<path id= "74" d=" M 22.1422 29.6966 L 16.48 29.6966 " />
<path id= "75" d=" M 22.1422 25.0848 L 22.7766 25.4813 " />
<path id= "76" d=" M 22.1418 25.0846 L 22.7762 25.481 " />
<path id= "77" d=" M 22.1418 29.6966 L 16.48 29.6966 " />
<path id= "78" d=" M -22.939 -0.303428 L 20.8352 -0.303428 " />
<path id= "79" d=" M -23.1033 -0.303428 L 21.3112 -0.303428 " />
<path id= "80" d=" M 22.6202 29.6966 L 16.48 29.6966 " />
<path id= "1" d=" M -13.664 34.6966 L -13.664 26.6966 " />
<path id= "2" d=" M -22.644 34.6966 L -22.644 26.6966 " />
<path id= "3" d=" M -15.164 34.6966 L -15.164 22.6966 " />
<path id= "4" d=" M -13.664 34.6966 L -13.664 26.6966 " />
<path d="M-24.0116,-3.75615 L-22.5555,-34.6962 " /><path d="M-24.0116,-3.75618 L-22.5555,-34.6962 " /><path d="M-23.1609,-3.22459 L-23.1609,4.92541 " /><path d="M-23.1546,-3.2206 L-23.1546,4.9294 " /><path id= "9" d=" M 17.6427 34.6966 L 17.6427 26.6966 " />
</g>

  </g>
  <g id="view-Top" transform="translate(0.0000,88.0796)">
    <text x="0" y="0" font-family="sans-serif" font-size="4" fill="#444" text-anchor="middle">Top (scale 1.000)</text>
<g fill="none" stroke="#000000" stroke-opacity="1" stroke-width="0.7" stroke-linecap="butt" stroke-linejoin="miter" stroke-miterlimit="4">
<path d="M-24.0116 -1.02073 A4 4 0 0 0 -24.0116 1.02073" /><path d="M24.1427 -1.77636e-15 A4 4 0 0 0 23.4502 -2.24962" /><path d="M23.7199,-1.78993 Q23.5851,-2.05483 23.4502,-2.24962 " /><path d="M23.7179,1.79404 Q23.583,2.05819 23.4482,2.25249 " /><path d="M23.4482 2.25249 A4 4 0 0 0 24.1427 -7.96639e-16" /><path d="M23.4482,2.25249 Q23.5136,1.12741 23.5146,-1.77636e-15 " /><path d="M23.4502,-2.24962 Q23.5156,-1.12598 23.5146,-1.55431e-15 " /><path d="M23.7179,1.79404 Q23.6111,4.01674 23.2425,6.2 " /><path d="M23.2425,6.2 L21.3115,6.2 " /><path d="M21.3115,6.2 Q21.1112,7.35921 20.8355,8.5 " /><path d="M22.7766,8.5 Q21.8083,8.5 20.8355,8.5 " /><path d="M22.7766,8.5 C21.9725,11.9035 20.6797,15.1461 18.9634,18.0424  C17.41,20.667 15.5102,23.0069 13.3482,24.9426  C10.3836,27.6022 6.92035,29.4925 3.27287,30.3939  C0.773389,31.0142 -1.80977,31.172 -4.34885,30.8386  C-6.94025,30.5 -9.48494,29.6481 -11.8309,28.3049  C-14.8476,26.5831 -17.5302,24.0374 -19.5604,20.8899  C-20.3989,19.5928 -21.127,18.1966 -21.7296,16.7287  C-22.4956,14.866 -23.0557,12.8884 -23.414,10.863  C-23.6981,9.26708 -23.8564,7.64296 -23.9326,6.01592  C-24.0125,4.32573 -24.0101,2.63235 -24.0116,0.940205  C-24.0084,-0.877453 -24.0231,-2.69547 -23.9842,-4.51279  C-23.9506,-6.01639 -23.8684,-7.52028 -23.6885,-9.0104  C-23.5026,-10.5622 -23.2116,-12.0979 -22.8001,-13.5889  C-22.3566,-15.1993 -21.7737,-16.7568 -21.0594,-18.2261  C-19.5537,-21.3313 -17.4578,-24.0295 -14.9859,-26.1007  C-12.2116,-28.4332 -8.97274,-29.9749 -5.61373,-30.6317  C-2.67366,-31.2107 0.356962,-31.1182 3.27287,-30.3939  C5.92949,-29.7361 8.49093,-28.5567 10.8302,-26.9338  C13.8596,-24.8356 16.513,-21.9935 18.5915,-18.6546  C20.4929,-15.6059 21.9162,-12.1455 22.7762,-8.5 " /><path d="M22.7762,-8.5 Q21.8079,-8.5 20.8352,-8.5 " /><path d="M20.8352,-8.5 Q21.1107,-7.35919 21.3112,-6.2 " /><path d="M23.2422,-6.2 L21.3112,-6.2 " /><path d="M23.2422,-6.2 Q23.6128,-4.01478 23.7199,-1.78993 " /><path d="M21.335,-1.77636e-15 C21.3381,-3.37927 20.831,-6.75692 19.8522,-9.9323  C18.8887,-13.0598 17.4624,-15.989 15.6517,-18.5414  C13.8977,-21.0171 11.7824,-23.1376 9.42109,-24.7676  C6.09743,-27.069 2.27841,-28.3827 -1.57786,-28.4823  C-5.02534,-28.5789 -8.49716,-27.7005 -11.5828,-25.8776  C-14.2206,-24.3258 -16.5698,-22.0843 -18.374,-19.3332  C-19.3902,-17.7873 -20.2336,-16.084 -20.8759,-14.2811  C-21.4239,-12.7461 -21.8248,-11.1399 -22.0869,-9.50431  C-22.3089,-8.12628 -22.4319,-6.72829 -22.4919,-5.32836  C-22.5675,-3.55363 -22.5529,-1.77619 -22.5555,-3.55271e-15  C-22.5529,1.77619 -22.5675,3.55363 -22.4919,5.32836  C-22.4319,6.72829 -22.3089,8.12628 -22.0869,9.50431  C-21.8248,11.1399 -21.4239,12.7461 -20.8759,14.2811  C-20.2336,16.084 -19.3902,17.7873 -18.374,19.3332  C-16.5698,22.0843 -14.2206,24.3258 -11.5828,25.8776  C-8.49716,27.7005 -5.02534,28.5789 -1.57786,28.4823  C2.27841,28.3827 6.09743,27.069 9.42109,24.7676  C11.7824,23.1376 13.8977,21.0171 15.6517,18.5414  C17.4626,15.989 18.8884,13.0598 19.8522,9.9323  C20.8341,6.75692 21.3338,3.37927 21.335,-2.66454e-15 " /><path d="M22.6206,6.2 Q22.4193,7.3594 22.1422,8.5 " /><path d="M22.1418,-8.5 Q22.4186,-7.35938 22.6202,-6.2 " /><path d="M22.2765,-7.92417 Q22.3398,-7.64295 22.3986,-7.36038 " /><path d="M22.6206,6.2 Q22.495,6.92282 22.3403,7.63772 " /><path d="M22.2091,8.21985 L22.1422,8.5 " /><path id= "23" d=" M 22.6206 6.2 L 21.3115 6.2 " />
<path id= "24" d=" M 22.1422 8.5 L 20.8355 8.5 " />
<path id= "25" d=" M 22.1418 -8.5 L 20.8352 -8.5 " />
<path id= "26" d=" M 22.6202 -6.2 L 21.3112 -6.2 " />
<path d="M23.5146,-2.10858e-15 L21.335,-2.66636e-15 " /></g>
<g fill="none" stroke="#000000" stroke-opacity="1" stroke-width="0.35" stroke-linecap="butt" stroke-linejoin="miter" stroke-miterlimit="4" stroke-dasharray="2,1.5">
<circle cx ="-11.164" cy ="23.9021" r ="4" /><circle cx ="-11.164" cy ="23.9021" r ="4" /><circle cx ="-11.164" cy ="23.9021" r ="2.5" /><circle cx ="-11.164" cy ="23.9021" r ="2.5" /><path d="M-16.144 -3.12636e-15 A4 4 0 0 0 -24.0116 -1.02073" /><path d="M-24.0116 1.02073 A4 4 0 0 0 -16.144 -2.14664e-15" /><circle cx ="-20.144" cy ="-3.12636e-15" r ="4" /><circle cx ="-20.144" cy ="-3.12636e-15" r ="2.5" /><circle cx ="-20.144" cy ="-3.12636e-15" r ="2.5" /><circle cx ="-11.164" cy ="-23.9021" r ="4" /><circle cx ="-11.164" cy ="-23.9021" r ="4" /><circle cx ="-11.164" cy ="-23.9021" r ="2.5" /><circle cx ="-11.164" cy ="-23.9021" r ="2.5" /><circle cx ="20.1427" cy ="-1.77636e-15" r ="4" /><path d="M23.7199,-1.78993 C23.5449,-2.13928 23.3186,-2.46277 23.0504,-2.74692 " /><path d="M23.0485,2.74891 L21.9633,3.5617  L20.6689,3.96525  L19.314,3.91321  L18.0544,3.41154  L17.0347,2.5179  L16.3721,1.33496  L16.1427,-0.00136892  L16.373,-1.33754  L17.0364,-2.52003  L18.0567,-3.41297  L19.3167,-3.91377  L20.6716,-3.96489  L21.9657,-3.56045  L23.0504,-2.74692 " /><path d="M23.0485,2.74891 C23.3165,2.4654 23.5427,2.14264 23.7179,1.79404 " /><circle cx ="20.1427" cy ="-1.77636e-15" r ="2.5" /><path d="M23.0504,-2.74692 Q22.9181,-4.48777 22.6202,-6.2 " /><path id= "20" d=" M 22.6202 -6.2 L 23.2422 -6.2 " />
<path d="M22.6206,6.2 Q22.9174,4.48875 23.0485,2.74891 " /><path d="M22.1418,-8.5 C21.1455,-12.6143 19.4092,-16.4785 17.0717,-19.752  C15.1968,-22.3822 12.9364,-24.6311 10.4146,-26.3533  C8.01312,-27.9956 5.3749,-29.1588 2.64481,-29.7557  C0.0905426,-30.316 -2.54342,-30.3796 -5.11245,-29.9183  C-7.47035,-29.4964 -9.77264,-28.6319 -11.8942,-27.3461  C-14.6684,-25.6695 -17.1292,-23.2627 -19.0011,-20.3207  C-20.0518,-18.6732 -20.917,-16.8619 -21.5669,-14.9488  C-22.1195,-13.3258 -22.5157,-11.6307 -22.7655,-9.90768  C-22.9764,-8.46277 -23.0836,-6.99929 -23.1281,-5.53514  C-23.1837,-3.69069 -23.1517,-1.84499 -23.1546,-3.55271e-15  C-23.1517,1.84499 -23.1837,3.69069 -23.1281,5.53514  C-23.0836,6.99929 -22.9764,8.46277 -22.7655,9.90768  C-22.5157,11.6307 -22.1195,13.3258 -21.5669,14.9488  C-20.917,16.8619 -20.0518,18.6732 -19.0011,20.3207  C-17.1292,23.2627 -14.6684,25.6695 -11.8942,27.3461  C-9.77264,28.6319 -7.47035,29.4964 -5.11245,29.9183  C-2.54342,30.3796 0.0905425,30.316 2.64481,29.7557  C5.3749,29.1588 8.01312,27.9956 10.4146,26.3533  C12.9365,24.6311 15.1968,22.3822 17.0717,19.752  C19.4095,16.4785 21.1448,12.6143 22.1422,8.5 " /><path d="M-22.939,-8.5 C-22.758,-10.2872 -22.4331,-12.0567 -21.9398,-13.7615  C-21.5563,-15.0906 -21.0727,-16.3796 -20.4947,-17.6072  C-19.3147,-20.1173 -17.7378,-22.3641 -15.879,-24.2162  C-14.021,-26.0711 -11.8847,-27.5324 -9.60604,-28.5403  C-6.93895,-29.7226 -4.07904,-30.2833 -1.23139,-30.2203  C1.46196,-30.163 4.14393,-29.5504 6.6672,-28.4404  C8.90012,-27.4595 11.0092,-26.0908 12.9126,-24.4009  C15.4798,-22.1245 17.6699,-19.2634 19.3419,-16.0303  C20.645,-13.5141 21.6358,-10.7739 22.2765,-7.92417 " /><path d="M22.3986,-7.36038 Q22.8726,-5.08272 23.0504,-2.74692 " /><path d="M-22.939,-8.5 Q-23.0545,-7.35282 -23.1033,-6.2 " /><path d="M-23.1033,6.2 C-23.1975,4.01287 -23.1468,1.82257 -23.1548,-0.366018  C-23.1544,-2.31067 -23.1882,-4.25678 -23.1033,-6.2 " /><path d="M-23.1033,6.2 Q-23.0545,7.35282 -22.939,8.5 " /><path d="M23.0485,2.74891 Q22.9174,4.48875 22.6206,6.2 " /><path d="M22.3403,7.63772 Q22.2771,7.92954 22.2091,8.21985 " /><path d="M22.1422,8.5 C21.5432,10.9668 20.6813,13.3447 19.5812,15.5585  C18.1157,18.5103 16.2242,21.1683 14.0061,23.3731  C11.8291,25.5397 9.33729,27.2679 6.6672,28.4404  C3.99846,29.6146 1.15179,30.2317 -1.69751,30.2249  C-4.28681,30.2207 -6.87726,29.7006 -9.31438,28.6667  C-11.41,27.7792 -13.3913,26.5121 -15.1541,24.9071  C-17.3278,22.9321 -19.1644,20.4385 -20.4947,17.6072  C-21.1482,16.2195 -21.6807,14.7531 -22.0849,13.2395  C-22.4981,11.6966 -22.7761,10.1055 -22.939,8.5 " /><path id= "31" d=" M -22.939 -8.5 L 16.48 -8.5 " />
<path id= "32" d=" M 16.48 -6.2 L 16.48 -8.5 " />
<path id= "33" d=" M -23.1033 -6.2 L 16.48 -6.2 " />
<path id= "34" d=" M -23.1033 6.2 L 16.48 6.2 " />
<path id= "35" d=" M 16.48 8.5 L 16.48 6.2 " />
<path id= "36" d=" M -22.939 8.5 L 16.48 8.5 " />
<path id= "37" d=" M 22.6206 6.2 L 23.2425 6.2 " />
<circle cx ="20.1427" cy ="-1.77636e-15" r ="2.5" /><path id= "39" d=" M 21.3115 6.2 L 16.48 6.2 " />
<path id= "40" d=" M -23.1033 6.2 L 21.3115 6.2 " />
<path id= "41" d=" M -22.939 8.5 L 20.8355 8.5 " />
<path id= "42" d=" M 20.8355 8.5 L 16.48 8.5 " />
<path id= "43" d=" M 22.1422 8.5 L 22.7766 8.5 " />
<path id= "44" d=" M 22.1418 -8.5 L 22.7762 -8.5 " />
<path id= "45" d=" M 20.8352 -8.5 L 16.48 -8.5 " />
<path id= "46" d=" M -22.939 -8.5 L 20.8352 -8.5 " />
<path id= "47" d=" M -23.1033 -6.2 L 21.3112 -6.2 " />
<path id= "48" d=" M 21.3112 -6.2 L 16.48 -6.2 " />
</g>

  </g>
  <g id="view-Right" transform="translate(-77.0207,-0.0000)">
    <text x="0" y="0" font-family="sans-serif" font-size="4" fill="#444" text-anchor="middle">Right (scale 1.000)</text>
<g fill="none" stroke="#000000" stroke-opacity="1" stroke-width="0.7" stroke-linecap="butt" stroke-linejoin="miter" stroke-miterlimit="4">
<path d="M-23.9021,34.6966 L-23.4543,34.6966  L-23.012,34.6966  L-22.581,34.6966  L-22.1666,34.6966  L-21.774,34.6966  L-21.4082,34.6966  L-21.0737,34.6966  L-20.7748,34.6966  L-20.5152,34.6966  L-20.2982,34.6966  L-20.1266,34.6966  L-20.0024,34.6966  L-19.9273,34.6966  L-19.9021,34.6966 " /><path d="M-27.9021,34.6966 Q-27.8895,34.6966 -27.877,34.6966  Q-27.8394,34.6966 -27.8018,34.6966  Q-27.7397,34.6966 -27.6777,34.6966  Q-27.5918,34.6966 -27.506,34.6966  Q-27.3975,34.6966 -27.289,34.6966  Q-27.1592,34.6966 -27.0295,34.6966  Q-26.88,34.6966 -26.7306,34.6966  Q-26.5633,34.6966 -26.3961,34.6966  Q-26.2132,34.6966 -26.0303,34.6966  Q-25.834,34.6966 -25.6377,34.6966  Q-25.4305,34.6966 -25.2232,34.6966  Q-25.0077,34.6966 -24.7922,34.6966  Q-24.3516,34.6966 -23.9021,34.6966 " /><path d="M23.9021,34.6966 L24.35,34.6966  L24.7922,34.6966  L25.2232,34.6966  L25.6377,34.6966  L26.0303,34.6966  L26.3961,34.6966  L26.7306,34.6966  L27.0295,34.6966  L27.289,34.6966  L27.506,34.6966  L27.6777,34.6966  L27.8018,34.6966  L27.877,34.6966  L27.9021,34.6966 " /><path d="M19.9021,34.6966 Q19.9147,34.6966 19.9273,34.6966  Q19.9648,34.6966 20.0024,34.6966  Q20.0645,34.6966 20.1266,34.6966  Q20.2124,34.6966 20.2982,34.6966  Q20.4067,34.6966 20.5152,34.6966  Q20.645,34.6966 20.7748,34.6966  Q20.9242,34.6966 21.0737,34.6966  Q21.2409,34.6966 21.4082,34.6966  Q21.5911,34.6966 21.774,34.6966  Q21.9703,34.6966 22.1666,34.6966  Q22.3738,34.6966 22.581,34.6966  Q22.7965,34.6966 23.012,34.6966  Q23.4527,34.6966 23.9021,34.6966 " /><path d="M2.94209e-15,34.6966 L0.447858,34.6966  L0.890084,34.6966  L1.32112,34.6966  L1.73553,34.6966  L2.12813,34.6966  L2.49396,34.6966  L2.82843,34.6966  L3.12733,34.6966  L3.3869,34.6966  L3.60388,34.6966  L3.77553,34.6966  L3.89971,34.6966  L3.97485,34.6966  L4,34.6966 " /><path d="M-4,34.6966 Q-3.98742,34.6966 -3.97485,34.6966  Q-3.93728,34.6966 -3.89971,34.6966  Q-3.83762,34.6966 -3.77553,34.6966  Q-3.6897,34.6966 -3.60388,34.6966  Q-3.49539,34.6966 -3.3869,34.6966  Q-3.25711,34.6966 -3.12733,34.6966  Q-2.97788,34.6966 -2.82843,34.6966  Q-2.66119,34.6966 -2.49396,34.6966  Q-2.31104,34.6966 -2.12813,34.6966  Q-1.93183,34.6966 -1.73553,34.6966  Q-1.52833,34.6966 -1.32112,34.6966  Q-1.1056,34.6966 -0.890084,34.6966  Q-0.449437,34.6966 1.94289e-15,34.6966 " /><path d="M3.10862e-15,22.6966 C0.796886,22.6966 1.5909,22.6966 2.24962,22.6966 " /><path d="M1.78993,26.0707 Q2.05483,24.3887 2.24962,22.6966 " /><path d="M2.74692,26.0343 L2.74692,33.8023 " /><path d="M-2.74891,26.0331 L-2.74891,33.8012 " /><path d="M-1.79404,26.0694 Q-2.05819,24.388 -2.25249,22.6966 " /><path d="M-2.25249,22.6966 C-1.5932,22.6966 -0.798046,22.6966 1.9984e-15,22.6966 " /><path d="M-1.79404,26.0694 Q-4.01674,26.0027 -6.2,25.7724 " /><path d="M-6.2,25.7724 L-6.2,-0.303428 " /><path d="M-6.2,-0.303428 Q-7.35921,-0.303428 -8.5,-0.303428 " /><path d="M-8.5,25.4813 L-8.5,-0.303428 " /><path d="M-8.5,25.4813 C-11.9035,24.9788 -15.1461,24.1709 -18.0424,23.0984  C-20.667,22.1277 -23.0069,20.9405 -24.9426,19.5896  C-26.7273,18.3451 -28.1683,16.9619 -29.193,15.4961  C-30.5196,13.602 -31.1457,11.5688 -30.9851,9.54944 " /><path d="M30.9851,9.54943 C31.1484,11.602 30.4987,13.6689 29.127,15.5895  C27.9518,17.2387 26.2481,18.7806 24.123,20.1364  C21.9588,21.5187 19.3581,22.7076 16.4671,23.6446  C13.9892,24.4486 11.2989,25.0681 8.5,25.481 " /><path d="M8.5,25.481 L8.5,-0.303428 " /><path d="M8.5,-0.303428 Q7.35919,-0.303428 6.2,-0.303428 " /><path d="M6.2,25.7722 L6.2,-0.303428 " /><path d="M6.2,25.7722 Q4.01478,26.0037 1.78993,26.0707 " /><path d="M2.66454e-15,-7.2696 C3.37927,-7.26769 6.75692,-7.58454 9.9323,-8.19618  C13.0598,-8.79828 15.989,-9.68954 18.5414,-10.821  C22.2165,-12.4455 25.0997,-14.5739 26.779,-16.9504  C28.0259,-18.7072 28.6158,-20.5962 28.4666,-22.4721 " /><path d="M28.4666,-22.4721 C28.3228,-24.3307 27.4498,-26.1754 25.8776,-27.8396  C24.3258,-29.4879 22.0843,-30.9559 19.3332,-32.0833  C17.7873,-32.7183 16.084,-33.2453 14.2811,-33.6467  C12.7461,-33.9891 11.1399,-34.2396 9.50431,-34.4034  C8.12628,-34.5421 6.72829,-34.619 5.32836,-34.6565  C3.55363,-34.7037 1.77619,-34.6946 -8.88178e-16,-34.6962  C-1.77619,-34.6946 -3.55363,-34.7037 -5.32836,-34.6565  C-6.72829,-34.619 -8.12628,-34.5421 -9.50431,-34.4034  C-11.1399,-34.2396 -12.7461,-33.9891 -14.2811,-33.6467  C-16.084,-33.2453 -17.7873,-32.7183 -19.3332,-32.0833  C-22.0843,-30.9559 -24.3258,-29.4879 -25.8776,-27.8396  C-27.4498,-26.1754 -28.3228,-24.3307 -28.4666,-22.4721 " /><path d="M-28.4666,-22.4721 C-28.6158,-20.5962 -28.0259,-18.7072 -26.779,-16.9504  C-25.0997,-14.5739 -22.2165,-12.4455 -18.5414,-10.821  C-15.989,-9.68941 -13.0598,-8.79847 -9.9323,-8.19618  C-6.75692,-7.58263 -3.37927,-7.27035 2.66454e-15,-7.2696 " /><path d="M-6.2,25.7724 L-6.2,29.6966 " /><path d="M-6.2,29.6966 Q-7.3594,29.6966 -8.5,29.6966 " /><path d="M-8.5,25.4813 L-8.5,29.6966 " /><path d="M8.5,25.481 L8.5,29.6966 " /><path d="M8.5,29.6966 Q7.35938,29.6966 6.2,29.6966 " /><path d="M6.2,25.7722 L6.2,29.6966 " /><path d="M30.2249,18.3627 C30.2259,20.1349 29.6091,21.9048 28.4404,23.5647  C27.0978,25.4761 25.0244,27.2404 22.4009,28.7319  C20.0704,30.059 17.3077,31.1712 14.2764,32.011  C10.7053,33.0023 6.76173,33.6123 2.74692,33.8023 " /><path d="M-2.74891,33.8012 C-7.25032,33.5912 -11.6604,32.8463 -15.5585,31.6345  C-18.5103,30.7187 -21.1683,29.5367 -23.3731,28.1507  C-25.5397,26.7903 -27.2679,25.2332 -28.4404,23.5647  C-29.6091,21.9048 -30.2259,20.1348 -30.2249,18.3627 " /><path id= "1" d=" M -19.9021 34.6966 L -19.9021 29.999 " />
<path id= "2" d=" M -27.9021 34.6966 L -27.9021 24.275 " />
<path id= "3" d=" M 27.9021 34.6966 L 27.9021 24.275 " />
<path id= "4" d=" M 19.9021 34.6966 L 19.9021 29.999 " />
<path id= "5" d=" M 4 34.6966 L 4 33.7292 " />
<path id= "6" d=" M -4 34.6966 L -4 33.7286 " />
<path d="M-30.9851,9.54944 L-28.4666,-22.4721 " /><path d="M30.9851,9.54943 L28.4666,-22.4721 " /><path d="M30.2249,13.693 L30.2249,18.3627 " /><path d="M-30.2249,13.693 L-30.2249,18.3627 " /><path d="M3.19261e-15,22.6966 L3.50841e-15,-7.2696 " /><path id= "1" d=" M -23.9021 34.6966 L -23.9021 27.8087 " />
<path id= "2" d=" M 23.9021 34.6966 L 23.9021 27.8087 " />
<path id= "3" d=" M 1.95013e-15 34.6966 L 1.95013e-15 22.6966 " />
</g>
<g fill="none" stroke="#000000" stroke-opacity="1" stroke-width="0.35" stroke-linecap="butt" stroke-linejoin="miter" stroke-miterlimit="4" stroke-dasharray="2,1.5">
<path d="M-23.9021,22.6966 L-23.4543,22.6966  L-23.012,22.6966  L-22.581,22.6966  L-22.1666,22.6966  L-21.774,22.6966  L-21.4082,22.6966  L-21.0737,22.6966  L-20.7748,22.6966  L-20.5152,22.6966  L-20.2982,22.6966  L-20.1266,22.6966  L-20.0024,22.6966  L-19.9273,22.6966  L-19.9021,22.6966 " /><path d="M-19.9021,22.6966 L-20.0024,22.6966  L-20.2982,22.6966  L-20.7748,22.6966  L-21.4082,22.6966  L-22.1666,22.6966  L-23.012,22.6966  L-23.9021,22.6966  L-24.7922,22.6966  L-25.6377,22.6966  L-26.3961,22.6966  L-27.0295,22.6966  L-27.506,22.6966  L-27.8018,22.6966  L-27.9021,22.6966 " /><path d="M-27.9021,22.6966 Q-27.8895,22.6966 -27.877,22.6966  Q-27.8394,22.6966 -27.8018,22.6966  Q-27.7397,22.6966 -27.6777,22.6966  Q-27.5918,22.6966 -27.506,22.6966  Q-27.3975,22.6966 -27.289,22.6966  Q-27.1592,22.6966 -27.0295,22.6966  Q-26.88,22.6966 -26.7306,22.6966  Q-26.5633,22.6966 -26.3961,22.6966  Q-26.2132,22.6966 -26.0303,22.6966  Q-25.834,22.6966 -25.6377,22.6966  Q-25.4305,22.6966 -25.2232,22.6966  Q-25.0077,22.6966 -24.7922,22.6966  Q-24.3516,22.6966 -23.9021,22.6966 " /><path d="M-19.9021,34.6966 L-20.0024,34.6966  L-20.2982,34.6966  L-20.7748,34.6966  L-21.4082,34.6966  L-22.1666,34.6966  L-23.012,34.6966  L-23.9021,34.6966  L-24.7922,34.6966  L-25.6377,34.6966  L-26.3961,34.6966  L-27.0295,34.6966  L-27.506,34.6966  L-27.8018,34.6966  L-27.9021,34.6966 " /><path d="M-23.9021,34.6966 Q-23.7622,34.6966 -23.6222,34.6966  Q-23.3439,34.6966 -23.0764,34.6966  Q-22.9469,34.6966 -22.8174,34.6966  Q-22.6947,34.6966 -22.572,34.6966  Q-22.4577,34.6966 -22.3434,34.6966  Q-22.2389,34.6966 -22.1344,34.6966  Q-22.041,34.6966 -21.9475,34.6966  Q-21.8664,34.6966 -21.7853,34.6966  Q-21.7175,34.6966 -21.6497,34.6966  Q-21.5961,34.6966 -21.5424,34.6966  Q-21.5036,34.6966 -21.4648,34.6966  Q-21.4413,34.6966 -21.4178,34.6966  Q-21.41,34.6966 -21.4021,34.6966 " /><path d="M-21.4021,34.6966 L-21.4648,34.6966  L-21.6497,34.6966  L-21.9475,34.6966  L-22.3434,34.6966  L-22.8174,34.6966  L-23.3458,34.6966  L-23.9021,34.6966  L-24.4584,34.6966  L-24.9868,34.6966  L-25.4608,34.6966  L-25.8567,34.6966  L-26.1545,34.6966  L-26.3394,34.6966  L-26.4021,34.6966 " /><path d="M-26.4021,34.6966 Q-26.3943,34.6966 -26.3864,34.6966  Q-26.3629,34.6966 -26.3394,34.6966  Q-26.3006,34.6966 -26.2618,34.6966  Q-26.2082,34.6966 -26.1545,34.6966  Q-26.0867,34.6966 -26.0189,34.6966  Q-25.9378,34.6966 -25.8567,34.6966  Q-25.7633,34.6966 -25.6699,34.6966  Q-25.5654,34.6966 -25.4608,34.6966  Q-25.3465,34.6966 -25.2322,34.6966  Q-25.1095,34.6966 -24.9868,34.6966  Q-24.8573,34.6966 -24.7278,34.6966  Q-24.5931,34.6966 -24.4584,34.6966  Q-24.183,34.6966 -23.9021,34.6966 " /><path d="M-23.9021,26.6966 Q-23.7622,26.6966 -23.6222,26.6966  Q-23.3439,26.6966 -23.0764,26.6966  Q-22.9469,26.6966 -22.8174,26.6966  Q-22.6947,26.6966 -22.572,26.6966  Q-22.4577,26.6966 -22.3434,26.6966  Q-22.2389,26.6966 -22.1344,26.6966  Q-22.041,26.6966 -21.9475,26.6966  Q-21.8664,26.6966 -21.7853,26.6966  Q-21.7175,26.6966 -21.6497,26.6966  Q-21.5961,26.6966 -21.5424,26.6966  Q-21.5036,26.6966 -21.4648,26.6966  Q-21.4413,26.6966 -21.4178,26.6966  Q-21.41,26.6966 -21.4021,26.6966 " /><path d="M-21.4021,26.6966 L-21.4648,26.6966  L-21.6497,26.6966  L-21.9475,26.6966  L-22.3434,26.6966  L-22.8174,26.6966  L-23.3458,26.6966  L-23.9021,26.6966  L-24.4584,26.6966  L-24.9868,26.6966  L-25.4608,26.6966  L-25.8567,26.6966  L-26.1545,26.6966  L-26.3394,26.6966  L-26.4021,26.6966 " /><path d="M-26.4021,26.6966 Q-26.3943,26.6966 -26.3864,26.6966  Q-26.3629,26.6966 -26.3394,26.6966  Q-26.3006,26.6966 -26.2618,26.6966  Q-26.2082,26.6966 -26.1545,26.6966  Q-26.0867,26.6966 -26.0189,26.6966  Q-25.9378,26.6966 -25.8567,26.6966  Q-25.7633,26.6966 -25.6699,26.6966  Q-25.5654,26.6966 -25.4608,26.6966  Q-25.3465,26.6966 -25.2322,26.6966  Q-25.1095,26.6966 -24.9868,26.6966  Q-24.8573,26.6966 -24.7278,26.6966  Q-24.5931,26.6966 -24.4584,26.6966  Q-24.183,26.6966 -23.9021,26.6966 " /><path d="M-1.66533e-16,22.6966 L0.447858,22.6966  L0.890084,22.6966  L1.32112,22.6966  L1.73553,22.6966  L2.12813,22.6966  L2.49396,22.6966  L2.82843,22.6966  L3.12733,22.6966  L3.3869,22.6966  L3.60388,22.6966  L3.77553,22.6966  L3.89971,22.6966  L3.97485,22.6966  L4,22.6966 " /><path d="M4,22.6966 L3.89971,22.6966  L3.60388,22.6966  L3.12733,22.6966  L2.49396,22.6966  L1.73553,22.6966  L0.890084,22.6966  L-5.55112e-16,22.6966  L-0.890084,22.6966  L-1.73553,22.6966  L-2.49396,22.6966  L-3.12733,22.6966  L-3.60388,22.6966  L-3.89971,22.6966  L-4,22.6966 " /><path d="M-4,22.6966 Q-3.98742,22.6966 -3.97485,22.6966  Q-3.93728,22.6966 -3.89971,22.6966  Q-3.83762,22.6966 -3.77553,22.6966  Q-3.6897,22.6966 -3.60388,22.6966  Q-3.49539,22.6966 -3.3869,22.6966  Q-3.25711,22.6966 -3.12733,22.6966  Q-2.97788,22.6966 -2.82843,22.6966  Q-2.66119,22.6966 -2.49396,22.6966  Q-2.31104,22.6966 -2.12813,22.6966  Q-1.93183,22.6966 -1.73553,22.6966  Q-1.52833,22.6966 -1.32112,22.6966  Q-1.1056,22.6966 -0.890084,22.6966  Q-0.449437,22.6966 -1.16573e-15,22.6966 " /><path d="M-1.66533e-16,34.6966 L0.447858,34.6966  L0.890084,34.6966  L1.32112,34.6966  L1.73553,34.6966  L2.12813,34.6966  L2.49396,34.6966  L2.82843,34.6966  L3.12733,34.6966  L3.3869,34.6966  L3.60388,34.6966  L3.77553,34.6966  L3.89971,34.6966  L3.97485,34.6966  L4,34.6966 " /><path d="M4,34.6966 L3.89971,34.6966  L3.60388,34.6966  L3.12733,34.6966  L2.49396,34.6966  L1.73553,34.6966  L0.890084,34.6966  L-5.55112e-16,34.6966  L-0.890084,34.6966  L-1.73553,34.6966  L-2.49396,34.6966  L-3.12733,34.6966  L-3.60388,34.6966  L-3.89971,34.6966  L-4,34.6966 " /><path d="M-4,34.6966 Q-3.98742,34.6966 -3.97485,34.6966  Q-3.93728,34.6966 -3.89971,34.6966  Q-3.83762,34.6966 -3.77553,34.6966  Q-3.6897,34.6966 -3.60388,34.6966  Q-3.49539,34.6966 -3.3869,34.6966  Q-3.25711,34.6966 -3.12733,34.6966  Q-2.97788,34.6966 -2.82843,34.6966  Q-2.66119,34.6966 -2.49396,34.6966  Q-2.31104,34.6966 -2.12813,34.6966  Q-1.93183,34.6966 -1.73553,34.6966  Q-1.52833,34.6966 -1.32112,34.6966  Q-1.1056,34.6966 -0.890084,34.6966  Q-0.449437,34.6966 -1.16573e-15,34.6966 " /><path d="M-3.33067e-16,34.6966 Q0.139956,34.6966 0.279911,34.6966  Q0.558264,34.6966 0.825698,34.6966  Q0.955204,34.6966 1.08471,34.6966  Q1.20739,34.6966 1.33008,34.6966  Q1.4444,34.6966 1.55872,34.6966  Q1.66325,34.6966 1.76777,34.6966  Q1.86117,34.6966 1.95458,34.6966  Q2.03569,34.6966 2.11681,34.6966  Q2.18462,34.6966 2.25242,34.6966  Q2.30607,34.6966 2.35971,34.6966  Q2.39851,34.6966 2.43732,34.6966  Q2.4608,34.6966 2.48428,34.6966  Q2.49214,34.6966 2.5,34.6966 " /><path d="M2.5,34.6966 L2.43732,34.6966  L2.25242,34.6966  L1.95458,34.6966  L1.55872,34.6966  L1.08471,34.6966  L0.556302,34.6966  L-5.55112e-16,34.6966  L-0.556302,34.6966  L-1.08471,34.6966  L-1.55872,34.6966  L-1.95458,34.6966  L-2.25242,34.6966  L-2.43732,34.6966  L-2.5,34.6966 " /><path d="M-2.5,34.6966 Q-2.49214,34.6966 -2.48428,34.6966  Q-2.4608,34.6966 -2.43732,34.6966  Q-2.39851,34.6966 -2.35971,34.6966  Q-2.30607,34.6966 -2.25242,34.6966  Q-2.18462,34.6966 -2.11681,34.6966  Q-2.03569,34.6966 -1.95458,34.6966  Q-1.86117,34.6966 -1.76777,34.6966  Q-1.66325,34.6966 -1.55872,34.6966  Q-1.4444,34.6966 -1.33008,34.6966  Q-1.20739,34.6966 -1.08471,34.6966  Q-0.955204,34.6966 -0.825698,34.6966  Q-0.691,34.6966 -0.556302,34.6966  Q-0.280898,34.6966 -9.99201e-16,34.6966 " /><path d="M-3.33067e-16,26.6966 Q0.139956,26.6966 0.279911,26.6966  Q0.558264,26.6966 0.825698,26.6966  Q0.955204,26.6966 1.08471,26.6966  Q1.20739,26.6966 1.33008,26.6966  Q1.4444,26.6966 1.55872,26.6966  Q1.66325,26.6966 1.76777,26.6966  Q1.86117,26.6966 1.95458,26.6966  Q2.03569,26.6966 2.11681,26.6966  Q2.18462,26.6966 2.25242,26.6966  Q2.30607,26.6966 2.35971,26.6966  Q2.39851,26.6966 2.43732,26.6966  Q2.4608,26.6966 2.48428,26.6966  Q2.49214,26.6966 2.5,26.6966 " /><path d="M2.5,26.6966 L2.43732,26.6966  L2.25242,26.6966  L1.95458,26.6966  L1.55872,26.6966  L1.08471,26.6966  L0.556302,26.6966  L-5.55112e-16,26.6966  L-0.556302,26.6966  L-1.08471,26.6966  L-1.55872,26.6966  L-1.95458,26.6966  L-2.25242,26.6966  L-2.43732,26.6966  L-2.5,26.6966 " /><path d="M-2.5,26.6966 Q-2.49214,26.6966 -2.48428,26.6966  Q-2.4608,26.6966 -2.43732,26.6966  Q-2.39851,26.6966 -2.35971,26.6966  Q-2.30607,26.6966 -2.25242,26.6966  Q-2.18462,26.6966 -2.11681,26.6966  Q-2.03569,26.6966 -1.95458,26.6966  Q-1.86117,26.6966 -1.76777,26.6966  Q-1.66325,26.6966 -1.55872,26.6966  Q-1.4444,26.6966 -1.33008,26.6966  Q-1.20739,26.6966 -1.08471,26.6966  Q-0.955204,26.6966 -0.825698,26.6966  Q-0.691,26.6966 -0.556302,26.6966  Q-0.280898,26.6966 -9.99201e-16,26.6966 " /><path d="M23.9021,22.6966 L24.35,22.6966  L24.7922,22.6966  L25.2232,22.6966  L25.6377,22.6966  L26.0303,22.6966  L26.3961,22.6966  L26.7306,22.6966  L27.0295,22.6966  L27.289,22.6966  L27.506,22.6966  L27.6777,22.6966  L27.8018,22.6966  L27.877,22.6966  L27.9021,22.6966 " /><path d="M27.9021,22.6966 L27.8018,22.6966  L27.506,22.6966  L27.0295,22.6966  L26.3961,22.6966  L25.6377,22.6966  L24.7922,22.6966  L23.9021,22.6966  L23.012,22.6966  L22.1666,22.6966  L21.4082,22.6966  L20.7748,22.6966  L20.2982,22.6966  L20.0024,22.6966  L19.9021,22.6966 " /><path d="M19.9021,22.6966 Q19.9147,22.6966 19.9273,22.6966  Q19.9648,22.6966 20.0024,22.6966  Q20.0645,22.6966 20.1266,22.6966  Q20.2124,22.6966 20.2982,22.6966  Q20.4067,22.6966 20.5152,22.6966  Q20.645,22.6966 20.7748,22.6966  Q20.9242,22.6966 21.0737,22.6966  Q21.2409,22.6966 21.4082,22.6966  Q21.5911,22.6966 21.774,22.6966  Q21.9703,22.6966 22.1666,22.6966  Q22.3738,22.6966 22.581,22.6966  Q22.7965,22.6966 23.012,22.6966  Q23.4527,22.6966 23.9021,22.6966 " /><path d="M27.9021,34.6966 L27.8018,34.6966  L27.506,34.6966  L27.0295,34.6966  L26.3961,34.6966  L25.6377,34.6966  L24.7922,34.6966  L23.9021,34.6966  L23.012,34.6966  L22.1666,34.6966  L21.4082,34.6966  L20.7748,34.6966  L20.2982,34.6966  L20.0024,34.6966  L19.9021,34.6966 " /><path d="M23.9021,34.6966 Q24.0421,34.6966 24.182,34.6966  Q24.4604,34.6966 24.7278,34.6966  Q24.8573,34.6966 24.9868,34.6966  Q25.1095,34.6966 25.2322,34.6966  Q25.3465,34.6966 25.4608,34.6966  Q25.5654,34.6966 25.6699,34.6966  Q25.7633,34.6966 25.8567,34.6966  Q25.9378,34.6966 26.0189,34.6966  Q26.0867,34.6966 26.1545,34.6966  Q26.2082,34.6966 26.2618,34.6966  Q26.3006,34.6966 26.3394,34.6966  Q26.3629,34.6966 26.3864,34.6966  Q26.3943,34.6966 26.4021,34.6966 " /><path d="M26.4021,34.6966 L26.3394,34.6966  L26.1545,34.6966  L25.8567,34.6966  L25.4608,34.6966  L24.9868,34.6966  L24.4584,34.6966  L23.9021,34.6966  L23.3458,34.6966  L22.8174,34.6966  L22.3434,34.6966  L21.9475,34.6966  L21.6497,34.6966  L21.4648,34.6966  L21.4021,34.6966 " /><path d="M21.4021,34.6966 Q21.41,34.6966 21.4178,34.6966  Q21.4413,34.6966 21.4648,34.6966  Q21.5036,34.6966 21.5424,34.6966  Q21.5961,34.6966 21.6497,34.6966  Q21.7175,34.6966 21.7853,34.6966  Q21.8664,34.6966 21.9475,34.6966  Q22.041,34.6966 22.1344,34.6966  Q22.2389,34.6966 22.3434,34.6966  Q22.4577,34.6966 22.572,34.6966  Q22.6947,34.6966 22.8174,34.6966  Q22.9469,34.6966 23.0764,34.6966  Q23.2111,34.6966 23.3458,34.6966  Q23.6212,34.6966 23.9021,34.6966 " /><path d="M23.9021,26.6966 Q24.0421,26.6966 24.182,26.6966  Q24.4604,26.6966 24.7278,26.6966  Q24.8573,26.6966 24.9868,26.6966  Q25.1095,26.6966 25.2322,26.6966  Q25.3465,26.6966 25.4608,26.6966  Q25.5654,26.6966 25.6699,26.6966  Q25.7633,26.6966 25.8567,26.6966  Q25.9378,26.6966 26.0189,26.6966  Q26.0867,26.6966 26.1545,26.6966  Q26.2082,26.6966 26.2618,26.6966  Q26.3006,26.6966 26.3394,26.6966  Q26.3629,26.6966 26.3864,26.6966  Q26.3943,26.6966 26.4021,26.6966 " /><path d="M26.4021,26.6966 L26.3394,26.6966  L26.1545,26.6966  L25.8567,26.6966  L25.4608,26.6966  L24.9868,26.6966  L24.4584,26.6966  L23.9021,26.6966  L23.3458,26.6966  L22.8174,26.6966  L22.3434,26.6966  L21.9475,26.6966  L21.6497,26.6966  L21.4648,26.6966  L21.4021,26.6966 " /><path d="M21.4021,26.6966 Q21.41,26.6966 21.4178,26.6966  Q21.4413,26.6966 21.4648,26.6966  Q21.5036,26.6966 21.5424,26.6966  Q21.5961,26.6966 21.6497,26.6966  Q21.7175,26.6966 21.7853,26.6966  Q21.8664,26.6966 21.9475,26.6966  Q22.041,26.6966 22.1344,26.6966  Q22.2389,26.6966 22.3434,26.6966  Q22.4577,26.6966 22.572,26.6966  Q22.6947,26.6966 22.8174,26.6966  Q22.9469,26.6966 23.0764,26.6966  Q23.2111,26.6966 23.3458,26.6966  Q23.6212,26.6966 23.9021,26.6966 " /><path d="M4,34.6966 L3.89971,34.6966  L3.60388,34.6966  L3.12733,34.6966  L2.49396,34.6966  L1.73553,34.6966  L0.890084,34.6966  L2.55351e-15,34.6966  L-0.890084,34.6966  L-1.73553,34.6966  L-2.49396,34.6966  L-3.12733,34.6966  L-3.60388,34.6966  L-3.89971,34.6966  L-4,34.6966 " /><path d="M1.78993,26.0707 Q2.31733,25.9052 2.74692,25.6523 " /><path d="M2.74692,25.6523 L2.74692,26.0343 " /><path d="M-2.74891,33.8012 L-2.91295,33.6984  L-3.06717,33.5898  L-3.21104,33.4759  L-3.34408,33.3569  L-3.46584,33.2333  L-3.57592,33.1054  L-3.67394,32.9738  L-3.75957,32.8389  L-3.83251,32.7011  L-3.89254,32.5609  L-3.93943,32.4187  L-3.97304,32.2751  L-3.99326,32.1305  L-4,31.9854 " /><path d="M-4,31.9854 L-3.89971,31.4292  L-3.60388,30.9009  L-3.12733,30.4269  L-2.49396,30.0311  L-1.73553,29.7334  L-0.890084,29.5485  L1.29929e-12,29.4858  L0.890084,29.5485  L1.73553,29.7334  L2.49396,30.0311  L3.12733,30.4269  L3.60388,30.9009  L3.89971,31.4292  L4,31.9854 " /><path d="M4,31.9854 L3.99324,32.1306  L3.973,32.2753  L3.93933,32.4191  L3.89236,32.5613  L3.83223,32.7017  L3.75916,32.8396  L3.6734,32.9746  L3.57522,33.1063  L3.46497,33.2342  L3.34301,33.3579  L3.20975,33.4769  L3.06566,33.591  L2.91121,33.6995  L2.74692,33.8023 " /><path d="M-2.74891,25.6512 L-2.74891,26.0331 " /><path d="M-2.74891,25.6512 Q-2.32029,25.9038 -1.79404,26.0694 " /><path d="M2.77556e-15,34.6966 Q0.139956,34.6966 0.279911,34.6966  Q0.558264,34.6966 0.825698,34.6966  Q0.955204,34.6966 1.08471,34.6966  Q1.20739,34.6966 1.33008,34.6966  Q1.4444,34.6966 1.55872,34.6966  Q1.66325,34.6966 1.76777,34.6966  Q1.86117,34.6966 1.95458,34.6966  Q2.03569,34.6966 2.11681,34.6966  Q2.18462,34.6966 2.25242,34.6966  Q2.30607,34.6966 2.35971,34.6966  Q2.39851,34.6966 2.43732,34.6966  Q2.4608,34.6966 2.48428,34.6966  Q2.49214,34.6966 2.5,34.6966 " /><path d="M2.5,34.6966 L2.43732,34.6966  L2.25242,34.6966  L1.95458,34.6966  L1.55872,34.6966  L1.08471,34.6966  L0.556302,34.6966  L2.55351e-15,34.6966  L-0.556302,34.6966  L-1.08471,34.6966  L-1.55872,34.6966  L-1.95458,34.6966  L-2.25242,34.6966  L-2.43732,34.6966  L-2.5,34.6966 " /><path d="M-2.5,34.6966 Q-2.49214,34.6966 -2.48428,34.6966  Q-2.4608,34.6966 -2.43732,34.6966  Q-2.39851,34.6966 -2.35971,34.6966  Q-2.30607,34.6966 -2.25242,34.6966  Q-2.18462,34.6966 -2.11681,34.6966  Q-2.03569,34.6966 -1.95458,34.6966  Q-1.86117,34.6966 -1.76777,34.6966  Q-1.66325,34.6966 -1.55872,34.6966  Q-1.4444,34.6966 -1.33008,34.6966  Q-1.20739,34.6966 -1.08471,34.6966  Q-0.955204,34.6966 -0.825698,34.6966  Q-0.691,34.6966 -0.556302,34.6966  Q-0.280898,34.6966 2.16493e-15,34.6966 " /><path d="M-2.25249,22.6966 L2.88658e-15,22.6966 " /><path d="M2.24962,22.6966 L2.66454e-15,22.6966 " /><path d="M-30.9851,9.54944 C-30.8326,7.58144 -29.9299,5.62792 -28.3049,3.85543  C-26.5831,1.97033 -24.0374,0.294005 -20.8899,-0.974648  C-17.9487,-2.16744 -14.4857,-2.98653 -10.863,-3.38275  C-9.26708,-3.56028 -7.64296,-3.65914 -6.01592,-3.70678  C-4.32573,-3.75669 -2.63235,-3.7552 -0.940205,-3.75616  C0.877453,-3.75414 2.69547,-3.76332 4.51279,-3.73902  C6.39194,-3.71331 8.27303,-3.63789 10.1245,-3.45912  C12.2839,-3.25272 14.3987,-2.90742 16.3888,-2.41568  C17.9811,-2.02312 19.4931,-1.53893 20.8899,-0.974648  C24.0876,0.314144 26.6635,2.02376 28.3864,3.94533  C29.9603,5.69389 30.8351,7.61464 30.9851,9.54943 " /><path d="M2.74692,25.6523 Q4.48777,25.5696 6.2,25.3835 " /><path id= "48" d=" M 6.2 25.3835 L 6.2 25.7722 " />
<path d="M-6.2,25.3837 Q-4.48875,25.5692 -2.74891,25.6512 " /><path d="M-6.2,25.3837 L-6.2,25.7724 " /><path d="M-8.5,25.0848 L-8.5,25.4813 " /><path d="M8.5,25.0846 C10.9188,24.7179 13.2522,24.1929 15.429,23.5245  C18.4563,22.5958 21.179,21.388 23.4263,19.9672  C25.5869,18.6029 27.3075,17.0423 28.471,15.371  C29.6199,13.7238 30.2259,11.9693 30.2249,10.2127 " /><path d="M30.2249,10.2127 C30.2288,8.00045 29.2578,5.78456 27.3461,3.81588  C25.6695,2.0823 23.2627,0.544583 20.3207,-0.625154  C18.6732,-1.28172 16.8619,-1.82238 14.9488,-2.22851  C13.3258,-2.57382 11.6307,-2.82137 9.90768,-2.9775  C8.46277,-3.10924 6.99929,-3.17628 5.53514,-3.20407  C3.69069,-3.23881 1.84499,-3.21881 -8.88178e-16,-3.2206  C-1.84499,-3.21881 -3.69069,-3.23881 -5.53514,-3.20407  C-6.99929,-3.17628 -8.46277,-3.10924 -9.90768,-2.9775  C-11.6307,-2.82137 -13.3258,-2.57382 -14.9488,-2.22851  C-16.8619,-1.82238 -18.6732,-1.28172 -20.3207,-0.625154  C-23.2627,0.544583 -25.6695,2.0823 -27.3461,3.81588  C-29.2578,5.78456 -30.2288,8.00045 -30.2249,10.2127 " /><path d="M-30.2249,10.2127 C-30.2259,11.9693 -29.6199,13.7238 -28.471,15.371  C-27.3075,17.0423 -25.5869,18.6029 -23.4263,19.9672  C-21.179,21.388 -18.4563,22.5958 -15.429,23.5245  C-13.2522,24.1928 -10.9188,24.7178 -8.5,25.0848 " /><path d="M8.5,25.0846 L8.5,25.481 " /><path d="M6.2,25.3835 L6.2,25.7722 " /><path d="M8.5,5.06408 C11.6803,5.26126 14.8054,5.76306 17.6072,6.5915  C20.1173,7.32887 22.3641,8.3143 24.2162,9.47583  C26.0711,10.6368 27.5324,11.9718 28.5403,13.3957  C29.6635,14.9792 30.2262,16.6716 30.2249,18.3627 " /><path d="M8.5,-0.303428 L8.5,5.06408 " /><path d="M8.5,-0.303428 Q7.35282,-0.303428 6.2,-0.303428 " /><path d="M6.2,-0.303428 L6.2,4.96142 " /><path d="M-6.2,4.96142 C-4.01287,4.90256 -1.82257,4.93426 0.366018,4.92926  C2.31067,4.92948 4.25678,4.90838 6.2,4.96142 " /><path d="M-6.2,-0.303428 L-6.2,4.96142 " /><path d="M-6.2,-0.303428 Q-7.35282,-0.303428 -8.5,-0.303428 " /><path d="M-8.5,-0.303428 L-8.5,5.06408 " /><path d="M-30.2249,18.3627 C-30.226,16.7363 -29.7059,15.1088 -28.6667,13.578  C-27.7792,12.2685 -26.5121,11.0304 -24.9071,9.9288  C-22.9321,8.57046 -20.4385,7.4228 -17.6072,6.5915  C-14.8053,5.76302 -11.6803,5.26127 -8.5,5.06408 " /><path id= "66" d=" M 8.5 5.06408 L 8.5 29.6966 " />
<path id= "67" d=" M 6.2 29.6966 L 8.5 29.6966 " />
<path id= "68" d=" M 6.2 4.96142 L 6.2 29.6966 " />
<path id= "69" d=" M -6.2 4.96142 L -6.2 29.6966 " />
<path id= "70" d=" M -8.5 29.6966 L -6.2 29.6966 " />
<path id= "71" d=" M -8.5 5.06408 L -8.5 29.6966 " />
<path id= "72" d=" M -6.2 25.3837 L -6.2 25.7724 " />
<path d="M2.77556e-15,26.6966 Q0.139956,26.6966 0.279911,26.6966  Q0.558264,26.6966 0.825698,26.6966  Q0.955204,26.6966 1.08471,26.6966  Q1.20739,26.6966 1.33008,26.6966  Q1.4444,26.6966 1.55872,26.6966  Q1.66325,26.6966 1.76777,26.6966  Q1.86117,26.6966 1.95458,26.6966  Q2.03569,26.6966 2.11681,26.6966  Q2.18462,26.6966 2.25242,26.6966  Q2.30607,26.6966 2.35971,26.6966  Q2.39851,26.6966 2.43732,26.6966  Q2.4608,26.6966 2.48428,26.6966  Q2.49214,26.6966 2.5,26.6966 " /><path d="M2.5,26.6966 L2.43732,26.6966  L2.25242,26.6966  L1.95458,26.6966  L1.55872,26.6966  L1.08471,26.6966  L0.556302,26.6966  L2.55351e-15,26.6966  L-0.556302,26.6966  L-1.08471,26.6966  L-1.55872,26.6966  L-1.95458,26.6966  L-2.25242,26.6966  L-2.43732,26.6966  L-2.5,26.6966 " /><path d="M-2.5,26.6966 Q-2.49214,26.6966 -2.48428,26.6966  Q-2.4608,26.6966 -2.43732,26.6966  Q-2.39851,26.6966 -2.35971,26.6966  Q-2.30607,26.6966 -2.25242,26.6966  Q-2.18462,26.6966 -2.11681,26.6966  Q-2.03569,26.6966 -1.95458,26.6966  Q-1.86117,26.6966 -1.76777,26.6966  Q-1.66325,26.6966 -1.55872,26.6966  Q-1.4444,26.6966 -1.33008,26.6966  Q-1.20739,26.6966 -1.08471,26.6966  Q-0.955204,26.6966 -0.825698,26.6966  Q-0.691,26.6966 -0.556302,26.6966  Q-0.280898,26.6966 2.16493e-15,26.6966 " /><path id= "76" d=" M -8.5 25.0848 L -8.5 25.4813 " />
<path id= "77" d=" M 8.5 25.0846 L 8.5 25.481 " />
<path id= "1" d=" M -19.9021 29.999 L -19.9021 22.6966 " />
<path id= "2" d=" M -27.9021 24.275 L -27.9021 22.6966 " />
<path id= "3" d=" M -21.4021 34.6966 L -21.4021 26.6966 " />
<path id= "4" d=" M -26.4021 34.6966 L -26.4021 26.6966 " />
<path id= "5" d=" M 4 34.6966 L 4 22.6966 " />
<path id= "6" d=" M -4 34.6966 L -4 22.6966 " />
<path id= "7" d=" M 2.5 34.6966 L 2.5 26.6966 " />
<path id= "8" d=" M -2.5 34.6966 L -2.5 26.6966 " />
<path id= "9" d=" M 27.9021 24.275 L 27.9021 22.6966 " />
<path id= "10" d=" M 19.9021 29.999 L 19.9021 22.6966 " />
<path id= "11" d=" M 26.4021 34.6966 L 26.4021 26.6966 " />
<path id= "12" d=" M 21.4021 34.6966 L 21.4021 26.6966 " />
<path id= "13" d=" M 4 33.7292 L 4 31.9854 " />
<path id= "14" d=" M -4 33.7286 L -4 31.9854 " />
<path d="M30.2249,10.2127 L30.2249,13.693 " /><path d="M-30.2249,10.2127 L-30.2249,13.693 " /><path id= "17" d=" M 2.5 34.6966 L 2.5 26.6966 " />
<path id= "18" d=" M -2.5 34.6966 L -2.5 26.6966 " />
</g>

  </g>
</svg>