<?xml version="1.0" encoding="UTF-8"?>
<svg xmlns="http://www.w3.org/2000/svg" viewBox="-100 -20 1100 1980" preserveAspectRatio="xMidYMid meet">
<title>Side view</title>
<rect x="-100" y="-20" width="1100" height="1980" fill="#fff"/>
<polyline points="112.800,108.463 101.700,146.563 101.700,323.844" stroke="#c00000" stroke-width="1.676" stroke-linecap="round" fill="none" stroke-dasharray="3 2" opacity="0.6"/>
<line x1="101.700" y1="323.844" x2="101.700" y2="1661.495" stroke="#c00000" stroke-width="1.676" stroke-linecap="round"/>
<polyline points="130.732,105.009 119.632,143.109 119.632,317.635" stroke="#888" stroke-width="1.549" stroke-linecap="round" fill="none" stroke-dasharray="3 2" opacity="0.6"/>
<line x1="119.632" y1="317.635" x2="119.632" y2="1632.793" stroke="#888" stroke-width="1.549" stroke-linecap="round"/>
<polyline points="148.665,101.554 137.565,139.654 137.565,311.426" stroke="#888" stroke-width="1.448" stroke-linecap="round" fill="none" stroke-dasharray="3 2" opacity="0.6"/>
<line x1="137.565" y1="311.426" x2="137.565" y2="1604.091" stroke="#888" stroke-width="1.448" stroke-linecap="round"/>
<polyline points="166.623,98.100 155.523,136.200 155.523,305.217" stroke="#1060d0" stroke-width="1.270" stroke-linecap="round" fill="none" stroke-dasharray="3 2" opacity="0.6"/>
<line x1="155.523" y1="305.217" x2="155.523" y2="1575.389" stroke="#1060d0" stroke-width="1.270" stroke-linecap="round"/>
<polyline points="182.555,99.675 173.455,137.775 173.455,303.486" stroke="#888" stroke-width="1.219" stroke-linecap="round" fill="none" stroke-dasharray="3 2" opacity="0.6"/>
<line x1="173.455" y1="303.486" x2="173.455" y2="1546.662" stroke="#888" stroke-width="1.219" stroke-linecap="round"/>
<polyline points="200.487,101.275 191.387,139.375 191.387,301.780" stroke="#888" stroke-width="1.219" stroke-linecap="round" fill="none" stroke-dasharray="3 2" opacity="0.6"/>
<line x1="191.387" y1="301.780" x2="191.387" y2="1517.960" stroke="#888" stroke-width="1.219" stroke-linecap="round"/>
<polyline points="218.420,102.875 209.320,140.975 209.320,300.074" stroke="#888" stroke-width="1.016" stroke-linecap="round" fill="none" stroke-dasharray="3 2" opacity="0.6"/>
<line x1="209.320" y1="300.074" x2="209.320" y2="1489.258" stroke="#888" stroke-width="1.016" stroke-linecap="round"/>
<polyline points="236.352,104.475 227.252,142.575 227.252,298.368" stroke="#c00000" stroke-width="1.016" stroke-linecap="round" fill="none" stroke-dasharray="3 2" opacity="0.6"/>
<line x1="227.252" y1="298.368" x2="227.252" y2="1460.556" stroke="#c00000" stroke-width="1.016" stroke-linecap="round"/>
<polyline points="254.310,111.130 245.210,149.230 245.210,301.166" stroke="#888" stroke-width="0.914" stroke-linecap="round" fill="none" stroke-dasharray="3 2" opacity="0.6"/>
<line x1="245.210" y1="301.166" x2="245.210" y2="1431.854" stroke="#888" stroke-width="0.914" stroke-linecap="round"/>
<polyline points="272.242,122.814 263.142,160.914 263.142,308.444" stroke="#888" stroke-width="2.642" stroke-linecap="round" fill="none" stroke-dasharray="3 2" opacity="0.6"/>
<line x1="263.142" y1="308.444" x2="263.142" y2="1403.152" stroke="#888" stroke-width="2.642" stroke-linecap="round"/>
<polyline points="290.175,114.280 281.075,152.380 281.075,297.707" stroke="#1060d0" stroke-width="2.489" stroke-linecap="round" fill="none" stroke-dasharray="3 2" opacity="0.6"/>
<line x1="281.075" y1="297.707" x2="281.075" y2="1374.425" stroke="#1060d0" stroke-width="2.489" stroke-linecap="round"/>
<polyline points="308.107,120.935 299.007,159.035 299.007,300.504" stroke="#888" stroke-width="2.337" stroke-linecap="round" fill="none" stroke-dasharray="3 2" opacity="0.6"/>
<line x1="299.007" y1="300.504" x2="299.007" y2="1345.723" stroke="#888" stroke-width="2.337" stroke-linecap="round"/>
<polyline points="325.532,168.788 316.432,206.888 316.432,340.094" stroke="#888" stroke-width="2.184" stroke-linecap="round" fill="none" stroke-dasharray="3 2" opacity="0.6"/>
<line x1="316.432" y1="340.094" x2="316.432" y2="1317.833" stroke="#888" stroke-width="2.184" stroke-linecap="round"/>
<polyline points="342.956,196.474 333.856,234.574 333.856,361.719" stroke="#888" stroke-width="2.057" stroke-linecap="round" fill="none" stroke-dasharray="3 2" opacity="0.6"/>
<line x1="333.856" y1="361.719" x2="333.856" y2="1289.970" stroke="#888" stroke-width="2.057" stroke-linecap="round"/>
<polyline points="360.380,234.219 351.280,272.319 351.280,392.303" stroke="#c00000" stroke-width="2.057" stroke-linecap="round" fill="none" stroke-dasharray="3 2" opacity="0.6"/>
<line x1="351.280" y1="392.303" x2="351.280" y2="1262.080" stroke="#c00000" stroke-width="2.057" stroke-linecap="round"/>
<polyline points="377.805,271.988 368.705,310.088 368.705,422.909" stroke="#888" stroke-width="1.930" stroke-linecap="round" fill="none" stroke-dasharray="3 2" opacity="0.6"/>
<line x1="368.705" y1="422.909" x2="368.705" y2="1234.191" stroke="#888" stroke-width="1.930" stroke-linecap="round"/>
<polyline points="394.213,306.355 385.113,344.455 385.113,450.664" stroke="#888" stroke-width="1.676" stroke-linecap="round" fill="none" stroke-dasharray="3 2" opacity="0.6"/>
<line x1="385.113" y1="450.664" x2="385.113" y2="1207.953" stroke="#888" stroke-width="1.676" stroke-linecap="round"/>
<polyline points="410.622,350.779 401.522,388.879 401.522,487.376" stroke="#1060d0" stroke-width="1.676" stroke-linecap="round" fill="none" stroke-dasharray="3 2" opacity="0.6"/>
<line x1="401.522" y1="487.376" x2="401.522" y2="1181.689" stroke="#1060d0" stroke-width="1.676" stroke-linecap="round"/>
<polyline points="427.005,385.145 417.905,423.245 417.905,515.130" stroke="#888" stroke-width="1.549" stroke-linecap="round" fill="none" stroke-dasharray="3 2" opacity="0.6"/>
<line x1="417.905" y1="515.130" x2="417.905" y2="1155.451" stroke="#888" stroke-width="1.549" stroke-linecap="round"/>
<polyline points="442.397,426.166 433.297,464.266 433.297,548.990" stroke="#888" stroke-width="1.549" stroke-linecap="round" fill="none" stroke-dasharray="3 2" opacity="0.6"/>
<line x1="433.297" y1="548.990" x2="433.297" y2="1130.839" stroke="#888" stroke-width="1.549" stroke-linecap="round"/>
<polyline points="457.764,447.020 448.664,485.120 448.664,564.886" stroke="#888" stroke-width="1.270" stroke-linecap="round" fill="none" stroke-dasharray="3 2" opacity="0.6"/>
<line x1="448.664" y1="564.886" x2="448.664" y2="1106.251" stroke="#888" stroke-width="1.270" stroke-linecap="round"/>
<polyline points="473.131,472.928 464.031,511.028 464.031,585.282" stroke="#c00000" stroke-width="1.270" stroke-linecap="round" fill="none" stroke-dasharray="3 2" opacity="0.6"/>
<line x1="464.031" y1="585.282" x2="464.031" y2="1081.639" stroke="#c00000" stroke-width="1.270" stroke-linecap="round"/>
<polyline points="488.523,493.756 479.423,531.856 479.423,601.153" stroke="#888" stroke-width="1.270" stroke-linecap="round" fill="none" stroke-dasharray="3 2" opacity="0.6"/>
<line x1="479.423" y1="601.153" x2="479.423" y2="1057.026" stroke="#888" stroke-width="1.270" stroke-linecap="round"/>
<polyline points="503.890,509.529 494.790,547.629 494.790,612.520" stroke="#888" stroke-width="1.143" stroke-linecap="round" fill="none" stroke-dasharray="3 2" opacity="0.6"/>
<line x1="494.790" y1="612.520" x2="494.790" y2="1032.414" stroke="#888" stroke-width="1.143" stroke-linecap="round"/>
<polyline points="519.257,520.299 510.157,558.399 510.157,619.432" stroke="#1060d0" stroke-width="1.143" stroke-linecap="round" fill="none" stroke-dasharray="3 2" opacity="0.6"/>
<line x1="510.157" y1="619.432" x2="510.157" y2="1007.826" stroke="#1060d0" stroke-width="1.143" stroke-linecap="round"/>
<polyline points="534.624,531.043 525.524,569.143 525.524,626.319" stroke="#888" stroke-width="1.143" stroke-linecap="round" fill="none" stroke-dasharray="3 2" opacity="0.6"/>
<line x1="525.524" y1="626.319" x2="525.524" y2="983.214" stroke="#888" stroke-width="1.143" stroke-linecap="round"/>
<polyline points="548.975,538.384 539.875,576.484 539.875,630.354" stroke="#888" stroke-width="1.016" stroke-linecap="round" fill="none" stroke-dasharray="3 2" opacity="0.6"/>
<line x1="539.875" y1="630.354" x2="539.875" y2="960.252" stroke="#888" stroke-width="1.016" stroke-linecap="round"/>
<polyline points="563.326,545.699 554.226,583.799 554.226,634.365" stroke="#888" stroke-width="1.016" stroke-linecap="round" fill="none" stroke-dasharray="3 2" opacity="0.6"/>
<line x1="554.226" y1="634.365" x2="554.226" y2="937.291" stroke="#888" stroke-width="1.016" stroke-linecap="round"/>
<polyline points="577.677,547.985 568.577,586.085 568.577,633.897" stroke="#c00000" stroke-width="1.016" stroke-linecap="round" fill="none" stroke-dasharray="3 2" opacity="0.6"/>
<line x1="568.577" y1="633.897" x2="568.577" y2="914.329" stroke="#c00000" stroke-width="1.016" stroke-linecap="round"/>
<polyline points="592.028,550.271 582.928,588.371 582.928,633.428" stroke="#888" stroke-width="0.914" stroke-linecap="round" fill="none" stroke-dasharray="3 2" opacity="0.6"/>
<line x1="582.928" y1="633.428" x2="582.928" y2="891.367" stroke="#888" stroke-width="0.914" stroke-linecap="round"/>
<polyline points="606.379,552.557 597.279,590.657 597.279,632.960" stroke="#888" stroke-width="0.914" stroke-linecap="round" fill="none" stroke-dasharray="3 2" opacity="0.6"/>
<line x1="597.279" y1="632.960" x2="597.279" y2="868.406" stroke="#888" stroke-width="0.914" stroke-linecap="round"/>
<polyline points="620.730,544.734 611.630,582.834 611.630,623.485" stroke="#1060d0" stroke-width="0.914" stroke-linecap="round" fill="none" stroke-dasharray="3 2" opacity="0.6"/>
<line x1="611.630" y1="623.485" x2="611.630" y2="845.444" stroke="#1060d0" stroke-width="0.914" stroke-linecap="round"/>
<polyline points="635.081,547.020 625.981,585.120 625.981,623.016" stroke="#888" stroke-width="0.813" stroke-linecap="round" fill="none" stroke-dasharray="3 2" opacity="0.6"/>
<line x1="625.981" y1="623.016" x2="625.981" y2="822.482" stroke="#888" stroke-width="0.813" stroke-linecap="round"/>
<polyline points="648.416,540.847 639.316,578.947 639.316,615.189" stroke="#888" stroke-width="0.813" stroke-linecap="round" fill="none" stroke-dasharray="3 2" opacity="0.6"/>
<line x1="639.316" y1="615.189" x2="639.316" y2="801.147" stroke="#888" stroke-width="0.813" stroke-linecap="round"/>
<polyline points="661.726,534.675 652.626,572.775 652.626,607.363" stroke="#888" stroke-width="0.813" stroke-linecap="round" fill="none" stroke-dasharray="3 2" opacity="0.6"/>
<line x1="652.626" y1="607.363" x2="652.626" y2="779.811" stroke="#888" stroke-width="0.813" stroke-linecap="round"/>
<polyline points="675.061,528.503 665.961,566.603 665.961,599.539" stroke="#c00000" stroke-width="0.813" stroke-linecap="round" fill="none" stroke-dasharray="3 2" opacity="0.6"/>
<line x1="665.961" y1="599.539" x2="665.961" y2="758.500" stroke="#c00000" stroke-width="0.813" stroke-linecap="round"/>
<polyline points="688.396,522.331 679.296,560.431 679.296,591.713" stroke="#888" stroke-width="0.762" stroke-linecap="round" fill="none" stroke-dasharray="3 2" opacity="0.6"/>
<line x1="679.296" y1="591.713" x2="679.296" y2="737.164" stroke="#888" stroke-width="0.762" stroke-linecap="round"/>
<polyline points="701.706,516.159 692.606,554.259 692.606,583.889" stroke="#888" stroke-width="0.762" stroke-linecap="round" fill="none" stroke-dasharray="3 2" opacity="0.6"/>
<line x1="692.606" y1="583.889" x2="692.606" y2="715.853" stroke="#888" stroke-width="0.762" stroke-linecap="round"/>
<polyline points="715.041,509.986 705.941,548.086 705.941,576.062" stroke="#1060d0" stroke-width="0.762" stroke-linecap="round" fill="none" stroke-dasharray="3 2" opacity="0.6"/>
<line x1="705.941" y1="576.062" x2="705.941" y2="694.517" stroke="#1060d0" stroke-width="0.762" stroke-linecap="round"/>
<polyline points="728.350,503.789 719.250,541.889 719.250,568.213" stroke="#888" stroke-width="0.711" stroke-linecap="round" fill="none" stroke-dasharray="3 2" opacity="0.6"/>
<line x1="719.250" y1="568.213" x2="719.250" y2="673.181" stroke="#888" stroke-width="0.711" stroke-linecap="round"/>
<polyline points="741.685,492.587 732.585,530.687 732.585,555.908" stroke="#888" stroke-width="0.711" stroke-linecap="round" fill="none" stroke-dasharray="3 2" opacity="0.6"/>
<line x1="732.585" y1="555.908" x2="732.585" y2="651.871" stroke="#888" stroke-width="0.711" stroke-linecap="round"/>
<polyline points="755.020,481.335 745.920,519.435 745.920,543.556" stroke="#888" stroke-width="0.660" stroke-linecap="round" fill="none" stroke-dasharray="3 2" opacity="0.6"/>
<line x1="745.920" y1="543.556" x2="745.920" y2="630.535" stroke="#888" stroke-width="0.660" stroke-linecap="round"/>
<polyline points="768.330,470.134 759.230,508.234 759.230,531.252" stroke="#c00000" stroke-width="0.635" stroke-linecap="round" fill="none" stroke-dasharray="3 2" opacity="0.6"/>
<line x1="759.230" y1="531.252" x2="759.230" y2="609.224" stroke="#c00000" stroke-width="0.635" stroke-linecap="round"/>
<polyline points="781.665,458.882 772.565,496.982 772.565,518.900" stroke="#888" stroke-width="0.635" stroke-linecap="round" fill="none" stroke-dasharray="3 2" opacity="0.6"/>
<line x1="772.565" y1="518.900" x2="772.565" y2="587.888" stroke="#888" stroke-width="0.635" stroke-linecap="round"/>
<polyline points="794.974,447.680 785.874,485.780 785.874,506.595" stroke="#888" stroke-width="0.635" stroke-linecap="round" fill="none" stroke-dasharray="3 2" opacity="0.6"/>
<line x1="785.874" y1="506.595" x2="785.874" y2="566.578" stroke="#888" stroke-width="0.635" stroke-linecap="round"/>
<polyline points="808.309,436.453 799.209,474.553 799.209,494.265" stroke="#1060d0" stroke-width="0.635" stroke-linecap="round" fill="none" stroke-dasharray="3 2" opacity="0.6"/>
<line x1="799.209" y1="494.265" x2="799.209" y2="545.242" stroke="#1060d0" stroke-width="0.635" stroke-linecap="round"/>
<polyline points="821.644,425.227 812.544,463.327 812.544,481.939" stroke="#888" stroke-width="0.635" stroke-linecap="round" fill="none" stroke-dasharray="3 2" opacity="0.6"/>
<line x1="812.544" y1="481.939" x2="812.544" y2="523.931" stroke="#888" stroke-width="0.635" stroke-linecap="round"/>
<path d="M -57.034 1915.504 L -54.746 1911.843 L -52.459 1908.183 L -50.172 1904.523 L -47.885 1900.863 L -45.597 1897.202 L -43.310 1893.542 L -41.023 1889.882 L -38.736 1886.222 L -36.448 1882.561 L -34.161 1878.901 L -31.874 1875.241 L -29.587 1871.581 L -27.299 1867.920 L -25.012 1864.260 L -22.725 1860.600 L -20.438 1856.940 L -18.150 1853.279 L -15.863 1849.619 L -13.576 1845.959 L -11.289 1842.299 L -9.001 1838.638 L -6.714 1834.978 L -4.427 1831.318 L -2.140 1827.658 L 0.148 1823.997 L 2.435 1820.337 L 4.722 1816.677 L 7.009 1813.017 L 9.297 1809.356 L 11.584 1805.696 L 13.871 1802.036 L 16.158 1798.376 L 18.446 1794.715 L 20.733 1791.055 L 23.020 1787.395 L 25.307 1783.735 L 27.595 1780.074 L 29.882 1776.414 L 32.169 1772.754 L 34.456 1769.094 L 36.744 1765.433 L 39.031 1761.773 L 41.318 1758.113 L 43.605 1754.453 L 45.893 1750.792 L 48.180 1747.132 L 50.467 1743.472 L 52.754 1739.812 L 55.042 1736.151 L 57.329 1732.491 L 59.616 1728.831 L 61.903 1725.171 L 64.191 1721.510 L 66.478 1717.850 L 68.765 1714.190 L 71.052 1710.530 L 73.340 1706.869 L 75.627 1703.209 L 77.914 1699.549 L 80.201 1695.889 L 82.488 1692.228 L 84.776 1688.568 L 87.063 1684.908 L 89.350 1681.248 L 91.637 1677.587 L 93.925 1673.927 L 96.212 1670.267 L 98.499 1666.607 L 100.786 1662.946 L 103.074 1659.286 L 105.361 1655.626 L 107.648 1651.966 L 109.935 1648.305 L 112.223 1644.645 L 114.510 1640.985 L 116.797 1637.325 L 119.084 1633.664 L 121.372 1630.004 L 123.659 1626.344 L 125.946 1622.684 L 128.233 1619.023 L 130.521 1615.363 L 132.808 1611.703 L 135.095 1608.043 L 137.382 1604.382 L 139.670 1600.722 L 141.957 1597.062 L 144.244 1593.402 L 146.531 1589.741 L 148.819 1586.081 L 151.106 1582.421 L 153.393 1578.761 L 155.680 1575.100 L 157.968 1571.440 L 160.255 1567.780 L 162.542 1564.120 L 164.829 1560.459 L 167.117 1556.799 L 169.404 1553.139 L 171.691 1549.479 L 173.978 1545.818 L 176.266 1542.158 L 178.553 1538.498 L 180.840 1534.838 L 183.127 1531.177 L 185.415 1527.517 L 187.702 1523.857 L 189.989 1520.197 L 192.276 1516.536 L 194.564 1512.876 L 196.851 1509.216 L 199.138 1505.556 L 201.425 1501.895 L 203.713 1498.235 L 206.000 1494.575 L 208.287 1490.915 L 210.574 1487.254 L 212.862 1483.594 L 215.149 1479.934 L 217.436 1476.274 L 219.723 1472.613 L 222.011 1468.953 L 224.298 1465.293 L 226.585 1461.633 L 228.872 1457.972 L 231.160 1454.312 L 233.447 1450.652 L 235.734 1446.992 L 238.021 1443.331 L 240.309 1439.671 L 242.596 1436.011 L 244.883 1432.351 L 247.170 1428.690 L 249.458 1425.030 L 251.745 1421.370 L 254.032 1417.710 L 256.319 1414.049 L 258.607 1410.389 L 260.894 1406.729 L 263.181 1403.069 L 265.468 1399.408 L 267.756 1395.748 L 270.043 1392.088 L 272.330 1388.428 L 274.617 1384.767 L 276.905 1381.107 L 279.192 1377.447 L 281.479 1373.787 L 283.766 1370.126 L 286.054 1366.466 L 288.341 1362.806 L 290.628 1359.146 L 292.915 1355.485 L 295.202 1351.825 L 297.490 1348.165 L 299.777 1344.505 L 302.064 1340.844 L 304.351 1337.184 L 306.639 1333.524 L 308.926 1329.864 L 311.213 1326.203 L 313.500 1322.543 L 315.788 1318.883 L 318.075 1315.223 L 320.362 1311.562 L 322.649 1307.902 L 324.937 1304.242 L 327.224 1300.582 L 329.511 1296.921 L 331.798 1293.261 L 334.086 1289.601 L 336.373 1285.941 L 338.660 1282.280 L 340.947 1278.620 L 343.235 1274.960 L 345.522 1271.300 L 347.809 1267.639 L 350.096 1263.979 L 352.384 1260.319 L 354.671 1256.659 L 356.958 1252.998 L 359.245 1249.338 L 361.533 1245.678 L 363.820 1242.018 L 366.107 1238.357 L 368.394 1234.697 L 370.682 1231.037 L 372.969 1227.377 L 375.256 1223.716 L 377.543 1220.056 L 379.831 1216.396 L 382.118 1212.736 L 384.405 1209.075 L 386.692 1205.415 L 388.980 1201.755 L 391.267 1198.095 L 393.554 1194.434 L 395.841 1190.774 L 398.129 1187.114 L 400.416 1183.454 L 402.703 1179.793 L 404.990 1176.133 L 407.278 1172.473 L 409.565 1168.813 L 411.852 1165.152 L 414.139 1161.492 L 416.427 1157.832 L 418.714 1154.172 L 421.001 1150.511 L 423.288 1146.851 L 425.576 1143.191 L 427.863 1139.531 L 430.150 1135.870 L 432.437 1132.210 L 434.725 1128.550 L 437.012 1124.890 L 439.299 1121.229 L 441.586 1117.569 L 443.874 1113.909 L 446.161 1110.249 L 448.448 1106.588 L 450.735 1102.928 L 453.023 1099.268 L 455.310 1095.608 L 457.597 1091.947 L 459.884 1088.287 L 462.172 1084.627 L 464.459 1080.967 L 466.746 1077.306 L 469.033 1073.646 L 471.321 1069.986 L 473.608 1066.326 L 475.895 1062.665 L 478.182 1059.005 L 480.470 1055.345 L 482.757 1051.685 L 485.044 1048.024 L 487.331 1044.364 L 489.619 1040.704 L 491.906 1037.044 L 494.193 1033.383 L 496.480 1029.723 L 498.767 1026.063 L 501.055 1022.403 L 503.342 1018.742 L 505.629 1015.082 L 507.916 1011.422 L 510.204 1007.762 L 512.491 1004.101 L 514.778 1000.441 L 517.065 996.781 L 519.353 993.121 L 521.640 989.460 L 523.927 985.800 L 526.214 982.140 L 528.502 978.480 L 530.789 974.819 L 533.076 971.159 L 535.363 967.499 L 537.651 963.839 L 539.938 960.178 L 542.225 956.518 L 544.512 952.858 L 546.800 949.198 L 549.087 945.537 L 551.374 941.877 L 553.661 938.217 L 555.949 934.557 L 558.236 930.896 L 560.523 927.236 L 562.810 923.576 L 565.098 919.916 L 567.385 916.255 L 569.672 912.595 L 571.959 908.935 L 574.247 905.275 L 576.534 901.614 L 578.821 897.954 L 581.108 894.294 L 583.396 890.634 L 585.683 886.973 L 587.970 883.313 L 590.257 879.653 L 592.545 875.993 L 594.832 872.332 L 597.119 868.672 L 599.406 865.012 L 601.694 861.352 L 603.981 857.691 L 606.268 854.031 L 608.555 850.371 L 610.843 846.711 L 613.130 843.050 L 615.417 839.390 L 617.704 835.730 L 619.992 832.070 L 622.279 828.409 L 624.566 824.749 L 626.853 821.089 L 629.141 817.429 L 631.428 813.768 L 633.715 810.108 L 636.002 806.448 L 638.290 802.787 L 640.577 799.127 L 642.864 795.467 L 645.151 791.807 L 647.439 788.146 L 649.726 784.486 L 652.013 780.826 L 654.300 777.166 L 656.588 773.505 L 658.875 769.845 L 661.162 766.185 L 663.449 762.525 L 665.737 758.864 L 668.024 755.204 L 670.311 751.544 L 672.598 747.884 L 674.886 744.223 L 677.173 740.563 L 679.460 736.903 L 681.747 733.243 L 684.035 729.582 L 686.322 725.922 L 688.609 722.262 L 690.896 718.602 L 693.184 714.941 L 695.471 711.281 L 697.758 707.621 L 700.045 703.961 L 702.333 700.300 L 704.620 696.640 L 706.907 692.980 L 709.194 689.320 L 711.481 685.659 L 713.769 681.999 L 716.056 678.339 L 718.343 674.679 L 720.630 671.018 L 722.918 667.358 L 725.205 663.698 L 727.492 660.038 L 729.779 656.377 L 732.067 652.717 L 734.354 649.057 L 736.641 645.397 L 738.928 641.736 L 741.216 638.076 L 743.503 634.416 L 745.790 630.756 L 748.077 627.095 L 750.365 623.435 L 752.652 619.775 L 754.939 616.115 L 757.226 612.454 L 759.514 608.794 L 761.801 605.134 L 764.088 601.474 L 766.375 597.813 L 768.663 594.153 L 770.950 590.493 L 773.237 586.833 L 775.524 583.172 L 777.812 579.512 L 780.099 575.852 L 782.386 572.192 L 784.673 568.531 L 786.961 564.871 L 789.248 561.211 L 791.535 557.551 L 793.822 553.890 L 796.110 550.230 L 798.397 546.570 L 800.684 542.910 L 802.971 539.249 L 805.259 535.589 L 807.546 531.929 L 809.833 528.269 L 812.120 524.608 L 814.408 520.948 L 816.695 517.288 L 818.982 513.628 L 821.269 509.967 L 823.557 506.307 L 825.844 502.647 L 828.131 498.987 L 830.418 495.326 L 832.706 491.666 L 834.993 488.006 L 837.280 484.346 L 838.784 481.939 L 906.632 481.939 L 906.632 481.877 L 905.317 486.145 L 904.009 490.417 L 902.709 494.694 L 901.415 498.975 L 900.129 503.261 L 898.851 507.552 L 897.579 511.847 L 896.314 516.146 L 895.056 520.449 L 893.805 524.757 L 892.560 529.069 L 891.323 533.385 L 890.091 537.705 L 888.867 542.029 L 887.648 546.357 L 886.436 550.689 L 885.230 555.025 L 884.030 559.365 L 882.836 563.708 L 881.648 568.056 L 880.466 572.406 L 879.290 576.761 L 878.119 581.119 L 876.953 585.480 L 875.793 589.845 L 874.639 594.213 L 873.490 598.584 L 872.346 602.959 L 871.206 607.336 L 870.072 611.717 L 868.943 616.101 L 867.819 620.488 L 866.699 624.878 L 865.583 629.270 L 864.473 633.666 L 863.366 638.064 L 862.264 642.465 L 861.166 646.868 L 860.072 651.274 L 858.982 655.682 L 857.896 660.093 L 856.814 664.506 L 855.735 668.922 L 854.660 673.340 L 853.589 677.760 L 852.521 682.182 L 851.456 686.606 L 850.394 691.032 L 849.335 695.460 L 848.279 699.889 L 847.226 704.321 L 846.176 708.754 L 845.129 713.189 L 844.083 717.626 L 843.041 722.064 L 842.001 726.503 L 840.963 730.944 L 839.927 735.386 L 838.893 739.830 L 837.861 744.274 L 836.831 748.720 L 835.802 753.167 L 834.775 757.615 L 833.750 762.063 L 832.726 766.513 L 831.703 770.963 L 830.681 775.415 L 829.661 779.866 L 828.641 784.319 L 827.622 788.772 L 826.604 793.225 L 825.587 797.679 L 824.570 802.133 L 823.553 806.587 L 822.537 811.042 L 821.521 815.496 L 820.505 819.951 L 819.490 824.406 L 818.474 828.860 L 817.457 833.315 L 816.441 837.769 L 815.424 842.223 L 814.406 846.677 L 813.388 851.130 L 812.369 855.583 L 811.350 860.035 L 810.329 864.487 L 809.307 868.938 L 808.284 873.388 L 807.260 877.838 L 806.234 882.286 L 805.207 886.734 L 804.178 891.181 L 803.147 895.626 L 802.115 900.071 L 801.081 904.514 L 800.045 908.956 L 799.006 913.396 L 797.965 917.836 L 796.922 922.273 L 795.877 926.710 L 794.829 931.144 L 793.778 935.577 L 792.725 940.008 L 791.668 944.438 L 790.609 948.865 L 789.547 953.291 L 788.481 957.715 L 787.412 962.136 L 786.340 966.556 L 785.265 970.973 L 784.185 975.388 L 783.102 979.801 L 782.016 984.212 L 780.925 988.620 L 779.830 993.025 L 778.732 997.428 L 777.629 1001.828 L 776.522 1006.226 L 775.410 1010.621 L 774.294 1015.013 L 773.173 1019.402 L 772.048 1023.789 L 770.918 1028.172 L 769.783 1032.552 L 768.643 1036.929 L 767.498 1041.303 L 766.348 1045.674 L 765.192 1050.042 L 764.031 1054.406 L 762.865 1058.766 L 761.693 1063.124 L 760.516 1067.477 L 759.332 1071.828 L 758.143 1076.174 L 756.948 1080.517 L 755.747 1084.856 L 754.540 1089.191 L 753.327 1093.523 L 752.107 1097.850 L 750.881 1102.173 L 749.649 1106.493 L 748.410 1110.808 L 747.164 1115.119 L 745.912 1119.426 L 744.653 1123.729 L 743.387 1128.027 L 742.114 1132.321 L 740.834 1136.611 L 739.546 1140.896 L 738.252 1145.177 L 736.950 1149.453 L 735.641 1153.724 L 734.324 1157.991 L 733.000 1162.253 L 731.668 1166.510 L 730.328 1170.762 L 728.980 1175.010 L 727.625 1179.252 L 726.262 1183.490 L 724.890 1187.722 L 723.511 1191.950 L 722.123 1196.172 L 720.727 1200.389 L 719.322 1204.601 L 717.910 1208.808 L 716.488 1213.009 L 715.058 1217.205 L 713.620 1221.396 L 712.173 1225.581 L 710.717 1229.761 L 709.252 1233.935 L 707.778 1238.103 L 706.295 1242.266 L 704.803 1246.423 L 703.302 1250.575 L 701.792 1254.721 L 700.272 1258.861 L 698.744 1262.995 L 697.205 1267.123 L 695.658 1271.246 L 694.101 1275.362 L 692.534 1279.473 L 690.958 1283.577 L 689.371 1287.676 L 687.776 1291.768 L 686.170 1295.854 L 684.555 1299.934 L 682.929 1304.008 L 681.294 1308.076 L 679.648 1312.137 L 677.993 1316.192 L 676.327 1320.241 L 674.651 1324.283 L 672.965 1328.319 L 671.269 1332.348 L 669.562 1336.371 L 667.845 1340.388 L 666.117 1344.398 L 664.379 1348.401 L 662.630 1352.398 L 660.871 1356.388 L 659.101 1360.372 L 657.321 1364.348 L 655.529 1368.319 L 653.727 1372.282 L 651.915 1376.239 L 650.091 1380.189 L 648.256 1384.132 L 646.411 1388.068 L 644.555 1391.998 L 642.687 1395.920 L 640.809 1399.836 L 638.919 1403.745 L 637.019 1407.647 L 635.107 1411.542 L 633.184 1415.430 L 631.250 1419.311 L 629.305 1423.185 L 627.349 1427.052 L 625.381 1430.912 L 623.402 1434.764 L 621.412 1438.610 L 619.410 1442.449 L 617.397 1446.281 L 615.372 1450.105 L 613.337 1453.922 L 611.289 1457.732 L 609.230 1461.536 L 607.160 1465.331 L 605.078 1469.120 L 602.985 1472.901 L 600.880 1476.676 L 598.764 1480.443 L 596.636 1484.203 L 594.497 1487.955 L 592.345 1491.700 L 590.183 1495.439 L 588.008 1499.169 L 585.823 1502.893 L 583.625 1506.609 L 581.416 1510.318 L 579.195 1514.020 L 576.963 1517.715 L 574.719 1521.402 L 572.463 1525.082 L 570.195 1528.754 L 567.916 1532.420 L 565.624 1536.077 L 563.317 1539.725 L 560.995 1543.363 L 558.657 1546.992 L 556.303 1550.610 L 553.934 1554.220 L 551.550 1557.819 L 549.151 1561.409 L 546.736 1564.990 L 544.305 1568.561 L 541.860 1572.122 L 539.399 1575.674 L 536.923 1579.216 L 534.431 1582.749 L 531.925 1586.272 L 529.403 1589.786 L 526.866 1593.290 L 524.314 1596.784 L 521.746 1600.270 L 519.164 1603.745 L 516.566 1607.212 L 513.954 1610.669 L 511.326 1614.116 L 508.684 1617.555 L 506.026 1620.984 L 503.354 1624.403 L 500.667 1627.814 L 497.965 1631.215 L 495.248 1634.607 L 492.517 1637.989 L 489.771 1641.363 L 487.010 1644.727 L 484.235 1648.083 L 481.445 1651.429 L 478.641 1654.766 L 475.823 1658.095 L 472.990 1661.414 L 470.143 1664.724 L 467.282 1668.026 L 464.406 1671.319 L 461.517 1674.603 L 458.613 1677.878 L 455.696 1681.144 L 452.765 1684.402 L 449.820 1687.651 L 446.861 1690.892 L 443.889 1694.124 L 440.903 1697.348 L 437.903 1700.563 L 434.890 1703.770 L 431.864 1706.968 L 428.825 1710.158 L 425.772 1713.340 L 422.706 1716.514 L 419.628 1719.680 L 416.536 1722.838 L 413.432 1725.987 L 410.315 1729.129 L 407.185 1732.263 L 404.043 1735.389 L 400.888 1738.507 L 397.721 1741.617 L 394.542 1744.720 L 391.350 1747.815 L 388.147 1750.903 L 384.931 1753.983 L 381.704 1757.056 L 378.465 1760.121 L 375.214 1763.180 L 371.952 1766.231 L 368.678 1769.275 L 365.393 1772.311 L 362.097 1775.341 L 358.790 1778.364 L 355.472 1781.380 L 352.143 1784.389 L 348.803 1787.392 L 345.452 1790.388 L 342.092 1793.377 L 338.720 1796.360 L 335.339 1799.336 L 331.947 1802.306 L 328.545 1805.270 L 325.133 1808.228 L 321.712 1811.179 L 318.281 1814.125 L 314.840 1817.064 L 311.390 1819.998 L 307.931 1822.926 L 304.463 1825.848 L 300.985 1828.764 L 297.499 1831.675 L 294.004 1834.581 L 290.500 1837.481 L 286.988 1840.376 L 283.468 1843.266 L 279.939 1846.150 L 276.403 1849.030 L 272.858 1851.904 L 269.306 1854.774 L 265.746 1857.639 L 262.178 1860.499 L 258.603 1863.355 L 255.021 1866.206 L 251.432 1869.053 L 247.836 1871.895 L 244.233 1874.733 L 240.624 1877.567 L 237.008 1880.397 L 233.385 1883.223 L 229.757 1886.045 L 226.122 1888.863 L 222.482 1891.678 L 218.836 1894.489 L 215.184 1897.297 L 211.527 1900.101 L 207.864 1902.902 L 204.197 1905.700 L 200.524 1908.494 L 196.847 1911.286 L 191.279 1915.500 Z" fill="#e4d4b5" stroke="#222" stroke-width="3.0"/>
<line x1="51.695" y1="1741.507" x2="838.784" y2="481.939" stroke="#2e8b57" stroke-width="3.0"/>
<path d="M 12.700 1803.910 L -57.034 1915.504 L 191.279 1915.500 L 193.165 1914.074 L 196.847 1911.286 L 200.524 1908.494 L 204.197 1905.700 L 207.864 1902.902 L 211.527 1900.101 L 215.184 1897.297 L 218.836 1894.489 L 222.482 1891.678 L 226.122 1888.863 L 229.757 1886.045 L 233.385 1883.223 L 237.008 1880.397 L 240.624 1877.567 L 244.233 1874.733 L 247.836 1871.895 L 251.432 1869.053 L 255.021 1866.206 L 258.603 1863.355 L 262.178 1860.499 L 265.746 1857.639 L 269.306 1854.774 L 272.858 1851.904 L 276.403 1849.030 L 279.939 1846.150 L 283.468 1843.266 L 286.988 1840.376 L 290.500 1837.481 L 294.004 1834.581 L 297.499 1831.675 L 300.985 1828.764 L 304.463 1825.848 L 307.931 1822.926 L 311.390 1819.998 L 314.840 1817.064 L 318.281 1814.125 L 321.712 1811.179 L 325.133 1808.228 L 328.545 1805.270 L 330.108 1803.910 Z" fill="#b89868" stroke="#6b4a2a" stroke-width="1.2" opacity="0.6"/>
<path d="M 51.700 1915.500 L 51.700 124.789 L 51.601 124.789 L 51.361 124.918 L 51.121 125.046 L 50.881 125.176 L 50.642 125.305 L 50.402 125.434 L 50.162 125.563 L 49.922 125.692 L 49.682 125.822 L 49.442 125.951 L 49.202 126.081 L 48.962 126.211 L 48.722 126.341 L 48.483 126.470 L 48.243 126.600 L 48.003 126.730 L 47.763 126.860 L 47.523 126.991 L 47.283 127.121 L 47.043 127.251 L 46.803 127.382 L 46.563 127.512 L 46.323 127.643 L 46.083 127.773 L 45.843 127.904 L 45.603 128.035 L 45.363 128.166 L 45.123 128.297 L 44.883 128.428 L 44.643 128.559 L 44.403 128.690 L 44.163 128.821 L 43.923 128.953 L 43.683 129.084 L 43.443 129.216 L 43.203 129.347 L 42.963 129.479 L 42.723 129.610 L 42.483 129.742 L 42.243 129.874 L 42.003 130.006 L 41.763 130.138 L 41.523 130.270 L 41.283 130.402 L 41.043 130.535 L 40.803 130.667 L 40.563 130.799 L 40.323 130.932 L 40.082 131.064 L 39.842 131.197 L 39.602 131.329 L 39.362 131.462 L 39.122 131.595 L 38.882 131.728 L 38.642 131.861 L 38.402 131.994 L 38.162 132.127 L 37.922 132.260 L 37.682 132.393 L 37.441 132.526 L 37.201 132.660 L 36.961 132.793 L 36.721 132.927 L 36.481 133.060 L 36.241 133.194 L 36.001 133.327 L 35.760 133.461 L 35.520 133.595 L 35.280 133.729 L 35.040 133.863 L 34.800 133.997 L 34.560 134.131 L 34.320 134.265 L 34.079 134.399 L 33.839 134.533 L 33.599 134.667 L 33.359 134.802 L 33.119 134.936 L 32.879 135.071 L 32.638 135.205 L 32.398 135.340 L 32.158 135.475 L 31.918 135.609 L 31.678 135.744 L 31.438 135.879 L 31.197 136.014 L 30.957 136.149 L 30.717 136.284 L 30.477 136.419 L 30.237 136.554 L 29.996 136.689 L 29.756 136.825 L 29.516 136.960 L 29.276 137.095 L 29.036 137.231 L 28.795 137.366 L 28.555 137.502 L 28.315 137.637 L 28.075 137.773 L 27.835 137.909 L 27.594 138.045 L 27.354 138.180 L 27.114 138.316 L 26.874 138.452 L 26.633 138.588 L 26.393 138.724 L 26.153 138.860 L 25.913 138.997 L 25.673 139.133 L 25.432 139.269 L 25.192 139.405 L 24.952 139.542 L 24.712 139.678 L 24.471 139.815 L 24.231 139.951 L 23.991 140.088 L 23.751 140.224 L 23.510 140.361 L 23.270 140.498 L 23.030 140.634 L 22.790 140.771 L 22.550 140.908 L 22.309 141.045 L 22.069 141.182 L 21.829 141.319 L 21.589 141.456 L 21.348 141.593 L 21.108 141.730 L 20.868 141.867 L 20.628 142.005 L 20.387 142.142 L 20.147 142.279 L 19.907 142.417 L 19.667 142.554 L 19.426 142.692 L 19.186 142.829 L 18.946 142.967 L 18.706 143.104 L 18.465 143.242 L 18.225 143.380 L 17.985 143.517 L 17.745 143.655 L 17.505 143.793 L 17.264 143.931 L 17.024 144.069 L 16.784 144.207 L 16.544 144.345 L 16.303 144.483 L 16.063 144.621 L 15.823 144.759 L 15.583 144.897 L 15.342 145.035 L 15.102 145.174 L 14.862 145.312 L 14.622 145.450 L 14.382 145.588 L 14.141 145.727 L 13.901 145.865 L 13.661 146.004 L 13.421 146.142 L 13.180 146.281 L 12.700 146.563 L 12.700 1915.500 Z" fill="#d4c59c" stroke="#222" stroke-width="1.2"/>
<line x1="-100" y1="1915.500" x2="1000" y2="1915.500" stroke="#4a7c2e" stroke-width="3.0" stroke-dasharray="8 4"/>
<circle cx="12.700" cy="1803.910" r="3" fill="#000"/>
<text x="18.700" y="1807.910" font-family="sans-serif" font-size="18" fill="#000">CO</text>
<circle cx="51.695" cy="1741.507" r="3" fill="#000"/>
<text x="57.695" y="1745.507" font-family="sans-serif" font-size="18" fill="#000">CI</text>
<circle cx="12.700" cy="146.563" r="3" fill="#000"/>
<text x="18.700" y="150.563" font-family="sans-serif" font-size="18" fill="#000">NT</text>
<circle cx="12.700" cy="323.844" r="3" fill="#000"/>
<text x="18.700" y="327.844" font-family="sans-serif" font-size="18" fill="#000">NB</text>
<circle cx="838.784" cy="481.939" r="3" fill="#000"/>
<text x="844.784" y="485.939" font-family="sans-serif" font-size="18" fill="#000">ST</text>
<circle cx="906.613" cy="481.939" r="3" fill="#000"/>
<text x="912.613" y="485.939" font-family="sans-serif" font-size="18" fill="#000">BT</text>
<circle cx="101.698" cy="1661.487" r="2" fill="#2e8b57"/>
<circle cx="119.633" cy="1632.787" r="2" fill="#2e8b57"/>
<circle cx="137.567" cy="1604.087" r="2" fill="#2e8b57"/>
<circle cx="155.509" cy="1575.375" r="2" fill="#2e8b57"/>
<circle cx="173.455" cy="1546.656" r="2" fill="#2e8b57"/>
<circle cx="191.389" cy="1517.956" r="2" fill="#2e8b57"/>
<circle cx="209.324" cy="1489.255" r="2" fill="#2e8b57"/>
<circle cx="227.259" cy="1460.554" r="2" fill="#2e8b57"/>
<circle cx="245.201" cy="1431.842" r="2" fill="#2e8b57"/>
<circle cx="263.135" cy="1403.142" r="2" fill="#2e8b57"/>
<circle cx="281.081" cy="1374.423" r="2" fill="#2e8b57"/>
<circle cx="299.016" cy="1345.723" r="2" fill="#2e8b57"/>
<circle cx="316.443" cy="1317.834" r="2" fill="#2e8b57"/>
<circle cx="333.858" cy="1289.965" r="2" fill="#2e8b57"/>
<circle cx="351.285" cy="1262.077" r="2" fill="#2e8b57"/>
<circle cx="368.712" cy="1234.189" r="2" fill="#2e8b57"/>
<circle cx="385.111" cy="1207.946" r="2" fill="#2e8b57"/>
<circle cx="401.522" cy="1181.683" r="2" fill="#2e8b57"/>
<circle cx="417.914" cy="1155.451" r="2" fill="#2e8b57"/>
<circle cx="433.298" cy="1130.833" r="2" fill="#2e8b57"/>
<circle cx="448.663" cy="1106.245" r="2" fill="#2e8b57"/>
<circle cx="464.039" cy="1081.639" r="2" fill="#2e8b57"/>
<circle cx="479.423" cy="1057.020" r="2" fill="#2e8b57"/>
<circle cx="494.799" cy="1032.414" r="2" fill="#2e8b57"/>
<circle cx="510.165" cy="1007.824" r="2" fill="#2e8b57"/>
<circle cx="525.540" cy="983.218" r="2" fill="#2e8b57"/>
<circle cx="539.890" cy="960.255" r="2" fill="#2e8b57"/>
<circle cx="554.239" cy="937.293" r="2" fill="#2e8b57"/>
<circle cx="568.588" cy="914.330" r="2" fill="#2e8b57"/>
<circle cx="582.937" cy="891.367" r="2" fill="#2e8b57"/>
<circle cx="597.286" cy="868.405" r="2" fill="#2e8b57"/>
<circle cx="611.636" cy="845.441" r="2" fill="#2e8b57"/>
<circle cx="625.985" cy="822.478" r="2" fill="#2e8b57"/>
<circle cx="639.318" cy="801.142" r="2" fill="#2e8b57"/>
<circle cx="652.644" cy="779.817" r="2" fill="#2e8b57"/>
<circle cx="665.966" cy="758.498" r="2" fill="#2e8b57"/>
<circle cx="679.299" cy="737.160" r="2" fill="#2e8b57"/>
<circle cx="692.614" cy="715.852" r="2" fill="#2e8b57"/>
<circle cx="705.947" cy="694.516" r="2" fill="#2e8b57"/>
<circle cx="719.274" cy="673.190" r="2" fill="#2e8b57"/>
<circle cx="732.595" cy="651.872" r="2" fill="#2e8b57"/>
<circle cx="745.929" cy="630.534" r="2" fill="#2e8b57"/>
<circle cx="759.244" cy="609.226" r="2" fill="#2e8b57"/>
<circle cx="772.577" cy="587.890" r="2" fill="#2e8b57"/>
<circle cx="785.891" cy="566.583" r="2" fill="#2e8b57"/>
<circle cx="799.224" cy="545.246" r="2" fill="#2e8b57"/>
<circle cx="812.546" cy="523.927" r="2" fill="#2e8b57"/>
<g transform="translate(51.9,81.27)"><path d="M -39.200,242.569 C -39.200,242.569 -13.070,242.569 -0.200,242.569 C 47.405,241.489 46.605,247.243 72.583,235.336 C 384.876,151.694 280.785,590.702 547.124,551.558 C 602.220,543.461 722.602,457.943 770.164,395.970 C 779.297,384.071 794.833,387.949 786.884,400.669 L 854.732,400.669 C 876.680,377.872 824.576,286.094 762.355,334.480 C 700.135,382.865 482.891,612.165 382.465,258.445 C 282.039,-95.275 120.944,-27.134 -39.200,65.288 C -39.740,164.730 -39.200,242.569 -39.200,242.569" fill="#c79568" fill-opacity="0.4" stroke="#8b4513" stroke-width="3.0"/></g>
<circle cx="112.800" cy="108.463" r="12.0" fill="none" stroke="#666" stroke-width="0.6"/>
<circle cx="112.800" cy="108.463" r="2" fill="#d46a3a" stroke="#000" stroke-width="0.3"/>
<circle cx="101.700" cy="311.844" r="12.0" fill="none" stroke="#666" stroke-width="0.6"/>
<circle cx="101.700" cy="311.844" r="2" fill="#d46a3a" stroke="#000" stroke-width="0.3"/>
<circle cx="130.732" cy="105.009" r="12.0" fill="none" stroke="#666" stroke-width="0.6"/>
<circle cx="130.732" cy="105.009" r="2" fill="#3a6fd4" stroke="#000" stroke-width="0.3"/>
<circle cx="119.632" cy="305.635" r="12.0" fill="none" stroke="#666" stroke-width="0.6"/>
<circle cx="119.632" cy="305.635" r="2" fill="#3a6fd4" stroke="#000" stroke-width="0.3"/>
<circle cx="148.665" cy="101.554" r="12.0" fill="none" stroke="#666" stroke-width="0.6"/>
<circle cx="148.665" cy="101.554" r="2" fill="#d46a3a" stroke="#000" stroke-width="0.3"/>
<circle cx="137.565" cy="299.426" r="12.0" fill="none" stroke="#666" stroke-width="0.6"/>
<circle cx="137.565" cy="299.426" r="2" fill="#d46a3a" stroke="#000" stroke-width="0.3"/>
<circle cx="166.623" cy="98.100" r="12.0" fill="none" stroke="#666" stroke-width="0.6"/>
<circle cx="166.623" cy="98.100" r="2" fill="#3a6fd4" stroke="#000" stroke-width="0.3"/>
<circle cx="155.523" cy="293.217" r="12.0" fill="none" stroke="#666" stroke-width="0.6"/>
<circle cx="155.523" cy="293.217" r="2" fill="#3a6fd4" stroke="#000" stroke-width="0.3"/>
<circle cx="182.555" cy="99.675" r="12.0" fill="none" stroke="#666" stroke-width="0.6"/>
<circle cx="182.555" cy="99.675" r="2" fill="#d46a3a" stroke="#000" stroke-width="0.3"/>
<circle cx="173.455" cy="291.486" r="12.0" fill="none" stroke="#666" stroke-width="0.6"/>
<circle cx="173.455" cy="291.486" r="2" fill="#d46a3a" stroke="#000" stroke-width="0.3"/>
<circle cx="200.487" cy="101.275" r="12.0" fill="none" stroke="#666" stroke-width="0.6"/>
<circle cx="200.487" cy="101.275" r="2" fill="#3a6fd4" stroke="#000" stroke-width="0.3"/>
<circle cx="191.387" cy="289.780" r="12.0" fill="none" stroke="#666" stroke-width="0.6"/>
<circle cx="191.387" cy="289.780" r="2" fill="#3a6fd4" stroke="#000" stroke-width="0.3"/>
<circle cx="218.420" cy="102.875" r="12.0" fill="none" stroke="#666" stroke-width="0.6"/>
<circle cx="218.420" cy="102.875" r="2" fill="#d46a3a" stroke="#000" stroke-width="0.3"/>
<circle cx="209.320" cy="288.074" r="12.0" fill="none" stroke="#666" stroke-width="0.6"/>
<circle cx="209.320" cy="288.074" r="2" fill="#d46a3a" stroke="#000" stroke-width="0.3"/>
<circle cx="236.352" cy="104.475" r="12.0" fill="none" stroke="#666" stroke-width="0.6"/>
<circle cx="236.352" cy="104.475" r="2" fill="#3a6fd4" stroke="#000" stroke-width="0.3"/>
<circle cx="227.252" cy="286.368" r="12.0" fill="none" stroke="#666" stroke-width="0.6"/>
<circle cx="227.252" cy="286.368" r="2" fill="#3a6fd4" stroke="#000" stroke-width="0.3"/>
<circle cx="254.310" cy="111.130" r="12.0" fill="none" stroke="#666" stroke-width="0.6"/>
<circle cx="254.310" cy="111.130" r="2" fill="#d46a3a" stroke="#000" stroke-width="0.3"/>
<circle cx="245.210" cy="289.166" r="12.0" fill="none" stroke="#666" stroke-width="0.6"/>
<circle cx="245.210" cy="289.166" r="2" fill="#d46a3a" stroke="#000" stroke-width="0.3"/>
<circle cx="272.242" cy="122.814" r="12.0" fill="none" stroke="#666" stroke-width="0.6"/>
<circle cx="272.242" cy="122.814" r="2" fill="#3a6fd4" stroke="#000" stroke-width="0.3"/>
<circle cx="263.142" cy="296.444" r="12.0" fill="none" stroke="#666" stroke-width="0.6"/>
<circle cx="263.142" cy="296.444" r="2" fill="#3a6fd4" stroke="#000" stroke-width="0.3"/>
<circle cx="290.175" cy="114.280" r="12.0" fill="none" stroke="#666" stroke-width="0.6"/>
<circle cx="290.175" cy="114.280" r="2" fill="#d46a3a" stroke="#000" stroke-width="0.3"/>
<circle cx="281.075" cy="285.707" r="12.0" fill="none" stroke="#666" stroke-width="0.6"/>
<circle cx="281.075" cy="285.707" r="2" fill="#d46a3a" stroke="#000" stroke-width="0.3"/>
<circle cx="308.107" cy="120.935" r="12.0" fill="none" stroke="#666" stroke-width="0.6"/>
<circle cx="308.107" cy="120.935" r="2" fill="#3a6fd4" stroke="#000" stroke-width="0.3"/>
<circle cx="299.007" cy="288.504" r="12.0" fill="none" stroke="#666" stroke-width="0.6"/>
<circle cx="299.007" cy="288.504" r="2" fill="#3a6fd4" stroke="#000" stroke-width="0.3"/>
<circle cx="325.532" cy="168.788" r="12.0" fill="none" stroke="#666" stroke-width="0.6"/>
<circle cx="325.532" cy="168.788" r="2" fill="#d46a3a" stroke="#000" stroke-width="0.3"/>
<circle cx="316.432" cy="328.094" r="12.0" fill="none" stroke="#666" stroke-width="0.6"/>
<circle cx="316.432" cy="328.094" r="2" fill="#d46a3a" stroke="#000" stroke-width="0.3"/>
<circle cx="342.956" cy="196.474" r="12.0" fill="none" stroke="#666" stroke-width="0.6"/>
<circle cx="342.956" cy="196.474" r="2" fill="#3a6fd4" stroke="#000" stroke-width="0.3"/>
<circle cx="333.856" cy="349.719" r="12.0" fill="none" stroke="#666" stroke-width="0.6"/>
<circle cx="333.856" cy="349.719" r="2" fill="#3a6fd4" stroke="#000" stroke-width="0.3"/>
<circle cx="360.380" cy="234.219" r="12.0" fill="none" stroke="#666" stroke-width="0.6"/>
<circle cx="360.380" cy="234.219" r="2" fill="#d46a3a" stroke="#000" stroke-width="0.3"/>
<circle cx="351.280" cy="380.303" r="12.0" fill="none" stroke="#666" stroke-width="0.6"/>
<circle cx="351.280" cy="380.303" r="2" fill="#d46a3a" stroke="#000" stroke-width="0.3"/>
<circle cx="377.805" cy="271.988" r="12.0" fill="none" stroke="#666" stroke-width="0.6"/>
<circle cx="377.805" cy="271.988" r="2" fill="#3a6fd4" stroke="#000" stroke-width="0.3"/>
<circle cx="368.705" cy="410.909" r="12.0" fill="none" stroke="#666" stroke-width="0.6"/>
<circle cx="368.705" cy="410.909" r="2" fill="#3a6fd4" stroke="#000" stroke-width="0.3"/>
<circle cx="394.213" cy="306.355" r="12.0" fill="none" stroke="#666" stroke-width="0.6"/>
<circle cx="394.213" cy="306.355" r="2" fill="#d46a3a" stroke="#000" stroke-width="0.3"/>
<circle cx="385.113" cy="438.664" r="12.0" fill="none" stroke="#666" stroke-width="0.6"/>
<circle cx="385.113" cy="438.664" r="2" fill="#d46a3a" stroke="#000" stroke-width="0.3"/>
<circle cx="410.622" cy="350.779" r="12.0" fill="none" stroke="#666" stroke-width="0.6"/>
<circle cx="410.622" cy="350.779" r="2" fill="#3a6fd4" stroke="#000" stroke-width="0.3"/>
<circle cx="401.522" cy="475.376" r="12.0" fill="none" stroke="#666" stroke-width="0.6"/>
<circle cx="401.522" cy="475.376" r="2" fill="#3a6fd4" stroke="#000" stroke-width="0.3"/>
<circle cx="427.005" cy="385.145" r="12.0" fill="none" stroke="#666" stroke-width="0.6"/>
<circle cx="427.005" cy="385.145" r="2" fill="#d46a3a" stroke="#000" stroke-width="0.3"/>
<circle cx="417.905" cy="503.130" r="12.0" fill="none" stroke="#666" stroke-width="0.6"/>
<circle cx="417.905" cy="503.130" r="2" fill="#d46a3a" stroke="#000" stroke-width="0.3"/>
<circle cx="442.397" cy="426.166" r="12.0" fill="none" stroke="#666" stroke-width="0.6"/>
<circle cx="442.397" cy="426.166" r="2" fill="#3a6fd4" stroke="#000" stroke-width="0.3"/>
<circle cx="433.297" cy="536.990" r="12.0" fill="none" stroke="#666" stroke-width="0.6"/>
<circle cx="433.297" cy="536.990" r="2" fill="#3a6fd4" stroke="#000" stroke-width="0.3"/>
<circle cx="457.764" cy="447.020" r="12.0" fill="none" stroke="#666" stroke-width="0.6"/>
<circle cx="457.764" cy="447.020" r="2" fill="#d46a3a" stroke="#000" stroke-width="0.3"/>
<circle cx="448.664" cy="552.886" r="12.0" fill="none" stroke="#666" stroke-width="0.6"/>
<circle cx="448.664" cy="552.886" r="2" fill="#d46a3a" stroke="#000" stroke-width="0.3"/>
<circle cx="473.131" cy="472.928" r="12.0" fill="none" stroke="#666" stroke-width="0.6"/>
<circle cx="473.131" cy="472.928" r="2" fill="#3a6fd4" stroke="#000" stroke-width="0.3"/>
<circle cx="464.031" cy="573.282" r="12.0" fill="none" stroke="#666" stroke-width="0.6"/>
<circle cx="464.031" cy="573.282" r="2" fill="#3a6fd4" stroke="#000" stroke-width="0.3"/>
<circle cx="488.523" cy="493.756" r="12.0" fill="none" stroke="#666" stroke-width="0.6"/>
<circle cx="488.523" cy="493.756" r="2" fill="#d46a3a" stroke="#000" stroke-width="0.3"/>
<circle cx="479.423" cy="589.153" r="12.0" fill="none" stroke="#666" stroke-width="0.6"/>
<circle cx="479.423" cy="589.153" r="2" fill="#d46a3a" stroke="#000" stroke-width="0.3"/>
<circle cx="503.890" cy="509.529" r="12.0" fill="none" stroke="#666" stroke-width="0.6"/>
<circle cx="503.890" cy="509.529" r="2" fill="#3a6fd4" stroke="#000" stroke-width="0.3"/>
<circle cx="494.790" cy="600.520" r="12.0" fill="none" stroke="#666" stroke-width="0.6"/>
<circle cx="494.790" cy="600.520" r="2" fill="#3a6fd4" stroke="#000" stroke-width="0.3"/>
<circle cx="519.257" cy="520.299" r="12.0" fill="none" stroke="#666" stroke-width="0.6"/>
<circle cx="519.257" cy="520.299" r="2" fill="#d46a3a" stroke="#000" stroke-width="0.3"/>
<circle cx="510.157" cy="607.432" r="12.0" fill="none" stroke="#666" stroke-width="0.6"/>
<circle cx="510.157" cy="607.432" r="2" fill="#d46a3a" stroke="#000" stroke-width="0.3"/>
<circle cx="534.624" cy="531.043" r="12.0" fill="none" stroke="#666" stroke-width="0.6"/>
<circle cx="534.624" cy="531.043" r="2" fill="#3a6fd4" stroke="#000" stroke-width="0.3"/>
<circle cx="525.524" cy="614.319" r="12.0" fill="none" stroke="#666" stroke-width="0.6"/>
<circle cx="525.524" cy="614.319" r="2" fill="#3a6fd4" stroke="#000" stroke-width="0.3"/>
<circle cx="548.975" cy="538.384" r="12.0" fill="none" stroke="#666" stroke-width="0.6"/>
<circle cx="548.975" cy="538.384" r="2" fill="#d46a3a" stroke="#000" stroke-width="0.3"/>
<circle cx="539.875" cy="618.354" r="12.0" fill="none" stroke="#666" stroke-width="0.6"/>
<circle cx="539.875" cy="618.354" r="2" fill="#d46a3a" stroke="#000" stroke-width="0.3"/>
<circle cx="563.326" cy="545.699" r="12.0" fill="none" stroke="#666" stroke-width="0.6"/>
<circle cx="563.326" cy="545.699" r="2" fill="#3a6fd4" stroke="#000" stroke-width="0.3"/>
<circle cx="554.226" cy="622.365" r="12.0" fill="none" stroke="#666" stroke-width="0.6"/>
<circle cx="554.226" cy="622.365" r="2" fill="#3a6fd4" stroke="#000" stroke-width="0.3"/>
<circle cx="577.677" cy="547.985" r="12.0" fill="none" stroke="#666" stroke-width="0.6"/>
<circle cx="577.677" cy="547.985" r="2" fill="#d46a3a" stroke="#000" stroke-width="0.3"/>
<circle cx="568.577" cy="621.897" r="12.0" fill="none" stroke="#666" stroke-width="0.6"/>
<circle cx="568.577" cy="621.897" r="2" fill="#d46a3a" stroke="#000" stroke-width="0.3"/>
<circle cx="592.028" cy="550.271" r="12.0" fill="none" stroke="#666" stroke-width="0.6"/>
<circle cx="592.028" cy="550.271" r="2" fill="#3a6fd4" stroke="#000" stroke-width="0.3"/>
<circle cx="582.928" cy="621.428" r="12.0" fill="none" stroke="#666" stroke-width="0.6"/>
<circle cx="582.928" cy="621.428" r="2" fill="#3a6fd4" stroke="#000" stroke-width="0.3"/>
<circle cx="606.379" cy="552.557" r="12.0" fill="none" stroke="#666" stroke-width="0.6"/>
<circle cx="606.379" cy="552.557" r="2" fill="#d46a3a" stroke="#000" stroke-width="0.3"/>
<circle cx="597.279" cy="620.960" r="12.0" fill="none" stroke="#666" stroke-width="0.6"/>
<circle cx="597.279" cy="620.960" r="2" fill="#d46a3a" stroke="#000" stroke-width="0.3"/>
<circle cx="620.730" cy="544.734" r="12.0" fill="none" stroke="#666" stroke-width="0.6"/>
<circle cx="620.730" cy="544.734" r="2" fill="#3a6fd4" stroke="#000" stroke-width="0.3"/>
<circle cx="611.630" cy="611.485" r="12.0" fill="none" stroke="#666" stroke-width="0.6"/>
<circle cx="611.630" cy="611.485" r="2" fill="#3a6fd4" stroke="#000" stroke-width="0.3"/>
<circle cx="635.081" cy="547.020" r="12.0" fill="none" stroke="#666" stroke-width="0.6"/>
<circle cx="635.081" cy="547.020" r="2" fill="#d46a3a" stroke="#000" stroke-width="0.3"/>
<circle cx="625.981" cy="611.016" r="12.0" fill="none" stroke="#666" stroke-width="0.6"/>
<circle cx="625.981" cy="611.016" r="2" fill="#d46a3a" stroke="#000" stroke-width="0.3"/>
<circle cx="648.416" cy="540.847" r="12.0" fill="none" stroke="#666" stroke-width="0.6"/>
<circle cx="648.416" cy="540.847" r="2" fill="#3a6fd4" stroke="#000" stroke-width="0.3"/>
<circle cx="639.316" cy="603.189" r="12.0" fill="none" stroke="#666" stroke-width="0.6"/>
<circle cx="639.316" cy="603.189" r="2" fill="#3a6fd4" stroke="#000" stroke-width="0.3"/>
<circle cx="661.726" cy="534.675" r="12.0" fill="none" stroke="#666" stroke-width="0.6"/>
<circle cx="661.726" cy="534.675" r="2" fill="#d46a3a" stroke="#000" stroke-width="0.3"/>
<circle cx="652.626" cy="595.363" r="12.0" fill="none" stroke="#666" stroke-width="0.6"/>
<circle cx="652.626" cy="595.363" r="2" fill="#d46a3a" stroke="#000" stroke-width="0.3"/>
<circle cx="675.061" cy="528.503" r="12.0" fill="none" stroke="#666" stroke-width="0.6"/>
<circle cx="675.061" cy="528.503" r="2" fill="#3a6fd4" stroke="#000" stroke-width="0.3"/>
<circle cx="665.961" cy="587.539" r="12.0" fill="none" stroke="#666" stroke-width="0.6"/>
<circle cx="665.961" cy="587.539" r="2" fill="#3a6fd4" stroke="#000" stroke-width="0.3"/>
<circle cx="688.396" cy="522.331" r="12.0" fill="none" stroke="#666" stroke-width="0.6"/>
<circle cx="688.396" cy="522.331" r="2" fill="#d46a3a" stroke="#000" stroke-width="0.3"/>
<circle cx="679.296" cy="579.713" r="12.0" fill="none" stroke="#666" stroke-width="0.6"/>
<circle cx="679.296" cy="579.713" r="2" fill="#d46a3a" stroke="#000" stroke-width="0.3"/>
<circle cx="701.706" cy="516.159" r="12.0" fill="none" stroke="#666" stroke-width="0.6"/>
<circle cx="701.706" cy="516.159" r="2" fill="#3a6fd4" stroke="#000" stroke-width="0.3"/>
<circle cx="692.606" cy="571.889" r="12.0" fill="none" stroke="#666" stroke-width="0.6"/>
<circle cx="692.606" cy="571.889" r="2" fill="#3a6fd4" stroke="#000" stroke-width="0.3"/>
<circle cx="715.041" cy="509.986" r="12.0" fill="none" stroke="#666" stroke-width="0.6"/>
<circle cx="715.041" cy="509.986" r="2" fill="#d46a3a" stroke="#000" stroke-width="0.3"/>
<circle cx="705.941" cy="564.062" r="12.0" fill="none" stroke="#666" stroke-width="0.6"/>
<circle cx="705.941" cy="564.062" r="2" fill="#d46a3a" stroke="#000" stroke-width="0.3"/>
<circle cx="728.350" cy="503.789" r="12.0" fill="none" stroke="#666" stroke-width="0.6"/>
<circle cx="728.350" cy="503.789" r="2" fill="#3a6fd4" stroke="#000" stroke-width="0.3"/>
<circle cx="719.250" cy="556.213" r="12.0" fill="none" stroke="#666" stroke-width="0.6"/>
<circle cx="719.250" cy="556.213" r="2" fill="#3a6fd4" stroke="#000" stroke-width="0.3"/>
<circle cx="741.685" cy="492.587" r="12.0" fill="none" stroke="#666" stroke-width="0.6"/>
<circle cx="741.685" cy="492.587" r="2" fill="#d46a3a" stroke="#000" stroke-width="0.3"/>
<circle cx="732.585" cy="543.908" r="12.0" fill="none" stroke="#666" stroke-width="0.6"/>
<circle cx="732.585" cy="543.908" r="2" fill="#d46a3a" stroke="#000" stroke-width="0.3"/>
<circle cx="755.020" cy="481.335" r="12.0" fill="none" stroke="#666" stroke-width="0.6"/>
<circle cx="755.020" cy="481.335" r="2" fill="#3a6fd4" stroke="#000" stroke-width="0.3"/>
<circle cx="745.920" cy="531.556" r="12.0" fill="none" stroke="#666" stroke-width="0.6"/>
<circle cx="745.920" cy="531.556" r="2" fill="#3a6fd4" stroke="#000" stroke-width="0.3"/>
<circle cx="768.330" cy="470.134" r="12.0" fill="none" stroke="#666" stroke-width="0.6"/>
<circle cx="768.330" cy="470.134" r="2" fill="#d46a3a" stroke="#000" stroke-width="0.3"/>
<circle cx="759.230" cy="519.252" r="12.0" fill="none" stroke="#666" stroke-width="0.6"/>
<circle cx="759.230" cy="519.252" r="2" fill="#d46a3a" stroke="#000" stroke-width="0.3"/>
<circle cx="781.665" cy="458.882" r="12.0" fill="none" stroke="#666" stroke-width="0.6"/>
<circle cx="781.665" cy="458.882" r="2" fill="#3a6fd4" stroke="#000" stroke-width="0.3"/>
<circle cx="772.565" cy="506.900" r="12.0" fill="none" stroke="#666" stroke-width="0.6"/>
<circle cx="772.565" cy="506.900" r="2" fill="#3a6fd4" stroke="#000" stroke-width="0.3"/>
<circle cx="794.974" cy="447.680" r="12.0" fill="none" stroke="#666" stroke-width="0.6"/>
<circle cx="794.974" cy="447.680" r="2" fill="#d46a3a" stroke="#000" stroke-width="0.3"/>
<circle cx="785.874" cy="494.595" r="12.0" fill="none" stroke="#666" stroke-width="0.6"/>
<circle cx="785.874" cy="494.595" r="2" fill="#d46a3a" stroke="#000" stroke-width="0.3"/>
<circle cx="808.309" cy="436.453" r="12.0" fill="none" stroke="#666" stroke-width="0.6"/>
<circle cx="808.309" cy="436.453" r="2" fill="#3a6fd4" stroke="#000" stroke-width="0.3"/>
<circle cx="799.209" cy="482.265" r="12.0" fill="none" stroke="#666" stroke-width="0.6"/>
<circle cx="799.209" cy="482.265" r="2" fill="#3a6fd4" stroke="#000" stroke-width="0.3"/>
<circle cx="821.644" cy="425.227" r="12.0" fill="none" stroke="#666" stroke-width="0.6"/>
<circle cx="821.644" cy="425.227" r="2" fill="#d46a3a" stroke="#000" stroke-width="0.3"/>
<circle cx="812.544" cy="469.939" r="12.0" fill="none" stroke="#666" stroke-width="0.6"/>
<circle cx="812.544" cy="469.939" r="2" fill="#d46a3a" stroke="#000" stroke-width="0.3"/>
</svg>