<?xml version="1.0" encoding="UTF-8"?>
<svg xmlns="http://www.w3.org/2000/svg" viewBox="-240 -1020 480 1240" preserveAspectRatio="xMidYMid meet">
<title>Top view (rotated)</title>
<rect x="-240" y="-1020" width="480" height="1240" fill="#fff"/>
<g transform="rotate(-90)">
<path d="M 9.582 99.149 L 12.150 100.063 L 14.718 100.976 L 17.285 101.888 L 19.852 102.798 L 22.418 103.707 L 24.984 104.615 L 27.549 105.521 L 30.113 106.426 L 32.677 107.328 L 35.241 108.229 L 37.803 109.128 L 40.365 110.026 L 42.926 110.921 L 45.486 111.813 L 48.045 112.704 L 50.603 113.592 L 53.160 114.478 L 55.717 115.361 L 58.272 116.242 L 60.826 117.120 L 63.379 117.995 L 65.931 118.867 L 68.482 119.736 L 71.032 120.602 L 73.580 121.464 L 76.127 122.324 L 78.673 123.180 L 81.218 124.033 L 83.761 124.882 L 86.303 125.727 L 88.843 126.569 L 91.382 127.407 L 93.919 128.241 L 96.455 129.071 L 98.989 129.897 L 101.522 130.719 L 104.053 131.536 L 106.582 132.349 L 109.110 133.158 L 111.636 133.963 L 114.160 134.762 L 116.683 135.557 L 119.203 136.348 L 121.722 137.133 L 124.239 137.914 L 126.753 138.689 L 129.266 139.460 L 131.777 140.225 L 134.286 140.985 L 136.793 141.740 L 139.298 142.489 L 141.800 143.233 L 144.301 143.971 L 146.799 144.704 L 149.295 145.431 L 151.789 146.152 L 154.281 146.868 L 156.770 147.577 L 159.257 148.280 L 161.742 148.978 L 164.225 149.669 L 166.705 150.354 L 169.182 151.033 L 171.657 151.705 L 174.130 152.371 L 176.600 153.030 L 179.067 153.683 L 181.532 154.329 L 183.995 154.969 L 186.455 155.601 L 188.912 156.227 L 191.366 156.846 L 193.818 157.458 L 196.267 158.063 L 198.714 158.661 L 201.157 159.251 L 203.598 159.835 L 206.036 160.411 L 208.472 160.980 L 210.904 161.541 L 213.334 162.095 L 215.760 162.641 L 218.184 163.180 L 220.605 163.711 L 223.022 164.235 L 225.437 164.751 L 227.849 165.259 L 230.258 165.759 L 232.663 166.251 L 235.066 166.735 L 237.466 167.212 L 239.862 167.680 L 242.256 168.140 L 244.646 168.592 L 247.033 169.036 L 249.417 169.471 L 251.798 169.899 L 254.175 170.317 L 256.549 170.728 L 258.920 171.130 L 261.288 171.524 L 263.653 171.909 L 266.014 172.285 L 268.372 172.653 L 270.726 173.013 L 273.078 173.364 L 275.425 173.706 L 277.770 174.039 L 280.111 174.364 L 282.449 174.679 L 284.783 174.986 L 287.114 175.284 L 289.442 175.573 L 291.766 175.854 L 294.087 176.125 L 296.404 176.387 L 298.717 176.641 L 301.028 176.885 L 303.334 177.120 L 305.638 177.346 L 307.937 177.563 L 310.234 177.771 L 312.526 177.970 L 314.816 178.159 L 317.101 178.340 L 319.383 178.511 L 321.662 178.673 L 323.937 178.825 L 326.208 178.969 L 328.476 179.103 L 330.740 179.228 L 333.001 179.343 L 335.258 179.449 L 337.511 179.546 L 339.761 179.634 L 342.008 179.712 L 344.250 179.781 L 346.489 179.840 L 348.725 179.890 L 350.957 179.931 L 353.185 179.962 L 355.409 179.984 L 357.630 179.997 L 359.848 180.000 L 362.062 179.995 L 364.274 179.983 L 366.483 179.964 L 368.689 179.938 L 370.892 179.905 L 373.093 179.865 L 375.291 179.818 L 377.486 179.763 L 379.679 179.702 L 381.868 179.633 L 384.055 179.558 L 386.240 179.475 L 388.421 179.385 L 390.600 179.288 L 392.776 179.184 L 394.950 179.074 L 397.121 178.956 L 399.289 178.831 L 401.454 178.699 L 403.617 178.560 L 405.777 178.414 L 407.934 178.261 L 410.088 178.101 L 412.240 177.934 L 414.389 177.760 L 416.536 177.579 L 418.680 177.392 L 420.821 177.197 L 422.960 176.996 L 425.096 176.787 L 427.229 176.572 L 429.360 176.350 L 431.488 176.121 L 433.613 175.886 L 435.736 175.643 L 437.856 175.394 L 439.974 175.138 L 442.089 174.875 L 444.201 174.606 L 446.311 174.330 L 448.418 174.047 L 450.523 173.758 L 452.625 173.462 L 454.725 173.160 L 456.822 172.851 L 458.917 172.535 L 461.009 172.213 L 463.098 171.884 L 465.186 171.549 L 467.270 171.208 L 469.352 170.860 L 471.432 170.505 L 473.509 170.145 L 475.584 169.778 L 477.657 169.404 L 479.727 169.025 L 481.794 168.639 L 483.859 168.247 L 485.922 167.849 L 487.983 167.444 L 490.041 167.034 L 492.096 166.617 L 494.150 166.195 L 496.201 165.766 L 498.250 165.332 L 500.296 164.891 L 502.341 164.445 L 504.382 163.992 L 506.422 163.534 L 508.460 163.070 L 510.495 162.600 L 512.528 162.125 L 514.559 161.644 L 516.588 161.157 L 518.614 160.664 L 520.638 160.166 L 522.661 159.663 L 524.681 159.154 L 526.699 158.639 L 528.715 158.119 L 530.729 157.594 L 532.740 157.063 L 534.750 156.527 L 536.758 155.986 L 538.764 155.440 L 540.767 154.888 L 542.769 154.332 L 544.769 153.770 L 546.767 153.203 L 548.763 152.631 L 550.757 152.054 L 552.749 151.473 L 554.739 150.886 L 556.728 150.295 L 558.714 149.699 L 560.699 149.098 L 562.682 148.493 L 564.663 147.883 L 566.643 147.268 L 568.621 146.649 L 570.597 146.025 L 572.571 145.397 L 574.543 144.765 L 576.514 144.128 L 578.484 143.487 L 580.451 142.842 L 582.417 142.192 L 584.382 141.539 L 586.345 140.881 L 588.306 140.220 L 590.266 139.554 L 592.224 138.884 L 594.181 138.211 L 596.137 137.534 L 598.091 136.853 L 600.043 136.168 L 601.994 135.480 L 603.944 134.788 L 605.892 134.093 L 607.839 133.394 L 609.785 132.692 L 611.729 131.986 L 613.673 131.277 L 615.614 130.565 L 617.555 129.849 L 619.494 129.131 L 621.433 128.409 L 623.370 127.684 L 625.306 126.957 L 627.240 126.226 L 629.174 125.493 L 631.107 124.756 L 633.038 124.017 L 634.969 123.276 L 636.898 122.531 L 638.827 121.785 L 640.754 121.035 L 642.681 120.283 L 644.607 119.529 L 646.532 118.773 L 648.456 118.014 L 650.379 117.253 L 652.301 116.489 L 654.222 115.724 L 656.143 114.957 L 658.063 114.188 L 659.982 113.416 L 661.900 112.643 L 663.818 111.868 L 665.735 111.092 L 667.652 110.314 L 669.568 109.534 L 671.483 108.752 L 673.397 107.970 L 675.312 107.185 L 677.225 106.400 L 679.138 105.613 L 681.051 104.825 L 682.963 104.035 L 684.875 103.245 L 686.786 102.453 L 688.697 101.661 L 690.608 100.867 L 692.518 100.073 L 694.428 99.278 L 696.338 98.482 L 698.247 97.686 L 700.156 96.889 L 702.065 96.091 L 703.974 95.293 L 705.883 94.495 L 707.791 93.696 L 709.700 92.897 L 711.608 92.097 L 713.516 91.298 L 715.425 90.498 L 717.333 89.698 L 719.241 88.899 L 721.149 88.099 L 723.058 87.300 L 724.966 86.501 L 726.874 85.702 L 728.783 84.903 L 730.692 84.105 L 732.601 83.307 L 734.510 82.510 L 736.419 81.713 L 738.329 80.917 L 740.239 80.122 L 742.149 79.328 L 744.060 78.534 L 745.970 77.741 L 747.882 76.950 L 749.793 76.159 L 751.705 75.369 L 753.618 74.581 L 755.531 73.794 L 757.444 73.008 L 759.358 72.223 L 761.273 71.440 L 763.188 70.658 L 765.104 69.878 L 767.020 69.099 L 768.937 68.322 L 770.855 67.547 L 772.773 66.774 L 774.692 66.002 L 776.612 65.232 L 778.532 64.464 L 780.453 63.699 L 782.375 62.935 L 784.298 62.173 L 786.222 61.414 L 788.146 60.657 L 790.072 59.902 L 791.998 59.149 L 793.926 58.399 L 795.854 57.652 L 797.783 56.907 L 799.713 56.165 L 801.645 55.425 L 803.577 54.688 L 805.511 53.954 L 807.445 53.223 L 809.381 52.494 L 811.318 51.769 L 813.255 51.046 L 815.195 50.327 L 817.135 49.611 L 819.077 48.898 L 821.019 48.188 L 822.963 47.481 L 824.909 46.778 L 826.855 46.079 L 828.804 45.382 L 830.753 44.690 L 832.704 44.000 L 834.656 43.315 L 836.609 42.633 L 838.564 41.955 L 840.521 41.281 L 842.479 40.610 L 844.438 39.944 L 846.399 39.281 L 848.362 38.623 L 850.326 37.968 L 852.292 37.318 L 854.259 36.671 L 856.228 36.029 L 858.198 35.391 L 860.171 34.758 L 862.144 34.129 L 864.120 33.504 L 866.097 32.884 L 868.076 32.268 L 870.057 31.657 L 870.057 -31.657 L 868.076 -32.268 L 866.097 -32.884 L 864.120 -33.504 L 862.144 -34.129 L 860.171 -34.758 L 858.198 -35.391 L 856.228 -36.029 L 854.259 -36.671 L 852.292 -37.318 L 850.326 -37.968 L 848.362 -38.623 L 846.399 -39.281 L 844.438 -39.944 L 842.479 -40.610 L 840.521 -41.281 L 838.564 -41.955 L 836.609 -42.633 L 834.656 -43.315 L 832.704 -44.000 L 830.753 -44.690 L 828.804 -45.382 L 826.855 -46.079 L 824.909 -46.778 L 822.963 -47.481 L 821.019 -48.188 L 819.077 -48.898 L 817.135 -49.611 L 815.195 -50.327 L 813.255 -51.046 L 811.318 -51.769 L 809.381 -52.494 L 807.445 -53.223 L 805.511 -53.954 L 803.577 -54.688 L 801.645 -55.425 L 799.713 -56.165 L 797.783 -56.907 L 795.854 -57.652 L 793.926 -58.399 L 791.998 -59.149 L 790.072 -59.902 L 788.146 -60.657 L 786.222 -61.414 L 784.298 -62.173 L 782.375 -62.935 L 780.453 -63.699 L 778.532 -64.464 L 776.612 -65.232 L 774.692 -66.002 L 772.773 -66.774 L 770.855 -67.547 L 768.937 -68.322 L 767.020 -69.099 L 765.104 -69.878 L 763.188 -70.658 L 761.273 -71.440 L 759.358 -72.223 L 757.444 -73.008 L 755.531 -73.794 L 753.618 -74.581 L 751.705 -75.369 L 749.793 -76.159 L 747.882 -76.950 L 745.970 -77.741 L 744.060 -78.534 L 742.149 -79.328 L 740.239 -80.122 L 738.329 -80.917 L 736.419 -81.713 L 734.510 -82.510 L 732.601 -83.307 L 730.692 -84.105 L 728.783 -84.903 L 726.874 -85.702 L 724.966 -86.501 L 723.058 -87.300 L 721.149 -88.099 L 719.241 -88.899 L 717.333 -89.698 L 715.425 -90.498 L 713.516 -91.298 L 711.608 -92.097 L 709.700 -92.897 L 707.791 -93.696 L 705.883 -94.495 L 703.974 -95.293 L 702.065 -96.091 L 700.156 -96.889 L 698.247 -97.686 L 696.338 -98.482 L 694.428 -99.278 L 692.518 -100.073 L 690.608 -100.867 L 688.697 -101.661 L 686.786 -102.453 L 684.875 -103.245 L 682.963 -104.035 L 681.051 -104.825 L 679.138 -105.613 L 677.225 -106.400 L 675.312 -107.185 L 673.397 -107.970 L 671.483 -108.752 L 669.568 -109.534 L 667.652 -110.314 L 665.735 -111.092 L 663.818 -111.868 L 661.900 -112.643 L 659.982 -113.416 L 658.063 -114.188 L 656.143 -114.957 L 654.222 -115.724 L 652.301 -116.489 L 650.379 -117.253 L 648.456 -118.014 L 646.532 -118.773 L 644.607 -119.529 L 642.681 -120.283 L 640.754 -121.035 L 638.827 -121.785 L 636.898 -122.531 L 634.969 -123.276 L 633.038 -124.017 L 631.107 -124.756 L 629.174 -125.493 L 627.240 -126.226 L 625.306 -126.957 L 623.370 -127.684 L 621.433 -128.409 L 619.494 -129.131 L 617.555 -129.849 L 615.614 -130.565 L 613.673 -131.277 L 611.729 -131.986 L 609.785 -132.692 L 607.839 -133.394 L 605.892 -134.093 L 603.944 -134.788 L 601.994 -135.480 L 600.043 -136.168 L 598.091 -136.853 L 596.137 -137.534 L 594.181 -138.211 L 592.224 -138.884 L 590.266 -139.554 L 588.306 -140.220 L 586.345 -140.881 L 584.382 -141.539 L 582.417 -142.192 L 580.451 -142.842 L 578.484 -143.487 L 576.514 -144.128 L 574.543 -144.765 L 572.571 -145.397 L 570.597 -146.025 L 568.621 -146.649 L 566.643 -147.268 L 564.663 -147.883 L 562.682 -148.493 L 560.699 -149.098 L 558.714 -149.699 L 556.728 -150.295 L 554.739 -150.886 L 552.749 -151.473 L 550.757 -152.054 L 548.763 -152.631 L 546.767 -153.203 L 544.769 -153.770 L 542.769 -154.332 L 540.767 -154.888 L 538.764 -155.440 L 536.758 -155.986 L 534.750 -156.527 L 532.740 -157.063 L 530.729 -157.594 L 528.715 -158.119 L 526.699 -158.639 L 524.681 -159.154 L 522.661 -159.663 L 520.638 -160.166 L 518.614 -160.664 L 516.588 -161.157 L 514.559 -161.644 L 512.528 -162.125 L 510.495 -162.600 L 508.460 -163.070 L 506.422 -163.534 L 504.382 -163.992 L 502.341 -164.445 L 500.296 -164.891 L 498.250 -165.332 L 496.201 -165.766 L 494.150 -166.195 L 492.096 -166.617 L 490.041 -167.034 L 487.983 -167.444 L 485.922 -167.849 L 483.859 -168.247 L 481.794 -168.639 L 479.727 -169.025 L 477.657 -169.404 L 475.584 -169.778 L 473.509 -170.145 L 471.432 -170.505 L 469.352 -170.860 L 467.270 -171.208 L 465.186 -171.549 L 463.098 -171.884 L 461.009 -172.213 L 458.917 -172.535 L 456.822 -172.851 L 454.725 -173.160 L 452.625 -173.462 L 450.523 -173.758 L 448.418 -174.047 L 446.311 -174.330 L 444.201 -174.606 L 442.089 -174.875 L 439.974 -175.138 L 437.856 -175.394 L 435.736 -175.643 L 433.613 -175.886 L 431.488 -176.121 L 429.360 -176.350 L 427.229 -176.572 L 425.096 -176.787 L 422.960 -176.996 L 420.821 -177.197 L 418.680 -177.392 L 416.536 -177.579 L 414.389 -177.760 L 412.240 -177.934 L 410.088 -178.101 L 407.934 -178.261 L 405.777 -178.414 L 403.617 -178.560 L 401.454 -178.699 L 399.289 -178.831 L 397.121 -178.956 L 394.950 -179.074 L 392.776 -179.184 L 390.600 -179.288 L 388.421 -179.385 L 386.240 -179.475 L 384.055 -179.558 L 381.868 -179.633 L 379.679 -179.702 L 377.486 -179.763 L 375.291 -179.818 L 373.093 -179.865 L 370.892 -179.905 L 368.689 -179.938 L 366.483 -179.964 L 364.274 -179.983 L 362.062 -179.995 L 359.848 -180.000 L 357.630 -179.997 L 355.409 -179.984 L 353.185 -179.962 L 350.957 -179.931 L 348.725 -179.890 L 346.489 -179.840 L 344.250 -179.781 L 342.008 -179.712 L 339.761 -179.634 L 337.511 -179.546 L 335.258 -179.449 L 333.001 -179.343 L 330.740 -179.228 L 328.476 -179.103 L 326.208 -178.969 L 323.937 -178.825 L 321.662 -178.673 L 319.383 -178.511 L 317.101 -178.340 L 314.816 -178.159 L 312.526 -177.970 L 310.234 -177.771 L 307.937 -177.563 L 305.638 -177.346 L 303.334 -177.120 L 301.028 -176.885 L 298.717 -176.641 L 296.404 -176.387 L 294.087 -176.125 L 291.766 -175.854 L 289.442 -175.573 L 287.114 -175.284 L 284.783 -174.986 L 282.449 -174.679 L 280.111 -174.364 L 277.770 -174.039 L 275.425 -173.706 L 273.078 -173.364 L 270.726 -173.013 L 268.372 -172.653 L 266.014 -172.285 L 263.653 -171.909 L 261.288 -171.524 L 258.920 -171.130 L 256.549 -170.728 L 254.175 -170.317 L 251.798 -169.899 L 249.417 -169.471 L 247.033 -169.036 L 244.646 -168.592 L 242.256 -168.140 L 239.862 -167.680 L 237.466 -167.212 L 235.066 -166.735 L 232.663 -166.251 L 230.258 -165.759 L 227.849 -165.259 L 225.437 -164.751 L 223.022 -164.235 L 220.605 -163.711 L 218.184 -163.180 L 215.760 -162.641 L 213.334 -162.095 L 210.904 -161.541 L 208.472 -160.980 L 206.036 -160.411 L 203.598 -159.835 L 201.157 -159.251 L 198.714 -158.661 L 196.267 -158.063 L 193.818 -157.458 L 191.366 -156.846 L 188.912 -156.227 L 186.455 -155.601 L 183.995 -154.969 L 181.532 -154.329 L 179.067 -153.683 L 176.600 -153.030 L 174.130 -152.371 L 171.657 -151.705 L 169.182 -151.033 L 166.705 -150.354 L 164.225 -149.669 L 161.742 -148.978 L 159.257 -148.280 L 156.770 -147.577 L 154.281 -146.868 L 151.789 -146.152 L 149.295 -145.431 L 146.799 -144.704 L 144.301 -143.971 L 141.800 -143.233 L 139.298 -142.489 L 136.793 -141.740 L 134.286 -140.985 L 131.777 -140.225 L 129.266 -139.460 L 126.753 -138.689 L 124.239 -137.914 L 121.722 -137.133 L 119.203 -136.348 L 116.683 -135.557 L 114.160 -134.762 L 111.636 -133.963 L 109.110 -133.158 L 106.582 -132.349 L 104.053 -131.536 L 101.522 -130.719 L 98.989 -129.897 L 96.455 -129.071 L 93.919 -128.241 L 91.382 -127.407 L 88.843 -126.569 L 86.303 -125.727 L 83.761 -124.882 L 81.218 -124.033 L 78.673 -123.180 L 76.127 -122.324 L 73.580 -121.464 L 71.032 -120.602 L 68.482 -119.736 L 65.931 -118.867 L 63.379 -117.995 L 60.826 -117.120 L 58.272 -116.242 L 55.717 -115.361 L 53.160 -114.478 L 50.603 -113.592 L 48.045 -112.704 L 45.486 -111.813 L 42.926 -110.921 L 40.365 -110.026 L 37.803 -109.128 L 35.241 -108.229 L 32.677 -107.328 L 30.113 -106.426 L 27.549 -105.521 L 24.984 -104.615 L 22.418 -103.707 L 19.852 -102.798 L 17.285 -101.888 L 14.718 -100.976 L 12.150 -100.063 L 9.582 -99.149 Z" fill="#e4d4b5" stroke="#222" stroke-width="3.0"/>
<line x1="12.700" y1="0" x2="838.784" y2="0" stroke="#2e8b57" stroke-width="3.0"/>
<rect x="12.700" y="-19.500" width="73.394" height="39.000" fill="#d4c59c" stroke="#222" stroke-width="1.2"/>
<circle cx="101.698" cy="0" r="2" fill="#2e8b57"/>
<circle cx="119.633" cy="0" r="2" fill="#2e8b57"/>
<circle cx="137.567" cy="0" r="2" fill="#2e8b57"/>
<circle cx="155.509" cy="0" r="2" fill="#2e8b57"/>
<circle cx="173.455" cy="0" r="2" fill="#2e8b57"/>
<circle cx="191.389" cy="0" r="2" fill="#2e8b57"/>
<circle cx="209.324" cy="0" r="2" fill="#2e8b57"/>
<circle cx="227.259" cy="0" r="2" fill="#2e8b57"/>
<circle cx="245.201" cy="0" r="2" fill="#2e8b57"/>
<circle cx="263.135" cy="0" r="2" fill="#2e8b57"/>
<circle cx="281.081" cy="0" r="2" fill="#2e8b57"/>
<circle cx="299.016" cy="0" r="2" fill="#2e8b57"/>
<circle cx="316.443" cy="0" r="2" fill="#2e8b57"/>
<circle cx="333.858" cy="0" r="2" fill="#2e8b57"/>
<circle cx="351.285" cy="0" r="2" fill="#2e8b57"/>
<circle cx="368.712" cy="0" r="2" fill="#2e8b57"/>
<circle cx="385.111" cy="0" r="2" fill="#2e8b57"/>
<circle cx="401.522" cy="0" r="2" fill="#2e8b57"/>
<circle cx="417.914" cy="0" r="2" fill="#2e8b57"/>
<circle cx="433.298" cy="0" r="2" fill="#2e8b57"/>
<circle cx="448.663" cy="0" r="2" fill="#2e8b57"/>
<circle cx="464.039" cy="0" r="2" fill="#2e8b57"/>
<circle cx="479.423" cy="0" r="2" fill="#2e8b57"/>
<circle cx="494.799" cy="0" r="2" fill="#2e8b57"/>
<circle cx="510.165" cy="0" r="2" fill="#2e8b57"/>
<circle cx="525.540" cy="0" r="2" fill="#2e8b57"/>
<circle cx="539.890" cy="0" r="2" fill="#2e8b57"/>
<circle cx="554.239" cy="0" r="2" fill="#2e8b57"/>
<circle cx="568.588" cy="0" r="2" fill="#2e8b57"/>
<circle cx="582.937" cy="0" r="2" fill="#2e8b57"/>
<circle cx="597.286" cy="0" r="2" fill="#2e8b57"/>
<circle cx="611.636" cy="0" r="2" fill="#2e8b57"/>
<circle cx="625.985" cy="0" r="2" fill="#2e8b57"/>
<circle cx="639.318" cy="0" r="2" fill="#2e8b57"/>
<circle cx="652.644" cy="0" r="2" fill="#2e8b57"/>
<circle cx="665.966" cy="0" r="2" fill="#2e8b57"/>
<circle cx="679.299" cy="0" r="2" fill="#2e8b57"/>
<circle cx="692.614" cy="0" r="2" fill="#2e8b57"/>
<circle cx="705.947" cy="0" r="2" fill="#2e8b57"/>
<circle cx="719.274" cy="0" r="2" fill="#2e8b57"/>
<circle cx="732.595" cy="0" r="2" fill="#2e8b57"/>
<circle cx="745.929" cy="0" r="2" fill="#2e8b57"/>
<circle cx="759.244" cy="0" r="2" fill="#2e8b57"/>
<circle cx="772.577" cy="0" r="2" fill="#2e8b57"/>
<circle cx="785.891" cy="0" r="2" fill="#2e8b57"/>
<circle cx="799.224" cy="0" r="2" fill="#2e8b57"/>
<circle cx="812.546" cy="0" r="2" fill="#2e8b57"/>
<rect x="31.746" y="6.350" width="874.886" height="6.000" fill="#c79568" stroke="#8b4513" stroke-width="1.2"/>
<rect x="31.746" y="-12.350" width="874.886" height="6.000" fill="#c79568" stroke="#8b4513" stroke-width="1.2"/>
<circle cx="101.700" cy="0" r="1.000" fill="#c00000"/>
<circle cx="119.632" cy="0" r="1.000" fill="#888"/>
<circle cx="137.565" cy="0" r="1.000" fill="#888"/>
<circle cx="155.523" cy="0" r="1.000" fill="#1060d0"/>
<circle cx="173.455" cy="0" r="1.000" fill="#888"/>
<circle cx="191.387" cy="0" r="1.000" fill="#888"/>
<circle cx="209.320" cy="0" r="1.000" fill="#888"/>
<circle cx="227.252" cy="0" r="1.000" fill="#c00000"/>
<circle cx="245.210" cy="0" r="1.000" fill="#888"/>
<circle cx="263.142" cy="0" r="1.321" fill="#888"/>
<circle cx="281.075" cy="0" r="1.244" fill="#1060d0"/>
<circle cx="299.007" cy="0" r="1.169" fill="#888"/>
<circle cx="316.432" cy="0" r="1.092" fill="#888"/>
<circle cx="333.856" cy="0" r="1.028" fill="#888"/>
<circle cx="351.280" cy="0" r="1.028" fill="#c00000"/>
<circle cx="368.705" cy="0" r="1.000" fill="#888"/>
<circle cx="385.113" cy="0" r="1.000" fill="#888"/>
<circle cx="401.522" cy="0" r="1.000" fill="#1060d0"/>
<circle cx="417.905" cy="0" r="1.000" fill="#888"/>
<circle cx="433.297" cy="0" r="1.000" fill="#888"/>
<circle cx="448.664" cy="0" r="1.000" fill="#888"/>
<circle cx="464.031" cy="0" r="1.000" fill="#c00000"/>
<circle cx="479.423" cy="0" r="1.000" fill="#888"/>
<circle cx="494.790" cy="0" r="1.000" fill="#888"/>
<circle cx="510.157" cy="0" r="1.000" fill="#1060d0"/>
<circle cx="525.524" cy="0" r="1.000" fill="#888"/>
<circle cx="539.875" cy="0" r="1.000" fill="#888"/>
<circle cx="554.226" cy="0" r="1.000" fill="#888"/>
<circle cx="568.577" cy="0" r="1.000" fill="#c00000"/>
<circle cx="582.928" cy="0" r="1.000" fill="#888"/>
<circle cx="597.279" cy="0" r="1.000" fill="#888"/>
<circle cx="611.630" cy="0" r="1.000" fill="#1060d0"/>
<circle cx="625.981" cy="0" r="1.000" fill="#888"/>
<circle cx="639.316" cy="0" r="1.000" fill="#888"/>
<circle cx="652.626" cy="0" r="1.000" fill="#888"/>
<circle cx="665.961" cy="0" r="1.000" fill="#c00000"/>
<circle cx="679.296" cy="0" r="1.000" fill="#888"/>
<circle cx="692.606" cy="0" r="1.000" fill="#888"/>
<circle cx="705.941" cy="0" r="1.000" fill="#1060d0"/>
<circle cx="719.250" cy="0" r="1.000" fill="#888"/>
<circle cx="732.585" cy="0" r="1.000" fill="#888"/>
<circle cx="745.920" cy="0" r="1.000" fill="#888"/>
<circle cx="759.230" cy="0" r="1.000" fill="#c00000"/>
<circle cx="772.565" cy="0" r="1.000" fill="#888"/>
<circle cx="785.874" cy="0" r="1.000" fill="#888"/>
<circle cx="799.209" cy="0" r="1.000" fill="#1060d0"/>
<circle cx="812.544" cy="0" r="1.000" fill="#888"/>
<rect x="95.400" y="-31.750" width="12.600" height="19.400" fill="#d46a3a" fill-opacity="0.55" stroke="#000" stroke-width="0.3"/>
<circle cx="101.700" cy="-9.350" r="8.000" fill="#fff" stroke="#888" stroke-width="0.4"/>
<circle cx="101.700" cy="-9.350" r="3.250" fill="#fff" stroke="#3366cc" stroke-width="0.4"/>
<circle cx="101.700" cy="-9.350" r="3.250" fill="#fff" stroke="#cc3333" stroke-width="0.4"/>
<circle cx="101.700" cy="0" r="1.0" fill="#222"/>
<rect x="113.332" y="12.350" width="12.600" height="19.400" fill="#3a6fd4" fill-opacity="0.55" stroke="#000" stroke-width="0.3"/>
<circle cx="119.632" cy="9.350" r="8.000" fill="#fff" stroke="#888" stroke-width="0.4"/>
<circle cx="119.632" cy="9.350" r="3.250" fill="#fff" stroke="#3366cc" stroke-width="0.4"/>
<circle cx="119.632" cy="9.350" r="3.250" fill="#fff" stroke="#cc3333" stroke-width="0.4"/>
<circle cx="119.632" cy="0" r="1.0" fill="#222"/>
<rect x="131.265" y="-31.750" width="12.600" height="19.400" fill="#d46a3a" fill-opacity="0.55" stroke="#000" stroke-width="0.3"/>
<circle cx="137.565" cy="-9.350" r="8.000" fill="#fff" stroke="#888" stroke-width="0.4"/>
<circle cx="137.565" cy="-9.350" r="3.250" fill="#fff" stroke="#3366cc" stroke-width="0.4"/>
<circle cx="137.565" cy="-9.350" r="3.250" fill="#fff" stroke="#cc3333" stroke-width="0.4"/>
<circle cx="137.565" cy="0" r="1.0" fill="#222"/>
<rect x="149.223" y="12.350" width="12.600" height="19.400" fill="#3a6fd4" fill-opacity="0.55" stroke="#000" stroke-width="0.3"/>
<circle cx="155.523" cy="9.350" r="8.000" fill="#fff" stroke="#888" stroke-width="0.4"/>
<circle cx="155.523" cy="9.350" r="3.250" fill="#fff" stroke="#3366cc" stroke-width="0.4"/>
<circle cx="155.523" cy="9.350" r="3.250" fill="#fff" stroke="#cc3333" stroke-width="0.4"/>
<circle cx="155.523" cy="0" r="1.0" fill="#222"/>
<rect x="167.155" y="-31.750" width="12.600" height="19.400" fill="#d46a3a" fill-opacity="0.55" stroke="#000" stroke-width="0.3"/>
<circle cx="173.455" cy="-9.350" r="8.000" fill="#fff" stroke="#888" stroke-width="0.4"/>
<circle cx="173.455" cy="-9.350" r="3.250" fill="#fff" stroke="#3366cc" stroke-width="0.4"/>
<circle cx="173.455" cy="-9.350" r="3.250" fill="#fff" stroke="#cc3333" stroke-width="0.4"/>
<circle cx="173.455" cy="0" r="1.0" fill="#222"/>
<rect x="185.087" y="12.350" width="12.600" height="19.400" fill="#3a6fd4" fill-opacity="0.55" stroke="#000" stroke-width="0.3"/>
<circle cx="191.387" cy="9.350" r="8.000" fill="#fff" stroke="#888" stroke-width="0.4"/>
<circle cx="191.387" cy="9.350" r="3.250" fill="#fff" stroke="#3366cc" stroke-width="0.4"/>
<circle cx="191.387" cy="9.350" r="3.250" fill="#fff" stroke="#cc3333" stroke-width="0.4"/>
<circle cx="191.387" cy="0" r="1.0" fill="#222"/>
<rect x="203.020" y="-31.750" width="12.600" height="19.400" fill="#d46a3a" fill-opacity="0.55" stroke="#000" stroke-width="0.3"/>
<circle cx="209.320" cy="-9.350" r="8.000" fill="#fff" stroke="#888" stroke-width="0.4"/>
<circle cx="209.320" cy="-9.350" r="3.250" fill="#fff" stroke="#3366cc" stroke-width="0.4"/>
<circle cx="209.320" cy="-9.350" r="3.250" fill="#fff" stroke="#cc3333" stroke-width="0.4"/>
<circle cx="209.320" cy="0" r="1.0" fill="#222"/>
<rect x="220.952" y="12.350" width="12.600" height="19.400" fill="#3a6fd4" fill-opacity="0.55" stroke="#000" stroke-width="0.3"/>
<circle cx="227.252" cy="9.350" r="8.000" fill="#fff" stroke="#888" stroke-width="0.4"/>
<circle cx="227.252" cy="9.350" r="3.250" fill="#fff" stroke="#3366cc" stroke-width="0.4"/>
<circle cx="227.252" cy="9.350" r="3.250" fill="#fff" stroke="#cc3333" stroke-width="0.4"/>
<circle cx="227.252" cy="0" r="1.0" fill="#222"/>
<rect x="238.910" y="-31.750" width="12.600" height="19.400" fill="#d46a3a" fill-opacity="0.55" stroke="#000" stroke-width="0.3"/>
<circle cx="245.210" cy="-9.350" r="8.000" fill="#fff" stroke="#888" stroke-width="0.4"/>
<circle cx="245.210" cy="-9.350" r="3.250" fill="#fff" stroke="#3366cc" stroke-width="0.4"/>
<circle cx="245.210" cy="-9.350" r="3.250" fill="#fff" stroke="#cc3333" stroke-width="0.4"/>
<circle cx="245.210" cy="0" r="1.0" fill="#222"/>
<rect x="256.842" y="12.350" width="12.600" height="19.400" fill="#3a6fd4" fill-opacity="0.55" stroke="#000" stroke-width="0.3"/>
<circle cx="263.142" cy="9.350" r="8.000" fill="#fff" stroke="#888" stroke-width="0.4"/>
<circle cx="263.142" cy="9.350" r="3.250" fill="#fff" stroke="#3366cc" stroke-width="0.4"/>
<circle cx="263.142" cy="9.350" r="3.250" fill="#fff" stroke="#cc3333" stroke-width="0.4"/>
<circle cx="263.142" cy="0" r="1.0" fill="#222"/>
<rect x="274.775" y="-31.750" width="12.600" height="19.400" fill="#d46a3a" fill-opacity="0.55" stroke="#000" stroke-width="0.3"/>
<circle cx="281.075" cy="-9.350" r="8.000" fill="#fff" stroke="#888" stroke-width="0.4"/>
<circle cx="281.075" cy="-9.350" r="3.250" fill="#fff" stroke="#3366cc" stroke-width="0.4"/>
<circle cx="281.075" cy="-9.350" r="3.250" fill="#fff" stroke="#cc3333" stroke-width="0.4"/>
<circle cx="281.075" cy="0" r="1.0" fill="#222"/>
<rect x="292.707" y="12.350" width="12.600" height="19.400" fill="#3a6fd4" fill-opacity="0.55" stroke="#000" stroke-width="0.3"/>
<circle cx="299.007" cy="9.350" r="8.000" fill="#fff" stroke="#888" stroke-width="0.4"/>
<circle cx="299.007" cy="9.350" r="3.250" fill="#fff" stroke="#3366cc" stroke-width="0.4"/>
<circle cx="299.007" cy="9.350" r="3.250" fill="#fff" stroke="#cc3333" stroke-width="0.4"/>
<circle cx="299.007" cy="0" r="1.0" fill="#222"/>
<rect x="310.132" y="-31.750" width="12.600" height="19.400" fill="#d46a3a" fill-opacity="0.55" stroke="#000" stroke-width="0.3"/>
<circle cx="316.432" cy="-9.350" r="8.000" fill="#fff" stroke="#888" stroke-width="0.4"/>
<circle cx="316.432" cy="-9.350" r="3.250" fill="#fff" stroke="#3366cc" stroke-width="0.4"/>
<circle cx="316.432" cy="-9.350" r="3.250" fill="#fff" stroke="#cc3333" stroke-width="0.4"/>
<circle cx="316.432" cy="0" r="1.0" fill="#222"/>
<rect x="327.556" y="12.350" width="12.600" height="19.400" fill="#3a6fd4" fill-opacity="0.55" stroke="#000" stroke-width="0.3"/>
<circle cx="333.856" cy="9.350" r="8.000" fill="#fff" stroke="#888" stroke-width="0.4"/>
<circle cx="333.856" cy="9.350" r="3.250" fill="#fff" stroke="#3366cc" stroke-width="0.4"/>
<circle cx="333.856" cy="9.350" r="3.250" fill="#fff" stroke="#cc3333" stroke-width="0.4"/>
<circle cx="333.856" cy="0" r="1.0" fill="#222"/>
<rect x="344.980" y="-31.750" width="12.600" height="19.400" fill="#d46a3a" fill-opacity="0.55" stroke="#000" stroke-width="0.3"/>
<circle cx="351.280" cy="-9.350" r="8.000" fill="#fff" stroke="#888" stroke-width="0.4"/>
<circle cx="351.280" cy="-9.350" r="3.250" fill="#fff" stroke="#3366cc" stroke-width="0.4"/>
<circle cx="351.280" cy="-9.350" r="3.250" fill="#fff" stroke="#cc3333" stroke-width="0.4"/>
<circle cx="351.280" cy="0" r="1.0" fill="#222"/>
<rect x="362.405" y="12.350" width="12.600" height="19.400" fill="#3a6fd4" fill-opacity="0.55" stroke="#000" stroke-width="0.3"/>
<circle cx="368.705" cy="9.350" r="8.000" fill="#fff" stroke="#888" stroke-width="0.4"/>
<circle cx="368.705" cy="9.350" r="3.250" fill="#fff" stroke="#3366cc" stroke-width="0.4"/>
<circle cx="368.705" cy="9.350" r="3.250" fill="#fff" stroke="#cc3333" stroke-width="0.4"/>
<circle cx="368.705" cy="0" r="1.0" fill="#222"/>
<rect x="378.813" y="-31.750" width="12.600" height="19.400" fill="#d46a3a" fill-opacity="0.55" stroke="#000" stroke-width="0.3"/>
<circle cx="385.113" cy="-9.350" r="8.000" fill="#fff" stroke="#888" stroke-width="0.4"/>
<circle cx="385.113" cy="-9.350" r="3.250" fill="#fff" stroke="#3366cc" stroke-width="0.4"/>
<circle cx="385.113" cy="-9.350" r="3.250" fill="#fff" stroke="#cc3333" stroke-width="0.4"/>
<circle cx="385.113" cy="0" r="1.0" fill="#222"/>
<rect x="395.222" y="12.350" width="12.600" height="19.400" fill="#3a6fd4" fill-opacity="0.55" stroke="#000" stroke-width="0.3"/>
<circle cx="401.522" cy="9.350" r="8.000" fill="#fff" stroke="#888" stroke-width="0.4"/>
<circle cx="401.522" cy="9.350" r="3.250" fill="#fff" stroke="#3366cc" stroke-width="0.4"/>
<circle cx="401.522" cy="9.350" r="3.250" fill="#fff" stroke="#cc3333" stroke-width="0.4"/>
<circle cx="401.522" cy="0" r="1.0" fill="#222"/>
<rect x="411.605" y="-31.750" width="12.600" height="19.400" fill="#d46a3a" fill-opacity="0.55" stroke="#000" stroke-width="0.3"/>
<circle cx="417.905" cy="-9.350" r="8.000" fill="#fff" stroke="#888" stroke-width="0.4"/>
<circle cx="417.905" cy="-9.350" r="3.250" fill="#fff" stroke="#3366cc" stroke-width="0.4"/>
<circle cx="417.905" cy="-9.350" r="3.250" fill="#fff" stroke="#cc3333" stroke-width="0.4"/>
<circle cx="417.905" cy="0" r="1.0" fill="#222"/>
<rect x="426.997" y="12.350" width="12.600" height="19.400" fill="#3a6fd4" fill-opacity="0.55" stroke="#000" stroke-width="0.3"/>
<circle cx="433.297" cy="9.350" r="8.000" fill="#fff" stroke="#888" stroke-width="0.4"/>
<circle cx="433.297" cy="9.350" r="3.250" fill="#fff" stroke="#3366cc" stroke-width="0.4"/>
<circle cx="433.297" cy="9.350" r="3.250" fill="#fff" stroke="#cc3333" stroke-width="0.4"/>
<circle cx="433.297" cy="0" r="1.0" fill="#222"/>
<rect x="442.364" y="-31.750" width="12.600" height="19.400" fill="#d46a3a" fill-opacity="0.55" stroke="#000" stroke-width="0.3"/>
<circle cx="448.664" cy="-9.350" r="8.000" fill="#fff" stroke="#888" stroke-width="0.4"/>
<circle cx="448.664" cy="-9.350" r="3.250" fill="#fff" stroke="#3366cc" stroke-width="0.4"/>
<circle cx="448.664" cy="-9.350" r="3.250" fill="#fff" stroke="#cc3333" stroke-width="0.4"/>
<circle cx="448.664" cy="0" r="1.0" fill="#222"/>
<rect x="457.731" y="12.350" width="12.600" height="19.400" fill="#3a6fd4" fill-opacity="0.55" stroke="#000" stroke-width="0.3"/>
<circle cx="464.031" cy="9.350" r="8.000" fill="#fff" stroke="#888" stroke-width="0.4"/>
<circle cx="464.031" cy="9.350" r="3.250" fill="#fff" stroke="#3366cc" stroke-width="0.4"/>
<circle cx="464.031" cy="9.350" r="3.250" fill="#fff" stroke="#cc3333" stroke-width="0.4"/>
<circle cx="464.031" cy="0" r="1.0" fill="#222"/>
<rect x="473.123" y="-31.750" width="12.600" height="19.400" fill="#d46a3a" fill-opacity="0.55" stroke="#000" stroke-width="0.3"/>
<circle cx="479.423" cy="-9.350" r="8.000" fill="#fff" stroke="#888" stroke-width="0.4"/>
<circle cx="479.423" cy="-9.350" r="3.250" fill="#fff" stroke="#3366cc" stroke-width="0.4"/>
<circle cx="479.423" cy="-9.350" r="3.250" fill="#fff" stroke="#cc3333" stroke-width="0.4"/>
<circle cx="479.423" cy="0" r="1.0" fill="#222"/>
<rect x="488.490" y="12.350" width="12.600" height="19.400" fill="#3a6fd4" fill-opacity="0.55" stroke="#000" stroke-width="0.3"/>
<circle cx="494.790" cy="9.350" r="8.000" fill="#fff" stroke="#888" stroke-width="0.4"/>
<circle cx="494.790" cy="9.350" r="3.250" fill="#fff" stroke="#3366cc" stroke-width="0.4"/>
<circle cx="494.790" cy="9.350" r="3.250" fill="#fff" stroke="#cc3333" stroke-width="0.4"/>
<circle cx="494.790" cy="0" r="1.0" fill="#222"/>
<rect x="503.857" y="-31.750" width="12.600" height="19.400" fill="#d46a3a" fill-opacity="0.55" stroke="#000" stroke-width="0.3"/>
<circle cx="510.157" cy="-9.350" r="8.000" fill="#fff" stroke="#888" stroke-width="0.4"/>
<circle cx="510.157" cy="-9.350" r="3.250" fill="#fff" stroke="#3366cc" stroke-width="0.4"/>
<circle cx="510.157" cy="-9.350" r="3.250" fill="#fff" stroke="#cc3333" stroke-width="0.4"/>
<circle cx="510.157" cy="0" r="1.0" fill="#222"/>
<rect x="519.224" y="12.350" width="12.600" height="19.400" fill="#3a6fd4" fill-opacity="0.55" stroke="#000" stroke-width="0.3"/>
<circle cx="525.524" cy="9.350" r="8.000" fill="#fff" stroke="#888" stroke-width="0.4"/>
<circle cx="525.524" cy="9.350" r="3.250" fill="#fff" stroke="#3366cc" stroke-width="0.4"/>
<circle cx="525.524" cy="9.350" r="3.250" fill="#fff" stroke="#cc3333" stroke-width="0.4"/>
<circle cx="525.524" cy="0" r="1.0" fill="#222"/>
<rect x="533.575" y="-31.750" width="12.600" height="19.400" fill="#d46a3a" fill-opacity="0.55" stroke="#000" stroke-width="0.3"/>
<circle cx="539.875" cy="-9.350" r="8.000" fill="#fff" stroke="#888" stroke-width="0.4"/>
<circle cx="539.875" cy="-9.350" r="3.250" fill="#fff" stroke="#3366cc" stroke-width="0.4"/>
<circle cx="539.875" cy="-9.350" r="3.250" fill="#fff" stroke="#cc3333" stroke-width="0.4"/>
<circle cx="539.875" cy="0" r="1.0" fill="#222"/>
<rect x="547.926" y="12.350" width="12.600" height="19.400" fill="#3a6fd4" fill-opacity="0.55" stroke="#000" stroke-width="0.3"/>
<circle cx="554.226" cy="9.350" r="8.000" fill="#fff" stroke="#888" stroke-width="0.4"/>
<circle cx="554.226" cy="9.350" r="3.250" fill="#fff" stroke="#3366cc" stroke-width="0.4"/>
<circle cx="554.226" cy="9.350" r="3.250" fill="#fff" stroke="#cc3333" stroke-width="0.4"/>
<circle cx="554.226" cy="0" r="1.0" fill="#222"/>
<rect x="562.277" y="-31.750" width="12.600" height="19.400" fill="#d46a3a" fill-opacity="0.55" stroke="#000" stroke-width="0.3"/>
<circle cx="568.577" cy="-9.350" r="8.000" fill="#fff" stroke="#888" stroke-width="0.4"/>
<circle cx="568.577" cy="-9.350" r="3.250" fill="#fff" stroke="#3366cc" stroke-width="0.4"/>
<circle cx="568.577" cy="-9.350" r="3.250" fill="#fff" stroke="#cc3333" stroke-width="0.4"/>
<circle cx="568.577" cy="0" r="1.0" fill="#222"/>
<rect x="576.628" y="12.350" width="12.600" height="19.400" fill="#3a6fd4" fill-opacity="0.55" stroke="#000" stroke-width="0.3"/>
<circle cx="582.928" cy="9.350" r="8.000" fill="#fff" stroke="#888" stroke-width="0.4"/>
<circle cx="582.928" cy="9.350" r="3.250" fill="#fff" stroke="#3366cc" stroke-width="0.4"/>
<circle cx="582.928" cy="9.350" r="3.250" fill="#fff" stroke="#cc3333" stroke-width="0.4"/>
<circle cx="582.928" cy="0" r="1.0" fill="#222"/>
<rect x="590.979" y="-31.750" width="12.600" height="19.400" fill="#d46a3a" fill-opacity="0.55" stroke="#000" stroke-width="0.3"/>
<circle cx="597.279" cy="-9.350" r="8.000" fill="#fff" stroke="#888" stroke-width="0.4"/>
<circle cx="597.279" cy="-9.350" r="3.250" fill="#fff" stroke="#3366cc" stroke-width="0.4"/>
<circle cx="597.279" cy="-9.350" r="3.250" fill="#fff" stroke="#cc3333" stroke-width="0.4"/>
<circle cx="597.279" cy="0" r="1.0" fill="#222"/>
<rect x="605.330" y="12.350" width="12.600" height="19.400" fill="#3a6fd4" fill-opacity="0.55" stroke="#000" stroke-width="0.3"/>
<circle cx="611.630" cy="9.350" r="8.000" fill="#fff" stroke="#888" stroke-width="0.4"/>
<circle cx="611.630" cy="9.350" r="3.250" fill="#fff" stroke="#3366cc" stroke-width="0.4"/>
<circle cx="611.630" cy="9.350" r="3.250" fill="#fff" stroke="#cc3333" stroke-width="0.4"/>
<circle cx="611.630" cy="0" r="1.0" fill="#222"/>
<rect x="619.681" y="-31.750" width="12.600" height="19.400" fill="#d46a3a" fill-opacity="0.55" stroke="#000" stroke-width="0.3"/>
<circle cx="625.981" cy="-9.350" r="8.000" fill="#fff" stroke="#888" stroke-width="0.4"/>
<circle cx="625.981" cy="-9.350" r="3.250" fill="#fff" stroke="#3366cc" stroke-width="0.4"/>
<circle cx="625.981" cy="-9.350" r="3.250" fill="#fff" stroke="#cc3333" stroke-width="0.4"/>
<circle cx="625.981" cy="0" r="1.0" fill="#222"/>
<rect x="633.016" y="12.350" width="12.600" height="19.400" fill="#3a6fd4" fill-opacity="0.55" stroke="#000" stroke-width="0.3"/>
<circle cx="639.316" cy="9.350" r="8.000" fill="#fff" stroke="#888" stroke-width="0.4"/>
<circle cx="639.316" cy="9.350" r="3.250" fill="#fff" stroke="#3366cc" stroke-width="0.4"/>
<circle cx="639.316" cy="9.350" r="3.250" fill="#fff" stroke="#cc3333" stroke-width="0.4"/>
<circle cx="639.316" cy="0" r="1.0" fill="#222"/>
<rect x="646.326" y="-31.750" width="12.600" height="19.400" fill="#d46a3a" fill-opacity="0.55" stroke="#000" stroke-width="0.3"/>
<circle cx="652.626" cy="-9.350" r="8.000" fill="#fff" stroke="#888" stroke-width="0.4"/>
<circle cx="652.626" cy="-9.350" r="3.250" fill="#fff" stroke="#3366cc" stroke-width="0.4"/>
<circle cx="652.626" cy="-9.350" r="3.250" fill="#fff" stroke="#cc3333" stroke-width="0.4"/>
<circle cx="652.626" cy="0" r="1.0" fill="#222"/>
<rect x="659.661" y="12.350" width="12.600" height="19.400" fill="#3a6fd4" fill-opacity="0.55" stroke="#000" stroke-width="0.3"/>
<circle cx="665.961" cy="9.350" r="8.000" fill="#fff" stroke="#888" stroke-width="0.4"/>
<circle cx="665.961" cy="9.350" r="3.250" fill="#fff" stroke="#3366cc" stroke-width="0.4"/>
<circle cx="665.961" cy="9.350" r="3.250" fill="#fff" stroke="#cc3333" stroke-width="0.4"/>
<circle cx="665.961" cy="0" r="1.0" fill="#222"/>
<rect x="672.996" y="-31.750" width="12.600" height="19.400" fill="#d46a3a" fill-opacity="0.55" stroke="#000" stroke-width="0.3"/>
<circle cx="679.296" cy="-9.350" r="8.000" fill="#fff" stroke="#888" stroke-width="0.4"/>
<circle cx="679.296" cy="-9.350" r="3.250" fill="#fff" stroke="#3366cc" stroke-width="0.4"/>
<circle cx="679.296" cy="-9.350" r="3.250" fill="#fff" stroke="#cc3333" stroke-width="0.4"/>
<circle cx="679.296" cy="0" r="1.0" fill="#222"/>
<rect x="686.306" y="12.350" width="12.600" height="19.400" fill="#3a6fd4" fill-opacity="0.55" stroke="#000" stroke-width="0.3"/>
<circle cx="692.606" cy="9.350" r="8.000" fill="#fff" stroke="#888" stroke-width="0.4"/>
<circle cx="692.606" cy="9.350" r="3.250" fill="#fff" stroke="#3366cc" stroke-width="0.4"/>
<circle cx="692.606" cy="9.350" r="3.250" fill="#fff" stroke="#cc3333" stroke-width="0.4"/>
<circle cx="692.606" cy="0" r="1.0" fill="#222"/>
<rect x="699.641" y="-31.750" width="12.600" height="19.400" fill="#d46a3a" fill-opacity="0.55" stroke="#000" stroke-width="0.3"/>
<circle cx="705.941" cy="-9.350" r="8.000" fill="#fff" stroke="#888" stroke-width="0.4"/>
<circle cx="705.941" cy="-9.350" r="3.250" fill="#fff" stroke="#3366cc" stroke-width="0.4"/>
<circle cx="705.941" cy="-9.350" r="3.250" fill="#fff" stroke="#cc3333" stroke-width="0.4"/>
<circle cx="705.941" cy="0" r="1.0" fill="#222"/>
<rect x="712.950" y="12.350" width="12.600" height="19.400" fill="#3a6fd4" fill-opacity="0.55" stroke="#000" stroke-width="0.3"/>
<circle cx="719.250" cy="9.350" r="8.000" fill="#fff" stroke="#888" stroke-width="0.4"/>
<circle cx="719.250" cy="9.350" r="3.250" fill="#fff" stroke="#3366cc" stroke-width="0.4"/>
<circle cx="719.250" cy="9.350" r="3.250" fill="#fff" stroke="#cc3333" stroke-width="0.4"/>
<circle cx="719.250" cy="0" r="1.0" fill="#222"/>
<rect x="726.285" y="-31.750" width="12.600" height="19.400" fill="#d46a3a" fill-opacity="0.55" stroke="#000" stroke-width="0.3"/>
<circle cx="732.585" cy="-9.350" r="8.000" fill="#fff" stroke="#888" stroke-width="0.4"/>
<circle cx="732.585" cy="-9.350" r="3.250" fill="#fff" stroke="#3366cc" stroke-width="0.4"/>
<circle cx="732.585" cy="-9.350" r="3.250" fill="#fff" stroke="#cc3333" stroke-width="0.4"/>
<circle cx="732.585" cy="0" r="1.0" fill="#222"/>
<rect x="739.620" y="12.350" width="12.600" height="19.400" fill="#3a6fd4" fill-opacity="0.55" stroke="#000" stroke-width="0.3"/>
<circle cx="745.920" cy="9.350" r="8.000" fill="#fff" stroke="#888" stroke-width="0.4"/>
<circle cx="745.920" cy="9.350" r="3.250" fill="#fff" stroke="#3366cc" stroke-width="0.4"/>
<circle cx="745.920" cy="9.350" r="3.250" fill="#fff" stroke="#cc3333" stroke-width="0.4"/>
<circle cx="745.920" cy="0" r="1.0" fill="#222"/>
<rect x="752.930" y="-31.750" width="12.600" height="19.400" fill="#d46a3a" fill-opacity="0.55" stroke="#000" stroke-width="0.3"/>
<circle cx="759.230" cy="-9.350" r="8.000" fill="#fff" stroke="#888" stroke-width="0.4"/>
<circle cx="759.230" cy="-9.350" r="3.250" fill="#fff" stroke="#3366cc" stroke-width="0.4"/>
<circle cx="759.230" cy="-9.350" r="3.250" fill="#fff" stroke="#cc3333" stroke-width="0.4"/>
<circle cx="759.230" cy="0" r="1.0" fill="#222"/>
<rect x="766.265" y="12.350" width="12.600" height="19.400" fill="#3a6fd4" fill-opacity="0.55" stroke="#000" stroke-width="0.3"/>
<circle cx="772.565" cy="9.350" r="8.000" fill="#fff" stroke="#888" stroke-width="0.4"/>
<circle cx="772.565" cy="9.350" r="3.250" fill="#fff" stroke="#3366cc" stroke-width="0.4"/>
<circle cx="772.565" cy="9.350" r="3.250" fill="#fff" stroke="#cc3333" stroke-width="0.4"/>
<circle cx="772.565" cy="0" r="1.0" fill="#222"/>
<rect x="779.574" y="-31.750" width="12.600" height="19.400" fill="#d46a3a" fill-opacity="0.55" stroke="#000" stroke-width="0.3"/>
<circle cx="785.874" cy="-9.350" r="8.000" fill="#fff" stroke="#888" stroke-width="0.4"/>
<circle cx="785.874" cy="-9.350" r="3.250" fill="#fff" stroke="#3366cc" stroke-width="0.4"/>
<circle cx="785.874" cy="-9.350" r="3.250" fill="#fff" stroke="#cc3333" stroke-width="0.4"/>
<circle cx="785.874" cy="0" r="1.0" fill="#222"/>
<rect x="792.909" y="12.350" width="12.600" height="19.400" fill="#3a6fd4" fill-opacity="0.55" stroke="#000" stroke-width="0.3"/>
<circle cx="799.209" cy="9.350" r="8.000" fill="#fff" stroke="#888" stroke-width="0.4"/>
<circle cx="799.209" cy="9.350" r="3.250" fill="#fff" stroke="#3366cc" stroke-width="0.4"/>
<circle cx="799.209" cy="9.350" r="3.250" fill="#fff" stroke="#cc3333" stroke-width="0.4"/>
<circle cx="799.209" cy="0" r="1.0" fill="#222"/>
<rect x="806.244" y="-31.750" width="12.600" height="19.400" fill="#d46a3a" fill-opacity="0.55" stroke="#000" stroke-width="0.3"/>
<circle cx="812.544" cy="-9.350" r="8.000" fill="#fff" stroke="#888" stroke-width="0.4"/>
<circle cx="812.544" cy="-9.350" r="3.250" fill="#fff" stroke="#3366cc" stroke-width="0.4"/>
<circle cx="812.544" cy="-9.350" r="3.250" fill="#fff" stroke="#cc3333" stroke-width="0.4"/>
<circle cx="812.544" cy="0" r="1.0" fill="#222"/>
<line x1="-150" y1="0" x2="950" y2="0" stroke="#888" stroke-width="0.5" stroke-dasharray="6 4"/>
</g>
</svg>