<?xml version="1.0" encoding="UTF-8"?>
<svg xmlns="http://www.w3.org/2000/svg" viewBox="-240 -20 480 1980" preserveAspectRatio="xMidYMid meet">
<title>Front view</title>
<rect x="-240" y="-20" width="480" height="1980" fill="#fff"/>
<path d="M 108.918 1858.039 L 109.809 1854.732 L 110.698 1851.425 L 111.585 1848.117 L 112.470 1844.808 L 113.353 1841.499 L 114.233 1838.190 L 115.110 1834.879 L 115.986 1831.569 L 116.858 1828.257 L 117.728 1824.945 L 118.595 1821.632 L 119.458 1818.318 L 120.319 1815.004 L 121.177 1811.689 L 122.032 1808.373 L 122.883 1805.056 L 123.731 1801.739 L 124.575 1798.421 L 125.416 1795.102 L 126.253 1791.782 L 127.086 1788.461 L 127.916 1785.139 L 128.742 1781.816 L 129.564 1778.492 L 130.381 1775.168 L 131.195 1771.842 L 132.004 1768.515 L 132.809 1765.187 L 133.610 1761.859 L 134.406 1758.529 L 135.197 1755.198 L 135.984 1751.866 L 136.766 1748.532 L 137.544 1745.198 L 138.316 1741.862 L 139.084 1738.526 L 139.846 1735.188 L 140.603 1731.848 L 141.356 1728.508 L 142.102 1725.166 L 142.844 1721.823 L 143.580 1718.479 L 144.310 1715.133 L 145.035 1711.786 L 145.755 1708.438 L 146.468 1705.088 L 147.176 1701.737 L 147.878 1698.384 L 148.574 1695.030 L 149.264 1691.675 L 149.947 1688.318 L 150.625 1684.959 L 151.296 1681.599 L 151.962 1678.238 L 152.620 1674.875 L 153.273 1671.510 L 153.918 1668.144 L 154.558 1664.777 L 155.190 1661.407 L 155.816 1658.037 L 156.435 1654.664 L 157.047 1651.290 L 157.653 1647.914 L 158.251 1644.537 L 158.843 1641.158 L 159.427 1637.777 L 160.004 1634.394 L 160.574 1631.010 L 161.137 1627.624 L 161.692 1624.236 L 162.240 1620.846 L 162.781 1617.455 L 163.314 1614.062 L 163.839 1610.667 L 164.357 1607.270 L 164.868 1603.871 L 165.370 1600.471 L 165.865 1597.068 L 166.352 1593.664 L 166.832 1590.258 L 167.303 1586.850 L 167.766 1583.440 L 168.222 1580.028 L 168.669 1576.614 L 169.108 1573.198 L 169.540 1569.781 L 169.963 1566.361 L 170.377 1562.939 L 170.784 1559.516 L 171.182 1556.090 L 171.572 1552.662 L 171.953 1549.232 L 172.326 1545.801 L 172.691 1542.367 L 173.047 1538.931 L 173.394 1535.493 L 173.733 1532.053 L 174.063 1528.611 L 174.385 1525.167 L 174.698 1521.721 L 175.002 1518.273 L 175.298 1514.822 L 175.584 1511.370 L 175.862 1507.915 L 176.132 1504.459 L 176.392 1501.000 L 176.643 1497.539 L 176.886 1494.076 L 177.119 1490.610 L 177.344 1487.143 L 177.559 1483.673 L 177.766 1480.202 L 177.964 1476.728 L 178.152 1473.252 L 178.332 1469.773 L 178.502 1466.293 L 178.663 1462.810 L 178.815 1459.325 L 178.958 1455.838 L 179.092 1452.349 L 179.217 1448.857 L 179.332 1445.364 L 179.439 1441.868 L 179.536 1438.370 L 179.624 1434.869 L 179.703 1431.367 L 179.772 1427.862 L 179.832 1424.355 L 179.884 1420.846 L 179.925 1417.334 L 179.958 1413.821 L 179.981 1410.305 L 179.995 1406.787 L 180.000 1403.266 L 179.997 1399.744 L 179.986 1396.220 L 179.969 1392.694 L 179.944 1389.167 L 179.913 1385.638 L 179.875 1382.107 L 179.829 1378.575 L 179.777 1375.041 L 179.718 1371.505 L 179.651 1367.968 L 179.578 1364.428 L 179.498 1360.888 L 179.410 1357.345 L 179.316 1353.801 L 179.215 1350.255 L 179.107 1346.708 L 178.992 1343.158 L 178.870 1339.608 L 178.741 1336.055 L 178.605 1332.501 L 178.462 1328.945 L 178.313 1325.388 L 178.156 1321.828 L 177.993 1318.268 L 177.823 1314.705 L 177.646 1311.141 L 177.462 1307.575 L 177.271 1304.008 L 177.074 1300.439 L 176.870 1296.868 L 176.659 1293.296 L 176.441 1289.722 L 176.216 1286.147 L 175.985 1282.570 L 175.747 1278.991 L 175.503 1275.411 L 175.252 1271.829 L 174.994 1268.245 L 174.729 1264.660 L 174.458 1261.073 L 174.181 1257.485 L 173.897 1253.895 L 173.606 1250.304 L 173.309 1246.711 L 173.005 1243.116 L 172.695 1239.520 L 172.378 1235.922 L 172.055 1232.323 L 171.726 1228.722 L 171.390 1225.120 L 171.048 1221.516 L 170.700 1217.911 L 170.345 1214.304 L 169.984 1210.696 L 169.617 1207.086 L 169.244 1203.474 L 168.864 1199.862 L 168.479 1196.247 L 168.087 1192.632 L 167.689 1189.014 L 167.285 1185.396 L 166.875 1181.775 L 166.459 1178.154 L 166.037 1174.531 L 165.610 1170.906 L 165.176 1167.281 L 164.737 1163.653 L 164.291 1160.025 L 163.840 1156.395 L 163.383 1152.763 L 162.921 1149.130 L 162.453 1145.496 L 161.979 1141.861 L 161.499 1138.224 L 161.014 1134.586 L 160.524 1130.946 L 160.028 1127.305 L 159.526 1123.663 L 159.019 1120.020 L 158.507 1116.375 L 157.989 1112.729 L 157.466 1109.081 L 156.938 1105.433 L 156.405 1101.783 L 155.866 1098.132 L 155.323 1094.479 L 154.774 1090.826 L 154.220 1087.171 L 153.661 1083.515 L 153.097 1079.858 L 152.529 1076.200 L 151.955 1072.540 L 151.377 1068.879 L 150.794 1065.218 L 150.206 1061.555 L 149.613 1057.891 L 149.016 1054.225 L 148.414 1050.559 L 147.808 1046.892 L 147.197 1043.223 L 146.582 1039.554 L 145.962 1035.883 L 145.338 1032.211 L 144.710 1028.539 L 144.077 1024.865 L 143.441 1021.190 L 142.800 1017.514 L 142.154 1013.838 L 141.505 1010.160 L 140.852 1006.481 L 140.195 1002.802 L 139.534 999.121 L 138.869 995.440 L 138.200 991.757 L 137.528 988.074 L 136.852 984.390 L 136.172 980.705 L 135.489 977.019 L 134.802 973.332 L 134.111 969.644 L 133.418 965.956 L 132.720 962.266 L 132.020 958.576 L 131.316 954.885 L 130.609 951.194 L 129.899 947.501 L 129.186 943.808 L 128.469 940.114 L 127.750 936.420 L 127.028 932.724 L 126.302 929.028 L 125.574 925.332 L 124.844 921.634 L 124.110 917.936 L 123.374 914.238 L 122.635 910.538 L 121.894 906.839 L 121.150 903.138 L 120.404 899.437 L 119.656 895.735 L 118.905 892.033 L 118.152 888.331 L 117.396 884.627 L 116.639 880.924 L 115.880 877.219 L 115.118 873.514 L 114.355 869.809 L 113.589 866.104 L 112.822 862.397 L 112.053 858.691 L 111.282 854.984 L 110.510 851.277 L 109.736 847.569 L 108.961 843.861 L 108.184 840.152 L 107.405 836.443 L 106.626 832.734 L 105.845 829.025 L 105.062 825.315 L 104.279 821.605 L 103.494 817.895 L 102.709 814.184 L 101.922 810.473 L 101.135 806.762 L 100.346 803.051 L 99.557 799.340 L 98.767 795.628 L 97.977 791.917 L 97.186 788.205 L 96.394 784.493 L 95.602 780.780 L 94.809 777.068 L 94.016 773.356 L 93.222 769.643 L 92.429 765.931 L 91.635 762.218 L 90.841 758.506 L 90.047 754.793 L 89.253 751.081 L 88.459 747.368 L 87.665 743.656 L 86.871 739.943 L 86.078 736.231 L 85.285 732.518 L 84.492 728.806 L 83.700 725.094 L 82.908 721.382 L 82.117 717.670 L 81.326 713.958 L 80.536 710.246 L 79.747 706.535 L 78.958 702.824 L 78.171 699.113 L 77.384 695.402 L 76.598 691.691 L 75.814 687.981 L 75.030 684.271 L 74.248 680.561 L 73.466 676.852 L 72.687 673.143 L 71.908 669.434 L 71.131 665.725 L 70.355 662.017 L 69.581 658.309 L 68.809 654.602 L 68.038 650.895 L 67.269 647.188 L 66.501 643.482 L 65.736 639.776 L 64.972 636.071 L 64.210 632.366 L 63.450 628.662 L 62.693 624.958 L 61.937 621.255 L 61.184 617.552 L 60.433 613.850 L 59.684 610.148 L 58.938 606.447 L 58.194 602.746 L 57.452 599.046 L 56.713 595.347 L 55.977 591.648 L 55.243 587.950 L 54.512 584.253 L 53.783 580.556 L 53.058 576.860 L 52.335 573.165 L 51.616 569.470 L 50.899 565.776 L 50.185 562.083 L 49.475 558.390 L 48.767 554.698 L 48.063 551.007 L 47.362 547.317 L 46.665 543.628 L 45.970 539.939 L 45.279 536.252 L 44.592 532.565 L 43.908 528.879 L 43.228 525.193 L 42.552 521.509 L 41.879 517.826 L 41.210 514.143 L 40.544 510.462 L 39.883 506.781 L 39.225 503.101 L 38.572 499.422 L 37.922 495.745 L 37.276 492.068 L 36.635 488.392 L 35.998 484.717 L 35.365 481.043 L 34.736 477.370 L 34.111 473.699 L 33.491 470.028 L 32.875 466.358 L 32.264 462.689 L 31.657 459.022 L 31.657 1860.000 L -31.657 1860.000 L -31.657 459.022 L -32.264 462.689 L -32.875 466.358 L -33.491 470.028 L -34.111 473.699 L -34.736 477.370 L -35.365 481.043 L -35.998 484.717 L -36.635 488.392 L -37.276 492.068 L -37.922 495.745 L -38.572 499.422 L -39.225 503.101 L -39.883 506.781 L -40.544 510.462 L -41.210 514.143 L -41.879 517.826 L -42.552 521.509 L -43.228 525.193 L -43.908 528.879 L -44.592 532.565 L -45.279 536.252 L -45.970 539.939 L -46.665 543.628 L -47.362 547.317 L -48.063 551.007 L -48.767 554.698 L -49.475 558.390 L -50.185 562.083 L -50.899 565.776 L -51.616 569.470 L -52.335 573.165 L -53.058 576.860 L -53.783 580.556 L -54.512 584.253 L -55.243 587.950 L -55.977 591.648 L -56.713 595.347 L -57.452 599.046 L -58.194 602.746 L -58.938 606.447 L -59.684 610.148 L -60.433 613.850 L -61.184 617.552 L -61.937 621.255 L -62.693 624.958 L -63.450 628.662 L -64.210 632.366 L -64.972 636.071 L -65.736 639.776 L -66.501 643.482 L -67.269 647.188 L -68.038 650.895 L -68.809 654.602 L -69.581 658.309 L -70.355 662.017 L -71.131 665.725 L -71.908 669.434 L -72.687 673.143 L -73.466 676.852 L -74.248 680.561 L -75.030 684.271 L -75.814 687.981 L -76.598 691.691 L -77.384 695.402 L -78.171 699.113 L -78.958 702.824 L -79.747 706.535 L -80.536 710.246 L -81.326 713.958 L -82.117 717.670 L -82.908 721.382 L -83.700 725.094 L -84.492 728.806 L -85.285 732.518 L -86.078 736.231 L -86.871 739.943 L -87.665 743.656 L -88.459 747.368 L -89.253 751.081 L -90.047 754.793 L -90.841 758.506 L -91.635 762.218 L -92.429 765.931 L -93.222 769.643 L -94.016 773.356 L -94.809 777.068 L -95.602 780.780 L -96.394 784.493 L -97.186 788.205 L -97.977 791.917 L -98.767 795.628 L -99.557 799.340 L -100.346 803.051 L -101.135 806.762 L -101.922 810.473 L -102.709 814.184 L -103.494 817.895 L -104.279 821.605 L -105.062 825.315 L -105.845 829.025 L -106.626 832.734 L -107.405 836.443 L -108.184 840.152 L -108.961 843.861 L -109.736 847.569 L -110.510 851.277 L -111.282 854.984 L -112.053 858.691 L -112.822 862.397 L -113.589 866.104 L -114.355 869.809 L -115.118 873.514 L -115.880 877.219 L -116.639 880.924 L -117.396 884.627 L -118.152 888.331 L -118.905 892.033 L -119.656 895.735 L -120.404 899.437 L -121.150 903.138 L -121.894 906.839 L -122.635 910.538 L -123.374 914.238 L -124.110 917.936 L -124.844 921.634 L -125.574 925.332 L -126.302 929.028 L -127.028 932.724 L -127.750 936.420 L -128.469 940.114 L -129.186 943.808 L -129.899 947.501 L -130.609 951.194 L -131.316 954.885 L -132.020 958.576 L -132.720 962.266 L -133.418 965.956 L -134.111 969.644 L -134.802 973.332 L -135.489 977.019 L -136.172 980.705 L -136.852 984.390 L -137.528 988.074 L -138.200 991.757 L -138.869 995.440 L -139.534 999.121 L -140.195 1002.802 L -140.852 1006.481 L -141.505 1010.160 L -142.154 1013.838 L -142.800 1017.514 L -143.441 1021.190 L -144.077 1024.865 L -144.710 1028.539 L -145.338 1032.211 L -145.962 1035.883 L -146.582 1039.554 L -147.197 1043.223 L -147.808 1046.892 L -148.414 1050.559 L -149.016 1054.225 L -149.613 1057.891 L -150.206 1061.555 L -150.794 1065.218 L -151.377 1068.879 L -151.955 1072.540 L -152.529 1076.200 L -153.097 1079.858 L -153.661 1083.515 L -154.220 1087.171 L -154.774 1090.826 L -155.323 1094.479 L -155.866 1098.132 L -156.405 1101.783 L -156.938 1105.433 L -157.466 1109.081 L -157.989 1112.729 L -158.507 1116.375 L -159.019 1120.020 L -159.526 1123.663 L -160.028 1127.305 L -160.524 1130.946 L -161.014 1134.586 L -161.499 1138.224 L -161.979 1141.861 L -162.453 1145.496 L -162.921 1149.130 L -163.383 1152.763 L -163.840 1156.395 L -164.291 1160.025 L -164.737 1163.653 L -165.176 1167.281 L -165.610 1170.906 L -166.037 1174.531 L -166.459 1178.154 L -166.875 1181.775 L -167.285 1185.396 L -167.689 1189.014 L -168.087 1192.632 L -168.479 1196.247 L -168.864 1199.862 L -169.244 1203.474 L -169.617 1207.086 L -169.984 1210.696 L -170.345 1214.304 L -170.700 1217.911 L -171.048 1221.516 L -171.390 1225.120 L -171.726 1228.722 L -172.055 1232.323 L -172.378 1235.922 L -172.695 1239.520 L -173.005 1243.116 L -173.309 1246.711 L -173.606 1250.304 L -173.897 1253.895 L -174.181 1257.485 L -174.458 1261.073 L -174.729 1264.660 L -174.994 1268.245 L -175.252 1271.829 L -175.503 1275.411 L -175.747 1278.991 L -175.985 1282.570 L -176.216 1286.147 L -176.441 1289.722 L -176.659 1293.296 L -176.870 1296.868 L -177.074 1300.439 L -177.271 1304.008 L -177.462 1307.575 L -177.646 1311.141 L -177.823 1314.705 L -177.993 1318.268 L -178.156 1321.828 L -178.313 1325.388 L -178.462 1328.945 L -178.605 1332.501 L -178.741 1336.055 L -178.870 1339.608 L -178.992 1343.158 L -179.107 1346.708 L -179.215 1350.255 L -179.316 1353.801 L -179.410 1357.345 L -179.498 1360.888 L -179.578 1364.428 L -179.651 1367.968 L -179.718 1371.505 L -179.777 1375.041 L -179.829 1378.575 L -179.875 1382.107 L -179.913 1385.638 L -179.944 1389.167 L -179.969 1392.694 L -179.986 1396.220 L -179.997 1399.744 L -180.000 1403.266 L -179.995 1406.787 L -179.981 1410.305 L -179.958 1413.821 L -179.925 1417.334 L -179.884 1420.846 L -179.832 1424.355 L -179.772 1427.862 L -179.703 1431.367 L -179.624 1434.869 L -179.536 1438.370 L -179.439 1441.868 L -179.332 1445.364 L -179.217 1448.857 L -179.092 1452.349 L -178.958 1455.838 L -178.815 1459.325 L -178.663 1462.810 L -178.502 1466.293 L -178.332 1469.773 L -178.152 1473.252 L -177.964 1476.728 L -177.766 1480.202 L -177.559 1483.673 L -177.344 1487.143 L -177.119 1490.610 L -176.886 1494.076 L -176.643 1497.539 L -176.392 1501.000 L -176.132 1504.459 L -175.862 1507.915 L -175.584 1511.370 L -175.298 1514.822 L -175.002 1518.273 L -174.698 1521.721 L -174.385 1525.167 L -174.063 1528.611 L -173.733 1532.053 L -173.394 1535.493 L -173.047 1538.931 L -172.691 1542.367 L -172.326 1545.801 L -171.953 1549.232 L -171.572 1552.662 L -171.182 1556.090 L -170.784 1559.516 L -170.377 1562.939 L -169.963 1566.361 L -169.540 1569.781 L -169.108 1573.198 L -168.669 1576.614 L -168.222 1580.028 L -167.766 1583.440 L -167.303 1586.850 L -166.832 1590.258 L -166.352 1593.664 L -165.865 1597.068 L -165.370 1600.471 L -164.868 1603.871 L -164.357 1607.270 L -163.839 1610.667 L -163.314 1614.062 L -162.781 1617.455 L -162.240 1620.846 L -161.692 1624.236 L -161.137 1627.624 L -160.574 1631.010 L -160.004 1634.394 L -159.427 1637.777 L -158.843 1641.158 L -158.251 1644.537 L -157.653 1647.914 L -157.047 1651.290 L -156.435 1654.664 L -155.816 1658.037 L -155.190 1661.407 L -154.558 1664.777 L -153.918 1668.144 L -153.273 1671.510 L -152.620 1674.875 L -151.962 1678.238 L -151.296 1681.599 L -150.625 1684.959 L -149.947 1688.318 L -149.264 1691.675 L -148.574 1695.030 L -147.878 1698.384 L -147.176 1701.737 L -146.468 1705.088 L -145.755 1708.438 L -145.035 1711.786 L -144.310 1715.133 L -143.580 1718.479 L -142.844 1721.823 L -142.102 1725.166 L -141.356 1728.508 L -140.603 1731.848 L -139.846 1735.188 L -139.084 1738.526 L -138.316 1741.862 L -137.544 1745.198 L -136.766 1748.532 L -135.984 1751.866 L -135.197 1755.198 L -134.406 1758.529 L -133.610 1761.859 L -132.809 1765.187 L -132.004 1768.515 L -131.195 1771.842 L -130.381 1775.168 L -129.564 1778.492 L -128.742 1781.816 L -127.916 1785.139 L -127.086 1788.461 L -126.253 1791.782 L -125.416 1795.102 L -124.575 1798.421 L -123.731 1801.739 L -122.883 1805.056 L -122.032 1808.373 L -121.177 1811.689 L -120.319 1815.004 L -119.458 1818.318 L -118.595 1821.632 L -117.728 1824.945 L -116.858 1828.257 L -115.986 1831.569 L -115.110 1834.879 L -114.233 1838.190 L -113.353 1841.499 L -112.470 1844.808 L -111.585 1848.117 L -110.698 1851.425 L -109.809 1854.732 L -108.918 1858.039 Z" fill="#e4d4b5" stroke="#222" stroke-width="3.0"/>
<rect x="-19.500" y="146.563" width="39.000" height="1713.437" fill="#d4c59c" stroke="#222" stroke-width="1.2"/>
<line x1="-250" y1="1860.000" x2="250" y2="1860.000" stroke="#4a7c2e" stroke-width="3.0" stroke-dasharray="8 4"/>
<rect x="6.350" y="146.563" width="6.000" height="482.323" fill="#c79568" stroke="#8b4513" stroke-width="1.2"/>
<rect x="-12.350" y="146.563" width="6.000" height="482.323" fill="#c79568" stroke="#8b4513" stroke-width="1.2"/>
<rect x="-31.750" y="126.963" width="19.400" height="39.200" fill="#d46a3a" fill-opacity="0.55" stroke="#000" stroke-width="0.3"/>
<rect x="12.350" y="123.509" width="19.400" height="39.200" fill="#3a6fd4" fill-opacity="0.55" stroke="#000" stroke-width="0.3"/>
<rect x="-31.750" y="120.054" width="19.400" height="39.200" fill="#d46a3a" fill-opacity="0.55" stroke="#000" stroke-width="0.3"/>
<rect x="12.350" y="116.600" width="19.400" height="39.200" fill="#3a6fd4" fill-opacity="0.55" stroke="#000" stroke-width="0.3"/>
<rect x="-31.750" y="118.175" width="19.400" height="39.200" fill="#d46a3a" fill-opacity="0.55" stroke="#000" stroke-width="0.3"/>
<rect x="12.350" y="119.775" width="19.400" height="39.200" fill="#3a6fd4" fill-opacity="0.55" stroke="#000" stroke-width="0.3"/>
<rect x="-31.750" y="121.375" width="19.400" height="39.200" fill="#d46a3a" fill-opacity="0.55" stroke="#000" stroke-width="0.3"/>
<rect x="12.350" y="122.975" width="19.400" height="39.200" fill="#3a6fd4" fill-opacity="0.55" stroke="#000" stroke-width="0.3"/>
<rect x="-31.750" y="129.630" width="19.400" height="39.200" fill="#d46a3a" fill-opacity="0.55" stroke="#000" stroke-width="0.3"/>
<rect x="12.350" y="141.314" width="19.400" height="39.200" fill="#3a6fd4" fill-opacity="0.55" stroke="#000" stroke-width="0.3"/>
<rect x="-31.750" y="132.780" width="19.400" height="39.200" fill="#d46a3a" fill-opacity="0.55" stroke="#000" stroke-width="0.3"/>
<rect x="12.350" y="139.435" width="19.400" height="39.200" fill="#3a6fd4" fill-opacity="0.55" stroke="#000" stroke-width="0.3"/>
<rect x="-31.750" y="187.288" width="19.400" height="39.200" fill="#d46a3a" fill-opacity="0.55" stroke="#000" stroke-width="0.3"/>
<rect x="12.350" y="214.974" width="19.400" height="39.200" fill="#3a6fd4" fill-opacity="0.55" stroke="#000" stroke-width="0.3"/>
<rect x="-31.750" y="252.719" width="19.400" height="39.200" fill="#d46a3a" fill-opacity="0.55" stroke="#000" stroke-width="0.3"/>
<rect x="12.350" y="290.488" width="19.400" height="39.200" fill="#3a6fd4" fill-opacity="0.55" stroke="#000" stroke-width="0.3"/>
<rect x="-31.750" y="324.855" width="19.400" height="39.200" fill="#d46a3a" fill-opacity="0.55" stroke="#000" stroke-width="0.3"/>
<rect x="12.350" y="369.279" width="19.400" height="39.200" fill="#3a6fd4" fill-opacity="0.55" stroke="#000" stroke-width="0.3"/>
<rect x="-31.750" y="403.645" width="19.400" height="39.200" fill="#d46a3a" fill-opacity="0.55" stroke="#000" stroke-width="0.3"/>
<rect x="12.350" y="444.666" width="19.400" height="39.200" fill="#3a6fd4" fill-opacity="0.55" stroke="#000" stroke-width="0.3"/>
<rect x="-31.750" y="465.520" width="19.400" height="39.200" fill="#d46a3a" fill-opacity="0.55" stroke="#000" stroke-width="0.3"/>
<rect x="12.350" y="491.428" width="19.400" height="39.200" fill="#3a6fd4" fill-opacity="0.55" stroke="#000" stroke-width="0.3"/>
<rect x="-31.750" y="512.256" width="19.400" height="39.200" fill="#d46a3a" fill-opacity="0.55" stroke="#000" stroke-width="0.3"/>
<rect x="12.350" y="528.029" width="19.400" height="39.200" fill="#3a6fd4" fill-opacity="0.55" stroke="#000" stroke-width="0.3"/>
<rect x="-31.750" y="538.799" width="19.400" height="39.200" fill="#d46a3a" fill-opacity="0.55" stroke="#000" stroke-width="0.3"/>
<rect x="12.350" y="549.543" width="19.400" height="39.200" fill="#3a6fd4" fill-opacity="0.55" stroke="#000" stroke-width="0.3"/>
<rect x="-31.750" y="556.884" width="19.400" height="39.200" fill="#d46a3a" fill-opacity="0.55" stroke="#000" stroke-width="0.3"/>
<rect x="12.350" y="564.199" width="19.400" height="39.200" fill="#3a6fd4" fill-opacity="0.55" stroke="#000" stroke-width="0.3"/>
<rect x="-31.750" y="566.485" width="19.400" height="39.200" fill="#d46a3a" fill-opacity="0.55" stroke="#000" stroke-width="0.3"/>
<rect x="12.350" y="568.771" width="19.400" height="39.200" fill="#3a6fd4" fill-opacity="0.55" stroke="#000" stroke-width="0.3"/>
<rect x="-31.750" y="571.057" width="19.400" height="39.200" fill="#d46a3a" fill-opacity="0.55" stroke="#000" stroke-width="0.3"/>
<rect x="12.350" y="563.234" width="19.400" height="39.200" fill="#3a6fd4" fill-opacity="0.55" stroke="#000" stroke-width="0.3"/>
<rect x="-31.750" y="565.520" width="19.400" height="39.200" fill="#d46a3a" fill-opacity="0.55" stroke="#000" stroke-width="0.3"/>
<rect x="12.350" y="559.347" width="19.400" height="39.200" fill="#3a6fd4" fill-opacity="0.55" stroke="#000" stroke-width="0.3"/>
<rect x="-31.750" y="553.175" width="19.400" height="39.200" fill="#d46a3a" fill-opacity="0.55" stroke="#000" stroke-width="0.3"/>
<rect x="12.350" y="547.003" width="19.400" height="39.200" fill="#3a6fd4" fill-opacity="0.55" stroke="#000" stroke-width="0.3"/>
<rect x="-31.750" y="540.831" width="19.400" height="39.200" fill="#d46a3a" fill-opacity="0.55" stroke="#000" stroke-width="0.3"/>
<rect x="12.350" y="534.659" width="19.400" height="39.200" fill="#3a6fd4" fill-opacity="0.55" stroke="#000" stroke-width="0.3"/>
<rect x="-31.750" y="528.486" width="19.400" height="39.200" fill="#d46a3a" fill-opacity="0.55" stroke="#000" stroke-width="0.3"/>
<rect x="12.350" y="522.289" width="19.400" height="39.200" fill="#3a6fd4" fill-opacity="0.55" stroke="#000" stroke-width="0.3"/>
<rect x="-31.750" y="511.087" width="19.400" height="39.200" fill="#d46a3a" fill-opacity="0.55" stroke="#000" stroke-width="0.3"/>
<rect x="12.350" y="499.835" width="19.400" height="39.200" fill="#3a6fd4" fill-opacity="0.55" stroke="#000" stroke-width="0.3"/>
<rect x="-31.750" y="488.634" width="19.400" height="39.200" fill="#d46a3a" fill-opacity="0.55" stroke="#000" stroke-width="0.3"/>
<rect x="12.350" y="477.382" width="19.400" height="39.200" fill="#3a6fd4" fill-opacity="0.55" stroke="#000" stroke-width="0.3"/>
<rect x="-31.750" y="466.180" width="19.400" height="39.200" fill="#d46a3a" fill-opacity="0.55" stroke="#000" stroke-width="0.3"/>
<rect x="12.350" y="454.953" width="19.400" height="39.200" fill="#3a6fd4" fill-opacity="0.55" stroke="#000" stroke-width="0.3"/>
<rect x="-31.750" y="443.727" width="19.400" height="39.200" fill="#d46a3a" fill-opacity="0.55" stroke="#000" stroke-width="0.3"/>
<line x1="0" y1="0" x2="0" y2="1860.000" stroke="#888" stroke-width="0.5" stroke-dasharray="6 4"/>
</svg>