<?xml version="1.0" encoding="UTF-8"?>
<svg xmlns="http://www.w3.org/2000/svg" viewBox="-240 -20 480 1980" preserveAspectRatio="xMidYMid meet">
<title>Rear view</title>
<rect x="-240" y="-20" width="480" height="1980" fill="#fff"/>
<path d="M -87.374 1936.531 L -88.322 1933.099 L -89.271 1929.667 L -90.219 1926.235 L -91.168 1922.803 L -92.116 1919.371 L -93.065 1915.939 L -94.013 1912.507 L -94.960 1909.075 L -95.907 1905.642 L -96.853 1902.210 L -97.799 1898.777 L -98.743 1895.344 L -99.687 1891.911 L -100.629 1888.478 L -101.571 1885.044 L -102.511 1881.610 L -103.449 1878.175 L -104.387 1874.741 L -105.322 1871.306 L -106.256 1867.870 L -107.188 1864.434 L -108.118 1860.998 L -109.047 1857.561 L -109.973 1854.124 L -110.897 1850.686 L -111.818 1847.247 L -112.737 1843.808 L -113.654 1840.368 L -114.568 1836.928 L -115.479 1833.487 L -116.387 1830.046 L -117.293 1826.603 L -118.195 1823.160 L -119.094 1819.716 L -119.990 1816.272 L -120.883 1812.826 L -121.772 1809.380 L -122.658 1805.933 L -123.540 1802.485 L -124.419 1799.036 L -125.293 1795.586 L -126.164 1792.136 L -127.031 1788.684 L -127.893 1785.231 L -128.751 1781.778 L -129.605 1778.323 L -130.455 1774.867 L -131.300 1771.410 L -132.141 1767.952 L -132.976 1764.493 L -133.808 1761.033 L -134.634 1757.571 L -135.455 1754.109 L -136.271 1750.645 L -137.082 1747.180 L -137.888 1743.714 L -138.689 1740.246 L -139.484 1736.777 L -140.273 1733.307 L -141.057 1729.835 L -141.836 1726.362 L -142.608 1722.888 L -143.375 1719.412 L -144.136 1715.935 L -144.891 1712.457 L -145.639 1708.977 L -146.382 1705.495 L -147.118 1702.012 L -147.848 1698.527 L -148.571 1695.041 L -149.288 1691.553 L -149.999 1688.064 L -150.703 1684.573 L -151.400 1681.081 L -152.090 1677.587 L -152.773 1674.091 L -153.449 1670.593 L -154.118 1667.094 L -154.781 1663.593 L -155.435 1660.091 L -156.083 1656.586 L -156.723 1653.080 L -157.356 1649.572 L -157.982 1646.062 L -158.600 1642.551 L -159.210 1639.037 L -159.812 1635.522 L -160.407 1632.005 L -160.994 1628.486 L -161.573 1624.965 L -162.144 1621.442 L -162.707 1617.918 L -163.262 1614.391 L -163.809 1610.862 L -164.348 1607.332 L -164.879 1603.799 L -165.401 1600.265 L -165.914 1596.728 L -166.420 1593.189 L -166.917 1589.649 L -167.405 1586.106 L -167.885 1582.561 L -168.356 1579.014 L -168.818 1575.465 L -169.271 1571.914 L -169.716 1568.361 L -170.152 1564.805 L -170.579 1561.248 L -170.997 1557.688 L -171.406 1554.127 L -171.806 1550.563 L -172.197 1546.996 L -172.579 1543.428 L -172.951 1539.857 L -173.315 1536.285 L -173.669 1532.710 L -174.014 1529.132 L -174.349 1525.553 L -174.676 1521.971 L -174.992 1518.387 L -175.300 1514.801 L -175.597 1511.212 L -175.886 1507.621 L -176.164 1504.028 L -176.434 1500.433 L -176.693 1496.835 L -176.943 1493.235 L -177.183 1489.632 L -177.414 1486.028 L -177.635 1482.421 L -177.846 1478.811 L -178.048 1475.199 L -178.239 1471.585 L -178.421 1467.969 L -178.593 1464.350 L -178.755 1460.729 L -178.907 1457.105 L -179.050 1453.479 L -179.182 1449.851 L -179.305 1446.220 L -179.418 1442.587 L -179.520 1438.951 L -179.613 1435.313 L -179.696 1431.673 L -179.769 1428.030 L -179.832 1424.385 L -179.885 1420.738 L -179.928 1417.088 L -179.961 1413.436 L -179.984 1409.781 L -179.997 1406.124 L -180.000 1402.464 L -179.995 1398.803 L -179.982 1395.139 L -179.961 1391.474 L -179.933 1387.807 L -179.898 1384.138 L -179.854 1380.468 L -179.804 1376.795 L -179.746 1373.121 L -179.680 1369.445 L -179.606 1365.767 L -179.526 1362.087 L -179.437 1358.406 L -179.341 1354.722 L -179.238 1351.037 L -179.127 1347.350 L -179.008 1343.662 L -178.883 1339.971 L -178.749 1336.279 L -178.608 1332.585 L -178.460 1328.889 L -178.304 1325.191 L -178.141 1321.491 L -177.971 1317.790 L -177.793 1314.087 L -177.607 1310.382 L -177.414 1306.675 L -177.214 1302.967 L -177.007 1299.257 L -176.792 1295.545 L -176.570 1291.831 L -176.341 1288.116 L -176.104 1284.399 L -175.861 1280.680 L -175.609 1276.959 L -175.351 1273.237 L -175.086 1269.513 L -174.813 1265.787 L -174.534 1262.059 L -174.247 1258.330 L -173.953 1254.599 L -173.652 1250.866 L -173.344 1247.132 L -173.029 1243.396 L -172.707 1239.658 L -172.378 1235.919 L -172.042 1232.178 L -171.699 1228.435 L -171.350 1224.690 L -170.993 1220.944 L -170.630 1217.197 L -170.260 1213.447 L -169.883 1209.696 L -169.500 1205.944 L -169.109 1202.190 L -168.713 1198.434 L -168.309 1194.677 L -167.899 1190.918 L -167.482 1187.157 L -167.059 1183.395 L -166.630 1179.631 L -166.194 1175.866 L -165.751 1172.100 L -165.302 1168.331 L -164.847 1164.561 L -164.386 1160.790 L -163.918 1157.017 L -163.444 1153.243 L -162.964 1149.467 L -162.478 1145.690 L -161.985 1141.911 L -161.487 1138.131 L -160.983 1134.349 L -160.472 1130.566 L -159.956 1126.782 L -159.434 1122.996 L -158.906 1119.209 L -158.372 1115.420 L -157.832 1111.630 L -157.287 1107.838 L -156.736 1104.045 L -156.179 1100.251 L -155.617 1096.456 L -155.050 1092.659 L -154.477 1088.861 L -153.898 1085.061 L -153.314 1081.260 L -152.725 1077.458 L -152.131 1073.655 L -151.531 1069.851 L -150.926 1066.045 L -150.316 1062.238 L -149.701 1058.429 L -149.081 1054.620 L -148.456 1050.809 L -147.826 1046.997 L -147.191 1043.184 L -146.551 1039.370 L -145.907 1035.555 L -145.258 1031.738 L -144.604 1027.921 L -143.945 1024.102 L -143.283 1020.282 L -142.615 1016.461 L -141.943 1012.639 L -141.267 1008.816 L -140.587 1004.992 L -139.902 1001.167 L -139.213 997.341 L -138.520 993.514 L -137.823 989.686 L -137.122 985.857 L -136.417 982.027 L -135.707 978.196 L -134.995 974.365 L -134.278 970.532 L -133.558 966.698 L -132.833 962.864 L -132.106 959.028 L -131.375 955.192 L -130.640 951.355 L -129.902 947.517 L -129.160 943.679 L -128.416 939.839 L -127.668 935.999 L -126.917 932.158 L -126.162 928.316 L -125.405 924.474 L -124.645 920.630 L -123.882 916.786 L -123.116 912.942 L -122.347 909.097 L -121.575 905.251 L -120.801 901.404 L -120.024 897.557 L -119.245 893.709 L -118.463 889.861 L -117.679 886.012 L -116.893 882.162 L -116.104 878.312 L -115.313 874.462 L -114.520 870.610 L -113.725 866.759 L -112.928 862.907 L -112.129 859.054 L -111.328 855.201 L -110.525 851.348 L -109.721 847.494 L -108.914 843.640 L -108.107 839.785 L -107.298 835.930 L -106.487 832.075 L -105.675 828.219 L -104.861 824.363 L -104.047 820.507 L -103.231 816.650 L -102.414 812.793 L -101.596 808.936 L -100.777 805.079 L -99.957 801.221 L -99.137 797.364 L -98.315 793.506 L -97.493 789.648 L -96.670 785.789 L -95.847 781.931 L -95.023 778.072 L -94.199 774.214 L -93.374 770.355 L -92.550 766.496 L -91.724 762.638 L -90.899 758.779 L -90.074 754.920 L -89.249 751.061 L -88.423 747.202 L -87.598 743.343 L -86.773 739.484 L -85.949 735.626 L -85.124 731.767 L -84.300 727.909 L -83.477 724.050 L -82.654 720.192 L -81.832 716.334 L -81.010 712.476 L -80.190 708.618 L -79.370 704.760 L -78.550 700.903 L -77.732 697.046 L -76.915 693.189 L -76.099 689.332 L -75.284 685.476 L -74.471 681.620 L -73.659 677.764 L -72.848 673.909 L -72.038 670.054 L -71.230 666.199 L -70.424 662.345 L -69.619 658.491 L -68.816 654.637 L -68.015 650.784 L -67.215 646.932 L -66.418 643.080 L -65.622 639.228 L -64.829 635.377 L -64.038 631.526 L -63.249 627.676 L -62.462 623.826 L -61.677 619.977 L -60.895 616.129 L -60.115 612.281 L -59.338 608.433 L -58.563 604.587 L -57.791 600.741 L -57.022 596.895 L -56.255 593.051 L -55.492 589.207 L -54.731 585.363 L -53.973 581.521 L -53.218 577.679 L -52.467 573.838 L -51.718 569.997 L -50.973 566.157 L -50.231 562.319 L -49.492 558.481 L -48.757 554.643 L -48.025 550.807 L -47.297 546.972 L -46.572 543.137 L -45.851 539.303 L -45.134 535.470 L -44.420 531.638 L -43.710 527.807 L -43.004 523.977 L -42.302 520.148 L -41.605 516.320 L -40.911 512.492 L -40.221 508.666 L -39.536 504.841 L -38.854 501.017 L -38.177 497.194 L -37.505 493.372 L -36.837 489.551 L -36.173 485.731 L -35.514 481.912 L -34.859 478.094 L -34.209 474.277 L -33.564 470.462 L -32.923 466.647 L -32.288 462.834 L -31.657 459.022 L 31.657 459.022 L 32.288 462.834 L 32.923 466.647 L 33.564 470.462 L 34.209 474.277 L 34.859 478.094 L 35.514 481.912 L 36.173 485.731 L 36.837 489.551 L 37.505 493.372 L 38.177 497.194 L 38.854 501.017 L 39.536 504.841 L 40.221 508.666 L 40.911 512.492 L 41.605 516.320 L 42.302 520.148 L 43.004 523.977 L 43.710 527.807 L 44.420 531.638 L 45.134 535.470 L 45.851 539.303 L 46.572 543.137 L 47.297 546.972 L 48.025 550.807 L 48.757 554.643 L 49.492 558.481 L 50.231 562.319 L 50.973 566.157 L 51.718 569.997 L 52.467 573.838 L 53.218 577.679 L 53.973 581.521 L 54.731 585.363 L 55.492 589.207 L 56.255 593.051 L 57.022 596.895 L 57.791 600.741 L 58.563 604.587 L 59.338 608.433 L 60.115 612.281 L 60.895 616.129 L 61.677 619.977 L 62.462 623.826 L 63.249 627.676 L 64.038 631.526 L 64.829 635.377 L 65.622 639.228 L 66.418 643.080 L 67.215 646.932 L 68.015 650.784 L 68.816 654.637 L 69.619 658.491 L 70.424 662.345 L 71.230 666.199 L 72.038 670.054 L 72.848 673.909 L 73.659 677.764 L 74.471 681.620 L 75.284 685.476 L 76.099 689.332 L 76.915 693.189 L 77.732 697.046 L 78.550 700.903 L 79.370 704.760 L 80.190 708.618 L 81.010 712.476 L 81.832 716.334 L 82.654 720.192 L 83.477 724.050 L 84.300 727.909 L 85.124 731.767 L 85.949 735.626 L 86.773 739.484 L 87.598 743.343 L 88.423 747.202 L 89.249 751.061 L 90.074 754.920 L 90.899 758.779 L 91.724 762.638 L 92.550 766.496 L 93.374 770.355 L 94.199 774.214 L 95.023 778.072 L 95.847 781.931 L 96.670 785.789 L 97.493 789.648 L 98.315 793.506 L 99.137 797.364 L 99.957 801.221 L 100.777 805.079 L 101.596 808.936 L 102.414 812.793 L 103.231 816.650 L 104.047 820.507 L 104.861 824.363 L 105.675 828.219 L 106.487 832.075 L 107.298 835.930 L 108.107 839.785 L 108.914 843.640 L 109.721 847.494 L 110.525 851.348 L 111.328 855.201 L 112.129 859.054 L 112.928 862.907 L 113.725 866.759 L 114.520 870.610 L 115.313 874.462 L 116.104 878.312 L 116.893 882.162 L 117.679 886.012 L 118.463 889.861 L 119.245 893.709 L 120.024 897.557 L 120.801 901.404 L 121.575 905.251 L 122.347 909.097 L 123.116 912.942 L 123.882 916.786 L 124.645 920.630 L 125.405 924.474 L 126.162 928.316 L 126.917 932.158 L 127.668 935.999 L 128.416 939.839 L 129.160 943.679 L 129.902 947.517 L 130.640 951.355 L 131.375 955.192 L 132.106 959.028 L 132.833 962.864 L 133.558 966.698 L 134.278 970.532 L 134.995 974.365 L 135.707 978.196 L 136.417 982.027 L 137.122 985.857 L 137.823 989.686 L 138.520 993.514 L 139.213 997.341 L 139.902 1001.167 L 140.587 1004.992 L 141.267 1008.816 L 141.943 1012.639 L 142.615 1016.461 L 143.283 1020.282 L 143.945 1024.102 L 144.604 1027.921 L 145.258 1031.738 L 145.907 1035.555 L 146.551 1039.370 L 147.191 1043.184 L 147.826 1046.997 L 148.456 1050.809 L 149.081 1054.620 L 149.701 1058.429 L 150.316 1062.238 L 150.926 1066.045 L 151.531 1069.851 L 152.131 1073.655 L 152.725 1077.458 L 153.314 1081.260 L 153.898 1085.061 L 154.477 1088.861 L 155.050 1092.659 L 155.617 1096.456 L 156.179 1100.251 L 156.736 1104.045 L 157.287 1107.838 L 157.832 1111.630 L 158.372 1115.420 L 158.906 1119.209 L 159.434 1122.996 L 159.956 1126.782 L 160.472 1130.566 L 160.983 1134.349 L 161.487 1138.131 L 161.985 1141.911 L 162.478 1145.690 L 162.964 1149.467 L 163.444 1153.243 L 163.918 1157.017 L 164.386 1160.790 L 164.847 1164.561 L 165.302 1168.331 L 165.751 1172.100 L 166.194 1175.866 L 166.630 1179.631 L 167.059 1183.395 L 167.482 1187.157 L 167.899 1190.918 L 168.309 1194.677 L 168.713 1198.434 L 169.109 1202.190 L 169.500 1205.944 L 169.883 1209.696 L 170.260 1213.447 L 170.630 1217.197 L 170.993 1220.944 L 171.350 1224.690 L 171.699 1228.435 L 172.042 1232.178 L 172.378 1235.919 L 172.707 1239.658 L 173.029 1243.396 L 173.344 1247.132 L 173.652 1250.866 L 173.953 1254.599 L 174.247 1258.330 L 174.534 1262.059 L 174.813 1265.787 L 175.086 1269.513 L 175.351 1273.237 L 175.609 1276.959 L 175.861 1280.680 L 176.104 1284.399 L 176.341 1288.116 L 176.570 1291.831 L 176.792 1295.545 L 177.007 1299.257 L 177.214 1302.967 L 177.414 1306.675 L 177.607 1310.382 L 177.793 1314.087 L 177.971 1317.790 L 178.141 1321.491 L 178.304 1325.191 L 178.460 1328.889 L 178.608 1332.585 L 178.749 1336.279 L 178.883 1339.971 L 179.008 1343.662 L 179.127 1347.350 L 179.238 1351.037 L 179.341 1354.722 L 179.437 1358.406 L 179.526 1362.087 L 179.606 1365.767 L 179.680 1369.445 L 179.746 1373.121 L 179.804 1376.795 L 179.854 1380.468 L 179.898 1384.138 L 179.933 1387.807 L 179.961 1391.474 L 179.982 1395.139 L 179.995 1398.803 L 180.000 1402.464 L 179.997 1406.124 L 179.984 1409.781 L 179.961 1413.436 L 179.928 1417.088 L 179.885 1420.738 L 179.832 1424.385 L 179.769 1428.030 L 179.696 1431.673 L 179.613 1435.313 L 179.520 1438.951 L 179.418 1442.587 L 179.305 1446.220 L 179.182 1449.851 L 179.050 1453.479 L 178.907 1457.105 L 178.755 1460.729 L 178.593 1464.350 L 178.421 1467.969 L 178.239 1471.585 L 178.048 1475.199 L 177.846 1478.811 L 177.635 1482.421 L 177.414 1486.028 L 177.183 1489.632 L 176.943 1493.235 L 176.693 1496.835 L 176.434 1500.433 L 176.164 1504.028 L 175.886 1507.621 L 175.597 1511.212 L 175.300 1514.801 L 174.992 1518.387 L 174.676 1521.971 L 174.349 1525.553 L 174.014 1529.132 L 173.669 1532.710 L 173.315 1536.285 L 172.951 1539.857 L 172.579 1543.428 L 172.197 1546.996 L 171.806 1550.563 L 171.406 1554.127 L 170.997 1557.688 L 170.579 1561.248 L 170.152 1564.805 L 169.716 1568.361 L 169.271 1571.914 L 168.818 1575.465 L 168.356 1579.014 L 167.885 1582.561 L 167.405 1586.106 L 166.917 1589.649 L 166.420 1593.189 L 165.914 1596.728 L 165.401 1600.265 L 164.879 1603.799 L 164.348 1607.332 L 163.809 1610.862 L 163.262 1614.391 L 162.707 1617.918 L 162.144 1621.442 L 161.573 1624.965 L 160.994 1628.486 L 160.407 1632.005 L 159.812 1635.522 L 159.210 1639.037 L 158.600 1642.551 L 157.982 1646.062 L 157.356 1649.572 L 156.723 1653.080 L 156.083 1656.586 L 155.435 1660.091 L 154.781 1663.593 L 154.118 1667.094 L 153.449 1670.593 L 152.773 1674.091 L 152.090 1677.587 L 151.400 1681.081 L 150.703 1684.573 L 149.999 1688.064 L 149.288 1691.553 L 148.571 1695.041 L 147.848 1698.527 L 147.118 1702.012 L 146.382 1705.495 L 145.639 1708.977 L 144.891 1712.457 L 144.136 1715.935 L 143.375 1719.412 L 142.608 1722.888 L 141.836 1726.362 L 141.057 1729.835 L 140.273 1733.307 L 139.484 1736.777 L 138.689 1740.246 L 137.888 1743.714 L 137.082 1747.180 L 136.271 1750.645 L 135.455 1754.109 L 134.634 1757.571 L 133.808 1761.033 L 132.976 1764.493 L 132.141 1767.952 L 131.300 1771.410 L 130.455 1774.867 L 129.605 1778.323 L 128.751 1781.778 L 127.893 1785.231 L 127.031 1788.684 L 126.164 1792.136 L 125.293 1795.586 L 124.419 1799.036 L 123.540 1802.485 L 122.658 1805.933 L 121.772 1809.380 L 120.883 1812.826 L 119.990 1816.272 L 119.094 1819.716 L 118.195 1823.160 L 117.293 1826.603 L 116.387 1830.046 L 115.479 1833.487 L 114.568 1836.928 L 113.654 1840.368 L 112.737 1843.808 L 111.818 1847.247 L 110.897 1850.686 L 109.973 1854.124 L 109.047 1857.561 L 108.118 1860.998 L 107.188 1864.434 L 106.256 1867.870 L 105.322 1871.306 L 104.387 1874.741 L 103.449 1878.175 L 102.511 1881.610 L 101.571 1885.044 L 100.629 1888.478 L 99.687 1891.911 L 98.743 1895.344 L 97.799 1898.777 L 96.853 1902.210 L 95.907 1905.642 L 94.960 1909.075 L 94.013 1912.507 L 93.065 1915.939 L 92.116 1919.371 L 91.168 1922.803 L 90.219 1926.235 L 89.271 1929.667 L 88.322 1933.099 L 87.374 1936.531 Z" fill="#e4d4b5" fill-opacity="0.8" stroke="#222" stroke-width="3.0"/>
<rect x="-19.500" y="146.563" width="39.000" height="1768.937" fill="#d4c59c" stroke="#222" stroke-width="1.2"/>
<line x1="-250" y1="1915.500" x2="250" y2="1915.500" stroke="#4a7c2e" stroke-width="3.0" stroke-dasharray="8 4"/>
<rect x="6.350" y="146.558" width="6.000" height="486.270" fill="#c79568" stroke="#8b4513" stroke-width="1.2"/>
<rect x="-12.350" y="146.558" width="6.000" height="486.270" fill="#c79568" stroke="#8b4513" stroke-width="1.2"/>
<rect x="-34.350" y="129.063" width="22.000" height="35.000" fill="#d46a3a" fill-opacity="0.55" stroke="#000" stroke-width="0.3"/>
<rect x="12.350" y="125.609" width="22.000" height="35.000" fill="#3a6fd4" fill-opacity="0.55" stroke="#000" stroke-width="0.3"/>
<rect x="-34.350" y="122.154" width="22.000" height="35.000" fill="#d46a3a" fill-opacity="0.55" stroke="#000" stroke-width="0.3"/>
<rect x="12.350" y="118.700" width="22.000" height="35.000" fill="#3a6fd4" fill-opacity="0.55" stroke="#000" stroke-width="0.3"/>
<rect x="-34.350" y="120.275" width="22.000" height="35.000" fill="#d46a3a" fill-opacity="0.55" stroke="#000" stroke-width="0.3"/>
<rect x="12.350" y="121.875" width="22.000" height="35.000" fill="#3a6fd4" fill-opacity="0.55" stroke="#000" stroke-width="0.3"/>
<rect x="-34.350" y="123.475" width="22.000" height="35.000" fill="#d46a3a" fill-opacity="0.55" stroke="#000" stroke-width="0.3"/>
<rect x="12.350" y="125.075" width="22.000" height="35.000" fill="#3a6fd4" fill-opacity="0.55" stroke="#000" stroke-width="0.3"/>
<rect x="-34.350" y="131.730" width="22.000" height="35.000" fill="#d46a3a" fill-opacity="0.55" stroke="#000" stroke-width="0.3"/>
<rect x="12.350" y="143.414" width="22.000" height="35.000" fill="#3a6fd4" fill-opacity="0.55" stroke="#000" stroke-width="0.3"/>
<rect x="-34.350" y="134.880" width="22.000" height="35.000" fill="#d46a3a" fill-opacity="0.55" stroke="#000" stroke-width="0.3"/>
<rect x="12.350" y="141.535" width="22.000" height="35.000" fill="#3a6fd4" fill-opacity="0.55" stroke="#000" stroke-width="0.3"/>
<rect x="-34.350" y="189.388" width="22.000" height="35.000" fill="#d46a3a" fill-opacity="0.55" stroke="#000" stroke-width="0.3"/>
<rect x="12.350" y="217.074" width="22.000" height="35.000" fill="#3a6fd4" fill-opacity="0.55" stroke="#000" stroke-width="0.3"/>
<rect x="-34.350" y="254.819" width="22.000" height="35.000" fill="#d46a3a" fill-opacity="0.55" stroke="#000" stroke-width="0.3"/>
<rect x="12.350" y="292.588" width="22.000" height="35.000" fill="#3a6fd4" fill-opacity="0.55" stroke="#000" stroke-width="0.3"/>
<rect x="-34.350" y="326.955" width="22.000" height="35.000" fill="#d46a3a" fill-opacity="0.55" stroke="#000" stroke-width="0.3"/>
<rect x="12.350" y="371.379" width="22.000" height="35.000" fill="#3a6fd4" fill-opacity="0.55" stroke="#000" stroke-width="0.3"/>
<rect x="-34.350" y="405.745" width="22.000" height="35.000" fill="#d46a3a" fill-opacity="0.55" stroke="#000" stroke-width="0.3"/>
<rect x="12.350" y="446.766" width="22.000" height="35.000" fill="#3a6fd4" fill-opacity="0.55" stroke="#000" stroke-width="0.3"/>
<rect x="-34.350" y="467.620" width="22.000" height="35.000" fill="#d46a3a" fill-opacity="0.55" stroke="#000" stroke-width="0.3"/>
<rect x="12.350" y="493.528" width="22.000" height="35.000" fill="#3a6fd4" fill-opacity="0.55" stroke="#000" stroke-width="0.3"/>
<rect x="-34.350" y="514.356" width="22.000" height="35.000" fill="#d46a3a" fill-opacity="0.55" stroke="#000" stroke-width="0.3"/>
<rect x="12.350" y="530.129" width="22.000" height="35.000" fill="#3a6fd4" fill-opacity="0.55" stroke="#000" stroke-width="0.3"/>
<rect x="-34.350" y="540.899" width="22.000" height="35.000" fill="#d46a3a" fill-opacity="0.55" stroke="#000" stroke-width="0.3"/>
<rect x="12.350" y="551.643" width="22.000" height="35.000" fill="#3a6fd4" fill-opacity="0.55" stroke="#000" stroke-width="0.3"/>
<rect x="-34.350" y="558.984" width="22.000" height="35.000" fill="#d46a3a" fill-opacity="0.55" stroke="#000" stroke-width="0.3"/>
<rect x="12.350" y="566.299" width="22.000" height="35.000" fill="#3a6fd4" fill-opacity="0.55" stroke="#000" stroke-width="0.3"/>
<rect x="-34.350" y="568.585" width="22.000" height="35.000" fill="#d46a3a" fill-opacity="0.55" stroke="#000" stroke-width="0.3"/>
<rect x="12.350" y="570.871" width="22.000" height="35.000" fill="#3a6fd4" fill-opacity="0.55" stroke="#000" stroke-width="0.3"/>
<rect x="-34.350" y="573.157" width="22.000" height="35.000" fill="#d46a3a" fill-opacity="0.55" stroke="#000" stroke-width="0.3"/>
<rect x="12.350" y="565.334" width="22.000" height="35.000" fill="#3a6fd4" fill-opacity="0.55" stroke="#000" stroke-width="0.3"/>
<rect x="-34.350" y="567.620" width="22.000" height="35.000" fill="#d46a3a" fill-opacity="0.55" stroke="#000" stroke-width="0.3"/>
<rect x="12.350" y="561.447" width="22.000" height="35.000" fill="#3a6fd4" fill-opacity="0.55" stroke="#000" stroke-width="0.3"/>
<rect x="-34.350" y="555.275" width="22.000" height="35.000" fill="#d46a3a" fill-opacity="0.55" stroke="#000" stroke-width="0.3"/>
<rect x="12.350" y="549.103" width="22.000" height="35.000" fill="#3a6fd4" fill-opacity="0.55" stroke="#000" stroke-width="0.3"/>
<rect x="-34.350" y="542.931" width="22.000" height="35.000" fill="#d46a3a" fill-opacity="0.55" stroke="#000" stroke-width="0.3"/>
<rect x="12.350" y="536.759" width="22.000" height="35.000" fill="#3a6fd4" fill-opacity="0.55" stroke="#000" stroke-width="0.3"/>
<rect x="-34.350" y="530.586" width="22.000" height="35.000" fill="#d46a3a" fill-opacity="0.55" stroke="#000" stroke-width="0.3"/>
<rect x="12.350" y="524.389" width="22.000" height="35.000" fill="#3a6fd4" fill-opacity="0.55" stroke="#000" stroke-width="0.3"/>
<rect x="-34.350" y="513.187" width="22.000" height="35.000" fill="#d46a3a" fill-opacity="0.55" stroke="#000" stroke-width="0.3"/>
<rect x="12.350" y="501.935" width="22.000" height="35.000" fill="#3a6fd4" fill-opacity="0.55" stroke="#000" stroke-width="0.3"/>
<rect x="-34.350" y="490.734" width="22.000" height="35.000" fill="#d46a3a" fill-opacity="0.55" stroke="#000" stroke-width="0.3"/>
<rect x="12.350" y="479.482" width="22.000" height="35.000" fill="#3a6fd4" fill-opacity="0.55" stroke="#000" stroke-width="0.3"/>
<rect x="-34.350" y="468.280" width="22.000" height="35.000" fill="#d46a3a" fill-opacity="0.55" stroke="#000" stroke-width="0.3"/>
<rect x="12.350" y="457.053" width="22.000" height="35.000" fill="#3a6fd4" fill-opacity="0.55" stroke="#000" stroke-width="0.3"/>
<rect x="-34.350" y="445.827" width="22.000" height="35.000" fill="#d46a3a" fill-opacity="0.55" stroke="#000" stroke-width="0.3"/>
<line x1="0" y1="0" x2="0" y2="1935.500" stroke="#888" stroke-width="0.5" stroke-dasharray="6 4"/>
</svg>