<?xml version="1.0" encoding="UTF-8"?>
<svg xmlns="http://www.w3.org/2000/svg" viewBox="-100 -20 1100 1980" preserveAspectRatio="xMidYMid meet">
<title>Side view</title>
<rect x="-100" y="-20" width="1100" height="1980" fill="#fff"/>
<polyline points="112.800,108.463 101.700,146.563 101.700,319.844" stroke="#c00000" stroke-width="1.676" stroke-linecap="round" fill="none" stroke-dasharray="3 2" opacity="0.6"/>
<line x1="101.700" y1="319.844" x2="101.700" y2="1661.495" stroke="#c00000" stroke-width="1.676" stroke-linecap="round"/>
<polyline points="130.732,105.009 119.632,143.109 119.632,313.635" stroke="#888" stroke-width="1.549" stroke-linecap="round" fill="none" stroke-dasharray="3 2" opacity="0.6"/>
<line x1="119.632" y1="313.635" x2="119.632" y2="1632.793" stroke="#888" stroke-width="1.549" stroke-linecap="round"/>
<polyline points="148.665,101.554 137.565,139.654 137.565,307.426" stroke="#888" stroke-width="1.448" stroke-linecap="round" fill="none" stroke-dasharray="3 2" opacity="0.6"/>
<line x1="137.565" y1="307.426" x2="137.565" y2="1604.091" stroke="#888" stroke-width="1.448" stroke-linecap="round"/>
<polyline points="166.623,98.100 155.523,136.200 155.523,301.217" stroke="#1060d0" stroke-width="1.270" stroke-linecap="round" fill="none" stroke-dasharray="3 2" opacity="0.6"/>
<line x1="155.523" y1="301.217" x2="155.523" y2="1575.389" stroke="#1060d0" stroke-width="1.270" stroke-linecap="round"/>
<polyline points="182.555,99.675 173.455,137.775 173.455,299.486" stroke="#888" stroke-width="1.219" stroke-linecap="round" fill="none" stroke-dasharray="3 2" opacity="0.6"/>
<line x1="173.455" y1="299.486" x2="173.455" y2="1546.662" stroke="#888" stroke-width="1.219" stroke-linecap="round"/>
<polyline points="200.487,101.275 191.387,139.375 191.387,297.780" stroke="#888" stroke-width="1.219" stroke-linecap="round" fill="none" stroke-dasharray="3 2" opacity="0.6"/>
<line x1="191.387" y1="297.780" x2="191.387" y2="1517.960" stroke="#888" stroke-width="1.219" stroke-linecap="round"/>
<polyline points="218.420,102.875 209.320,140.975 209.320,296.074" stroke="#888" stroke-width="1.016" stroke-linecap="round" fill="none" stroke-dasharray="3 2" opacity="0.6"/>
<line x1="209.320" y1="296.074" x2="209.320" y2="1489.258" stroke="#888" stroke-width="1.016" stroke-linecap="round"/>
<polyline points="236.352,104.475 227.252,142.575 227.252,294.368" stroke="#c00000" stroke-width="1.016" stroke-linecap="round" fill="none" stroke-dasharray="3 2" opacity="0.6"/>
<line x1="227.252" y1="294.368" x2="227.252" y2="1460.556" stroke="#c00000" stroke-width="1.016" stroke-linecap="round"/>
<polyline points="254.310,111.130 245.210,149.230 245.210,297.166" stroke="#888" stroke-width="0.914" stroke-linecap="round" fill="none" stroke-dasharray="3 2" opacity="0.6"/>
<line x1="245.210" y1="297.166" x2="245.210" y2="1431.854" stroke="#888" stroke-width="0.914" stroke-linecap="round"/>
<polyline points="272.242,122.814 263.142,160.914 263.142,304.444" stroke="#888" stroke-width="2.642" stroke-linecap="round" fill="none" stroke-dasharray="3 2" opacity="0.6"/>
<line x1="263.142" y1="304.444" x2="263.142" y2="1403.152" stroke="#888" stroke-width="2.642" stroke-linecap="round"/>
<polyline points="290.175,114.280 281.075,152.380 281.075,293.707" stroke="#1060d0" stroke-width="2.489" stroke-linecap="round" fill="none" stroke-dasharray="3 2" opacity="0.6"/>
<line x1="281.075" y1="293.707" x2="281.075" y2="1374.425" stroke="#1060d0" stroke-width="2.489" stroke-linecap="round"/>
<polyline points="308.107,120.935 299.007,159.035 299.007,296.504" stroke="#888" stroke-width="2.337" stroke-linecap="round" fill="none" stroke-dasharray="3 2" opacity="0.6"/>
<line x1="299.007" y1="296.504" x2="299.007" y2="1345.723" stroke="#888" stroke-width="2.337" stroke-linecap="round"/>
<polyline points="325.532,168.788 316.432,206.888 316.432,336.094" stroke="#888" stroke-width="2.184" stroke-linecap="round" fill="none" stroke-dasharray="3 2" opacity="0.6"/>
<line x1="316.432" y1="336.094" x2="316.432" y2="1317.833" stroke="#888" stroke-width="2.184" stroke-linecap="round"/>
<polyline points="342.956,196.474 333.856,234.574 333.856,357.719" stroke="#888" stroke-width="2.057" stroke-linecap="round" fill="none" stroke-dasharray="3 2" opacity="0.6"/>
<line x1="333.856" y1="357.719" x2="333.856" y2="1289.970" stroke="#888" stroke-width="2.057" stroke-linecap="round"/>
<polyline points="360.380,234.219 351.280,272.319 351.280,388.303" stroke="#c00000" stroke-width="2.057" stroke-linecap="round" fill="none" stroke-dasharray="3 2" opacity="0.6"/>
<line x1="351.280" y1="388.303" x2="351.280" y2="1262.080" stroke="#c00000" stroke-width="2.057" stroke-linecap="round"/>
<polyline points="377.805,271.988 368.705,310.088 368.705,418.909" stroke="#888" stroke-width="1.930" stroke-linecap="round" fill="none" stroke-dasharray="3 2" opacity="0.6"/>
<line x1="368.705" y1="418.909" x2="368.705" y2="1234.191" stroke="#888" stroke-width="1.930" stroke-linecap="round"/>
<polyline points="394.213,306.355 385.113,344.455 385.113,446.664" stroke="#888" stroke-width="1.676" stroke-linecap="round" fill="none" stroke-dasharray="3 2" opacity="0.6"/>
<line x1="385.113" y1="446.664" x2="385.113" y2="1207.953" stroke="#888" stroke-width="1.676" stroke-linecap="round"/>
<polyline points="410.622,350.779 401.522,388.879 401.522,483.376" stroke="#1060d0" stroke-width="1.676" stroke-linecap="round" fill="none" stroke-dasharray="3 2" opacity="0.6"/>
<line x1="401.522" y1="483.376" x2="401.522" y2="1181.689" stroke="#1060d0" stroke-width="1.676" stroke-linecap="round"/>
<polyline points="427.005,385.145 417.905,423.245 417.905,511.130" stroke="#888" stroke-width="1.549" stroke-linecap="round" fill="none" stroke-dasharray="3 2" opacity="0.6"/>
<line x1="417.905" y1="511.130" x2="417.905" y2="1155.451" stroke="#888" stroke-width="1.549" stroke-linecap="round"/>
<polyline points="442.397,426.166 433.297,464.266 433.297,544.990" stroke="#888" stroke-width="1.549" stroke-linecap="round" fill="none" stroke-dasharray="3 2" opacity="0.6"/>
<line x1="433.297" y1="544.990" x2="433.297" y2="1130.839" stroke="#888" stroke-width="1.549" stroke-linecap="round"/>
<polyline points="457.764,447.020 448.664,485.120 448.664,560.886" stroke="#888" stroke-width="1.270" stroke-linecap="round" fill="none" stroke-dasharray="3 2" opacity="0.6"/>
<line x1="448.664" y1="560.886" x2="448.664" y2="1106.251" stroke="#888" stroke-width="1.270" stroke-linecap="round"/>
<polyline points="473.131,472.928 464.031,511.028 464.031,581.282" stroke="#c00000" stroke-width="1.270" stroke-linecap="round" fill="none" stroke-dasharray="3 2" opacity="0.6"/>
<line x1="464.031" y1="581.282" x2="464.031" y2="1081.639" stroke="#c00000" stroke-width="1.270" stroke-linecap="round"/>
<polyline points="488.523,493.756 479.423,531.856 479.423,597.153" stroke="#888" stroke-width="1.270" stroke-linecap="round" fill="none" stroke-dasharray="3 2" opacity="0.6"/>
<line x1="479.423" y1="597.153" x2="479.423" y2="1057.026" stroke="#888" stroke-width="1.270" stroke-linecap="round"/>
<polyline points="503.890,509.529 494.790,547.629 494.790,608.520" stroke="#888" stroke-width="1.143" stroke-linecap="round" fill="none" stroke-dasharray="3 2" opacity="0.6"/>
<line x1="494.790" y1="608.520" x2="494.790" y2="1032.414" stroke="#888" stroke-width="1.143" stroke-linecap="round"/>
<polyline points="519.257,520.299 510.157,558.399 510.157,615.432" stroke="#1060d0" stroke-width="1.143" stroke-linecap="round" fill="none" stroke-dasharray="3 2" opacity="0.6"/>
<line x1="510.157" y1="615.432" x2="510.157" y2="1007.826" stroke="#1060d0" stroke-width="1.143" stroke-linecap="round"/>
<polyline points="534.624,531.043 525.524,569.143 525.524,622.319" stroke="#888" stroke-width="1.143" stroke-linecap="round" fill="none" stroke-dasharray="3 2" opacity="0.6"/>
<line x1="525.524" y1="622.319" x2="525.524" y2="983.214" stroke="#888" stroke-width="1.143" stroke-linecap="round"/>
<polyline points="548.975,538.384 539.875,576.484 539.875,626.354" stroke="#888" stroke-width="1.016" stroke-linecap="round" fill="none" stroke-dasharray="3 2" opacity="0.6"/>
<line x1="539.875" y1="626.354" x2="539.875" y2="960.252" stroke="#888" stroke-width="1.016" stroke-linecap="round"/>
<polyline points="563.326,545.699 554.226,583.799 554.226,630.365" stroke="#888" stroke-width="1.016" stroke-linecap="round" fill="none" stroke-dasharray="3 2" opacity="0.6"/>
<line x1="554.226" y1="630.365" x2="554.226" y2="937.291" stroke="#888" stroke-width="1.016" stroke-linecap="round"/>
<polyline points="577.677,547.985 568.577,586.085 568.577,629.897" stroke="#c00000" stroke-width="1.016" stroke-linecap="round" fill="none" stroke-dasharray="3 2" opacity="0.6"/>
<line x1="568.577" y1="629.897" x2="568.577" y2="914.329" stroke="#c00000" stroke-width="1.016" stroke-linecap="round"/>
<polyline points="592.028,550.271 582.928,588.371 582.928,629.428" stroke="#888" stroke-width="0.914" stroke-linecap="round" fill="none" stroke-dasharray="3 2" opacity="0.6"/>
<line x1="582.928" y1="629.428" x2="582.928" y2="891.367" stroke="#888" stroke-width="0.914" stroke-linecap="round"/>
<polyline points="606.379,552.557 597.279,590.657 597.279,628.960" stroke="#888" stroke-width="0.914" stroke-linecap="round" fill="none" stroke-dasharray="3 2" opacity="0.6"/>
<line x1="597.279" y1="628.960" x2="597.279" y2="868.406" stroke="#888" stroke-width="0.914" stroke-linecap="round"/>
<polyline points="620.730,544.734 611.630,582.834 611.630,619.485" stroke="#1060d0" stroke-width="0.914" stroke-linecap="round" fill="none" stroke-dasharray="3 2" opacity="0.6"/>
<line x1="611.630" y1="619.485" x2="611.630" y2="845.444" stroke="#1060d0" stroke-width="0.914" stroke-linecap="round"/>
<polyline points="635.081,547.020 625.981,585.120 625.981,619.016" stroke="#888" stroke-width="0.813" stroke-linecap="round" fill="none" stroke-dasharray="3 2" opacity="0.6"/>
<line x1="625.981" y1="619.016" x2="625.981" y2="822.482" stroke="#888" stroke-width="0.813" stroke-linecap="round"/>
<polyline points="648.416,540.847 639.316,578.947 639.316,611.189" stroke="#888" stroke-width="0.813" stroke-linecap="round" fill="none" stroke-dasharray="3 2" opacity="0.6"/>
<line x1="639.316" y1="611.189" x2="639.316" y2="801.147" stroke="#888" stroke-width="0.813" stroke-linecap="round"/>
<polyline points="661.726,534.675 652.626,572.775 652.626,603.363" stroke="#888" stroke-width="0.813" stroke-linecap="round" fill="none" stroke-dasharray="3 2" opacity="0.6"/>
<line x1="652.626" y1="603.363" x2="652.626" y2="779.811" stroke="#888" stroke-width="0.813" stroke-linecap="round"/>
<polyline points="675.061,528.503 665.961,566.603 665.961,595.539" stroke="#c00000" stroke-width="0.813" stroke-linecap="round" fill="none" stroke-dasharray="3 2" opacity="0.6"/>
<line x1="665.961" y1="595.539" x2="665.961" y2="758.500" stroke="#c00000" stroke-width="0.813" stroke-linecap="round"/>
<polyline points="688.396,522.331 679.296,560.431 679.296,587.713" stroke="#888" stroke-width="0.762" stroke-linecap="round" fill="none" stroke-dasharray="3 2" opacity="0.6"/>
<line x1="679.296" y1="587.713" x2="679.296" y2="737.164" stroke="#888" stroke-width="0.762" stroke-linecap="round"/>
<polyline points="701.706,516.159 692.606,554.259 692.606,579.889" stroke="#888" stroke-width="0.762" stroke-linecap="round" fill="none" stroke-dasharray="3 2" opacity="0.6"/>
<line x1="692.606" y1="579.889" x2="692.606" y2="715.853" stroke="#888" stroke-width="0.762" stroke-linecap="round"/>
<polyline points="715.041,509.986 705.941,548.086 705.941,572.062" stroke="#1060d0" stroke-width="0.762" stroke-linecap="round" fill="none" stroke-dasharray="3 2" opacity="0.6"/>
<line x1="705.941" y1="572.062" x2="705.941" y2="694.517" stroke="#1060d0" stroke-width="0.762" stroke-linecap="round"/>
<polyline points="728.350,503.789 719.250,541.889 719.250,564.213" stroke="#888" stroke-width="0.711" stroke-linecap="round" fill="none" stroke-dasharray="3 2" opacity="0.6"/>
<line x1="719.250" y1="564.213" x2="719.250" y2="673.181" stroke="#888" stroke-width="0.711" stroke-linecap="round"/>
<polyline points="741.685,492.587 732.585,530.687 732.585,551.908" stroke="#888" stroke-width="0.711" stroke-linecap="round" fill="none" stroke-dasharray="3 2" opacity="0.6"/>
<line x1="732.585" y1="551.908" x2="732.585" y2="651.871" stroke="#888" stroke-width="0.711" stroke-linecap="round"/>
<polyline points="755.020,481.335 745.920,519.435 745.920,539.556" stroke="#888" stroke-width="0.660" stroke-linecap="round" fill="none" stroke-dasharray="3 2" opacity="0.6"/>
<line x1="745.920" y1="539.556" x2="745.920" y2="630.535" stroke="#888" stroke-width="0.660" stroke-linecap="round"/>
<polyline points="768.330,470.134 759.230,508.234 759.230,527.252" stroke="#c00000" stroke-width="0.635" stroke-linecap="round" fill="none" stroke-dasharray="3 2" opacity="0.6"/>
<line x1="759.230" y1="527.252" x2="759.230" y2="609.224" stroke="#c00000" stroke-width="0.635" stroke-linecap="round"/>
<polyline points="781.665,458.882 772.565,496.982 772.565,514.900" stroke="#888" stroke-width="0.635" stroke-linecap="round" fill="none" stroke-dasharray="3 2" opacity="0.6"/>
<line x1="772.565" y1="514.900" x2="772.565" y2="587.888" stroke="#888" stroke-width="0.635" stroke-linecap="round"/>
<polyline points="794.974,447.680 785.874,485.780 785.874,502.595" stroke="#888" stroke-width="0.635" stroke-linecap="round" fill="none" stroke-dasharray="3 2" opacity="0.6"/>
<line x1="785.874" y1="502.595" x2="785.874" y2="566.578" stroke="#888" stroke-width="0.635" stroke-linecap="round"/>
<polyline points="808.309,436.453 799.209,474.553 799.209,490.265" stroke="#1060d0" stroke-width="0.635" stroke-linecap="round" fill="none" stroke-dasharray="3 2" opacity="0.6"/>
<line x1="799.209" y1="490.265" x2="799.209" y2="545.242" stroke="#1060d0" stroke-width="0.635" stroke-linecap="round"/>
<polyline points="821.644,425.227 812.544,463.327 812.544,477.939" stroke="#888" stroke-width="0.635" stroke-linecap="round" fill="none" stroke-dasharray="3 2" opacity="0.6"/>
<line x1="812.544" y1="477.939" x2="812.544" y2="523.931" stroke="#888" stroke-width="0.635" stroke-linecap="round"/>
<path d="M -28.603 1870.006 L -26.387 1866.460 L -24.170 1862.913 L -21.954 1859.367 L -19.738 1855.820 L -17.522 1852.274 L -15.306 1848.727 L -13.090 1845.181 L -10.873 1841.634 L -8.657 1838.088 L -6.441 1834.541 L -4.225 1830.995 L -2.009 1827.448 L 0.207 1823.902 L 2.424 1820.355 L 4.640 1816.809 L 6.856 1813.262 L 9.072 1809.716 L 11.288 1806.169 L 13.504 1802.623 L 15.721 1799.076 L 17.937 1795.530 L 20.153 1791.983 L 22.369 1788.437 L 24.585 1784.890 L 26.801 1781.344 L 29.018 1777.797 L 31.234 1774.251 L 33.450 1770.704 L 35.666 1767.158 L 37.882 1763.611 L 40.098 1760.065 L 42.315 1756.518 L 44.531 1752.972 L 46.747 1749.425 L 48.963 1745.879 L 51.179 1742.332 L 53.395 1738.786 L 55.612 1735.239 L 57.828 1731.693 L 60.044 1728.146 L 62.260 1724.600 L 64.476 1721.053 L 66.693 1717.507 L 68.909 1713.960 L 71.125 1710.413 L 73.341 1706.867 L 75.557 1703.320 L 77.773 1699.774 L 79.990 1696.227 L 82.206 1692.681 L 84.422 1689.134 L 86.638 1685.588 L 88.854 1682.041 L 91.070 1678.495 L 93.287 1674.948 L 95.503 1671.402 L 97.719 1667.855 L 99.935 1664.309 L 102.151 1660.762 L 104.367 1657.216 L 106.584 1653.669 L 108.800 1650.123 L 111.016 1646.576 L 113.232 1643.030 L 115.448 1639.483 L 117.664 1635.937 L 119.881 1632.390 L 122.097 1628.844 L 124.313 1625.297 L 126.529 1621.751 L 128.745 1618.204 L 130.961 1614.658 L 133.178 1611.111 L 135.394 1607.565 L 137.610 1604.018 L 139.826 1600.472 L 142.042 1596.925 L 144.258 1593.379 L 146.475 1589.832 L 148.691 1586.286 L 150.907 1582.739 L 153.123 1579.193 L 155.339 1575.646 L 157.556 1572.100 L 159.772 1568.553 L 161.988 1565.007 L 164.204 1561.460 L 166.420 1557.914 L 168.636 1554.367 L 170.853 1550.821 L 173.069 1547.274 L 175.285 1543.728 L 177.501 1540.181 L 179.717 1536.635 L 181.933 1533.088 L 184.150 1529.542 L 186.366 1525.995 L 188.582 1522.449 L 190.798 1518.902 L 193.014 1515.356 L 195.230 1511.809 L 197.447 1508.263 L 199.663 1504.716 L 201.879 1501.170 L 204.095 1497.623 L 206.311 1494.077 L 208.527 1490.530 L 210.744 1486.984 L 212.960 1483.437 L 215.176 1479.891 L 217.392 1476.344 L 219.608 1472.798 L 221.824 1469.251 L 224.041 1465.704 L 226.257 1462.158 L 228.473 1458.611 L 230.689 1455.065 L 232.905 1451.518 L 235.121 1447.972 L 237.338 1444.425 L 239.554 1440.879 L 241.770 1437.332 L 243.986 1433.786 L 246.202 1430.239 L 248.418 1426.693 L 250.635 1423.146 L 252.851 1419.600 L 255.067 1416.053 L 257.283 1412.507 L 259.499 1408.960 L 261.716 1405.414 L 263.932 1401.867 L 266.148 1398.321 L 268.364 1394.774 L 270.580 1391.228 L 272.796 1387.681 L 275.013 1384.135 L 277.229 1380.588 L 279.445 1377.042 L 281.661 1373.495 L 283.877 1369.949 L 286.093 1366.402 L 288.310 1362.856 L 290.526 1359.309 L 292.742 1355.763 L 294.958 1352.216 L 297.174 1348.670 L 299.390 1345.123 L 301.607 1341.577 L 303.823 1338.030 L 306.039 1334.484 L 308.255 1330.937 L 310.471 1327.391 L 312.687 1323.844 L 314.904 1320.298 L 317.120 1316.751 L 319.336 1313.205 L 321.552 1309.658 L 323.768 1306.112 L 325.984 1302.565 L 328.201 1299.019 L 330.417 1295.472 L 332.633 1291.926 L 334.849 1288.379 L 337.065 1284.833 L 339.281 1281.286 L 341.498 1277.740 L 343.714 1274.193 L 345.930 1270.647 L 348.146 1267.100 L 350.362 1263.554 L 352.578 1260.007 L 354.795 1256.461 L 357.011 1252.914 L 359.227 1249.368 L 361.443 1245.821 L 363.659 1242.275 L 365.876 1238.728 L 368.092 1235.182 L 370.308 1231.635 L 372.524 1228.089 L 374.740 1224.542 L 376.956 1220.995 L 379.173 1217.449 L 381.389 1213.902 L 383.605 1210.356 L 385.821 1206.809 L 388.037 1203.263 L 390.253 1199.716 L 392.470 1196.170 L 394.686 1192.623 L 396.902 1189.077 L 399.118 1185.530 L 401.334 1181.984 L 403.550 1178.437 L 405.767 1174.891 L 407.983 1171.344 L 410.199 1167.798 L 412.415 1164.251 L 414.631 1160.705 L 416.847 1157.158 L 419.064 1153.612 L 421.280 1150.065 L 423.496 1146.519 L 425.712 1142.972 L 427.928 1139.426 L 430.144 1135.879 L 432.361 1132.333 L 434.577 1128.786 L 436.793 1125.240 L 439.009 1121.693 L 441.225 1118.147 L 443.441 1114.600 L 445.658 1111.054 L 447.874 1107.507 L 450.090 1103.961 L 452.306 1100.414 L 454.522 1096.868 L 456.738 1093.321 L 458.955 1089.775 L 461.171 1086.228 L 463.387 1082.682 L 465.603 1079.135 L 467.819 1075.589 L 470.036 1072.042 L 472.252 1068.496 L 474.468 1064.949 L 476.684 1061.403 L 478.900 1057.856 L 481.116 1054.310 L 483.333 1050.763 L 485.549 1047.217 L 487.765 1043.670 L 489.981 1040.124 L 492.197 1036.577 L 494.413 1033.031 L 496.630 1029.484 L 498.846 1025.938 L 501.062 1022.391 L 503.278 1018.845 L 505.494 1015.298 L 507.710 1011.752 L 509.927 1008.205 L 512.143 1004.659 L 514.359 1001.112 L 516.575 997.566 L 518.791 994.019 L 521.007 990.473 L 523.224 986.926 L 525.440 983.380 L 527.656 979.833 L 529.872 976.286 L 532.088 972.740 L 534.304 969.193 L 536.521 965.647 L 538.737 962.100 L 540.953 958.554 L 543.169 955.007 L 545.385 951.461 L 547.601 947.914 L 549.818 944.368 L 552.034 940.821 L 554.250 937.275 L 556.466 933.728 L 558.682 930.182 L 560.898 926.635 L 563.115 923.089 L 565.331 919.542 L 567.547 915.996 L 569.763 912.449 L 571.979 908.903 L 574.196 905.356 L 576.412 901.810 L 578.628 898.263 L 580.844 894.717 L 583.060 891.170 L 585.276 887.624 L 587.493 884.077 L 589.709 880.531 L 591.925 876.984 L 594.141 873.438 L 596.357 869.891 L 598.573 866.345 L 600.790 862.798 L 603.006 859.252 L 605.222 855.705 L 607.438 852.159 L 609.654 848.612 L 611.870 845.066 L 614.087 841.519 L 616.303 837.973 L 618.519 834.426 L 620.735 830.880 L 622.951 827.333 L 625.167 823.787 L 627.384 820.240 L 629.600 816.694 L 631.816 813.147 L 634.032 809.601 L 636.248 806.054 L 638.464 802.508 L 640.681 798.961 L 642.897 795.415 L 645.113 791.868 L 647.329 788.322 L 649.545 784.775 L 651.761 781.229 L 653.978 777.682 L 656.194 774.136 L 658.410 770.589 L 660.626 767.043 L 662.842 763.496 L 665.058 759.950 L 667.275 756.403 L 669.491 752.857 L 671.707 749.310 L 673.923 745.764 L 676.139 742.217 L 678.356 738.671 L 680.572 735.124 L 682.788 731.578 L 685.004 728.031 L 687.220 724.484 L 689.436 720.938 L 691.653 717.391 L 693.869 713.845 L 696.085 710.298 L 698.301 706.752 L 700.517 703.205 L 702.733 699.659 L 704.950 696.112 L 707.166 692.566 L 709.382 689.019 L 711.598 685.473 L 713.814 681.926 L 716.030 678.380 L 718.247 674.833 L 720.463 671.287 L 722.679 667.740 L 724.895 664.194 L 727.111 660.647 L 729.327 657.101 L 731.544 653.554 L 733.760 650.008 L 735.976 646.461 L 738.192 642.915 L 740.408 639.368 L 742.624 635.822 L 744.841 632.275 L 747.057 628.729 L 749.273 625.182 L 751.489 621.636 L 753.705 618.089 L 755.921 614.543 L 758.138 610.996 L 760.354 607.450 L 762.570 603.903 L 764.786 600.357 L 767.002 596.810 L 769.219 593.264 L 771.435 589.717 L 773.651 586.171 L 775.867 582.624 L 778.083 579.078 L 780.299 575.531 L 782.516 571.985 L 784.732 568.438 L 786.948 564.892 L 789.164 561.345 L 791.380 557.799 L 793.596 554.252 L 795.813 550.706 L 798.029 547.159 L 800.245 543.613 L 802.461 540.066 L 804.677 536.520 L 806.893 532.973 L 809.110 529.427 L 811.326 525.880 L 813.542 522.334 L 815.758 518.787 L 817.974 515.241 L 820.190 511.694 L 822.407 508.148 L 824.623 504.601 L 826.839 501.055 L 829.055 497.508 L 831.271 493.962 L 833.487 490.415 L 835.704 486.869 L 837.920 483.322 L 838.784 481.939 L 906.632 481.939 L 906.632 481.877 L 905.358 486.012 L 904.090 490.152 L 902.830 494.295 L 901.576 498.443 L 900.329 502.595 L 899.088 506.751 L 897.855 510.912 L 896.628 515.077 L 895.407 519.245 L 894.193 523.418 L 892.985 527.594 L 891.783 531.775 L 890.588 535.959 L 889.399 540.147 L 888.215 544.339 L 887.038 548.535 L 885.866 552.734 L 884.701 556.937 L 883.540 561.143 L 882.386 565.353 L 881.237 569.567 L 880.093 573.783 L 878.955 578.004 L 877.822 582.227 L 876.694 586.453 L 875.571 590.683 L 874.454 594.916 L 873.341 599.152 L 872.233 603.391 L 871.129 607.633 L 870.031 611.878 L 868.937 616.126 L 867.847 620.376 L 866.762 624.629 L 865.681 628.885 L 864.604 633.144 L 863.532 637.405 L 862.463 641.668 L 861.399 645.935 L 860.338 650.203 L 859.281 654.474 L 858.227 658.747 L 857.177 663.022 L 856.131 667.300 L 855.088 671.579 L 854.049 675.861 L 853.012 680.145 L 851.979 684.431 L 850.948 688.718 L 849.921 693.007 L 848.896 697.298 L 847.874 701.591 L 846.855 705.886 L 845.839 710.182 L 844.824 714.479 L 843.812 718.778 L 842.803 723.079 L 841.795 727.381 L 840.790 731.684 L 839.786 735.988 L 838.785 740.294 L 837.785 744.600 L 836.787 748.908 L 835.791 753.217 L 834.795 757.526 L 833.802 761.837 L 832.810 766.148 L 831.818 770.460 L 830.828 774.773 L 829.839 779.086 L 828.851 783.400 L 827.864 787.714 L 826.877 792.029 L 825.891 796.344 L 824.906 800.660 L 823.921 804.976 L 822.936 809.292 L 821.952 813.608 L 820.968 817.924 L 819.983 822.241 L 818.999 826.557 L 818.015 830.873 L 817.030 835.189 L 816.045 839.505 L 815.059 843.820 L 814.073 848.136 L 813.086 852.450 L 812.099 856.765 L 811.110 861.078 L 810.121 865.392 L 809.131 869.704 L 808.140 874.016 L 807.147 878.327 L 806.153 882.637 L 805.158 886.947 L 804.161 891.255 L 803.162 895.563 L 802.162 899.869 L 801.160 904.174 L 800.156 908.478 L 799.150 912.781 L 798.142 917.082 L 797.132 921.383 L 796.120 925.681 L 795.105 929.978 L 794.087 934.274 L 793.067 938.568 L 792.045 942.861 L 791.020 947.151 L 789.992 951.440 L 788.960 955.727 L 787.926 960.012 L 786.889 964.296 L 785.849 968.577 L 784.805 972.856 L 783.758 977.133 L 782.707 981.408 L 781.653 985.680 L 780.595 989.951 L 779.533 994.218 L 778.467 998.484 L 777.398 1002.747 L 776.324 1007.007 L 775.247 1011.265 L 774.165 1015.521 L 773.078 1019.773 L 771.988 1024.023 L 770.892 1028.270 L 769.793 1032.514 L 768.688 1036.755 L 767.579 1040.994 L 766.465 1045.229 L 765.346 1049.461 L 764.222 1053.690 L 763.093 1057.916 L 761.959 1062.138 L 760.819 1066.357 L 759.674 1070.573 L 758.524 1074.786 L 757.368 1078.995 L 756.206 1083.201 L 755.039 1087.402 L 753.866 1091.601 L 752.687 1095.796 L 751.502 1099.987 L 750.312 1104.174 L 749.115 1108.357 L 747.911 1112.537 L 746.702 1116.712 L 745.486 1120.884 L 744.264 1125.052 L 743.035 1129.215 L 741.800 1133.375 L 740.558 1137.530 L 739.310 1141.681 L 738.054 1145.828 L 736.792 1149.970 L 735.522 1154.109 L 734.246 1158.242 L 732.963 1162.372 L 731.672 1166.497 L 730.374 1170.617 L 729.069 1174.733 L 727.756 1178.844 L 726.436 1182.950 L 725.108 1187.052 L 723.773 1191.149 L 722.430 1195.241 L 721.079 1199.328 L 719.720 1203.411 L 718.354 1207.488 L 716.980 1211.561 L 715.597 1215.628 L 714.207 1219.690 L 712.808 1223.748 L 711.401 1227.800 L 709.986 1231.847 L 708.562 1235.889 L 707.130 1239.925 L 705.690 1243.957 L 704.241 1247.982 L 702.783 1252.003 L 701.317 1256.018 L 699.842 1260.028 L 698.358 1264.032 L 696.866 1268.031 L 695.364 1272.024 L 693.854 1276.011 L 692.335 1279.993 L 690.806 1283.970 L 689.269 1287.940 L 687.722 1291.905 L 686.166 1295.864 L 684.601 1299.818 L 683.026 1303.765 L 681.443 1307.707 L 679.849 1311.642 L 678.247 1315.572 L 676.634 1319.496 L 675.012 1323.414 L 673.381 1327.326 L 671.740 1331.232 L 670.089 1335.132 L 668.429 1339.025 L 666.758 1342.913 L 665.078 1346.794 L 663.388 1350.670 L 661.688 1354.539 L 659.978 1358.402 L 658.258 1362.258 L 656.528 1366.108 L 654.788 1369.952 L 653.038 1373.790 L 651.278 1377.622 L 649.507 1381.447 L 647.727 1385.265 L 645.936 1389.077 L 644.134 1392.883 L 642.323 1396.683 L 640.501 1400.475 L 638.669 1404.262 L 636.826 1408.042 L 634.973 1411.815 L 633.109 1415.582 L 631.235 1419.342 L 629.350 1423.096 L 627.455 1426.843 L 625.549 1430.583 L 623.633 1434.317 L 621.706 1438.044 L 619.768 1441.765 L 617.820 1445.479 L 615.860 1449.186 L 613.891 1452.886 L 611.910 1456.580 L 609.919 1460.267 L 607.917 1463.947 L 605.904 1467.621 L 603.880 1471.288 L 601.846 1474.948 L 599.801 1478.601 L 597.744 1482.247 L 595.677 1485.887 L 593.600 1489.520 L 591.511 1493.146 L 589.411 1496.766 L 587.301 1500.378 L 585.179 1503.984 L 583.047 1507.583 L 580.904 1511.175 L 578.749 1514.760 L 576.584 1518.338 L 574.408 1521.910 L 572.221 1525.475 L 570.023 1529.032 L 567.814 1532.584 L 565.593 1536.127 L 563.358 1539.661 L 561.108 1543.187 L 558.843 1546.703 L 556.564 1550.210 L 554.271 1553.709 L 551.963 1557.198 L 549.641 1560.678 L 547.304 1564.150 L 544.953 1567.612 L 542.588 1571.065 L 540.208 1574.509 L 537.814 1577.945 L 535.406 1581.371 L 532.983 1584.788 L 530.546 1588.197 L 528.095 1591.596 L 525.629 1594.987 L 523.149 1598.369 L 520.655 1601.742 L 518.147 1605.106 L 515.625 1608.461 L 513.088 1611.807 L 510.538 1615.145 L 507.973 1618.474 L 505.395 1621.794 L 502.803 1625.105 L 500.196 1628.408 L 497.576 1631.702 L 494.942 1634.987 L 492.294 1638.264 L 489.632 1641.532 L 486.957 1644.792 L 484.268 1648.043 L 481.565 1651.286 L 478.849 1654.520 L 476.120 1657.745 L 473.377 1660.962 L 470.620 1664.171 L 467.850 1667.372 L 465.067 1670.564 L 462.271 1673.748 L 459.461 1676.924 L 456.639 1680.091 L 453.803 1683.251 L 450.955 1686.402 L 448.093 1689.545 L 445.219 1692.681 L 442.332 1695.808 L 439.432 1698.927 L 436.519 1702.039 L 433.594 1705.142 L 430.657 1708.238 L 427.707 1711.326 L 424.745 1714.406 L 421.770 1717.479 L 418.784 1720.544 L 415.785 1723.602 L 412.774 1726.652 L 409.752 1729.694 L 406.717 1732.729 L 403.671 1735.757 L 400.613 1738.778 L 397.544 1741.791 L 394.463 1744.797 L 391.370 1747.796 L 388.266 1750.788 L 385.151 1753.773 L 382.025 1756.751 L 378.888 1759.722 L 375.740 1762.686 L 372.581 1765.643 L 369.412 1768.594 L 366.232 1771.538 L 363.041 1774.476 L 359.840 1777.406 L 356.628 1780.331 L 353.406 1783.249 L 350.174 1786.161 L 346.932 1789.066 L 343.680 1791.966 L 340.419 1794.859 L 337.147 1797.746 L 333.867 1800.627 L 330.576 1803.502 L 327.276 1806.372 L 323.967 1809.235 L 320.649 1812.093 L 317.322 1814.945 L 313.986 1817.792 L 310.641 1820.633 L 307.287 1823.469 L 303.925 1826.299 L 300.555 1829.125 L 297.176 1831.945 L 293.789 1834.759 L 290.394 1837.569 L 286.991 1840.374 L 283.580 1843.174 L 280.161 1845.969 L 276.735 1848.759 L 273.301 1851.545 L 269.860 1854.326 L 266.412 1857.103 L 262.957 1859.875 L 259.495 1862.643 L 256.026 1865.407 L 250.235 1870.000 Z" fill="#e4d4b5" stroke="#222" stroke-width="3.0"/>
<line x1="51.695" y1="1741.507" x2="838.784" y2="481.939" stroke="#2e8b57" stroke-width="3.0"/>
<path d="M 89.820 1680.484 L 90.077 1684.842 L 90.386 1689.146 L 90.747 1693.396 L 91.160 1697.592 L 91.624 1701.734 L 92.141 1705.821 L 92.710 1709.855 L 93.331 1713.835 L 94.004 1717.760 L 94.729 1721.632 L 95.505 1725.449 L 96.334 1729.212 L 97.215 1732.922 L 98.148 1736.577 L 99.133 1740.178 L 100.169 1743.725 L 101.258 1747.219 L 102.399 1750.658 L 103.592 1754.043 L 104.837 1757.374 L 106.133 1760.651 L 107.482 1763.873 L 108.883 1767.042 L 110.336 1770.157 L 111.841 1773.218 L 113.397 1776.224 L 115.006 1779.177 L 116.667 1782.076 L 118.380 1784.920 L 120.144 1787.710 L 121.961 1790.447 L 123.830 1793.129 L 125.751 1795.757 L 127.723 1798.332 L 129.748 1800.852 L 131.825 1803.318 L 133.954 1805.730 L 136.135 1808.088 L 138.367 1810.392 L 140.652 1812.642 L 142.989 1814.838 L 145.377 1816.980 L 147.818 1819.067 L 150.311 1821.101 L 152.856 1823.081 L 155.452 1825.006 L 158.101 1826.878 L 160.802 1828.695 L 163.555 1830.459 L 166.359 1832.168 L 169.216 1833.824 L 172.125 1835.425 L 175.085 1836.972 L 178.098 1838.465 L 181.163 1839.904 L 184.280 1841.290 L 187.448 1842.621 L 190.669 1843.898 L 193.942 1845.120 L 197.266 1846.289 L 200.643 1847.404 L 204.072 1848.465 L 207.552 1849.472 L 211.085 1850.424 L 214.670 1851.323 L 218.307 1852.167 L 221.995 1852.958 L 225.736 1853.694 L 229.529 1854.377 L 233.373 1855.005 L 237.270 1855.579 L 241.219 1856.100 L 245.219 1856.566 L 249.272 1856.978 L 253.377 1857.336 L 257.533 1857.640 L 261.742 1857.890 L 266.002 1858.086 L 270.315 1858.228 L 274.680 1858.316 L 270.229 1854.029 L 269.860 1854.326 L 266.412 1857.103 L 262.957 1859.875 L 259.495 1862.643 L 256.026 1865.407 L 252.550 1868.166 L 250.235 1870.000 L -28.603 1870.006 Z" fill="#b89868" stroke="#6b4a2a" stroke-width="1.2" opacity="0.6"/>
<path d="M 89.820 1680.484 L 90.077 1684.842 L 90.386 1689.146 L 90.747 1693.396 L 91.160 1697.592 L 91.624 1701.734 L 92.141 1705.821 L 92.710 1709.855 L 93.331 1713.835 L 94.004 1717.760 L 94.729 1721.632 L 95.505 1725.449 L 96.334 1729.212 L 97.215 1732.922 L 98.148 1736.577 L 99.133 1740.178 L 100.169 1743.725 L 101.258 1747.219 L 102.399 1750.658 L 103.592 1754.043 L 104.837 1757.374 L 106.133 1760.651 L 107.482 1763.873 L 108.883 1767.042 L 110.336 1770.157 L 111.841 1773.218 L 113.397 1776.224 L 115.006 1779.177 L 116.667 1782.076 L 118.380 1784.920 L 120.144 1787.710 L 121.961 1790.447 L 123.830 1793.129 L 125.751 1795.757 L 127.723 1798.332 L 129.748 1800.852 L 131.825 1803.318 L 133.954 1805.730 L 136.135 1808.088 L 138.367 1810.392 L 140.652 1812.642 L 142.989 1814.838 L 145.377 1816.980 L 147.818 1819.067 L 150.311 1821.101 L 152.856 1823.081 L 155.452 1825.006 L 158.101 1826.878 L 160.802 1828.695 L 163.555 1830.459 L 166.359 1832.168 L 169.216 1833.824 L 172.125 1835.425 L 175.085 1836.972 L 178.098 1838.465 L 181.163 1839.904 L 184.280 1841.290 L 187.448 1842.621 L 190.669 1843.898 L 193.942 1845.120 L 197.266 1846.289 L 200.643 1847.404 L 204.072 1848.465 L 207.552 1849.472 L 211.085 1850.424 L 214.670 1851.323 L 218.307 1852.167 L 221.995 1852.958 L 225.736 1853.694 L 229.529 1854.377 L 233.373 1855.005 L 237.270 1855.579 L 241.219 1856.100 L 245.219 1856.566 L 249.272 1856.978 L 253.377 1857.336 L 257.533 1857.640 L 261.742 1857.890 L 266.002 1858.086 L 270.315 1858.228 L 274.680 1858.316 L 89.830 1680.489 Z" fill="none" stroke="#3a2a14" stroke-width="1.2" opacity="0.85"/>
<line x1="182.250" y1="1769.400" x2="669.120" y2="1263.300" stroke="#b8862b" stroke-width="1.2" stroke-dasharray="6 4" opacity="0.8"/>
<circle cx="89.830" cy="1680.489" r="3" fill="#3a2a14"/>
<text x="95.830" y="1672.489" font-family="sans-serif" font-size="14" fill="#3a2a14">HW</text>
<circle cx="274.680" cy="1858.316" r="3" fill="#3a2a14"/>
<text x="280.680" y="1872.316" font-family="sans-serif" font-size="14" fill="#3a2a14">RIM</text>
<circle cx="140.652" cy="1812.642" r="3" fill="#3a2a14"/>
<text x="146.652" y="1826.642" font-family="sans-serif" font-size="14" fill="#3a2a14">VERTEX</text>
<circle cx="229.764" cy="1720.008" r="3" fill="#3a2a14"/>
<text x="235.764" y="1710.008" font-family="sans-serif" font-size="14" fill="#3a2a14">FOCUS</text>
<circle cx="543.571" cy="1569.634" r="65.000" fill="#1c1c1c" stroke="#000" stroke-width="1.2" fill-opacity="0.55"/>
<text x="612.571" y="1574.634" font-family="sans-serif" font-size="14" fill="#000">bass Ø130</text>
<circle cx="708.404" cy="1236.337" r="57.500" fill="#1c1c1c" stroke="#000" stroke-width="1.2" fill-opacity="0.55"/>
<text x="769.904" y="1241.337" font-family="sans-serif" font-size="14" fill="#000">mid Ø115</text>
<circle cx="829.338" cy="781.273" r="70.000" fill="#1c1c1c" stroke="#000" stroke-width="1.2" fill-opacity="0.55"/>
<text x="903.338" y="786.273" font-family="sans-serif" font-size="14" fill="#000">treble Ø140</text>
<circle cx="872.608" cy="601.953" r="37.500" fill="#1c1c1c" stroke="#000" stroke-width="1.2" fill-opacity="0.55"/>
<text x="914.108" y="606.953" font-family="sans-serif" font-size="14" fill="#000">treble2 Ø75</text>
<path d="M 77.962 1870.000 L 77.962 1860.043 L 77.962 1850.086 L 77.962 1840.129 L 77.962 1830.172 L 77.962 1820.215 L 77.962 1810.258 L 77.962 1800.301 L 77.962 1790.344 L 77.962 1780.387 L 77.962 1770.430 L 77.962 1760.473 L 77.962 1750.516 L 77.962 1740.559 L 77.962 1730.602 L 77.962 1720.645 L 77.962 1710.688 L 77.962 1700.731 L 77.333 1690.774 L 76.623 1680.817 L 75.924 1670.860 L 75.235 1660.903 L 74.555 1650.946 L 73.886 1640.989 L 73.227 1631.032 L 72.577 1621.075 L 71.938 1611.118 L 71.308 1601.161 L 70.689 1591.204 L 70.079 1581.247 L 69.480 1571.290 L 68.890 1561.333 L 68.311 1551.376 L 67.741 1541.419 L 67.181 1531.462 L 66.632 1521.505 L 66.092 1511.548 L 65.562 1501.591 L 65.042 1491.634 L 64.532 1481.677 L 64.032 1471.720 L 63.542 1461.763 L 63.062 1451.806 L 62.592 1441.849 L 62.132 1431.892 L 61.682 1421.935 L 61.242 1411.978 L 60.811 1402.021 L 60.391 1392.064 L 59.981 1382.107 L 59.580 1372.150 L 59.190 1362.193 L 58.809 1352.236 L 58.438 1342.279 L 58.078 1332.322 L 57.727 1322.365 L 57.386 1312.408 L 57.055 1302.451 L 56.734 1292.494 L 56.423 1282.537 L 56.122 1272.580 L 55.830 1262.623 L 55.549 1252.666 L 55.278 1242.709 L 55.016 1232.752 L 54.765 1222.795 L 54.523 1212.838 L 54.291 1202.881 L 54.070 1192.924 L 53.858 1182.967 L 53.656 1173.010 L 53.464 1163.053 L 53.282 1153.096 L 53.110 1143.139 L 52.947 1133.182 L 52.795 1123.225 L 52.653 1113.268 L 52.520 1103.311 L 52.398 1093.354 L 52.285 1083.397 L 52.182 1073.440 L 52.089 1063.483 L 52.006 1053.526 L 51.933 1043.569 L 51.870 1033.612 L 51.817 1023.655 L 51.774 1013.698 L 51.741 1003.741 L 51.717 993.784 L 51.704 983.827 L 51.700 973.870 L 51.706 963.913 L 51.723 953.956 L 51.749 943.999 L 51.785 934.042 L 51.831 924.085 L 51.887 914.128 L 51.953 904.171 L 52.028 894.214 L 52.114 884.257 L 52.209 874.300 L 52.315 864.343 L 52.430 854.386 L 52.556 844.429 L 52.691 834.472 L 52.836 824.515 L 52.991 814.558 L 53.156 804.601 L 53.331 794.644 L 53.516 784.687 L 53.710 774.730 L 53.915 764.773 L 54.130 754.816 L 54.354 744.859 L 54.588 734.902 L 54.833 724.945 L 55.087 714.988 L 55.351 705.031 L 55.625 695.074 L 55.909 685.117 L 56.203 675.160 L 56.507 665.203 L 56.821 655.246 L 57.145 645.289 L 57.478 635.332 L 57.822 625.375 L 58.176 615.418 L 58.539 605.461 L 58.912 595.504 L 59.296 585.547 L 59.689 575.590 L 60.092 565.633 L 60.505 555.676 L 60.929 545.719 L 61.362 535.762 L 61.805 525.805 L 62.257 515.848 L 62.720 505.891 L 63.193 495.934 L 63.676 485.977 L 64.169 476.020 L 64.671 466.063 L 65.184 456.106 L 65.707 446.149 L 66.239 436.192 L 66.782 426.235 L 67.334 416.278 L 67.896 406.321 L 68.469 396.364 L 69.051 386.407 L 69.643 376.450 L 70.246 366.493 L 70.858 356.536 L 71.480 346.579 L 72.112 336.622 L 72.754 326.665 L 73.407 316.708 L 74.069 306.751 L 74.741 296.794 L 75.423 286.837 L 76.115 276.880 L 76.817 266.923 L 77.529 256.966 L 78.251 247.009 L 78.983 237.052 L 79.725 227.095 L 80.477 217.138 L 81.239 207.181 L 82.011 197.224 L 82.793 187.267 L 83.585 177.310 L 84.387 167.353 L 85.199 157.396 L 86.021 147.439 L 86.853 137.482 L 87.696 127.525 L 88.548 117.568 L 85.935 117.568 L 85.736 117.712 L 85.537 117.857 L 85.338 118.002 L 85.138 118.147 L 84.939 118.292 L 84.739 118.437 L 84.540 118.583 L 84.340 118.728 L 84.141 118.874 L 83.941 119.019 L 83.741 119.165 L 83.541 119.311 L 83.342 119.457 L 83.142 119.603 L 82.942 119.749 L 82.741 119.895 L 82.541 120.042 L 82.341 120.188 L 82.141 120.335 L 81.941 120.482 L 81.740 120.629 L 81.540 120.775 L 81.339 120.922 L 81.139 121.070 L 80.938 121.217 L 80.737 121.364 L 80.536 121.512 L 80.335 121.659 L 80.135 121.807 L 79.934 121.955 L 79.732 122.102 L 79.531 122.250 L 79.330 122.398 L 79.129 122.547 L 78.928 122.695 L 78.726 122.843 L 78.525 122.992 L 78.323 123.140 L 78.122 123.289 L 77.920 123.438 L 77.718 123.587 L 77.517 123.736 L 77.315 123.885 L 77.113 124.034 L 76.911 124.183 L 76.709 124.332 L 76.507 124.482 L 76.305 124.631 L 76.102 124.781 L 75.900 124.931 L 75.698 125.081 L 75.495 125.231 L 75.293 125.381 L 75.090 125.531 L 74.887 125.681 L 74.685 125.831 L 74.482 125.982 L 74.279 126.132 L 74.076 126.283 L 73.873 126.434 L 73.670 126.584 L 73.467 126.735 L 73.264 126.886 L 73.061 127.037 L 72.857 127.188 L 72.654 127.340 L 72.450 127.491 L 72.247 127.643 L 72.043 127.794 L 71.840 127.946 L 71.636 128.097 L 71.432 128.249 L 71.228 128.401 L 71.024 128.553 L 70.820 128.705 L 70.616 128.857 L 70.412 129.010 L 70.208 129.162 L 70.004 129.314 L 69.799 129.467 L 69.595 129.620 L 69.390 129.772 L 69.186 129.925 L 68.981 130.078 L 68.777 130.231 L 68.572 130.384 L 68.367 130.537 L 68.162 130.690 L 67.957 130.844 L 67.752 130.997 L 67.547 131.151 L 67.342 131.304 L 67.137 131.458 L 66.931 131.612 L 66.726 131.765 L 66.520 131.919 L 66.315 132.073 L 66.109 132.227 L 65.904 132.381 L 65.698 132.536 L 65.492 132.690 L 65.286 132.844 L 65.080 132.999 L 64.874 133.154 L 64.668 133.308 L 64.462 133.463 L 64.256 133.618 L 64.049 133.773 L 63.843 133.928 L 63.636 134.083 L 63.430 134.238 L 63.223 134.393 L 63.017 134.548 L 62.810 134.704 L 62.603 134.859 L 62.396 135.015 L 62.189 135.170 L 61.982 135.326 L 61.775 135.482 L 61.568 135.638 L 61.361 135.794 L 61.153 135.950 L 60.946 136.106 L 60.739 136.262 L 60.531 136.418 L 60.323 136.574 L 60.116 136.731 L 59.908 136.887 L 59.700 137.044 L 59.492 137.200 L 59.284 137.357 L 59.076 137.514 L 58.868 137.671 L 58.660 137.828 L 58.452 137.985 L 58.243 138.142 L 58.035 138.299 L 57.826 138.456 L 57.618 138.613 L 57.409 138.771 L 57.201 138.928 L 56.992 139.085 L 56.783 139.243 L 56.574 139.401 L 56.365 139.558 L 56.156 139.716 L 55.947 139.874 L 55.737 140.032 L 55.528 140.190 L 55.319 140.348 L 55.109 140.506 L 54.900 140.664 L 54.690 140.822 L 54.481 140.981 L 54.271 141.139 L 54.061 141.298 L 53.851 141.456 L 53.641 141.615 L 53.431 141.773 L 53.221 141.932 L 53.011 142.091 L 52.800 142.250 L 52.590 142.409 L 52.380 142.568 L 52.169 142.727 L 51.959 142.886 L 51.748 143.045 L 51.537 143.204 L 51.326 143.364 L 51.115 143.523 L 50.904 143.682 L 50.693 143.842 L 50.482 144.002 L 50.271 144.161 L 50.060 144.321 L 49.849 144.481 L 49.637 144.640 L 49.426 144.800 L 49.214 144.960 L 49.002 145.120 L 48.791 145.280 L 48.579 145.440 L 48.367 145.601 L 48.155 145.761 L 47.943 145.921 L 47.731 146.082 L 47.519 146.242 L 47.094 146.563 L 47.094 146.563 L 46.271 156.525 L 45.457 166.487 L 44.654 176.449 L 43.861 186.411 L 43.078 196.373 L 42.304 206.335 L 41.541 216.297 L 40.788 226.260 L 40.045 236.222 L 39.311 246.184 L 38.588 256.146 L 37.875 266.108 L 37.172 276.070 L 36.478 286.032 L 35.795 295.994 L 35.122 305.956 L 34.459 315.918 L 33.805 325.880 L 33.162 335.842 L 32.529 345.804 L 31.906 355.766 L 31.292 365.728 L 30.689 375.690 L 30.096 385.653 L 29.512 395.615 L 28.939 405.577 L 28.375 415.539 L 27.822 425.501 L 27.278 435.463 L 26.745 445.425 L 26.221 455.387 L 25.708 465.349 L 25.204 475.311 L 24.710 485.273 L 24.227 495.235 L 23.753 505.197 L 23.289 515.159 L 22.835 525.121 L 22.391 535.083 L 21.957 545.046 L 21.534 555.008 L 21.119 564.970 L 20.715 574.932 L 20.321 584.894 L 19.937 594.856 L 19.563 604.818 L 19.199 614.780 L 18.844 624.742 L 18.500 634.704 L 18.165 644.666 L 17.841 654.628 L 17.526 664.590 L 17.222 674.552 L 16.927 684.514 L 16.642 694.476 L 16.367 704.439 L 16.102 714.401 L 15.847 724.363 L 15.602 734.325 L 15.367 744.287 L 15.142 754.249 L 14.927 764.211 L 14.722 774.173 L 14.526 784.135 L 14.341 794.097 L 14.165 804.059 L 14.000 814.021 L 13.844 823.983 L 13.698 833.945 L 13.562 843.907 L 13.437 853.870 L 13.321 863.832 L 13.215 873.794 L 13.118 883.756 L 13.032 893.718 L 12.956 903.680 L 12.890 913.642 L 12.833 923.604 L 12.787 933.566 L 12.750 943.528 L 12.724 953.490 L 12.707 963.452 L 12.700 973.414 L 12.703 983.376 L 12.716 993.338 L 12.739 1003.300 L 12.772 1013.263 L 12.815 1023.225 L 12.868 1033.187 L 12.931 1043.149 L 13.003 1053.111 L 13.086 1063.073 L 13.178 1073.035 L 13.281 1082.997 L 13.393 1092.959 L 13.515 1102.921 L 13.647 1112.883 L 13.789 1122.845 L 13.942 1132.807 L 14.103 1142.769 L 14.275 1152.731 L 14.457 1162.693 L 14.649 1172.656 L 14.851 1182.618 L 15.062 1192.580 L 15.284 1202.542 L 15.515 1212.504 L 15.757 1222.466 L 16.008 1232.428 L 16.269 1242.390 L 16.540 1252.352 L 16.822 1262.314 L 17.113 1272.276 L 17.414 1282.238 L 17.725 1292.200 L 18.045 1302.162 L 18.376 1312.124 L 18.717 1322.087 L 19.068 1332.049 L 19.428 1342.011 L 19.799 1351.973 L 20.180 1361.935 L 20.570 1371.897 L 20.971 1381.859 L 21.381 1391.821 L 21.801 1401.783 L 22.232 1411.745 L 22.672 1421.707 L 23.122 1431.669 L 23.582 1441.631 L 24.052 1451.593 L 24.532 1461.555 L 25.022 1471.517 L 25.522 1481.480 L 26.032 1491.442 L 26.552 1501.404 L 27.082 1511.366 L 27.622 1521.328 L 28.172 1531.290 L 28.732 1541.252 L 29.301 1551.214 L 29.881 1561.176 L 30.471 1571.138 L 31.070 1581.100 L 31.680 1591.062 L 32.300 1601.024 L 32.929 1610.986 L 33.569 1620.948 L 34.219 1630.910 L 34.878 1640.873 L 35.548 1650.835 L 36.227 1660.797 L 36.917 1670.759 L 37.616 1680.721 L 38.326 1690.683 L 39.046 1700.645 L 39.775 1710.607 L 40.515 1720.569 L 41.264 1730.531 L 42.024 1740.493 L 42.793 1750.455 L 43.173 1760.417 L 43.173 1770.379 L 43.173 1780.341 L 43.173 1790.303 L 43.173 1800.266 L 43.173 1810.228 L 43.173 1820.190 L 43.173 1830.152 L 43.173 1840.114 L 43.173 1850.076 L 43.173 1860.038 L 43.173 1870.000 Z" fill="#d4c59c" stroke="#222" stroke-width="1.2"/>
<line x1="-100" y1="1870.000" x2="1000" y2="1870.000" stroke="#4a7c2e" stroke-width="3.0" stroke-dasharray="8 4"/>
<path d="M 906.613 481.939 L 905.747 481.007 L 904.877 480.101 L 904.003 479.222 L 903.124 478.369 L 902.241 477.542 L 901.355 476.742 L 900.464 475.968 L 899.569 475.221 L 898.669 474.499 L 897.766 473.805 L 896.859 473.136 L 895.947 472.494 L 895.031 471.878 L 894.112 471.288 L 893.188 470.725 L 892.260 470.188 L 891.327 469.678 L 890.391 469.194 L 889.451 468.736 L 888.506 468.305 L 887.557 467.899 L 886.604 467.521 L 885.647 467.168 L 884.686 466.842 L 883.721 466.542 L 882.752 466.269 L 881.778 466.022 L 880.801 465.801 L 879.819 465.607 L 878.833 465.439 L 877.843 465.297 L 876.849 465.182 L 875.851 465.093 L 874.848 465.031 L 873.842 464.994 L 872.831 464.984 L 871.816 465.001 L 870.797 465.044 L 869.774 465.113 L 868.747 465.208 L 867.716 465.330 L 866.680 465.478 L 865.641 465.653 L 864.597 465.853 L 863.549 466.081 L 862.497 466.334 L 861.441 466.614 L 860.381 466.920 L 859.317 467.253 L 858.248 467.612 L 857.176 467.997 L 856.099 468.408 L 855.018 468.846 L 853.933 469.311 L 852.844 469.801 L 851.751 470.318 L 850.654 470.862 L 849.552 471.431 L 848.447 472.027 L 847.337 472.650 L 906.613 481.939 Z" fill="#c4a06a" fill-opacity="0.55" stroke="#3a2a14" stroke-width="1.2"/>
<line x1="876.975" y1="477.294" x2="829.338" y2="781.273" stroke="#3a2a14" stroke-width="0.5" stroke-dasharray="6 4"/>
<circle cx="906.613" cy="481.939" r="2.2" fill="#3a2a14"/>
<text x="911.613" y="477.939" font-family="sans-serif" font-size="12" fill="#3a2a14">HW_T</text>
<circle cx="847.337" cy="472.650" r="2.2" fill="#3a2a14"/>
<text x="852.337" y="468.650" font-family="sans-serif" font-size="12" fill="#3a2a14">RIM_T</text>
<circle cx="878.833" cy="465.439" r="2.2" fill="#3a2a14"/>
<text x="883.833" y="461.439" font-family="sans-serif" font-size="12" fill="#3a2a14">VERTEX_T</text>
<circle cx="874.072" cy="495.818" r="2.2" fill="#3a2a14"/>
<text x="879.072" y="491.818" font-family="sans-serif" font-size="12" fill="#3a2a14">FOCUS_T</text>
<circle cx="12.700" cy="146.563" r="3" fill="#000"/>
<text x="18.700" y="150.563" font-family="sans-serif" font-size="18" fill="#000">NT</text>
<circle cx="12.700" cy="323.844" r="3" fill="#000"/>
<text x="18.700" y="327.844" font-family="sans-serif" font-size="18" fill="#000">NB</text>
<circle cx="838.784" cy="481.939" r="3" fill="#000"/>
<text x="844.784" y="485.939" font-family="sans-serif" font-size="18" fill="#000">ST</text>
<circle cx="906.613" cy="481.939" r="3" fill="#000"/>
<text x="912.613" y="485.939" font-family="sans-serif" font-size="18" fill="#000">BT</text>
<circle cx="101.698" cy="1661.487" r="2" fill="#2e8b57"/>
<circle cx="119.633" cy="1632.787" r="2" fill="#2e8b57"/>
<circle cx="137.567" cy="1604.087" r="2" fill="#2e8b57"/>
<circle cx="155.509" cy="1575.375" r="2" fill="#2e8b57"/>
<circle cx="173.455" cy="1546.656" r="2" fill="#2e8b57"/>
<circle cx="191.389" cy="1517.956" r="2" fill="#2e8b57"/>
<circle cx="209.324" cy="1489.255" r="2" fill="#2e8b57"/>
<circle cx="227.259" cy="1460.554" r="2" fill="#2e8b57"/>
<circle cx="245.201" cy="1431.842" r="2" fill="#2e8b57"/>
<circle cx="263.135" cy="1403.142" r="2" fill="#2e8b57"/>
<circle cx="281.081" cy="1374.423" r="2" fill="#2e8b57"/>
<circle cx="299.016" cy="1345.723" r="2" fill="#2e8b57"/>
<circle cx="316.443" cy="1317.834" r="2" fill="#2e8b57"/>
<circle cx="333.858" cy="1289.965" r="2" fill="#2e8b57"/>
<circle cx="351.285" cy="1262.077" r="2" fill="#2e8b57"/>
<circle cx="368.712" cy="1234.189" r="2" fill="#2e8b57"/>
<circle cx="385.111" cy="1207.946" r="2" fill="#2e8b57"/>
<circle cx="401.522" cy="1181.683" r="2" fill="#2e8b57"/>
<circle cx="417.914" cy="1155.451" r="2" fill="#2e8b57"/>
<circle cx="433.298" cy="1130.833" r="2" fill="#2e8b57"/>
<circle cx="448.663" cy="1106.245" r="2" fill="#2e8b57"/>
<circle cx="464.039" cy="1081.639" r="2" fill="#2e8b57"/>
<circle cx="479.423" cy="1057.020" r="2" fill="#2e8b57"/>
<circle cx="494.799" cy="1032.414" r="2" fill="#2e8b57"/>
<circle cx="510.165" cy="1007.824" r="2" fill="#2e8b57"/>
<circle cx="525.540" cy="983.218" r="2" fill="#2e8b57"/>
<circle cx="539.890" cy="960.255" r="2" fill="#2e8b57"/>
<circle cx="554.239" cy="937.293" r="2" fill="#2e8b57"/>
<circle cx="568.588" cy="914.330" r="2" fill="#2e8b57"/>
<circle cx="582.937" cy="891.367" r="2" fill="#2e8b57"/>
<circle cx="597.286" cy="868.405" r="2" fill="#2e8b57"/>
<circle cx="611.636" cy="845.441" r="2" fill="#2e8b57"/>
<circle cx="625.985" cy="822.478" r="2" fill="#2e8b57"/>
<circle cx="639.318" cy="801.142" r="2" fill="#2e8b57"/>
<circle cx="652.644" cy="779.817" r="2" fill="#2e8b57"/>
<circle cx="665.966" cy="758.498" r="2" fill="#2e8b57"/>
<circle cx="679.299" cy="737.160" r="2" fill="#2e8b57"/>
<circle cx="692.614" cy="715.852" r="2" fill="#2e8b57"/>
<circle cx="705.947" cy="694.516" r="2" fill="#2e8b57"/>
<circle cx="719.274" cy="673.190" r="2" fill="#2e8b57"/>
<circle cx="732.595" cy="651.872" r="2" fill="#2e8b57"/>
<circle cx="745.929" cy="630.534" r="2" fill="#2e8b57"/>
<circle cx="759.244" cy="609.226" r="2" fill="#2e8b57"/>
<circle cx="772.577" cy="587.890" r="2" fill="#2e8b57"/>
<circle cx="785.891" cy="566.583" r="2" fill="#2e8b57"/>
<circle cx="799.224" cy="545.246" r="2" fill="#2e8b57"/>
<circle cx="812.546" cy="523.927" r="2" fill="#2e8b57"/>
<path d="M 787.406 481.939 L 787.406 481.940 L 790.139 480.966 L 792.883 480.024 L 795.638 479.113 L 798.404 478.235 L 801.179 477.389 L 803.964 476.575 L 806.758 475.794 L 809.561 475.044 L 812.372 474.328 L 815.192 473.644 L 818.019 472.993 L 820.854 472.375 L 823.696 471.790 L 826.544 471.238 L 829.399 470.719 L 832.259 470.233 L 835.125 469.780 L 837.996 469.360 L 840.871 468.974 L 843.751 468.622 L 846.635 468.302 L 849.522 468.017 L 852.413 467.765 L 855.306 467.546 L 858.201 467.361 L 861.099 467.209 L 863.998 467.092 L 866.898 467.007 L 869.799 466.957 L 872.700 466.940 L 875.601 466.957 L 878.502 467.007 L 881.402 467.092 L 884.301 467.209 L 887.199 467.361 L 890.094 467.546 L 892.987 467.765 L 895.878 468.017 L 898.765 468.302 L 901.649 468.622 L 904.529 468.974 L 907.404 469.360 L 910.275 469.780 L 913.141 470.233 L 916.001 470.719 L 918.856 471.238 L 921.704 471.790 L 924.546 472.375 L 927.381 472.993 L 930.208 473.644 L 933.028 474.328 L 935.839 475.044 L 938.642 475.794 L 941.436 476.575 L 944.221 477.389 L 946.996 478.235 L 949.762 479.113 L 952.517 480.024 L 955.261 480.966 L 957.994 481.940 L 957.994 481.939 Z" fill="#c7e4f0" fill-opacity="0.6" stroke="#6b4a2a" stroke-width="1.2" stroke-opacity="0.75"/>
<circle cx="872.700" cy="466.940" r="1.5" fill="#6b4a2a"/>
<text x="876.700" y="464.940" font-family="sans-serif" font-size="10" fill="#6b4a2a">DIFF_C</text>
<g transform="translate(51.9,81.27)"><path d="M -20.1538,277.0700 C 55.287862,242.03878 10.894084,259.96888 71.658,235.7005 380.947,130.9915 279.756,584.156 546.465,547.616 c 58.939,-8.075 170.604,-93.618 220.348,-153.853 18.466,-22.361 28.02,-5.815 20.071,6.906 l 67.848,-0.062 C 876.681,365.484 842.469,279.913 764.971,337.537 687.472,395.161 529.059,601.165 370.465,228.445 226.498,-109.899 136.787,-41.754 -4.806,65.293 c -5.474,65.8313 -9.976381,145.85121 -14.145081,211.78101" fill="#c79568" fill-opacity="0.4" stroke="#8b4513" stroke-width="3.0"/></g>
<circle cx="112.800" cy="108.463" r="7.700" fill="#d46a3a" fill-opacity="0.55" stroke="#000" stroke-width="0.3"/>
<circle cx="103.200" cy="146.563" r="1.500" fill="#222" stroke="#000" stroke-width="0.3"/>
<circle cx="101.700" cy="231.590" r="8.0" fill="none" stroke="#3366cc" stroke-width="0.6"/>
<circle cx="101.700" cy="231.590" r="1.5" fill="#3366cc"/>
<circle cx="101.700" cy="311.844" r="8.0" fill="none" stroke="#cc3333" stroke-width="0.6"/>
<circle cx="101.700" cy="311.844" r="1.5" fill="#cc3333"/>
<circle cx="130.732" cy="105.009" r="7.700" fill="#3a6fd4" fill-opacity="0.55" stroke="#000" stroke-width="0.3"/>
<circle cx="121.132" cy="143.109" r="1.500" fill="#222" stroke="#000" stroke-width="0.3"/>
<circle cx="119.632" cy="226.719" r="8.0" fill="none" stroke="#3366cc" stroke-width="0.6"/>
<circle cx="119.632" cy="226.719" r="1.5" fill="#3366cc"/>
<circle cx="119.632" cy="305.635" r="8.0" fill="none" stroke="#cc3333" stroke-width="0.6"/>
<circle cx="119.632" cy="305.635" r="1.5" fill="#cc3333"/>
<circle cx="148.665" cy="101.554" r="7.700" fill="#d46a3a" fill-opacity="0.55" stroke="#000" stroke-width="0.3"/>
<circle cx="139.065" cy="139.654" r="1.500" fill="#222" stroke="#000" stroke-width="0.3"/>
<circle cx="137.565" cy="221.847" r="8.0" fill="none" stroke="#3366cc" stroke-width="0.6"/>
<circle cx="137.565" cy="221.847" r="1.5" fill="#3366cc"/>
<circle cx="137.565" cy="299.426" r="8.0" fill="none" stroke="#cc3333" stroke-width="0.6"/>
<circle cx="137.565" cy="299.426" r="1.5" fill="#cc3333"/>
<circle cx="166.623" cy="98.100" r="7.700" fill="#3a6fd4" fill-opacity="0.55" stroke="#000" stroke-width="0.3"/>
<circle cx="157.023" cy="136.200" r="1.500" fill="#222" stroke="#000" stroke-width="0.3"/>
<circle cx="155.523" cy="216.975" r="8.0" fill="none" stroke="#3366cc" stroke-width="0.6"/>
<circle cx="155.523" cy="216.975" r="1.5" fill="#3366cc"/>
<circle cx="155.523" cy="293.217" r="8.0" fill="none" stroke="#cc3333" stroke-width="0.6"/>
<circle cx="155.523" cy="293.217" r="1.5" fill="#cc3333"/>
<circle cx="182.555" cy="99.675" r="7.700" fill="#d46a3a" fill-opacity="0.55" stroke="#000" stroke-width="0.3"/>
<circle cx="174.955" cy="137.775" r="1.500" fill="#222" stroke="#000" stroke-width="0.3"/>
<circle cx="173.455" cy="216.850" r="8.0" fill="none" stroke="#3366cc" stroke-width="0.6"/>
<circle cx="173.455" cy="216.850" r="1.5" fill="#3366cc"/>
<circle cx="173.455" cy="291.486" r="8.0" fill="none" stroke="#cc3333" stroke-width="0.6"/>
<circle cx="173.455" cy="291.486" r="1.5" fill="#cc3333"/>
<circle cx="200.487" cy="101.275" r="7.700" fill="#3a6fd4" fill-opacity="0.55" stroke="#000" stroke-width="0.3"/>
<circle cx="192.887" cy="139.375" r="1.500" fill="#222" stroke="#000" stroke-width="0.3"/>
<circle cx="191.387" cy="216.749" r="8.0" fill="none" stroke="#3366cc" stroke-width="0.6"/>
<circle cx="191.387" cy="216.749" r="1.5" fill="#3366cc"/>
<circle cx="191.387" cy="289.780" r="8.0" fill="none" stroke="#cc3333" stroke-width="0.6"/>
<circle cx="191.387" cy="289.780" r="1.5" fill="#cc3333"/>
<circle cx="218.420" cy="102.875" r="7.700" fill="#d46a3a" fill-opacity="0.55" stroke="#000" stroke-width="0.3"/>
<circle cx="210.820" cy="140.975" r="1.500" fill="#222" stroke="#000" stroke-width="0.3"/>
<circle cx="209.320" cy="216.648" r="8.0" fill="none" stroke="#3366cc" stroke-width="0.6"/>
<circle cx="209.320" cy="216.648" r="1.5" fill="#3366cc"/>
<circle cx="209.320" cy="288.074" r="8.0" fill="none" stroke="#cc3333" stroke-width="0.6"/>
<circle cx="209.320" cy="288.074" r="1.5" fill="#cc3333"/>
<circle cx="236.352" cy="104.475" r="7.700" fill="#3a6fd4" fill-opacity="0.55" stroke="#000" stroke-width="0.3"/>
<circle cx="228.752" cy="142.575" r="1.500" fill="#222" stroke="#000" stroke-width="0.3"/>
<circle cx="227.252" cy="216.548" r="8.0" fill="none" stroke="#3366cc" stroke-width="0.6"/>
<circle cx="227.252" cy="216.548" r="1.5" fill="#3366cc"/>
<circle cx="227.252" cy="286.368" r="8.0" fill="none" stroke="#cc3333" stroke-width="0.6"/>
<circle cx="227.252" cy="286.368" r="1.5" fill="#cc3333"/>
<circle cx="254.310" cy="111.130" r="7.700" fill="#d46a3a" fill-opacity="0.55" stroke="#000" stroke-width="0.3"/>
<circle cx="246.710" cy="149.230" r="1.500" fill="#222" stroke="#000" stroke-width="0.3"/>
<circle cx="245.210" cy="221.218" r="8.0" fill="none" stroke="#3366cc" stroke-width="0.6"/>
<circle cx="245.210" cy="221.218" r="1.5" fill="#3366cc"/>
<circle cx="245.210" cy="289.166" r="8.0" fill="none" stroke="#cc3333" stroke-width="0.6"/>
<circle cx="245.210" cy="289.166" r="1.5" fill="#cc3333"/>
<circle cx="272.242" cy="122.814" r="7.700" fill="#3a6fd4" fill-opacity="0.55" stroke="#000" stroke-width="0.3"/>
<circle cx="264.642" cy="160.914" r="1.500" fill="#222" stroke="#000" stroke-width="0.3"/>
<circle cx="263.142" cy="230.635" r="8.0" fill="none" stroke="#3366cc" stroke-width="0.6"/>
<circle cx="263.142" cy="230.635" r="1.5" fill="#3366cc"/>
<circle cx="263.142" cy="296.444" r="8.0" fill="none" stroke="#cc3333" stroke-width="0.6"/>
<circle cx="263.142" cy="296.444" r="1.5" fill="#cc3333"/>
<circle cx="290.175" cy="114.280" r="7.700" fill="#d46a3a" fill-opacity="0.55" stroke="#000" stroke-width="0.3"/>
<circle cx="282.575" cy="152.380" r="1.500" fill="#222" stroke="#000" stroke-width="0.3"/>
<circle cx="281.075" cy="220.968" r="8.0" fill="none" stroke="#3366cc" stroke-width="0.6"/>
<circle cx="281.075" cy="220.968" r="1.5" fill="#3366cc"/>
<circle cx="281.075" cy="285.707" r="8.0" fill="none" stroke="#cc3333" stroke-width="0.6"/>
<circle cx="281.075" cy="285.707" r="1.5" fill="#cc3333"/>
<circle cx="308.107" cy="120.935" r="7.700" fill="#3a6fd4" fill-opacity="0.55" stroke="#000" stroke-width="0.3"/>
<circle cx="300.507" cy="159.035" r="1.500" fill="#222" stroke="#000" stroke-width="0.3"/>
<circle cx="299.007" cy="225.639" r="8.0" fill="none" stroke="#3366cc" stroke-width="0.6"/>
<circle cx="299.007" cy="225.639" r="1.5" fill="#3366cc"/>
<circle cx="299.007" cy="288.504" r="8.0" fill="none" stroke="#cc3333" stroke-width="0.6"/>
<circle cx="299.007" cy="288.504" r="1.5" fill="#cc3333"/>
<circle cx="325.532" cy="168.788" r="7.700" fill="#d46a3a" fill-opacity="0.55" stroke="#000" stroke-width="0.3"/>
<circle cx="317.932" cy="206.888" r="1.500" fill="#222" stroke="#000" stroke-width="0.3"/>
<circle cx="316.432" cy="269.241" r="8.0" fill="none" stroke="#3366cc" stroke-width="0.6"/>
<circle cx="316.432" cy="269.241" r="1.5" fill="#3366cc"/>
<circle cx="316.432" cy="328.094" r="8.0" fill="none" stroke="#cc3333" stroke-width="0.6"/>
<circle cx="316.432" cy="328.094" r="1.5" fill="#cc3333"/>
<circle cx="342.956" cy="196.474" r="7.700" fill="#3a6fd4" fill-opacity="0.55" stroke="#000" stroke-width="0.3"/>
<circle cx="335.356" cy="234.574" r="1.500" fill="#222" stroke="#000" stroke-width="0.3"/>
<circle cx="333.856" cy="293.809" r="8.0" fill="none" stroke="#3366cc" stroke-width="0.6"/>
<circle cx="333.856" cy="293.809" r="1.5" fill="#3366cc"/>
<circle cx="333.856" cy="349.719" r="8.0" fill="none" stroke="#cc3333" stroke-width="0.6"/>
<circle cx="333.856" cy="349.719" r="1.5" fill="#cc3333"/>
<circle cx="360.380" cy="234.219" r="7.700" fill="#d46a3a" fill-opacity="0.55" stroke="#000" stroke-width="0.3"/>
<circle cx="352.780" cy="272.319" r="1.500" fill="#222" stroke="#000" stroke-width="0.3"/>
<circle cx="351.280" cy="327.870" r="8.0" fill="none" stroke="#3366cc" stroke-width="0.6"/>
<circle cx="351.280" cy="327.870" r="1.5" fill="#3366cc"/>
<circle cx="351.280" cy="380.303" r="8.0" fill="none" stroke="#cc3333" stroke-width="0.6"/>
<circle cx="351.280" cy="380.303" r="1.5" fill="#cc3333"/>
<circle cx="377.805" cy="271.988" r="7.700" fill="#3a6fd4" fill-opacity="0.55" stroke="#000" stroke-width="0.3"/>
<circle cx="370.205" cy="310.088" r="1.500" fill="#222" stroke="#000" stroke-width="0.3"/>
<circle cx="368.705" cy="361.954" r="8.0" fill="none" stroke="#3366cc" stroke-width="0.6"/>
<circle cx="368.705" cy="361.954" r="1.5" fill="#3366cc"/>
<circle cx="368.705" cy="410.909" r="8.0" fill="none" stroke="#cc3333" stroke-width="0.6"/>
<circle cx="368.705" cy="410.909" r="1.5" fill="#cc3333"/>
<circle cx="394.213" cy="306.355" r="7.700" fill="#d46a3a" fill-opacity="0.55" stroke="#000" stroke-width="0.3"/>
<circle cx="386.613" cy="344.455" r="1.500" fill="#222" stroke="#000" stroke-width="0.3"/>
<circle cx="385.113" cy="392.919" r="8.0" fill="none" stroke="#3366cc" stroke-width="0.6"/>
<circle cx="385.113" cy="392.919" r="1.5" fill="#3366cc"/>
<circle cx="385.113" cy="438.664" r="8.0" fill="none" stroke="#cc3333" stroke-width="0.6"/>
<circle cx="385.113" cy="438.664" r="1.5" fill="#cc3333"/>
<circle cx="410.622" cy="350.779" r="7.700" fill="#3a6fd4" fill-opacity="0.55" stroke="#000" stroke-width="0.3"/>
<circle cx="403.022" cy="388.879" r="1.500" fill="#222" stroke="#000" stroke-width="0.3"/>
<circle cx="401.522" cy="433.376" r="8.0" fill="none" stroke="#3366cc" stroke-width="0.6"/>
<circle cx="401.522" cy="433.376" r="1.5" fill="#3366cc"/>
<circle cx="401.522" cy="475.376" r="8.0" fill="none" stroke="#cc3333" stroke-width="0.6"/>
<circle cx="401.522" cy="475.376" r="1.5" fill="#cc3333"/>
<circle cx="427.005" cy="385.145" r="7.700" fill="#d46a3a" fill-opacity="0.55" stroke="#000" stroke-width="0.3"/>
<circle cx="419.405" cy="423.245" r="1.500" fill="#222" stroke="#000" stroke-width="0.3"/>
<circle cx="417.905" cy="464.341" r="8.0" fill="none" stroke="#3366cc" stroke-width="0.6"/>
<circle cx="417.905" cy="464.341" r="1.5" fill="#3366cc"/>
<circle cx="417.905" cy="503.130" r="8.0" fill="none" stroke="#cc3333" stroke-width="0.6"/>
<circle cx="417.905" cy="503.130" r="1.5" fill="#cc3333"/>
<circle cx="442.397" cy="426.166" r="7.700" fill="#3a6fd4" fill-opacity="0.55" stroke="#000" stroke-width="0.3"/>
<circle cx="434.797" cy="464.266" r="1.500" fill="#222" stroke="#000" stroke-width="0.3"/>
<circle cx="433.297" cy="501.678" r="8.0" fill="none" stroke="#3366cc" stroke-width="0.6"/>
<circle cx="433.297" cy="501.678" r="1.5" fill="#3366cc"/>
<circle cx="433.297" cy="536.990" r="8.0" fill="none" stroke="#cc3333" stroke-width="0.6"/>
<circle cx="433.297" cy="536.990" r="1.5" fill="#cc3333"/>
<circle cx="457.764" cy="447.020" r="7.700" fill="#d46a3a" fill-opacity="0.55" stroke="#000" stroke-width="0.3"/>
<circle cx="450.164" cy="485.120" r="1.500" fill="#222" stroke="#000" stroke-width="0.3"/>
<circle cx="448.664" cy="519.981" r="8.0" fill="none" stroke="#3366cc" stroke-width="0.6"/>
<circle cx="448.664" cy="519.981" r="1.5" fill="#3366cc"/>
<circle cx="448.664" cy="552.886" r="8.0" fill="none" stroke="#cc3333" stroke-width="0.6"/>
<circle cx="448.664" cy="552.886" r="1.5" fill="#cc3333"/>
<circle cx="473.131" cy="472.928" r="7.700" fill="#3a6fd4" fill-opacity="0.55" stroke="#000" stroke-width="0.3"/>
<circle cx="465.531" cy="511.028" r="1.500" fill="#222" stroke="#000" stroke-width="0.3"/>
<circle cx="464.031" cy="543.054" r="8.0" fill="none" stroke="#3366cc" stroke-width="0.6"/>
<circle cx="464.031" cy="543.054" r="1.5" fill="#3366cc"/>
<circle cx="464.031" cy="573.282" r="8.0" fill="none" stroke="#cc3333" stroke-width="0.6"/>
<circle cx="464.031" cy="573.282" r="1.5" fill="#cc3333"/>
<circle cx="488.523" cy="493.756" r="7.700" fill="#d46a3a" fill-opacity="0.55" stroke="#000" stroke-width="0.3"/>
<circle cx="480.923" cy="531.856" r="1.500" fill="#222" stroke="#000" stroke-width="0.3"/>
<circle cx="479.423" cy="561.332" r="8.0" fill="none" stroke="#3366cc" stroke-width="0.6"/>
<circle cx="479.423" cy="561.332" r="1.5" fill="#3366cc"/>
<circle cx="479.423" cy="589.153" r="8.0" fill="none" stroke="#cc3333" stroke-width="0.6"/>
<circle cx="479.423" cy="589.153" r="1.5" fill="#cc3333"/>
<circle cx="503.890" cy="509.529" r="7.700" fill="#3a6fd4" fill-opacity="0.55" stroke="#000" stroke-width="0.3"/>
<circle cx="496.290" cy="547.629" r="1.500" fill="#222" stroke="#000" stroke-width="0.3"/>
<circle cx="494.790" cy="574.838" r="8.0" fill="none" stroke="#3366cc" stroke-width="0.6"/>
<circle cx="494.790" cy="574.838" r="1.5" fill="#3366cc"/>
<circle cx="494.790" cy="600.520" r="8.0" fill="none" stroke="#cc3333" stroke-width="0.6"/>
<circle cx="494.790" cy="600.520" r="1.5" fill="#cc3333"/>
<circle cx="519.257" cy="520.299" r="7.700" fill="#d46a3a" fill-opacity="0.55" stroke="#000" stroke-width="0.3"/>
<circle cx="511.657" cy="558.399" r="1.500" fill="#222" stroke="#000" stroke-width="0.3"/>
<circle cx="510.157" cy="583.623" r="8.0" fill="none" stroke="#3366cc" stroke-width="0.6"/>
<circle cx="510.157" cy="583.623" r="1.5" fill="#3366cc"/>
<circle cx="510.157" cy="607.432" r="8.0" fill="none" stroke="#cc3333" stroke-width="0.6"/>
<circle cx="510.157" cy="607.432" r="1.5" fill="#cc3333"/>
<circle cx="534.624" cy="531.043" r="7.700" fill="#3a6fd4" fill-opacity="0.55" stroke="#000" stroke-width="0.3"/>
<circle cx="527.024" cy="569.143" r="1.500" fill="#222" stroke="#000" stroke-width="0.3"/>
<circle cx="525.524" cy="592.383" r="8.0" fill="none" stroke="#3366cc" stroke-width="0.6"/>
<circle cx="525.524" cy="592.383" r="1.5" fill="#3366cc"/>
<circle cx="525.524" cy="614.319" r="8.0" fill="none" stroke="#cc3333" stroke-width="0.6"/>
<circle cx="525.524" cy="614.319" r="1.5" fill="#cc3333"/>
<circle cx="548.975" cy="538.384" r="7.700" fill="#d46a3a" fill-opacity="0.55" stroke="#000" stroke-width="0.3"/>
<circle cx="541.375" cy="576.484" r="1.500" fill="#222" stroke="#000" stroke-width="0.3"/>
<circle cx="539.875" cy="598.023" r="8.0" fill="none" stroke="#3366cc" stroke-width="0.6"/>
<circle cx="539.875" cy="598.023" r="1.5" fill="#3366cc"/>
<circle cx="539.875" cy="618.354" r="8.0" fill="none" stroke="#cc3333" stroke-width="0.6"/>
<circle cx="539.875" cy="618.354" r="1.5" fill="#cc3333"/>
<circle cx="563.326" cy="545.699" r="7.700" fill="#3a6fd4" fill-opacity="0.55" stroke="#000" stroke-width="0.3"/>
<circle cx="555.726" cy="583.799" r="1.500" fill="#222" stroke="#000" stroke-width="0.3"/>
<circle cx="554.226" cy="603.639" r="8.0" fill="none" stroke="#3366cc" stroke-width="0.6"/>
<circle cx="554.226" cy="603.639" r="1.5" fill="#3366cc"/>
<circle cx="554.226" cy="622.365" r="8.0" fill="none" stroke="#cc3333" stroke-width="0.6"/>
<circle cx="554.226" cy="622.365" r="1.5" fill="#cc3333"/>
<circle cx="577.677" cy="547.985" r="7.700" fill="#d46a3a" fill-opacity="0.55" stroke="#000" stroke-width="0.3"/>
<circle cx="570.077" cy="586.085" r="1.500" fill="#222" stroke="#000" stroke-width="0.3"/>
<circle cx="568.577" cy="604.508" r="8.0" fill="none" stroke="#3366cc" stroke-width="0.6"/>
<circle cx="568.577" cy="604.508" r="1.5" fill="#3366cc"/>
<circle cx="568.577" cy="621.897" r="8.0" fill="none" stroke="#cc3333" stroke-width="0.6"/>
<circle cx="568.577" cy="621.897" r="1.5" fill="#cc3333"/>
<circle cx="592.028" cy="550.271" r="7.700" fill="#3a6fd4" fill-opacity="0.55" stroke="#000" stroke-width="0.3"/>
<circle cx="584.428" cy="588.371" r="1.500" fill="#222" stroke="#000" stroke-width="0.3"/>
<circle cx="582.928" cy="605.377" r="8.0" fill="none" stroke="#3366cc" stroke-width="0.6"/>
<circle cx="582.928" cy="605.377" r="1.5" fill="#3366cc"/>
<circle cx="582.928" cy="621.428" r="8.0" fill="none" stroke="#cc3333" stroke-width="0.6"/>
<circle cx="582.928" cy="621.428" r="1.5" fill="#cc3333"/>
<circle cx="606.379" cy="552.557" r="7.700" fill="#d46a3a" fill-opacity="0.55" stroke="#000" stroke-width="0.3"/>
<circle cx="598.779" cy="590.657" r="1.500" fill="#222" stroke="#000" stroke-width="0.3"/>
<circle cx="597.279" cy="606.246" r="8.0" fill="none" stroke="#3366cc" stroke-width="0.6"/>
<circle cx="597.279" cy="606.246" r="1.5" fill="#3366cc"/>
<circle cx="597.279" cy="620.960" r="8.0" fill="none" stroke="#cc3333" stroke-width="0.6"/>
<circle cx="597.279" cy="620.960" r="1.5" fill="#cc3333"/>
<circle cx="620.730" cy="544.734" r="7.700" fill="#3a6fd4" fill-opacity="0.55" stroke="#000" stroke-width="0.3"/>
<circle cx="613.130" cy="582.834" r="1.500" fill="#222" stroke="#000" stroke-width="0.3"/>
<circle cx="611.630" cy="597.573" r="8.0" fill="none" stroke="#3366cc" stroke-width="0.6"/>
<circle cx="611.630" cy="597.573" r="1.5" fill="#3366cc"/>
<circle cx="611.630" cy="611.485" r="8.0" fill="none" stroke="#cc3333" stroke-width="0.6"/>
<circle cx="611.630" cy="611.485" r="1.5" fill="#cc3333"/>
<circle cx="635.081" cy="547.020" r="7.700" fill="#d46a3a" fill-opacity="0.55" stroke="#000" stroke-width="0.3"/>
<circle cx="627.481" cy="585.120" r="1.500" fill="#222" stroke="#000" stroke-width="0.3"/>
<circle cx="625.981" cy="598.442" r="8.0" fill="none" stroke="#3366cc" stroke-width="0.6"/>
<circle cx="625.981" cy="598.442" r="1.5" fill="#3366cc"/>
<circle cx="625.981" cy="611.016" r="8.0" fill="none" stroke="#cc3333" stroke-width="0.6"/>
<circle cx="625.981" cy="611.016" r="1.5" fill="#cc3333"/>
<circle cx="648.416" cy="540.847" r="7.700" fill="#3a6fd4" fill-opacity="0.55" stroke="#000" stroke-width="0.3"/>
<circle cx="640.816" cy="578.947" r="1.500" fill="#222" stroke="#000" stroke-width="0.3"/>
<circle cx="639.316" cy="591.418" r="8.0" fill="none" stroke="#3366cc" stroke-width="0.6"/>
<circle cx="639.316" cy="591.418" r="1.5" fill="#3366cc"/>
<circle cx="639.316" cy="603.189" r="8.0" fill="none" stroke="#cc3333" stroke-width="0.6"/>
<circle cx="639.316" cy="603.189" r="1.5" fill="#cc3333"/>
<circle cx="661.726" cy="534.675" r="7.700" fill="#d46a3a" fill-opacity="0.55" stroke="#000" stroke-width="0.3"/>
<circle cx="654.126" cy="572.775" r="1.500" fill="#222" stroke="#000" stroke-width="0.3"/>
<circle cx="652.626" cy="584.395" r="8.0" fill="none" stroke="#3366cc" stroke-width="0.6"/>
<circle cx="652.626" cy="584.395" r="1.5" fill="#3366cc"/>
<circle cx="652.626" cy="595.363" r="8.0" fill="none" stroke="#cc3333" stroke-width="0.6"/>
<circle cx="652.626" cy="595.363" r="1.5" fill="#cc3333"/>
<circle cx="675.061" cy="528.503" r="7.700" fill="#3a6fd4" fill-opacity="0.55" stroke="#000" stroke-width="0.3"/>
<circle cx="667.461" cy="566.603" r="1.500" fill="#222" stroke="#000" stroke-width="0.3"/>
<circle cx="665.961" cy="577.373" r="8.0" fill="none" stroke="#3366cc" stroke-width="0.6"/>
<circle cx="665.961" cy="577.373" r="1.5" fill="#3366cc"/>
<circle cx="665.961" cy="587.539" r="8.0" fill="none" stroke="#cc3333" stroke-width="0.6"/>
<circle cx="665.961" cy="587.539" r="1.5" fill="#cc3333"/>
<circle cx="688.396" cy="522.331" r="7.700" fill="#d46a3a" fill-opacity="0.55" stroke="#000" stroke-width="0.3"/>
<circle cx="680.796" cy="560.431" r="1.500" fill="#222" stroke="#000" stroke-width="0.3"/>
<circle cx="679.296" cy="570.350" r="8.0" fill="none" stroke="#3366cc" stroke-width="0.6"/>
<circle cx="679.296" cy="570.350" r="1.5" fill="#3366cc"/>
<circle cx="679.296" cy="579.713" r="8.0" fill="none" stroke="#cc3333" stroke-width="0.6"/>
<circle cx="679.296" cy="579.713" r="1.5" fill="#cc3333"/>
<circle cx="701.706" cy="516.159" r="7.700" fill="#3a6fd4" fill-opacity="0.55" stroke="#000" stroke-width="0.3"/>
<circle cx="694.106" cy="554.259" r="1.500" fill="#222" stroke="#000" stroke-width="0.3"/>
<circle cx="692.606" cy="563.329" r="8.0" fill="none" stroke="#3366cc" stroke-width="0.6"/>
<circle cx="692.606" cy="563.329" r="1.5" fill="#3366cc"/>
<circle cx="692.606" cy="571.889" r="8.0" fill="none" stroke="#cc3333" stroke-width="0.6"/>
<circle cx="692.606" cy="571.889" r="1.5" fill="#cc3333"/>
<circle cx="715.041" cy="509.986" r="7.700" fill="#d46a3a" fill-opacity="0.55" stroke="#000" stroke-width="0.3"/>
<circle cx="707.441" cy="548.086" r="1.500" fill="#222" stroke="#000" stroke-width="0.3"/>
<circle cx="705.941" cy="556.305" r="8.0" fill="none" stroke="#3366cc" stroke-width="0.6"/>
<circle cx="705.941" cy="556.305" r="1.5" fill="#3366cc"/>
<circle cx="705.941" cy="564.062" r="8.0" fill="none" stroke="#cc3333" stroke-width="0.6"/>
<circle cx="705.941" cy="564.062" r="1.5" fill="#cc3333"/>
<circle cx="728.350" cy="503.789" r="7.700" fill="#3a6fd4" fill-opacity="0.55" stroke="#000" stroke-width="0.3"/>
<circle cx="720.750" cy="541.889" r="1.500" fill="#222" stroke="#000" stroke-width="0.3"/>
<circle cx="719.250" cy="549.258" r="8.0" fill="none" stroke="#3366cc" stroke-width="0.6"/>
<circle cx="719.250" cy="549.258" r="1.5" fill="#3366cc"/>
<circle cx="719.250" cy="556.213" r="8.0" fill="none" stroke="#cc3333" stroke-width="0.6"/>
<circle cx="719.250" cy="556.213" r="1.5" fill="#cc3333"/>
<circle cx="741.685" cy="492.587" r="7.700" fill="#d46a3a" fill-opacity="0.55" stroke="#000" stroke-width="0.3"/>
<circle cx="734.085" cy="530.687" r="1.500" fill="#222" stroke="#000" stroke-width="0.3"/>
<circle cx="732.585" cy="537.489" r="8.0" fill="none" stroke="#3366cc" stroke-width="0.6"/>
<circle cx="732.585" cy="537.489" r="1.5" fill="#3366cc"/>
<circle cx="732.585" cy="543.908" r="8.0" fill="none" stroke="#cc3333" stroke-width="0.6"/>
<circle cx="732.585" cy="543.908" r="1.5" fill="#cc3333"/>
<circle cx="755.020" cy="481.335" r="7.700" fill="#3a6fd4" fill-opacity="0.55" stroke="#000" stroke-width="0.3"/>
<circle cx="747.420" cy="519.435" r="1.500" fill="#222" stroke="#000" stroke-width="0.3"/>
<circle cx="745.920" cy="525.671" r="8.0" fill="none" stroke="#3366cc" stroke-width="0.6"/>
<circle cx="745.920" cy="525.671" r="1.5" fill="#3366cc"/>
<circle cx="745.920" cy="531.556" r="8.0" fill="none" stroke="#cc3333" stroke-width="0.6"/>
<circle cx="745.920" cy="531.556" r="1.5" fill="#cc3333"/>
<circle cx="768.330" cy="470.134" r="7.700" fill="#d46a3a" fill-opacity="0.55" stroke="#000" stroke-width="0.3"/>
<circle cx="760.730" cy="508.234" r="1.500" fill="#222" stroke="#000" stroke-width="0.3"/>
<circle cx="759.230" cy="513.902" r="8.0" fill="none" stroke="#3366cc" stroke-width="0.6"/>
<circle cx="759.230" cy="513.902" r="1.5" fill="#3366cc"/>
<circle cx="759.230" cy="519.252" r="8.0" fill="none" stroke="#cc3333" stroke-width="0.6"/>
<circle cx="759.230" cy="519.252" r="1.5" fill="#cc3333"/>
<circle cx="781.665" cy="458.882" r="7.700" fill="#3a6fd4" fill-opacity="0.55" stroke="#000" stroke-width="0.3"/>
<circle cx="774.065" cy="496.982" r="1.500" fill="#222" stroke="#000" stroke-width="0.3"/>
<circle cx="772.565" cy="502.084" r="8.0" fill="none" stroke="#3366cc" stroke-width="0.6"/>
<circle cx="772.565" cy="502.084" r="1.5" fill="#3366cc"/>
<circle cx="772.565" cy="506.900" r="8.0" fill="none" stroke="#cc3333" stroke-width="0.6"/>
<circle cx="772.565" cy="506.900" r="1.5" fill="#cc3333"/>
<circle cx="794.974" cy="447.680" r="7.700" fill="#d46a3a" fill-opacity="0.55" stroke="#000" stroke-width="0.3"/>
<circle cx="787.374" cy="485.780" r="1.500" fill="#222" stroke="#000" stroke-width="0.3"/>
<circle cx="785.874" cy="490.315" r="8.0" fill="none" stroke="#3366cc" stroke-width="0.6"/>
<circle cx="785.874" cy="490.315" r="1.5" fill="#3366cc"/>
<circle cx="785.874" cy="494.595" r="8.0" fill="none" stroke="#cc3333" stroke-width="0.6"/>
<circle cx="785.874" cy="494.595" r="1.5" fill="#cc3333"/>
<circle cx="808.309" cy="436.453" r="7.700" fill="#3a6fd4" fill-opacity="0.55" stroke="#000" stroke-width="0.3"/>
<circle cx="800.709" cy="474.553" r="1.500" fill="#222" stroke="#000" stroke-width="0.3"/>
<circle cx="799.209" cy="478.520" r="8.0" fill="none" stroke="#3366cc" stroke-width="0.6"/>
<circle cx="799.209" cy="478.520" r="1.5" fill="#3366cc"/>
<circle cx="799.209" cy="482.265" r="8.0" fill="none" stroke="#cc3333" stroke-width="0.6"/>
<circle cx="799.209" cy="482.265" r="1.5" fill="#cc3333"/>
<circle cx="821.644" cy="425.227" r="7.700" fill="#d46a3a" fill-opacity="0.55" stroke="#000" stroke-width="0.3"/>
<circle cx="814.044" cy="463.327" r="1.500" fill="#222" stroke="#000" stroke-width="0.3"/>
<circle cx="812.544" cy="466.728" r="8.0" fill="none" stroke="#3366cc" stroke-width="0.6"/>
<circle cx="812.544" cy="466.728" r="1.5" fill="#3366cc"/>
<circle cx="812.544" cy="469.939" r="8.0" fill="none" stroke="#cc3333" stroke-width="0.6"/>
<circle cx="812.544" cy="469.939" r="1.5" fill="#cc3333"/>
</svg>