<?xml version="1.0" encoding="UTF-8" standalone="no"?>
<svg
   width="403.03247"
   height="251.33592"
   viewBox="-40 0 907.73079 541.76854"
   preserveAspectRatio="xMidYMid meet"
   version="1.1"
   id="svg1634"
   sodipodi:docname="erand47jc_v2.svg"
   inkscape:version="1.1.2 (0a00cf5339, 2022-02-04)"
   xmlns:inkscape="http://www.inkscape.org/namespaces/inkscape"
   xmlns:sodipodi="http://sodipodi.sourceforge.net/DTD/sodipodi-0.dtd"
   xmlns="http://www.w3.org/2000/svg"
   xmlns:svg="http://www.w3.org/2000/svg">
  <defs
     id="defs198" />
  <sodipodi:namedview
     id="namedview196"
     pagecolor="#ffffff"
     bordercolor="#666666"
     borderopacity="1.0"
     inkscape:pageshadow="2"
     inkscape:pageopacity="0.0"
     inkscape:pagecheckerboard="0"
     showgrid="false"
     inkscape:zoom="15.469282"
     inkscape:cx="48.353893"
     inkscape:cy="109.70128"
     inkscape:window-width="2560"
     inkscape:window-height="995"
     inkscape:window-x="0"
     inkscape:window-y="0"
     inkscape:window-maximized="1"
     inkscape:current-layer="svg1634"
     fit-margin-top="0"
     fit-margin-left="0"
     fit-margin-right="0"
     fit-margin-bottom="0" />
  <path
     d="M -20.154,277.070 C -20.154,277.070 5.976,277.070 18.846,277.070 C 48.293,276.864 27.294,259.128 68.579,225.417 C 349.956,66.200 277.827,509.920 545.223,541.031 C 604.314,547.906 704.918,443.434 761.573,389.648 C 782.605,369.681 794.833,387.948 786.884,400.669 L 854.732,400.607 C 908.213,315.023 808.574,312.794 768.928,342.882 C 729.282,372.969 478.820,607.728 373.465,255.445 C 268.110,-96.838 151.155,-34.026 -4.806,65.293 C -4.806,135.885 -20.154,206.478 -20.154,277.070"
     fill="none"
     stroke="#8b4513"
     stroke-width="1.6"
     id="path2"
     sodipodi:nodetypes="cacsscczzcc"
     style="stroke-width:0.225225;stroke-miterlimit:4;stroke-dasharray:none" />
  <circle
     cx="60.903"
     cy="27.188496"
     r="12"
     fill="none"
     stroke="#000000"
     stroke-width="0.4"
     id="circle1250" />
  <circle
     cx="78.834999"
     cy="23.734501"
     r="12"
     fill="none"
     stroke="#000000"
     stroke-width="0.4"
     id="circle1252" />
  <circle
     cx="96.767006"
     cy="20.279499"
     r="12"
     fill="none"
     stroke="#000000"
     stroke-width="0.4"
     id="circle1254" />
  <circle
     cx="114.7"
     cy="16.825497"
     r="12"
     fill="none"
     stroke="#000000"
     stroke-width="0.4"
     id="circle1256" />
  <circle
     cx="130.658"
     cy="18.400501"
     r="12"
     fill="none"
     stroke="#000000"
     stroke-width="0.4"
     id="circle1258" />
  <circle
     cx="148.59001"
     cy="20.0005"
     r="12"
     fill="none"
     stroke="#000000"
     stroke-width="0.4"
     id="circle1260" />
  <circle
     cx="166.522"
     cy="21.600498"
     r="12"
     fill="none"
     stroke="#000000"
     stroke-width="0.4"
     id="circle1262" />
  <circle
     cx="184.455"
     cy="23.200497"
     r="12"
     fill="none"
     stroke="#000000"
     stroke-width="0.4"
     id="circle1264" />
  <circle
     cx="202.38701"
     cy="29.855495"
     r="12"
     fill="none"
     stroke="#000000"
     stroke-width="0.4"
     id="circle1266" />
  <circle
     cx="220.345"
     cy="41.539501"
     r="12"
     fill="none"
     stroke="#000000"
     stroke-width="0.4"
     id="circle1268" />
  <circle
     cx="238.27499"
     cy="33.005497"
     r="12"
     fill="none"
     stroke="#000000"
     stroke-width="0.4"
     id="circle1270" />
  <circle
     cx="256.207"
     cy="39.660496"
     r="12"
     fill="none"
     stroke="#000000"
     stroke-width="0.4"
     id="circle1272" />
  <circle
     cx="273.63202"
     cy="87.513489"
     r="12"
     fill="none"
     stroke="#000000"
     stroke-width="0.4"
     id="circle1274" />
  <circle
     cx="291.056"
     cy="115.19949"
     r="12"
     fill="none"
     stroke="#000000"
     stroke-width="0.4"
     id="circle1276" />
  <circle
     cx="308.48001"
     cy="152.94449"
     r="12"
     fill="none"
     stroke="#000000"
     stroke-width="0.4"
     id="circle1278" />
  <circle
     cx="325.905"
     cy="190.7135"
     r="12"
     fill="none"
     stroke="#000000"
     stroke-width="0.4"
     id="circle1280" />
  <circle
     cx="342.31302"
     cy="225.08049"
     r="12"
     fill="none"
     stroke="#000000"
     stroke-width="0.4"
     id="circle1282" />
  <circle
     cx="358.72202"
     cy="269.50449"
     r="12"
     fill="none"
     stroke="#000000"
     stroke-width="0.4"
     id="circle1284" />
  <circle
     cx="375.10501"
     cy="303.87048"
     r="12"
     fill="none"
     stroke="#000000"
     stroke-width="0.4"
     id="circle1286" />
  <circle
     cx="390.49701"
     cy="344.89148"
     r="12"
     fill="none"
     stroke="#000000"
     stroke-width="0.4"
     id="circle1288" />
  <circle
     cx="405.86401"
     cy="365.74548"
     r="12"
     fill="none"
     stroke="#000000"
     stroke-width="0.4"
     id="circle1290" />
  <circle
     cx="421.23102"
     cy="391.6535"
     r="12"
     fill="none"
     stroke="#000000"
     stroke-width="0.4"
     id="circle1292" />
  <circle
     cx="436.62302"
     cy="412.48151"
     r="12"
     fill="none"
     stroke="#000000"
     stroke-width="0.4"
     id="circle1294" />
  <circle
     cx="451.99002"
     cy="428.25449"
     r="12"
     fill="none"
     stroke="#000000"
     stroke-width="0.4"
     id="circle1296" />
  <circle
     cx="467.35703"
     cy="439.02451"
     r="12"
     fill="none"
     stroke="#000000"
     stroke-width="0.4"
     id="circle1298" />
  <circle
     cx="482.72403"
     cy="449.76852"
     r="12"
     fill="none"
     stroke="#000000"
     stroke-width="0.4"
     id="circle1300" />
  <circle
     cx="497.07498"
     cy="457.10947"
     r="12"
     fill="none"
     stroke="#000000"
     stroke-width="0.4"
     id="circle1302" />
  <circle
     cx="511.42599"
     cy="464.42447"
     r="12"
     fill="none"
     stroke="#000000"
     stroke-width="0.4"
     id="circle1304" />
  <circle
     cx="525.77698"
     cy="466.71048"
     r="12"
     fill="none"
     stroke="#000000"
     stroke-width="0.4"
     id="circle1306" />
  <circle
     cx="540.12799"
     cy="468.99649"
     r="12"
     fill="none"
     stroke="#000000"
     stroke-width="0.4"
     id="circle1308" />
  <circle
     cx="554.479"
     cy="471.2825"
     r="12"
     fill="none"
     stroke="#000000"
     stroke-width="0.4"
     id="circle1310" />
  <circle
     cx="568.82996"
     cy="463.4595"
     r="12"
     fill="none"
     stroke="#000000"
     stroke-width="0.4"
     id="circle1312" />
  <circle
     cx="583.18097"
     cy="465.74551"
     r="12"
     fill="none"
     stroke="#000000"
     stroke-width="0.4"
     id="circle1314" />
  <circle
     cx="596.51599"
     cy="459.57248"
     r="12"
     fill="none"
     stroke="#000000"
     stroke-width="0.4"
     id="circle1316" />
  <circle
     cx="609.85095"
     cy="453.40048"
     r="12"
     fill="none"
     stroke="#000000"
     stroke-width="0.4"
     id="circle1318" />
  <circle
     cx="623.16095"
     cy="447.22849"
     r="12"
     fill="none"
     stroke="#000000"
     stroke-width="0.4"
     id="circle1320" />
  <circle
     cx="636.49597"
     cy="441.05649"
     r="12"
     fill="none"
     stroke="#000000"
     stroke-width="0.4"
     id="circle1322" />
  <circle
     cx="649.80597"
     cy="434.88449"
     r="12"
     fill="none"
     stroke="#000000"
     stroke-width="0.4"
     id="circle1324" />
  <circle
     cx="663.14099"
     cy="428.71149"
     r="12"
     fill="none"
     stroke="#000000"
     stroke-width="0.4"
     id="circle1326" />
  <circle
     cx="676.44995"
     cy="422.5145"
     r="12"
     fill="none"
     stroke="#000000"
     stroke-width="0.4"
     id="circle1328" />
  <circle
     cx="689.78497"
     cy="411.3125"
     r="12"
     fill="none"
     stroke="#000000"
     stroke-width="0.4"
     id="circle1330" />
  <circle
     cx="703.12"
     cy="400.06049"
     r="12"
     fill="none"
     stroke="#000000"
     stroke-width="0.4"
     id="circle1332" />
  <circle
     cx="716.42999"
     cy="388.8595"
     r="12"
     fill="none"
     stroke="#000000"
     stroke-width="0.4"
     id="circle1334" />
  <circle
     cx="729.76495"
     cy="377.60748"
     r="12"
     fill="none"
     stroke="#000000"
     stroke-width="0.4"
     id="circle1336" />
  <circle
     cx="743.07397"
     cy="366.40549"
     r="12"
     fill="none"
     stroke="#000000"
     stroke-width="0.4"
     id="circle1338" />
  <circle
     cx="756.409"
     cy="355.1785"
     r="12"
     fill="none"
     stroke="#000000"
     stroke-width="0.4"
     id="circle1340" />
  <circle
     cx="769.72198"
     cy="343.95248"
     r="12"
     fill="none"
     stroke="#000000"
     stroke-width="0.4"
     id="circle1342" />
  <circle
     cx="49.799995"
     cy="230.56947"
     r="12"
     fill="none"
     stroke="#000000"
     stroke-width="0.4"
     id="circle1344" />
  <circle
     cx="67.732002"
     cy="224.36049"
     r="12"
     fill="none"
     stroke="#000000"
     stroke-width="0.4"
     id="circle1346" />
  <circle
     cx="85.665001"
     cy="218.15147"
     r="12"
     fill="none"
     stroke="#000000"
     stroke-width="0.4"
     id="circle1348" />
  <circle
     cx="103.62299"
     cy="211.9425"
     r="12"
     fill="none"
     stroke="#000000"
     stroke-width="0.4"
     id="circle1350" />
  <circle
     cx="121.555"
     cy="210.21149"
     r="12"
     fill="none"
     stroke="#000000"
     stroke-width="0.4"
     id="circle1352" />
  <circle
     cx="139.487"
     cy="208.50549"
     r="12"
     fill="none"
     stroke="#000000"
     stroke-width="0.4"
     id="circle1354" />
  <circle
     cx="157.42001"
     cy="206.7995"
     r="12"
     fill="none"
     stroke="#000000"
     stroke-width="0.4"
     id="circle1356" />
  <circle
     cx="175.35201"
     cy="205.09351"
     r="12"
     fill="none"
     stroke="#000000"
     stroke-width="0.4"
     id="circle1358" />
  <circle
     cx="193.31001"
     cy="207.89148"
     r="12"
     fill="none"
     stroke="#000000"
     stroke-width="0.4"
     id="circle1360" />
  <circle
     cx="211.242"
     cy="215.16949"
     r="12"
     fill="none"
     stroke="#000000"
     stroke-width="0.4"
     id="circle1362" />
  <circle
     cx="229.17502"
     cy="204.4325"
     r="12"
     fill="none"
     stroke="#000000"
     stroke-width="0.4"
     id="circle1364" />
  <circle
     cx="247.10699"
     cy="207.22949"
     r="12"
     fill="none"
     stroke="#000000"
     stroke-width="0.4"
     id="circle1366" />
  <circle
     cx="264.53201"
     cy="246.81947"
     r="12"
     fill="none"
     stroke="#000000"
     stroke-width="0.4"
     id="circle1368" />
  <circle
     cx="281.95599"
     cy="268.44449"
     r="12"
     fill="none"
     stroke="#000000"
     stroke-width="0.4"
     id="circle1370" />
  <circle
     cx="299.38"
     cy="299.0285"
     r="12"
     fill="none"
     stroke="#000000"
     stroke-width="0.4"
     id="circle1372" />
  <circle
     cx="316.80499"
     cy="329.63449"
     r="12"
     fill="none"
     stroke="#000000"
     stroke-width="0.4"
     id="circle1374" />
  <circle
     cx="333.21301"
     cy="357.3895"
     r="12"
     fill="none"
     stroke="#000000"
     stroke-width="0.4"
     id="circle1376" />
  <circle
     cx="349.62201"
     cy="394.1015"
     r="12"
     fill="none"
     stroke="#000000"
     stroke-width="0.4"
     id="circle1378" />
  <circle
     cx="366.005"
     cy="421.8555"
     r="12"
     fill="none"
     stroke="#000000"
     stroke-width="0.4"
     id="circle1380" />
  <circle
     cx="381.397"
     cy="455.71548"
     r="12"
     fill="none"
     stroke="#000000"
     stroke-width="0.4"
     id="circle1382" />
  <circle
     cx="396.76401"
     cy="471.61148"
     r="12"
     fill="none"
     stroke="#000000"
     stroke-width="0.4"
     id="circle1384" />
  <circle
     cx="412.13101"
     cy="492.00751"
     r="12"
     fill="none"
     stroke="#000000"
     stroke-width="0.4"
     id="circle1386" />
  <circle
     cx="427.52301"
     cy="507.87854"
     r="12"
     fill="none"
     stroke="#000000"
     stroke-width="0.4"
     id="circle1388" />
  <circle
     cx="442.89001"
     cy="519.24554"
     r="12"
     fill="none"
     stroke="#000000"
     stroke-width="0.4"
     id="circle1390" />
  <circle
     cx="458.25702"
     cy="526.15753"
     r="12"
     fill="none"
     stroke="#000000"
     stroke-width="0.4"
     id="circle1392" />
  <circle
     cx="473.62399"
     cy="533.04449"
     r="12"
     fill="none"
     stroke="#000000"
     stroke-width="0.4"
     id="circle1394" />
  <circle
     cx="487.97501"
     cy="537.07953"
     r="12"
     fill="none"
     stroke="#000000"
     stroke-width="0.4"
     id="circle1396" />
  <circle
     cx="502.32602"
     cy="541.09052"
     r="12"
     fill="none"
     stroke="#000000"
     stroke-width="0.4"
     id="circle1398" />
  <circle
     cx="516.677"
     cy="540.6225"
     r="12"
     fill="none"
     stroke="#000000"
     stroke-width="0.4"
     id="circle1400" />
  <circle
     cx="531.02795"
     cy="540.1535"
     r="12"
     fill="none"
     stroke="#000000"
     stroke-width="0.4"
     id="circle1402" />
  <circle
     cx="545.37897"
     cy="539.68555"
     r="12"
     fill="none"
     stroke="#000000"
     stroke-width="0.4"
     id="circle1404" />
  <circle
     cx="559.72998"
     cy="530.21051"
     r="12"
     fill="none"
     stroke="#000000"
     stroke-width="0.4"
     id="circle1406" />
  <circle
     cx="574.08099"
     cy="529.74152"
     r="12"
     fill="none"
     stroke="#000000"
     stroke-width="0.4"
     id="circle1408" />
  <circle
     cx="587.41595"
     cy="521.91455"
     r="12"
     fill="none"
     stroke="#000000"
     stroke-width="0.4"
     id="circle1410" />
  <circle
     cx="600.72595"
     cy="514.0885"
     r="12"
     fill="none"
     stroke="#000000"
     stroke-width="0.4"
     id="circle1412" />
  <circle
     cx="614.06097"
     cy="506.26453"
     r="12"
     fill="none"
     stroke="#000000"
     stroke-width="0.4"
     id="circle1414" />
  <circle
     cx="627.396"
     cy="498.43854"
     r="12"
     fill="none"
     stroke="#000000"
     stroke-width="0.4"
     id="circle1416" />
  <circle
     cx="640.70599"
     cy="490.6145"
     r="12"
     fill="none"
     stroke="#000000"
     stroke-width="0.4"
     id="circle1418" />
  <circle
     cx="654.04095"
     cy="482.78754"
     r="12"
     fill="none"
     stroke="#000000"
     stroke-width="0.4"
     id="circle1420" />
  <circle
     cx="667.34998"
     cy="474.93854"
     r="12"
     fill="none"
     stroke="#000000"
     stroke-width="0.4"
     id="circle1422" />
  <circle
     cx="680.685"
     cy="462.63351"
     r="12"
     fill="none"
     stroke="#000000"
     stroke-width="0.4"
     id="circle1424" />
  <circle
     cx="694.01996"
     cy="450.28152"
     r="12"
     fill="none"
     stroke="#000000"
     stroke-width="0.4"
     id="circle1426" />
  <circle
     cx="707.32996"
     cy="437.97751"
     r="12"
     fill="none"
     stroke="#000000"
     stroke-width="0.4"
     id="circle1428" />
  <circle
     cx="720.66498"
     cy="425.62549"
     r="12"
     fill="none"
     stroke="#000000"
     stroke-width="0.4"
     id="circle1430" />
  <circle
     cx="733.974"
     cy="413.3205"
     r="12"
     fill="none"
     stroke="#000000"
     stroke-width="0.4"
     id="circle1432" />
  <circle
     cx="747.30896"
     cy="400.99051"
     r="12"
     fill="none"
     stroke="#000000"
     stroke-width="0.4"
     id="circle1434" />
  <circle
     cx="760.64398"
     cy="388.66449"
     r="12"
     fill="none"
     stroke="#000000"
     stroke-width="0.4"
     id="circle1436" />
  <text
     x="60.903"
     y="22.188496"
     text-anchor="middle"
     font-family="sans-serif"
     font-size="5px"
     fill="#000000"
     id="text1438">C1</text>
  <text
     x="78.834999"
     y="18.734501"
     text-anchor="middle"
     font-family="sans-serif"
     font-size="5px"
     fill="#000000"
     id="text1440">D1</text>
  <text
     x="96.767006"
     y="15.279499"
     text-anchor="middle"
     font-family="sans-serif"
     font-size="5px"
     fill="#000000"
     id="text1442">E1</text>
  <text
     x="114.7"
     y="11.825497"
     text-anchor="middle"
     font-family="sans-serif"
     font-size="5px"
     fill="#000000"
     id="text1444">F1</text>
  <text
     x="130.658"
     y="13.400501"
     text-anchor="middle"
     font-family="sans-serif"
     font-size="5px"
     fill="#000000"
     id="text1446">G1</text>
  <text
     x="148.59001"
     y="15.0005"
     text-anchor="middle"
     font-family="sans-serif"
     font-size="5px"
     fill="#000000"
     id="text1448">A1</text>
  <text
     x="166.522"
     y="16.600498"
     text-anchor="middle"
     font-family="sans-serif"
     font-size="5px"
     fill="#000000"
     id="text1450">B1</text>
  <text
     x="184.455"
     y="18.200497"
     text-anchor="middle"
     font-family="sans-serif"
     font-size="5px"
     fill="#000000"
     id="text1452">C2</text>
  <text
     x="202.38701"
     y="24.855495"
     text-anchor="middle"
     font-family="sans-serif"
     font-size="5px"
     fill="#000000"
     id="text1454">D2</text>
  <text
     x="220.345"
     y="36.539501"
     text-anchor="middle"
     font-family="sans-serif"
     font-size="5px"
     fill="#000000"
     id="text1456">E2</text>
  <text
     x="238.27499"
     y="28.005497"
     text-anchor="middle"
     font-family="sans-serif"
     font-size="5px"
     fill="#000000"
     id="text1458">F2</text>
  <text
     x="256.207"
     y="34.660496"
     text-anchor="middle"
     font-family="sans-serif"
     font-size="5px"
     fill="#000000"
     id="text1460">G2</text>
  <text
     x="273.63202"
     y="82.513489"
     text-anchor="middle"
     font-family="sans-serif"
     font-size="5px"
     fill="#000000"
     id="text1462">A2</text>
  <text
     x="291.056"
     y="110.19949"
     text-anchor="middle"
     font-family="sans-serif"
     font-size="5px"
     fill="#000000"
     id="text1464">B2</text>
  <text
     x="308.48001"
     y="147.94449"
     text-anchor="middle"
     font-family="sans-serif"
     font-size="5px"
     fill="#000000"
     id="text1466">C3</text>
  <text
     x="325.905"
     y="185.7135"
     text-anchor="middle"
     font-family="sans-serif"
     font-size="5px"
     fill="#000000"
     id="text1468">D3</text>
  <text
     x="342.31302"
     y="220.08049"
     text-anchor="middle"
     font-family="sans-serif"
     font-size="5px"
     fill="#000000"
     id="text1470">E3</text>
  <text
     x="358.72202"
     y="264.50449"
     text-anchor="middle"
     font-family="sans-serif"
     font-size="5px"
     fill="#000000"
     id="text1472">F3</text>
  <text
     x="375.10501"
     y="298.87048"
     text-anchor="middle"
     font-family="sans-serif"
     font-size="5px"
     fill="#000000"
     id="text1474">G3</text>
  <text
     x="390.49701"
     y="339.89148"
     text-anchor="middle"
     font-family="sans-serif"
     font-size="5px"
     fill="#000000"
     id="text1476">A3</text>
  <text
     x="405.86401"
     y="360.74548"
     text-anchor="middle"
     font-family="sans-serif"
     font-size="5px"
     fill="#000000"
     id="text1478">B3</text>
  <text
     x="421.23102"
     y="386.6535"
     text-anchor="middle"
     font-family="sans-serif"
     font-size="5px"
     fill="#000000"
     id="text1480">C4</text>
  <text
     x="436.62302"
     y="407.48151"
     text-anchor="middle"
     font-family="sans-serif"
     font-size="5px"
     fill="#000000"
     id="text1482">D4</text>
  <text
     x="451.99002"
     y="423.25449"
     text-anchor="middle"
     font-family="sans-serif"
     font-size="5px"
     fill="#000000"
     id="text1484">E4</text>
  <text
     x="467.35703"
     y="434.02451"
     text-anchor="middle"
     font-family="sans-serif"
     font-size="5px"
     fill="#000000"
     id="text1486">F4</text>
  <text
     x="482.72403"
     y="444.76852"
     text-anchor="middle"
     font-family="sans-serif"
     font-size="5px"
     fill="#000000"
     id="text1488">G4</text>
  <text
     x="497.07498"
     y="452.10947"
     text-anchor="middle"
     font-family="sans-serif"
     font-size="5px"
     fill="#000000"
     id="text1490">A4</text>
  <text
     x="511.42599"
     y="459.42447"
     text-anchor="middle"
     font-family="sans-serif"
     font-size="5px"
     fill="#000000"
     id="text1492">B4</text>
  <text
     x="525.77698"
     y="461.71048"
     text-anchor="middle"
     font-family="sans-serif"
     font-size="5px"
     fill="#000000"
     id="text1494">C5</text>
  <text
     x="540.12799"
     y="463.99649"
     text-anchor="middle"
     font-family="sans-serif"
     font-size="5px"
     fill="#000000"
     id="text1496">D5</text>
  <text
     x="554.479"
     y="466.2825"
     text-anchor="middle"
     font-family="sans-serif"
     font-size="5px"
     fill="#000000"
     id="text1498">E5</text>
  <text
     x="568.82996"
     y="458.4595"
     text-anchor="middle"
     font-family="sans-serif"
     font-size="5px"
     fill="#000000"
     id="text1500">F5</text>
  <text
     x="583.18097"
     y="460.74551"
     text-anchor="middle"
     font-family="sans-serif"
     font-size="5px"
     fill="#000000"
     id="text1502">G5</text>
  <text
     x="596.51599"
     y="454.57248"
     text-anchor="middle"
     font-family="sans-serif"
     font-size="5px"
     fill="#000000"
     id="text1504">A5</text>
  <text
     x="609.85095"
     y="448.40048"
     text-anchor="middle"
     font-family="sans-serif"
     font-size="5px"
     fill="#000000"
     id="text1506">B5</text>
  <text
     x="623.16095"
     y="442.22849"
     text-anchor="middle"
     font-family="sans-serif"
     font-size="5px"
     fill="#000000"
     id="text1508">C6</text>
  <text
     x="636.49597"
     y="436.05649"
     text-anchor="middle"
     font-family="sans-serif"
     font-size="5px"
     fill="#000000"
     id="text1510">D6</text>
  <text
     x="649.80597"
     y="429.88449"
     text-anchor="middle"
     font-family="sans-serif"
     font-size="5px"
     fill="#000000"
     id="text1512">E6</text>
  <text
     x="663.14099"
     y="423.71149"
     text-anchor="middle"
     font-family="sans-serif"
     font-size="5px"
     fill="#000000"
     id="text1514">F6</text>
  <text
     x="676.44995"
     y="417.5145"
     text-anchor="middle"
     font-family="sans-serif"
     font-size="5px"
     fill="#000000"
     id="text1516">G6</text>
  <text
     x="689.78497"
     y="406.3125"
     text-anchor="middle"
     font-family="sans-serif"
     font-size="5px"
     fill="#000000"
     id="text1518">A6</text>
  <text
     x="703.12"
     y="395.06049"
     text-anchor="middle"
     font-family="sans-serif"
     font-size="5px"
     fill="#000000"
     id="text1520">B6</text>
  <text
     x="716.42999"
     y="383.8595"
     text-anchor="middle"
     font-family="sans-serif"
     font-size="5px"
     fill="#000000"
     id="text1522">C7</text>
  <text
     x="729.76495"
     y="372.60748"
     text-anchor="middle"
     font-family="sans-serif"
     font-size="5px"
     fill="#000000"
     id="text1524">D7</text>
  <text
     x="743.07397"
     y="361.40549"
     text-anchor="middle"
     font-family="sans-serif"
     font-size="5px"
     fill="#000000"
     id="text1526">E7</text>
  <text
     x="756.409"
     y="350.1785"
     text-anchor="middle"
     font-family="sans-serif"
     font-size="5px"
     fill="#000000"
     id="text1528">F7</text>
  <text
     x="769.72198"
     y="338.95248"
     text-anchor="middle"
     font-family="sans-serif"
     font-size="5px"
     fill="#000000"
     id="text1530">G7</text>
  <text
     x="49.799995"
     y="225.56947"
     text-anchor="middle"
     font-family="sans-serif"
     font-size="5px"
     fill="#000000"
     id="text1532">C1</text>
  <text
     x="67.732002"
     y="219.36049"
     text-anchor="middle"
     font-family="sans-serif"
     font-size="5px"
     fill="#000000"
     id="text1534">D1</text>
  <text
     x="85.665001"
     y="213.15149"
     text-anchor="middle"
     font-family="sans-serif"
     font-size="5px"
     fill="#000000"
     id="text1536">E1</text>
  <text
     x="103.62299"
     y="206.9425"
     text-anchor="middle"
     font-family="sans-serif"
     font-size="5px"
     fill="#000000"
     id="text1538">F1</text>
  <text
     x="121.555"
     y="205.21149"
     text-anchor="middle"
     font-family="sans-serif"
     font-size="5px"
     fill="#000000"
     id="text1540">G1</text>
  <text
     x="139.487"
     y="203.50549"
     text-anchor="middle"
     font-family="sans-serif"
     font-size="5px"
     fill="#000000"
     id="text1542">A1</text>
  <text
     x="157.42001"
     y="201.7995"
     text-anchor="middle"
     font-family="sans-serif"
     font-size="5px"
     fill="#000000"
     id="text1544">B1</text>
  <text
     x="175.35201"
     y="200.09351"
     text-anchor="middle"
     font-family="sans-serif"
     font-size="5px"
     fill="#000000"
     id="text1546">C2</text>
  <text
     x="193.31001"
     y="202.89148"
     text-anchor="middle"
     font-family="sans-serif"
     font-size="5px"
     fill="#000000"
     id="text1548">D2</text>
  <text
     x="211.242"
     y="210.16949"
     text-anchor="middle"
     font-family="sans-serif"
     font-size="5px"
     fill="#000000"
     id="text1550">E2</text>
  <text
     x="229.17502"
     y="199.4325"
     text-anchor="middle"
     font-family="sans-serif"
     font-size="5px"
     fill="#000000"
     id="text1552">F2</text>
  <text
     x="247.10699"
     y="202.22949"
     text-anchor="middle"
     font-family="sans-serif"
     font-size="5px"
     fill="#000000"
     id="text1554">G2</text>
  <text
     x="264.53201"
     y="241.81947"
     text-anchor="middle"
     font-family="sans-serif"
     font-size="5px"
     fill="#000000"
     id="text1556">A2</text>
  <text
     x="281.95599"
     y="263.44449"
     text-anchor="middle"
     font-family="sans-serif"
     font-size="5px"
     fill="#000000"
     id="text1558">B2</text>
  <text
     x="299.38"
     y="294.0285"
     text-anchor="middle"
     font-family="sans-serif"
     font-size="5px"
     fill="#000000"
     id="text1560">C3</text>
  <text
     x="316.80499"
     y="324.63449"
     text-anchor="middle"
     font-family="sans-serif"
     font-size="5px"
     fill="#000000"
     id="text1562">D3</text>
  <text
     x="333.21301"
     y="352.3895"
     text-anchor="middle"
     font-family="sans-serif"
     font-size="5px"
     fill="#000000"
     id="text1564">E3</text>
  <text
     x="349.62201"
     y="389.1015"
     text-anchor="middle"
     font-family="sans-serif"
     font-size="5px"
     fill="#000000"
     id="text1566">F3</text>
  <text
     x="366.005"
     y="416.8555"
     text-anchor="middle"
     font-family="sans-serif"
     font-size="5px"
     fill="#000000"
     id="text1568">G3</text>
  <text
     x="381.397"
     y="450.71548"
     text-anchor="middle"
     font-family="sans-serif"
     font-size="5px"
     fill="#000000"
     id="text1570">A3</text>
  <text
     x="396.76401"
     y="466.61148"
     text-anchor="middle"
     font-family="sans-serif"
     font-size="5px"
     fill="#000000"
     id="text1572">B3</text>
  <text
     x="412.13101"
     y="487.00751"
     text-anchor="middle"
     font-family="sans-serif"
     font-size="5px"
     fill="#000000"
     id="text1574">C4</text>
  <text
     x="427.52301"
     y="502.87854"
     text-anchor="middle"
     font-family="sans-serif"
     font-size="5px"
     fill="#000000"
     id="text1576">D4</text>
  <text
     x="442.89001"
     y="514.24554"
     text-anchor="middle"
     font-family="sans-serif"
     font-size="5px"
     fill="#000000"
     id="text1578">E4</text>
  <text
     x="458.25702"
     y="521.15753"
     text-anchor="middle"
     font-family="sans-serif"
     font-size="5px"
     fill="#000000"
     id="text1580">F4</text>
  <text
     x="473.62399"
     y="528.04449"
     text-anchor="middle"
     font-family="sans-serif"
     font-size="5px"
     fill="#000000"
     id="text1582">G4</text>
  <text
     x="487.97501"
     y="532.07953"
     text-anchor="middle"
     font-family="sans-serif"
     font-size="5px"
     fill="#000000"
     id="text1584">A4</text>
  <text
     x="502.32602"
     y="536.09052"
     text-anchor="middle"
     font-family="sans-serif"
     font-size="5px"
     fill="#000000"
     id="text1586">B4</text>
  <text
     x="516.677"
     y="535.6225"
     text-anchor="middle"
     font-family="sans-serif"
     font-size="5px"
     fill="#000000"
     id="text1588">C5</text>
  <text
     x="531.02795"
     y="535.1535"
     text-anchor="middle"
     font-family="sans-serif"
     font-size="5px"
     fill="#000000"
     id="text1590">D5</text>
  <text
     x="545.37897"
     y="534.68555"
     text-anchor="middle"
     font-family="sans-serif"
     font-size="5px"
     fill="#000000"
     id="text1592">E5</text>
  <text
     x="559.72998"
     y="525.21051"
     text-anchor="middle"
     font-family="sans-serif"
     font-size="5px"
     fill="#000000"
     id="text1594">F5</text>
  <text
     x="574.08099"
     y="524.74152"
     text-anchor="middle"
     font-family="sans-serif"
     font-size="5px"
     fill="#000000"
     id="text1596">G5</text>
  <text
     x="587.41595"
     y="516.91455"
     text-anchor="middle"
     font-family="sans-serif"
     font-size="5px"
     fill="#000000"
     id="text1598">A5</text>
  <text
     x="600.72595"
     y="509.0885"
     text-anchor="middle"
     font-family="sans-serif"
     font-size="5px"
     fill="#000000"
     id="text1600">B5</text>
  <text
     x="614.06097"
     y="501.26453"
     text-anchor="middle"
     font-family="sans-serif"
     font-size="5px"
     fill="#000000"
     id="text1602">C6</text>
  <text
     x="627.396"
     y="493.43854"
     text-anchor="middle"
     font-family="sans-serif"
     font-size="5px"
     fill="#000000"
     id="text1604">D6</text>
  <text
     x="640.70599"
     y="485.6145"
     text-anchor="middle"
     font-family="sans-serif"
     font-size="5px"
     fill="#000000"
     id="text1606">E6</text>
  <text
     x="654.04095"
     y="477.78754"
     text-anchor="middle"
     font-family="sans-serif"
     font-size="5px"
     fill="#000000"
     id="text1608">F6</text>
  <text
     x="667.34998"
     y="469.93851"
     text-anchor="middle"
     font-family="sans-serif"
     font-size="5px"
     fill="#000000"
     id="text1610">G6</text>
  <text
     x="680.685"
     y="457.63351"
     text-anchor="middle"
     font-family="sans-serif"
     font-size="5px"
     fill="#000000"
     id="text1612">A6</text>
  <text
     x="694.01996"
     y="445.28152"
     text-anchor="middle"
     font-family="sans-serif"
     font-size="5px"
     fill="#000000"
     id="text1614">B6</text>
  <text
     x="707.32996"
     y="432.97751"
     text-anchor="middle"
     font-family="sans-serif"
     font-size="5px"
     fill="#000000"
     id="text1616">C7</text>
  <text
     x="720.66498"
     y="420.62549"
     text-anchor="middle"
     font-family="sans-serif"
     font-size="5px"
     fill="#000000"
     id="text1618">D7</text>
  <text
     x="733.974"
     y="408.3205"
     text-anchor="middle"
     font-family="sans-serif"
     font-size="5px"
     fill="#000000"
     id="text1620">E7</text>
  <text
     x="747.30896"
     y="395.99051"
     text-anchor="middle"
     font-family="sans-serif"
     font-size="5px"
     fill="#000000"
     id="text1622">F7</text>
  <text
     x="760.64398"
     y="383.66449"
     text-anchor="middle"
     font-family="sans-serif"
     font-size="5px"
     fill="#000000"
     id="text1624">G7</text>
  <path
     d="m -39.2,242.5695 h 89 v 0 c 1.336286,1.3e-4 2.663209,-0.22294 3.926,-0.66 l 17.932,-6.209 v 0 l 17.933,-6.21 v 0 l -0.005,0.002 17.958,-6.208 v 0 c -0.89562,0.30959 -1.82476,0.512 -2.768,0.603 l 17.932,-1.731 v 0 l -0.016,0.001 17.932,-1.706 v 0 h -0.001 l 17.933,-1.706 v 0 c -0.99313,0.0947 -1.99419,0.0651 -2.98,-0.088 l 53.822,8.369 v 0 c -1.51318,-0.23528 -2.96734,-0.75802 -4.284,-1.54 l 53.29,31.65 v 0 c -1.22965,-0.73058 -2.31878,-1.6751 -3.216,-2.789 l 17.424,21.626 v 0 c -0.40293,-0.49984 -0.76509,-1.03121 -1.083,-1.589 l 17.424,30.584 v 0 l -10e-4,-0.003 17.425,30.606 v 0 c 0.0322,0.0569 0.0649,0.1136 0.098,0.17 l 16.408,27.755 v 0 c -0.2311,-0.3915 -0.43977,-0.79582 -0.625,-1.211 l 16.409,36.712 v 0 c 0.18416,0.41271 0.39149,0.81468 0.621,1.204 l 16.383,27.754 v 0 c -0.21671,-0.36757 -0.41365,-0.74645 -0.59,-1.135 l 15.392,33.861 v 0 c 0.45737,1.00658 1.05166,1.94513 1.766,2.789 l 30.734,36.292 v 0 c 0.17453,0.20606 0.35597,0.40618 0.544,0.6 l 15.392,15.87 v 0 c 0.45651,0.47066 0.95084,0.9031 1.478,1.293 l 15.367,11.367 v 0 c 0.68925,0.50981 1.43116,0.94429 2.213,1.296 l 15.367,6.913 v 0 l 0.016,0.007 15.367,6.886 v 0 c 0.53747,0.24111 1.09197,0.44233 1.659,0.602 l 14.351,4.035 v 0 l 0.017,0.004 14.351,4.012 v 0 c 1.17833,0.32952 2.40012,0.47689 3.623,0.437 l 43.053,-1.406 v 0 c 1.20483,-0.0392 2.39687,-0.25963 3.536,-0.654 l 28.702,-9.944 v 0 c 0.74617,-0.25858 1.46498,-0.59019 2.146,-0.99 l 13.335,-7.827 v 0 l 0.009,-0.004 13.31,-7.827 v 0 l -0.011,0.006 13.335,-7.824 v 0 l 0.002,-10e-4 13.335,-7.826 v 0 l 0.007,-0.004 13.31,-7.824 v 0 l -0.006,0.004 13.335,-7.827 v 0 c 0.007,-0.004 0.014,-0.009 0.021,-0.013 l 13.309,-7.848 v 0 c 0.73254,-0.4322 1.41705,-0.94106 2.042,-1.518 l 13.335,-12.305 v 0 l 0.017,-0.015 13.335,-12.352 v 0 l -0.009,0.008 13.31,-12.304 v 0 l 0.009,-0.008 13.335,-12.353 v 0 l -0.009,0.008 13.309,-12.305 v 0 h 10e-4 l 27.87897,-23.42791 c 31.7474,1.76758 49.48265,2.5731 81.27348,2.69238"
     fill="none"
     stroke="#ff69b4"
     stroke-width="1.6"
     id="path1626"
     sodipodi:nodetypes="ccscccccccsccccccccsccsccsccscccccsccsccsccsccsccsccsccscccccscccccsccsccscccccccccccccccccsccscccccccccccccccccc"
     style="stroke-width:0.225225;stroke-miterlimit:4;stroke-dasharray:none" />
  <path
     d="M 851.27345,401.39597 778.474,335.7425 v 0 c -4.36554,-4.65399 -11.60985,-5.07755 -16.488,-0.964 l -13.313,11.226 v 0 l 0.007,-0.006 -13.335,11.227 v 0 l 0.002,-0.001 -13.309,11.202 v 0 l -0.012,0.01 -13.335,11.252 v 0 l 0.012,-0.01 -13.31,11.201 v 0 l -0.012,0.01 -13.335,11.252 v 0 c 0.37442,-0.31577 0.76782,-0.60831 1.178,-0.876 l -26.644,17.399 v 0 c 0.48562,-0.31737 0.99362,-0.59911 1.52,-0.843 l -13.335,6.173 v 0 l -0.007,0.004 -13.31,6.172 v 0 l 0.008,-0.004 -13.335,6.172 v 0 l -0.008,0.004 -13.31,6.172 v 0 c 0.70344,-0.3265 1.43687,-0.58403 2.19,-0.769 l -41.021,10.059 v 0 c 0.64166,-0.15728 1.29522,-0.2613 1.954,-0.311 l -43.053,3.251 v 0 c 0.93197,-0.0705 1.86899,-0.0319 2.792,0.115 l -14.351,-2.286 v 0 c 1.24074,0.19781 2.44271,0.58925 3.562,1.16 l -14.351,-7.315 v 0 l 0.015,0.008 -14.351,-7.341 v 0 c 0.48919,0.25003 0.96063,0.53337 1.411,0.848 l -15.367,-10.744 v 0 l 0.011,0.008 -15.367,-10.77 v 0 c 0.61344,0.42996 1.18527,0.91642 1.708,1.453 l -15.367,-15.773 v 0 c 0.37975,0.38958 0.73256,0.80454 1.056,1.242 l -15.392,-20.828 v 0 c 0.2402,0.32517 0.46382,0.66226 0.67,1.01 l -15.367,-25.908 v 0 c -0.20362,-0.34312 -0.42423,-0.67586 -0.661,-0.997 l -15.367,-20.854 v 0 c 0.65629,0.89045 1.18631,1.86737 1.575,2.903 l -15.392,-41.021 v 0 c -0.1207,-0.32162 -0.25516,-0.63791 -0.403,-0.948 l -16.383,-34.366 v 0 c 0.15686,0.32871 0.29867,0.66439 0.425,1.006 l -16.409,-44.424 v 0 c -0.12714,-0.34369 -0.26996,-0.68138 -0.428,-1.012 l -16.408,-34.367 v 0 c 0.0226,0.0475 0.045,0.0952 0.067,0.143 l -17.425,-37.769 v 0 l -10e-4,-0.002 -17.424,-37.745 v 0 l 10e-4,0.002 -34.849,-75.539007 v 0 c -1.3294,-2.881391 -3.74598,-5.118912 -6.721,-6.223 l -17.932,-6.655 v 0 c -0.65713,-0.244095 -1.33439,-0.43014 -2.024,-0.556 l -53.82,-9.805 v 0 c -0.35069,-0.0637 -0.70404,-0.111751 -1.059,-0.144 L 115.792,4.8754931 v 0 c -1.12295,-0.102571 -2.25475,-0.04635 -3.362,0.167 l -17.933,3.454 v 0 L 76.565,11.951493 v 0 l -17.932,3.454 v 0 c -1.123759,0.216503 -2.210768,0.592646 -3.228,1.117 L -39.2,65.288501"
     fill="none"
     stroke="#ff69b4"
     stroke-width="1.6"
     id="path1628"
     sodipodi:nodetypes="ccscccccccccccccccccsccscccccccccccsccsccsccscccccscccccsccsccsccsccsccsccsccsccsccccccccsccsccsccsccccccscc"
     style="stroke-width:0.225225;stroke-miterlimit:4;stroke-dasharray:none" />
  <path
     d="M -39.2,65.288498 V 242.5695"
     fill="none"
     stroke="#ff69b4"
     stroke-width="1.6"
     id="path1630" />
</svg>
