<?xml version="1.0" encoding="UTF-8"?>
<svg xmlns="http://www.w3.org/2000/svg" viewBox="-100 -20 1100 1980" preserveAspectRatio="xMidYMid meet">
<title>Side view</title>
<rect x="-100" y="-20" width="1100" height="1980" fill="#fff"/>
<polyline points="112.800,108.463 101.700,146.563 101.700,319.844" stroke="#c00000" stroke-width="1.676" stroke-linecap="round" fill="none" stroke-dasharray="3 2" opacity="0.6"/>
<line x1="101.700" y1="319.844" x2="101.700" y2="1661.495" stroke="#c00000" stroke-width="1.676" stroke-linecap="round"/>
<polyline points="130.732,105.009 119.632,143.109 119.632,313.635" stroke="#888" stroke-width="1.549" stroke-linecap="round" fill="none" stroke-dasharray="3 2" opacity="0.6"/>
<line x1="119.632" y1="313.635" x2="119.632" y2="1632.793" stroke="#888" stroke-width="1.549" stroke-linecap="round"/>
<polyline points="148.665,101.554 137.565,139.654 137.565,307.426" stroke="#888" stroke-width="1.448" stroke-linecap="round" fill="none" stroke-dasharray="3 2" opacity="0.6"/>
<line x1="137.565" y1="307.426" x2="137.565" y2="1604.091" stroke="#888" stroke-width="1.448" stroke-linecap="round"/>
<polyline points="166.623,98.100 155.523,136.200 155.523,301.217" stroke="#1060d0" stroke-width="1.270" stroke-linecap="round" fill="none" stroke-dasharray="3 2" opacity="0.6"/>
<line x1="155.523" y1="301.217" x2="155.523" y2="1575.389" stroke="#1060d0" stroke-width="1.270" stroke-linecap="round"/>
<polyline points="182.555,99.675 173.455,137.775 173.455,299.486" stroke="#888" stroke-width="1.219" stroke-linecap="round" fill="none" stroke-dasharray="3 2" opacity="0.6"/>
<line x1="173.455" y1="299.486" x2="173.455" y2="1546.662" stroke="#888" stroke-width="1.219" stroke-linecap="round"/>
<polyline points="200.487,101.275 191.387,139.375 191.387,297.780" stroke="#888" stroke-width="1.219" stroke-linecap="round" fill="none" stroke-dasharray="3 2" opacity="0.6"/>
<line x1="191.387" y1="297.780" x2="191.387" y2="1517.960" stroke="#888" stroke-width="1.219" stroke-linecap="round"/>
<polyline points="218.420,102.875 209.320,140.975 209.320,296.074" stroke="#888" stroke-width="1.016" stroke-linecap="round" fill="none" stroke-dasharray="3 2" opacity="0.6"/>
<line x1="209.320" y1="296.074" x2="209.320" y2="1489.258" stroke="#888" stroke-width="1.016" stroke-linecap="round"/>
<polyline points="236.352,104.475 227.252,142.575 227.252,294.368" stroke="#c00000" stroke-width="1.016" stroke-linecap="round" fill="none" stroke-dasharray="3 2" opacity="0.6"/>
<line x1="227.252" y1="294.368" x2="227.252" y2="1460.556" stroke="#c00000" stroke-width="1.016" stroke-linecap="round"/>
<polyline points="254.310,111.130 245.210,149.230 245.210,297.166" stroke="#888" stroke-width="0.914" stroke-linecap="round" fill="none" stroke-dasharray="3 2" opacity="0.6"/>
<line x1="245.210" y1="297.166" x2="245.210" y2="1431.854" stroke="#888" stroke-width="0.914" stroke-linecap="round"/>
<polyline points="272.242,122.814 263.142,160.914 263.142,304.444" stroke="#888" stroke-width="2.642" stroke-linecap="round" fill="none" stroke-dasharray="3 2" opacity="0.6"/>
<line x1="263.142" y1="304.444" x2="263.142" y2="1403.152" stroke="#888" stroke-width="2.642" stroke-linecap="round"/>
<polyline points="290.175,114.280 281.075,152.380 281.075,293.707" stroke="#1060d0" stroke-width="2.489" stroke-linecap="round" fill="none" stroke-dasharray="3 2" opacity="0.6"/>
<line x1="281.075" y1="293.707" x2="281.075" y2="1374.425" stroke="#1060d0" stroke-width="2.489" stroke-linecap="round"/>
<polyline points="308.107,120.935 299.007,159.035 299.007,296.504" stroke="#888" stroke-width="2.337" stroke-linecap="round" fill="none" stroke-dasharray="3 2" opacity="0.6"/>
<line x1="299.007" y1="296.504" x2="299.007" y2="1345.723" stroke="#888" stroke-width="2.337" stroke-linecap="round"/>
<polyline points="325.532,168.788 316.432,206.888 316.432,336.094" stroke="#888" stroke-width="2.184" stroke-linecap="round" fill="none" stroke-dasharray="3 2" opacity="0.6"/>
<line x1="316.432" y1="336.094" x2="316.432" y2="1317.833" stroke="#888" stroke-width="2.184" stroke-linecap="round"/>
<polyline points="342.956,196.474 333.856,234.574 333.856,357.719" stroke="#888" stroke-width="2.057" stroke-linecap="round" fill="none" stroke-dasharray="3 2" opacity="0.6"/>
<line x1="333.856" y1="357.719" x2="333.856" y2="1289.970" stroke="#888" stroke-width="2.057" stroke-linecap="round"/>
<polyline points="360.380,234.219 351.280,272.319 351.280,388.303" stroke="#c00000" stroke-width="2.057" stroke-linecap="round" fill="none" stroke-dasharray="3 2" opacity="0.6"/>
<line x1="351.280" y1="388.303" x2="351.280" y2="1262.080" stroke="#c00000" stroke-width="2.057" stroke-linecap="round"/>
<polyline points="377.805,271.988 368.705,310.088 368.705,418.909" stroke="#888" stroke-width="1.930" stroke-linecap="round" fill="none" stroke-dasharray="3 2" opacity="0.6"/>
<line x1="368.705" y1="418.909" x2="368.705" y2="1234.191" stroke="#888" stroke-width="1.930" stroke-linecap="round"/>
<polyline points="394.213,306.355 385.113,344.455 385.113,446.664" stroke="#888" stroke-width="1.676" stroke-linecap="round" fill="none" stroke-dasharray="3 2" opacity="0.6"/>
<line x1="385.113" y1="446.664" x2="385.113" y2="1207.953" stroke="#888" stroke-width="1.676" stroke-linecap="round"/>
<polyline points="410.622,350.779 401.522,388.879 401.522,483.376" stroke="#1060d0" stroke-width="1.676" stroke-linecap="round" fill="none" stroke-dasharray="3 2" opacity="0.6"/>
<line x1="401.522" y1="483.376" x2="401.522" y2="1181.689" stroke="#1060d0" stroke-width="1.676" stroke-linecap="round"/>
<polyline points="427.005,385.145 417.905,423.245 417.905,511.130" stroke="#888" stroke-width="1.549" stroke-linecap="round" fill="none" stroke-dasharray="3 2" opacity="0.6"/>
<line x1="417.905" y1="511.130" x2="417.905" y2="1155.451" stroke="#888" stroke-width="1.549" stroke-linecap="round"/>
<polyline points="442.397,426.166 433.297,464.266 433.297,544.990" stroke="#888" stroke-width="1.549" stroke-linecap="round" fill="none" stroke-dasharray="3 2" opacity="0.6"/>
<line x1="433.297" y1="544.990" x2="433.297" y2="1130.839" stroke="#888" stroke-width="1.549" stroke-linecap="round"/>
<polyline points="457.764,447.020 448.664,485.120 448.664,560.886" stroke="#888" stroke-width="1.270" stroke-linecap="round" fill="none" stroke-dasharray="3 2" opacity="0.6"/>
<line x1="448.664" y1="560.886" x2="448.664" y2="1106.251" stroke="#888" stroke-width="1.270" stroke-linecap="round"/>
<polyline points="473.131,472.928 464.031,511.028 464.031,581.282" stroke="#c00000" stroke-width="1.270" stroke-linecap="round" fill="none" stroke-dasharray="3 2" opacity="0.6"/>
<line x1="464.031" y1="581.282" x2="464.031" y2="1081.639" stroke="#c00000" stroke-width="1.270" stroke-linecap="round"/>
<polyline points="488.523,493.756 479.423,531.856 479.423,597.153" stroke="#888" stroke-width="1.270" stroke-linecap="round" fill="none" stroke-dasharray="3 2" opacity="0.6"/>
<line x1="479.423" y1="597.153" x2="479.423" y2="1057.026" stroke="#888" stroke-width="1.270" stroke-linecap="round"/>
<polyline points="503.890,509.529 494.790,547.629 494.790,608.520" stroke="#888" stroke-width="1.143" stroke-linecap="round" fill="none" stroke-dasharray="3 2" opacity="0.6"/>
<line x1="494.790" y1="608.520" x2="494.790" y2="1032.414" stroke="#888" stroke-width="1.143" stroke-linecap="round"/>
<polyline points="519.257,520.299 510.157,558.399 510.157,615.432" stroke="#1060d0" stroke-width="1.143" stroke-linecap="round" fill="none" stroke-dasharray="3 2" opacity="0.6"/>
<line x1="510.157" y1="615.432" x2="510.157" y2="1007.826" stroke="#1060d0" stroke-width="1.143" stroke-linecap="round"/>
<polyline points="534.624,531.043 525.524,569.143 525.524,622.319" stroke="#888" stroke-width="1.143" stroke-linecap="round" fill="none" stroke-dasharray="3 2" opacity="0.6"/>
<line x1="525.524" y1="622.319" x2="525.524" y2="983.214" stroke="#888" stroke-width="1.143" stroke-linecap="round"/>
<polyline points="548.975,538.384 539.875,576.484 539.875,626.354" stroke="#888" stroke-width="1.016" stroke-linecap="round" fill="none" stroke-dasharray="3 2" opacity="0.6"/>
<line x1="539.875" y1="626.354" x2="539.875" y2="960.252" stroke="#888" stroke-width="1.016" stroke-linecap="round"/>
<polyline points="563.326,545.699 554.226,583.799 554.226,630.365" stroke="#888" stroke-width="1.016" stroke-linecap="round" fill="none" stroke-dasharray="3 2" opacity="0.6"/>
<line x1="554.226" y1="630.365" x2="554.226" y2="937.291" stroke="#888" stroke-width="1.016" stroke-linecap="round"/>
<polyline points="577.677,547.985 568.577,586.085 568.577,629.897" stroke="#c00000" stroke-width="1.016" stroke-linecap="round" fill="none" stroke-dasharray="3 2" opacity="0.6"/>
<line x1="568.577" y1="629.897" x2="568.577" y2="914.329" stroke="#c00000" stroke-width="1.016" stroke-linecap="round"/>
<polyline points="592.028,550.271 582.928,588.371 582.928,629.428" stroke="#888" stroke-width="0.914" stroke-linecap="round" fill="none" stroke-dasharray="3 2" opacity="0.6"/>
<line x1="582.928" y1="629.428" x2="582.928" y2="891.367" stroke="#888" stroke-width="0.914" stroke-linecap="round"/>
<polyline points="606.379,552.557 597.279,590.657 597.279,628.960" stroke="#888" stroke-width="0.914" stroke-linecap="round" fill="none" stroke-dasharray="3 2" opacity="0.6"/>
<line x1="597.279" y1="628.960" x2="597.279" y2="868.406" stroke="#888" stroke-width="0.914" stroke-linecap="round"/>
<polyline points="620.730,544.734 611.630,582.834 611.630,619.485" stroke="#1060d0" stroke-width="0.914" stroke-linecap="round" fill="none" stroke-dasharray="3 2" opacity="0.6"/>
<line x1="611.630" y1="619.485" x2="611.630" y2="845.444" stroke="#1060d0" stroke-width="0.914" stroke-linecap="round"/>
<polyline points="635.081,547.020 625.981,585.120 625.981,619.016" stroke="#888" stroke-width="0.813" stroke-linecap="round" fill="none" stroke-dasharray="3 2" opacity="0.6"/>
<line x1="625.981" y1="619.016" x2="625.981" y2="822.482" stroke="#888" stroke-width="0.813" stroke-linecap="round"/>
<polyline points="648.416,540.847 639.316,578.947 639.316,611.189" stroke="#888" stroke-width="0.813" stroke-linecap="round" fill="none" stroke-dasharray="3 2" opacity="0.6"/>
<line x1="639.316" y1="611.189" x2="639.316" y2="801.147" stroke="#888" stroke-width="0.813" stroke-linecap="round"/>
<polyline points="661.726,534.675 652.626,572.775 652.626,603.363" stroke="#888" stroke-width="0.813" stroke-linecap="round" fill="none" stroke-dasharray="3 2" opacity="0.6"/>
<line x1="652.626" y1="603.363" x2="652.626" y2="779.811" stroke="#888" stroke-width="0.813" stroke-linecap="round"/>
<polyline points="675.061,528.503 665.961,566.603 665.961,595.539" stroke="#c00000" stroke-width="0.813" stroke-linecap="round" fill="none" stroke-dasharray="3 2" opacity="0.6"/>
<line x1="665.961" y1="595.539" x2="665.961" y2="758.500" stroke="#c00000" stroke-width="0.813" stroke-linecap="round"/>
<polyline points="688.396,522.331 679.296,560.431 679.296,587.713" stroke="#888" stroke-width="0.762" stroke-linecap="round" fill="none" stroke-dasharray="3 2" opacity="0.6"/>
<line x1="679.296" y1="587.713" x2="679.296" y2="737.164" stroke="#888" stroke-width="0.762" stroke-linecap="round"/>
<polyline points="701.706,516.159 692.606,554.259 692.606,579.889" stroke="#888" stroke-width="0.762" stroke-linecap="round" fill="none" stroke-dasharray="3 2" opacity="0.6"/>
<line x1="692.606" y1="579.889" x2="692.606" y2="715.853" stroke="#888" stroke-width="0.762" stroke-linecap="round"/>
<polyline points="715.041,509.986 705.941,548.086 705.941,572.062" stroke="#1060d0" stroke-width="0.762" stroke-linecap="round" fill="none" stroke-dasharray="3 2" opacity="0.6"/>
<line x1="705.941" y1="572.062" x2="705.941" y2="694.517" stroke="#1060d0" stroke-width="0.762" stroke-linecap="round"/>
<polyline points="728.350,503.789 719.250,541.889 719.250,564.213" stroke="#888" stroke-width="0.711" stroke-linecap="round" fill="none" stroke-dasharray="3 2" opacity="0.6"/>
<line x1="719.250" y1="564.213" x2="719.250" y2="673.181" stroke="#888" stroke-width="0.711" stroke-linecap="round"/>
<polyline points="741.685,492.587 732.585,530.687 732.585,551.908" stroke="#888" stroke-width="0.711" stroke-linecap="round" fill="none" stroke-dasharray="3 2" opacity="0.6"/>
<line x1="732.585" y1="551.908" x2="732.585" y2="651.871" stroke="#888" stroke-width="0.711" stroke-linecap="round"/>
<polyline points="755.020,481.335 745.920,519.435 745.920,539.556" stroke="#888" stroke-width="0.660" stroke-linecap="round" fill="none" stroke-dasharray="3 2" opacity="0.6"/>
<line x1="745.920" y1="539.556" x2="745.920" y2="630.535" stroke="#888" stroke-width="0.660" stroke-linecap="round"/>
<polyline points="768.330,470.134 759.230,508.234 759.230,527.252" stroke="#c00000" stroke-width="0.635" stroke-linecap="round" fill="none" stroke-dasharray="3 2" opacity="0.6"/>
<line x1="759.230" y1="527.252" x2="759.230" y2="609.224" stroke="#c00000" stroke-width="0.635" stroke-linecap="round"/>
<polyline points="781.665,458.882 772.565,496.982 772.565,514.900" stroke="#888" stroke-width="0.635" stroke-linecap="round" fill="none" stroke-dasharray="3 2" opacity="0.6"/>
<line x1="772.565" y1="514.900" x2="772.565" y2="587.888" stroke="#888" stroke-width="0.635" stroke-linecap="round"/>
<polyline points="794.974,447.680 785.874,485.780 785.874,502.595" stroke="#888" stroke-width="0.635" stroke-linecap="round" fill="none" stroke-dasharray="3 2" opacity="0.6"/>
<line x1="785.874" y1="502.595" x2="785.874" y2="566.578" stroke="#888" stroke-width="0.635" stroke-linecap="round"/>
<polyline points="808.309,436.453 799.209,474.553 799.209,490.265" stroke="#1060d0" stroke-width="0.635" stroke-linecap="round" fill="none" stroke-dasharray="3 2" opacity="0.6"/>
<line x1="799.209" y1="490.265" x2="799.209" y2="545.242" stroke="#1060d0" stroke-width="0.635" stroke-linecap="round"/>
<polyline points="821.644,425.227 812.544,463.327 812.544,477.939" stroke="#888" stroke-width="0.635" stroke-linecap="round" fill="none" stroke-dasharray="3 2" opacity="0.6"/>
<line x1="812.544" y1="477.939" x2="812.544" y2="523.931" stroke="#888" stroke-width="0.635" stroke-linecap="round"/>
<path d="M -22.350 1859.999 L -20.149 1856.478 L -17.949 1852.956 L -15.748 1849.435 L -13.547 1845.913 L -11.347 1842.392 L -9.146 1838.870 L -6.946 1835.349 L -4.745 1831.828 L -2.545 1828.306 L -0.344 1824.785 L 1.856 1821.263 L 4.057 1817.742 L 6.257 1814.220 L 8.458 1810.699 L 10.658 1807.177 L 12.859 1803.656 L 15.060 1800.134 L 17.260 1796.613 L 19.461 1793.091 L 21.661 1789.570 L 23.862 1786.048 L 26.062 1782.527 L 28.263 1779.005 L 30.463 1775.484 L 32.664 1771.962 L 34.864 1768.441 L 37.065 1764.919 L 39.265 1761.398 L 41.466 1757.876 L 43.667 1754.355 L 45.867 1750.833 L 48.068 1747.312 L 50.268 1743.790 L 52.469 1740.269 L 54.669 1736.747 L 56.870 1733.226 L 59.070 1729.704 L 61.271 1726.183 L 63.471 1722.661 L 65.672 1719.140 L 67.872 1715.618 L 70.073 1712.097 L 72.273 1708.575 L 74.474 1705.054 L 76.675 1701.532 L 78.875 1698.011 L 81.076 1694.489 L 83.276 1690.968 L 85.477 1687.446 L 87.677 1683.925 L 89.878 1680.403 L 92.078 1676.882 L 94.279 1673.360 L 96.479 1669.839 L 98.680 1666.317 L 100.880 1662.796 L 103.081 1659.274 L 105.282 1655.753 L 107.482 1652.232 L 109.683 1648.710 L 111.883 1645.189 L 114.084 1641.667 L 116.284 1638.146 L 118.485 1634.624 L 120.685 1631.103 L 122.886 1627.581 L 125.086 1624.060 L 127.287 1620.538 L 129.487 1617.017 L 131.688 1613.495 L 133.889 1609.974 L 136.089 1606.452 L 138.290 1602.931 L 140.490 1599.409 L 142.691 1595.888 L 144.891 1592.366 L 147.092 1588.845 L 149.292 1585.323 L 151.493 1581.802 L 153.693 1578.280 L 155.894 1574.759 L 158.094 1571.237 L 160.295 1567.716 L 162.496 1564.194 L 164.696 1560.673 L 166.897 1557.151 L 169.097 1553.630 L 171.298 1550.108 L 173.498 1546.587 L 175.699 1543.065 L 177.899 1539.544 L 180.100 1536.022 L 182.300 1532.501 L 184.501 1528.979 L 186.701 1525.458 L 188.902 1521.936 L 191.103 1518.415 L 193.303 1514.893 L 195.504 1511.372 L 197.704 1507.850 L 199.905 1504.329 L 202.105 1500.807 L 204.306 1497.286 L 206.506 1493.764 L 208.707 1490.243 L 210.907 1486.721 L 213.108 1483.200 L 215.308 1479.679 L 217.509 1476.157 L 219.709 1472.636 L 221.910 1469.114 L 224.111 1465.593 L 226.311 1462.071 L 228.512 1458.550 L 230.712 1455.028 L 232.913 1451.507 L 235.113 1447.985 L 237.314 1444.464 L 239.514 1440.942 L 241.715 1437.421 L 243.915 1433.899 L 246.116 1430.378 L 248.316 1426.856 L 250.517 1423.335 L 252.718 1419.813 L 254.918 1416.292 L 257.119 1412.770 L 259.319 1409.249 L 261.520 1405.727 L 263.720 1402.206 L 265.921 1398.684 L 268.121 1395.163 L 270.322 1391.641 L 272.522 1388.120 L 274.723 1384.598 L 276.923 1381.077 L 279.124 1377.555 L 281.325 1374.034 L 283.525 1370.512 L 285.726 1366.991 L 287.926 1363.469 L 290.127 1359.948 L 292.327 1356.426 L 294.528 1352.905 L 296.728 1349.383 L 298.929 1345.862 L 301.129 1342.340 L 303.330 1338.819 L 305.530 1335.297 L 307.731 1331.776 L 309.932 1328.254 L 312.132 1324.733 L 314.333 1321.211 L 316.533 1317.690 L 318.734 1314.168 L 320.934 1310.647 L 323.135 1307.125 L 325.335 1303.604 L 327.536 1300.083 L 329.736 1296.561 L 331.937 1293.040 L 334.137 1289.518 L 336.338 1285.997 L 338.539 1282.475 L 340.739 1278.954 L 342.940 1275.432 L 345.140 1271.911 L 347.341 1268.389 L 349.541 1264.868 L 351.742 1261.346 L 353.942 1257.825 L 356.143 1254.303 L 358.343 1250.782 L 360.544 1247.260 L 362.744 1243.739 L 364.945 1240.217 L 367.145 1236.696 L 369.346 1233.174 L 371.547 1229.653 L 373.747 1226.131 L 375.948 1222.610 L 378.148 1219.088 L 380.349 1215.567 L 382.549 1212.045 L 384.750 1208.524 L 386.950 1205.002 L 389.151 1201.481 L 391.351 1197.959 L 393.552 1194.438 L 395.752 1190.916 L 397.953 1187.395 L 400.154 1183.873 L 402.354 1180.352 L 404.555 1176.830 L 406.755 1173.309 L 408.956 1169.787 L 411.156 1166.266 L 413.357 1162.744 L 415.557 1159.223 L 417.758 1155.701 L 419.958 1152.180 L 422.159 1148.658 L 424.359 1145.137 L 426.560 1141.615 L 428.761 1138.094 L 430.961 1134.572 L 433.162 1131.051 L 435.362 1127.530 L 437.563 1124.008 L 439.763 1120.487 L 441.964 1116.965 L 444.164 1113.444 L 446.365 1109.922 L 448.565 1106.401 L 450.766 1102.879 L 452.966 1099.358 L 455.167 1095.836 L 457.368 1092.315 L 459.568 1088.793 L 461.769 1085.272 L 463.969 1081.750 L 466.170 1078.229 L 468.370 1074.707 L 470.571 1071.186 L 472.771 1067.664 L 474.972 1064.143 L 477.172 1060.621 L 479.373 1057.100 L 481.573 1053.578 L 483.774 1050.057 L 485.975 1046.535 L 488.175 1043.014 L 490.376 1039.492 L 492.576 1035.971 L 494.777 1032.449 L 496.977 1028.928 L 499.178 1025.406 L 501.378 1021.885 L 503.579 1018.363 L 505.779 1014.842 L 507.980 1011.320 L 510.180 1007.799 L 512.381 1004.277 L 514.581 1000.756 L 516.782 997.234 L 518.983 993.713 L 521.183 990.191 L 523.384 986.670 L 525.584 983.148 L 527.785 979.627 L 529.985 976.105 L 532.186 972.584 L 534.386 969.062 L 536.587 965.541 L 538.787 962.019 L 540.988 958.498 L 543.188 954.977 L 545.389 951.455 L 547.590 947.934 L 549.790 944.412 L 551.991 940.891 L 554.191 937.369 L 556.392 933.848 L 558.592 930.326 L 560.793 926.805 L 562.993 923.283 L 565.194 919.762 L 567.394 916.240 L 569.595 912.719 L 571.795 909.197 L 573.996 905.676 L 576.197 902.154 L 578.397 898.633 L 580.598 895.111 L 582.798 891.590 L 584.999 888.068 L 587.199 884.547 L 589.400 881.025 L 591.600 877.504 L 593.801 873.982 L 596.001 870.461 L 598.202 866.939 L 600.402 863.418 L 602.603 859.896 L 604.804 856.375 L 607.004 852.853 L 609.205 849.332 L 611.405 845.810 L 613.606 842.289 L 615.806 838.767 L 618.007 835.246 L 620.207 831.724 L 622.408 828.203 L 624.608 824.681 L 626.809 821.160 L 629.009 817.638 L 631.210 814.117 L 633.411 810.595 L 635.611 807.074 L 637.812 803.552 L 640.012 800.031 L 642.213 796.509 L 644.413 792.988 L 646.614 789.466 L 648.814 785.945 L 651.015 782.423 L 653.215 778.902 L 655.416 775.381 L 657.616 771.859 L 659.817 768.338 L 662.017 764.816 L 664.218 761.295 L 666.419 757.773 L 668.619 754.252 L 670.820 750.730 L 673.020 747.209 L 675.221 743.687 L 677.421 740.166 L 679.622 736.644 L 681.822 733.123 L 684.023 729.601 L 686.223 726.080 L 688.424 722.558 L 690.624 719.037 L 692.825 715.515 L 695.026 711.994 L 697.226 708.472 L 699.427 704.951 L 701.627 701.429 L 703.828 697.908 L 706.028 694.386 L 708.229 690.865 L 710.429 687.343 L 712.630 683.822 L 714.830 680.300 L 717.031 676.779 L 719.231 673.257 L 721.432 669.736 L 723.633 666.214 L 725.833 662.693 L 728.034 659.171 L 730.234 655.650 L 732.435 652.128 L 734.635 648.607 L 736.836 645.085 L 739.036 641.564 L 741.237 638.042 L 743.437 634.521 L 745.638 630.999 L 747.838 627.478 L 750.039 623.956 L 752.240 620.435 L 754.440 616.913 L 756.641 613.392 L 758.841 609.870 L 761.042 606.349 L 763.242 602.828 L 765.443 599.306 L 767.643 595.785 L 769.844 592.263 L 772.044 588.742 L 774.245 585.220 L 776.445 581.699 L 778.646 578.177 L 780.847 574.656 L 783.047 571.134 L 785.248 567.613 L 787.448 564.091 L 789.649 560.570 L 791.849 557.048 L 794.050 553.527 L 796.250 550.005 L 798.451 546.484 L 800.651 542.962 L 802.852 539.441 L 805.052 535.919 L 807.253 532.398 L 809.453 528.876 L 811.654 525.355 L 813.855 521.833 L 816.055 518.312 L 818.256 514.790 L 820.456 511.269 L 822.657 507.747 L 824.857 504.226 L 827.058 500.704 L 829.258 497.183 L 831.459 493.661 L 833.659 490.140 L 835.860 486.618 L 838.060 483.097 L 838.784 481.939 L 906.632 481.939 L 906.632 481.877 L 905.367 485.983 L 904.108 490.093 L 902.856 494.207 L 901.611 498.326 L 900.373 502.449 L 899.141 506.575 L 897.916 510.706 L 896.697 514.841 L 895.484 518.980 L 894.278 523.123 L 893.079 527.270 L 891.885 531.421 L 890.697 535.575 L 889.516 539.734 L 888.340 543.896 L 887.171 548.061 L 886.007 552.230 L 884.848 556.403 L 883.696 560.579 L 882.548 564.759 L 881.407 568.942 L 880.270 573.129 L 879.139 577.319 L 878.013 581.512 L 876.893 585.708 L 875.777 589.907 L 874.666 594.110 L 873.560 598.315 L 872.459 602.524 L 871.363 606.735 L 870.271 610.949 L 869.183 615.166 L 868.100 619.386 L 867.022 623.609 L 865.948 627.834 L 864.877 632.062 L 863.811 636.292 L 862.749 640.525 L 861.691 644.761 L 860.637 648.998 L 859.586 653.238 L 858.539 657.481 L 857.496 661.725 L 856.456 665.972 L 855.419 670.221 L 854.386 674.472 L 853.355 678.724 L 852.328 682.979 L 851.304 687.236 L 850.283 691.494 L 849.265 695.755 L 848.249 700.016 L 847.236 704.280 L 846.226 708.545 L 845.218 712.812 L 844.212 717.080 L 843.208 721.350 L 842.207 725.621 L 841.208 729.893 L 840.211 734.166 L 839.216 738.441 L 838.222 742.717 L 837.230 746.993 L 836.240 751.271 L 835.252 755.550 L 834.264 759.830 L 833.278 764.110 L 832.294 768.391 L 831.310 772.673 L 830.328 776.956 L 829.346 781.239 L 828.365 785.523 L 827.385 789.807 L 826.406 794.092 L 825.427 798.377 L 824.449 802.662 L 823.471 806.948 L 822.494 811.233 L 821.516 815.519 L 820.539 819.805 L 819.561 824.091 L 818.584 828.377 L 817.606 832.662 L 816.628 836.948 L 815.650 841.233 L 814.671 845.518 L 813.692 849.802 L 812.712 854.087 L 811.731 858.370 L 810.749 862.653 L 809.767 866.936 L 808.783 871.218 L 807.798 875.499 L 806.812 879.779 L 805.825 884.059 L 804.836 888.338 L 803.846 892.615 L 802.854 896.892 L 801.860 901.168 L 800.864 905.442 L 799.867 909.716 L 798.868 913.988 L 797.866 918.258 L 796.863 922.528 L 795.857 926.796 L 794.848 931.062 L 793.838 935.327 L 792.824 939.591 L 791.808 943.852 L 790.790 948.112 L 789.768 952.371 L 788.744 956.627 L 787.716 960.882 L 786.686 965.134 L 785.652 969.385 L 784.615 973.633 L 783.574 977.880 L 782.531 982.124 L 781.483 986.366 L 780.432 990.606 L 779.377 994.843 L 778.319 999.078 L 777.256 1003.311 L 776.189 1007.541 L 775.119 1011.769 L 774.044 1015.994 L 772.965 1020.216 L 771.882 1024.435 L 770.794 1028.652 L 769.701 1032.866 L 768.604 1037.077 L 767.502 1041.285 L 766.396 1045.490 L 765.285 1049.693 L 764.168 1053.892 L 763.047 1058.087 L 761.920 1062.280 L 760.789 1066.469 L 759.652 1070.656 L 758.509 1074.838 L 757.362 1079.018 L 756.208 1083.193 L 755.049 1087.366 L 753.885 1091.535 L 752.714 1095.700 L 751.538 1099.861 L 750.356 1104.019 L 749.167 1108.173 L 747.973 1112.323 L 746.773 1116.470 L 745.566 1120.612 L 744.353 1124.751 L 743.133 1128.885 L 741.907 1133.016 L 740.674 1137.142 L 739.435 1141.264 L 738.189 1145.382 L 736.937 1149.496 L 735.677 1153.606 L 734.411 1157.711 L 733.137 1161.812 L 731.857 1165.908 L 730.569 1170.000 L 729.274 1174.087 L 727.972 1178.170 L 726.662 1182.248 L 725.345 1186.322 L 724.021 1190.391 L 722.688 1194.455 L 721.349 1198.514 L 720.001 1202.569 L 718.646 1206.619 L 717.283 1210.664 L 715.912 1214.703 L 714.533 1218.738 L 713.146 1222.768 L 711.751 1226.793 L 710.348 1230.813 L 708.937 1234.828 L 707.517 1238.837 L 706.089 1242.841 L 704.653 1246.840 L 703.208 1250.834 L 701.755 1254.822 L 700.293 1258.805 L 698.822 1262.783 L 697.343 1266.755 L 695.855 1270.722 L 694.358 1274.683 L 692.853 1278.639 L 691.338 1282.589 L 689.815 1286.534 L 688.282 1290.473 L 686.740 1294.406 L 685.190 1298.334 L 683.630 1302.255 L 682.061 1306.171 L 680.482 1310.082 L 678.895 1313.986 L 677.298 1317.885 L 675.691 1321.778 L 674.075 1325.664 L 672.450 1329.545 L 670.815 1333.420 L 669.171 1337.289 L 667.516 1341.152 L 665.852 1345.009 L 664.179 1348.860 L 662.496 1352.704 L 660.802 1356.543 L 659.099 1360.375 L 657.387 1364.202 L 655.664 1368.022 L 653.931 1371.835 L 652.188 1375.643 L 650.436 1379.444 L 648.673 1383.239 L 646.900 1387.028 L 645.117 1390.810 L 643.324 1394.587 L 641.520 1398.356 L 639.707 1402.120 L 637.883 1405.876 L 636.049 1409.627 L 634.204 1413.371 L 632.350 1417.108 L 630.485 1420.839 L 628.609 1424.564 L 626.723 1428.282 L 624.827 1431.994 L 622.920 1435.699 L 621.003 1439.397 L 619.075 1443.089 L 617.136 1446.774 L 615.187 1450.453 L 613.228 1454.125 L 611.258 1457.791 L 609.277 1461.450 L 607.286 1465.102 L 605.284 1468.747 L 603.271 1472.386 L 601.248 1476.019 L 599.214 1479.644 L 597.169 1483.263 L 595.114 1486.875 L 593.048 1490.481 L 590.971 1494.079 L 588.883 1497.672 L 586.785 1501.257 L 584.676 1504.836 L 582.556 1508.407 L 580.425 1511.973 L 578.284 1515.531 L 576.132 1519.083 L 573.969 1522.628 L 571.795 1526.166 L 569.611 1529.697 L 567.415 1533.222 L 565.207 1536.739 L 562.985 1540.247 L 560.749 1543.746 L 558.498 1547.236 L 556.233 1550.718 L 553.954 1554.190 L 551.661 1557.653 L 549.353 1561.108 L 547.031 1564.554 L 544.695 1567.990 L 542.345 1571.418 L 539.981 1574.837 L 537.602 1578.248 L 535.209 1581.649 L 532.803 1585.042 L 530.382 1588.426 L 527.947 1591.801 L 525.498 1595.167 L 523.035 1598.524 L 520.558 1601.873 L 518.067 1605.213 L 515.562 1608.544 L 513.043 1611.867 L 510.510 1615.181 L 507.964 1618.486 L 505.404 1621.783 L 502.830 1625.071 L 500.242 1628.351 L 497.640 1631.621 L 495.025 1634.884 L 492.396 1638.138 L 489.754 1641.383 L 487.098 1644.620 L 484.429 1647.849 L 481.747 1651.069 L 479.050 1654.281 L 476.341 1657.484 L 473.618 1660.680 L 470.883 1663.867 L 468.134 1667.045 L 465.372 1670.216 L 462.596 1673.379 L 459.808 1676.533 L 457.007 1679.679 L 454.193 1682.817 L 451.367 1685.948 L 448.527 1689.070 L 445.675 1692.184 L 442.811 1695.291 L 439.933 1698.389 L 437.044 1701.480 L 434.142 1704.563 L 431.227 1707.639 L 428.301 1710.706 L 425.362 1713.767 L 422.411 1716.819 L 419.448 1719.864 L 416.473 1722.902 L 413.486 1725.932 L 410.488 1728.955 L 407.478 1731.970 L 404.456 1734.979 L 401.423 1737.980 L 398.378 1740.974 L 395.322 1743.961 L 392.254 1746.940 L 389.176 1749.913 L 386.086 1752.879 L 382.985 1755.838 L 379.874 1758.790 L 376.751 1761.736 L 373.618 1764.674 L 370.474 1767.607 L 367.320 1770.532 L 364.156 1773.451 L 360.981 1776.364 L 357.795 1779.270 L 354.600 1782.170 L 351.395 1785.063 L 348.179 1787.951 L 344.954 1790.832 L 341.719 1793.707 L 338.475 1796.576 L 335.221 1799.439 L 331.958 1802.297 L 328.685 1805.148 L 325.403 1807.994 L 322.113 1810.834 L 318.813 1813.669 L 315.504 1816.498 L 312.187 1819.322 L 308.861 1822.140 L 305.527 1824.953 L 302.184 1827.761 L 298.833 1830.563 L 295.474 1833.361 L 292.106 1836.153 L 288.731 1838.941 L 285.348 1841.723 L 281.958 1844.501 L 278.560 1847.274 L 275.154 1850.043 L 271.742 1852.807 L 268.322 1855.567 L 262.801 1860.000 Z" fill="#e4d4b5" stroke="#222" stroke-width="3.0"/>
<line x1="51.695" y1="1741.507" x2="838.784" y2="481.939" stroke="#2e8b57" stroke-width="3.0"/>
<path d="M 77.951 1699.490 L -22.350 1859.999 L 262.801 1860.000 L 264.895 1858.322 L 268.322 1855.567 L 271.742 1852.807 L 275.154 1850.043 L 278.560 1847.274 L 281.958 1844.501 L 285.348 1841.723 L 288.731 1838.941 L 292.106 1836.153 L 295.474 1833.361 L 298.833 1830.563 L 302.184 1827.761 L 305.527 1824.953 L 308.861 1822.140 L 312.187 1819.322 L 315.504 1816.498 L 318.813 1813.669 L 322.113 1810.834 L 325.403 1807.994 L 328.685 1805.148 L 331.958 1802.297 L 335.221 1799.439 L 338.475 1796.576 L 341.719 1793.707 L 344.954 1790.832 L 348.179 1787.951 L 351.395 1785.063 L 354.600 1782.170 L 357.795 1779.270 L 360.981 1776.364 L 364.156 1773.451 L 367.320 1770.532 L 370.474 1767.607 L 373.618 1764.674 L 376.751 1761.736 L 379.874 1758.790 L 382.985 1755.838 L 386.086 1752.879 L 389.176 1749.913 L 392.254 1746.940 L 395.322 1743.961 L 398.378 1740.974 L 401.423 1737.980 L 404.456 1734.979 L 407.478 1731.970 L 410.488 1728.955 L 413.486 1725.932 L 416.473 1722.902 L 419.448 1719.864 L 422.411 1716.819 L 425.362 1713.767 L 428.301 1710.706 L 431.227 1707.639 L 434.142 1704.563 L 437.044 1701.480 L 438.906 1699.490 Z" fill="#b89868" stroke="#6b4a2a" stroke-width="1.2" opacity="0.6"/>
<path d="M 77.962 1860.000 L 77.962 1850.043 L 77.962 1840.086 L 77.962 1830.130 L 77.962 1820.173 L 77.962 1810.216 L 77.962 1800.259 L 77.962 1790.303 L 77.962 1780.346 L 77.962 1770.389 L 77.962 1760.432 L 77.962 1750.476 L 77.962 1740.519 L 77.962 1730.562 L 77.962 1720.605 L 77.962 1710.649 L 77.962 1700.692 L 77.330 1690.735 L 76.621 1680.778 L 75.921 1670.822 L 75.232 1660.865 L 74.553 1650.908 L 73.883 1640.951 L 73.224 1630.995 L 72.575 1621.038 L 71.935 1611.081 L 71.306 1601.124 L 70.687 1591.168 L 70.077 1581.211 L 69.478 1571.254 L 68.888 1561.297 L 68.309 1551.341 L 67.739 1541.384 L 67.179 1531.427 L 66.630 1521.470 L 66.090 1511.514 L 65.560 1501.557 L 65.040 1491.600 L 64.531 1481.643 L 64.031 1471.686 L 63.541 1461.730 L 63.061 1451.773 L 62.591 1441.816 L 62.131 1431.859 L 61.681 1421.903 L 61.240 1411.946 L 60.810 1401.989 L 60.390 1392.032 L 59.979 1382.076 L 59.579 1372.119 L 59.188 1362.162 L 58.808 1352.205 L 58.437 1342.249 L 58.076 1332.292 L 57.726 1322.335 L 57.385 1312.378 L 57.054 1302.422 L 56.733 1292.465 L 56.422 1282.508 L 56.121 1272.551 L 55.830 1262.595 L 55.548 1252.638 L 55.277 1242.681 L 55.016 1232.724 L 54.764 1222.768 L 54.522 1212.811 L 54.291 1202.854 L 54.069 1192.897 L 53.857 1182.941 L 53.655 1172.984 L 53.463 1163.027 L 53.281 1153.070 L 53.109 1143.114 L 52.947 1133.157 L 52.795 1123.200 L 52.652 1113.243 L 52.520 1103.287 L 52.397 1093.330 L 52.285 1083.373 L 52.182 1073.416 L 52.089 1063.459 L 52.006 1053.503 L 51.933 1043.546 L 51.870 1033.589 L 51.817 1023.632 L 51.774 1013.676 L 51.741 1003.719 L 51.717 993.762 L 51.704 983.805 L 51.700 973.849 L 51.706 963.892 L 51.723 953.935 L 51.749 943.978 L 51.785 934.022 L 51.831 924.065 L 51.887 914.108 L 51.953 904.151 L 52.028 894.195 L 52.114 884.238 L 52.210 874.281 L 52.315 864.324 L 52.430 854.368 L 52.556 844.411 L 52.691 834.454 L 52.836 824.497 L 52.991 814.541 L 53.156 804.584 L 53.331 794.627 L 53.516 784.670 L 53.711 774.714 L 53.915 764.757 L 54.130 754.800 L 54.354 744.843 L 54.589 734.887 L 54.833 724.930 L 55.087 714.973 L 55.352 705.016 L 55.626 695.059 L 55.910 685.103 L 56.204 675.146 L 56.508 665.189 L 56.821 655.232 L 57.145 645.276 L 57.479 635.319 L 57.822 625.362 L 58.176 615.405 L 58.539 605.449 L 58.913 595.492 L 59.296 585.535 L 59.690 575.578 L 60.093 565.622 L 60.506 555.665 L 60.929 545.708 L 61.362 535.751 L 61.805 525.795 L 62.258 515.838 L 62.721 505.881 L 63.194 495.924 L 63.676 485.968 L 64.169 476.011 L 64.672 466.054 L 65.184 456.097 L 65.707 446.141 L 66.239 436.184 L 66.782 426.227 L 67.334 416.270 L 67.897 406.314 L 68.469 396.357 L 69.051 386.400 L 69.644 376.443 L 70.246 366.487 L 70.858 356.530 L 71.480 346.573 L 72.113 336.616 L 72.755 326.659 L 73.407 316.703 L 74.069 306.746 L 74.741 296.789 L 75.423 286.832 L 76.115 276.876 L 76.817 266.919 L 77.529 256.962 L 78.251 247.005 L 78.983 237.049 L 79.725 227.092 L 80.477 217.135 L 81.239 207.178 L 82.011 197.222 L 82.793 187.265 L 83.585 177.308 L 84.387 167.351 L 85.199 157.395 L 86.021 147.438 L 86.853 137.481 L 87.696 127.524 L 88.548 117.568 L 85.935 117.568 L 85.736 117.712 L 85.537 117.857 L 85.338 118.002 L 85.138 118.147 L 84.939 118.292 L 84.739 118.437 L 84.540 118.583 L 84.340 118.728 L 84.141 118.874 L 83.941 119.019 L 83.741 119.165 L 83.541 119.311 L 83.342 119.457 L 83.142 119.603 L 82.942 119.749 L 82.741 119.895 L 82.541 120.042 L 82.341 120.188 L 82.141 120.335 L 81.941 120.482 L 81.740 120.629 L 81.540 120.775 L 81.339 120.922 L 81.139 121.070 L 80.938 121.217 L 80.737 121.364 L 80.536 121.512 L 80.335 121.659 L 80.135 121.807 L 79.934 121.955 L 79.732 122.102 L 79.531 122.250 L 79.330 122.398 L 79.129 122.547 L 78.928 122.695 L 78.726 122.843 L 78.525 122.992 L 78.323 123.140 L 78.122 123.289 L 77.920 123.438 L 77.718 123.587 L 77.517 123.736 L 77.315 123.885 L 77.113 124.034 L 76.911 124.183 L 76.709 124.332 L 76.507 124.482 L 76.305 124.631 L 76.102 124.781 L 75.900 124.931 L 75.698 125.081 L 75.495 125.231 L 75.293 125.381 L 75.090 125.531 L 74.887 125.681 L 74.685 125.831 L 74.482 125.982 L 74.279 126.132 L 74.076 126.283 L 73.873 126.434 L 73.670 126.584 L 73.467 126.735 L 73.264 126.886 L 73.061 127.037 L 72.857 127.188 L 72.654 127.340 L 72.450 127.491 L 72.247 127.643 L 72.043 127.794 L 71.840 127.946 L 71.636 128.097 L 71.432 128.249 L 71.228 128.401 L 71.024 128.553 L 70.820 128.705 L 70.616 128.857 L 70.412 129.010 L 70.208 129.162 L 70.004 129.314 L 69.799 129.467 L 69.595 129.620 L 69.390 129.772 L 69.186 129.925 L 68.981 130.078 L 68.777 130.231 L 68.572 130.384 L 68.367 130.537 L 68.162 130.690 L 67.957 130.844 L 67.752 130.997 L 67.547 131.151 L 67.342 131.304 L 67.137 131.458 L 66.931 131.612 L 66.726 131.765 L 66.520 131.919 L 66.315 132.073 L 66.109 132.227 L 65.904 132.381 L 65.698 132.536 L 65.492 132.690 L 65.286 132.844 L 65.080 132.999 L 64.874 133.154 L 64.668 133.308 L 64.462 133.463 L 64.256 133.618 L 64.049 133.773 L 63.843 133.928 L 63.636 134.083 L 63.430 134.238 L 63.223 134.393 L 63.017 134.548 L 62.810 134.704 L 62.603 134.859 L 62.396 135.015 L 62.189 135.170 L 61.982 135.326 L 61.775 135.482 L 61.568 135.638 L 61.361 135.794 L 61.153 135.950 L 60.946 136.106 L 60.739 136.262 L 60.531 136.418 L 60.323 136.574 L 60.116 136.731 L 59.908 136.887 L 59.700 137.044 L 59.492 137.200 L 59.284 137.357 L 59.076 137.514 L 58.868 137.671 L 58.660 137.828 L 58.452 137.985 L 58.243 138.142 L 58.035 138.299 L 57.826 138.456 L 57.618 138.613 L 57.409 138.771 L 57.201 138.928 L 56.992 139.085 L 56.783 139.243 L 56.574 139.401 L 56.365 139.558 L 56.156 139.716 L 55.947 139.874 L 55.737 140.032 L 55.528 140.190 L 55.319 140.348 L 55.109 140.506 L 54.900 140.664 L 54.690 140.822 L 54.481 140.981 L 54.271 141.139 L 54.061 141.298 L 53.851 141.456 L 53.641 141.615 L 53.431 141.773 L 53.221 141.932 L 53.011 142.091 L 52.800 142.250 L 52.590 142.409 L 52.380 142.568 L 52.169 142.727 L 51.959 142.886 L 51.748 143.045 L 51.537 143.204 L 51.326 143.364 L 51.115 143.523 L 50.904 143.682 L 50.693 143.842 L 50.482 144.002 L 50.271 144.161 L 50.060 144.321 L 49.849 144.481 L 49.637 144.640 L 49.426 144.800 L 49.214 144.960 L 49.002 145.120 L 48.791 145.280 L 48.579 145.440 L 48.367 145.601 L 48.155 145.761 L 47.943 145.921 L 47.731 146.082 L 47.519 146.242 L 47.094 146.563 L 47.094 146.563 L 46.271 156.525 L 45.457 166.487 L 44.654 176.449 L 43.861 186.410 L 43.078 196.372 L 42.304 206.334 L 41.541 216.296 L 40.788 226.258 L 40.045 236.220 L 39.311 246.181 L 38.588 256.143 L 37.875 266.105 L 37.172 276.067 L 36.479 286.029 L 35.795 295.991 L 35.122 305.952 L 34.459 315.914 L 33.806 325.876 L 33.162 335.838 L 32.529 345.800 L 31.906 355.762 L 31.293 365.724 L 30.689 375.685 L 30.096 385.647 L 29.513 395.609 L 28.939 405.571 L 28.376 415.533 L 27.822 425.495 L 27.279 435.456 L 26.745 445.418 L 26.222 455.380 L 25.708 465.342 L 25.204 475.304 L 24.711 485.266 L 24.227 495.228 L 23.753 505.189 L 23.290 515.151 L 22.836 525.113 L 22.392 535.075 L 21.958 545.037 L 21.534 554.999 L 21.120 564.960 L 20.716 574.922 L 20.322 584.884 L 19.937 594.846 L 19.563 604.808 L 19.199 614.770 L 18.845 624.731 L 18.500 634.693 L 18.166 644.655 L 17.841 654.617 L 17.527 664.579 L 17.222 674.541 L 16.927 684.503 L 16.642 694.464 L 16.368 704.426 L 16.103 714.388 L 15.848 724.350 L 15.603 734.312 L 15.368 744.274 L 15.142 754.235 L 14.927 764.197 L 14.722 774.159 L 14.526 784.121 L 14.341 794.083 L 14.165 804.045 L 14.000 814.006 L 13.844 823.968 L 13.698 833.930 L 13.563 843.892 L 13.437 853.854 L 13.321 863.816 L 13.215 873.778 L 13.119 883.739 L 13.032 893.701 L 12.956 903.663 L 12.890 913.625 L 12.833 923.587 L 12.787 933.549 L 12.750 943.510 L 12.724 953.472 L 12.707 963.434 L 12.700 973.396 L 12.703 983.358 L 12.716 993.320 L 12.739 1003.281 L 12.772 1013.243 L 12.815 1023.205 L 12.868 1033.167 L 12.930 1043.129 L 13.003 1053.091 L 13.086 1063.053 L 13.178 1073.014 L 13.280 1082.976 L 13.393 1092.938 L 13.515 1102.900 L 13.647 1112.862 L 13.789 1122.824 L 13.941 1132.785 L 14.103 1142.747 L 14.275 1152.709 L 14.457 1162.671 L 14.648 1172.633 L 14.850 1182.595 L 15.062 1192.557 L 15.283 1202.518 L 15.515 1212.480 L 15.756 1222.442 L 16.007 1232.404 L 16.269 1242.366 L 16.540 1252.328 L 16.821 1262.289 L 17.112 1272.251 L 17.413 1282.213 L 17.724 1292.175 L 18.045 1302.137 L 18.375 1312.099 L 18.716 1322.060 L 19.067 1332.022 L 19.427 1341.984 L 19.798 1351.946 L 20.179 1361.908 L 20.569 1371.870 L 20.969 1381.832 L 21.380 1391.793 L 21.800 1401.755 L 22.230 1411.717 L 22.671 1421.679 L 23.121 1431.641 L 23.581 1441.603 L 24.051 1451.564 L 24.531 1461.526 L 25.021 1471.488 L 25.521 1481.450 L 26.031 1491.412 L 26.551 1501.374 L 27.080 1511.335 L 27.620 1521.297 L 28.170 1531.259 L 28.730 1541.221 L 29.299 1551.183 L 29.879 1561.145 L 30.469 1571.107 L 31.068 1581.068 L 31.678 1591.030 L 32.298 1600.992 L 32.927 1610.954 L 33.567 1620.916 L 34.216 1630.878 L 34.876 1640.839 L 35.545 1650.801 L 36.225 1660.763 L 36.915 1670.725 L 37.614 1680.687 L 38.324 1690.649 L 39.043 1700.611 L 39.773 1710.572 L 40.512 1720.534 L 41.262 1730.496 L 42.021 1740.458 L 42.791 1750.420 L 43.173 1760.382 L 43.173 1770.343 L 43.173 1780.305 L 43.173 1790.267 L 43.173 1800.229 L 43.173 1810.191 L 43.173 1820.153 L 43.173 1830.114 L 43.173 1840.076 L 43.173 1850.038 L 43.173 1860.000 Z" fill="#d4c59c" stroke="#222" stroke-width="1.2"/>
<line x1="-100" y1="1860.000" x2="1000" y2="1860.000" stroke="#4a7c2e" stroke-width="3.0" stroke-dasharray="8 4"/>
<circle cx="12.700" cy="146.563" r="3" fill="#000"/>
<text x="18.700" y="150.563" font-family="sans-serif" font-size="18" fill="#000">NT</text>
<circle cx="12.700" cy="323.844" r="3" fill="#000"/>
<text x="18.700" y="327.844" font-family="sans-serif" font-size="18" fill="#000">NB</text>
<circle cx="838.784" cy="481.939" r="3" fill="#000"/>
<text x="844.784" y="485.939" font-family="sans-serif" font-size="18" fill="#000">ST</text>
<circle cx="906.613" cy="481.939" r="3" fill="#000"/>
<text x="912.613" y="485.939" font-family="sans-serif" font-size="18" fill="#000">BT</text>
<circle cx="101.698" cy="1661.487" r="2" fill="#2e8b57"/>
<circle cx="119.633" cy="1632.787" r="2" fill="#2e8b57"/>
<circle cx="137.567" cy="1604.087" r="2" fill="#2e8b57"/>
<circle cx="155.509" cy="1575.375" r="2" fill="#2e8b57"/>
<circle cx="173.455" cy="1546.656" r="2" fill="#2e8b57"/>
<circle cx="191.389" cy="1517.956" r="2" fill="#2e8b57"/>
<circle cx="209.324" cy="1489.255" r="2" fill="#2e8b57"/>
<circle cx="227.259" cy="1460.554" r="2" fill="#2e8b57"/>
<circle cx="245.201" cy="1431.842" r="2" fill="#2e8b57"/>
<circle cx="263.135" cy="1403.142" r="2" fill="#2e8b57"/>
<circle cx="281.081" cy="1374.423" r="2" fill="#2e8b57"/>
<circle cx="299.016" cy="1345.723" r="2" fill="#2e8b57"/>
<circle cx="316.443" cy="1317.834" r="2" fill="#2e8b57"/>
<circle cx="333.858" cy="1289.965" r="2" fill="#2e8b57"/>
<circle cx="351.285" cy="1262.077" r="2" fill="#2e8b57"/>
<circle cx="368.712" cy="1234.189" r="2" fill="#2e8b57"/>
<circle cx="385.111" cy="1207.946" r="2" fill="#2e8b57"/>
<circle cx="401.522" cy="1181.683" r="2" fill="#2e8b57"/>
<circle cx="417.914" cy="1155.451" r="2" fill="#2e8b57"/>
<circle cx="433.298" cy="1130.833" r="2" fill="#2e8b57"/>
<circle cx="448.663" cy="1106.245" r="2" fill="#2e8b57"/>
<circle cx="464.039" cy="1081.639" r="2" fill="#2e8b57"/>
<circle cx="479.423" cy="1057.020" r="2" fill="#2e8b57"/>
<circle cx="494.799" cy="1032.414" r="2" fill="#2e8b57"/>
<circle cx="510.165" cy="1007.824" r="2" fill="#2e8b57"/>
<circle cx="525.540" cy="983.218" r="2" fill="#2e8b57"/>
<circle cx="539.890" cy="960.255" r="2" fill="#2e8b57"/>
<circle cx="554.239" cy="937.293" r="2" fill="#2e8b57"/>
<circle cx="568.588" cy="914.330" r="2" fill="#2e8b57"/>
<circle cx="582.937" cy="891.367" r="2" fill="#2e8b57"/>
<circle cx="597.286" cy="868.405" r="2" fill="#2e8b57"/>
<circle cx="611.636" cy="845.441" r="2" fill="#2e8b57"/>
<circle cx="625.985" cy="822.478" r="2" fill="#2e8b57"/>
<circle cx="639.318" cy="801.142" r="2" fill="#2e8b57"/>
<circle cx="652.644" cy="779.817" r="2" fill="#2e8b57"/>
<circle cx="665.966" cy="758.498" r="2" fill="#2e8b57"/>
<circle cx="679.299" cy="737.160" r="2" fill="#2e8b57"/>
<circle cx="692.614" cy="715.852" r="2" fill="#2e8b57"/>
<circle cx="705.947" cy="694.516" r="2" fill="#2e8b57"/>
<circle cx="719.274" cy="673.190" r="2" fill="#2e8b57"/>
<circle cx="732.595" cy="651.872" r="2" fill="#2e8b57"/>
<circle cx="745.929" cy="630.534" r="2" fill="#2e8b57"/>
<circle cx="759.244" cy="609.226" r="2" fill="#2e8b57"/>
<circle cx="772.577" cy="587.890" r="2" fill="#2e8b57"/>
<circle cx="785.891" cy="566.583" r="2" fill="#2e8b57"/>
<circle cx="799.224" cy="545.246" r="2" fill="#2e8b57"/>
<circle cx="812.546" cy="523.927" r="2" fill="#2e8b57"/>
<g transform="translate(51.9,81.27)"><path d="M -20.1538,277.0700 C 55.287862,242.03878 10.894084,259.96888 71.658,235.7005 380.947,130.9915 279.756,584.156 546.465,547.616 c 58.939,-8.075 170.604,-93.618 220.348,-153.853 18.466,-22.361 28.02,-5.815 20.071,6.906 l 67.848,-0.062 C 876.681,365.484 842.469,279.913 764.971,337.537 687.472,395.161 529.059,601.165 370.465,228.445 226.498,-109.899 136.787,-41.754 -4.806,65.293 c -5.474,65.8313 -9.976381,145.85121 -14.145081,211.78101" fill="#c79568" fill-opacity="0.4" stroke="#8b4513" stroke-width="3.0"/></g>
<circle cx="112.800" cy="108.463" r="7.700" fill="#d46a3a" fill-opacity="0.55" stroke="#000" stroke-width="0.3"/>
<circle cx="103.200" cy="146.563" r="1.500" fill="#222" stroke="#000" stroke-width="0.3"/>
<circle cx="101.700" cy="231.590" r="8.0" fill="none" stroke="#3366cc" stroke-width="0.6"/>
<circle cx="101.700" cy="231.590" r="1.5" fill="#3366cc"/>
<circle cx="101.700" cy="311.844" r="8.0" fill="none" stroke="#cc3333" stroke-width="0.6"/>
<circle cx="101.700" cy="311.844" r="1.5" fill="#cc3333"/>
<circle cx="130.732" cy="105.009" r="7.700" fill="#3a6fd4" fill-opacity="0.55" stroke="#000" stroke-width="0.3"/>
<circle cx="121.132" cy="143.109" r="1.500" fill="#222" stroke="#000" stroke-width="0.3"/>
<circle cx="119.632" cy="226.719" r="8.0" fill="none" stroke="#3366cc" stroke-width="0.6"/>
<circle cx="119.632" cy="226.719" r="1.5" fill="#3366cc"/>
<circle cx="119.632" cy="305.635" r="8.0" fill="none" stroke="#cc3333" stroke-width="0.6"/>
<circle cx="119.632" cy="305.635" r="1.5" fill="#cc3333"/>
<circle cx="148.665" cy="101.554" r="7.700" fill="#d46a3a" fill-opacity="0.55" stroke="#000" stroke-width="0.3"/>
<circle cx="139.065" cy="139.654" r="1.500" fill="#222" stroke="#000" stroke-width="0.3"/>
<circle cx="137.565" cy="221.847" r="8.0" fill="none" stroke="#3366cc" stroke-width="0.6"/>
<circle cx="137.565" cy="221.847" r="1.5" fill="#3366cc"/>
<circle cx="137.565" cy="299.426" r="8.0" fill="none" stroke="#cc3333" stroke-width="0.6"/>
<circle cx="137.565" cy="299.426" r="1.5" fill="#cc3333"/>
<circle cx="166.623" cy="98.100" r="7.700" fill="#3a6fd4" fill-opacity="0.55" stroke="#000" stroke-width="0.3"/>
<circle cx="157.023" cy="136.200" r="1.500" fill="#222" stroke="#000" stroke-width="0.3"/>
<circle cx="155.523" cy="216.975" r="8.0" fill="none" stroke="#3366cc" stroke-width="0.6"/>
<circle cx="155.523" cy="216.975" r="1.5" fill="#3366cc"/>
<circle cx="155.523" cy="293.217" r="8.0" fill="none" stroke="#cc3333" stroke-width="0.6"/>
<circle cx="155.523" cy="293.217" r="1.5" fill="#cc3333"/>
<circle cx="182.555" cy="99.675" r="7.700" fill="#d46a3a" fill-opacity="0.55" stroke="#000" stroke-width="0.3"/>
<circle cx="174.955" cy="137.775" r="1.500" fill="#222" stroke="#000" stroke-width="0.3"/>
<circle cx="173.455" cy="216.850" r="8.0" fill="none" stroke="#3366cc" stroke-width="0.6"/>
<circle cx="173.455" cy="216.850" r="1.5" fill="#3366cc"/>
<circle cx="173.455" cy="291.486" r="8.0" fill="none" stroke="#cc3333" stroke-width="0.6"/>
<circle cx="173.455" cy="291.486" r="1.5" fill="#cc3333"/>
<circle cx="200.487" cy="101.275" r="7.700" fill="#3a6fd4" fill-opacity="0.55" stroke="#000" stroke-width="0.3"/>
<circle cx="192.887" cy="139.375" r="1.500" fill="#222" stroke="#000" stroke-width="0.3"/>
<circle cx="191.387" cy="216.749" r="8.0" fill="none" stroke="#3366cc" stroke-width="0.6"/>
<circle cx="191.387" cy="216.749" r="1.5" fill="#3366cc"/>
<circle cx="191.387" cy="289.780" r="8.0" fill="none" stroke="#cc3333" stroke-width="0.6"/>
<circle cx="191.387" cy="289.780" r="1.5" fill="#cc3333"/>
<circle cx="218.420" cy="102.875" r="7.700" fill="#d46a3a" fill-opacity="0.55" stroke="#000" stroke-width="0.3"/>
<circle cx="210.820" cy="140.975" r="1.500" fill="#222" stroke="#000" stroke-width="0.3"/>
<circle cx="209.320" cy="216.648" r="8.0" fill="none" stroke="#3366cc" stroke-width="0.6"/>
<circle cx="209.320" cy="216.648" r="1.5" fill="#3366cc"/>
<circle cx="209.320" cy="288.074" r="8.0" fill="none" stroke="#cc3333" stroke-width="0.6"/>
<circle cx="209.320" cy="288.074" r="1.5" fill="#cc3333"/>
<circle cx="236.352" cy="104.475" r="7.700" fill="#3a6fd4" fill-opacity="0.55" stroke="#000" stroke-width="0.3"/>
<circle cx="228.752" cy="142.575" r="1.500" fill="#222" stroke="#000" stroke-width="0.3"/>
<circle cx="227.252" cy="216.548" r="8.0" fill="none" stroke="#3366cc" stroke-width="0.6"/>
<circle cx="227.252" cy="216.548" r="1.5" fill="#3366cc"/>
<circle cx="227.252" cy="286.368" r="8.0" fill="none" stroke="#cc3333" stroke-width="0.6"/>
<circle cx="227.252" cy="286.368" r="1.5" fill="#cc3333"/>
<circle cx="254.310" cy="111.130" r="7.700" fill="#d46a3a" fill-opacity="0.55" stroke="#000" stroke-width="0.3"/>
<circle cx="246.710" cy="149.230" r="1.500" fill="#222" stroke="#000" stroke-width="0.3"/>
<circle cx="245.210" cy="221.218" r="8.0" fill="none" stroke="#3366cc" stroke-width="0.6"/>
<circle cx="245.210" cy="221.218" r="1.5" fill="#3366cc"/>
<circle cx="245.210" cy="289.166" r="8.0" fill="none" stroke="#cc3333" stroke-width="0.6"/>
<circle cx="245.210" cy="289.166" r="1.5" fill="#cc3333"/>
<circle cx="272.242" cy="122.814" r="7.700" fill="#3a6fd4" fill-opacity="0.55" stroke="#000" stroke-width="0.3"/>
<circle cx="264.642" cy="160.914" r="1.500" fill="#222" stroke="#000" stroke-width="0.3"/>
<circle cx="263.142" cy="230.635" r="8.0" fill="none" stroke="#3366cc" stroke-width="0.6"/>
<circle cx="263.142" cy="230.635" r="1.5" fill="#3366cc"/>
<circle cx="263.142" cy="296.444" r="8.0" fill="none" stroke="#cc3333" stroke-width="0.6"/>
<circle cx="263.142" cy="296.444" r="1.5" fill="#cc3333"/>
<circle cx="290.175" cy="114.280" r="7.700" fill="#d46a3a" fill-opacity="0.55" stroke="#000" stroke-width="0.3"/>
<circle cx="282.575" cy="152.380" r="1.500" fill="#222" stroke="#000" stroke-width="0.3"/>
<circle cx="281.075" cy="220.968" r="8.0" fill="none" stroke="#3366cc" stroke-width="0.6"/>
<circle cx="281.075" cy="220.968" r="1.5" fill="#3366cc"/>
<circle cx="281.075" cy="285.707" r="8.0" fill="none" stroke="#cc3333" stroke-width="0.6"/>
<circle cx="281.075" cy="285.707" r="1.5" fill="#cc3333"/>
<circle cx="308.107" cy="120.935" r="7.700" fill="#3a6fd4" fill-opacity="0.55" stroke="#000" stroke-width="0.3"/>
<circle cx="300.507" cy="159.035" r="1.500" fill="#222" stroke="#000" stroke-width="0.3"/>
<circle cx="299.007" cy="225.639" r="8.0" fill="none" stroke="#3366cc" stroke-width="0.6"/>
<circle cx="299.007" cy="225.639" r="1.5" fill="#3366cc"/>
<circle cx="299.007" cy="288.504" r="8.0" fill="none" stroke="#cc3333" stroke-width="0.6"/>
<circle cx="299.007" cy="288.504" r="1.5" fill="#cc3333"/>
<circle cx="325.532" cy="168.788" r="7.700" fill="#d46a3a" fill-opacity="0.55" stroke="#000" stroke-width="0.3"/>
<circle cx="317.932" cy="206.888" r="1.500" fill="#222" stroke="#000" stroke-width="0.3"/>
<circle cx="316.432" cy="269.241" r="8.0" fill="none" stroke="#3366cc" stroke-width="0.6"/>
<circle cx="316.432" cy="269.241" r="1.5" fill="#3366cc"/>
<circle cx="316.432" cy="328.094" r="8.0" fill="none" stroke="#cc3333" stroke-width="0.6"/>
<circle cx="316.432" cy="328.094" r="1.5" fill="#cc3333"/>
<circle cx="342.956" cy="196.474" r="7.700" fill="#3a6fd4" fill-opacity="0.55" stroke="#000" stroke-width="0.3"/>
<circle cx="335.356" cy="234.574" r="1.500" fill="#222" stroke="#000" stroke-width="0.3"/>
<circle cx="333.856" cy="293.809" r="8.0" fill="none" stroke="#3366cc" stroke-width="0.6"/>
<circle cx="333.856" cy="293.809" r="1.5" fill="#3366cc"/>
<circle cx="333.856" cy="349.719" r="8.0" fill="none" stroke="#cc3333" stroke-width="0.6"/>
<circle cx="333.856" cy="349.719" r="1.5" fill="#cc3333"/>
<circle cx="360.380" cy="234.219" r="7.700" fill="#d46a3a" fill-opacity="0.55" stroke="#000" stroke-width="0.3"/>
<circle cx="352.780" cy="272.319" r="1.500" fill="#222" stroke="#000" stroke-width="0.3"/>
<circle cx="351.280" cy="327.870" r="8.0" fill="none" stroke="#3366cc" stroke-width="0.6"/>
<circle cx="351.280" cy="327.870" r="1.5" fill="#3366cc"/>
<circle cx="351.280" cy="380.303" r="8.0" fill="none" stroke="#cc3333" stroke-width="0.6"/>
<circle cx="351.280" cy="380.303" r="1.5" fill="#cc3333"/>
<circle cx="377.805" cy="271.988" r="7.700" fill="#3a6fd4" fill-opacity="0.55" stroke="#000" stroke-width="0.3"/>
<circle cx="370.205" cy="310.088" r="1.500" fill="#222" stroke="#000" stroke-width="0.3"/>
<circle cx="368.705" cy="361.954" r="8.0" fill="none" stroke="#3366cc" stroke-width="0.6"/>
<circle cx="368.705" cy="361.954" r="1.5" fill="#3366cc"/>
<circle cx="368.705" cy="410.909" r="8.0" fill="none" stroke="#cc3333" stroke-width="0.6"/>
<circle cx="368.705" cy="410.909" r="1.5" fill="#cc3333"/>
<circle cx="394.213" cy="306.355" r="7.700" fill="#d46a3a" fill-opacity="0.55" stroke="#000" stroke-width="0.3"/>
<circle cx="386.613" cy="344.455" r="1.500" fill="#222" stroke="#000" stroke-width="0.3"/>
<circle cx="385.113" cy="392.919" r="8.0" fill="none" stroke="#3366cc" stroke-width="0.6"/>
<circle cx="385.113" cy="392.919" r="1.5" fill="#3366cc"/>
<circle cx="385.113" cy="438.664" r="8.0" fill="none" stroke="#cc3333" stroke-width="0.6"/>
<circle cx="385.113" cy="438.664" r="1.5" fill="#cc3333"/>
<circle cx="410.622" cy="350.779" r="7.700" fill="#3a6fd4" fill-opacity="0.55" stroke="#000" stroke-width="0.3"/>
<circle cx="403.022" cy="388.879" r="1.500" fill="#222" stroke="#000" stroke-width="0.3"/>
<circle cx="401.522" cy="433.376" r="8.0" fill="none" stroke="#3366cc" stroke-width="0.6"/>
<circle cx="401.522" cy="433.376" r="1.5" fill="#3366cc"/>
<circle cx="401.522" cy="475.376" r="8.0" fill="none" stroke="#cc3333" stroke-width="0.6"/>
<circle cx="401.522" cy="475.376" r="1.5" fill="#cc3333"/>
<circle cx="427.005" cy="385.145" r="7.700" fill="#d46a3a" fill-opacity="0.55" stroke="#000" stroke-width="0.3"/>
<circle cx="419.405" cy="423.245" r="1.500" fill="#222" stroke="#000" stroke-width="0.3"/>
<circle cx="417.905" cy="464.341" r="8.0" fill="none" stroke="#3366cc" stroke-width="0.6"/>
<circle cx="417.905" cy="464.341" r="1.5" fill="#3366cc"/>
<circle cx="417.905" cy="503.130" r="8.0" fill="none" stroke="#cc3333" stroke-width="0.6"/>
<circle cx="417.905" cy="503.130" r="1.5" fill="#cc3333"/>
<circle cx="442.397" cy="426.166" r="7.700" fill="#3a6fd4" fill-opacity="0.55" stroke="#000" stroke-width="0.3"/>
<circle cx="434.797" cy="464.266" r="1.500" fill="#222" stroke="#000" stroke-width="0.3"/>
<circle cx="433.297" cy="501.678" r="8.0" fill="none" stroke="#3366cc" stroke-width="0.6"/>
<circle cx="433.297" cy="501.678" r="1.5" fill="#3366cc"/>
<circle cx="433.297" cy="536.990" r="8.0" fill="none" stroke="#cc3333" stroke-width="0.6"/>
<circle cx="433.297" cy="536.990" r="1.5" fill="#cc3333"/>
<circle cx="457.764" cy="447.020" r="7.700" fill="#d46a3a" fill-opacity="0.55" stroke="#000" stroke-width="0.3"/>
<circle cx="450.164" cy="485.120" r="1.500" fill="#222" stroke="#000" stroke-width="0.3"/>
<circle cx="448.664" cy="519.981" r="8.0" fill="none" stroke="#3366cc" stroke-width="0.6"/>
<circle cx="448.664" cy="519.981" r="1.5" fill="#3366cc"/>
<circle cx="448.664" cy="552.886" r="8.0" fill="none" stroke="#cc3333" stroke-width="0.6"/>
<circle cx="448.664" cy="552.886" r="1.5" fill="#cc3333"/>
<circle cx="473.131" cy="472.928" r="7.700" fill="#3a6fd4" fill-opacity="0.55" stroke="#000" stroke-width="0.3"/>
<circle cx="465.531" cy="511.028" r="1.500" fill="#222" stroke="#000" stroke-width="0.3"/>
<circle cx="464.031" cy="543.054" r="8.0" fill="none" stroke="#3366cc" stroke-width="0.6"/>
<circle cx="464.031" cy="543.054" r="1.5" fill="#3366cc"/>
<circle cx="464.031" cy="573.282" r="8.0" fill="none" stroke="#cc3333" stroke-width="0.6"/>
<circle cx="464.031" cy="573.282" r="1.5" fill="#cc3333"/>
<circle cx="488.523" cy="493.756" r="7.700" fill="#d46a3a" fill-opacity="0.55" stroke="#000" stroke-width="0.3"/>
<circle cx="480.923" cy="531.856" r="1.500" fill="#222" stroke="#000" stroke-width="0.3"/>
<circle cx="479.423" cy="561.332" r="8.0" fill="none" stroke="#3366cc" stroke-width="0.6"/>
<circle cx="479.423" cy="561.332" r="1.5" fill="#3366cc"/>
<circle cx="479.423" cy="589.153" r="8.0" fill="none" stroke="#cc3333" stroke-width="0.6"/>
<circle cx="479.423" cy="589.153" r="1.5" fill="#cc3333"/>
<circle cx="503.890" cy="509.529" r="7.700" fill="#3a6fd4" fill-opacity="0.55" stroke="#000" stroke-width="0.3"/>
<circle cx="496.290" cy="547.629" r="1.500" fill="#222" stroke="#000" stroke-width="0.3"/>
<circle cx="494.790" cy="574.838" r="8.0" fill="none" stroke="#3366cc" stroke-width="0.6"/>
<circle cx="494.790" cy="574.838" r="1.5" fill="#3366cc"/>
<circle cx="494.790" cy="600.520" r="8.0" fill="none" stroke="#cc3333" stroke-width="0.6"/>
<circle cx="494.790" cy="600.520" r="1.5" fill="#cc3333"/>
<circle cx="519.257" cy="520.299" r="7.700" fill="#d46a3a" fill-opacity="0.55" stroke="#000" stroke-width="0.3"/>
<circle cx="511.657" cy="558.399" r="1.500" fill="#222" stroke="#000" stroke-width="0.3"/>
<circle cx="510.157" cy="583.623" r="8.0" fill="none" stroke="#3366cc" stroke-width="0.6"/>
<circle cx="510.157" cy="583.623" r="1.5" fill="#3366cc"/>
<circle cx="510.157" cy="607.432" r="8.0" fill="none" stroke="#cc3333" stroke-width="0.6"/>
<circle cx="510.157" cy="607.432" r="1.5" fill="#cc3333"/>
<circle cx="534.624" cy="531.043" r="7.700" fill="#3a6fd4" fill-opacity="0.55" stroke="#000" stroke-width="0.3"/>
<circle cx="527.024" cy="569.143" r="1.500" fill="#222" stroke="#000" stroke-width="0.3"/>
<circle cx="525.524" cy="592.383" r="8.0" fill="none" stroke="#3366cc" stroke-width="0.6"/>
<circle cx="525.524" cy="592.383" r="1.5" fill="#3366cc"/>
<circle cx="525.524" cy="614.319" r="8.0" fill="none" stroke="#cc3333" stroke-width="0.6"/>
<circle cx="525.524" cy="614.319" r="1.5" fill="#cc3333"/>
<circle cx="548.975" cy="538.384" r="7.700" fill="#d46a3a" fill-opacity="0.55" stroke="#000" stroke-width="0.3"/>
<circle cx="541.375" cy="576.484" r="1.500" fill="#222" stroke="#000" stroke-width="0.3"/>
<circle cx="539.875" cy="598.023" r="8.0" fill="none" stroke="#3366cc" stroke-width="0.6"/>
<circle cx="539.875" cy="598.023" r="1.5" fill="#3366cc"/>
<circle cx="539.875" cy="618.354" r="8.0" fill="none" stroke="#cc3333" stroke-width="0.6"/>
<circle cx="539.875" cy="618.354" r="1.5" fill="#cc3333"/>
<circle cx="563.326" cy="545.699" r="7.700" fill="#3a6fd4" fill-opacity="0.55" stroke="#000" stroke-width="0.3"/>
<circle cx="555.726" cy="583.799" r="1.500" fill="#222" stroke="#000" stroke-width="0.3"/>
<circle cx="554.226" cy="603.639" r="8.0" fill="none" stroke="#3366cc" stroke-width="0.6"/>
<circle cx="554.226" cy="603.639" r="1.5" fill="#3366cc"/>
<circle cx="554.226" cy="622.365" r="8.0" fill="none" stroke="#cc3333" stroke-width="0.6"/>
<circle cx="554.226" cy="622.365" r="1.5" fill="#cc3333"/>
<circle cx="577.677" cy="547.985" r="7.700" fill="#d46a3a" fill-opacity="0.55" stroke="#000" stroke-width="0.3"/>
<circle cx="570.077" cy="586.085" r="1.500" fill="#222" stroke="#000" stroke-width="0.3"/>
<circle cx="568.577" cy="604.508" r="8.0" fill="none" stroke="#3366cc" stroke-width="0.6"/>
<circle cx="568.577" cy="604.508" r="1.5" fill="#3366cc"/>
<circle cx="568.577" cy="621.897" r="8.0" fill="none" stroke="#cc3333" stroke-width="0.6"/>
<circle cx="568.577" cy="621.897" r="1.5" fill="#cc3333"/>
<circle cx="592.028" cy="550.271" r="7.700" fill="#3a6fd4" fill-opacity="0.55" stroke="#000" stroke-width="0.3"/>
<circle cx="584.428" cy="588.371" r="1.500" fill="#222" stroke="#000" stroke-width="0.3"/>
<circle cx="582.928" cy="605.377" r="8.0" fill="none" stroke="#3366cc" stroke-width="0.6"/>
<circle cx="582.928" cy="605.377" r="1.5" fill="#3366cc"/>
<circle cx="582.928" cy="621.428" r="8.0" fill="none" stroke="#cc3333" stroke-width="0.6"/>
<circle cx="582.928" cy="621.428" r="1.5" fill="#cc3333"/>
<circle cx="606.379" cy="552.557" r="7.700" fill="#d46a3a" fill-opacity="0.55" stroke="#000" stroke-width="0.3"/>
<circle cx="598.779" cy="590.657" r="1.500" fill="#222" stroke="#000" stroke-width="0.3"/>
<circle cx="597.279" cy="606.246" r="8.0" fill="none" stroke="#3366cc" stroke-width="0.6"/>
<circle cx="597.279" cy="606.246" r="1.5" fill="#3366cc"/>
<circle cx="597.279" cy="620.960" r="8.0" fill="none" stroke="#cc3333" stroke-width="0.6"/>
<circle cx="597.279" cy="620.960" r="1.5" fill="#cc3333"/>
<circle cx="620.730" cy="544.734" r="7.700" fill="#3a6fd4" fill-opacity="0.55" stroke="#000" stroke-width="0.3"/>
<circle cx="613.130" cy="582.834" r="1.500" fill="#222" stroke="#000" stroke-width="0.3"/>
<circle cx="611.630" cy="597.573" r="8.0" fill="none" stroke="#3366cc" stroke-width="0.6"/>
<circle cx="611.630" cy="597.573" r="1.5" fill="#3366cc"/>
<circle cx="611.630" cy="611.485" r="8.0" fill="none" stroke="#cc3333" stroke-width="0.6"/>
<circle cx="611.630" cy="611.485" r="1.5" fill="#cc3333"/>
<circle cx="635.081" cy="547.020" r="7.700" fill="#d46a3a" fill-opacity="0.55" stroke="#000" stroke-width="0.3"/>
<circle cx="627.481" cy="585.120" r="1.500" fill="#222" stroke="#000" stroke-width="0.3"/>
<circle cx="625.981" cy="598.442" r="8.0" fill="none" stroke="#3366cc" stroke-width="0.6"/>
<circle cx="625.981" cy="598.442" r="1.5" fill="#3366cc"/>
<circle cx="625.981" cy="611.016" r="8.0" fill="none" stroke="#cc3333" stroke-width="0.6"/>
<circle cx="625.981" cy="611.016" r="1.5" fill="#cc3333"/>
<circle cx="648.416" cy="540.847" r="7.700" fill="#3a6fd4" fill-opacity="0.55" stroke="#000" stroke-width="0.3"/>
<circle cx="640.816" cy="578.947" r="1.500" fill="#222" stroke="#000" stroke-width="0.3"/>
<circle cx="639.316" cy="591.418" r="8.0" fill="none" stroke="#3366cc" stroke-width="0.6"/>
<circle cx="639.316" cy="591.418" r="1.5" fill="#3366cc"/>
<circle cx="639.316" cy="603.189" r="8.0" fill="none" stroke="#cc3333" stroke-width="0.6"/>
<circle cx="639.316" cy="603.189" r="1.5" fill="#cc3333"/>
<circle cx="661.726" cy="534.675" r="7.700" fill="#d46a3a" fill-opacity="0.55" stroke="#000" stroke-width="0.3"/>
<circle cx="654.126" cy="572.775" r="1.500" fill="#222" stroke="#000" stroke-width="0.3"/>
<circle cx="652.626" cy="584.395" r="8.0" fill="none" stroke="#3366cc" stroke-width="0.6"/>
<circle cx="652.626" cy="584.395" r="1.5" fill="#3366cc"/>
<circle cx="652.626" cy="595.363" r="8.0" fill="none" stroke="#cc3333" stroke-width="0.6"/>
<circle cx="652.626" cy="595.363" r="1.5" fill="#cc3333"/>
<circle cx="675.061" cy="528.503" r="7.700" fill="#3a6fd4" fill-opacity="0.55" stroke="#000" stroke-width="0.3"/>
<circle cx="667.461" cy="566.603" r="1.500" fill="#222" stroke="#000" stroke-width="0.3"/>
<circle cx="665.961" cy="577.373" r="8.0" fill="none" stroke="#3366cc" stroke-width="0.6"/>
<circle cx="665.961" cy="577.373" r="1.5" fill="#3366cc"/>
<circle cx="665.961" cy="587.539" r="8.0" fill="none" stroke="#cc3333" stroke-width="0.6"/>
<circle cx="665.961" cy="587.539" r="1.5" fill="#cc3333"/>
<circle cx="688.396" cy="522.331" r="7.700" fill="#d46a3a" fill-opacity="0.55" stroke="#000" stroke-width="0.3"/>
<circle cx="680.796" cy="560.431" r="1.500" fill="#222" stroke="#000" stroke-width="0.3"/>
<circle cx="679.296" cy="570.350" r="8.0" fill="none" stroke="#3366cc" stroke-width="0.6"/>
<circle cx="679.296" cy="570.350" r="1.5" fill="#3366cc"/>
<circle cx="679.296" cy="579.713" r="8.0" fill="none" stroke="#cc3333" stroke-width="0.6"/>
<circle cx="679.296" cy="579.713" r="1.5" fill="#cc3333"/>
<circle cx="701.706" cy="516.159" r="7.700" fill="#3a6fd4" fill-opacity="0.55" stroke="#000" stroke-width="0.3"/>
<circle cx="694.106" cy="554.259" r="1.500" fill="#222" stroke="#000" stroke-width="0.3"/>
<circle cx="692.606" cy="563.329" r="8.0" fill="none" stroke="#3366cc" stroke-width="0.6"/>
<circle cx="692.606" cy="563.329" r="1.5" fill="#3366cc"/>
<circle cx="692.606" cy="571.889" r="8.0" fill="none" stroke="#cc3333" stroke-width="0.6"/>
<circle cx="692.606" cy="571.889" r="1.5" fill="#cc3333"/>
<circle cx="715.041" cy="509.986" r="7.700" fill="#d46a3a" fill-opacity="0.55" stroke="#000" stroke-width="0.3"/>
<circle cx="707.441" cy="548.086" r="1.500" fill="#222" stroke="#000" stroke-width="0.3"/>
<circle cx="705.941" cy="556.305" r="8.0" fill="none" stroke="#3366cc" stroke-width="0.6"/>
<circle cx="705.941" cy="556.305" r="1.5" fill="#3366cc"/>
<circle cx="705.941" cy="564.062" r="8.0" fill="none" stroke="#cc3333" stroke-width="0.6"/>
<circle cx="705.941" cy="564.062" r="1.5" fill="#cc3333"/>
<circle cx="728.350" cy="503.789" r="7.700" fill="#3a6fd4" fill-opacity="0.55" stroke="#000" stroke-width="0.3"/>
<circle cx="720.750" cy="541.889" r="1.500" fill="#222" stroke="#000" stroke-width="0.3"/>
<circle cx="719.250" cy="549.258" r="8.0" fill="none" stroke="#3366cc" stroke-width="0.6"/>
<circle cx="719.250" cy="549.258" r="1.5" fill="#3366cc"/>
<circle cx="719.250" cy="556.213" r="8.0" fill="none" stroke="#cc3333" stroke-width="0.6"/>
<circle cx="719.250" cy="556.213" r="1.5" fill="#cc3333"/>
<circle cx="741.685" cy="492.587" r="7.700" fill="#d46a3a" fill-opacity="0.55" stroke="#000" stroke-width="0.3"/>
<circle cx="734.085" cy="530.687" r="1.500" fill="#222" stroke="#000" stroke-width="0.3"/>
<circle cx="732.585" cy="537.489" r="8.0" fill="none" stroke="#3366cc" stroke-width="0.6"/>
<circle cx="732.585" cy="537.489" r="1.5" fill="#3366cc"/>
<circle cx="732.585" cy="543.908" r="8.0" fill="none" stroke="#cc3333" stroke-width="0.6"/>
<circle cx="732.585" cy="543.908" r="1.5" fill="#cc3333"/>
<circle cx="755.020" cy="481.335" r="7.700" fill="#3a6fd4" fill-opacity="0.55" stroke="#000" stroke-width="0.3"/>
<circle cx="747.420" cy="519.435" r="1.500" fill="#222" stroke="#000" stroke-width="0.3"/>
<circle cx="745.920" cy="525.671" r="8.0" fill="none" stroke="#3366cc" stroke-width="0.6"/>
<circle cx="745.920" cy="525.671" r="1.5" fill="#3366cc"/>
<circle cx="745.920" cy="531.556" r="8.0" fill="none" stroke="#cc3333" stroke-width="0.6"/>
<circle cx="745.920" cy="531.556" r="1.5" fill="#cc3333"/>
<circle cx="768.330" cy="470.134" r="7.700" fill="#d46a3a" fill-opacity="0.55" stroke="#000" stroke-width="0.3"/>
<circle cx="760.730" cy="508.234" r="1.500" fill="#222" stroke="#000" stroke-width="0.3"/>
<circle cx="759.230" cy="513.902" r="8.0" fill="none" stroke="#3366cc" stroke-width="0.6"/>
<circle cx="759.230" cy="513.902" r="1.5" fill="#3366cc"/>
<circle cx="759.230" cy="519.252" r="8.0" fill="none" stroke="#cc3333" stroke-width="0.6"/>
<circle cx="759.230" cy="519.252" r="1.5" fill="#cc3333"/>
<circle cx="781.665" cy="458.882" r="7.700" fill="#3a6fd4" fill-opacity="0.55" stroke="#000" stroke-width="0.3"/>
<circle cx="774.065" cy="496.982" r="1.500" fill="#222" stroke="#000" stroke-width="0.3"/>
<circle cx="772.565" cy="502.084" r="8.0" fill="none" stroke="#3366cc" stroke-width="0.6"/>
<circle cx="772.565" cy="502.084" r="1.5" fill="#3366cc"/>
<circle cx="772.565" cy="506.900" r="8.0" fill="none" stroke="#cc3333" stroke-width="0.6"/>
<circle cx="772.565" cy="506.900" r="1.5" fill="#cc3333"/>
<circle cx="794.974" cy="447.680" r="7.700" fill="#d46a3a" fill-opacity="0.55" stroke="#000" stroke-width="0.3"/>
<circle cx="787.374" cy="485.780" r="1.500" fill="#222" stroke="#000" stroke-width="0.3"/>
<circle cx="785.874" cy="490.315" r="8.0" fill="none" stroke="#3366cc" stroke-width="0.6"/>
<circle cx="785.874" cy="490.315" r="1.5" fill="#3366cc"/>
<circle cx="785.874" cy="494.595" r="8.0" fill="none" stroke="#cc3333" stroke-width="0.6"/>
<circle cx="785.874" cy="494.595" r="1.5" fill="#cc3333"/>
<circle cx="808.309" cy="436.453" r="7.700" fill="#3a6fd4" fill-opacity="0.55" stroke="#000" stroke-width="0.3"/>
<circle cx="800.709" cy="474.553" r="1.500" fill="#222" stroke="#000" stroke-width="0.3"/>
<circle cx="799.209" cy="478.520" r="8.0" fill="none" stroke="#3366cc" stroke-width="0.6"/>
<circle cx="799.209" cy="478.520" r="1.5" fill="#3366cc"/>
<circle cx="799.209" cy="482.265" r="8.0" fill="none" stroke="#cc3333" stroke-width="0.6"/>
<circle cx="799.209" cy="482.265" r="1.5" fill="#cc3333"/>
<circle cx="821.644" cy="425.227" r="7.700" fill="#d46a3a" fill-opacity="0.55" stroke="#000" stroke-width="0.3"/>
<circle cx="814.044" cy="463.327" r="1.500" fill="#222" stroke="#000" stroke-width="0.3"/>
<circle cx="812.544" cy="466.728" r="8.0" fill="none" stroke="#3366cc" stroke-width="0.6"/>
<circle cx="812.544" cy="466.728" r="1.5" fill="#3366cc"/>
<circle cx="812.544" cy="469.939" r="8.0" fill="none" stroke="#cc3333" stroke-width="0.6"/>
<circle cx="812.544" cy="469.939" r="1.5" fill="#cc3333"/>
</svg>