<?xml version="1.0" encoding="UTF-8"?>
<svg xmlns="http://www.w3.org/2000/svg" viewBox="-240 -20 980 1712.8" preserveAspectRatio="xMidYMid meet">
<title>Soundboard-face view</title>
<rect x="-240" y="-20" width="980" height="1712.8" fill="#fff"/>
<path d="M 99.149 1672.800 L 100.063 1668.618 L 100.976 1664.436 L 101.888 1660.254 L 102.798 1656.072 L 103.707 1651.890 L 104.615 1647.708 L 105.521 1643.526 L 106.426 1639.344 L 107.328 1635.162 L 108.229 1630.980 L 109.128 1626.798 L 110.026 1622.616 L 110.921 1618.434 L 111.813 1614.252 L 112.704 1610.070 L 113.592 1605.888 L 114.478 1601.706 L 115.361 1597.524 L 116.242 1593.342 L 117.120 1589.160 L 117.995 1584.978 L 118.867 1580.796 L 119.736 1576.614 L 120.602 1572.432 L 121.464 1568.250 L 122.324 1564.068 L 123.180 1559.886 L 124.033 1555.704 L 124.882 1551.522 L 125.727 1547.340 L 126.569 1543.158 L 127.407 1538.976 L 128.241 1534.794 L 129.071 1530.612 L 129.897 1526.430 L 130.719 1522.248 L 131.536 1518.066 L 132.349 1513.884 L 133.158 1509.702 L 133.963 1505.520 L 134.762 1501.338 L 135.557 1497.156 L 136.348 1492.974 L 137.133 1488.792 L 137.914 1484.610 L 138.689 1480.428 L 139.460 1476.246 L 140.225 1472.064 L 140.985 1467.882 L 141.740 1463.700 L 142.489 1459.518 L 143.233 1455.336 L 143.971 1451.154 L 144.704 1446.972 L 145.431 1442.790 L 146.152 1438.608 L 146.868 1434.426 L 147.577 1430.244 L 148.280 1426.062 L 148.978 1421.880 L 149.669 1417.698 L 150.354 1413.516 L 151.033 1409.334 L 151.705 1405.152 L 152.371 1400.970 L 153.030 1396.788 L 153.683 1392.606 L 154.329 1388.424 L 154.969 1384.242 L 155.601 1380.060 L 156.227 1375.878 L 156.846 1371.696 L 157.458 1367.514 L 158.063 1363.332 L 158.661 1359.150 L 159.251 1354.968 L 159.835 1350.786 L 160.411 1346.604 L 160.980 1342.422 L 161.541 1338.240 L 162.095 1334.058 L 162.641 1329.876 L 163.180 1325.694 L 163.711 1321.512 L 164.235 1317.330 L 164.751 1313.148 L 165.259 1308.966 L 165.759 1304.784 L 166.251 1300.602 L 166.735 1296.420 L 167.212 1292.238 L 167.680 1288.056 L 168.140 1283.874 L 168.592 1279.692 L 169.036 1275.510 L 169.471 1271.328 L 169.899 1267.146 L 170.317 1262.964 L 170.728 1258.782 L 171.130 1254.600 L 171.524 1250.418 L 171.909 1246.236 L 172.285 1242.054 L 172.653 1237.872 L 173.013 1233.690 L 173.364 1229.508 L 173.706 1225.326 L 174.039 1221.144 L 174.364 1216.962 L 174.679 1212.780 L 174.986 1208.598 L 175.284 1204.416 L 175.573 1200.234 L 175.854 1196.052 L 176.125 1191.870 L 176.387 1187.688 L 176.641 1183.506 L 176.885 1179.324 L 177.120 1175.142 L 177.346 1170.960 L 177.563 1166.778 L 177.771 1162.596 L 177.970 1158.414 L 178.159 1154.232 L 178.340 1150.050 L 178.511 1145.868 L 178.673 1141.686 L 178.825 1137.504 L 178.969 1133.322 L 179.103 1129.140 L 179.228 1124.958 L 179.343 1120.776 L 179.449 1116.594 L 179.546 1112.412 L 179.634 1108.230 L 179.712 1104.048 L 179.781 1099.866 L 179.840 1095.684 L 179.890 1091.502 L 179.931 1087.320 L 179.962 1083.138 L 179.984 1078.956 L 179.997 1074.774 L 180.000 1070.592 L 179.995 1066.410 L 179.983 1062.228 L 179.964 1058.046 L 179.938 1053.864 L 179.905 1049.682 L 179.865 1045.500 L 179.818 1041.318 L 179.763 1037.136 L 179.702 1032.954 L 179.633 1028.772 L 179.558 1024.590 L 179.475 1020.408 L 179.385 1016.226 L 179.288 1012.044 L 179.184 1007.862 L 179.074 1003.680 L 178.956 999.498 L 178.831 995.316 L 178.699 991.134 L 178.560 986.952 L 178.414 982.770 L 178.261 978.588 L 178.101 974.406 L 177.934 970.224 L 177.760 966.042 L 177.579 961.860 L 177.392 957.678 L 177.197 953.496 L 176.996 949.314 L 176.787 945.132 L 176.572 940.950 L 176.350 936.768 L 176.121 932.586 L 175.886 928.404 L 175.643 924.222 L 175.394 920.040 L 175.138 915.858 L 174.875 911.676 L 174.606 907.494 L 174.330 903.312 L 174.047 899.130 L 173.758 894.948 L 173.462 890.766 L 173.160 886.584 L 172.851 882.402 L 172.535 878.220 L 172.213 874.038 L 171.884 869.856 L 171.549 865.674 L 171.208 861.492 L 170.860 857.310 L 170.505 853.128 L 170.145 848.946 L 169.778 844.764 L 169.404 840.582 L 169.025 836.400 L 168.639 832.218 L 168.247 828.036 L 167.849 823.854 L 167.444 819.672 L 167.034 815.490 L 166.617 811.308 L 166.195 807.126 L 165.766 802.944 L 165.332 798.762 L 164.891 794.580 L 164.445 790.398 L 163.992 786.216 L 163.534 782.034 L 163.070 777.852 L 162.600 773.670 L 162.125 769.488 L 161.644 765.306 L 161.157 761.124 L 160.664 756.942 L 160.166 752.760 L 159.663 748.578 L 159.154 744.396 L 158.639 740.214 L 158.119 736.032 L 157.594 731.850 L 157.063 727.668 L 156.527 723.486 L 155.986 719.304 L 155.440 715.122 L 154.888 710.940 L 154.332 706.758 L 153.770 702.576 L 153.203 698.394 L 152.631 694.212 L 152.054 690.030 L 151.473 685.848 L 150.886 681.666 L 150.295 677.484 L 149.699 673.302 L 149.098 669.120 L 148.493 664.938 L 147.883 660.756 L 147.268 656.574 L 146.649 652.392 L 146.025 648.210 L 145.397 644.028 L 144.765 639.846 L 144.128 635.664 L 143.487 631.482 L 142.842 627.300 L 142.192 623.118 L 141.539 618.936 L 140.881 614.754 L 140.220 610.572 L 139.554 606.390 L 138.884 602.208 L 138.211 598.026 L 137.534 593.844 L 136.853 589.662 L 136.168 585.480 L 135.480 581.298 L 134.788 577.116 L 134.093 572.934 L 133.394 568.752 L 132.692 564.570 L 131.986 560.388 L 131.277 556.206 L 130.565 552.024 L 129.849 547.842 L 129.131 543.660 L 128.409 539.478 L 127.684 535.296 L 126.957 531.114 L 126.226 526.932 L 125.493 522.750 L 124.756 518.568 L 124.017 514.386 L 123.276 510.204 L 122.531 506.022 L 121.785 501.840 L 121.035 497.658 L 120.283 493.476 L 119.529 489.294 L 118.773 485.112 L 118.014 480.930 L 117.253 476.748 L 116.489 472.566 L 115.724 468.384 L 114.957 464.202 L 114.188 460.020 L 113.416 455.838 L 112.643 451.656 L 111.868 447.474 L 111.092 443.292 L 110.314 439.110 L 109.534 434.928 L 108.752 430.746 L 107.970 426.564 L 107.185 422.382 L 106.400 418.200 L 105.613 414.018 L 104.825 409.836 L 104.035 405.654 L 103.245 401.472 L 102.453 397.290 L 101.661 393.108 L 100.867 388.926 L 100.073 384.744 L 99.278 380.562 L 98.482 376.380 L 97.686 372.198 L 96.889 368.016 L 96.091 363.834 L 95.293 359.652 L 94.495 355.470 L 93.696 351.288 L 92.897 347.106 L 92.097 342.924 L 91.298 338.742 L 90.498 334.560 L 89.698 330.378 L 88.899 326.196 L 88.099 322.014 L 87.300 317.832 L 86.501 313.650 L 85.702 309.468 L 84.903 305.286 L 84.105 301.104 L 83.307 296.922 L 82.510 292.740 L 81.713 288.558 L 80.917 284.376 L 80.122 280.194 L 79.328 276.012 L 78.534 271.830 L 77.741 267.648 L 76.950 263.466 L 76.159 259.284 L 75.369 255.102 L 74.581 250.920 L 73.794 246.738 L 73.008 242.556 L 72.223 238.374 L 71.440 234.192 L 70.658 230.010 L 69.878 225.828 L 69.099 221.646 L 68.322 217.464 L 67.547 213.282 L 66.774 209.100 L 66.002 204.918 L 65.232 200.736 L 64.464 196.554 L 63.699 192.372 L 62.935 188.190 L 62.173 184.008 L 61.414 179.826 L 60.657 175.644 L 59.902 171.462 L 59.149 167.280 L 58.399 163.098 L 57.652 158.916 L 56.907 154.734 L 56.165 150.552 L 55.425 146.370 L 54.688 142.188 L 53.954 138.006 L 53.223 133.824 L 52.494 129.642 L 51.769 125.460 L 51.046 121.278 L 50.327 117.096 L 49.611 112.914 L 48.898 108.732 L 48.188 104.550 L 47.481 100.368 L 46.778 96.186 L 46.079 92.004 L 45.382 87.822 L 44.690 83.640 L 44.000 79.458 L 43.315 75.276 L 42.633 71.094 L 41.955 66.912 L 41.281 62.730 L 40.610 58.548 L 39.944 54.366 L 39.281 50.184 L 38.623 46.002 L 37.968 41.820 L 37.318 37.638 L 36.671 33.456 L 36.029 29.274 L 35.391 25.092 L 34.758 20.910 L 34.129 16.728 L 33.504 12.546 L 32.884 8.364 L 32.268 4.182 L 31.657 0.000 L -31.657 0.000 L -32.268 4.182 L -32.884 8.364 L -33.504 12.546 L -34.129 16.728 L -34.758 20.910 L -35.391 25.092 L -36.029 29.274 L -36.671 33.456 L -37.318 37.638 L -37.968 41.820 L -38.623 46.002 L -39.281 50.184 L -39.944 54.366 L -40.610 58.548 L -41.281 62.730 L -41.955 66.912 L -42.633 71.094 L -43.315 75.276 L -44.000 79.458 L -44.690 83.640 L -45.382 87.822 L -46.079 92.004 L -46.778 96.186 L -47.481 100.368 L -48.188 104.550 L -48.898 108.732 L -49.611 112.914 L -50.327 117.096 L -51.046 121.278 L -51.769 125.460 L -52.494 129.642 L -53.223 133.824 L -53.954 138.006 L -54.688 142.188 L -55.425 146.370 L -56.165 150.552 L -56.907 154.734 L -57.652 158.916 L -58.399 163.098 L -59.149 167.280 L -59.902 171.462 L -60.657 175.644 L -61.414 179.826 L -62.173 184.008 L -62.935 188.190 L -63.699 192.372 L -64.464 196.554 L -65.232 200.736 L -66.002 204.918 L -66.774 209.100 L -67.547 213.282 L -68.322 217.464 L -69.099 221.646 L -69.878 225.828 L -70.658 230.010 L -71.440 234.192 L -72.223 238.374 L -73.008 242.556 L -73.794 246.738 L -74.581 250.920 L -75.369 255.102 L -76.159 259.284 L -76.950 263.466 L -77.741 267.648 L -78.534 271.830 L -79.328 276.012 L -80.122 280.194 L -80.917 284.376 L -81.713 288.558 L -82.510 292.740 L -83.307 296.922 L -84.105 301.104 L -84.903 305.286 L -85.702 309.468 L -86.501 313.650 L -87.300 317.832 L -88.099 322.014 L -88.899 326.196 L -89.698 330.378 L -90.498 334.560 L -91.298 338.742 L -92.097 342.924 L -92.897 347.106 L -93.696 351.288 L -94.495 355.470 L -95.293 359.652 L -96.091 363.834 L -96.889 368.016 L -97.686 372.198 L -98.482 376.380 L -99.278 380.562 L -100.073 384.744 L -100.867 388.926 L -101.661 393.108 L -102.453 397.290 L -103.245 401.472 L -104.035 405.654 L -104.825 409.836 L -105.613 414.018 L -106.400 418.200 L -107.185 422.382 L -107.970 426.564 L -108.752 430.746 L -109.534 434.928 L -110.314 439.110 L -111.092 443.292 L -111.868 447.474 L -112.643 451.656 L -113.416 455.838 L -114.188 460.020 L -114.957 464.202 L -115.724 468.384 L -116.489 472.566 L -117.253 476.748 L -118.014 480.930 L -118.773 485.112 L -119.529 489.294 L -120.283 493.476 L -121.035 497.658 L -121.785 501.840 L -122.531 506.022 L -123.276 510.204 L -124.017 514.386 L -124.756 518.568 L -125.493 522.750 L -126.226 526.932 L -126.957 531.114 L -127.684 535.296 L -128.409 539.478 L -129.131 543.660 L -129.849 547.842 L -130.565 552.024 L -131.277 556.206 L -131.986 560.388 L -132.692 564.570 L -133.394 568.752 L -134.093 572.934 L -134.788 577.116 L -135.480 581.298 L -136.168 585.480 L -136.853 589.662 L -137.534 593.844 L -138.211 598.026 L -138.884 602.208 L -139.554 606.390 L -140.220 610.572 L -140.881 614.754 L -141.539 618.936 L -142.192 623.118 L -142.842 627.300 L -143.487 631.482 L -144.128 635.664 L -144.765 639.846 L -145.397 644.028 L -146.025 648.210 L -146.649 652.392 L -147.268 656.574 L -147.883 660.756 L -148.493 664.938 L -149.098 669.120 L -149.699 673.302 L -150.295 677.484 L -150.886 681.666 L -151.473 685.848 L -152.054 690.030 L -152.631 694.212 L -153.203 698.394 L -153.770 702.576 L -154.332 706.758 L -154.888 710.940 L -155.440 715.122 L -155.986 719.304 L -156.527 723.486 L -157.063 727.668 L -157.594 731.850 L -158.119 736.032 L -158.639 740.214 L -159.154 744.396 L -159.663 748.578 L -160.166 752.760 L -160.664 756.942 L -161.157 761.124 L -161.644 765.306 L -162.125 769.488 L -162.600 773.670 L -163.070 777.852 L -163.534 782.034 L -163.992 786.216 L -164.445 790.398 L -164.891 794.580 L -165.332 798.762 L -165.766 802.944 L -166.195 807.126 L -166.617 811.308 L -167.034 815.490 L -167.444 819.672 L -167.849 823.854 L -168.247 828.036 L -168.639 832.218 L -169.025 836.400 L -169.404 840.582 L -169.778 844.764 L -170.145 848.946 L -170.505 853.128 L -170.860 857.310 L -171.208 861.492 L -171.549 865.674 L -171.884 869.856 L -172.213 874.038 L -172.535 878.220 L -172.851 882.402 L -173.160 886.584 L -173.462 890.766 L -173.758 894.948 L -174.047 899.130 L -174.330 903.312 L -174.606 907.494 L -174.875 911.676 L -175.138 915.858 L -175.394 920.040 L -175.643 924.222 L -175.886 928.404 L -176.121 932.586 L -176.350 936.768 L -176.572 940.950 L -176.787 945.132 L -176.996 949.314 L -177.197 953.496 L -177.392 957.678 L -177.579 961.860 L -177.760 966.042 L -177.934 970.224 L -178.101 974.406 L -178.261 978.588 L -178.414 982.770 L -178.560 986.952 L -178.699 991.134 L -178.831 995.316 L -178.956 999.498 L -179.074 1003.680 L -179.184 1007.862 L -179.288 1012.044 L -179.385 1016.226 L -179.475 1020.408 L -179.558 1024.590 L -179.633 1028.772 L -179.702 1032.954 L -179.763 1037.136 L -179.818 1041.318 L -179.865 1045.500 L -179.905 1049.682 L -179.938 1053.864 L -179.964 1058.046 L -179.983 1062.228 L -179.995 1066.410 L -180.000 1070.592 L -179.997 1074.774 L -179.984 1078.956 L -179.962 1083.138 L -179.931 1087.320 L -179.890 1091.502 L -179.840 1095.684 L -179.781 1099.866 L -179.712 1104.048 L -179.634 1108.230 L -179.546 1112.412 L -179.449 1116.594 L -179.343 1120.776 L -179.228 1124.958 L -179.103 1129.140 L -178.969 1133.322 L -178.825 1137.504 L -178.673 1141.686 L -178.511 1145.868 L -178.340 1150.050 L -178.159 1154.232 L -177.970 1158.414 L -177.771 1162.596 L -177.563 1166.778 L -177.346 1170.960 L -177.120 1175.142 L -176.885 1179.324 L -176.641 1183.506 L -176.387 1187.688 L -176.125 1191.870 L -175.854 1196.052 L -175.573 1200.234 L -175.284 1204.416 L -174.986 1208.598 L -174.679 1212.780 L -174.364 1216.962 L -174.039 1221.144 L -173.706 1225.326 L -173.364 1229.508 L -173.013 1233.690 L -172.653 1237.872 L -172.285 1242.054 L -171.909 1246.236 L -171.524 1250.418 L -171.130 1254.600 L -170.728 1258.782 L -170.317 1262.964 L -169.899 1267.146 L -169.471 1271.328 L -169.036 1275.510 L -168.592 1279.692 L -168.140 1283.874 L -167.680 1288.056 L -167.212 1292.238 L -166.735 1296.420 L -166.251 1300.602 L -165.759 1304.784 L -165.259 1308.966 L -164.751 1313.148 L -164.235 1317.330 L -163.711 1321.512 L -163.180 1325.694 L -162.641 1329.876 L -162.095 1334.058 L -161.541 1338.240 L -160.980 1342.422 L -160.411 1346.604 L -159.835 1350.786 L -159.251 1354.968 L -158.661 1359.150 L -158.063 1363.332 L -157.458 1367.514 L -156.846 1371.696 L -156.227 1375.878 L -155.601 1380.060 L -154.969 1384.242 L -154.329 1388.424 L -153.683 1392.606 L -153.030 1396.788 L -152.371 1400.970 L -151.705 1405.152 L -151.033 1409.334 L -150.354 1413.516 L -149.669 1417.698 L -148.978 1421.880 L -148.280 1426.062 L -147.577 1430.244 L -146.868 1434.426 L -146.152 1438.608 L -145.431 1442.790 L -144.704 1446.972 L -143.971 1451.154 L -143.233 1455.336 L -142.489 1459.518 L -141.740 1463.700 L -140.985 1467.882 L -140.225 1472.064 L -139.460 1476.246 L -138.689 1480.428 L -137.914 1484.610 L -137.133 1488.792 L -136.348 1492.974 L -135.557 1497.156 L -134.762 1501.338 L -133.963 1505.520 L -133.158 1509.702 L -132.349 1513.884 L -131.536 1518.066 L -130.719 1522.248 L -129.897 1526.430 L -129.071 1530.612 L -128.241 1534.794 L -127.407 1538.976 L -126.569 1543.158 L -125.727 1547.340 L -124.882 1551.522 L -124.033 1555.704 L -123.180 1559.886 L -122.324 1564.068 L -121.464 1568.250 L -120.602 1572.432 L -119.736 1576.614 L -118.867 1580.796 L -117.995 1584.978 L -117.120 1589.160 L -116.242 1593.342 L -115.361 1597.524 L -114.478 1601.706 L -113.592 1605.888 L -112.704 1610.070 L -111.813 1614.252 L -110.921 1618.434 L -110.026 1622.616 L -109.128 1626.798 L -108.229 1630.980 L -107.328 1635.162 L -106.426 1639.344 L -105.521 1643.526 L -104.615 1647.708 L -103.707 1651.890 L -102.798 1656.072 L -101.888 1660.254 L -100.976 1664.436 L -100.063 1668.618 L -99.149 1672.800 Z" fill="#e4d4b5" stroke="#222" stroke-width="3.0"/>
<line x1="0" y1="1672.800" x2="0" y2="0.000" stroke="#2e8b57" stroke-width="3.0"/>
<circle cx="0" cy="1426.917" r="3" fill="#2e8b57"/>
<text x="-8" y="1429.917" font-family="sans-serif" font-size="11" fill="#666" text-anchor="end">C1</text>
<circle cx="0" cy="1393.074" r="3" fill="#2e8b57"/>
<circle cx="0" cy="1359.231" r="3" fill="#2e8b57"/>
<circle cx="0" cy="1325.374" r="3" fill="#2e8b57"/>
<text x="-8" y="1328.374" font-family="sans-serif" font-size="11" fill="#666" text-anchor="end">F1</text>
<circle cx="0" cy="1291.509" r="3" fill="#2e8b57"/>
<circle cx="0" cy="1257.666" r="3" fill="#2e8b57"/>
<circle cx="0" cy="1223.822" r="3" fill="#2e8b57"/>
<circle cx="0" cy="1189.979" r="3" fill="#2e8b57"/>
<text x="-8" y="1192.979" font-family="sans-serif" font-size="11" fill="#666" text-anchor="end">C2</text>
<circle cx="0" cy="1156.122" r="3" fill="#2e8b57"/>
<circle cx="0" cy="1122.279" r="3" fill="#2e8b57"/>
<circle cx="0" cy="1088.414" r="3" fill="#2e8b57"/>
<text x="-8" y="1091.414" font-family="sans-serif" font-size="11" fill="#666" text-anchor="end">F2</text>
<circle cx="0" cy="1054.571" r="3" fill="#2e8b57"/>
<circle cx="0" cy="1021.685" r="3" fill="#2e8b57"/>
<circle cx="0" cy="988.822" r="3" fill="#2e8b57"/>
<circle cx="0" cy="955.937" r="3" fill="#2e8b57"/>
<text x="-8" y="958.937" font-family="sans-serif" font-size="11" fill="#666" text-anchor="end">C3</text>
<circle cx="0" cy="923.052" r="3" fill="#2e8b57"/>
<circle cx="0" cy="892.106" r="3" fill="#2e8b57"/>
<circle cx="0" cy="861.137" r="3" fill="#2e8b57"/>
<text x="-8" y="864.137" font-family="sans-serif" font-size="11" fill="#666" text-anchor="end">F3</text>
<circle cx="0" cy="830.205" r="3" fill="#2e8b57"/>
<circle cx="0" cy="801.176" r="3" fill="#2e8b57"/>
<circle cx="0" cy="772.181" r="3" fill="#2e8b57"/>
<circle cx="0" cy="743.166" r="3" fill="#2e8b57"/>
<text x="-8" y="746.166" font-family="sans-serif" font-size="11" fill="#666" text-anchor="end">C4</text>
<circle cx="0" cy="714.136" r="3" fill="#2e8b57"/>
<circle cx="0" cy="685.121" r="3" fill="#2e8b57"/>
<circle cx="0" cy="656.125" r="3" fill="#2e8b57"/>
<text x="-8" y="659.125" font-family="sans-serif" font-size="11" fill="#666" text-anchor="end">F4</text>
<circle cx="0" cy="627.110" r="3" fill="#2e8b57"/>
<circle cx="0" cy="600.032" r="3" fill="#2e8b57"/>
<circle cx="0" cy="572.955" r="3" fill="#2e8b57"/>
<circle cx="0" cy="545.878" r="3" fill="#2e8b57"/>
<text x="-8" y="548.878" font-family="sans-serif" font-size="11" fill="#666" text-anchor="end">C5</text>
<circle cx="0" cy="518.800" r="3" fill="#2e8b57"/>
<circle cx="0" cy="491.723" r="3" fill="#2e8b57"/>
<circle cx="0" cy="464.645" r="3" fill="#2e8b57"/>
<text x="-8" y="467.645" font-family="sans-serif" font-size="11" fill="#666" text-anchor="end">F5</text>
<circle cx="0" cy="437.567" r="3" fill="#2e8b57"/>
<circle cx="0" cy="412.408" r="3" fill="#2e8b57"/>
<circle cx="0" cy="387.261" r="3" fill="#2e8b57"/>
<circle cx="0" cy="362.122" r="3" fill="#2e8b57"/>
<text x="-8" y="365.122" font-family="sans-serif" font-size="11" fill="#666" text-anchor="end">C6</text>
<circle cx="0" cy="336.961" r="3" fill="#2e8b57"/>
<circle cx="0" cy="311.835" r="3" fill="#2e8b57"/>
<circle cx="0" cy="286.675" r="3" fill="#2e8b57"/>
<text x="-8" y="289.675" font-family="sans-serif" font-size="11" fill="#666" text-anchor="end">F6</text>
<circle cx="0" cy="261.528" r="3" fill="#2e8b57"/>
<circle cx="0" cy="236.390" r="3" fill="#2e8b57"/>
<circle cx="0" cy="211.229" r="3" fill="#2e8b57"/>
<circle cx="0" cy="186.103" r="3" fill="#2e8b57"/>
<text x="-8" y="189.103" font-family="sans-serif" font-size="11" fill="#666" text-anchor="end">C7</text>
<circle cx="0" cy="160.943" r="3" fill="#2e8b57"/>
<circle cx="0" cy="135.818" r="3" fill="#2e8b57"/>
<circle cx="0" cy="110.658" r="3" fill="#2e8b57"/>
<text x="-8" y="113.658" font-family="sans-serif" font-size="11" fill="#666" text-anchor="end">F7</text>
<circle cx="0" cy="85.519" r="3" fill="#2e8b57"/>
<text x="200" y="1597.860" font-family="sans-serif" font-size="11" fill="#333">s'=0.0 D=231.8 (CO)</text>
<text x="200" y="1524.270" font-family="sans-serif" font-size="11" fill="#333">s'=73.6 D=261.8 (CI)</text>
<text x="200" y="1074.270" font-family="sans-serif" font-size="11" fill="#333">s'=523.6 D=360.0 (peak)</text>
<text x="200" y="39.007" font-family="sans-serif" font-size="11" fill="#333">s'=1558.9 D=74.1 (ST)</text>
<text x="200" y="3.000" font-family="sans-serif" font-size="11" fill="#333">s'=1594.9 D=63.3 (treble clear)</text>
<text x="200" y="1675.800" font-family="sans-serif" font-size="11" fill="#333">s'=-77.9 D=198.3 (bass clear)</text>
<rect x="-6.350" y="1405.917" width="12.700" height="42.000" fill="#3060a0" stroke="#102a55" stroke-width="0.4"/>
<circle cx="0" cy="1426.917" r="1.750" fill="#bbbbbb" stroke="#444" stroke-width="0.4"/>
<rect x="-6.350" y="1372.074" width="12.700" height="42.000" fill="#3060a0" stroke="#102a55" stroke-width="0.4"/>
<circle cx="0" cy="1393.074" r="1.750" fill="#bbbbbb" stroke="#444" stroke-width="0.4"/>
<rect x="-6.350" y="1338.231" width="12.700" height="42.000" fill="#3060a0" stroke="#102a55" stroke-width="0.4"/>
<circle cx="0" cy="1359.231" r="1.750" fill="#bbbbbb" stroke="#444" stroke-width="0.4"/>
<rect x="-6.350" y="1304.374" width="12.700" height="42.000" fill="#3060a0" stroke="#102a55" stroke-width="0.4"/>
<circle cx="0" cy="1325.374" r="1.750" fill="#bbbbbb" stroke="#444" stroke-width="0.4"/>
<rect x="-6.350" y="1270.509" width="12.700" height="42.000" fill="#3060a0" stroke="#102a55" stroke-width="0.4"/>
<circle cx="0" cy="1291.509" r="1.750" fill="#bbbbbb" stroke="#444" stroke-width="0.4"/>
<rect x="-6.350" y="1236.666" width="12.700" height="42.000" fill="#3060a0" stroke="#102a55" stroke-width="0.4"/>
<circle cx="0" cy="1257.666" r="1.750" fill="#bbbbbb" stroke="#444" stroke-width="0.4"/>
<rect x="-6.350" y="1202.822" width="12.700" height="42.000" fill="#3060a0" stroke="#102a55" stroke-width="0.4"/>
<circle cx="0" cy="1223.822" r="1.750" fill="#bbbbbb" stroke="#444" stroke-width="0.4"/>
<rect x="-6.350" y="1171.479" width="12.700" height="37.000" fill="#3060a0" stroke="#102a55" stroke-width="0.4"/>
<circle cx="0" cy="1189.979" r="1.750" fill="#bbbbbb" stroke="#444" stroke-width="0.4"/>
<rect x="-6.350" y="1137.622" width="12.700" height="37.000" fill="#3060a0" stroke="#102a55" stroke-width="0.4"/>
<circle cx="0" cy="1156.122" r="1.750" fill="#bbbbbb" stroke="#444" stroke-width="0.4"/>
<rect x="-6.350" y="1103.779" width="12.700" height="37.000" fill="#3060a0" stroke="#102a55" stroke-width="0.4"/>
<circle cx="0" cy="1122.279" r="1.750" fill="#bbbbbb" stroke="#444" stroke-width="0.4"/>
<rect x="-6.350" y="1069.914" width="12.700" height="37.000" fill="#3060a0" stroke="#102a55" stroke-width="0.4"/>
<circle cx="0" cy="1088.414" r="1.750" fill="#bbbbbb" stroke="#444" stroke-width="0.4"/>
<rect x="-6.350" y="1036.071" width="12.700" height="37.000" fill="#3060a0" stroke="#102a55" stroke-width="0.4"/>
<circle cx="0" cy="1054.571" r="1.750" fill="#bbbbbb" stroke="#444" stroke-width="0.4"/>
<rect x="-6.350" y="1003.185" width="12.700" height="37.000" fill="#3060a0" stroke="#102a55" stroke-width="0.4"/>
<circle cx="0" cy="1021.685" r="1.750" fill="#bbbbbb" stroke="#444" stroke-width="0.4"/>
<rect x="-6.350" y="970.322" width="12.700" height="37.000" fill="#3060a0" stroke="#102a55" stroke-width="0.4"/>
<circle cx="0" cy="988.822" r="1.750" fill="#bbbbbb" stroke="#444" stroke-width="0.4"/>
<rect x="-6.350" y="939.437" width="12.700" height="33.000" fill="#3060a0" stroke="#102a55" stroke-width="0.4"/>
<circle cx="0" cy="955.937" r="1.425" fill="#bbbbbb" stroke="#444" stroke-width="0.4"/>
<rect x="-6.350" y="906.552" width="12.700" height="33.000" fill="#3060a0" stroke="#102a55" stroke-width="0.4"/>
<circle cx="0" cy="923.052" r="1.425" fill="#bbbbbb" stroke="#444" stroke-width="0.4"/>
<rect x="-6.350" y="875.606" width="12.700" height="33.000" fill="#3060a0" stroke="#102a55" stroke-width="0.4"/>
<circle cx="0" cy="892.106" r="1.425" fill="#bbbbbb" stroke="#444" stroke-width="0.4"/>
<rect x="-6.350" y="844.637" width="12.700" height="33.000" fill="#3060a0" stroke="#102a55" stroke-width="0.4"/>
<circle cx="0" cy="861.137" r="1.425" fill="#bbbbbb" stroke="#444" stroke-width="0.4"/>
<rect x="-6.350" y="813.705" width="12.700" height="33.000" fill="#3060a0" stroke="#102a55" stroke-width="0.4"/>
<circle cx="0" cy="830.205" r="1.425" fill="#bbbbbb" stroke="#444" stroke-width="0.4"/>
<rect x="-6.350" y="784.676" width="12.700" height="33.000" fill="#3060a0" stroke="#102a55" stroke-width="0.4"/>
<circle cx="0" cy="801.176" r="1.425" fill="#bbbbbb" stroke="#444" stroke-width="0.4"/>
<rect x="-6.350" y="755.681" width="12.700" height="33.000" fill="#3060a0" stroke="#102a55" stroke-width="0.4"/>
<circle cx="0" cy="772.181" r="1.425" fill="#bbbbbb" stroke="#444" stroke-width="0.4"/>
<rect x="-6.350" y="726.666" width="12.700" height="33.000" fill="#3060a0" stroke="#102a55" stroke-width="0.4"/>
<circle cx="0" cy="743.166" r="1.425" fill="#bbbbbb" stroke="#444" stroke-width="0.4"/>
<rect x="-6.350" y="697.636" width="12.700" height="33.000" fill="#3060a0" stroke="#102a55" stroke-width="0.4"/>
<circle cx="0" cy="714.136" r="1.425" fill="#bbbbbb" stroke="#444" stroke-width="0.4"/>
<rect x="-6.350" y="668.621" width="12.700" height="33.000" fill="#3060a0" stroke="#102a55" stroke-width="0.4"/>
<circle cx="0" cy="685.121" r="1.425" fill="#bbbbbb" stroke="#444" stroke-width="0.4"/>
<rect x="-6.350" y="639.625" width="12.700" height="33.000" fill="#3060a0" stroke="#102a55" stroke-width="0.4"/>
<circle cx="0" cy="656.125" r="1.425" fill="#bbbbbb" stroke="#444" stroke-width="0.4"/>
<rect x="-6.350" y="610.610" width="12.700" height="33.000" fill="#3060a0" stroke="#102a55" stroke-width="0.4"/>
<circle cx="0" cy="627.110" r="1.425" fill="#bbbbbb" stroke="#444" stroke-width="0.4"/>
<rect x="-6.350" y="583.532" width="12.700" height="33.000" fill="#3060a0" stroke="#102a55" stroke-width="0.4"/>
<circle cx="0" cy="600.032" r="1.425" fill="#bbbbbb" stroke="#444" stroke-width="0.4"/>
<rect x="-6.350" y="556.455" width="12.700" height="33.000" fill="#3060a0" stroke="#102a55" stroke-width="0.4"/>
<circle cx="0" cy="572.955" r="1.425" fill="#bbbbbb" stroke="#444" stroke-width="0.4"/>
<rect x="-6.350" y="529.378" width="12.700" height="33.000" fill="#3060a0" stroke="#102a55" stroke-width="0.4"/>
<circle cx="0" cy="545.878" r="1.425" fill="#bbbbbb" stroke="#444" stroke-width="0.4"/>
<rect x="-6.350" y="502.300" width="12.700" height="33.000" fill="#3060a0" stroke="#102a55" stroke-width="0.4"/>
<circle cx="0" cy="518.800" r="1.425" fill="#bbbbbb" stroke="#444" stroke-width="0.4"/>
<rect x="-6.350" y="475.223" width="12.700" height="33.000" fill="#3060a0" stroke="#102a55" stroke-width="0.4"/>
<circle cx="0" cy="491.723" r="1.425" fill="#bbbbbb" stroke="#444" stroke-width="0.4"/>
<rect x="-6.350" y="448.145" width="12.700" height="33.000" fill="#3060a0" stroke="#102a55" stroke-width="0.4"/>
<circle cx="0" cy="464.645" r="1.425" fill="#bbbbbb" stroke="#444" stroke-width="0.4"/>
<rect x="-6.350" y="421.067" width="12.700" height="33.000" fill="#3060a0" stroke="#102a55" stroke-width="0.4"/>
<circle cx="0" cy="437.567" r="1.425" fill="#bbbbbb" stroke="#444" stroke-width="0.4"/>
<rect x="-6.350" y="395.908" width="12.700" height="33.000" fill="#3060a0" stroke="#102a55" stroke-width="0.4"/>
<circle cx="0" cy="412.408" r="1.425" fill="#bbbbbb" stroke="#444" stroke-width="0.4"/>
<rect x="-6.350" y="370.761" width="12.700" height="33.000" fill="#3060a0" stroke="#102a55" stroke-width="0.4"/>
<circle cx="0" cy="387.261" r="1.425" fill="#bbbbbb" stroke="#444" stroke-width="0.4"/>
<rect x="-6.350" y="346.122" width="12.700" height="32.000" fill="#3060a0" stroke="#102a55" stroke-width="0.4"/>
<circle cx="0" cy="362.122" r="1.425" fill="#bbbbbb" stroke="#444" stroke-width="0.4"/>
<rect x="-6.350" y="320.961" width="12.700" height="32.000" fill="#3060a0" stroke="#102a55" stroke-width="0.4"/>
<circle cx="0" cy="336.961" r="1.425" fill="#bbbbbb" stroke="#444" stroke-width="0.4"/>
<rect x="-6.350" y="295.835" width="12.700" height="32.000" fill="#3060a0" stroke="#102a55" stroke-width="0.4"/>
<circle cx="0" cy="311.835" r="1.425" fill="#bbbbbb" stroke="#444" stroke-width="0.4"/>
<rect x="-6.350" y="270.675" width="12.700" height="32.000" fill="#3060a0" stroke="#102a55" stroke-width="0.4"/>
<circle cx="0" cy="286.675" r="1.425" fill="#bbbbbb" stroke="#444" stroke-width="0.4"/>
<rect x="-6.350" y="245.528" width="12.700" height="32.000" fill="#3060a0" stroke="#102a55" stroke-width="0.4"/>
<circle cx="0" cy="261.528" r="1.425" fill="#bbbbbb" stroke="#444" stroke-width="0.4"/>
<rect x="-6.350" y="220.390" width="12.700" height="32.000" fill="#3060a0" stroke="#102a55" stroke-width="0.4"/>
<circle cx="0" cy="236.390" r="1.425" fill="#bbbbbb" stroke="#444" stroke-width="0.4"/>
<rect x="-6.350" y="195.229" width="12.700" height="32.000" fill="#3060a0" stroke="#102a55" stroke-width="0.4"/>
<circle cx="0" cy="211.229" r="1.425" fill="#bbbbbb" stroke="#444" stroke-width="0.4"/>
<rect x="-6.350" y="173.103" width="12.700" height="26.000" fill="#3060a0" stroke="#102a55" stroke-width="0.4"/>
<circle cx="0" cy="186.103" r="1.350" fill="#bbbbbb" stroke="#444" stroke-width="0.4"/>
<rect x="-6.350" y="147.943" width="12.700" height="26.000" fill="#3060a0" stroke="#102a55" stroke-width="0.4"/>
<circle cx="0" cy="160.943" r="1.350" fill="#bbbbbb" stroke="#444" stroke-width="0.4"/>
<rect x="-6.350" y="122.818" width="12.700" height="26.000" fill="#3060a0" stroke="#102a55" stroke-width="0.4"/>
<circle cx="0" cy="135.818" r="1.350" fill="#bbbbbb" stroke="#444" stroke-width="0.4"/>
<rect x="-6.350" y="97.658" width="12.700" height="26.000" fill="#3060a0" stroke="#102a55" stroke-width="0.4"/>
<circle cx="0" cy="110.658" r="1.350" fill="#bbbbbb" stroke="#444" stroke-width="0.4"/>
<rect x="-6.350" y="72.519" width="12.700" height="26.000" fill="#3060a0" stroke="#102a55" stroke-width="0.4"/>
<circle cx="0" cy="85.519" r="1.350" fill="#bbbbbb" stroke="#444" stroke-width="0.4"/>
</svg>