<svg xmlns="http://www.w3.org/2000/svg" width="444" height="900" viewBox="-40 0 1000 1940" preserveAspectRatio="xMidYMid meet">
<style>.str{fill:none;stroke-linecap:round}.key{stroke:#888;stroke-width:0.35;fill:none}.sb{stroke:#555;stroke-width:0.6;fill:none}.g{fill:#1f77b4}.n{fill:#2ca02c}.f{fill:#d62728}.s{fill:#ff7f0e}.p{fill:#9467bd}.sml{font-family:sans-serif;font-size:10px;fill:#333}.lbl{font-family:sans-serif;font-size:14px;fill:#222;font-weight:bold}.big{font-family:sans-serif;font-size:18px;fill:#000;font-weight:bold}.col{font-family:sans-serif;font-size:14px;fill:#000;font-weight:bold}</style>
<rect x="0" y="0" width="1000" height="1940" fill="#fff"/>
<line class="sb" x1="51.700" y1="1741.510" x2="838.784" y2="481.939"/>
<line x1="0" y1="1915.500" x2="1000" y2="1915.500" stroke="#888" stroke-width="0.6" stroke-dasharray="4,3"/>
<circle cx="12.700" cy="1803.910" r="2.6416" fill="#0a7"/>
<text x="24.700" y="1809.910" class="big">CO</text>
<circle cx="51.695" cy="1741.507" r="2.6416" fill="#0a7"/>
<text x="63.695" y="1747.507" class="big">CI</text>
<line x1="51.700" y1="1741.510" x2="12.700" y2="1803.910" stroke="#0a7" stroke-width="0.6" stroke-dasharray="4,3"/>
<line x1="838.784" y1="481.939" x2="857.865" y2="451.403" stroke="#0a7" stroke-width="0.6" stroke-dasharray="4,3"/>
<path d="M 193.451 1913.858 L 197.142 1911.062 L 200.828 1908.263 L 204.509 1905.461 L 208.186 1902.656 L 211.857 1899.848 L 215.523 1897.037 L 219.183 1894.222 L 222.838 1891.403 L 226.487 1888.581 L 230.130 1885.755 L 233.767 1882.926 L 237.398 1880.092 L 241.022 1877.255 L 244.640 1874.413 L 248.251 1871.567 L 251.855 1868.717 L 255.452 1865.863 L 259.043 1863.004 L 262.625 1860.141 L 266.201 1857.273 L 269.769 1854.400 L 273.329 1851.523 L 276.882 1848.640 L 280.426 1845.753 L 283.962 1842.860 L 287.490 1839.963 L 291.010 1837.060 L 294.521 1834.152 L 298.024 1831.238 L 301.517 1828.319 L 305.002 1825.394 L 308.478 1822.464 L 311.944 1819.528 L 315.401 1816.586 L 318.849 1813.638 L 322.287 1810.684 L 325.716 1807.724 L 329.134 1804.758 L 332.543 1801.786 L 335.941 1798.807 L 339.329 1795.822 L 342.707 1792.831 L 346.075 1789.833 L 349.431 1786.828 L 352.778 1783.817 L 356.113 1780.799 L 359.437 1777.774 L 362.751 1774.742 L 366.053 1771.703 L 369.344 1768.657 L 372.623 1765.604 L 375.891 1762.544 L 379.148 1759.477 L 382.392 1756.402 L 385.625 1753.320 L 388.846 1750.230 L 392.055 1747.133 L 395.252 1744.029 L 398.436 1740.916 L 401.609 1737.796 L 404.768 1734.669 L 407.916 1731.533 L 411.050 1728.389 L 414.172 1725.238 L 417.281 1722.079 L 420.377 1718.911 L 423.461 1715.735 L 426.531 1712.552 L 429.588 1709.360 L 432.631 1706.159 L 435.662 1702.951 L 438.679 1699.734 L 441.682 1696.508 L 444.672 1693.274 L 447.648 1690.032 L 450.611 1686.781 L 453.560 1683.521 L 456.494 1680.253 L 459.415 1676.976 L 462.322 1673.690 L 465.215 1670.395 L 468.094 1667.092 L 470.958 1663.779 L 473.808 1660.458 L 476.644 1657.128 L 479.465 1653.789 L 482.272 1650.440 L 485.064 1647.083 L 487.842 1643.716 L 490.605 1640.341 L 493.354 1636.956 L 496.087 1633.562 L 498.806 1630.159 L 501.510 1626.746 L 504.200 1623.324 L 506.874 1619.893 L 509.533 1616.453 L 512.177 1613.003 L 514.807 1609.544 L 517.421 1606.075 L 520.020 1602.597 L 522.604 1599.109 L 525.173 1595.612 L 527.726 1592.105 L 530.264 1588.589 L 532.787 1585.063 L 535.295 1581.528 L 537.787 1577.983 L 540.264 1574.429 L 542.726 1570.865 L 545.172 1567.291 L 547.603 1563.708 L 550.018 1560.115 L 552.418 1556.512 L 554.803 1552.900 L 557.172 1549.278 L 559.526 1545.647 L 561.864 1542.006 L 564.186 1538.355 L 566.494 1534.694 L 568.786 1531.024 L 571.066 1527.347 L 573.335 1523.662 L 575.592 1519.970 L 577.837 1516.271 L 580.070 1512.564 L 582.292 1508.850 L 584.502 1505.129 L 586.701 1501.401 L 588.887 1497.665 L 591.062 1493.922 L 593.226 1490.171 L 595.377 1486.414 L 597.517 1482.649 L 599.646 1478.876 L 601.763 1475.097 L 603.868 1471.310 L 605.962 1467.516 L 608.044 1463.715 L 610.114 1459.907 L 612.173 1456.091 L 614.221 1452.268 L 616.257 1448.438 L 618.281 1444.601 L 620.294 1440.757 L 622.296 1436.905 L 624.286 1433.047 L 626.265 1429.181 L 628.233 1425.308 L 630.189 1421.428 L 632.134 1417.541 L 634.068 1413.647 L 635.990 1409.747 L 637.901 1405.839 L 639.802 1401.924 L 641.691 1398.002 L 643.568 1394.073 L 645.435 1390.137 L 647.291 1386.195 L 649.136 1382.245 L 650.970 1378.289 L 652.793 1374.326 L 654.605 1370.356 L 656.406 1366.379 L 658.197 1362.396 L 659.976 1358.406 L 661.745 1354.409 L 663.504 1350.405 L 665.251 1346.395 L 666.989 1342.378 L 668.715 1338.355 L 670.431 1334.325 L 672.137 1330.289 L 673.833 1326.246 L 675.518 1322.197 L 677.192 1318.141 L 678.857 1314.079 L 680.511 1310.010 L 682.156 1305.936 L 683.790 1301.854 L 685.414 1297.767 L 687.028 1293.674 L 688.633 1289.574 L 690.227 1285.468 L 691.812 1281.356 L 693.387 1277.238 L 694.953 1273.114 L 696.508 1268.984 L 698.055 1264.848 L 699.592 1260.706 L 701.119 1256.558 L 702.637 1252.404 L 704.146 1248.245 L 705.646 1244.080 L 707.136 1239.909 L 708.617 1235.732 L 710.090 1231.550 L 711.553 1227.362 L 713.008 1223.169 L 714.454 1218.970 L 715.891 1214.766 L 717.319 1210.556 L 718.739 1206.341 L 720.151 1202.121 L 721.554 1197.895 L 722.948 1193.665 L 724.335 1189.429 L 725.713 1185.188 L 727.083 1180.941 L 728.445 1176.690 L 729.799 1172.434 L 731.145 1168.173 L 732.483 1163.907 L 733.814 1159.636 L 735.137 1155.361 L 736.452 1151.080 L 737.760 1146.795 L 739.061 1142.506 L 740.354 1138.212 L 741.640 1133.913 L 742.919 1129.610 L 744.190 1125.302 L 745.455 1120.990 L 746.713 1116.674 L 747.964 1112.354 L 749.209 1108.029 L 750.447 1103.700 L 751.678 1099.367 L 752.903 1095.030 L 754.121 1090.690 L 755.334 1086.345 L 756.540 1081.996 L 757.740 1077.644 L 758.934 1073.288 L 760.122 1068.928 L 761.304 1064.564 L 762.481 1060.197 L 763.652 1055.827 L 764.817 1051.453 L 765.977 1047.076 L 767.132 1042.695 L 768.282 1038.311 L 769.426 1033.924 L 770.566 1029.534 L 771.700 1025.140 L 772.830 1020.744 L 773.955 1016.344 L 775.075 1011.942 L 776.190 1007.537 L 777.302 1003.129 L 778.409 998.719 L 779.511 994.305 L 780.610 989.890 L 781.704 985.471 L 782.795 981.051 L 783.882 976.627 L 784.965 972.202 L 786.044 967.774 L 787.120 963.344 L 788.192 958.912 L 789.261 954.478 L 790.327 950.041 L 791.390 945.603 L 792.450 941.163 L 793.507 936.721 L 794.561 932.278 L 795.612 927.832 L 796.661 923.385 L 797.707 918.937 L 798.751 914.487 L 799.792 910.035 L 800.832 905.583 L 801.869 901.129 L 802.904 896.673 L 803.938 892.217 L 804.970 887.759 L 806.000 883.301 L 807.028 878.841 L 808.056 874.381 L 809.081 869.920 L 810.106 865.458 L 811.130 860.995 L 812.152 856.532 L 813.174 852.068 L 814.195 847.603 L 815.215 843.139 L 816.234 838.674 L 817.254 834.208 L 818.272 829.742 L 819.291 825.277 L 820.309 820.811 L 821.328 816.345 L 822.346 811.879 L 823.365 807.413 L 824.384 802.948 L 825.403 798.482 L 826.423 794.017 L 827.444 789.553 L 828.465 785.089 L 829.487 780.625 L 830.510 776.162 L 831.534 771.700 L 832.559 767.238 L 833.585 762.777 L 834.613 758.317 L 835.642 753.858 L 836.673 749.400 L 837.706 744.943 L 838.740 740.487 L 839.776 736.032 L 840.814 731.579 L 841.855 727.126 L 842.897 722.676 L 843.942 718.226 L 844.990 713.778 L 846.039 709.332 L 847.092 704.888 L 848.147 700.445 L 849.205 696.004 L 850.266 691.564 L 851.330 687.127 L 852.398 682.692 L 853.468 678.258 L 854.542 673.827 L 855.619 669.398 L 856.700 664.971 L 857.785 660.547 L 858.873 656.124 L 859.966 651.705 L 861.062 647.288 L 862.162 642.873 L 863.267 638.461 L 864.375 634.051 L 865.489 629.645 L 866.606 625.241 L 867.729 620.840 L 868.856 616.442 L 869.987 612.047 L 871.124 607.655 L 872.265 603.266 L 873.412 598.880 L 874.564 594.497 L 875.721 590.118 L 876.883 585.742 L 878.051 581.370 L 879.225 577.001 L 880.404 572.635 L 881.589 568.274 L 882.779 563.915 L 883.976 559.561 L 885.179 555.210 L 886.388 550.863 L 887.603 546.520 L 888.824 542.181 L 890.051 537.846 L 891.286 533.515 L 892.526 529.188 L 893.774 524.865 L 895.028 520.546 L 896.289 516.232 L 897.557 511.922 L 898.831 507.616 L 900.113 503.315 L 901.402 499.018 L 902.699 494.726 L 904.003 490.439 L 905.314 486.156 L 906.632 481.877" fill="none" stroke="#0a7" stroke-width="0.9"/>
<line x1="838.784" y1="481.939" x2="906.613" y2="481.939" stroke="#0a7" stroke-width="0.6" stroke-dasharray="4,3"/>
<circle cx="906.613" cy="481.939" r="2.6416" fill="#0a7"/>
<text x="918.613" y="487.939" class="big">BT</text>
<line x1="12.700" y1="323.844" x2="52.700" y2="323.844" stroke="#1060d0" stroke-width="0.5" stroke-dasharray="2,1.5"/>
<circle cx="52.700" cy="323.844" r="1.6" fill="#fff" stroke="#1060d0" stroke-width="0.6"/>
<line x1="12.700" y1="146.563" x2="12.700" y2="106.563" stroke="#1060d0" stroke-width="0.5" stroke-dasharray="2,1.5"/>
<circle cx="12.700" cy="106.563" r="1.6" fill="#fff" stroke="#1060d0" stroke-width="0.6"/>
<line x1="813.916" y1="416.047" x2="783.315" y2="441.808" stroke="#1060d0" stroke-width="0.5" stroke-dasharray="2,1.5"/>
<circle cx="783.315" cy="441.808" r="1.6" fill="#fff" stroke="#1060d0" stroke-width="0.6"/>
<line x1="813.916" y1="416.047" x2="844.516" y2="390.286" stroke="#1060d0" stroke-width="0.5" stroke-dasharray="2,1.5"/>
<circle cx="844.516" cy="390.286" r="1.6" fill="#fff" stroke="#1060d0" stroke-width="0.6"/>
<line x1="101.700" y1="323.844" x2="141.700" y2="323.844" stroke="#1060d0" stroke-width="0.5" stroke-dasharray="2,1.5"/>
<circle cx="141.700" cy="323.844" r="1.6" fill="#fff" stroke="#1060d0" stroke-width="0.6"/>
<line x1="101.700" y1="323.844" x2="61.700" y2="323.844" stroke="#1060d0" stroke-width="0.5" stroke-dasharray="2,1.5"/>
<circle cx="61.700" cy="323.844" r="1.6" fill="#fff" stroke="#1060d0" stroke-width="0.6"/>
<line x1="166.623" y1="86.100" x2="206.623" y2="86.100" stroke="#1060d0" stroke-width="0.5" stroke-dasharray="2,1.5"/>
<circle cx="206.623" cy="86.100" r="1.6" fill="#fff" stroke="#1060d0" stroke-width="0.6"/>
<line x1="166.623" y1="86.100" x2="126.623" y2="86.100" stroke="#1060d0" stroke-width="0.5" stroke-dasharray="2,1.5"/>
<circle cx="126.623" cy="86.100" r="1.6" fill="#fff" stroke="#1060d0" stroke-width="0.6"/>
<line x1="308.107" y1="108.935" x2="336.391" y2="137.219" stroke="#1060d0" stroke-width="0.5" stroke-dasharray="2,1.5"/>
<circle cx="336.391" cy="137.219" r="1.6" fill="#fff" stroke="#1060d0" stroke-width="0.6"/>
<line x1="308.107" y1="108.935" x2="279.823" y2="80.651" stroke="#1060d0" stroke-width="0.5" stroke-dasharray="2,1.5"/>
<circle cx="279.823" cy="80.651" r="1.6" fill="#fff" stroke="#1060d0" stroke-width="0.6"/>
<line x1="263.142" y1="308.444" x2="303.142" y2="308.444" stroke="#1060d0" stroke-width="0.5" stroke-dasharray="2,1.5"/>
<circle cx="303.142" cy="308.444" r="1.6" fill="#fff" stroke="#1060d0" stroke-width="0.6"/>
<line x1="263.142" y1="308.444" x2="223.142" y2="308.444" stroke="#1060d0" stroke-width="0.5" stroke-dasharray="2,1.5"/>
<circle cx="223.142" cy="308.444" r="1.6" fill="#fff" stroke="#1060d0" stroke-width="0.6"/>
<line x1="620.730" y1="532.734" x2="660.730" y2="532.734" stroke="#1060d0" stroke-width="0.5" stroke-dasharray="2,1.5"/>
<circle cx="660.730" cy="532.734" r="1.6" fill="#fff" stroke="#1060d0" stroke-width="0.6"/>
<line x1="620.730" y1="532.734" x2="580.730" y2="532.734" stroke="#1060d0" stroke-width="0.5" stroke-dasharray="2,1.5"/>
<circle cx="580.730" cy="532.734" r="1.6" fill="#fff" stroke="#1060d0" stroke-width="0.6"/>
<line x1="597.279" y1="632.960" x2="637.279" y2="632.960" stroke="#1060d0" stroke-width="0.5" stroke-dasharray="2,1.5"/>
<circle cx="637.279" cy="632.960" r="1.6" fill="#fff" stroke="#1060d0" stroke-width="0.6"/>
<line x1="597.279" y1="632.960" x2="557.279" y2="632.960" stroke="#1060d0" stroke-width="0.5" stroke-dasharray="2,1.5"/>
<circle cx="557.279" cy="632.960" r="1.6" fill="#fff" stroke="#1060d0" stroke-width="0.6"/>
<line x1="433.297" y1="548.990" x2="461.581" y2="577.274" stroke="#1060d0" stroke-width="0.5" stroke-dasharray="2,1.5"/>
<circle cx="461.581" cy="577.274" r="1.6" fill="#fff" stroke="#1060d0" stroke-width="0.6"/>
<line x1="433.297" y1="548.990" x2="405.013" y2="520.706" stroke="#1060d0" stroke-width="0.5" stroke-dasharray="2,1.5"/>
<circle cx="405.013" cy="520.706" r="1.6" fill="#fff" stroke="#1060d0" stroke-width="0.6"/>
<line x1="906.613" y1="481.939" x2="866.613" y2="481.939" stroke="#1060d0" stroke-width="0.5" stroke-dasharray="2,1.5"/>
<circle cx="866.613" cy="481.939" r="1.6" fill="#fff" stroke="#1060d0" stroke-width="0.6"/>
<line x1="906.613" y1="481.939" x2="874.011" y2="458.764" stroke="#1060d0" stroke-width="0.5" stroke-dasharray="2,1.5"/>
<circle cx="874.011" cy="458.764" r="1.6" fill="#fff" stroke="#1060d0" stroke-width="0.6"/>
<path d="M 12.700 323.844 C 52.700 323.844 61.700 323.844 101.700 323.844 C 141.700 323.844 248.142 308.444 263.142 308.444 C 278.142 308.444 412.699 528.392 433.297 548.990 C 453.895 569.588 579.453 632.960 597.279 632.960 C 615.105 632.960 891.613 481.939 906.613 481.939 C 876.182 455.979 859.863 442.058 829.432 416.098 A 12.000 12.000 0 0 0 813.916 416.047 C 783.315 441.808 635.730 532.734 620.730 532.734 C 605.730 532.734 352.685 153.513 308.107 108.935 C 263.529 64.357 206.623 86.100 166.623 86.100 C 126.623 86.100 12.700 106.563 12.700 146.563 L 12.700 323.844" fill="none" stroke="#8B4513" stroke-width="1.6"/>
<line x1="32.20" y1="38.10" x2="32.20" y2="1915.50" stroke="#888" stroke-width="0.4" stroke-dasharray="3,2"/>
<text x="32.20" y="976.80" text-anchor="middle" transform="rotate(-90 32.20 976.80)" class="col">COLUMN  39 x 1877 mm</text>
<line x1="12.70" y1="106.563" x2="12.70" y2="1915.500" stroke="#888" stroke-width="0.6"/>
<line x1="51.70" y1="106.563" x2="51.70" y2="1741.510" stroke="#888" stroke-width="0.6"/>
<line class="str" stroke="#c00000" stroke-width="1.676" x1="101.7" y1="1661.495" x2="101.7" y2="146.563"/>
<line class="str" stroke="#888" stroke-width="1.549" x1="119.632" y1="1632.793" x2="119.632" y2="143.109"/>
<line class="str" stroke="#888" stroke-width="1.448" x1="137.565" y1="1604.091" x2="137.565" y2="139.654"/>
<line class="str" stroke="#1060d0" stroke-width="1.27" x1="155.523" y1="1575.389" x2="155.523" y2="136.2"/>
<line class="str" stroke="#888" stroke-width="1.219" x1="173.455" y1="1546.662" x2="173.455" y2="137.775"/>
<line class="str" stroke="#888" stroke-width="1.219" x1="191.387" y1="1517.96" x2="191.387" y2="139.375"/>
<line class="str" stroke="#888" stroke-width="1.016" x1="209.32" y1="1489.258" x2="209.32" y2="140.975"/>
<line class="str" stroke="#c00000" stroke-width="1.016" x1="227.252" y1="1460.556" x2="227.252" y2="142.575"/>
<line class="str" stroke="#888" stroke-width="0.914" x1="245.21" y1="1431.854" x2="245.21" y2="149.23"/>
<line class="str" stroke="#888" stroke-width="2.642" x1="263.142" y1="1403.152" x2="263.142" y2="160.914"/>
<line class="str" stroke="#1060d0" stroke-width="2.489" x1="281.075" y1="1374.425" x2="281.075" y2="152.38"/>
<line class="str" stroke="#888" stroke-width="2.337" x1="299.007" y1="1345.723" x2="299.007" y2="159.035"/>
<line class="str" stroke="#888" stroke-width="2.184" x1="316.432" y1="1317.833" x2="316.432" y2="206.888"/>
<line class="str" stroke="#888" stroke-width="2.057" x1="333.856" y1="1289.97" x2="333.856" y2="234.574"/>
<line class="str" stroke="#c00000" stroke-width="2.057" x1="351.28" y1="1262.08" x2="351.28" y2="272.319"/>
<line class="str" stroke="#888" stroke-width="1.93" x1="368.705" y1="1234.191" x2="368.705" y2="310.088"/>
<line class="str" stroke="#888" stroke-width="1.676" x1="385.113" y1="1207.953" x2="385.113" y2="344.455"/>
<line class="str" stroke="#1060d0" stroke-width="1.676" x1="401.522" y1="1181.689" x2="401.522" y2="388.879"/>
<line class="str" stroke="#888" stroke-width="1.549" x1="417.905" y1="1155.451" x2="417.905" y2="423.245"/>
<line class="str" stroke="#888" stroke-width="1.549" x1="433.297" y1="1130.839" x2="433.297" y2="464.266"/>
<line class="str" stroke="#888" stroke-width="1.27" x1="448.664" y1="1106.251" x2="448.664" y2="485.12"/>
<line class="str" stroke="#c00000" stroke-width="1.27" x1="464.031" y1="1081.639" x2="464.031" y2="511.028"/>
<line class="str" stroke="#888" stroke-width="1.27" x1="479.423" y1="1057.026" x2="479.423" y2="531.856"/>
<line class="str" stroke="#888" stroke-width="1.143" x1="494.79" y1="1032.414" x2="494.79" y2="547.629"/>
<line class="str" stroke="#1060d0" stroke-width="1.143" x1="510.157" y1="1007.826" x2="510.157" y2="558.399"/>
<line class="str" stroke="#888" stroke-width="1.143" x1="525.524" y1="983.214" x2="525.524" y2="569.143"/>
<line class="str" stroke="#888" stroke-width="1.016" x1="539.875" y1="960.252" x2="539.875" y2="576.484"/>
<line class="str" stroke="#888" stroke-width="1.016" x1="554.226" y1="937.291" x2="554.226" y2="583.799"/>
<line class="str" stroke="#c00000" stroke-width="1.016" x1="568.577" y1="914.329" x2="568.577" y2="586.085"/>
<line class="str" stroke="#888" stroke-width="0.914" x1="582.928" y1="891.367" x2="582.928" y2="588.371"/>
<line class="str" stroke="#888" stroke-width="0.914" x1="597.279" y1="868.406" x2="597.279" y2="590.657"/>
<line class="str" stroke="#1060d0" stroke-width="0.914" x1="611.63" y1="845.444" x2="611.63" y2="582.834"/>
<line class="str" stroke="#888" stroke-width="0.813" x1="625.981" y1="822.482" x2="625.981" y2="585.12"/>
<line class="str" stroke="#888" stroke-width="0.813" x1="639.316" y1="801.147" x2="639.316" y2="578.947"/>
<line class="str" stroke="#888" stroke-width="0.813" x1="652.626" y1="779.811" x2="652.626" y2="572.775"/>
<line class="str" stroke="#c00000" stroke-width="0.813" x1="665.961" y1="758.5" x2="665.961" y2="566.603"/>
<line class="str" stroke="#888" stroke-width="0.762" x1="679.296" y1="737.164" x2="679.296" y2="560.431"/>
<line class="str" stroke="#888" stroke-width="0.762" x1="692.606" y1="715.853" x2="692.606" y2="554.259"/>
<line class="str" stroke="#1060d0" stroke-width="0.762" x1="705.941" y1="694.517" x2="705.941" y2="548.086"/>
<line class="str" stroke="#888" stroke-width="0.711" x1="719.25" y1="673.181" x2="719.25" y2="541.889"/>
<line class="str" stroke="#888" stroke-width="0.711" x1="732.585" y1="651.871" x2="732.585" y2="530.687"/>
<line class="str" stroke="#888" stroke-width="0.66" x1="745.92" y1="630.535" x2="745.92" y2="519.435"/>
<line class="str" stroke="#c00000" stroke-width="0.635" x1="759.23" y1="609.224" x2="759.23" y2="508.234"/>
<line class="str" stroke="#888" stroke-width="0.635" x1="772.565" y1="587.888" x2="772.565" y2="496.982"/>
<line class="str" stroke="#888" stroke-width="0.635" x1="785.874" y1="566.578" x2="785.874" y2="485.78"/>
<line class="str" stroke="#1060d0" stroke-width="0.635" x1="799.209" y1="545.242" x2="799.209" y2="474.553"/>
<line class="str" stroke="#888" stroke-width="0.635" x1="812.544" y1="523.931" x2="812.544" y2="463.327"/>
<line class="key" x1="101.7" y1="146.563" x2="112.8" y2="108.463"/>
<line class="key" x1="119.632" y1="143.109" x2="130.732" y2="105.00900000000001"/>
<line class="key" x1="137.565" y1="139.654" x2="148.665" y2="101.554"/>
<line class="key" x1="155.523" y1="136.2" x2="166.623" y2="98.1"/>
<line class="key" x1="173.455" y1="137.775" x2="182.555" y2="99.67500000000001"/>
<line class="key" x1="191.387" y1="139.375" x2="200.487" y2="101.275"/>
<line class="key" x1="209.32" y1="140.975" x2="218.42" y2="102.875"/>
<line class="key" x1="227.252" y1="142.575" x2="236.352" y2="104.475"/>
<line class="key" x1="245.21" y1="149.23" x2="254.31" y2="111.13"/>
<line class="key" x1="263.142" y1="160.914" x2="272.242" y2="122.814"/>
<line class="key" x1="281.075" y1="152.38" x2="290.175" y2="114.28"/>
<line class="key" x1="299.007" y1="159.035" x2="308.107" y2="120.935"/>
<line class="key" x1="316.432" y1="206.888" x2="325.53200000000004" y2="168.788"/>
<line class="key" x1="333.856" y1="234.574" x2="342.956" y2="196.47400000000002"/>
<line class="key" x1="351.28" y1="272.319" x2="360.38" y2="234.21900000000002"/>
<line class="key" x1="368.705" y1="310.088" x2="377.805" y2="271.988"/>
<line class="key" x1="385.113" y1="344.455" x2="394.213" y2="306.35499999999996"/>
<line class="key" x1="401.522" y1="388.879" x2="410.622" y2="350.779"/>
<line class="key" x1="417.905" y1="423.245" x2="427.005" y2="385.145"/>
<line class="key" x1="433.297" y1="464.266" x2="442.39700000000005" y2="426.166"/>
<line class="key" x1="448.664" y1="485.12" x2="457.764" y2="447.02"/>
<line class="key" x1="464.031" y1="511.028" x2="473.13100000000003" y2="472.928"/>
<line class="key" x1="479.423" y1="531.856" x2="488.523" y2="493.756"/>
<line class="key" x1="494.79" y1="547.629" x2="503.89000000000004" y2="509.529"/>
<line class="key" x1="510.157" y1="558.399" x2="519.257" y2="520.299"/>
<line class="key" x1="525.524" y1="569.143" x2="534.624" y2="531.043"/>
<line class="key" x1="539.875" y1="576.484" x2="548.975" y2="538.384"/>
<line class="key" x1="554.226" y1="583.799" x2="563.326" y2="545.699"/>
<line class="key" x1="568.577" y1="586.085" x2="577.677" y2="547.985"/>
<line class="key" x1="582.928" y1="588.371" x2="592.028" y2="550.271"/>
<line class="key" x1="597.279" y1="590.657" x2="606.379" y2="552.557"/>
<line class="key" x1="611.63" y1="582.834" x2="620.73" y2="544.7339999999999"/>
<line class="key" x1="625.981" y1="585.12" x2="635.081" y2="547.02"/>
<line class="key" x1="639.316" y1="578.947" x2="648.416" y2="540.847"/>
<line class="key" x1="652.626" y1="572.775" x2="661.726" y2="534.675"/>
<line class="key" x1="665.961" y1="566.603" x2="675.061" y2="528.5029999999999"/>
<line class="key" x1="679.296" y1="560.431" x2="688.3960000000001" y2="522.331"/>
<line class="key" x1="692.606" y1="554.259" x2="701.706" y2="516.159"/>
<line class="key" x1="705.941" y1="548.086" x2="715.041" y2="509.986"/>
<line class="key" x1="719.25" y1="541.889" x2="728.35" y2="503.789"/>
<line class="key" x1="732.585" y1="530.687" x2="741.6850000000001" y2="492.587"/>
<line class="key" x1="745.92" y1="519.435" x2="755.02" y2="481.3349999999999"/>
<line class="key" x1="759.23" y1="508.234" x2="768.33" y2="470.13399999999996"/>
<line class="key" x1="772.565" y1="496.982" x2="781.6650000000001" y2="458.882"/>
<line class="key" x1="785.874" y1="485.78" x2="794.974" y2="447.67999999999995"/>
<line class="key" x1="799.209" y1="474.553" x2="808.309" y2="436.453"/>
<line class="key" x1="812.544" y1="463.327" x2="821.644" y2="425.227"/>
<circle cx="112.8" cy="108.463" r="12.0" fill="none" stroke="#888" stroke-width="0.4"/>
<text x="112.800" y="103.463" text-anchor="middle" font-family="sans-serif" font-size="5" fill="#000">C1</text>
<circle class="p" cx="112.8" cy="108.463" r="2.6416"/>
<circle class="f" cx="101.7" cy="146.563" r="2.6416"/>
<circle cx="130.732" cy="105.00900000000001" r="12.0" fill="none" stroke="#888" stroke-width="0.4"/>
<text x="130.732" y="100.009" text-anchor="middle" font-family="sans-serif" font-size="5" fill="#000">D1</text>
<circle class="p" cx="130.732" cy="105.00900000000001" r="2.6416"/>
<circle class="f" cx="119.632" cy="143.109" r="2.6416"/>
<circle cx="148.665" cy="101.554" r="12.0" fill="none" stroke="#888" stroke-width="0.4"/>
<text x="148.665" y="96.554" text-anchor="middle" font-family="sans-serif" font-size="5" fill="#000">E1</text>
<circle class="p" cx="148.665" cy="101.554" r="2.6416"/>
<circle class="f" cx="137.565" cy="139.654" r="2.6416"/>
<circle cx="166.623" cy="98.1" r="12.0" fill="none" stroke="#888" stroke-width="0.4"/>
<text x="166.623" y="93.100" text-anchor="middle" font-family="sans-serif" font-size="5" fill="#000">F1</text>
<circle class="p" cx="166.623" cy="98.1" r="2.6416"/>
<circle class="f" cx="155.523" cy="136.2" r="2.6416"/>
<circle cx="182.555" cy="99.67500000000001" r="12.0" fill="none" stroke="#888" stroke-width="0.4"/>
<text x="182.555" y="94.675" text-anchor="middle" font-family="sans-serif" font-size="5" fill="#000">G1</text>
<circle class="p" cx="182.555" cy="99.67500000000001" r="2.6416"/>
<circle class="f" cx="173.455" cy="137.775" r="2.6416"/>
<circle cx="200.487" cy="101.275" r="12.0" fill="none" stroke="#888" stroke-width="0.4"/>
<text x="200.487" y="96.275" text-anchor="middle" font-family="sans-serif" font-size="5" fill="#000">A1</text>
<circle class="p" cx="200.487" cy="101.275" r="2.6416"/>
<circle class="f" cx="191.387" cy="139.375" r="2.6416"/>
<circle cx="218.42" cy="102.875" r="12.0" fill="none" stroke="#888" stroke-width="0.4"/>
<text x="218.420" y="97.875" text-anchor="middle" font-family="sans-serif" font-size="5" fill="#000">B1</text>
<circle class="p" cx="218.42" cy="102.875" r="2.6416"/>
<circle class="f" cx="209.32" cy="140.975" r="2.6416"/>
<circle cx="236.352" cy="104.475" r="12.0" fill="none" stroke="#888" stroke-width="0.4"/>
<text x="236.352" y="99.475" text-anchor="middle" font-family="sans-serif" font-size="5" fill="#000">C2</text>
<circle class="p" cx="236.352" cy="104.475" r="2.6416"/>
<circle class="f" cx="227.252" cy="142.575" r="2.6416"/>
<circle cx="254.31" cy="111.13" r="12.0" fill="none" stroke="#888" stroke-width="0.4"/>
<text x="254.310" y="106.130" text-anchor="middle" font-family="sans-serif" font-size="5" fill="#000">D2</text>
<circle class="p" cx="254.31" cy="111.13" r="2.6416"/>
<circle class="f" cx="245.21" cy="149.23" r="2.6416"/>
<circle cx="272.242" cy="122.814" r="12.0" fill="none" stroke="#888" stroke-width="0.4"/>
<text x="272.242" y="117.814" text-anchor="middle" font-family="sans-serif" font-size="5" fill="#000">E2</text>
<circle class="p" cx="272.242" cy="122.814" r="2.6416"/>
<circle class="f" cx="263.142" cy="160.914" r="2.6416"/>
<circle cx="290.175" cy="114.28" r="12.0" fill="none" stroke="#888" stroke-width="0.4"/>
<text x="290.175" y="109.280" text-anchor="middle" font-family="sans-serif" font-size="5" fill="#000">F2</text>
<circle class="p" cx="290.175" cy="114.28" r="2.6416"/>
<circle class="f" cx="281.075" cy="152.38" r="2.6416"/>
<circle cx="308.107" cy="120.935" r="12.0" fill="none" stroke="#888" stroke-width="0.4"/>
<text x="308.107" y="115.935" text-anchor="middle" font-family="sans-serif" font-size="5" fill="#000">G2</text>
<circle class="p" cx="308.107" cy="120.935" r="2.6416"/>
<circle class="f" cx="299.007" cy="159.035" r="2.6416"/>
<circle cx="325.53200000000004" cy="168.788" r="12.0" fill="none" stroke="#888" stroke-width="0.4"/>
<text x="325.532" y="163.788" text-anchor="middle" font-family="sans-serif" font-size="5" fill="#000">A2</text>
<circle class="p" cx="325.53200000000004" cy="168.788" r="2.6416"/>
<circle class="f" cx="316.432" cy="206.888" r="2.6416"/>
<circle cx="342.956" cy="196.47400000000002" r="12.0" fill="none" stroke="#888" stroke-width="0.4"/>
<text x="342.956" y="191.474" text-anchor="middle" font-family="sans-serif" font-size="5" fill="#000">B2</text>
<circle class="p" cx="342.956" cy="196.47400000000002" r="2.6416"/>
<circle class="f" cx="333.856" cy="234.574" r="2.6416"/>
<circle cx="360.38" cy="234.21900000000002" r="12.0" fill="none" stroke="#888" stroke-width="0.4"/>
<text x="360.380" y="229.219" text-anchor="middle" font-family="sans-serif" font-size="5" fill="#000">C3</text>
<circle class="p" cx="360.38" cy="234.21900000000002" r="2.6416"/>
<circle class="f" cx="351.28" cy="272.319" r="2.6416"/>
<circle cx="377.805" cy="271.988" r="12.0" fill="none" stroke="#888" stroke-width="0.4"/>
<text x="377.805" y="266.988" text-anchor="middle" font-family="sans-serif" font-size="5" fill="#000">D3</text>
<circle class="p" cx="377.805" cy="271.988" r="2.6416"/>
<circle class="f" cx="368.705" cy="310.088" r="2.6416"/>
<circle cx="394.213" cy="306.35499999999996" r="12.0" fill="none" stroke="#888" stroke-width="0.4"/>
<text x="394.213" y="301.355" text-anchor="middle" font-family="sans-serif" font-size="5" fill="#000">E3</text>
<circle class="p" cx="394.213" cy="306.35499999999996" r="2.6416"/>
<circle class="f" cx="385.113" cy="344.455" r="2.6416"/>
<circle cx="410.622" cy="350.779" r="12.0" fill="none" stroke="#888" stroke-width="0.4"/>
<text x="410.622" y="345.779" text-anchor="middle" font-family="sans-serif" font-size="5" fill="#000">F3</text>
<circle class="p" cx="410.622" cy="350.779" r="2.6416"/>
<circle class="f" cx="401.522" cy="388.879" r="2.6416"/>
<circle cx="427.005" cy="385.145" r="12.0" fill="none" stroke="#888" stroke-width="0.4"/>
<text x="427.005" y="380.145" text-anchor="middle" font-family="sans-serif" font-size="5" fill="#000">G3</text>
<circle class="p" cx="427.005" cy="385.145" r="2.6416"/>
<circle class="f" cx="417.905" cy="423.245" r="2.6416"/>
<circle cx="442.39700000000005" cy="426.166" r="12.0" fill="none" stroke="#888" stroke-width="0.4"/>
<text x="442.397" y="421.166" text-anchor="middle" font-family="sans-serif" font-size="5" fill="#000">A3</text>
<circle class="p" cx="442.39700000000005" cy="426.166" r="2.6416"/>
<circle class="f" cx="433.297" cy="464.266" r="2.6416"/>
<circle cx="457.764" cy="447.02" r="12.0" fill="none" stroke="#888" stroke-width="0.4"/>
<text x="457.764" y="442.020" text-anchor="middle" font-family="sans-serif" font-size="5" fill="#000">B3</text>
<circle class="p" cx="457.764" cy="447.02" r="2.6416"/>
<circle class="f" cx="448.664" cy="485.12" r="2.6416"/>
<circle cx="473.13100000000003" cy="472.928" r="12.0" fill="none" stroke="#888" stroke-width="0.4"/>
<text x="473.131" y="467.928" text-anchor="middle" font-family="sans-serif" font-size="5" fill="#000">C4</text>
<circle class="p" cx="473.13100000000003" cy="472.928" r="2.6416"/>
<circle class="f" cx="464.031" cy="511.028" r="2.6416"/>
<circle cx="488.523" cy="493.756" r="12.0" fill="none" stroke="#888" stroke-width="0.4"/>
<text x="488.523" y="488.756" text-anchor="middle" font-family="sans-serif" font-size="5" fill="#000">D4</text>
<circle class="p" cx="488.523" cy="493.756" r="2.6416"/>
<circle class="f" cx="479.423" cy="531.856" r="2.6416"/>
<circle cx="503.89000000000004" cy="509.529" r="12.0" fill="none" stroke="#888" stroke-width="0.4"/>
<text x="503.890" y="504.529" text-anchor="middle" font-family="sans-serif" font-size="5" fill="#000">E4</text>
<circle class="p" cx="503.89000000000004" cy="509.529" r="2.6416"/>
<circle class="f" cx="494.79" cy="547.629" r="2.6416"/>
<circle cx="519.257" cy="520.299" r="12.0" fill="none" stroke="#888" stroke-width="0.4"/>
<text x="519.257" y="515.299" text-anchor="middle" font-family="sans-serif" font-size="5" fill="#000">F4</text>
<circle class="p" cx="519.257" cy="520.299" r="2.6416"/>
<circle class="f" cx="510.157" cy="558.399" r="2.6416"/>
<circle cx="534.624" cy="531.043" r="12.0" fill="none" stroke="#888" stroke-width="0.4"/>
<text x="534.624" y="526.043" text-anchor="middle" font-family="sans-serif" font-size="5" fill="#000">G4</text>
<circle class="p" cx="534.624" cy="531.043" r="2.6416"/>
<circle class="f" cx="525.524" cy="569.143" r="2.6416"/>
<circle cx="548.975" cy="538.384" r="12.0" fill="none" stroke="#888" stroke-width="0.4"/>
<text x="548.975" y="533.384" text-anchor="middle" font-family="sans-serif" font-size="5" fill="#000">A4</text>
<circle class="p" cx="548.975" cy="538.384" r="2.6416"/>
<circle class="f" cx="539.875" cy="576.484" r="2.6416"/>
<circle cx="563.326" cy="545.699" r="12.0" fill="none" stroke="#888" stroke-width="0.4"/>
<text x="563.326" y="540.699" text-anchor="middle" font-family="sans-serif" font-size="5" fill="#000">B4</text>
<circle class="p" cx="563.326" cy="545.699" r="2.6416"/>
<circle class="f" cx="554.226" cy="583.799" r="2.6416"/>
<circle cx="577.677" cy="547.985" r="12.0" fill="none" stroke="#888" stroke-width="0.4"/>
<text x="577.677" y="542.985" text-anchor="middle" font-family="sans-serif" font-size="5" fill="#000">C5</text>
<circle class="p" cx="577.677" cy="547.985" r="2.6416"/>
<circle class="f" cx="568.577" cy="586.085" r="2.6416"/>
<circle cx="592.028" cy="550.271" r="12.0" fill="none" stroke="#888" stroke-width="0.4"/>
<text x="592.028" y="545.271" text-anchor="middle" font-family="sans-serif" font-size="5" fill="#000">D5</text>
<circle class="p" cx="592.028" cy="550.271" r="2.6416"/>
<circle class="f" cx="582.928" cy="588.371" r="2.6416"/>
<circle cx="606.379" cy="552.557" r="12.0" fill="none" stroke="#888" stroke-width="0.4"/>
<text x="606.379" y="547.557" text-anchor="middle" font-family="sans-serif" font-size="5" fill="#000">E5</text>
<circle class="p" cx="606.379" cy="552.557" r="2.6416"/>
<circle class="f" cx="597.279" cy="590.657" r="2.6416"/>
<circle cx="620.73" cy="544.7339999999999" r="12.0" fill="none" stroke="#888" stroke-width="0.4"/>
<text x="620.730" y="539.734" text-anchor="middle" font-family="sans-serif" font-size="5" fill="#000">F5</text>
<circle class="p" cx="620.73" cy="544.7339999999999" r="2.6416"/>
<circle class="f" cx="611.63" cy="582.834" r="2.6416"/>
<circle cx="635.081" cy="547.02" r="12.0" fill="none" stroke="#888" stroke-width="0.4"/>
<text x="635.081" y="542.020" text-anchor="middle" font-family="sans-serif" font-size="5" fill="#000">G5</text>
<circle class="p" cx="635.081" cy="547.02" r="2.6416"/>
<circle class="f" cx="625.981" cy="585.12" r="2.6416"/>
<circle cx="648.416" cy="540.847" r="12.0" fill="none" stroke="#888" stroke-width="0.4"/>
<text x="648.416" y="535.847" text-anchor="middle" font-family="sans-serif" font-size="5" fill="#000">A5</text>
<circle class="p" cx="648.416" cy="540.847" r="2.6416"/>
<circle class="f" cx="639.316" cy="578.947" r="2.6416"/>
<circle cx="661.726" cy="534.675" r="12.0" fill="none" stroke="#888" stroke-width="0.4"/>
<text x="661.726" y="529.675" text-anchor="middle" font-family="sans-serif" font-size="5" fill="#000">B5</text>
<circle class="p" cx="661.726" cy="534.675" r="2.6416"/>
<circle class="f" cx="652.626" cy="572.775" r="2.6416"/>
<circle cx="675.061" cy="528.5029999999999" r="12.0" fill="none" stroke="#888" stroke-width="0.4"/>
<text x="675.061" y="523.503" text-anchor="middle" font-family="sans-serif" font-size="5" fill="#000">C6</text>
<circle class="p" cx="675.061" cy="528.5029999999999" r="2.6416"/>
<circle class="f" cx="665.961" cy="566.603" r="2.6416"/>
<circle cx="688.3960000000001" cy="522.331" r="12.0" fill="none" stroke="#888" stroke-width="0.4"/>
<text x="688.396" y="517.331" text-anchor="middle" font-family="sans-serif" font-size="5" fill="#000">D6</text>
<circle class="p" cx="688.3960000000001" cy="522.331" r="2.6416"/>
<circle class="f" cx="679.296" cy="560.431" r="2.6416"/>
<circle cx="701.706" cy="516.159" r="12.0" fill="none" stroke="#888" stroke-width="0.4"/>
<text x="701.706" y="511.159" text-anchor="middle" font-family="sans-serif" font-size="5" fill="#000">E6</text>
<circle class="p" cx="701.706" cy="516.159" r="2.6416"/>
<circle class="f" cx="692.606" cy="554.259" r="2.6416"/>
<circle cx="715.041" cy="509.986" r="12.0" fill="none" stroke="#888" stroke-width="0.4"/>
<text x="715.041" y="504.986" text-anchor="middle" font-family="sans-serif" font-size="5" fill="#000">F6</text>
<circle class="p" cx="715.041" cy="509.986" r="2.6416"/>
<circle class="f" cx="705.941" cy="548.086" r="2.6416"/>
<circle cx="728.35" cy="503.789" r="12.0" fill="none" stroke="#888" stroke-width="0.4"/>
<text x="728.350" y="498.789" text-anchor="middle" font-family="sans-serif" font-size="5" fill="#000">G6</text>
<circle class="p" cx="728.35" cy="503.789" r="2.6416"/>
<circle class="f" cx="719.25" cy="541.889" r="2.6416"/>
<circle cx="741.6850000000001" cy="492.587" r="12.0" fill="none" stroke="#888" stroke-width="0.4"/>
<text x="741.685" y="487.587" text-anchor="middle" font-family="sans-serif" font-size="5" fill="#000">A6</text>
<circle class="p" cx="741.6850000000001" cy="492.587" r="2.6416"/>
<circle class="f" cx="732.585" cy="530.687" r="2.6416"/>
<circle cx="755.02" cy="481.3349999999999" r="12.0" fill="none" stroke="#888" stroke-width="0.4"/>
<text x="755.020" y="476.335" text-anchor="middle" font-family="sans-serif" font-size="5" fill="#000">B6</text>
<circle class="p" cx="755.02" cy="481.3349999999999" r="2.6416"/>
<circle class="f" cx="745.92" cy="519.435" r="2.6416"/>
<circle cx="768.33" cy="470.13399999999996" r="12.0" fill="none" stroke="#888" stroke-width="0.4"/>
<text x="768.330" y="465.134" text-anchor="middle" font-family="sans-serif" font-size="5" fill="#000">C7</text>
<circle class="p" cx="768.33" cy="470.13399999999996" r="2.6416"/>
<circle class="f" cx="759.23" cy="508.234" r="2.6416"/>
<circle cx="781.6650000000001" cy="458.882" r="12.0" fill="none" stroke="#888" stroke-width="0.4"/>
<text x="781.665" y="453.882" text-anchor="middle" font-family="sans-serif" font-size="5" fill="#000">D7</text>
<circle class="p" cx="781.6650000000001" cy="458.882" r="2.6416"/>
<circle class="f" cx="772.565" cy="496.982" r="2.6416"/>
<circle cx="794.974" cy="447.67999999999995" r="12.0" fill="none" stroke="#888" stroke-width="0.4"/>
<text x="794.974" y="442.680" text-anchor="middle" font-family="sans-serif" font-size="5" fill="#000">E7</text>
<circle class="p" cx="794.974" cy="447.67999999999995" r="2.6416"/>
<circle class="f" cx="785.874" cy="485.78" r="2.6416"/>
<circle cx="808.309" cy="436.453" r="12.0" fill="none" stroke="#888" stroke-width="0.4"/>
<text x="808.309" y="431.453" text-anchor="middle" font-family="sans-serif" font-size="5" fill="#000">F7</text>
<circle class="p" cx="808.309" cy="436.453" r="2.6416"/>
<circle class="f" cx="799.209" cy="474.553" r="2.6416"/>
<circle cx="821.644" cy="425.227" r="12.0" fill="none" stroke="#888" stroke-width="0.4"/>
<text x="821.644" y="420.227" text-anchor="middle" font-family="sans-serif" font-size="5" fill="#000">G7</text>
<circle class="p" cx="821.644" cy="425.227" r="2.6416"/>
<circle class="f" cx="812.544" cy="463.327" r="2.6416"/>
<circle cx="101.700" cy="231.590" r="12.0" fill="none" stroke="#3366cc" stroke-width="0.4"/>
<circle class="n" cx="101.700" cy="231.590" r="2.6416"/>
<circle cx="101.700" cy="311.844" r="12.0" fill="none" stroke="#c00000" stroke-width="0.4"/>
<text x="101.700" y="306.844" text-anchor="middle" font-family="sans-serif" font-size="5" fill="#000">C1</text>
<circle class="s" cx="101.700" cy="311.844" r="2.6416"/>
<circle class="g" cx="101.7" cy="1661.495" r="2.6416"/>
<circle cx="119.632" cy="226.719" r="12.0" fill="none" stroke="#3366cc" stroke-width="0.4"/>
<circle class="n" cx="119.632" cy="226.719" r="2.6416"/>
<circle cx="119.632" cy="305.635" r="12.0" fill="none" stroke="#c00000" stroke-width="0.4"/>
<text x="119.632" y="300.635" text-anchor="middle" font-family="sans-serif" font-size="5" fill="#000">D1</text>
<circle class="s" cx="119.632" cy="305.635" r="2.6416"/>
<circle class="g" cx="119.632" cy="1632.793" r="2.6416"/>
<circle cx="137.565" cy="221.847" r="12.0" fill="none" stroke="#3366cc" stroke-width="0.4"/>
<circle class="n" cx="137.565" cy="221.847" r="2.6416"/>
<circle cx="137.565" cy="299.426" r="12.0" fill="none" stroke="#c00000" stroke-width="0.4"/>
<text x="137.565" y="294.426" text-anchor="middle" font-family="sans-serif" font-size="5" fill="#000">E1</text>
<circle class="s" cx="137.565" cy="299.426" r="2.6416"/>
<circle class="g" cx="137.565" cy="1604.091" r="2.6416"/>
<circle cx="155.523" cy="216.975" r="12.0" fill="none" stroke="#3366cc" stroke-width="0.4"/>
<circle class="n" cx="155.523" cy="216.975" r="2.6416"/>
<circle cx="155.523" cy="293.217" r="12.0" fill="none" stroke="#c00000" stroke-width="0.4"/>
<text x="155.523" y="288.217" text-anchor="middle" font-family="sans-serif" font-size="5" fill="#000">F1</text>
<circle class="s" cx="155.523" cy="293.217" r="2.6416"/>
<circle class="g" cx="155.523" cy="1575.389" r="2.6416"/>
<circle cx="173.455" cy="216.850" r="12.0" fill="none" stroke="#3366cc" stroke-width="0.4"/>
<circle class="n" cx="173.455" cy="216.850" r="2.6416"/>
<circle cx="173.455" cy="291.486" r="12.0" fill="none" stroke="#c00000" stroke-width="0.4"/>
<text x="173.455" y="286.486" text-anchor="middle" font-family="sans-serif" font-size="5" fill="#000">G1</text>
<circle class="s" cx="173.455" cy="291.486" r="2.6416"/>
<circle class="g" cx="173.455" cy="1546.662" r="2.6416"/>
<circle cx="191.387" cy="216.749" r="12.0" fill="none" stroke="#3366cc" stroke-width="0.4"/>
<circle class="n" cx="191.387" cy="216.749" r="2.6416"/>
<circle cx="191.387" cy="289.780" r="12.0" fill="none" stroke="#c00000" stroke-width="0.4"/>
<text x="191.387" y="284.780" text-anchor="middle" font-family="sans-serif" font-size="5" fill="#000">A1</text>
<circle class="s" cx="191.387" cy="289.780" r="2.6416"/>
<circle class="g" cx="191.387" cy="1517.96" r="2.6416"/>
<circle cx="209.320" cy="216.648" r="12.0" fill="none" stroke="#3366cc" stroke-width="0.4"/>
<circle class="n" cx="209.320" cy="216.648" r="2.6416"/>
<circle cx="209.320" cy="288.074" r="12.0" fill="none" stroke="#c00000" stroke-width="0.4"/>
<text x="209.320" y="283.074" text-anchor="middle" font-family="sans-serif" font-size="5" fill="#000">B1</text>
<circle class="s" cx="209.320" cy="288.074" r="2.6416"/>
<circle class="g" cx="209.32" cy="1489.258" r="2.6416"/>
<circle cx="227.252" cy="216.548" r="12.0" fill="none" stroke="#3366cc" stroke-width="0.4"/>
<circle class="n" cx="227.252" cy="216.548" r="2.6416"/>
<circle cx="227.252" cy="286.368" r="12.0" fill="none" stroke="#c00000" stroke-width="0.4"/>
<text x="227.252" y="281.368" text-anchor="middle" font-family="sans-serif" font-size="5" fill="#000">C2</text>
<circle class="s" cx="227.252" cy="286.368" r="2.6416"/>
<circle class="g" cx="227.252" cy="1460.556" r="2.6416"/>
<circle cx="245.210" cy="221.218" r="12.0" fill="none" stroke="#3366cc" stroke-width="0.4"/>
<circle class="n" cx="245.210" cy="221.218" r="2.6416"/>
<circle cx="245.210" cy="289.166" r="12.0" fill="none" stroke="#c00000" stroke-width="0.4"/>
<text x="245.210" y="284.166" text-anchor="middle" font-family="sans-serif" font-size="5" fill="#000">D2</text>
<circle class="s" cx="245.210" cy="289.166" r="2.6416"/>
<circle class="g" cx="245.21" cy="1431.854" r="2.6416"/>
<circle cx="263.142" cy="230.635" r="12.0" fill="none" stroke="#3366cc" stroke-width="0.4"/>
<circle class="n" cx="263.142" cy="230.635" r="2.6416"/>
<circle cx="263.142" cy="296.444" r="12.0" fill="none" stroke="#c00000" stroke-width="0.4"/>
<text x="263.142" y="291.444" text-anchor="middle" font-family="sans-serif" font-size="5" fill="#000">E2</text>
<circle class="s" cx="263.142" cy="296.444" r="2.6416"/>
<circle class="g" cx="263.142" cy="1403.152" r="2.6416"/>
<circle cx="281.075" cy="220.968" r="12.0" fill="none" stroke="#3366cc" stroke-width="0.4"/>
<circle class="n" cx="281.075" cy="220.968" r="2.6416"/>
<circle cx="281.075" cy="285.707" r="12.0" fill="none" stroke="#c00000" stroke-width="0.4"/>
<text x="281.075" y="280.707" text-anchor="middle" font-family="sans-serif" font-size="5" fill="#000">F2</text>
<circle class="s" cx="281.075" cy="285.707" r="2.6416"/>
<circle class="g" cx="281.075" cy="1374.425" r="2.6416"/>
<circle cx="299.007" cy="225.639" r="12.0" fill="none" stroke="#3366cc" stroke-width="0.4"/>
<circle class="n" cx="299.007" cy="225.639" r="2.6416"/>
<circle cx="299.007" cy="288.504" r="12.0" fill="none" stroke="#c00000" stroke-width="0.4"/>
<text x="299.007" y="283.504" text-anchor="middle" font-family="sans-serif" font-size="5" fill="#000">G2</text>
<circle class="s" cx="299.007" cy="288.504" r="2.6416"/>
<circle class="g" cx="299.007" cy="1345.723" r="2.6416"/>
<circle cx="316.432" cy="269.241" r="12.0" fill="none" stroke="#3366cc" stroke-width="0.4"/>
<circle class="n" cx="316.432" cy="269.241" r="2.6416"/>
<circle cx="316.432" cy="328.094" r="12.0" fill="none" stroke="#c00000" stroke-width="0.4"/>
<text x="316.432" y="323.094" text-anchor="middle" font-family="sans-serif" font-size="5" fill="#000">A2</text>
<circle class="s" cx="316.432" cy="328.094" r="2.6416"/>
<circle class="g" cx="316.432" cy="1317.833" r="2.6416"/>
<circle cx="333.856" cy="293.809" r="12.0" fill="none" stroke="#3366cc" stroke-width="0.4"/>
<circle class="n" cx="333.856" cy="293.809" r="2.6416"/>
<circle cx="333.856" cy="349.719" r="12.0" fill="none" stroke="#c00000" stroke-width="0.4"/>
<text x="333.856" y="344.719" text-anchor="middle" font-family="sans-serif" font-size="5" fill="#000">B2</text>
<circle class="s" cx="333.856" cy="349.719" r="2.6416"/>
<circle class="g" cx="333.856" cy="1289.97" r="2.6416"/>
<circle cx="351.280" cy="327.870" r="12.0" fill="none" stroke="#3366cc" stroke-width="0.4"/>
<circle class="n" cx="351.280" cy="327.870" r="2.6416"/>
<circle cx="351.280" cy="380.303" r="12.0" fill="none" stroke="#c00000" stroke-width="0.4"/>
<text x="351.280" y="375.303" text-anchor="middle" font-family="sans-serif" font-size="5" fill="#000">C3</text>
<circle class="s" cx="351.280" cy="380.303" r="2.6416"/>
<circle class="g" cx="351.28" cy="1262.08" r="2.6416"/>
<circle cx="368.705" cy="361.954" r="12.0" fill="none" stroke="#3366cc" stroke-width="0.4"/>
<circle class="n" cx="368.705" cy="361.954" r="2.6416"/>
<circle cx="368.705" cy="410.909" r="12.0" fill="none" stroke="#c00000" stroke-width="0.4"/>
<text x="368.705" y="405.909" text-anchor="middle" font-family="sans-serif" font-size="5" fill="#000">D3</text>
<circle class="s" cx="368.705" cy="410.909" r="2.6416"/>
<circle class="g" cx="368.705" cy="1234.191" r="2.6416"/>
<circle cx="385.113" cy="392.919" r="12.0" fill="none" stroke="#3366cc" stroke-width="0.4"/>
<circle class="n" cx="385.113" cy="392.919" r="2.6416"/>
<circle cx="385.113" cy="438.664" r="12.0" fill="none" stroke="#c00000" stroke-width="0.4"/>
<text x="385.113" y="433.664" text-anchor="middle" font-family="sans-serif" font-size="5" fill="#000">E3</text>
<circle class="s" cx="385.113" cy="438.664" r="2.6416"/>
<circle class="g" cx="385.113" cy="1207.953" r="2.6416"/>
<circle cx="401.522" cy="433.376" r="12.0" fill="none" stroke="#3366cc" stroke-width="0.4"/>
<circle class="n" cx="401.522" cy="433.376" r="2.6416"/>
<circle cx="401.522" cy="475.376" r="12.0" fill="none" stroke="#c00000" stroke-width="0.4"/>
<text x="401.522" y="470.376" text-anchor="middle" font-family="sans-serif" font-size="5" fill="#000">F3</text>
<circle class="s" cx="401.522" cy="475.376" r="2.6416"/>
<circle class="g" cx="401.522" cy="1181.689" r="2.6416"/>
<circle cx="417.905" cy="464.341" r="12.0" fill="none" stroke="#3366cc" stroke-width="0.4"/>
<circle class="n" cx="417.905" cy="464.341" r="2.6416"/>
<circle cx="417.905" cy="503.130" r="12.0" fill="none" stroke="#c00000" stroke-width="0.4"/>
<text x="417.905" y="498.130" text-anchor="middle" font-family="sans-serif" font-size="5" fill="#000">G3</text>
<circle class="s" cx="417.905" cy="503.130" r="2.6416"/>
<circle class="g" cx="417.905" cy="1155.451" r="2.6416"/>
<circle cx="433.297" cy="501.678" r="12.0" fill="none" stroke="#3366cc" stroke-width="0.4"/>
<circle class="n" cx="433.297" cy="501.678" r="2.6416"/>
<circle cx="433.297" cy="536.990" r="12.0" fill="none" stroke="#c00000" stroke-width="0.4"/>
<text x="433.297" y="531.990" text-anchor="middle" font-family="sans-serif" font-size="5" fill="#000">A3</text>
<circle class="s" cx="433.297" cy="536.990" r="2.6416"/>
<circle class="g" cx="433.297" cy="1130.839" r="2.6416"/>
<circle cx="448.664" cy="519.981" r="12.0" fill="none" stroke="#3366cc" stroke-width="0.4"/>
<circle class="n" cx="448.664" cy="519.981" r="2.6416"/>
<circle cx="448.664" cy="552.886" r="12.0" fill="none" stroke="#c00000" stroke-width="0.4"/>
<text x="448.664" y="547.886" text-anchor="middle" font-family="sans-serif" font-size="5" fill="#000">B3</text>
<circle class="s" cx="448.664" cy="552.886" r="2.6416"/>
<circle class="g" cx="448.664" cy="1106.251" r="2.6416"/>
<circle cx="464.031" cy="543.054" r="12.0" fill="none" stroke="#3366cc" stroke-width="0.4"/>
<circle class="n" cx="464.031" cy="543.054" r="2.6416"/>
<circle cx="464.031" cy="573.282" r="12.0" fill="none" stroke="#c00000" stroke-width="0.4"/>
<text x="464.031" y="568.282" text-anchor="middle" font-family="sans-serif" font-size="5" fill="#000">C4</text>
<circle class="s" cx="464.031" cy="573.282" r="2.6416"/>
<circle class="g" cx="464.031" cy="1081.639" r="2.6416"/>
<circle cx="479.423" cy="561.332" r="12.0" fill="none" stroke="#3366cc" stroke-width="0.4"/>
<circle class="n" cx="479.423" cy="561.332" r="2.6416"/>
<circle cx="479.423" cy="589.153" r="12.0" fill="none" stroke="#c00000" stroke-width="0.4"/>
<text x="479.423" y="584.153" text-anchor="middle" font-family="sans-serif" font-size="5" fill="#000">D4</text>
<circle class="s" cx="479.423" cy="589.153" r="2.6416"/>
<circle class="g" cx="479.423" cy="1057.026" r="2.6416"/>
<circle cx="494.790" cy="574.838" r="12.0" fill="none" stroke="#3366cc" stroke-width="0.4"/>
<circle class="n" cx="494.790" cy="574.838" r="2.6416"/>
<circle cx="494.790" cy="600.520" r="12.0" fill="none" stroke="#c00000" stroke-width="0.4"/>
<text x="494.790" y="595.520" text-anchor="middle" font-family="sans-serif" font-size="5" fill="#000">E4</text>
<circle class="s" cx="494.790" cy="600.520" r="2.6416"/>
<circle class="g" cx="494.79" cy="1032.414" r="2.6416"/>
<circle cx="510.157" cy="583.623" r="12.0" fill="none" stroke="#3366cc" stroke-width="0.4"/>
<circle class="n" cx="510.157" cy="583.623" r="2.6416"/>
<circle cx="510.157" cy="607.432" r="12.0" fill="none" stroke="#c00000" stroke-width="0.4"/>
<text x="510.157" y="602.432" text-anchor="middle" font-family="sans-serif" font-size="5" fill="#000">F4</text>
<circle class="s" cx="510.157" cy="607.432" r="2.6416"/>
<circle class="g" cx="510.157" cy="1007.826" r="2.6416"/>
<circle cx="525.524" cy="592.383" r="12.0" fill="none" stroke="#3366cc" stroke-width="0.4"/>
<circle class="n" cx="525.524" cy="592.383" r="2.6416"/>
<circle cx="525.524" cy="614.319" r="12.0" fill="none" stroke="#c00000" stroke-width="0.4"/>
<text x="525.524" y="609.319" text-anchor="middle" font-family="sans-serif" font-size="5" fill="#000">G4</text>
<circle class="s" cx="525.524" cy="614.319" r="2.6416"/>
<circle class="g" cx="525.524" cy="983.214" r="2.6416"/>
<circle cx="539.875" cy="598.023" r="12.0" fill="none" stroke="#3366cc" stroke-width="0.4"/>
<circle class="n" cx="539.875" cy="598.023" r="2.6416"/>
<circle cx="539.875" cy="618.354" r="12.0" fill="none" stroke="#c00000" stroke-width="0.4"/>
<text x="539.875" y="613.354" text-anchor="middle" font-family="sans-serif" font-size="5" fill="#000">A4</text>
<circle class="s" cx="539.875" cy="618.354" r="2.6416"/>
<circle class="g" cx="539.875" cy="960.252" r="2.6416"/>
<circle cx="554.226" cy="603.639" r="12.0" fill="none" stroke="#3366cc" stroke-width="0.4"/>
<circle class="n" cx="554.226" cy="603.639" r="2.6416"/>
<circle cx="554.226" cy="622.365" r="12.0" fill="none" stroke="#c00000" stroke-width="0.4"/>
<text x="554.226" y="617.365" text-anchor="middle" font-family="sans-serif" font-size="5" fill="#000">B4</text>
<circle class="s" cx="554.226" cy="622.365" r="2.6416"/>
<circle class="g" cx="554.226" cy="937.291" r="2.6416"/>
<circle cx="568.577" cy="604.508" r="12.0" fill="none" stroke="#3366cc" stroke-width="0.4"/>
<circle class="n" cx="568.577" cy="604.508" r="2.6416"/>
<circle cx="568.577" cy="621.897" r="12.0" fill="none" stroke="#c00000" stroke-width="0.4"/>
<text x="568.577" y="616.897" text-anchor="middle" font-family="sans-serif" font-size="5" fill="#000">C5</text>
<circle class="s" cx="568.577" cy="621.897" r="2.6416"/>
<circle class="g" cx="568.577" cy="914.329" r="2.6416"/>
<circle cx="582.928" cy="605.377" r="12.0" fill="none" stroke="#3366cc" stroke-width="0.4"/>
<circle class="n" cx="582.928" cy="605.377" r="2.6416"/>
<circle cx="582.928" cy="621.428" r="12.0" fill="none" stroke="#c00000" stroke-width="0.4"/>
<text x="582.928" y="616.428" text-anchor="middle" font-family="sans-serif" font-size="5" fill="#000">D5</text>
<circle class="s" cx="582.928" cy="621.428" r="2.6416"/>
<circle class="g" cx="582.928" cy="891.367" r="2.6416"/>
<circle cx="597.279" cy="606.246" r="12.0" fill="none" stroke="#3366cc" stroke-width="0.4"/>
<circle class="n" cx="597.279" cy="606.246" r="2.6416"/>
<circle cx="597.279" cy="620.960" r="12.0" fill="none" stroke="#c00000" stroke-width="0.4"/>
<text x="597.279" y="615.960" text-anchor="middle" font-family="sans-serif" font-size="5" fill="#000">E5</text>
<circle class="s" cx="597.279" cy="620.960" r="2.6416"/>
<circle class="g" cx="597.279" cy="868.406" r="2.6416"/>
<circle cx="611.630" cy="597.573" r="12.0" fill="none" stroke="#3366cc" stroke-width="0.4"/>
<circle class="n" cx="611.630" cy="597.573" r="2.6416"/>
<circle cx="611.630" cy="611.485" r="12.0" fill="none" stroke="#c00000" stroke-width="0.4"/>
<text x="611.630" y="606.485" text-anchor="middle" font-family="sans-serif" font-size="5" fill="#000">F5</text>
<circle class="s" cx="611.630" cy="611.485" r="2.6416"/>
<circle class="g" cx="611.63" cy="845.444" r="2.6416"/>
<circle cx="625.981" cy="598.442" r="12.0" fill="none" stroke="#3366cc" stroke-width="0.4"/>
<circle class="n" cx="625.981" cy="598.442" r="2.6416"/>
<circle cx="625.981" cy="611.016" r="12.0" fill="none" stroke="#c00000" stroke-width="0.4"/>
<text x="625.981" y="606.016" text-anchor="middle" font-family="sans-serif" font-size="5" fill="#000">G5</text>
<circle class="s" cx="625.981" cy="611.016" r="2.6416"/>
<circle class="g" cx="625.981" cy="822.482" r="2.6416"/>
<circle cx="639.316" cy="591.418" r="12.0" fill="none" stroke="#3366cc" stroke-width="0.4"/>
<circle class="n" cx="639.316" cy="591.418" r="2.6416"/>
<circle cx="639.316" cy="603.189" r="12.0" fill="none" stroke="#c00000" stroke-width="0.4"/>
<text x="639.316" y="598.189" text-anchor="middle" font-family="sans-serif" font-size="5" fill="#000">A5</text>
<circle class="s" cx="639.316" cy="603.189" r="2.6416"/>
<circle class="g" cx="639.316" cy="801.147" r="2.6416"/>
<circle cx="652.626" cy="584.395" r="12.0" fill="none" stroke="#3366cc" stroke-width="0.4"/>
<circle class="n" cx="652.626" cy="584.395" r="2.6416"/>
<circle cx="652.626" cy="595.363" r="12.0" fill="none" stroke="#c00000" stroke-width="0.4"/>
<text x="652.626" y="590.363" text-anchor="middle" font-family="sans-serif" font-size="5" fill="#000">B5</text>
<circle class="s" cx="652.626" cy="595.363" r="2.6416"/>
<circle class="g" cx="652.626" cy="779.811" r="2.6416"/>
<circle cx="665.961" cy="577.373" r="12.0" fill="none" stroke="#3366cc" stroke-width="0.4"/>
<circle class="n" cx="665.961" cy="577.373" r="2.6416"/>
<circle cx="665.961" cy="587.539" r="12.0" fill="none" stroke="#c00000" stroke-width="0.4"/>
<text x="665.961" y="582.539" text-anchor="middle" font-family="sans-serif" font-size="5" fill="#000">C6</text>
<circle class="s" cx="665.961" cy="587.539" r="2.6416"/>
<circle class="g" cx="665.961" cy="758.5" r="2.6416"/>
<circle cx="679.296" cy="570.350" r="12.0" fill="none" stroke="#3366cc" stroke-width="0.4"/>
<circle class="n" cx="679.296" cy="570.350" r="2.6416"/>
<circle cx="679.296" cy="579.713" r="12.0" fill="none" stroke="#c00000" stroke-width="0.4"/>
<text x="679.296" y="574.713" text-anchor="middle" font-family="sans-serif" font-size="5" fill="#000">D6</text>
<circle class="s" cx="679.296" cy="579.713" r="2.6416"/>
<circle class="g" cx="679.296" cy="737.164" r="2.6416"/>
<circle cx="692.606" cy="563.329" r="12.0" fill="none" stroke="#3366cc" stroke-width="0.4"/>
<circle class="n" cx="692.606" cy="563.329" r="2.6416"/>
<circle cx="692.606" cy="571.889" r="12.0" fill="none" stroke="#c00000" stroke-width="0.4"/>
<text x="692.606" y="566.889" text-anchor="middle" font-family="sans-serif" font-size="5" fill="#000">E6</text>
<circle class="s" cx="692.606" cy="571.889" r="2.6416"/>
<circle class="g" cx="692.606" cy="715.853" r="2.6416"/>
<circle cx="705.941" cy="556.305" r="12.0" fill="none" stroke="#3366cc" stroke-width="0.4"/>
<circle class="n" cx="705.941" cy="556.305" r="2.6416"/>
<circle cx="705.941" cy="564.062" r="12.0" fill="none" stroke="#c00000" stroke-width="0.4"/>
<text x="705.941" y="559.062" text-anchor="middle" font-family="sans-serif" font-size="5" fill="#000">F6</text>
<circle class="s" cx="705.941" cy="564.062" r="2.6416"/>
<circle class="g" cx="705.941" cy="694.517" r="2.6416"/>
<circle cx="719.250" cy="549.258" r="12.0" fill="none" stroke="#3366cc" stroke-width="0.4"/>
<circle class="n" cx="719.250" cy="549.258" r="2.6416"/>
<circle cx="719.250" cy="556.213" r="12.0" fill="none" stroke="#c00000" stroke-width="0.4"/>
<text x="719.250" y="551.213" text-anchor="middle" font-family="sans-serif" font-size="5" fill="#000">G6</text>
<circle class="s" cx="719.250" cy="556.213" r="2.6416"/>
<circle class="g" cx="719.25" cy="673.181" r="2.6416"/>
<circle cx="732.585" cy="537.489" r="12.0" fill="none" stroke="#3366cc" stroke-width="0.4"/>
<circle class="n" cx="732.585" cy="537.489" r="2.6416"/>
<circle cx="732.585" cy="543.908" r="12.0" fill="none" stroke="#c00000" stroke-width="0.4"/>
<text x="732.585" y="538.908" text-anchor="middle" font-family="sans-serif" font-size="5" fill="#000">A6</text>
<circle class="s" cx="732.585" cy="543.908" r="2.6416"/>
<circle class="g" cx="732.585" cy="651.871" r="2.6416"/>
<circle cx="745.920" cy="525.671" r="12.0" fill="none" stroke="#3366cc" stroke-width="0.4"/>
<circle class="n" cx="745.920" cy="525.671" r="2.6416"/>
<circle cx="745.920" cy="531.556" r="12.0" fill="none" stroke="#c00000" stroke-width="0.4"/>
<text x="745.920" y="526.556" text-anchor="middle" font-family="sans-serif" font-size="5" fill="#000">B6</text>
<circle class="s" cx="745.920" cy="531.556" r="2.6416"/>
<circle class="g" cx="745.92" cy="630.535" r="2.6416"/>
<circle cx="759.230" cy="513.902" r="12.0" fill="none" stroke="#3366cc" stroke-width="0.4"/>
<circle class="n" cx="759.230" cy="513.902" r="2.6416"/>
<circle cx="759.230" cy="519.252" r="12.0" fill="none" stroke="#c00000" stroke-width="0.4"/>
<text x="759.230" y="514.252" text-anchor="middle" font-family="sans-serif" font-size="5" fill="#000">C7</text>
<circle class="s" cx="759.230" cy="519.252" r="2.6416"/>
<circle class="g" cx="759.23" cy="609.224" r="2.6416"/>
<circle cx="772.565" cy="502.084" r="12.0" fill="none" stroke="#3366cc" stroke-width="0.4"/>
<circle class="n" cx="772.565" cy="502.084" r="2.6416"/>
<circle cx="772.565" cy="506.900" r="12.0" fill="none" stroke="#c00000" stroke-width="0.4"/>
<text x="772.565" y="501.900" text-anchor="middle" font-family="sans-serif" font-size="5" fill="#000">D7</text>
<circle class="s" cx="772.565" cy="506.900" r="2.6416"/>
<circle class="g" cx="772.565" cy="587.888" r="2.6416"/>
<circle cx="785.874" cy="490.315" r="12.0" fill="none" stroke="#3366cc" stroke-width="0.4"/>
<circle class="n" cx="785.874" cy="490.315" r="2.6416"/>
<circle cx="785.874" cy="494.595" r="12.0" fill="none" stroke="#c00000" stroke-width="0.4"/>
<text x="785.874" y="489.595" text-anchor="middle" font-family="sans-serif" font-size="5" fill="#000">E7</text>
<circle class="s" cx="785.874" cy="494.595" r="2.6416"/>
<circle class="g" cx="785.874" cy="566.578" r="2.6416"/>
<circle cx="799.209" cy="478.520" r="12.0" fill="none" stroke="#3366cc" stroke-width="0.4"/>
<circle class="n" cx="799.209" cy="478.520" r="2.6416"/>
<circle cx="799.209" cy="482.265" r="12.0" fill="none" stroke="#c00000" stroke-width="0.4"/>
<text x="799.209" y="477.265" text-anchor="middle" font-family="sans-serif" font-size="5" fill="#000">F7</text>
<circle class="s" cx="799.209" cy="482.265" r="2.6416"/>
<circle class="g" cx="799.209" cy="545.242" r="2.6416"/>
<circle cx="812.544" cy="466.728" r="12.0" fill="none" stroke="#3366cc" stroke-width="0.4"/>
<circle class="n" cx="812.544" cy="466.728" r="2.6416"/>
<circle cx="812.544" cy="469.939" r="12.0" fill="none" stroke="#c00000" stroke-width="0.4"/>
<text x="812.544" y="464.939" text-anchor="middle" font-family="sans-serif" font-size="5" fill="#000">G7</text>
<circle class="s" cx="812.544" cy="469.939" r="2.6416"/>
<circle class="g" cx="812.544" cy="523.931" r="2.6416"/>
<text x="101.7" y="1693.495" text-anchor="middle" class="lbl">C1</text>
<text x="97.7" y="1679.495" class="sml">1</text>
<text x="119.632" y="1664.793" text-anchor="middle" class="lbl">D1</text>
<text x="115.632" y="1650.793" class="sml">2</text>
<text x="137.565" y="1636.091" text-anchor="middle" class="lbl">E1</text>
<text x="133.565" y="1622.091" class="sml">3</text>
<text x="155.523" y="1607.389" text-anchor="middle" class="lbl">F1</text>
<text x="151.523" y="1593.389" class="sml">4</text>
<text x="173.455" y="1578.662" text-anchor="middle" class="lbl">G1</text>
<text x="169.455" y="1564.662" class="sml">5</text>
<text x="191.387" y="1549.96" text-anchor="middle" class="lbl">A1</text>
<text x="187.387" y="1535.96" class="sml">6</text>
<text x="209.32" y="1521.258" text-anchor="middle" class="lbl">B1</text>
<text x="205.32" y="1507.258" class="sml">7</text>
<text x="227.252" y="1492.556" text-anchor="middle" class="lbl">C2</text>
<text x="223.252" y="1478.556" class="sml">8</text>
<text x="245.21" y="1463.854" text-anchor="middle" class="lbl">D2</text>
<text x="241.21" y="1449.854" class="sml">9</text>
<text x="263.142" y="1435.152" text-anchor="middle" class="lbl">E2</text>
<text x="259.142" y="1421.152" class="sml">10</text>
<text x="281.075" y="1406.425" text-anchor="middle" class="lbl">F2</text>
<text x="277.075" y="1392.425" class="sml">11</text>
<text x="299.007" y="1377.723" text-anchor="middle" class="lbl">G2</text>
<text x="295.007" y="1363.723" class="sml">12</text>
<text x="316.432" y="1349.833" text-anchor="middle" class="lbl">A2</text>
<text x="312.432" y="1335.833" class="sml">13</text>
<text x="333.856" y="1321.97" text-anchor="middle" class="lbl">B2</text>
<text x="329.856" y="1307.97" class="sml">14</text>
<text x="351.28" y="1294.08" text-anchor="middle" class="lbl">C3</text>
<text x="347.28" y="1280.08" class="sml">15</text>
<text x="368.705" y="1266.191" text-anchor="middle" class="lbl">D3</text>
<text x="364.705" y="1252.191" class="sml">16</text>
<text x="385.113" y="1239.953" text-anchor="middle" class="lbl">E3</text>
<text x="381.113" y="1225.953" class="sml">17</text>
<text x="401.522" y="1213.689" text-anchor="middle" class="lbl">F3</text>
<text x="397.522" y="1199.689" class="sml">18</text>
<text x="417.905" y="1187.451" text-anchor="middle" class="lbl">G3</text>
<text x="413.905" y="1173.451" class="sml">19</text>
<text x="433.297" y="1162.839" text-anchor="middle" class="lbl">A3</text>
<text x="429.297" y="1148.839" class="sml">20</text>
<text x="448.664" y="1138.251" text-anchor="middle" class="lbl">B3</text>
<text x="444.664" y="1124.251" class="sml">21</text>
<text x="464.031" y="1113.639" text-anchor="middle" class="lbl">C4</text>
<text x="460.031" y="1099.639" class="sml">22</text>
<text x="479.423" y="1089.026" text-anchor="middle" class="lbl">D4</text>
<text x="475.423" y="1075.026" class="sml">23</text>
<text x="494.79" y="1064.414" text-anchor="middle" class="lbl">E4</text>
<text x="490.79" y="1050.414" class="sml">24</text>
<text x="510.157" y="1039.826" text-anchor="middle" class="lbl">F4</text>
<text x="506.157" y="1025.826" class="sml">25</text>
<text x="525.524" y="1015.214" text-anchor="middle" class="lbl">G4</text>
<text x="521.524" y="1001.214" class="sml">26</text>
<text x="539.875" y="992.252" text-anchor="middle" class="lbl">A4</text>
<text x="535.875" y="978.252" class="sml">27</text>
<text x="554.226" y="969.291" text-anchor="middle" class="lbl">B4</text>
<text x="550.226" y="955.291" class="sml">28</text>
<text x="568.577" y="946.329" text-anchor="middle" class="lbl">C5</text>
<text x="564.577" y="932.329" class="sml">29</text>
<text x="582.928" y="923.367" text-anchor="middle" class="lbl">D5</text>
<text x="578.928" y="909.367" class="sml">30</text>
<text x="597.279" y="900.406" text-anchor="middle" class="lbl">E5</text>
<text x="593.279" y="886.406" class="sml">31</text>
<text x="611.63" y="877.444" text-anchor="middle" class="lbl">F5</text>
<text x="607.63" y="863.444" class="sml">32</text>
<text x="625.981" y="854.482" text-anchor="middle" class="lbl">G5</text>
<text x="621.981" y="840.482" class="sml">33</text>
<text x="639.316" y="833.147" text-anchor="middle" class="lbl">A5</text>
<text x="635.316" y="819.147" class="sml">34</text>
<text x="652.626" y="811.811" text-anchor="middle" class="lbl">B5</text>
<text x="648.626" y="797.811" class="sml">35</text>
<text x="665.961" y="790.5" text-anchor="middle" class="lbl">C6</text>
<text x="661.961" y="776.5" class="sml">36</text>
<text x="679.296" y="769.164" text-anchor="middle" class="lbl">D6</text>
<text x="675.296" y="755.164" class="sml">37</text>
<text x="692.606" y="747.853" text-anchor="middle" class="lbl">E6</text>
<text x="688.606" y="733.853" class="sml">38</text>
<text x="705.941" y="726.517" text-anchor="middle" class="lbl">F6</text>
<text x="701.941" y="712.517" class="sml">39</text>
<text x="719.25" y="705.181" text-anchor="middle" class="lbl">G6</text>
<text x="715.25" y="691.181" class="sml">40</text>
<text x="732.585" y="683.871" text-anchor="middle" class="lbl">A6</text>
<text x="728.585" y="669.871" class="sml">41</text>
<text x="745.92" y="662.535" text-anchor="middle" class="lbl">B6</text>
<text x="741.92" y="648.535" class="sml">42</text>
<text x="759.23" y="641.224" text-anchor="middle" class="lbl">C7</text>
<text x="755.23" y="627.224" class="sml">43</text>
<text x="772.565" y="619.888" text-anchor="middle" class="lbl">D7</text>
<text x="768.565" y="605.888" class="sml">44</text>
<text x="785.874" y="598.578" text-anchor="middle" class="lbl">E7</text>
<text x="781.874" y="584.578" class="sml">45</text>
<text x="799.209" y="577.242" text-anchor="middle" class="lbl">F7</text>
<text x="795.209" y="563.242" class="sml">46</text>
<text x="812.544" y="555.931" text-anchor="middle" class="lbl">G7</text>
<text x="808.544" y="541.931" class="sml">47</text>
<circle cx="12.700" cy="323.844" r="2.6416" fill="#000"/>
<text x="24.700" y="329.844" class="big">NB</text>
<circle cx="12.700" cy="146.563" r="2.6416" fill="#000"/>
<text x="24.700" y="152.563" class="big">NT</text>
<circle cx="838.784" cy="481.939" r="2.6416" fill="#000"/>
<text x="850.784" y="487.939" class="big">ST</text>
<path d="M 12.700 323.844 L 101.700 323.844 L 101.700 323.844 A 12.000 12.000 0 0 0 105.626 323.184 L 123.558 316.975 L 123.558 316.975 A 12.000 12.000 0 0 0 123.558 316.975 L 141.491 310.765 L 141.491 310.765 A 12.000 12.000 0 0 1 141.486 310.767 L 159.444 304.559 L 159.444 304.559 A 12.000 12.000 0 0 1 156.676 305.162 L 174.608 303.431 L 174.608 303.431 A 12.000 12.000 0 0 1 174.592 303.432 L 192.524 301.726 L 192.524 301.726 A 12.000 12.000 0 0 1 192.523 301.726 L 210.456 300.020 L 210.456 300.020 A 12.000 12.000 0 0 1 207.476 299.932 L 261.298 308.301 L 261.298 308.301 A 12.000 12.000 0 0 1 257.014 306.761 L 310.304 338.411 L 310.304 338.411 A 12.000 12.000 0 0 1 307.088 335.622 L 324.512 357.248 L 324.512 357.248 A 12.000 12.000 0 0 1 323.429 355.659 L 340.853 386.243 L 340.853 386.243 A 12.000 12.000 0 0 1 340.852 386.240 L 358.277 416.846 L 358.277 416.846 A 12.000 12.000 0 0 0 358.375 417.016 L 374.783 444.771 L 374.783 444.771 A 12.000 12.000 0 0 1 374.158 443.560 L 390.567 480.272 L 390.567 480.272 A 12.000 12.000 0 0 0 391.188 481.476 L 407.571 509.230 L 407.571 509.230 A 12.000 12.000 0 0 1 406.981 508.095 L 422.373 541.956 L 422.373 541.956 A 12.000 12.000 0 0 0 424.139 544.745 L 454.873 581.037 L 454.873 581.037 A 12.000 12.000 0 0 0 455.417 581.637 L 470.809 597.507 L 470.809 597.507 A 12.000 12.000 0 0 0 472.287 598.800 L 487.654 610.167 L 487.654 610.167 A 12.000 12.000 0 0 0 489.867 611.463 L 505.234 618.376 L 505.234 618.376 A 12.000 12.000 0 0 0 505.250 618.383 L 520.617 625.269 L 520.617 625.269 A 12.000 12.000 0 0 0 522.276 625.871 L 536.627 629.906 L 536.627 629.906 A 12.000 12.000 0 0 0 536.644 629.910 L 550.995 633.922 L 550.995 633.922 A 12.000 12.000 0 0 0 554.618 634.359 L 597.671 632.953 L 597.671 632.953 A 12.000 12.000 0 0 0 601.207 632.299 L 629.909 622.355 L 629.909 622.355 A 12.000 12.000 0 0 0 632.055 621.365 L 645.390 613.538 L 645.390 613.538 A 12.000 12.000 0 0 0 645.399 613.534 L 658.709 605.707 L 658.709 605.707 A 12.000 12.000 0 0 1 658.698 605.713 L 672.033 597.889 L 672.033 597.889 A 12.000 12.000 0 0 0 672.035 597.888 L 685.370 590.062 L 685.370 590.062 A 12.000 12.000 0 0 0 685.377 590.058 L 698.687 582.234 L 698.687 582.234 A 12.000 12.000 0 0 1 698.681 582.238 L 712.016 574.411 L 712.016 574.411 A 12.000 12.000 0 0 0 712.037 574.398 L 725.346 566.550 L 725.346 566.550 A 12.000 12.000 0 0 0 727.388 565.032 L 740.723 552.727 L 740.723 552.727 A 12.000 12.000 0 0 0 740.740 552.712 L 754.075 540.360 L 754.075 540.360 A 12.000 12.000 0 0 1 754.066 540.368 L 767.376 528.064 L 767.376 528.064 A 12.000 12.000 0 0 0 767.385 528.056 L 780.720 515.703 L 780.720 515.703 A 12.000 12.000 0 0 1 780.711 515.711 L 794.020 503.406 L 794.020 503.406 A 12.000 12.000 0 0 1 794.020 503.407 L 820.690 478.750 L 820.690 478.750 A 12.000 12.000 0 0 0 824.544 469.939" fill="none" stroke="#ff69b4" stroke-width="1.6"/>
<path d="M 824.544 469.939 L 833.644 425.227" fill="none" stroke="#ff69b4" stroke-width="1.6"/>
<path d="M 833.644 425.227 L 833.644 425.227 A 12.000 12.000 0 0 0 813.916 416.047 L 800.581 427.273 L 800.581 427.273 A 12.000 12.000 0 0 0 800.580 427.273 L 787.245 438.500 L 787.245 438.500 A 12.000 12.000 0 0 1 787.247 438.499 L 773.938 449.701 L 773.938 449.701 A 12.000 12.000 0 0 0 773.926 449.711 L 760.591 460.963 L 760.591 460.963 A 12.000 12.000 0 0 1 760.603 460.953 L 747.293 472.154 L 747.293 472.154 A 12.000 12.000 0 0 0 747.281 472.164 L 733.946 483.416 L 733.946 483.416 A 12.000 12.000 0 0 1 735.124 482.540 L 708.480 499.939 L 708.480 499.939 A 12.000 12.000 0 0 1 710.000 499.096 L 696.665 505.269 L 696.665 505.269 A 12.000 12.000 0 0 0 696.658 505.273 L 683.348 511.445 L 683.348 511.445 A 12.000 12.000 0 0 1 683.356 511.441 L 670.021 517.613 L 670.021 517.613 A 12.000 12.000 0 0 0 670.021 517.613 L 656.686 523.785 L 656.686 523.785 A 12.000 12.000 0 0 1 658.866 523.021 L 617.870 533.080 L 617.870 533.080 A 12.000 12.000 0 0 1 619.826 532.768 L 576.773 536.019 L 576.773 536.019 A 12.000 12.000 0 0 1 579.565 536.134 L 565.214 533.848 L 565.214 533.848 A 12.000 12.000 0 0 1 568.776 535.008 L 554.425 527.693 L 554.425 527.693 A 12.000 12.000 0 0 1 554.440 527.701 L 540.089 520.360 L 540.089 520.360 A 12.000 12.000 0 0 1 541.500 521.208 L 526.133 510.464 L 526.133 510.464 A 12.000 12.000 0 0 1 526.144 510.472 L 510.777 499.702 L 510.777 499.702 A 12.000 12.000 0 0 1 512.485 501.155 L 497.118 485.382 L 497.118 485.382 A 12.000 12.000 0 0 1 498.174 486.624 L 482.782 465.796 L 482.782 465.796 A 12.000 12.000 0 0 1 483.452 466.806 L 468.085 440.898 L 468.085 440.898 A 12.000 12.000 0 0 0 467.424 439.901 L 452.057 419.047 L 452.057 419.047 A 12.000 12.000 0 0 1 453.632 421.950 L 438.240 380.929 L 438.240 380.929 A 12.000 12.000 0 0 0 437.837 379.981 L 421.454 345.615 L 421.454 345.615 A 12.000 12.000 0 0 1 421.879 346.621 L 405.470 302.197 L 405.470 302.197 A 12.000 12.000 0 0 0 405.042 301.185 L 388.634 266.818 L 388.634 266.818 A 12.000 12.000 0 0 1 388.701 266.961 L 371.276 229.192 L 371.276 229.192 A 12.000 12.000 0 0 0 371.275 229.190 L 353.851 191.445 L 353.851 191.445 A 12.000 12.000 0 0 1 353.852 191.447 L 319.003 115.908 L 319.003 115.908 A 12.000 12.000 0 0 0 312.282 109.685 L 294.350 103.030 L 294.350 103.030 A 12.000 12.000 0 0 0 292.326 102.474 L 238.503 92.669 L 238.503 92.669 A 12.000 12.000 0 0 0 237.445 92.525 L 167.716 86.150 L 167.716 86.150 A 12.000 12.000 0 0 0 164.356 86.316 L 146.398 89.770 L 146.398 89.770 A 12.000 12.000 0 0 0 146.395 89.771 L 128.462 93.226 L 128.462 93.226 A 12.000 12.000 0 0 1 128.462 93.226 L 110.530 96.680 L 110.530 96.680 A 12.000 12.000 0 0 0 107.302 97.797 L 12.700 146.563" fill="none" stroke="#ff69b4" stroke-width="1.6"/>
<path d="M 12.700 146.563 L 12.700 323.844" fill="none" stroke="#ff69b4" stroke-width="1.6"/>
</svg>