<?xml version="1.0" encoding="UTF-8"?>
<svg xmlns="http://www.w3.org/2000/svg" viewBox="-240 -20 980 1701.0" preserveAspectRatio="xMidYMid meet">
<title>Soundboard-face view</title>
<rect x="-240" y="-20" width="980" height="1701.0" fill="#fff"/>
<path d="M 101.725 1661.000 L 102.629 1656.847 L 103.532 1652.695 L 104.434 1648.543 L 105.334 1644.390 L 106.232 1640.237 L 107.129 1636.085 L 108.024 1631.932 L 108.918 1627.780 L 109.809 1623.627 L 110.698 1619.475 L 111.585 1615.322 L 112.470 1611.170 L 113.353 1607.017 L 114.233 1602.865 L 115.110 1598.712 L 115.986 1594.560 L 116.858 1590.407 L 117.728 1586.255 L 118.595 1582.102 L 119.458 1577.950 L 120.319 1573.797 L 121.177 1569.645 L 122.032 1565.492 L 122.883 1561.340 L 123.731 1557.188 L 124.575 1553.035 L 125.416 1548.882 L 126.253 1544.730 L 127.086 1540.577 L 127.916 1536.425 L 128.742 1532.272 L 129.564 1528.120 L 130.381 1523.967 L 131.195 1519.815 L 132.004 1515.662 L 132.809 1511.510 L 133.610 1507.357 L 134.406 1503.205 L 135.197 1499.052 L 135.984 1494.900 L 136.766 1490.747 L 137.544 1486.595 L 138.316 1482.442 L 139.084 1478.290 L 139.846 1474.137 L 140.603 1469.985 L 141.356 1465.832 L 142.102 1461.680 L 142.844 1457.527 L 143.580 1453.375 L 144.310 1449.222 L 145.035 1445.070 L 145.755 1440.918 L 146.468 1436.765 L 147.176 1432.612 L 147.878 1428.460 L 148.574 1424.307 L 149.264 1420.155 L 149.947 1416.003 L 150.625 1411.850 L 151.296 1407.697 L 151.962 1403.545 L 152.620 1399.392 L 153.273 1395.240 L 153.918 1391.087 L 154.558 1386.935 L 155.190 1382.782 L 155.816 1378.630 L 156.435 1374.477 L 157.047 1370.325 L 157.653 1366.172 L 158.251 1362.020 L 158.843 1357.867 L 159.427 1353.715 L 160.004 1349.562 L 160.574 1345.410 L 161.137 1341.257 L 161.692 1337.105 L 162.240 1332.952 L 162.781 1328.800 L 163.314 1324.647 L 163.839 1320.495 L 164.357 1316.342 L 164.868 1312.190 L 165.370 1308.037 L 165.865 1303.885 L 166.352 1299.732 L 166.832 1295.580 L 167.303 1291.427 L 167.766 1287.275 L 168.222 1283.122 L 168.669 1278.970 L 169.108 1274.817 L 169.540 1270.665 L 169.963 1266.512 L 170.377 1262.360 L 170.784 1258.207 L 171.182 1254.055 L 171.572 1249.902 L 171.953 1245.750 L 172.326 1241.597 L 172.691 1237.445 L 173.047 1233.292 L 173.394 1229.140 L 173.733 1224.987 L 174.063 1220.835 L 174.385 1216.682 L 174.698 1212.530 L 175.002 1208.377 L 175.298 1204.225 L 175.584 1200.072 L 175.862 1195.920 L 176.132 1191.767 L 176.392 1187.615 L 176.643 1183.462 L 176.886 1179.310 L 177.119 1175.157 L 177.344 1171.005 L 177.559 1166.852 L 177.766 1162.700 L 177.964 1158.547 L 178.152 1154.395 L 178.332 1150.242 L 178.502 1146.090 L 178.663 1141.938 L 178.815 1137.785 L 178.958 1133.632 L 179.092 1129.480 L 179.217 1125.327 L 179.332 1121.175 L 179.439 1117.022 L 179.536 1112.870 L 179.624 1108.717 L 179.703 1104.565 L 179.772 1100.412 L 179.832 1096.260 L 179.884 1092.107 L 179.925 1087.955 L 179.958 1083.802 L 179.981 1079.650 L 179.995 1075.497 L 180.000 1071.345 L 179.997 1067.192 L 179.986 1063.040 L 179.969 1058.887 L 179.944 1054.735 L 179.913 1050.582 L 179.875 1046.430 L 179.829 1042.277 L 179.777 1038.125 L 179.718 1033.972 L 179.651 1029.820 L 179.578 1025.668 L 179.498 1021.515 L 179.410 1017.362 L 179.316 1013.210 L 179.215 1009.057 L 179.107 1004.905 L 178.992 1000.752 L 178.870 996.600 L 178.741 992.447 L 178.605 988.295 L 178.462 984.142 L 178.313 979.990 L 178.156 975.837 L 177.993 971.685 L 177.823 967.532 L 177.646 963.380 L 177.462 959.227 L 177.271 955.075 L 177.074 950.922 L 176.870 946.770 L 176.659 942.617 L 176.441 938.465 L 176.216 934.312 L 175.985 930.160 L 175.747 926.007 L 175.503 921.855 L 175.252 917.702 L 174.994 913.550 L 174.729 909.397 L 174.458 905.245 L 174.181 901.092 L 173.897 896.940 L 173.606 892.787 L 173.309 888.635 L 173.005 884.482 L 172.695 880.330 L 172.378 876.177 L 172.055 872.025 L 171.726 867.872 L 171.390 863.720 L 171.048 859.567 L 170.700 855.415 L 170.345 851.262 L 169.984 847.110 L 169.617 842.957 L 169.244 838.805 L 168.864 834.652 L 168.479 830.500 L 168.087 826.347 L 167.689 822.195 L 167.285 818.043 L 166.875 813.890 L 166.459 809.737 L 166.037 805.585 L 165.610 801.433 L 165.176 797.280 L 164.737 793.127 L 164.291 788.975 L 163.840 784.822 L 163.383 780.670 L 162.921 776.517 L 162.453 772.365 L 161.979 768.212 L 161.499 764.060 L 161.014 759.907 L 160.524 755.755 L 160.028 751.602 L 159.526 747.450 L 159.019 743.297 L 158.507 739.145 L 157.989 734.992 L 157.466 730.840 L 156.938 726.687 L 156.405 722.535 L 155.866 718.382 L 155.323 714.230 L 154.774 710.077 L 154.220 705.925 L 153.661 701.772 L 153.097 697.620 L 152.529 693.467 L 151.955 689.315 L 151.377 685.162 L 150.794 681.010 L 150.206 676.857 L 149.613 672.705 L 149.016 668.552 L 148.414 664.400 L 147.808 660.247 L 147.197 656.095 L 146.582 651.942 L 145.962 647.790 L 145.338 643.637 L 144.710 639.485 L 144.077 635.332 L 143.441 631.180 L 142.800 627.027 L 142.154 622.875 L 141.505 618.722 L 140.852 614.570 L 140.195 610.417 L 139.534 606.265 L 138.869 602.113 L 138.200 597.960 L 137.528 593.808 L 136.852 589.655 L 136.172 585.502 L 135.489 581.350 L 134.802 577.197 L 134.111 573.045 L 133.418 568.893 L 132.720 564.740 L 132.020 560.588 L 131.316 556.435 L 130.609 552.283 L 129.899 548.130 L 129.186 543.977 L 128.469 539.825 L 127.750 535.673 L 127.028 531.520 L 126.302 527.368 L 125.574 523.215 L 124.844 519.062 L 124.110 514.910 L 123.374 510.757 L 122.635 506.605 L 121.894 502.452 L 121.150 498.300 L 120.404 494.148 L 119.656 489.995 L 118.905 485.842 L 118.152 481.690 L 117.396 477.537 L 116.639 473.385 L 115.880 469.232 L 115.118 465.080 L 114.355 460.928 L 113.589 456.775 L 112.822 452.622 L 112.053 448.470 L 111.282 444.317 L 110.510 440.165 L 109.736 436.012 L 108.961 431.860 L 108.184 427.707 L 107.405 423.555 L 106.626 419.402 L 105.845 415.250 L 105.062 411.098 L 104.279 406.945 L 103.494 402.793 L 102.709 398.640 L 101.922 394.488 L 101.135 390.335 L 100.346 386.183 L 99.557 382.030 L 98.767 377.878 L 97.977 373.725 L 97.186 369.572 L 96.394 365.420 L 95.602 361.268 L 94.809 357.115 L 94.016 352.963 L 93.222 348.810 L 92.429 344.658 L 91.635 340.505 L 90.841 336.352 L 90.047 332.200 L 89.253 328.048 L 88.459 323.895 L 87.665 319.743 L 86.871 315.590 L 86.078 311.438 L 85.285 307.285 L 84.492 303.132 L 83.700 298.980 L 82.908 294.827 L 82.117 290.675 L 81.326 286.523 L 80.536 282.370 L 79.747 278.217 L 78.958 274.065 L 78.171 269.912 L 77.384 265.760 L 76.598 261.607 L 75.814 257.455 L 75.030 253.303 L 74.248 249.150 L 73.466 244.997 L 72.687 240.845 L 71.908 236.692 L 71.131 232.540 L 70.355 228.387 L 69.581 224.235 L 68.809 220.082 L 68.038 215.930 L 67.269 211.777 L 66.501 207.625 L 65.736 203.473 L 64.972 199.320 L 64.210 195.168 L 63.450 191.015 L 62.693 186.863 L 61.937 182.710 L 61.184 178.558 L 60.433 174.405 L 59.684 170.253 L 58.938 166.100 L 58.194 161.947 L 57.452 157.795 L 56.713 153.643 L 55.977 149.490 L 55.243 145.338 L 54.512 141.185 L 53.783 137.033 L 53.058 132.880 L 52.335 128.727 L 51.616 124.575 L 50.899 120.423 L 50.185 116.270 L 49.475 112.118 L 48.767 107.965 L 48.063 103.812 L 47.362 99.660 L 46.665 95.507 L 45.970 91.355 L 45.279 87.202 L 44.592 83.050 L 43.908 78.898 L 43.228 74.745 L 42.552 70.592 L 41.879 66.440 L 41.210 62.287 L 40.544 58.135 L 39.883 53.982 L 39.225 49.830 L 38.572 45.678 L 37.922 41.525 L 37.276 37.372 L 36.635 33.220 L 35.998 29.067 L 35.365 24.915 L 34.736 20.762 L 34.111 16.610 L 33.491 12.457 L 32.875 8.305 L 32.264 4.152 L 31.657 0.000 L -31.657 0.000 L -32.264 4.152 L -32.875 8.305 L -33.491 12.457 L -34.111 16.610 L -34.736 20.762 L -35.365 24.915 L -35.998 29.067 L -36.635 33.220 L -37.276 37.372 L -37.922 41.525 L -38.572 45.678 L -39.225 49.830 L -39.883 53.982 L -40.544 58.135 L -41.210 62.287 L -41.879 66.440 L -42.552 70.592 L -43.228 74.745 L -43.908 78.898 L -44.592 83.050 L -45.279 87.202 L -45.970 91.355 L -46.665 95.507 L -47.362 99.660 L -48.063 103.812 L -48.767 107.965 L -49.475 112.118 L -50.185 116.270 L -50.899 120.423 L -51.616 124.575 L -52.335 128.727 L -53.058 132.880 L -53.783 137.033 L -54.512 141.185 L -55.243 145.338 L -55.977 149.490 L -56.713 153.643 L -57.452 157.795 L -58.194 161.947 L -58.938 166.100 L -59.684 170.253 L -60.433 174.405 L -61.184 178.558 L -61.937 182.710 L -62.693 186.863 L -63.450 191.015 L -64.210 195.168 L -64.972 199.320 L -65.736 203.473 L -66.501 207.625 L -67.269 211.777 L -68.038 215.930 L -68.809 220.082 L -69.581 224.235 L -70.355 228.387 L -71.131 232.540 L -71.908 236.692 L -72.687 240.845 L -73.466 244.997 L -74.248 249.150 L -75.030 253.303 L -75.814 257.455 L -76.598 261.607 L -77.384 265.760 L -78.171 269.912 L -78.958 274.065 L -79.747 278.217 L -80.536 282.370 L -81.326 286.523 L -82.117 290.675 L -82.908 294.827 L -83.700 298.980 L -84.492 303.132 L -85.285 307.285 L -86.078 311.438 L -86.871 315.590 L -87.665 319.743 L -88.459 323.895 L -89.253 328.048 L -90.047 332.200 L -90.841 336.352 L -91.635 340.505 L -92.429 344.658 L -93.222 348.810 L -94.016 352.963 L -94.809 357.115 L -95.602 361.268 L -96.394 365.420 L -97.186 369.572 L -97.977 373.725 L -98.767 377.878 L -99.557 382.030 L -100.346 386.183 L -101.135 390.335 L -101.922 394.488 L -102.709 398.640 L -103.494 402.793 L -104.279 406.945 L -105.062 411.098 L -105.845 415.250 L -106.626 419.402 L -107.405 423.555 L -108.184 427.707 L -108.961 431.860 L -109.736 436.012 L -110.510 440.165 L -111.282 444.317 L -112.053 448.470 L -112.822 452.622 L -113.589 456.775 L -114.355 460.928 L -115.118 465.080 L -115.880 469.232 L -116.639 473.385 L -117.396 477.537 L -118.152 481.690 L -118.905 485.842 L -119.656 489.995 L -120.404 494.148 L -121.150 498.300 L -121.894 502.452 L -122.635 506.605 L -123.374 510.757 L -124.110 514.910 L -124.844 519.062 L -125.574 523.215 L -126.302 527.368 L -127.028 531.520 L -127.750 535.673 L -128.469 539.825 L -129.186 543.977 L -129.899 548.130 L -130.609 552.283 L -131.316 556.435 L -132.020 560.588 L -132.720 564.740 L -133.418 568.893 L -134.111 573.045 L -134.802 577.197 L -135.489 581.350 L -136.172 585.502 L -136.852 589.655 L -137.528 593.808 L -138.200 597.960 L -138.869 602.113 L -139.534 606.265 L -140.195 610.417 L -140.852 614.570 L -141.505 618.722 L -142.154 622.875 L -142.800 627.027 L -143.441 631.180 L -144.077 635.332 L -144.710 639.485 L -145.338 643.637 L -145.962 647.790 L -146.582 651.942 L -147.197 656.095 L -147.808 660.247 L -148.414 664.400 L -149.016 668.552 L -149.613 672.705 L -150.206 676.857 L -150.794 681.010 L -151.377 685.162 L -151.955 689.315 L -152.529 693.467 L -153.097 697.620 L -153.661 701.772 L -154.220 705.925 L -154.774 710.077 L -155.323 714.230 L -155.866 718.382 L -156.405 722.535 L -156.938 726.687 L -157.466 730.840 L -157.989 734.992 L -158.507 739.145 L -159.019 743.297 L -159.526 747.450 L -160.028 751.602 L -160.524 755.755 L -161.014 759.907 L -161.499 764.060 L -161.979 768.212 L -162.453 772.365 L -162.921 776.517 L -163.383 780.670 L -163.840 784.822 L -164.291 788.975 L -164.737 793.127 L -165.176 797.280 L -165.610 801.433 L -166.037 805.585 L -166.459 809.737 L -166.875 813.890 L -167.285 818.043 L -167.689 822.195 L -168.087 826.347 L -168.479 830.500 L -168.864 834.652 L -169.244 838.805 L -169.617 842.957 L -169.984 847.110 L -170.345 851.262 L -170.700 855.415 L -171.048 859.567 L -171.390 863.720 L -171.726 867.872 L -172.055 872.025 L -172.378 876.177 L -172.695 880.330 L -173.005 884.482 L -173.309 888.635 L -173.606 892.787 L -173.897 896.940 L -174.181 901.092 L -174.458 905.245 L -174.729 909.397 L -174.994 913.550 L -175.252 917.702 L -175.503 921.855 L -175.747 926.007 L -175.985 930.160 L -176.216 934.312 L -176.441 938.465 L -176.659 942.617 L -176.870 946.770 L -177.074 950.922 L -177.271 955.075 L -177.462 959.227 L -177.646 963.380 L -177.823 967.532 L -177.993 971.685 L -178.156 975.837 L -178.313 979.990 L -178.462 984.142 L -178.605 988.295 L -178.741 992.447 L -178.870 996.600 L -178.992 1000.752 L -179.107 1004.905 L -179.215 1009.057 L -179.316 1013.210 L -179.410 1017.362 L -179.498 1021.515 L -179.578 1025.668 L -179.651 1029.820 L -179.718 1033.972 L -179.777 1038.125 L -179.829 1042.277 L -179.875 1046.430 L -179.913 1050.582 L -179.944 1054.735 L -179.969 1058.887 L -179.986 1063.040 L -179.997 1067.192 L -180.000 1071.345 L -179.995 1075.497 L -179.981 1079.650 L -179.958 1083.802 L -179.925 1087.955 L -179.884 1092.107 L -179.832 1096.260 L -179.772 1100.412 L -179.703 1104.565 L -179.624 1108.717 L -179.536 1112.870 L -179.439 1117.022 L -179.332 1121.175 L -179.217 1125.327 L -179.092 1129.480 L -178.958 1133.632 L -178.815 1137.785 L -178.663 1141.938 L -178.502 1146.090 L -178.332 1150.242 L -178.152 1154.395 L -177.964 1158.547 L -177.766 1162.700 L -177.559 1166.852 L -177.344 1171.005 L -177.119 1175.157 L -176.886 1179.310 L -176.643 1183.462 L -176.392 1187.615 L -176.132 1191.767 L -175.862 1195.920 L -175.584 1200.072 L -175.298 1204.225 L -175.002 1208.377 L -174.698 1212.530 L -174.385 1216.682 L -174.063 1220.835 L -173.733 1224.987 L -173.394 1229.140 L -173.047 1233.292 L -172.691 1237.445 L -172.326 1241.597 L -171.953 1245.750 L -171.572 1249.902 L -171.182 1254.055 L -170.784 1258.207 L -170.377 1262.360 L -169.963 1266.512 L -169.540 1270.665 L -169.108 1274.817 L -168.669 1278.970 L -168.222 1283.122 L -167.766 1287.275 L -167.303 1291.427 L -166.832 1295.580 L -166.352 1299.732 L -165.865 1303.885 L -165.370 1308.037 L -164.868 1312.190 L -164.357 1316.342 L -163.839 1320.495 L -163.314 1324.647 L -162.781 1328.800 L -162.240 1332.952 L -161.692 1337.105 L -161.137 1341.257 L -160.574 1345.410 L -160.004 1349.562 L -159.427 1353.715 L -158.843 1357.867 L -158.251 1362.020 L -157.653 1366.172 L -157.047 1370.325 L -156.435 1374.477 L -155.816 1378.630 L -155.190 1382.782 L -154.558 1386.935 L -153.918 1391.087 L -153.273 1395.240 L -152.620 1399.392 L -151.962 1403.545 L -151.296 1407.697 L -150.625 1411.850 L -149.947 1416.003 L -149.264 1420.155 L -148.574 1424.307 L -147.878 1428.460 L -147.176 1432.612 L -146.468 1436.765 L -145.755 1440.918 L -145.035 1445.070 L -144.310 1449.222 L -143.580 1453.375 L -142.844 1457.527 L -142.102 1461.680 L -141.356 1465.832 L -140.603 1469.985 L -139.846 1474.137 L -139.084 1478.290 L -138.316 1482.442 L -137.544 1486.595 L -136.766 1490.747 L -135.984 1494.900 L -135.197 1499.052 L -134.406 1503.205 L -133.610 1507.357 L -132.809 1511.510 L -132.004 1515.662 L -131.195 1519.815 L -130.381 1523.967 L -129.564 1528.120 L -128.742 1532.272 L -127.916 1536.425 L -127.086 1540.577 L -126.253 1544.730 L -125.416 1548.882 L -124.575 1553.035 L -123.731 1557.188 L -122.883 1561.340 L -122.032 1565.492 L -121.177 1569.645 L -120.319 1573.797 L -119.458 1577.950 L -118.595 1582.102 L -117.728 1586.255 L -116.858 1590.407 L -115.986 1594.560 L -115.110 1598.712 L -114.233 1602.865 L -113.353 1607.017 L -112.470 1611.170 L -111.585 1615.322 L -110.698 1619.475 L -109.809 1623.627 L -108.918 1627.780 L -108.024 1631.932 L -107.129 1636.085 L -106.232 1640.237 L -105.334 1644.390 L -104.434 1648.543 L -103.532 1652.695 L -102.629 1656.847 L -101.725 1661.000 Z" fill="#e4d4b5" stroke="#222" stroke-width="3.0"/>
<line x1="0" y1="1661.000" x2="0" y2="0.000" stroke="#2e8b57" stroke-width="3.0"/>
<circle cx="0" cy="1426.917" r="3" fill="#2e8b57"/>
<text x="-8" y="1429.917" font-family="sans-serif" font-size="11" fill="#666" text-anchor="end">C1</text>
<circle cx="0" cy="1393.074" r="3" fill="#2e8b57"/>
<circle cx="0" cy="1359.231" r="3" fill="#2e8b57"/>
<circle cx="0" cy="1325.374" r="3" fill="#2e8b57"/>
<text x="-8" y="1328.374" font-family="sans-serif" font-size="11" fill="#666" text-anchor="end">F1</text>
<circle cx="0" cy="1291.509" r="3" fill="#2e8b57"/>
<circle cx="0" cy="1257.666" r="3" fill="#2e8b57"/>
<circle cx="0" cy="1223.822" r="3" fill="#2e8b57"/>
<circle cx="0" cy="1189.979" r="3" fill="#2e8b57"/>
<text x="-8" y="1192.979" font-family="sans-serif" font-size="11" fill="#666" text-anchor="end">C2</text>
<circle cx="0" cy="1156.122" r="3" fill="#2e8b57"/>
<circle cx="0" cy="1122.279" r="3" fill="#2e8b57"/>
<circle cx="0" cy="1088.414" r="3" fill="#2e8b57"/>
<text x="-8" y="1091.414" font-family="sans-serif" font-size="11" fill="#666" text-anchor="end">F2</text>
<circle cx="0" cy="1054.571" r="3" fill="#2e8b57"/>
<circle cx="0" cy="1021.685" r="3" fill="#2e8b57"/>
<circle cx="0" cy="988.822" r="3" fill="#2e8b57"/>
<circle cx="0" cy="955.937" r="3" fill="#2e8b57"/>
<text x="-8" y="958.937" font-family="sans-serif" font-size="11" fill="#666" text-anchor="end">C3</text>
<circle cx="0" cy="923.052" r="3" fill="#2e8b57"/>
<circle cx="0" cy="892.106" r="3" fill="#2e8b57"/>
<circle cx="0" cy="861.137" r="3" fill="#2e8b57"/>
<text x="-8" y="864.137" font-family="sans-serif" font-size="11" fill="#666" text-anchor="end">F3</text>
<circle cx="0" cy="830.205" r="3" fill="#2e8b57"/>
<circle cx="0" cy="801.176" r="3" fill="#2e8b57"/>
<circle cx="0" cy="772.181" r="3" fill="#2e8b57"/>
<circle cx="0" cy="743.166" r="3" fill="#2e8b57"/>
<text x="-8" y="746.166" font-family="sans-serif" font-size="11" fill="#666" text-anchor="end">C4</text>
<circle cx="0" cy="714.136" r="3" fill="#2e8b57"/>
<circle cx="0" cy="685.121" r="3" fill="#2e8b57"/>
<circle cx="0" cy="656.125" r="3" fill="#2e8b57"/>
<text x="-8" y="659.125" font-family="sans-serif" font-size="11" fill="#666" text-anchor="end">F4</text>
<circle cx="0" cy="627.110" r="3" fill="#2e8b57"/>
<circle cx="0" cy="600.032" r="3" fill="#2e8b57"/>
<circle cx="0" cy="572.955" r="3" fill="#2e8b57"/>
<circle cx="0" cy="545.878" r="3" fill="#2e8b57"/>
<text x="-8" y="548.878" font-family="sans-serif" font-size="11" fill="#666" text-anchor="end">C5</text>
<circle cx="0" cy="518.800" r="3" fill="#2e8b57"/>
<circle cx="0" cy="491.723" r="3" fill="#2e8b57"/>
<circle cx="0" cy="464.645" r="3" fill="#2e8b57"/>
<text x="-8" y="467.645" font-family="sans-serif" font-size="11" fill="#666" text-anchor="end">F5</text>
<circle cx="0" cy="437.567" r="3" fill="#2e8b57"/>
<circle cx="0" cy="412.408" r="3" fill="#2e8b57"/>
<circle cx="0" cy="387.261" r="3" fill="#2e8b57"/>
<circle cx="0" cy="362.122" r="3" fill="#2e8b57"/>
<text x="-8" y="365.122" font-family="sans-serif" font-size="11" fill="#666" text-anchor="end">C6</text>
<circle cx="0" cy="336.961" r="3" fill="#2e8b57"/>
<circle cx="0" cy="311.835" r="3" fill="#2e8b57"/>
<circle cx="0" cy="286.675" r="3" fill="#2e8b57"/>
<text x="-8" y="289.675" font-family="sans-serif" font-size="11" fill="#666" text-anchor="end">F6</text>
<circle cx="0" cy="261.528" r="3" fill="#2e8b57"/>
<circle cx="0" cy="236.390" r="3" fill="#2e8b57"/>
<circle cx="0" cy="211.229" r="3" fill="#2e8b57"/>
<circle cx="0" cy="186.103" r="3" fill="#2e8b57"/>
<text x="-8" y="189.103" font-family="sans-serif" font-size="11" fill="#666" text-anchor="end">C7</text>
<circle cx="0" cy="160.943" r="3" fill="#2e8b57"/>
<circle cx="0" cy="135.818" r="3" fill="#2e8b57"/>
<circle cx="0" cy="110.658" r="3" fill="#2e8b57"/>
<text x="-8" y="113.658" font-family="sans-serif" font-size="11" fill="#666" text-anchor="end">F7</text>
<circle cx="0" cy="85.519" r="3" fill="#2e8b57"/>
<text x="200" y="1597.860" font-family="sans-serif" font-size="11" fill="#333">s'=0.0 D=231.8 (CO)</text>
<text x="200" y="1524.270" font-family="sans-serif" font-size="11" fill="#333">s'=73.6 D=261.8 (CI)</text>
<text x="200" y="1074.270" font-family="sans-serif" font-size="11" fill="#333">s'=523.6 D=360.0 (peak)</text>
<text x="200" y="39.007" font-family="sans-serif" font-size="11" fill="#333">s'=1558.9 D=74.1 (ST)</text>
<text x="200" y="3.000" font-family="sans-serif" font-size="11" fill="#333">s'=1594.9 D=63.3 (treble clear)</text>
<text x="200" y="1664.000" font-family="sans-serif" font-size="11" fill="#333">s'=-66.1 D=203.5 (bass clear)</text>
</svg>