<?xml version="1.0" encoding="UTF-8"?>
<svg xmlns="http://www.w3.org/2000/svg" viewBox="-240 -1020 480 1240" preserveAspectRatio="xMidYMid meet">
<title>Top view (rotated)</title>
<rect x="-240" y="-1020" width="480" height="1240" fill="#fff"/>
<g transform="rotate(-90)">
<path d="M 16.827 101.725 L 19.376 102.629 L 21.924 103.532 L 24.472 104.434 L 27.019 105.334 L 29.566 106.232 L 32.112 107.129 L 34.657 108.024 L 37.201 108.918 L 39.745 109.809 L 42.288 110.698 L 44.830 111.585 L 47.372 112.470 L 49.912 113.353 L 52.452 114.233 L 54.990 115.110 L 57.528 115.986 L 60.064 116.858 L 62.600 117.728 L 65.134 118.595 L 67.667 119.458 L 70.199 120.319 L 72.730 121.177 L 75.260 122.032 L 77.788 122.883 L 80.315 123.731 L 82.841 124.575 L 85.365 125.416 L 87.888 126.253 L 90.410 127.086 L 92.930 127.916 L 95.448 128.742 L 97.966 129.564 L 100.481 130.381 L 102.995 131.195 L 105.507 132.004 L 108.018 132.809 L 110.526 133.610 L 113.034 134.406 L 115.539 135.197 L 118.043 135.984 L 120.544 136.766 L 123.044 137.544 L 125.542 138.316 L 128.038 139.084 L 130.533 139.846 L 133.025 140.603 L 135.515 141.356 L 138.003 142.102 L 140.489 142.844 L 142.973 143.580 L 145.455 144.310 L 147.935 145.035 L 150.412 145.755 L 152.888 146.468 L 155.361 147.176 L 157.832 147.878 L 160.300 148.574 L 162.766 149.264 L 165.230 149.947 L 167.692 150.625 L 170.151 151.296 L 172.608 151.962 L 175.062 152.620 L 177.514 153.273 L 179.963 153.918 L 182.410 154.558 L 184.854 155.190 L 187.295 155.816 L 189.734 156.435 L 192.171 157.047 L 194.604 157.653 L 197.035 158.251 L 199.464 158.843 L 201.889 159.427 L 204.312 160.004 L 206.732 160.574 L 209.149 161.137 L 211.564 161.692 L 213.975 162.240 L 216.384 162.781 L 218.790 163.314 L 221.193 163.839 L 223.593 164.357 L 225.990 164.868 L 228.384 165.370 L 230.775 165.865 L 233.163 166.352 L 235.548 166.832 L 237.930 167.303 L 240.309 167.766 L 242.685 168.222 L 245.058 168.669 L 247.428 169.108 L 249.794 169.540 L 252.158 169.963 L 254.518 170.377 L 256.875 170.784 L 259.229 171.182 L 261.580 171.572 L 263.927 171.953 L 266.271 172.326 L 268.612 172.691 L 270.950 173.047 L 273.284 173.394 L 275.615 173.733 L 277.943 174.063 L 280.268 174.385 L 282.589 174.698 L 284.906 175.002 L 287.221 175.298 L 289.532 175.584 L 291.839 175.862 L 294.143 176.132 L 296.444 176.392 L 298.742 176.643 L 301.035 176.886 L 303.326 177.119 L 305.613 177.344 L 307.897 177.559 L 310.177 177.766 L 312.453 177.964 L 314.726 178.152 L 316.996 178.332 L 319.262 178.502 L 321.525 178.663 L 323.784 178.815 L 326.040 178.958 L 328.292 179.092 L 330.540 179.217 L 332.785 179.332 L 335.027 179.439 L 337.265 179.536 L 339.499 179.624 L 341.730 179.703 L 343.957 179.772 L 346.181 179.832 L 348.401 179.884 L 350.618 179.925 L 352.831 179.958 L 355.040 179.981 L 357.246 179.995 L 359.449 180.000 L 361.648 179.997 L 363.845 179.986 L 366.038 179.969 L 368.230 179.944 L 370.418 179.913 L 372.604 179.875 L 374.787 179.829 L 376.967 179.777 L 379.145 179.718 L 381.320 179.651 L 383.492 179.578 L 385.662 179.498 L 387.829 179.410 L 389.993 179.316 L 392.155 179.215 L 394.313 179.107 L 396.470 178.992 L 398.623 178.870 L 400.774 178.741 L 402.922 178.605 L 405.068 178.462 L 407.211 178.313 L 409.351 178.156 L 411.489 177.993 L 413.624 177.823 L 415.756 177.646 L 417.886 177.462 L 420.013 177.271 L 422.137 177.074 L 424.259 176.870 L 426.379 176.659 L 428.495 176.441 L 430.609 176.216 L 432.721 175.985 L 434.830 175.747 L 436.936 175.503 L 439.040 175.252 L 441.141 174.994 L 443.240 174.729 L 445.336 174.458 L 447.430 174.181 L 449.521 173.897 L 451.609 173.606 L 453.696 173.309 L 455.779 173.005 L 457.860 172.695 L 459.939 172.378 L 462.015 172.055 L 464.089 171.726 L 466.160 171.390 L 468.229 171.048 L 470.295 170.700 L 472.359 170.345 L 474.421 169.984 L 476.480 169.617 L 478.536 169.244 L 480.591 168.864 L 482.643 168.479 L 484.692 168.087 L 486.740 167.689 L 488.785 167.285 L 490.827 166.875 L 492.868 166.459 L 494.906 166.037 L 496.942 165.610 L 498.975 165.176 L 501.007 164.737 L 503.036 164.291 L 505.062 163.840 L 507.087 163.383 L 509.109 162.921 L 511.130 162.453 L 513.148 161.979 L 515.164 161.499 L 517.177 161.014 L 519.189 160.524 L 521.198 160.028 L 523.206 159.526 L 525.211 159.019 L 527.214 158.507 L 529.216 157.989 L 531.215 157.466 L 533.212 156.938 L 535.207 156.405 L 537.200 155.866 L 539.191 155.323 L 541.180 154.774 L 543.168 154.220 L 545.153 153.661 L 547.136 153.097 L 549.118 152.529 L 551.098 151.955 L 553.075 151.377 L 555.051 150.794 L 557.026 150.206 L 558.998 149.613 L 560.968 149.016 L 562.937 148.414 L 564.904 147.808 L 566.869 147.197 L 568.833 146.582 L 570.795 145.962 L 572.755 145.338 L 574.714 144.710 L 576.671 144.077 L 578.626 143.441 L 580.580 142.800 L 582.532 142.154 L 584.482 141.505 L 586.431 140.852 L 588.379 140.195 L 590.325 139.534 L 592.269 138.869 L 594.212 138.200 L 596.154 137.528 L 598.094 136.852 L 600.033 136.172 L 601.970 135.489 L 603.906 134.802 L 605.841 134.111 L 607.774 133.418 L 609.706 132.720 L 611.637 132.020 L 613.566 131.316 L 615.494 130.609 L 617.421 129.899 L 619.347 129.186 L 621.272 128.469 L 623.195 127.750 L 625.118 127.028 L 627.039 126.302 L 628.959 125.574 L 630.878 124.844 L 632.796 124.110 L 634.713 123.374 L 636.629 122.635 L 638.545 121.894 L 640.459 121.150 L 642.372 120.404 L 644.284 119.656 L 646.195 118.905 L 648.106 118.152 L 650.016 117.396 L 651.924 116.639 L 653.832 115.880 L 655.740 115.118 L 657.646 114.355 L 659.552 113.589 L 661.457 112.822 L 663.362 112.053 L 665.265 111.282 L 667.168 110.510 L 669.071 109.736 L 670.973 108.961 L 672.874 108.184 L 674.775 107.405 L 676.675 106.626 L 678.575 105.845 L 680.474 105.062 L 682.373 104.279 L 684.271 103.494 L 686.169 102.709 L 688.067 101.922 L 689.964 101.135 L 691.861 100.346 L 693.758 99.557 L 695.654 98.767 L 697.550 97.977 L 699.446 97.186 L 701.341 96.394 L 703.237 95.602 L 705.132 94.809 L 707.027 94.016 L 708.922 93.222 L 710.817 92.429 L 712.712 91.635 L 714.607 90.841 L 716.501 90.047 L 718.396 89.253 L 720.291 88.459 L 722.186 87.665 L 724.081 86.871 L 725.976 86.078 L 727.871 85.285 L 729.766 84.492 L 731.661 83.700 L 733.557 82.908 L 735.453 82.117 L 737.349 81.326 L 739.245 80.536 L 741.142 79.747 L 743.038 78.958 L 744.936 78.171 L 746.833 77.384 L 748.731 76.598 L 750.630 75.814 L 752.528 75.030 L 754.428 74.248 L 756.327 73.466 L 758.227 72.687 L 760.128 71.908 L 762.029 71.131 L 763.931 70.355 L 765.834 69.581 L 767.737 68.809 L 769.640 68.038 L 771.545 67.269 L 773.450 66.501 L 775.355 65.736 L 777.262 64.972 L 779.169 64.210 L 781.077 63.450 L 782.986 62.693 L 784.895 61.937 L 786.806 61.184 L 788.717 60.433 L 790.629 59.684 L 792.542 58.938 L 794.456 58.194 L 796.371 57.452 L 798.287 56.713 L 800.204 55.977 L 802.122 55.243 L 804.041 54.512 L 805.961 53.783 L 807.882 53.058 L 809.804 52.335 L 811.728 51.616 L 813.652 50.899 L 815.578 50.185 L 817.505 49.475 L 819.433 48.767 L 821.362 48.063 L 823.293 47.362 L 825.225 46.665 L 827.158 45.970 L 829.092 45.279 L 831.028 44.592 L 832.965 43.908 L 834.904 43.228 L 836.844 42.552 L 838.785 41.879 L 840.728 41.210 L 842.672 40.544 L 844.618 39.883 L 846.565 39.225 L 848.514 38.572 L 850.465 37.922 L 852.416 37.276 L 854.370 36.635 L 856.325 35.998 L 858.282 35.365 L 860.240 34.736 L 862.200 34.111 L 864.162 33.491 L 866.125 32.875 L 868.090 32.264 L 870.057 31.657 L 870.057 -31.657 L 868.090 -32.264 L 866.125 -32.875 L 864.162 -33.491 L 862.200 -34.111 L 860.240 -34.736 L 858.282 -35.365 L 856.325 -35.998 L 854.370 -36.635 L 852.416 -37.276 L 850.465 -37.922 L 848.514 -38.572 L 846.565 -39.225 L 844.618 -39.883 L 842.672 -40.544 L 840.728 -41.210 L 838.785 -41.879 L 836.844 -42.552 L 834.904 -43.228 L 832.965 -43.908 L 831.028 -44.592 L 829.092 -45.279 L 827.158 -45.970 L 825.225 -46.665 L 823.293 -47.362 L 821.362 -48.063 L 819.433 -48.767 L 817.505 -49.475 L 815.578 -50.185 L 813.652 -50.899 L 811.728 -51.616 L 809.804 -52.335 L 807.882 -53.058 L 805.961 -53.783 L 804.041 -54.512 L 802.122 -55.243 L 800.204 -55.977 L 798.287 -56.713 L 796.371 -57.452 L 794.456 -58.194 L 792.542 -58.938 L 790.629 -59.684 L 788.717 -60.433 L 786.806 -61.184 L 784.895 -61.937 L 782.986 -62.693 L 781.077 -63.450 L 779.169 -64.210 L 777.262 -64.972 L 775.355 -65.736 L 773.450 -66.501 L 771.545 -67.269 L 769.640 -68.038 L 767.737 -68.809 L 765.834 -69.581 L 763.931 -70.355 L 762.029 -71.131 L 760.128 -71.908 L 758.227 -72.687 L 756.327 -73.466 L 754.428 -74.248 L 752.528 -75.030 L 750.630 -75.814 L 748.731 -76.598 L 746.833 -77.384 L 744.936 -78.171 L 743.038 -78.958 L 741.142 -79.747 L 739.245 -80.536 L 737.349 -81.326 L 735.453 -82.117 L 733.557 -82.908 L 731.661 -83.700 L 729.766 -84.492 L 727.871 -85.285 L 725.976 -86.078 L 724.081 -86.871 L 722.186 -87.665 L 720.291 -88.459 L 718.396 -89.253 L 716.501 -90.047 L 714.607 -90.841 L 712.712 -91.635 L 710.817 -92.429 L 708.922 -93.222 L 707.027 -94.016 L 705.132 -94.809 L 703.237 -95.602 L 701.341 -96.394 L 699.446 -97.186 L 697.550 -97.977 L 695.654 -98.767 L 693.758 -99.557 L 691.861 -100.346 L 689.964 -101.135 L 688.067 -101.922 L 686.169 -102.709 L 684.271 -103.494 L 682.373 -104.279 L 680.474 -105.062 L 678.575 -105.845 L 676.675 -106.626 L 674.775 -107.405 L 672.874 -108.184 L 670.973 -108.961 L 669.071 -109.736 L 667.168 -110.510 L 665.265 -111.282 L 663.362 -112.053 L 661.457 -112.822 L 659.552 -113.589 L 657.646 -114.355 L 655.740 -115.118 L 653.832 -115.880 L 651.924 -116.639 L 650.016 -117.396 L 648.106 -118.152 L 646.195 -118.905 L 644.284 -119.656 L 642.372 -120.404 L 640.459 -121.150 L 638.545 -121.894 L 636.629 -122.635 L 634.713 -123.374 L 632.796 -124.110 L 630.878 -124.844 L 628.959 -125.574 L 627.039 -126.302 L 625.118 -127.028 L 623.195 -127.750 L 621.272 -128.469 L 619.347 -129.186 L 617.421 -129.899 L 615.494 -130.609 L 613.566 -131.316 L 611.637 -132.020 L 609.706 -132.720 L 607.774 -133.418 L 605.841 -134.111 L 603.906 -134.802 L 601.970 -135.489 L 600.033 -136.172 L 598.094 -136.852 L 596.154 -137.528 L 594.212 -138.200 L 592.269 -138.869 L 590.325 -139.534 L 588.379 -140.195 L 586.431 -140.852 L 584.482 -141.505 L 582.532 -142.154 L 580.580 -142.800 L 578.626 -143.441 L 576.671 -144.077 L 574.714 -144.710 L 572.755 -145.338 L 570.795 -145.962 L 568.833 -146.582 L 566.869 -147.197 L 564.904 -147.808 L 562.937 -148.414 L 560.968 -149.016 L 558.998 -149.613 L 557.026 -150.206 L 555.051 -150.794 L 553.075 -151.377 L 551.098 -151.955 L 549.118 -152.529 L 547.136 -153.097 L 545.153 -153.661 L 543.168 -154.220 L 541.180 -154.774 L 539.191 -155.323 L 537.200 -155.866 L 535.207 -156.405 L 533.212 -156.938 L 531.215 -157.466 L 529.216 -157.989 L 527.214 -158.507 L 525.211 -159.019 L 523.206 -159.526 L 521.198 -160.028 L 519.189 -160.524 L 517.177 -161.014 L 515.164 -161.499 L 513.148 -161.979 L 511.130 -162.453 L 509.109 -162.921 L 507.087 -163.383 L 505.062 -163.840 L 503.036 -164.291 L 501.007 -164.737 L 498.975 -165.176 L 496.942 -165.610 L 494.906 -166.037 L 492.868 -166.459 L 490.827 -166.875 L 488.785 -167.285 L 486.740 -167.689 L 484.692 -168.087 L 482.643 -168.479 L 480.591 -168.864 L 478.536 -169.244 L 476.480 -169.617 L 474.421 -169.984 L 472.359 -170.345 L 470.295 -170.700 L 468.229 -171.048 L 466.160 -171.390 L 464.089 -171.726 L 462.015 -172.055 L 459.939 -172.378 L 457.860 -172.695 L 455.779 -173.005 L 453.696 -173.309 L 451.609 -173.606 L 449.521 -173.897 L 447.430 -174.181 L 445.336 -174.458 L 443.240 -174.729 L 441.141 -174.994 L 439.040 -175.252 L 436.936 -175.503 L 434.830 -175.747 L 432.721 -175.985 L 430.609 -176.216 L 428.495 -176.441 L 426.379 -176.659 L 424.259 -176.870 L 422.137 -177.074 L 420.013 -177.271 L 417.886 -177.462 L 415.756 -177.646 L 413.624 -177.823 L 411.489 -177.993 L 409.351 -178.156 L 407.211 -178.313 L 405.068 -178.462 L 402.922 -178.605 L 400.774 -178.741 L 398.623 -178.870 L 396.470 -178.992 L 394.313 -179.107 L 392.155 -179.215 L 389.993 -179.316 L 387.829 -179.410 L 385.662 -179.498 L 383.492 -179.578 L 381.320 -179.651 L 379.145 -179.718 L 376.967 -179.777 L 374.787 -179.829 L 372.604 -179.875 L 370.418 -179.913 L 368.230 -179.944 L 366.038 -179.969 L 363.845 -179.986 L 361.648 -179.997 L 359.449 -180.000 L 357.246 -179.995 L 355.040 -179.981 L 352.831 -179.958 L 350.618 -179.925 L 348.401 -179.884 L 346.181 -179.832 L 343.957 -179.772 L 341.730 -179.703 L 339.499 -179.624 L 337.265 -179.536 L 335.027 -179.439 L 332.785 -179.332 L 330.540 -179.217 L 328.292 -179.092 L 326.040 -178.958 L 323.784 -178.815 L 321.525 -178.663 L 319.262 -178.502 L 316.996 -178.332 L 314.726 -178.152 L 312.453 -177.964 L 310.177 -177.766 L 307.897 -177.559 L 305.613 -177.344 L 303.326 -177.119 L 301.035 -176.886 L 298.742 -176.643 L 296.444 -176.392 L 294.143 -176.132 L 291.839 -175.862 L 289.532 -175.584 L 287.221 -175.298 L 284.906 -175.002 L 282.589 -174.698 L 280.268 -174.385 L 277.943 -174.063 L 275.615 -173.733 L 273.284 -173.394 L 270.950 -173.047 L 268.612 -172.691 L 266.271 -172.326 L 263.927 -171.953 L 261.580 -171.572 L 259.229 -171.182 L 256.875 -170.784 L 254.518 -170.377 L 252.158 -169.963 L 249.794 -169.540 L 247.428 -169.108 L 245.058 -168.669 L 242.685 -168.222 L 240.309 -167.766 L 237.930 -167.303 L 235.548 -166.832 L 233.163 -166.352 L 230.775 -165.865 L 228.384 -165.370 L 225.990 -164.868 L 223.593 -164.357 L 221.193 -163.839 L 218.790 -163.314 L 216.384 -162.781 L 213.975 -162.240 L 211.564 -161.692 L 209.149 -161.137 L 206.732 -160.574 L 204.312 -160.004 L 201.889 -159.427 L 199.464 -158.843 L 197.035 -158.251 L 194.604 -157.653 L 192.171 -157.047 L 189.734 -156.435 L 187.295 -155.816 L 184.854 -155.190 L 182.410 -154.558 L 179.963 -153.918 L 177.514 -153.273 L 175.062 -152.620 L 172.608 -151.962 L 170.151 -151.296 L 167.692 -150.625 L 165.230 -149.947 L 162.766 -149.264 L 160.300 -148.574 L 157.832 -147.878 L 155.361 -147.176 L 152.888 -146.468 L 150.412 -145.755 L 147.935 -145.035 L 145.455 -144.310 L 142.973 -143.580 L 140.489 -142.844 L 138.003 -142.102 L 135.515 -141.356 L 133.025 -140.603 L 130.533 -139.846 L 128.038 -139.084 L 125.542 -138.316 L 123.044 -137.544 L 120.544 -136.766 L 118.043 -135.984 L 115.539 -135.197 L 113.034 -134.406 L 110.526 -133.610 L 108.018 -132.809 L 105.507 -132.004 L 102.995 -131.195 L 100.481 -130.381 L 97.966 -129.564 L 95.448 -128.742 L 92.930 -127.916 L 90.410 -127.086 L 87.888 -126.253 L 85.365 -125.416 L 82.841 -124.575 L 80.315 -123.731 L 77.788 -122.883 L 75.260 -122.032 L 72.730 -121.177 L 70.199 -120.319 L 67.667 -119.458 L 65.134 -118.595 L 62.600 -117.728 L 60.064 -116.858 L 57.528 -115.986 L 54.990 -115.110 L 52.452 -114.233 L 49.912 -113.353 L 47.372 -112.470 L 44.830 -111.585 L 42.288 -110.698 L 39.745 -109.809 L 37.201 -108.918 L 34.657 -108.024 L 32.112 -107.129 L 29.566 -106.232 L 27.019 -105.334 L 24.472 -104.434 L 21.924 -103.532 L 19.376 -102.629 L 16.827 -101.725 Z" fill="#e4d4b5" stroke="#222" stroke-width="3.0"/>
<line x1="12.700" y1="0" x2="838.784" y2="0" stroke="#2e8b57" stroke-width="3.0"/>
<rect x="12.700" y="-19.500" width="73.394" height="39.000" fill="#d4c59c" stroke="#222" stroke-width="1.2"/>
<circle cx="101.698" cy="0" r="2" fill="#2e8b57"/>
<circle cx="119.633" cy="0" r="2" fill="#2e8b57"/>
<circle cx="137.567" cy="0" r="2" fill="#2e8b57"/>
<circle cx="155.509" cy="0" r="2" fill="#2e8b57"/>
<circle cx="173.455" cy="0" r="2" fill="#2e8b57"/>
<circle cx="191.389" cy="0" r="2" fill="#2e8b57"/>
<circle cx="209.324" cy="0" r="2" fill="#2e8b57"/>
<circle cx="227.259" cy="0" r="2" fill="#2e8b57"/>
<circle cx="245.201" cy="0" r="2" fill="#2e8b57"/>
<circle cx="263.135" cy="0" r="2" fill="#2e8b57"/>
<circle cx="281.081" cy="0" r="2" fill="#2e8b57"/>
<circle cx="299.016" cy="0" r="2" fill="#2e8b57"/>
<circle cx="316.443" cy="0" r="2" fill="#2e8b57"/>
<circle cx="333.858" cy="0" r="2" fill="#2e8b57"/>
<circle cx="351.285" cy="0" r="2" fill="#2e8b57"/>
<circle cx="368.712" cy="0" r="2" fill="#2e8b57"/>
<circle cx="385.111" cy="0" r="2" fill="#2e8b57"/>
<circle cx="401.522" cy="0" r="2" fill="#2e8b57"/>
<circle cx="417.914" cy="0" r="2" fill="#2e8b57"/>
<circle cx="433.298" cy="0" r="2" fill="#2e8b57"/>
<circle cx="448.663" cy="0" r="2" fill="#2e8b57"/>
<circle cx="464.039" cy="0" r="2" fill="#2e8b57"/>
<circle cx="479.423" cy="0" r="2" fill="#2e8b57"/>
<circle cx="494.799" cy="0" r="2" fill="#2e8b57"/>
<circle cx="510.165" cy="0" r="2" fill="#2e8b57"/>
<circle cx="525.540" cy="0" r="2" fill="#2e8b57"/>
<circle cx="539.890" cy="0" r="2" fill="#2e8b57"/>
<circle cx="554.239" cy="0" r="2" fill="#2e8b57"/>
<circle cx="568.588" cy="0" r="2" fill="#2e8b57"/>
<circle cx="582.937" cy="0" r="2" fill="#2e8b57"/>
<circle cx="597.286" cy="0" r="2" fill="#2e8b57"/>
<circle cx="611.636" cy="0" r="2" fill="#2e8b57"/>
<circle cx="625.985" cy="0" r="2" fill="#2e8b57"/>
<circle cx="639.318" cy="0" r="2" fill="#2e8b57"/>
<circle cx="652.644" cy="0" r="2" fill="#2e8b57"/>
<circle cx="665.966" cy="0" r="2" fill="#2e8b57"/>
<circle cx="679.299" cy="0" r="2" fill="#2e8b57"/>
<circle cx="692.614" cy="0" r="2" fill="#2e8b57"/>
<circle cx="705.947" cy="0" r="2" fill="#2e8b57"/>
<circle cx="719.274" cy="0" r="2" fill="#2e8b57"/>
<circle cx="732.595" cy="0" r="2" fill="#2e8b57"/>
<circle cx="745.929" cy="0" r="2" fill="#2e8b57"/>
<circle cx="759.244" cy="0" r="2" fill="#2e8b57"/>
<circle cx="772.577" cy="0" r="2" fill="#2e8b57"/>
<circle cx="785.891" cy="0" r="2" fill="#2e8b57"/>
<circle cx="799.224" cy="0" r="2" fill="#2e8b57"/>
<circle cx="812.546" cy="0" r="2" fill="#2e8b57"/>
<rect x="31.746" y="6.350" width="874.886" height="6.000" fill="#c79568" stroke="#8b4513" stroke-width="1.2"/>
<rect x="31.746" y="-12.350" width="874.886" height="6.000" fill="#c79568" stroke="#8b4513" stroke-width="1.2"/>
<circle cx="101.700" cy="0" r="1.000" fill="#c00000"/>
<circle cx="119.632" cy="0" r="1.000" fill="#888"/>
<circle cx="137.565" cy="0" r="1.000" fill="#888"/>
<circle cx="155.523" cy="0" r="1.000" fill="#1060d0"/>
<circle cx="173.455" cy="0" r="1.000" fill="#888"/>
<circle cx="191.387" cy="0" r="1.000" fill="#888"/>
<circle cx="209.320" cy="0" r="1.000" fill="#888"/>
<circle cx="227.252" cy="0" r="1.000" fill="#c00000"/>
<circle cx="245.210" cy="0" r="1.000" fill="#888"/>
<circle cx="263.142" cy="0" r="1.321" fill="#888"/>
<circle cx="281.075" cy="0" r="1.244" fill="#1060d0"/>
<circle cx="299.007" cy="0" r="1.169" fill="#888"/>
<circle cx="316.432" cy="0" r="1.092" fill="#888"/>
<circle cx="333.856" cy="0" r="1.028" fill="#888"/>
<circle cx="351.280" cy="0" r="1.028" fill="#c00000"/>
<circle cx="368.705" cy="0" r="1.000" fill="#888"/>
<circle cx="385.113" cy="0" r="1.000" fill="#888"/>
<circle cx="401.522" cy="0" r="1.000" fill="#1060d0"/>
<circle cx="417.905" cy="0" r="1.000" fill="#888"/>
<circle cx="433.297" cy="0" r="1.000" fill="#888"/>
<circle cx="448.664" cy="0" r="1.000" fill="#888"/>
<circle cx="464.031" cy="0" r="1.000" fill="#c00000"/>
<circle cx="479.423" cy="0" r="1.000" fill="#888"/>
<circle cx="494.790" cy="0" r="1.000" fill="#888"/>
<circle cx="510.157" cy="0" r="1.000" fill="#1060d0"/>
<circle cx="525.524" cy="0" r="1.000" fill="#888"/>
<circle cx="539.875" cy="0" r="1.000" fill="#888"/>
<circle cx="554.226" cy="0" r="1.000" fill="#888"/>
<circle cx="568.577" cy="0" r="1.000" fill="#c00000"/>
<circle cx="582.928" cy="0" r="1.000" fill="#888"/>
<circle cx="597.279" cy="0" r="1.000" fill="#888"/>
<circle cx="611.630" cy="0" r="1.000" fill="#1060d0"/>
<circle cx="625.981" cy="0" r="1.000" fill="#888"/>
<circle cx="639.316" cy="0" r="1.000" fill="#888"/>
<circle cx="652.626" cy="0" r="1.000" fill="#888"/>
<circle cx="665.961" cy="0" r="1.000" fill="#c00000"/>
<circle cx="679.296" cy="0" r="1.000" fill="#888"/>
<circle cx="692.606" cy="0" r="1.000" fill="#888"/>
<circle cx="705.941" cy="0" r="1.000" fill="#1060d0"/>
<circle cx="719.250" cy="0" r="1.000" fill="#888"/>
<circle cx="732.585" cy="0" r="1.000" fill="#888"/>
<circle cx="745.920" cy="0" r="1.000" fill="#888"/>
<circle cx="759.230" cy="0" r="1.000" fill="#c00000"/>
<circle cx="772.565" cy="0" r="1.000" fill="#888"/>
<circle cx="785.874" cy="0" r="1.000" fill="#888"/>
<circle cx="799.209" cy="0" r="1.000" fill="#1060d0"/>
<circle cx="812.544" cy="0" r="1.000" fill="#888"/>
<rect x="95.400" y="-31.750" width="12.600" height="19.400" fill="#d46a3a" fill-opacity="0.55" stroke="#000" stroke-width="0.3"/>
<circle cx="101.700" cy="-9.350" r="8.000" fill="#fff" stroke="#888" stroke-width="0.4"/>
<circle cx="101.700" cy="-9.350" r="3.250" fill="#fff" stroke="#3366cc" stroke-width="0.4"/>
<circle cx="101.700" cy="-9.350" r="3.250" fill="#fff" stroke="#cc3333" stroke-width="0.4"/>
<circle cx="101.700" cy="0" r="1.0" fill="#222"/>
<rect x="113.332" y="12.350" width="12.600" height="19.400" fill="#3a6fd4" fill-opacity="0.55" stroke="#000" stroke-width="0.3"/>
<circle cx="119.632" cy="9.350" r="8.000" fill="#fff" stroke="#888" stroke-width="0.4"/>
<circle cx="119.632" cy="9.350" r="3.250" fill="#fff" stroke="#3366cc" stroke-width="0.4"/>
<circle cx="119.632" cy="9.350" r="3.250" fill="#fff" stroke="#cc3333" stroke-width="0.4"/>
<circle cx="119.632" cy="0" r="1.0" fill="#222"/>
<rect x="131.265" y="-31.750" width="12.600" height="19.400" fill="#d46a3a" fill-opacity="0.55" stroke="#000" stroke-width="0.3"/>
<circle cx="137.565" cy="-9.350" r="8.000" fill="#fff" stroke="#888" stroke-width="0.4"/>
<circle cx="137.565" cy="-9.350" r="3.250" fill="#fff" stroke="#3366cc" stroke-width="0.4"/>
<circle cx="137.565" cy="-9.350" r="3.250" fill="#fff" stroke="#cc3333" stroke-width="0.4"/>
<circle cx="137.565" cy="0" r="1.0" fill="#222"/>
<rect x="149.223" y="12.350" width="12.600" height="19.400" fill="#3a6fd4" fill-opacity="0.55" stroke="#000" stroke-width="0.3"/>
<circle cx="155.523" cy="9.350" r="8.000" fill="#fff" stroke="#888" stroke-width="0.4"/>
<circle cx="155.523" cy="9.350" r="3.250" fill="#fff" stroke="#3366cc" stroke-width="0.4"/>
<circle cx="155.523" cy="9.350" r="3.250" fill="#fff" stroke="#cc3333" stroke-width="0.4"/>
<circle cx="155.523" cy="0" r="1.0" fill="#222"/>
<rect x="167.155" y="-31.750" width="12.600" height="19.400" fill="#d46a3a" fill-opacity="0.55" stroke="#000" stroke-width="0.3"/>
<circle cx="173.455" cy="-9.350" r="8.000" fill="#fff" stroke="#888" stroke-width="0.4"/>
<circle cx="173.455" cy="-9.350" r="3.250" fill="#fff" stroke="#3366cc" stroke-width="0.4"/>
<circle cx="173.455" cy="-9.350" r="3.250" fill="#fff" stroke="#cc3333" stroke-width="0.4"/>
<circle cx="173.455" cy="0" r="1.0" fill="#222"/>
<rect x="185.087" y="12.350" width="12.600" height="19.400" fill="#3a6fd4" fill-opacity="0.55" stroke="#000" stroke-width="0.3"/>
<circle cx="191.387" cy="9.350" r="8.000" fill="#fff" stroke="#888" stroke-width="0.4"/>
<circle cx="191.387" cy="9.350" r="3.250" fill="#fff" stroke="#3366cc" stroke-width="0.4"/>
<circle cx="191.387" cy="9.350" r="3.250" fill="#fff" stroke="#cc3333" stroke-width="0.4"/>
<circle cx="191.387" cy="0" r="1.0" fill="#222"/>
<rect x="203.020" y="-31.750" width="12.600" height="19.400" fill="#d46a3a" fill-opacity="0.55" stroke="#000" stroke-width="0.3"/>
<circle cx="209.320" cy="-9.350" r="8.000" fill="#fff" stroke="#888" stroke-width="0.4"/>
<circle cx="209.320" cy="-9.350" r="3.250" fill="#fff" stroke="#3366cc" stroke-width="0.4"/>
<circle cx="209.320" cy="-9.350" r="3.250" fill="#fff" stroke="#cc3333" stroke-width="0.4"/>
<circle cx="209.320" cy="0" r="1.0" fill="#222"/>
<rect x="220.952" y="12.350" width="12.600" height="19.400" fill="#3a6fd4" fill-opacity="0.55" stroke="#000" stroke-width="0.3"/>
<circle cx="227.252" cy="9.350" r="8.000" fill="#fff" stroke="#888" stroke-width="0.4"/>
<circle cx="227.252" cy="9.350" r="3.250" fill="#fff" stroke="#3366cc" stroke-width="0.4"/>
<circle cx="227.252" cy="9.350" r="3.250" fill="#fff" stroke="#cc3333" stroke-width="0.4"/>
<circle cx="227.252" cy="0" r="1.0" fill="#222"/>
<rect x="238.910" y="-31.750" width="12.600" height="19.400" fill="#d46a3a" fill-opacity="0.55" stroke="#000" stroke-width="0.3"/>
<circle cx="245.210" cy="-9.350" r="8.000" fill="#fff" stroke="#888" stroke-width="0.4"/>
<circle cx="245.210" cy="-9.350" r="3.250" fill="#fff" stroke="#3366cc" stroke-width="0.4"/>
<circle cx="245.210" cy="-9.350" r="3.250" fill="#fff" stroke="#cc3333" stroke-width="0.4"/>
<circle cx="245.210" cy="0" r="1.0" fill="#222"/>
<rect x="256.842" y="12.350" width="12.600" height="19.400" fill="#3a6fd4" fill-opacity="0.55" stroke="#000" stroke-width="0.3"/>
<circle cx="263.142" cy="9.350" r="8.000" fill="#fff" stroke="#888" stroke-width="0.4"/>
<circle cx="263.142" cy="9.350" r="3.250" fill="#fff" stroke="#3366cc" stroke-width="0.4"/>
<circle cx="263.142" cy="9.350" r="3.250" fill="#fff" stroke="#cc3333" stroke-width="0.4"/>
<circle cx="263.142" cy="0" r="1.0" fill="#222"/>
<rect x="274.775" y="-31.750" width="12.600" height="19.400" fill="#d46a3a" fill-opacity="0.55" stroke="#000" stroke-width="0.3"/>
<circle cx="281.075" cy="-9.350" r="8.000" fill="#fff" stroke="#888" stroke-width="0.4"/>
<circle cx="281.075" cy="-9.350" r="3.250" fill="#fff" stroke="#3366cc" stroke-width="0.4"/>
<circle cx="281.075" cy="-9.350" r="3.250" fill="#fff" stroke="#cc3333" stroke-width="0.4"/>
<circle cx="281.075" cy="0" r="1.0" fill="#222"/>
<rect x="292.707" y="12.350" width="12.600" height="19.400" fill="#3a6fd4" fill-opacity="0.55" stroke="#000" stroke-width="0.3"/>
<circle cx="299.007" cy="9.350" r="8.000" fill="#fff" stroke="#888" stroke-width="0.4"/>
<circle cx="299.007" cy="9.350" r="3.250" fill="#fff" stroke="#3366cc" stroke-width="0.4"/>
<circle cx="299.007" cy="9.350" r="3.250" fill="#fff" stroke="#cc3333" stroke-width="0.4"/>
<circle cx="299.007" cy="0" r="1.0" fill="#222"/>
<rect x="310.132" y="-31.750" width="12.600" height="19.400" fill="#d46a3a" fill-opacity="0.55" stroke="#000" stroke-width="0.3"/>
<circle cx="316.432" cy="-9.350" r="8.000" fill="#fff" stroke="#888" stroke-width="0.4"/>
<circle cx="316.432" cy="-9.350" r="3.250" fill="#fff" stroke="#3366cc" stroke-width="0.4"/>
<circle cx="316.432" cy="-9.350" r="3.250" fill="#fff" stroke="#cc3333" stroke-width="0.4"/>
<circle cx="316.432" cy="0" r="1.0" fill="#222"/>
<rect x="327.556" y="12.350" width="12.600" height="19.400" fill="#3a6fd4" fill-opacity="0.55" stroke="#000" stroke-width="0.3"/>
<circle cx="333.856" cy="9.350" r="8.000" fill="#fff" stroke="#888" stroke-width="0.4"/>
<circle cx="333.856" cy="9.350" r="3.250" fill="#fff" stroke="#3366cc" stroke-width="0.4"/>
<circle cx="333.856" cy="9.350" r="3.250" fill="#fff" stroke="#cc3333" stroke-width="0.4"/>
<circle cx="333.856" cy="0" r="1.0" fill="#222"/>
<rect x="344.980" y="-31.750" width="12.600" height="19.400" fill="#d46a3a" fill-opacity="0.55" stroke="#000" stroke-width="0.3"/>
<circle cx="351.280" cy="-9.350" r="8.000" fill="#fff" stroke="#888" stroke-width="0.4"/>
<circle cx="351.280" cy="-9.350" r="3.250" fill="#fff" stroke="#3366cc" stroke-width="0.4"/>
<circle cx="351.280" cy="-9.350" r="3.250" fill="#fff" stroke="#cc3333" stroke-width="0.4"/>
<circle cx="351.280" cy="0" r="1.0" fill="#222"/>
<rect x="362.405" y="12.350" width="12.600" height="19.400" fill="#3a6fd4" fill-opacity="0.55" stroke="#000" stroke-width="0.3"/>
<circle cx="368.705" cy="9.350" r="8.000" fill="#fff" stroke="#888" stroke-width="0.4"/>
<circle cx="368.705" cy="9.350" r="3.250" fill="#fff" stroke="#3366cc" stroke-width="0.4"/>
<circle cx="368.705" cy="9.350" r="3.250" fill="#fff" stroke="#cc3333" stroke-width="0.4"/>
<circle cx="368.705" cy="0" r="1.0" fill="#222"/>
<rect x="378.813" y="-31.750" width="12.600" height="19.400" fill="#d46a3a" fill-opacity="0.55" stroke="#000" stroke-width="0.3"/>
<circle cx="385.113" cy="-9.350" r="8.000" fill="#fff" stroke="#888" stroke-width="0.4"/>
<circle cx="385.113" cy="-9.350" r="3.250" fill="#fff" stroke="#3366cc" stroke-width="0.4"/>
<circle cx="385.113" cy="-9.350" r="3.250" fill="#fff" stroke="#cc3333" stroke-width="0.4"/>
<circle cx="385.113" cy="0" r="1.0" fill="#222"/>
<rect x="395.222" y="12.350" width="12.600" height="19.400" fill="#3a6fd4" fill-opacity="0.55" stroke="#000" stroke-width="0.3"/>
<circle cx="401.522" cy="9.350" r="8.000" fill="#fff" stroke="#888" stroke-width="0.4"/>
<circle cx="401.522" cy="9.350" r="3.250" fill="#fff" stroke="#3366cc" stroke-width="0.4"/>
<circle cx="401.522" cy="9.350" r="3.250" fill="#fff" stroke="#cc3333" stroke-width="0.4"/>
<circle cx="401.522" cy="0" r="1.0" fill="#222"/>
<rect x="411.605" y="-31.750" width="12.600" height="19.400" fill="#d46a3a" fill-opacity="0.55" stroke="#000" stroke-width="0.3"/>
<circle cx="417.905" cy="-9.350" r="8.000" fill="#fff" stroke="#888" stroke-width="0.4"/>
<circle cx="417.905" cy="-9.350" r="3.250" fill="#fff" stroke="#3366cc" stroke-width="0.4"/>
<circle cx="417.905" cy="-9.350" r="3.250" fill="#fff" stroke="#cc3333" stroke-width="0.4"/>
<circle cx="417.905" cy="0" r="1.0" fill="#222"/>
<rect x="426.997" y="12.350" width="12.600" height="19.400" fill="#3a6fd4" fill-opacity="0.55" stroke="#000" stroke-width="0.3"/>
<circle cx="433.297" cy="9.350" r="8.000" fill="#fff" stroke="#888" stroke-width="0.4"/>
<circle cx="433.297" cy="9.350" r="3.250" fill="#fff" stroke="#3366cc" stroke-width="0.4"/>
<circle cx="433.297" cy="9.350" r="3.250" fill="#fff" stroke="#cc3333" stroke-width="0.4"/>
<circle cx="433.297" cy="0" r="1.0" fill="#222"/>
<rect x="442.364" y="-31.750" width="12.600" height="19.400" fill="#d46a3a" fill-opacity="0.55" stroke="#000" stroke-width="0.3"/>
<circle cx="448.664" cy="-9.350" r="8.000" fill="#fff" stroke="#888" stroke-width="0.4"/>
<circle cx="448.664" cy="-9.350" r="3.250" fill="#fff" stroke="#3366cc" stroke-width="0.4"/>
<circle cx="448.664" cy="-9.350" r="3.250" fill="#fff" stroke="#cc3333" stroke-width="0.4"/>
<circle cx="448.664" cy="0" r="1.0" fill="#222"/>
<rect x="457.731" y="12.350" width="12.600" height="19.400" fill="#3a6fd4" fill-opacity="0.55" stroke="#000" stroke-width="0.3"/>
<circle cx="464.031" cy="9.350" r="8.000" fill="#fff" stroke="#888" stroke-width="0.4"/>
<circle cx="464.031" cy="9.350" r="3.250" fill="#fff" stroke="#3366cc" stroke-width="0.4"/>
<circle cx="464.031" cy="9.350" r="3.250" fill="#fff" stroke="#cc3333" stroke-width="0.4"/>
<circle cx="464.031" cy="0" r="1.0" fill="#222"/>
<rect x="473.123" y="-31.750" width="12.600" height="19.400" fill="#d46a3a" fill-opacity="0.55" stroke="#000" stroke-width="0.3"/>
<circle cx="479.423" cy="-9.350" r="8.000" fill="#fff" stroke="#888" stroke-width="0.4"/>
<circle cx="479.423" cy="-9.350" r="3.250" fill="#fff" stroke="#3366cc" stroke-width="0.4"/>
<circle cx="479.423" cy="-9.350" r="3.250" fill="#fff" stroke="#cc3333" stroke-width="0.4"/>
<circle cx="479.423" cy="0" r="1.0" fill="#222"/>
<rect x="488.490" y="12.350" width="12.600" height="19.400" fill="#3a6fd4" fill-opacity="0.55" stroke="#000" stroke-width="0.3"/>
<circle cx="494.790" cy="9.350" r="8.000" fill="#fff" stroke="#888" stroke-width="0.4"/>
<circle cx="494.790" cy="9.350" r="3.250" fill="#fff" stroke="#3366cc" stroke-width="0.4"/>
<circle cx="494.790" cy="9.350" r="3.250" fill="#fff" stroke="#cc3333" stroke-width="0.4"/>
<circle cx="494.790" cy="0" r="1.0" fill="#222"/>
<rect x="503.857" y="-31.750" width="12.600" height="19.400" fill="#d46a3a" fill-opacity="0.55" stroke="#000" stroke-width="0.3"/>
<circle cx="510.157" cy="-9.350" r="8.000" fill="#fff" stroke="#888" stroke-width="0.4"/>
<circle cx="510.157" cy="-9.350" r="3.250" fill="#fff" stroke="#3366cc" stroke-width="0.4"/>
<circle cx="510.157" cy="-9.350" r="3.250" fill="#fff" stroke="#cc3333" stroke-width="0.4"/>
<circle cx="510.157" cy="0" r="1.0" fill="#222"/>
<rect x="519.224" y="12.350" width="12.600" height="19.400" fill="#3a6fd4" fill-opacity="0.55" stroke="#000" stroke-width="0.3"/>
<circle cx="525.524" cy="9.350" r="8.000" fill="#fff" stroke="#888" stroke-width="0.4"/>
<circle cx="525.524" cy="9.350" r="3.250" fill="#fff" stroke="#3366cc" stroke-width="0.4"/>
<circle cx="525.524" cy="9.350" r="3.250" fill="#fff" stroke="#cc3333" stroke-width="0.4"/>
<circle cx="525.524" cy="0" r="1.0" fill="#222"/>
<rect x="533.575" y="-31.750" width="12.600" height="19.400" fill="#d46a3a" fill-opacity="0.55" stroke="#000" stroke-width="0.3"/>
<circle cx="539.875" cy="-9.350" r="8.000" fill="#fff" stroke="#888" stroke-width="0.4"/>
<circle cx="539.875" cy="-9.350" r="3.250" fill="#fff" stroke="#3366cc" stroke-width="0.4"/>
<circle cx="539.875" cy="-9.350" r="3.250" fill="#fff" stroke="#cc3333" stroke-width="0.4"/>
<circle cx="539.875" cy="0" r="1.0" fill="#222"/>
<rect x="547.926" y="12.350" width="12.600" height="19.400" fill="#3a6fd4" fill-opacity="0.55" stroke="#000" stroke-width="0.3"/>
<circle cx="554.226" cy="9.350" r="8.000" fill="#fff" stroke="#888" stroke-width="0.4"/>
<circle cx="554.226" cy="9.350" r="3.250" fill="#fff" stroke="#3366cc" stroke-width="0.4"/>
<circle cx="554.226" cy="9.350" r="3.250" fill="#fff" stroke="#cc3333" stroke-width="0.4"/>
<circle cx="554.226" cy="0" r="1.0" fill="#222"/>
<rect x="562.277" y="-31.750" width="12.600" height="19.400" fill="#d46a3a" fill-opacity="0.55" stroke="#000" stroke-width="0.3"/>
<circle cx="568.577" cy="-9.350" r="8.000" fill="#fff" stroke="#888" stroke-width="0.4"/>
<circle cx="568.577" cy="-9.350" r="3.250" fill="#fff" stroke="#3366cc" stroke-width="0.4"/>
<circle cx="568.577" cy="-9.350" r="3.250" fill="#fff" stroke="#cc3333" stroke-width="0.4"/>
<circle cx="568.577" cy="0" r="1.0" fill="#222"/>
<rect x="576.628" y="12.350" width="12.600" height="19.400" fill="#3a6fd4" fill-opacity="0.55" stroke="#000" stroke-width="0.3"/>
<circle cx="582.928" cy="9.350" r="8.000" fill="#fff" stroke="#888" stroke-width="0.4"/>
<circle cx="582.928" cy="9.350" r="3.250" fill="#fff" stroke="#3366cc" stroke-width="0.4"/>
<circle cx="582.928" cy="9.350" r="3.250" fill="#fff" stroke="#cc3333" stroke-width="0.4"/>
<circle cx="582.928" cy="0" r="1.0" fill="#222"/>
<rect x="590.979" y="-31.750" width="12.600" height="19.400" fill="#d46a3a" fill-opacity="0.55" stroke="#000" stroke-width="0.3"/>
<circle cx="597.279" cy="-9.350" r="8.000" fill="#fff" stroke="#888" stroke-width="0.4"/>
<circle cx="597.279" cy="-9.350" r="3.250" fill="#fff" stroke="#3366cc" stroke-width="0.4"/>
<circle cx="597.279" cy="-9.350" r="3.250" fill="#fff" stroke="#cc3333" stroke-width="0.4"/>
<circle cx="597.279" cy="0" r="1.0" fill="#222"/>
<rect x="605.330" y="12.350" width="12.600" height="19.400" fill="#3a6fd4" fill-opacity="0.55" stroke="#000" stroke-width="0.3"/>
<circle cx="611.630" cy="9.350" r="8.000" fill="#fff" stroke="#888" stroke-width="0.4"/>
<circle cx="611.630" cy="9.350" r="3.250" fill="#fff" stroke="#3366cc" stroke-width="0.4"/>
<circle cx="611.630" cy="9.350" r="3.250" fill="#fff" stroke="#cc3333" stroke-width="0.4"/>
<circle cx="611.630" cy="0" r="1.0" fill="#222"/>
<rect x="619.681" y="-31.750" width="12.600" height="19.400" fill="#d46a3a" fill-opacity="0.55" stroke="#000" stroke-width="0.3"/>
<circle cx="625.981" cy="-9.350" r="8.000" fill="#fff" stroke="#888" stroke-width="0.4"/>
<circle cx="625.981" cy="-9.350" r="3.250" fill="#fff" stroke="#3366cc" stroke-width="0.4"/>
<circle cx="625.981" cy="-9.350" r="3.250" fill="#fff" stroke="#cc3333" stroke-width="0.4"/>
<circle cx="625.981" cy="0" r="1.0" fill="#222"/>
<rect x="633.016" y="12.350" width="12.600" height="19.400" fill="#3a6fd4" fill-opacity="0.55" stroke="#000" stroke-width="0.3"/>
<circle cx="639.316" cy="9.350" r="8.000" fill="#fff" stroke="#888" stroke-width="0.4"/>
<circle cx="639.316" cy="9.350" r="3.250" fill="#fff" stroke="#3366cc" stroke-width="0.4"/>
<circle cx="639.316" cy="9.350" r="3.250" fill="#fff" stroke="#cc3333" stroke-width="0.4"/>
<circle cx="639.316" cy="0" r="1.0" fill="#222"/>
<rect x="646.326" y="-31.750" width="12.600" height="19.400" fill="#d46a3a" fill-opacity="0.55" stroke="#000" stroke-width="0.3"/>
<circle cx="652.626" cy="-9.350" r="8.000" fill="#fff" stroke="#888" stroke-width="0.4"/>
<circle cx="652.626" cy="-9.350" r="3.250" fill="#fff" stroke="#3366cc" stroke-width="0.4"/>
<circle cx="652.626" cy="-9.350" r="3.250" fill="#fff" stroke="#cc3333" stroke-width="0.4"/>
<circle cx="652.626" cy="0" r="1.0" fill="#222"/>
<rect x="659.661" y="12.350" width="12.600" height="19.400" fill="#3a6fd4" fill-opacity="0.55" stroke="#000" stroke-width="0.3"/>
<circle cx="665.961" cy="9.350" r="8.000" fill="#fff" stroke="#888" stroke-width="0.4"/>
<circle cx="665.961" cy="9.350" r="3.250" fill="#fff" stroke="#3366cc" stroke-width="0.4"/>
<circle cx="665.961" cy="9.350" r="3.250" fill="#fff" stroke="#cc3333" stroke-width="0.4"/>
<circle cx="665.961" cy="0" r="1.0" fill="#222"/>
<rect x="672.996" y="-31.750" width="12.600" height="19.400" fill="#d46a3a" fill-opacity="0.55" stroke="#000" stroke-width="0.3"/>
<circle cx="679.296" cy="-9.350" r="8.000" fill="#fff" stroke="#888" stroke-width="0.4"/>
<circle cx="679.296" cy="-9.350" r="3.250" fill="#fff" stroke="#3366cc" stroke-width="0.4"/>
<circle cx="679.296" cy="-9.350" r="3.250" fill="#fff" stroke="#cc3333" stroke-width="0.4"/>
<circle cx="679.296" cy="0" r="1.0" fill="#222"/>
<rect x="686.306" y="12.350" width="12.600" height="19.400" fill="#3a6fd4" fill-opacity="0.55" stroke="#000" stroke-width="0.3"/>
<circle cx="692.606" cy="9.350" r="8.000" fill="#fff" stroke="#888" stroke-width="0.4"/>
<circle cx="692.606" cy="9.350" r="3.250" fill="#fff" stroke="#3366cc" stroke-width="0.4"/>
<circle cx="692.606" cy="9.350" r="3.250" fill="#fff" stroke="#cc3333" stroke-width="0.4"/>
<circle cx="692.606" cy="0" r="1.0" fill="#222"/>
<rect x="699.641" y="-31.750" width="12.600" height="19.400" fill="#d46a3a" fill-opacity="0.55" stroke="#000" stroke-width="0.3"/>
<circle cx="705.941" cy="-9.350" r="8.000" fill="#fff" stroke="#888" stroke-width="0.4"/>
<circle cx="705.941" cy="-9.350" r="3.250" fill="#fff" stroke="#3366cc" stroke-width="0.4"/>
<circle cx="705.941" cy="-9.350" r="3.250" fill="#fff" stroke="#cc3333" stroke-width="0.4"/>
<circle cx="705.941" cy="0" r="1.0" fill="#222"/>
<rect x="712.950" y="12.350" width="12.600" height="19.400" fill="#3a6fd4" fill-opacity="0.55" stroke="#000" stroke-width="0.3"/>
<circle cx="719.250" cy="9.350" r="8.000" fill="#fff" stroke="#888" stroke-width="0.4"/>
<circle cx="719.250" cy="9.350" r="3.250" fill="#fff" stroke="#3366cc" stroke-width="0.4"/>
<circle cx="719.250" cy="9.350" r="3.250" fill="#fff" stroke="#cc3333" stroke-width="0.4"/>
<circle cx="719.250" cy="0" r="1.0" fill="#222"/>
<rect x="726.285" y="-31.750" width="12.600" height="19.400" fill="#d46a3a" fill-opacity="0.55" stroke="#000" stroke-width="0.3"/>
<circle cx="732.585" cy="-9.350" r="8.000" fill="#fff" stroke="#888" stroke-width="0.4"/>
<circle cx="732.585" cy="-9.350" r="3.250" fill="#fff" stroke="#3366cc" stroke-width="0.4"/>
<circle cx="732.585" cy="-9.350" r="3.250" fill="#fff" stroke="#cc3333" stroke-width="0.4"/>
<circle cx="732.585" cy="0" r="1.0" fill="#222"/>
<rect x="739.620" y="12.350" width="12.600" height="19.400" fill="#3a6fd4" fill-opacity="0.55" stroke="#000" stroke-width="0.3"/>
<circle cx="745.920" cy="9.350" r="8.000" fill="#fff" stroke="#888" stroke-width="0.4"/>
<circle cx="745.920" cy="9.350" r="3.250" fill="#fff" stroke="#3366cc" stroke-width="0.4"/>
<circle cx="745.920" cy="9.350" r="3.250" fill="#fff" stroke="#cc3333" stroke-width="0.4"/>
<circle cx="745.920" cy="0" r="1.0" fill="#222"/>
<rect x="752.930" y="-31.750" width="12.600" height="19.400" fill="#d46a3a" fill-opacity="0.55" stroke="#000" stroke-width="0.3"/>
<circle cx="759.230" cy="-9.350" r="8.000" fill="#fff" stroke="#888" stroke-width="0.4"/>
<circle cx="759.230" cy="-9.350" r="3.250" fill="#fff" stroke="#3366cc" stroke-width="0.4"/>
<circle cx="759.230" cy="-9.350" r="3.250" fill="#fff" stroke="#cc3333" stroke-width="0.4"/>
<circle cx="759.230" cy="0" r="1.0" fill="#222"/>
<rect x="766.265" y="12.350" width="12.600" height="19.400" fill="#3a6fd4" fill-opacity="0.55" stroke="#000" stroke-width="0.3"/>
<circle cx="772.565" cy="9.350" r="8.000" fill="#fff" stroke="#888" stroke-width="0.4"/>
<circle cx="772.565" cy="9.350" r="3.250" fill="#fff" stroke="#3366cc" stroke-width="0.4"/>
<circle cx="772.565" cy="9.350" r="3.250" fill="#fff" stroke="#cc3333" stroke-width="0.4"/>
<circle cx="772.565" cy="0" r="1.0" fill="#222"/>
<rect x="779.574" y="-31.750" width="12.600" height="19.400" fill="#d46a3a" fill-opacity="0.55" stroke="#000" stroke-width="0.3"/>
<circle cx="785.874" cy="-9.350" r="8.000" fill="#fff" stroke="#888" stroke-width="0.4"/>
<circle cx="785.874" cy="-9.350" r="3.250" fill="#fff" stroke="#3366cc" stroke-width="0.4"/>
<circle cx="785.874" cy="-9.350" r="3.250" fill="#fff" stroke="#cc3333" stroke-width="0.4"/>
<circle cx="785.874" cy="0" r="1.0" fill="#222"/>
<rect x="792.909" y="12.350" width="12.600" height="19.400" fill="#3a6fd4" fill-opacity="0.55" stroke="#000" stroke-width="0.3"/>
<circle cx="799.209" cy="9.350" r="8.000" fill="#fff" stroke="#888" stroke-width="0.4"/>
<circle cx="799.209" cy="9.350" r="3.250" fill="#fff" stroke="#3366cc" stroke-width="0.4"/>
<circle cx="799.209" cy="9.350" r="3.250" fill="#fff" stroke="#cc3333" stroke-width="0.4"/>
<circle cx="799.209" cy="0" r="1.0" fill="#222"/>
<rect x="806.244" y="-31.750" width="12.600" height="19.400" fill="#d46a3a" fill-opacity="0.55" stroke="#000" stroke-width="0.3"/>
<circle cx="812.544" cy="-9.350" r="8.000" fill="#fff" stroke="#888" stroke-width="0.4"/>
<circle cx="812.544" cy="-9.350" r="3.250" fill="#fff" stroke="#3366cc" stroke-width="0.4"/>
<circle cx="812.544" cy="-9.350" r="3.250" fill="#fff" stroke="#cc3333" stroke-width="0.4"/>
<circle cx="812.544" cy="0" r="1.0" fill="#222"/>
<line x1="-150" y1="0" x2="950" y2="0" stroke="#888" stroke-width="0.5" stroke-dasharray="6 4"/>
</g>
</svg>