<svg xmlns="http://www.w3.org/2000/svg" width="444" height="900" viewBox="-40 0 1000 1940" preserveAspectRatio="xMidYMid meet">
<rect x="-40.000" y="0.000" width="1000.000" height="1940.000" fill="#fff"/>
<circle cx="112.803" cy="108.463" r="12.0" fill="none" stroke="#000" stroke-width="0.4"/>
<circle cx="130.735" cy="105.009" r="12.0" fill="none" stroke="#000" stroke-width="0.4"/>
<circle cx="148.667" cy="101.554" r="12.0" fill="none" stroke="#000" stroke-width="0.4"/>
<circle cx="166.6" cy="98.1" r="12.0" fill="none" stroke="#000" stroke-width="0.4"/>
<circle cx="182.558" cy="99.675" r="12.0" fill="none" stroke="#000" stroke-width="0.4"/>
<circle cx="200.49" cy="101.275" r="12.0" fill="none" stroke="#000" stroke-width="0.4"/>
<circle cx="218.422" cy="102.875" r="12.0" fill="none" stroke="#000" stroke-width="0.4"/>
<circle cx="236.355" cy="104.475" r="12.0" fill="none" stroke="#000" stroke-width="0.4"/>
<circle cx="254.287" cy="111.13" r="12.0" fill="none" stroke="#000" stroke-width="0.4"/>
<circle cx="272.245" cy="122.814" r="12.0" fill="none" stroke="#000" stroke-width="0.4"/>
<circle cx="290.175" cy="114.28" r="12.0" fill="none" stroke="#000" stroke-width="0.4"/>
<circle cx="308.107" cy="120.935" r="12.0" fill="none" stroke="#000" stroke-width="0.4"/>
<circle cx="325.532" cy="168.788" r="12.0" fill="none" stroke="#000" stroke-width="0.4"/>
<circle cx="342.956" cy="196.474" r="12.0" fill="none" stroke="#000" stroke-width="0.4"/>
<circle cx="360.38" cy="234.219" r="12.0" fill="none" stroke="#000" stroke-width="0.4"/>
<circle cx="377.805" cy="271.988" r="12.0" fill="none" stroke="#000" stroke-width="0.4"/>
<circle cx="394.213" cy="306.355" r="12.0" fill="none" stroke="#000" stroke-width="0.4"/>
<circle cx="410.622" cy="350.779" r="12.0" fill="none" stroke="#000" stroke-width="0.4"/>
<circle cx="427.005" cy="385.145" r="12.0" fill="none" stroke="#000" stroke-width="0.4"/>
<circle cx="442.397" cy="426.166" r="12.0" fill="none" stroke="#000" stroke-width="0.4"/>
<circle cx="457.764" cy="447.02" r="12.0" fill="none" stroke="#000" stroke-width="0.4"/>
<circle cx="473.131" cy="472.928" r="12.0" fill="none" stroke="#000" stroke-width="0.4"/>
<circle cx="488.523" cy="493.756" r="12.0" fill="none" stroke="#000" stroke-width="0.4"/>
<circle cx="503.89" cy="509.529" r="12.0" fill="none" stroke="#000" stroke-width="0.4"/>
<circle cx="519.257" cy="520.299" r="12.0" fill="none" stroke="#000" stroke-width="0.4"/>
<circle cx="534.624" cy="531.043" r="12.0" fill="none" stroke="#000" stroke-width="0.4"/>
<circle cx="548.975" cy="538.384" r="12.0" fill="none" stroke="#000" stroke-width="0.4"/>
<circle cx="563.326" cy="545.699" r="12.0" fill="none" stroke="#000" stroke-width="0.4"/>
<circle cx="577.677" cy="547.985" r="12.0" fill="none" stroke="#000" stroke-width="0.4"/>
<circle cx="592.028" cy="550.271" r="12.0" fill="none" stroke="#000" stroke-width="0.4"/>
<circle cx="606.379" cy="552.557" r="12.0" fill="none" stroke="#000" stroke-width="0.4"/>
<circle cx="620.73" cy="544.734" r="12.0" fill="none" stroke="#000" stroke-width="0.4"/>
<circle cx="635.081" cy="547.02" r="12.0" fill="none" stroke="#000" stroke-width="0.4"/>
<circle cx="648.416" cy="540.847" r="12.0" fill="none" stroke="#000" stroke-width="0.4"/>
<circle cx="661.751" cy="534.675" r="12.0" fill="none" stroke="#000" stroke-width="0.4"/>
<circle cx="675.061" cy="528.503" r="12.0" fill="none" stroke="#000" stroke-width="0.4"/>
<circle cx="688.396" cy="522.331" r="12.0" fill="none" stroke="#000" stroke-width="0.4"/>
<circle cx="701.706" cy="516.159" r="12.0" fill="none" stroke="#000" stroke-width="0.4"/>
<circle cx="715.041" cy="509.986" r="12.0" fill="none" stroke="#000" stroke-width="0.4"/>
<circle cx="728.35" cy="503.789" r="12.0" fill="none" stroke="#000" stroke-width="0.4"/>
<circle cx="741.685" cy="492.587" r="12.0" fill="none" stroke="#000" stroke-width="0.4"/>
<circle cx="755.02" cy="481.335" r="12.0" fill="none" stroke="#000" stroke-width="0.4"/>
<circle cx="768.33" cy="470.134" r="12.0" fill="none" stroke="#000" stroke-width="0.4"/>
<circle cx="781.665" cy="458.882" r="12.0" fill="none" stroke="#000" stroke-width="0.4"/>
<circle cx="794.974" cy="447.68" r="12.0" fill="none" stroke="#000" stroke-width="0.4"/>
<circle cx="808.309" cy="436.453" r="12.0" fill="none" stroke="#000" stroke-width="0.4"/>
<circle cx="821.622" cy="425.227" r="12.0" fill="none" stroke="#000" stroke-width="0.4"/>
<circle cx="101.700" cy="311.844" r="12.0" fill="none" stroke="#000" stroke-width="0.4"/>
<circle cx="119.632" cy="305.635" r="12.0" fill="none" stroke="#000" stroke-width="0.4"/>
<circle cx="137.565" cy="299.426" r="12.0" fill="none" stroke="#000" stroke-width="0.4"/>
<circle cx="155.523" cy="293.217" r="12.0" fill="none" stroke="#000" stroke-width="0.4"/>
<circle cx="173.455" cy="291.486" r="12.0" fill="none" stroke="#000" stroke-width="0.4"/>
<circle cx="191.387" cy="289.780" r="12.0" fill="none" stroke="#000" stroke-width="0.4"/>
<circle cx="209.320" cy="288.074" r="12.0" fill="none" stroke="#000" stroke-width="0.4"/>
<circle cx="227.252" cy="286.368" r="12.0" fill="none" stroke="#000" stroke-width="0.4"/>
<circle cx="245.210" cy="289.166" r="12.0" fill="none" stroke="#000" stroke-width="0.4"/>
<circle cx="263.142" cy="296.444" r="12.0" fill="none" stroke="#000" stroke-width="0.4"/>
<circle cx="281.075" cy="285.707" r="12.0" fill="none" stroke="#000" stroke-width="0.4"/>
<circle cx="299.007" cy="288.504" r="12.0" fill="none" stroke="#000" stroke-width="0.4"/>
<circle cx="316.432" cy="328.094" r="12.0" fill="none" stroke="#000" stroke-width="0.4"/>
<circle cx="333.856" cy="349.719" r="12.0" fill="none" stroke="#000" stroke-width="0.4"/>
<circle cx="351.280" cy="380.303" r="12.0" fill="none" stroke="#000" stroke-width="0.4"/>
<circle cx="368.705" cy="410.909" r="12.0" fill="none" stroke="#000" stroke-width="0.4"/>
<circle cx="385.113" cy="438.664" r="12.0" fill="none" stroke="#000" stroke-width="0.4"/>
<circle cx="401.522" cy="475.376" r="12.0" fill="none" stroke="#000" stroke-width="0.4"/>
<circle cx="417.905" cy="503.130" r="12.0" fill="none" stroke="#000" stroke-width="0.4"/>
<circle cx="433.297" cy="536.990" r="12.0" fill="none" stroke="#000" stroke-width="0.4"/>
<circle cx="448.664" cy="552.886" r="12.0" fill="none" stroke="#000" stroke-width="0.4"/>
<circle cx="464.031" cy="573.282" r="12.0" fill="none" stroke="#000" stroke-width="0.4"/>
<circle cx="479.423" cy="589.153" r="12.0" fill="none" stroke="#000" stroke-width="0.4"/>
<circle cx="494.790" cy="600.520" r="12.0" fill="none" stroke="#000" stroke-width="0.4"/>
<circle cx="510.157" cy="607.432" r="12.0" fill="none" stroke="#000" stroke-width="0.4"/>
<circle cx="525.524" cy="614.319" r="12.0" fill="none" stroke="#000" stroke-width="0.4"/>
<circle cx="539.875" cy="618.354" r="12.0" fill="none" stroke="#000" stroke-width="0.4"/>
<circle cx="554.226" cy="622.365" r="12.0" fill="none" stroke="#000" stroke-width="0.4"/>
<circle cx="568.577" cy="621.897" r="12.0" fill="none" stroke="#000" stroke-width="0.4"/>
<circle cx="582.928" cy="621.428" r="12.0" fill="none" stroke="#000" stroke-width="0.4"/>
<circle cx="597.279" cy="620.960" r="12.0" fill="none" stroke="#000" stroke-width="0.4"/>
<circle cx="611.630" cy="611.485" r="12.0" fill="none" stroke="#000" stroke-width="0.4"/>
<circle cx="625.981" cy="611.016" r="12.0" fill="none" stroke="#000" stroke-width="0.4"/>
<circle cx="639.316" cy="603.189" r="12.0" fill="none" stroke="#000" stroke-width="0.4"/>
<circle cx="652.626" cy="595.363" r="12.0" fill="none" stroke="#000" stroke-width="0.4"/>
<circle cx="665.961" cy="587.539" r="12.0" fill="none" stroke="#000" stroke-width="0.4"/>
<circle cx="679.296" cy="579.713" r="12.0" fill="none" stroke="#000" stroke-width="0.4"/>
<circle cx="692.606" cy="571.889" r="12.0" fill="none" stroke="#000" stroke-width="0.4"/>
<circle cx="705.941" cy="564.062" r="12.0" fill="none" stroke="#000" stroke-width="0.4"/>
<circle cx="719.250" cy="556.213" r="12.0" fill="none" stroke="#000" stroke-width="0.4"/>
<circle cx="732.585" cy="543.908" r="12.0" fill="none" stroke="#000" stroke-width="0.4"/>
<circle cx="745.920" cy="531.556" r="12.0" fill="none" stroke="#000" stroke-width="0.4"/>
<circle cx="759.230" cy="519.252" r="12.0" fill="none" stroke="#000" stroke-width="0.4"/>
<circle cx="772.565" cy="506.900" r="12.0" fill="none" stroke="#000" stroke-width="0.4"/>
<circle cx="785.874" cy="494.595" r="12.0" fill="none" stroke="#000" stroke-width="0.4"/>
<circle cx="799.209" cy="482.265" r="12.0" fill="none" stroke="#000" stroke-width="0.4"/>
<circle cx="812.544" cy="469.939" r="12.0" fill="none" stroke="#000" stroke-width="0.4"/>
<text x="112.803" y="103.463" text-anchor="middle" font-family="sans-serif" font-size="5" fill="#000">C1</text>
<text x="130.735" y="100.009" text-anchor="middle" font-family="sans-serif" font-size="5" fill="#000">D1</text>
<text x="148.667" y="96.554" text-anchor="middle" font-family="sans-serif" font-size="5" fill="#000">E1</text>
<text x="166.600" y="93.100" text-anchor="middle" font-family="sans-serif" font-size="5" fill="#000">F1</text>
<text x="182.558" y="94.675" text-anchor="middle" font-family="sans-serif" font-size="5" fill="#000">G1</text>
<text x="200.490" y="96.275" text-anchor="middle" font-family="sans-serif" font-size="5" fill="#000">A1</text>
<text x="218.422" y="97.875" text-anchor="middle" font-family="sans-serif" font-size="5" fill="#000">B1</text>
<text x="236.355" y="99.475" text-anchor="middle" font-family="sans-serif" font-size="5" fill="#000">C2</text>
<text x="254.287" y="106.130" text-anchor="middle" font-family="sans-serif" font-size="5" fill="#000">D2</text>
<text x="272.245" y="117.814" text-anchor="middle" font-family="sans-serif" font-size="5" fill="#000">E2</text>
<text x="290.175" y="109.280" text-anchor="middle" font-family="sans-serif" font-size="5" fill="#000">F2</text>
<text x="308.107" y="115.935" text-anchor="middle" font-family="sans-serif" font-size="5" fill="#000">G2</text>
<text x="325.532" y="163.788" text-anchor="middle" font-family="sans-serif" font-size="5" fill="#000">A2</text>
<text x="342.956" y="191.474" text-anchor="middle" font-family="sans-serif" font-size="5" fill="#000">B2</text>
<text x="360.380" y="229.219" text-anchor="middle" font-family="sans-serif" font-size="5" fill="#000">C3</text>
<text x="377.805" y="266.988" text-anchor="middle" font-family="sans-serif" font-size="5" fill="#000">D3</text>
<text x="394.213" y="301.355" text-anchor="middle" font-family="sans-serif" font-size="5" fill="#000">E3</text>
<text x="410.622" y="345.779" text-anchor="middle" font-family="sans-serif" font-size="5" fill="#000">F3</text>
<text x="427.005" y="380.145" text-anchor="middle" font-family="sans-serif" font-size="5" fill="#000">G3</text>
<text x="442.397" y="421.166" text-anchor="middle" font-family="sans-serif" font-size="5" fill="#000">A3</text>
<text x="457.764" y="442.020" text-anchor="middle" font-family="sans-serif" font-size="5" fill="#000">B3</text>
<text x="473.131" y="467.928" text-anchor="middle" font-family="sans-serif" font-size="5" fill="#000">C4</text>
<text x="488.523" y="488.756" text-anchor="middle" font-family="sans-serif" font-size="5" fill="#000">D4</text>
<text x="503.890" y="504.529" text-anchor="middle" font-family="sans-serif" font-size="5" fill="#000">E4</text>
<text x="519.257" y="515.299" text-anchor="middle" font-family="sans-serif" font-size="5" fill="#000">F4</text>
<text x="534.624" y="526.043" text-anchor="middle" font-family="sans-serif" font-size="5" fill="#000">G4</text>
<text x="548.975" y="533.384" text-anchor="middle" font-family="sans-serif" font-size="5" fill="#000">A4</text>
<text x="563.326" y="540.699" text-anchor="middle" font-family="sans-serif" font-size="5" fill="#000">B4</text>
<text x="577.677" y="542.985" text-anchor="middle" font-family="sans-serif" font-size="5" fill="#000">C5</text>
<text x="592.028" y="545.271" text-anchor="middle" font-family="sans-serif" font-size="5" fill="#000">D5</text>
<text x="606.379" y="547.557" text-anchor="middle" font-family="sans-serif" font-size="5" fill="#000">E5</text>
<text x="620.730" y="539.734" text-anchor="middle" font-family="sans-serif" font-size="5" fill="#000">F5</text>
<text x="635.081" y="542.020" text-anchor="middle" font-family="sans-serif" font-size="5" fill="#000">G5</text>
<text x="648.416" y="535.847" text-anchor="middle" font-family="sans-serif" font-size="5" fill="#000">A5</text>
<text x="661.751" y="529.675" text-anchor="middle" font-family="sans-serif" font-size="5" fill="#000">B5</text>
<text x="675.061" y="523.503" text-anchor="middle" font-family="sans-serif" font-size="5" fill="#000">C6</text>
<text x="688.396" y="517.331" text-anchor="middle" font-family="sans-serif" font-size="5" fill="#000">D6</text>
<text x="701.706" y="511.159" text-anchor="middle" font-family="sans-serif" font-size="5" fill="#000">E6</text>
<text x="715.041" y="504.986" text-anchor="middle" font-family="sans-serif" font-size="5" fill="#000">F6</text>
<text x="728.350" y="498.789" text-anchor="middle" font-family="sans-serif" font-size="5" fill="#000">G6</text>
<text x="741.685" y="487.587" text-anchor="middle" font-family="sans-serif" font-size="5" fill="#000">A6</text>
<text x="755.020" y="476.335" text-anchor="middle" font-family="sans-serif" font-size="5" fill="#000">B6</text>
<text x="768.330" y="465.134" text-anchor="middle" font-family="sans-serif" font-size="5" fill="#000">C7</text>
<text x="781.665" y="453.882" text-anchor="middle" font-family="sans-serif" font-size="5" fill="#000">D7</text>
<text x="794.974" y="442.680" text-anchor="middle" font-family="sans-serif" font-size="5" fill="#000">E7</text>
<text x="808.309" y="431.453" text-anchor="middle" font-family="sans-serif" font-size="5" fill="#000">F7</text>
<text x="821.622" y="420.227" text-anchor="middle" font-family="sans-serif" font-size="5" fill="#000">G7</text>
<text x="101.700" y="306.844" text-anchor="middle" font-family="sans-serif" font-size="5" fill="#000">C1</text>
<text x="119.632" y="300.635" text-anchor="middle" font-family="sans-serif" font-size="5" fill="#000">D1</text>
<text x="137.565" y="294.426" text-anchor="middle" font-family="sans-serif" font-size="5" fill="#000">E1</text>
<text x="155.523" y="288.217" text-anchor="middle" font-family="sans-serif" font-size="5" fill="#000">F1</text>
<text x="173.455" y="286.486" text-anchor="middle" font-family="sans-serif" font-size="5" fill="#000">G1</text>
<text x="191.387" y="284.780" text-anchor="middle" font-family="sans-serif" font-size="5" fill="#000">A1</text>
<text x="209.320" y="283.074" text-anchor="middle" font-family="sans-serif" font-size="5" fill="#000">B1</text>
<text x="227.252" y="281.368" text-anchor="middle" font-family="sans-serif" font-size="5" fill="#000">C2</text>
<text x="245.210" y="284.166" text-anchor="middle" font-family="sans-serif" font-size="5" fill="#000">D2</text>
<text x="263.142" y="291.444" text-anchor="middle" font-family="sans-serif" font-size="5" fill="#000">E2</text>
<text x="281.075" y="280.707" text-anchor="middle" font-family="sans-serif" font-size="5" fill="#000">F2</text>
<text x="299.007" y="283.504" text-anchor="middle" font-family="sans-serif" font-size="5" fill="#000">G2</text>
<text x="316.432" y="323.094" text-anchor="middle" font-family="sans-serif" font-size="5" fill="#000">A2</text>
<text x="333.856" y="344.719" text-anchor="middle" font-family="sans-serif" font-size="5" fill="#000">B2</text>
<text x="351.280" y="375.303" text-anchor="middle" font-family="sans-serif" font-size="5" fill="#000">C3</text>
<text x="368.705" y="405.909" text-anchor="middle" font-family="sans-serif" font-size="5" fill="#000">D3</text>
<text x="385.113" y="433.664" text-anchor="middle" font-family="sans-serif" font-size="5" fill="#000">E3</text>
<text x="401.522" y="470.376" text-anchor="middle" font-family="sans-serif" font-size="5" fill="#000">F3</text>
<text x="417.905" y="498.130" text-anchor="middle" font-family="sans-serif" font-size="5" fill="#000">G3</text>
<text x="433.297" y="531.990" text-anchor="middle" font-family="sans-serif" font-size="5" fill="#000">A3</text>
<text x="448.664" y="547.886" text-anchor="middle" font-family="sans-serif" font-size="5" fill="#000">B3</text>
<text x="464.031" y="568.282" text-anchor="middle" font-family="sans-serif" font-size="5" fill="#000">C4</text>
<text x="479.423" y="584.153" text-anchor="middle" font-family="sans-serif" font-size="5" fill="#000">D4</text>
<text x="494.790" y="595.520" text-anchor="middle" font-family="sans-serif" font-size="5" fill="#000">E4</text>
<text x="510.157" y="602.432" text-anchor="middle" font-family="sans-serif" font-size="5" fill="#000">F4</text>
<text x="525.524" y="609.319" text-anchor="middle" font-family="sans-serif" font-size="5" fill="#000">G4</text>
<text x="539.875" y="613.354" text-anchor="middle" font-family="sans-serif" font-size="5" fill="#000">A4</text>
<text x="554.226" y="617.365" text-anchor="middle" font-family="sans-serif" font-size="5" fill="#000">B4</text>
<text x="568.577" y="616.897" text-anchor="middle" font-family="sans-serif" font-size="5" fill="#000">C5</text>
<text x="582.928" y="616.428" text-anchor="middle" font-family="sans-serif" font-size="5" fill="#000">D5</text>
<text x="597.279" y="615.960" text-anchor="middle" font-family="sans-serif" font-size="5" fill="#000">E5</text>
<text x="611.630" y="606.485" text-anchor="middle" font-family="sans-serif" font-size="5" fill="#000">F5</text>
<text x="625.981" y="606.016" text-anchor="middle" font-family="sans-serif" font-size="5" fill="#000">G5</text>
<text x="639.316" y="598.189" text-anchor="middle" font-family="sans-serif" font-size="5" fill="#000">A5</text>
<text x="652.626" y="590.363" text-anchor="middle" font-family="sans-serif" font-size="5" fill="#000">B5</text>
<text x="665.961" y="582.539" text-anchor="middle" font-family="sans-serif" font-size="5" fill="#000">C6</text>
<text x="679.296" y="574.713" text-anchor="middle" font-family="sans-serif" font-size="5" fill="#000">D6</text>
<text x="692.606" y="566.889" text-anchor="middle" font-family="sans-serif" font-size="5" fill="#000">E6</text>
<text x="705.941" y="559.062" text-anchor="middle" font-family="sans-serif" font-size="5" fill="#000">F6</text>
<text x="719.250" y="551.213" text-anchor="middle" font-family="sans-serif" font-size="5" fill="#000">G6</text>
<text x="732.585" y="538.908" text-anchor="middle" font-family="sans-serif" font-size="5" fill="#000">A6</text>
<text x="745.920" y="526.556" text-anchor="middle" font-family="sans-serif" font-size="5" fill="#000">B6</text>
<text x="759.230" y="514.252" text-anchor="middle" font-family="sans-serif" font-size="5" fill="#000">C7</text>
<text x="772.565" y="501.900" text-anchor="middle" font-family="sans-serif" font-size="5" fill="#000">D7</text>
<text x="785.874" y="489.595" text-anchor="middle" font-family="sans-serif" font-size="5" fill="#000">E7</text>
<text x="799.209" y="477.265" text-anchor="middle" font-family="sans-serif" font-size="5" fill="#000">F7</text>
<text x="812.544" y="464.939" text-anchor="middle" font-family="sans-serif" font-size="5" fill="#000">G7</text>
<path d="M 12.700 323.844 L 101.700 323.844 L 101.700 323.844 A 12.000 12.000 0 0 0 105.626 323.184 L 123.558 316.975 L 123.558 316.975 A 12.000 12.000 0 0 0 123.558 316.975 L 141.491 310.765 L 141.491 310.765 A 12.000 12.000 0 0 1 141.486 310.767 L 159.444 304.559 L 159.444 304.559 A 12.000 12.000 0 0 1 156.676 305.162 L 174.608 303.431 L 174.608 303.431 A 12.000 12.000 0 0 1 174.592 303.432 L 192.524 301.726 L 192.524 301.726 A 12.000 12.000 0 0 1 192.523 301.726 L 210.456 300.020 L 210.456 300.020 A 12.000 12.000 0 0 1 207.476 299.932 L 261.298 308.301 L 261.298 308.301 A 12.000 12.000 0 0 1 257.014 306.761 L 310.304 338.411 L 310.304 338.411 A 12.000 12.000 0 0 1 307.088 335.622 L 324.512 357.248 L 324.512 357.248 A 12.000 12.000 0 0 1 323.429 355.659 L 340.853 386.243 L 340.853 386.243 A 12.000 12.000 0 0 1 340.852 386.240 L 358.277 416.846 L 358.277 416.846 A 12.000 12.000 0 0 0 358.375 417.016 L 374.783 444.771 L 374.783 444.771 A 12.000 12.000 0 0 1 374.158 443.560 L 390.567 480.272 L 390.567 480.272 A 12.000 12.000 0 0 0 391.188 481.476 L 407.571 509.230 L 407.571 509.230 A 12.000 12.000 0 0 1 406.981 508.095 L 422.373 541.956 L 422.373 541.956 A 12.000 12.000 0 0 0 424.139 544.745 L 454.873 581.037 L 454.873 581.037 A 12.000 12.000 0 0 0 455.417 581.637 L 470.809 597.507 L 470.809 597.507 A 12.000 12.000 0 0 0 472.287 598.800 L 487.654 610.167 L 487.654 610.167 A 12.000 12.000 0 0 0 489.867 611.463 L 505.234 618.376 L 505.234 618.376 A 12.000 12.000 0 0 0 505.250 618.383 L 520.617 625.269 L 520.617 625.269 A 12.000 12.000 0 0 0 522.276 625.871 L 536.627 629.906 L 536.627 629.906 A 12.000 12.000 0 0 0 536.644 629.910 L 550.995 633.922 L 550.995 633.922 A 12.000 12.000 0 0 0 554.618 634.359 L 597.671 632.953 L 597.671 632.953 A 12.000 12.000 0 0 0 601.207 632.299 L 629.909 622.355 L 629.909 622.355 A 12.000 12.000 0 0 0 632.055 621.365 L 645.390 613.538 L 645.390 613.538 A 12.000 12.000 0 0 0 645.399 613.534 L 658.709 605.707 L 658.709 605.707 A 12.000 12.000 0 0 1 658.698 605.713 L 672.033 597.889 L 672.033 597.889 A 12.000 12.000 0 0 0 672.035 597.888 L 685.370 590.062 L 685.370 590.062 A 12.000 12.000 0 0 0 685.377 590.058 L 698.687 582.234 L 698.687 582.234 A 12.000 12.000 0 0 1 698.681 582.238 L 712.016 574.411 L 712.016 574.411 A 12.000 12.000 0 0 0 712.037 574.398 L 725.346 566.550 L 725.346 566.550 A 12.000 12.000 0 0 0 727.388 565.032 L 740.723 552.727 L 740.723 552.727 A 12.000 12.000 0 0 0 740.740 552.712 L 754.075 540.360 L 754.075 540.360 A 12.000 12.000 0 0 1 754.066 540.368 L 767.376 528.064 L 767.376 528.064 A 12.000 12.000 0 0 0 767.385 528.056 L 780.720 515.703 L 780.720 515.703 A 12.000 12.000 0 0 1 780.711 515.711 L 794.020 503.406 L 794.020 503.406 A 12.000 12.000 0 0 0 794.021 503.406 L 807.356 491.076 L 807.356 491.076 A 12.000 12.000 0 0 1 799.209 494.265 L 902.839 494.265" fill="none" stroke="#ff69b4" stroke-width="1.6"/>
<path d="M 902.839 494.265 L 830.374 417.017 L 830.374 417.017 A 12.000 12.000 0 0 0 813.886 416.053 L 800.573 427.279 L 800.573 427.279 A 12.000 12.000 0 0 1 800.580 427.273 L 787.245 438.500 L 787.245 438.500 A 12.000 12.000 0 0 1 787.247 438.499 L 773.938 449.701 L 773.938 449.701 A 12.000 12.000 0 0 0 773.926 449.711 L 760.591 460.963 L 760.591 460.963 A 12.000 12.000 0 0 1 760.603 460.953 L 747.293 472.154 L 747.293 472.154 A 12.000 12.000 0 0 0 747.281 472.164 L 733.946 483.416 L 733.946 483.416 A 12.000 12.000 0 0 1 735.124 482.540 L 708.480 499.939 L 708.480 499.939 A 12.000 12.000 0 0 1 710.000 499.096 L 696.665 505.269 L 696.665 505.269 A 12.000 12.000 0 0 0 696.658 505.273 L 683.348 511.445 L 683.348 511.445 A 12.000 12.000 0 0 1 683.356 511.441 L 670.021 517.613 L 670.021 517.613 A 12.000 12.000 0 0 0 670.013 517.617 L 656.703 523.789 L 656.703 523.789 A 12.000 12.000 0 0 1 658.893 523.020 L 617.872 533.079 L 617.872 533.079 A 12.000 12.000 0 0 1 619.826 532.768 L 576.773 536.019 L 576.773 536.019 A 12.000 12.000 0 0 1 579.565 536.134 L 565.214 533.848 L 565.214 533.848 A 12.000 12.000 0 0 1 568.776 535.008 L 554.425 527.693 L 554.425 527.693 A 12.000 12.000 0 0 1 554.440 527.701 L 540.089 520.360 L 540.089 520.360 A 12.000 12.000 0 0 1 541.500 521.208 L 526.133 510.464 L 526.133 510.464 A 12.000 12.000 0 0 1 526.144 510.472 L 510.777 499.702 L 510.777 499.702 A 12.000 12.000 0 0 1 512.485 501.155 L 497.118 485.382 L 497.118 485.382 A 12.000 12.000 0 0 1 498.174 486.624 L 482.782 465.796 L 482.782 465.796 A 12.000 12.000 0 0 1 483.452 466.806 L 468.085 440.898 L 468.085 440.898 A 12.000 12.000 0 0 0 467.424 439.901 L 452.057 419.047 L 452.057 419.047 A 12.000 12.000 0 0 1 453.632 421.950 L 438.240 380.929 L 438.240 380.929 A 12.000 12.000 0 0 0 437.837 379.981 L 421.454 345.615 L 421.454 345.615 A 12.000 12.000 0 0 1 421.879 346.621 L 405.470 302.197 L 405.470 302.197 A 12.000 12.000 0 0 0 405.042 301.185 L 388.634 266.818 L 388.634 266.818 A 12.000 12.000 0 0 1 388.701 266.961 L 371.276 229.192 L 371.276 229.192 A 12.000 12.000 0 0 0 371.275 229.190 L 353.851 191.445 L 353.851 191.445 A 12.000 12.000 0 0 1 353.852 191.447 L 319.003 115.908 L 319.003 115.908 A 12.000 12.000 0 0 0 312.282 109.685 L 294.350 103.030 L 294.350 103.030 A 12.000 12.000 0 0 0 292.326 102.474 L 238.506 92.669 L 238.506 92.669 A 12.000 12.000 0 0 0 237.447 92.525 L 167.692 86.150 L 167.692 86.150 A 12.000 12.000 0 0 0 164.330 86.317 L 146.397 89.771 L 146.397 89.771 A 12.000 12.000 0 0 0 146.397 89.771 L 128.465 93.226 L 128.465 93.226 A 12.000 12.000 0 0 1 128.465 93.226 L 110.533 96.680 L 110.533 96.680 A 12.000 12.000 0 0 0 107.305 97.797 L 12.700 146.563" fill="none" stroke="#ff69b4" stroke-width="1.6"/>
<path d="M 12.700 146.563 L 12.700 323.844" fill="none" stroke="#ff69b4" stroke-width="1.6"/>
<path d="M 12.700 323.844 C 52.700 323.844 61.700 323.844 101.700 323.844 C 141.700 323.844 248.142 308.444 263.142 308.444 C 278.142 308.444 412.699 528.392 433.297 548.990 C 453.895 569.588 579.453 632.960 597.279 632.960 C 615.105 632.960 759.221 495.255 799.209 494.265 C 839.209 494.265 862.839 494.265 902.839 494.265 C 875.472 465.092 857.741 446.190 830.374 417.017 A 12.000 12.000 0 0 0 813.886 416.053 C 783.307 441.839 635.730 532.734 620.730 532.734 C 605.730 532.734 352.685 153.513 308.107 108.935 C 263.529 64.357 206.600 86.100 166.600 86.100 C 126.600 86.100 12.700 106.563 12.700 146.563 L 12.700 323.844" fill="none" stroke="#8B4513" stroke-width="1.6"/>
</svg>