<svg xmlns="http://www.w3.org/2000/svg" width="1006.84mm" height="1948.93mm" viewBox="0 0 1006.84 1948.93">
<style>.outline{fill:none;stroke:#222;stroke-width:1.2;stroke-linejoin:round}.str{fill:none;stroke-linecap:round}.lbl{font-family:sans-serif;font-size:8px;fill:#222}.dim{font-family:sans-serif;font-size:5px;fill:#555}.grom{fill:#1f77b4}.nat{fill:#2ca02c}.flat{fill:#d62728}.sharp{fill:#9467bd}</style>
<rect x="0" y="0" width="1006.84" height="1948.93" fill="#fff"/>
<rect class="outline" x="25.00" y="1665.93" width="941.84" height="243.00"/>
<rect class="outline" x="35.00" y="1908.93" width="50" height="45.00"/>
<rect class="outline" x="455.92" y="1908.93" width="50" height="45.00"/>
<rect class="outline" x="906.84" y="1908.93" width="50" height="45.00"/>
<rect class="outline" x="40.00" y="110.00" width="69.00" height="1555.93"/>
<path class="outline" d="M109.00,130.00 C229.00,190.00 594.09,561.07 851.84,461.76"/>
<path class="outline" d="M109.00,40.00 C229.00,90.00 594.09,461.07 851.84,401.76"/>
<line class="outline" x1="109.00" y1="130.00" x2="109.00" y2="40.00"/>
<line class="outline" x1="851.84" y1="461.76" x2="851.84" y2="401.76"/>
<line class="outline" style="stroke-dasharray:5,3;stroke:#666" x1="121.00" y1="1654.93" x2="831.84" y2="517.37"/>
<path class="outline" d="M861.84,507.37 C926.84,17.37 884.09,1485.93 139.00,1665.93"/>
<line class="outline" x1="861.84" y1="507.37" x2="831.84" y2="517.37"/>
<path class="outline" d="M121.00,1654.93 C181.00,1714.93 154.00,1585.93 134.00,1665.93"/>
<line class="str" x1="121.00" y1="1654.93" x2="121.00" y2="140.00" stroke="#c00000" stroke-width="1.676"/>
<line class="str" x1="138.93" y1="1626.23" x2="138.93" y2="136.55" stroke="#666666" stroke-width="1.549"/>
<line class="str" x1="156.86" y1="1597.53" x2="156.86" y2="133.09" stroke="#666666" stroke-width="1.448"/>
<line class="str" x1="174.82" y1="1568.83" x2="174.82" y2="129.64" stroke="#1060d0" stroke-width="1.270"/>
<line class="str" x1="192.75" y1="1540.10" x2="192.75" y2="131.21" stroke="#666666" stroke-width="1.219"/>
<line class="str" x1="210.69" y1="1511.40" x2="210.69" y2="132.81" stroke="#666666" stroke-width="1.219"/>
<line class="str" x1="228.62" y1="1482.69" x2="228.62" y2="134.41" stroke="#666666" stroke-width="1.016"/>
<line class="str" x1="246.55" y1="1453.99" x2="246.55" y2="136.01" stroke="#c00000" stroke-width="1.016"/>
<line class="str" x1="264.51" y1="1425.29" x2="264.51" y2="142.67" stroke="#666666" stroke-width="0.914"/>
<line class="str" x1="282.44" y1="1396.59" x2="282.44" y2="154.35" stroke="#666666" stroke-width="2.642"/>
<line class="str" x1="300.37" y1="1367.86" x2="300.37" y2="145.82" stroke="#1060d0" stroke-width="2.489"/>
<line class="str" x1="318.31" y1="1339.16" x2="318.31" y2="152.47" stroke="#666666" stroke-width="2.337"/>
<line class="str" x1="335.73" y1="1311.27" x2="335.73" y2="200.33" stroke="#666666" stroke-width="2.184"/>
<line class="str" x1="353.16" y1="1283.41" x2="353.16" y2="228.01" stroke="#666666" stroke-width="2.057"/>
<line class="str" x1="370.58" y1="1255.52" x2="370.58" y2="265.76" stroke="#c00000" stroke-width="2.057"/>
<line class="str" x1="388.00" y1="1227.63" x2="388.00" y2="303.53" stroke="#666666" stroke-width="1.930"/>
<line class="str" x1="404.41" y1="1201.39" x2="404.41" y2="337.89" stroke="#666666" stroke-width="1.676"/>
<line class="str" x1="420.82" y1="1175.13" x2="420.82" y2="382.32" stroke="#1060d0" stroke-width="1.676"/>
<line class="str" x1="437.20" y1="1148.89" x2="437.20" y2="416.68" stroke="#666666" stroke-width="1.549"/>
<line class="str" x1="452.60" y1="1124.28" x2="452.60" y2="457.70" stroke="#666666" stroke-width="1.549"/>
<line class="str" x1="467.96" y1="1099.69" x2="467.96" y2="478.56" stroke="#666666" stroke-width="1.270"/>
<line class="str" x1="483.33" y1="1075.08" x2="483.33" y2="504.46" stroke="#c00000" stroke-width="1.270"/>
<line class="str" x1="498.72" y1="1050.46" x2="498.72" y2="525.29" stroke="#666666" stroke-width="1.270"/>
<line class="str" x1="514.09" y1="1025.85" x2="514.09" y2="541.07" stroke="#666666" stroke-width="1.143"/>
<line class="str" x1="529.46" y1="1001.26" x2="529.46" y2="551.84" stroke="#1060d0" stroke-width="1.143"/>
<line class="str" x1="544.82" y1="976.65" x2="544.82" y2="562.58" stroke="#666666" stroke-width="1.143"/>
<line class="str" x1="559.18" y1="953.69" x2="559.18" y2="569.92" stroke="#666666" stroke-width="1.016"/>
<line class="str" x1="573.53" y1="930.73" x2="573.53" y2="577.24" stroke="#666666" stroke-width="1.016"/>
<line class="str" x1="587.88" y1="907.77" x2="587.88" y2="579.52" stroke="#c00000" stroke-width="1.016"/>
<line class="str" x1="602.23" y1="884.80" x2="602.23" y2="581.81" stroke="#666666" stroke-width="0.914"/>
<line class="str" x1="616.58" y1="861.82" x2="616.58" y2="584.09" stroke="#666666" stroke-width="0.914"/>
<line class="str" x1="630.93" y1="838.86" x2="630.93" y2="576.27" stroke="#1060d0" stroke-width="0.914"/>
<line class="str" x1="645.28" y1="815.89" x2="645.28" y2="578.56" stroke="#666666" stroke-width="0.914"/>
<line class="str" x1="658.62" y1="794.58" x2="658.62" y2="572.38" stroke="#666666" stroke-width="0.813"/>
<line class="str" x1="671.93" y1="773.25" x2="671.93" y2="566.21" stroke="#666666" stroke-width="0.813"/>
<line class="str" x1="685.26" y1="751.94" x2="685.26" y2="560.04" stroke="#c00000" stroke-width="0.813"/>
<line class="str" x1="698.60" y1="730.60" x2="698.60" y2="553.87" stroke="#666666" stroke-width="0.762"/>
<line class="str" x1="711.91" y1="709.29" x2="711.91" y2="547.70" stroke="#666666" stroke-width="0.711"/>
<line class="str" x1="725.24" y1="687.95" x2="725.24" y2="541.52" stroke="#1060d0" stroke-width="0.711"/>
<line class="str" x1="738.55" y1="666.62" x2="738.55" y2="535.33" stroke="#666666" stroke-width="0.711"/>
<line class="str" x1="751.89" y1="645.31" x2="751.89" y2="524.12" stroke="#666666" stroke-width="0.635"/>
<line class="str" x1="765.22" y1="623.97" x2="765.22" y2="512.87" stroke="#666666" stroke-width="0.635"/>
<line class="str" x1="778.53" y1="602.66" x2="778.53" y2="501.67" stroke="#c00000" stroke-width="0.635"/>
<line class="str" x1="791.86" y1="581.33" x2="791.86" y2="490.42" stroke="#666666" stroke-width="0.635"/>
<line class="str" x1="805.17" y1="560.01" x2="805.17" y2="479.22" stroke="#666666" stroke-width="0.635"/>
<line class="str" x1="818.51" y1="538.68" x2="818.51" y2="467.99" stroke="#1060d0" stroke-width="0.635"/>
<line class="str" x1="831.84" y1="517.37" x2="831.84" y2="456.76" stroke="#666666" stroke-width="0.635"/>
<circle class="grom" cx="121.00" cy="1654.93" r="0.9"/>
<circle class="flat" cx="121.00" cy="140.00" r="0.9"/>
<circle class="nat" cx="121.00" cy="225.01" r="0.9"/>
<circle class="sharp" cx="129.10" cy="101.90" r="0.9"/>
<circle class="grom" cx="138.93" cy="1626.23" r="0.9"/>
<circle class="flat" cx="138.93" cy="136.55" r="0.9"/>
<circle class="nat" cx="138.93" cy="220.14" r="0.9"/>
<circle class="sharp" cx="147.03" cy="98.45" r="0.9"/>
<circle class="grom" cx="156.86" cy="1597.53" r="0.9"/>
<circle class="flat" cx="156.86" cy="133.09" r="0.9"/>
<circle class="nat" cx="156.86" cy="215.26" r="0.9"/>
<circle class="sharp" cx="164.97" cy="94.99" r="0.9"/>
<circle class="grom" cx="174.82" cy="1568.83" r="0.9"/>
<circle class="flat" cx="174.82" cy="129.64" r="0.9"/>
<circle class="nat" cx="174.82" cy="210.38" r="0.9"/>
<circle class="sharp" cx="182.90" cy="91.54" r="0.9"/>
<circle class="grom" cx="192.75" cy="1540.10" r="0.9"/>
<circle class="flat" cx="192.75" cy="131.21" r="0.9"/>
<circle class="nat" cx="192.75" cy="210.28" r="0.9"/>
<circle class="sharp" cx="200.86" cy="93.11" r="0.9"/>
<circle class="grom" cx="210.69" cy="1511.40" r="0.9"/>
<circle class="flat" cx="210.69" cy="132.81" r="0.9"/>
<circle class="nat" cx="210.69" cy="210.18" r="0.9"/>
<circle class="sharp" cx="218.79" cy="94.71" r="0.9"/>
<circle class="grom" cx="228.62" cy="1482.69" r="0.9"/>
<circle class="flat" cx="228.62" cy="134.41" r="0.9"/>
<circle class="nat" cx="228.62" cy="210.08" r="0.9"/>
<circle class="sharp" cx="236.72" cy="96.31" r="0.9"/>
<circle class="grom" cx="246.55" cy="1453.99" r="0.9"/>
<circle class="flat" cx="246.55" cy="136.01" r="0.9"/>
<circle class="nat" cx="246.55" cy="209.98" r="0.9"/>
<circle class="sharp" cx="254.65" cy="97.91" r="0.9"/>
<circle class="grom" cx="264.51" cy="1425.29" r="0.9"/>
<circle class="flat" cx="264.51" cy="142.67" r="0.9"/>
<circle class="nat" cx="264.51" cy="214.65" r="0.9"/>
<circle class="sharp" cx="272.59" cy="104.57" r="0.9"/>
<circle class="grom" cx="282.44" cy="1396.59" r="0.9"/>
<circle class="flat" cx="282.44" cy="154.35" r="0.9"/>
<circle class="nat" cx="282.44" cy="224.05" r="0.9"/>
<circle class="sharp" cx="290.55" cy="116.25" r="0.9"/>
<circle class="grom" cx="300.37" cy="1367.86" r="0.9"/>
<circle class="flat" cx="300.37" cy="145.82" r="0.9"/>
<circle class="nat" cx="300.37" cy="214.42" r="0.9"/>
<circle class="sharp" cx="308.48" cy="107.72" r="0.9"/>
<circle class="grom" cx="318.31" cy="1339.16" r="0.9"/>
<circle class="flat" cx="318.31" cy="152.47" r="0.9"/>
<circle class="nat" cx="318.31" cy="219.07" r="0.9"/>
<circle class="sharp" cx="326.41" cy="114.37" r="0.9"/>
<circle class="grom" cx="335.73" cy="1311.27" r="0.9"/>
<circle class="flat" cx="335.73" cy="200.33" r="0.9"/>
<circle class="nat" cx="335.73" cy="262.68" r="0.9"/>
<circle class="sharp" cx="343.83" cy="162.23" r="0.9"/>
<circle class="grom" cx="353.16" cy="1283.41" r="0.9"/>
<circle class="flat" cx="353.16" cy="228.01" r="0.9"/>
<circle class="nat" cx="353.16" cy="287.22" r="0.9"/>
<circle class="sharp" cx="361.26" cy="189.91" r="0.9"/>
<circle class="grom" cx="370.58" cy="1255.52" r="0.9"/>
<circle class="flat" cx="370.58" cy="265.76" r="0.9"/>
<circle class="nat" cx="370.58" cy="321.31" r="0.9"/>
<circle class="sharp" cx="378.68" cy="227.66" r="0.9"/>
<circle class="grom" cx="388.00" cy="1227.63" r="0.9"/>
<circle class="flat" cx="388.00" cy="303.53" r="0.9"/>
<circle class="nat" cx="388.00" cy="355.39" r="0.9"/>
<circle class="sharp" cx="396.11" cy="265.43" r="0.9"/>
<circle class="grom" cx="404.41" cy="1201.39" r="0.9"/>
<circle class="flat" cx="404.41" cy="337.89" r="0.9"/>
<circle class="nat" cx="404.41" cy="386.33" r="0.9"/>
<circle class="sharp" cx="412.52" cy="299.79" r="0.9"/>
<circle class="grom" cx="420.82" cy="1175.13" r="0.9"/>
<circle class="flat" cx="420.82" cy="382.32" r="0.9"/>
<circle class="nat" cx="420.82" cy="426.82" r="0.9"/>
<circle class="sharp" cx="428.90" cy="344.22" r="0.9"/>
<circle class="grom" cx="437.20" cy="1148.89" r="0.9"/>
<circle class="flat" cx="437.20" cy="416.68" r="0.9"/>
<circle class="nat" cx="437.20" cy="457.78" r="0.9"/>
<circle class="sharp" cx="445.31" cy="378.58" r="0.9"/>
<circle class="grom" cx="452.60" cy="1124.28" r="0.9"/>
<circle class="flat" cx="452.60" cy="457.70" r="0.9"/>
<circle class="nat" cx="452.60" cy="495.12" r="0.9"/>
<circle class="sharp" cx="460.67" cy="419.60" r="0.9"/>
<circle class="grom" cx="467.96" cy="1099.69" r="0.9"/>
<circle class="flat" cx="467.96" cy="478.56" r="0.9"/>
<circle class="nat" cx="467.96" cy="513.41" r="0.9"/>
<circle class="sharp" cx="476.07" cy="440.46" r="0.9"/>
<circle class="grom" cx="483.33" cy="1075.08" r="0.9"/>
<circle class="flat" cx="483.33" cy="504.46" r="0.9"/>
<circle class="nat" cx="483.33" cy="536.49" r="0.9"/>
<circle class="sharp" cx="491.43" cy="466.36" r="0.9"/>
<circle class="grom" cx="498.72" cy="1050.46" r="0.9"/>
<circle class="flat" cx="498.72" cy="525.29" r="0.9"/>
<circle class="nat" cx="498.72" cy="554.78" r="0.9"/>
<circle class="sharp" cx="506.80" cy="487.19" r="0.9"/>
<circle class="grom" cx="514.09" cy="1025.85" r="0.9"/>
<circle class="flat" cx="514.09" cy="541.07" r="0.9"/>
<circle class="nat" cx="514.09" cy="568.29" r="0.9"/>
<circle class="sharp" cx="522.19" cy="502.97" r="0.9"/>
<circle class="grom" cx="529.46" cy="1001.26" r="0.9"/>
<circle class="flat" cx="529.46" cy="551.84" r="0.9"/>
<circle class="nat" cx="529.46" cy="577.06" r="0.9"/>
<circle class="sharp" cx="537.56" cy="513.74" r="0.9"/>
<circle class="grom" cx="544.82" cy="976.65" r="0.9"/>
<circle class="flat" cx="544.82" cy="562.58" r="0.9"/>
<circle class="nat" cx="544.82" cy="585.82" r="0.9"/>
<circle class="sharp" cx="552.93" cy="524.48" r="0.9"/>
<circle class="grom" cx="559.18" cy="953.69" r="0.9"/>
<circle class="flat" cx="559.18" cy="569.92" r="0.9"/>
<circle class="nat" cx="559.18" cy="591.46" r="0.9"/>
<circle class="sharp" cx="567.28" cy="531.82" r="0.9"/>
<circle class="grom" cx="573.53" cy="930.73" r="0.9"/>
<circle class="flat" cx="573.53" cy="577.24" r="0.9"/>
<circle class="nat" cx="573.53" cy="597.07" r="0.9"/>
<circle class="sharp" cx="581.63" cy="539.14" r="0.9"/>
<circle class="grom" cx="587.88" cy="907.77" r="0.9"/>
<circle class="flat" cx="587.88" cy="579.52" r="0.9"/>
<circle class="nat" cx="587.88" cy="597.94" r="0.9"/>
<circle class="sharp" cx="595.98" cy="541.42" r="0.9"/>
<circle class="grom" cx="602.23" cy="884.80" r="0.9"/>
<circle class="flat" cx="602.23" cy="581.81" r="0.9"/>
<circle class="nat" cx="602.23" cy="598.80" r="0.9"/>
<circle class="sharp" cx="610.33" cy="543.71" r="0.9"/>
<circle class="grom" cx="616.58" cy="861.82" r="0.9"/>
<circle class="flat" cx="616.58" cy="584.09" r="0.9"/>
<circle class="nat" cx="616.58" cy="599.69" r="0.9"/>
<circle class="sharp" cx="624.68" cy="545.99" r="0.9"/>
<circle class="grom" cx="630.93" cy="838.86" r="0.9"/>
<circle class="flat" cx="630.93" cy="576.27" r="0.9"/>
<circle class="nat" cx="630.93" cy="591.03" r="0.9"/>
<circle class="sharp" cx="639.03" cy="538.17" r="0.9"/>
<circle class="grom" cx="645.28" cy="815.89" r="0.9"/>
<circle class="flat" cx="645.28" cy="578.56" r="0.9"/>
<circle class="nat" cx="645.28" cy="591.89" r="0.9"/>
<circle class="sharp" cx="653.38" cy="540.46" r="0.9"/>
<circle class="grom" cx="658.62" cy="794.58" r="0.9"/>
<circle class="flat" cx="658.62" cy="572.38" r="0.9"/>
<circle class="nat" cx="658.62" cy="584.86" r="0.9"/>
<circle class="sharp" cx="666.72" cy="534.28" r="0.9"/>
<circle class="grom" cx="671.93" cy="773.25" r="0.9"/>
<circle class="flat" cx="671.93" cy="566.21" r="0.9"/>
<circle class="nat" cx="671.93" cy="577.85" r="0.9"/>
<circle class="sharp" cx="680.03" cy="528.11" r="0.9"/>
<circle class="grom" cx="685.26" cy="751.94" r="0.9"/>
<circle class="flat" cx="685.26" cy="560.04" r="0.9"/>
<circle class="nat" cx="685.26" cy="570.81" r="0.9"/>
<circle class="sharp" cx="693.36" cy="521.94" r="0.9"/>
<circle class="grom" cx="698.60" cy="730.60" r="0.9"/>
<circle class="flat" cx="698.60" cy="553.87" r="0.9"/>
<circle class="nat" cx="698.60" cy="563.80" r="0.9"/>
<circle class="sharp" cx="706.67" cy="515.77" r="0.9"/>
<circle class="grom" cx="711.91" cy="709.29" r="0.9"/>
<circle class="flat" cx="711.91" cy="547.70" r="0.9"/>
<circle class="nat" cx="711.91" cy="556.76" r="0.9"/>
<circle class="sharp" cx="720.01" cy="509.60" r="0.9"/>
<circle class="grom" cx="725.24" cy="687.95" r="0.9"/>
<circle class="flat" cx="725.24" cy="541.52" r="0.9"/>
<circle class="nat" cx="725.24" cy="549.75" r="0.9"/>
<circle class="sharp" cx="733.34" cy="503.42" r="0.9"/>
<circle class="grom" cx="738.55" cy="666.62" r="0.9"/>
<circle class="flat" cx="738.55" cy="535.33" r="0.9"/>
<circle class="nat" cx="738.55" cy="542.72" r="0.9"/>
<circle class="sharp" cx="746.65" cy="497.23" r="0.9"/>
<circle class="grom" cx="751.89" cy="645.31" r="0.9"/>
<circle class="flat" cx="751.89" cy="524.12" r="0.9"/>
<circle class="nat" cx="751.89" cy="530.93" r="0.9"/>
<circle class="sharp" cx="759.99" cy="486.02" r="0.9"/>
<circle class="grom" cx="765.22" cy="623.97" r="0.9"/>
<circle class="flat" cx="765.22" cy="512.87" r="0.9"/>
<circle class="nat" cx="765.22" cy="519.12" r="0.9"/>
<circle class="sharp" cx="773.30" cy="474.77" r="0.9"/>
<circle class="grom" cx="778.53" cy="602.66" r="0.9"/>
<circle class="flat" cx="778.53" cy="501.67" r="0.9"/>
<circle class="nat" cx="778.53" cy="507.33" r="0.9"/>
<circle class="sharp" cx="786.63" cy="463.57" r="0.9"/>
<circle class="grom" cx="791.86" cy="581.33" r="0.9"/>
<circle class="flat" cx="791.86" cy="490.42" r="0.9"/>
<circle class="nat" cx="791.86" cy="495.52" r="0.9"/>
<circle class="sharp" cx="799.97" cy="452.32" r="0.9"/>
<circle class="grom" cx="805.17" cy="560.01" r="0.9"/>
<circle class="flat" cx="805.17" cy="479.22" r="0.9"/>
<circle class="nat" cx="805.17" cy="483.74" r="0.9"/>
<circle class="sharp" cx="813.28" cy="441.12" r="0.9"/>
<circle class="grom" cx="818.51" cy="538.68" r="0.9"/>
<circle class="flat" cx="818.51" cy="467.99" r="0.9"/>
<circle class="nat" cx="818.51" cy="471.95" r="0.9"/>
<circle class="sharp" cx="826.61" cy="429.89" r="0.9"/>
<circle class="grom" cx="831.84" cy="517.37" r="0.9"/>
<circle class="flat" cx="831.84" cy="456.76" r="0.9"/>
<circle class="nat" cx="831.84" cy="460.17" r="0.9"/>
<circle class="sharp" cx="839.92" cy="418.66" r="0.9"/>
<text class="lbl" x="74.50" y="1009.47" text-anchor="middle" writing-mode="tb">COLUMN  69 x 1556 mm</text>
<text class="lbl" x="495.92" y="1787.43" text-anchor="middle">BASE  942 x 243 mm</text>
<text class="lbl" x="480.42" y="190.88" text-anchor="middle">NECK</text>
<text class="lbl" x="888.84" y="1091.65">SOUNDBOX</text>
<text class="dim" x="888.84" y="1109.65">(corps sonore)</text>
<text class="dim" x="446.42" y="1106.15" text-anchor="end">soundboard (table d'harmonie)</text>
<text class="dim" x="40.00" y="35.00">overall: 942 x 1869 mm  |  stringband: 710.8 mm wide x 1514.9 mm (bass) |  strings 47 (G7 -> C1) |  column 69 mm dia |  base 243 mm tall</text>
<text class="dim" x="40.00" y="43.00">legend: strings -- C red, F blue, other gray (stroke-width = actual diameter)</text>
</svg>