<svg xmlns="http://www.w3.org/2000/svg" xmlns:xlink="http://www.w3.org/1999/xlink" width="1458.29mm" height="2070.95mm" viewBox="0 0 1458.29 2070.95">
<image href="harp-prep-low.png" x="0" y="0" width="1458.29" height="2070.95" opacity="0.55"/>
<style>.lbl{font-family:sans-serif;font-size:5px;font-weight:bold}.dim{font-family:sans-serif;font-size:3.5px;fill:#333}</style>
<line x1="307.19" y1="402.11" x2="307.19" y2="1677.47" stroke="#c00" stroke-width="0.7"/>
<line x1="376.22" y1="402.11" x2="376.22" y2="1677.47" stroke="#c00" stroke-width="0.7"/>
<text class="lbl" x="341.71" y="399.11" text-anchor="middle" fill="#c00">COLUMN</text>
<text class="dim" x="341.71" y="1039.79" text-anchor="middle" fill="#c00">69.0 x 1275.4 mm</text>
<rect x="234.71" y="1677.47" width="486.33" height="243.34" stroke="#080" stroke-width="0.7" fill="none"/>
<text class="lbl" x="477.87" y="1926.81" text-anchor="middle" fill="#080">BASE</text>
<text class="dim" x="477.87" y="1930.81" text-anchor="middle" fill="#080">486.3 x 243.3 mm</text>
<path d="M376.22,122.53 C860.73,198.24 641.87,719.95 1187.34,588.49" stroke="#06c" stroke-width="0.9" fill="none"/>
<path d="M376.22,125.98 C452.15,-337.90 544.88,719.96 1187.34,616.11" stroke="#06c" stroke-width="0.9" fill="none" stroke-dasharray="2,1.5"/>
<text class="lbl" x="781.78" y="119.53" text-anchor="middle" fill="#06c">NECK</text>
<path d="M1187.34,588.49 C1051.56,966.52 863.70,1309.48 704.12,1677.47" stroke="#a0a" stroke-width="0.9" fill="none"/>
<text class="lbl" x="951.73" y="1132.98" fill="#a0a">SOUNDBOARD</text>
<rect x="231.26" y="120.81" width="956.09" height="1800.00" stroke="#888" stroke-dasharray="3,2" fill="none" stroke-width="0.3"/>
<text class="lbl" x="233.26" y="119.31" fill="#666">overall: 956 x 1800 mm</text>
</svg>