<svg xmlns="http://www.w3.org/2000/svg" width="9637.19mm" height="18055.39mm" viewBox="0 0 9637.19 18055.39">
<style>.outline{fill:none;stroke:#111;stroke-width:1.4;stroke-linejoin:round;stroke-linecap:round}.str{fill:none;stroke-linecap:round}.lbl{font-family:sans-serif;font-size:8px;fill:#333}.dim{font-family:sans-serif;font-size:5px;fill:#666}.grom{fill:#1f77b4}.flat{fill:#d62728}</style>
<rect x="0" y="0" width="9637.19" height="18055.39" fill="#fff"/>
<path class="outline" d="M876.33,50.00 L859.11,67.22 L841.90,67.22 L824.68,67.22 L807.47,67.22 L790.25,67.22 L773.04,67.22 L755.82,67.22 L738.61,84.43 L721.39,84.43 L704.18,84.43 L686.96,84.43 L669.74,84.43 L652.53,84.43 L635.31,84.43 L618.10,101.65 L600.88,101.65 L583.67,101.65 L566.45,101.65 L549.24,101.65 L532.02,101.65 L514.81,101.65 L497.59,118.86 L480.38,118.86 L463.16,118.86 L445.95,118.86 L428.73,118.86 L411.52,118.86 L394.30,118.86 L377.09,136.08 L359.87,136.08 L342.66,136.08 L325.44,136.08 L308.23,136.08 L291.01,136.08 L273.80,136.08 L256.58,136.08 L239.37,153.29 L222.15,153.29 L204.94,170.51 L204.94,187.72 L204.94,204.94 L204.94,222.15 L204.94,239.37 L204.94,256.58 L204.94,273.80 L204.94,291.01 L204.94,308.23 L204.94,325.44 L204.94,342.66 L204.94,359.87 L222.15,377.09 L239.37,394.30 L256.58,394.30 L273.80,411.52 L291.01,428.73 L308.23,445.95 L325.44,463.16 L342.66,480.38 L342.66,497.59 L342.66,514.81 L342.66,532.02 L359.87,549.24 L359.87,566.45 L359.87,583.67 L342.66,600.88 L342.66,618.10 L325.44,635.31 L325.44,652.53 L325.44,669.74 L342.66,686.96 L342.66,704.18 L359.87,721.39 L377.09,738.61 L377.09,755.82 L377.09,773.04 L377.09,790.25 L394.30,807.47 L394.30,824.68 L394.30,841.90 L394.30,859.11 L394.30,876.33 L394.30,893.54 L394.30,910.76 L377.09,927.97 L359.87,945.19 L342.66,962.40 L325.44,979.62 L325.44,996.83 L325.44,1014.05 L308.23,1031.26 L308.23,1048.48 L308.23,1065.69 L308.23,1082.91 L308.23,1100.12 L325.44,1117.34 L342.66,1117.34 L359.87,1134.55 L377.09,1151.77 L377.09,1168.98 L377.09,1186.20 L377.09,1203.41 L377.09,1220.63 L359.87,1237.84 L359.87,1255.06 L377.09,1272.27 L377.09,1289.49 L377.09,1306.71 L377.09,1323.92 L377.09,1341.14 L359.87,1358.35 L359.87,1375.57 L359.87,1392.78 L359.87,1410.00 L377.09,1427.21 L377.09,1444.43 L394.30,1461.64 L411.52,1478.86 L428.73,1496.07 L445.95,1496.07 L463.16,1496.07 L480.38,1496.07 L497.59,1496.07 L514.81,1513.29 L514.81,1530.50 L532.02,1547.72 L532.02,1564.93 L549.24,1564.93 L566.45,1582.15 L583.67,1599.36 L583.67,1616.58 L583.67,1633.79 L583.67,1651.01 L583.67,1668.22 L583.67,1685.44 L583.67,1702.65 L583.67,1719.87 L583.67,1737.08 L583.67,1754.30 L583.67,1771.51 L583.67,1788.73 L583.67,1805.94 L583.67,1823.16 L583.67,1840.37 L583.67,1857.59 L583.67,1874.80 L583.67,1892.02 L583.67,1909.23 L583.67,1926.45 L583.67,1943.67 L583.67,1960.88 L583.67,1978.10 L583.67,1995.31 L583.67,2012.53 L583.67,2029.74 L583.67,2046.96 L583.67,2064.17 L583.67,2081.39 L583.67,2098.60 L583.67,2115.82 L583.67,2133.03 L583.67,2150.25 L583.67,2167.46 L583.67,2184.68 L583.67,2201.89 L583.67,2219.11 L583.67,2236.32 L583.67,2253.54 L583.67,2270.75 L583.67,2287.97 L583.67,2305.18 L583.67,2322.40 L583.67,2339.61 L583.67,2356.83 L583.67,2374.04 L583.67,2391.26 L583.67,2408.47 L583.67,2425.69 L600.88,2442.90 L600.88,2460.12 L600.88,2477.33 L600.88,2494.55 L583.67,2511.76 L583.67,2528.98 L583.67,2546.20 L583.67,2563.41 L583.67,2580.63 L583.67,2597.84 L566.45,2615.06 L566.45,2632.27 L583.67,2649.49 L583.67,2666.70 L566.45,2683.92 L566.45,2701.13 L549.24,2718.35 L532.02,2718.35 L514.81,2735.56 L497.59,2752.78 L480.38,2752.78 L463.16,2769.99 L463.16,2787.21 L445.95,2804.42 L463.16,2821.64 L463.16,2838.85 L480.38,2856.07 L497.59,2873.28 L514.81,2890.50 L532.02,2907.71 L514.81,2924.93 L514.81,2942.14 L514.81,2959.36 L514.81,2976.57 L514.81,2993.79 L514.81,3011.00 L514.81,3028.22 L514.81,3045.43 L532.02,3062.65 L532.02,3079.86 L549.24,3097.08 L549.24,3114.29 L566.45,3131.51 L566.45,3148.72 L583.67,3165.94 L600.88,3183.16 L600.88,3200.37 L600.88,3217.59 L600.88,3234.80 L583.67,3252.02 L583.67,3269.23 L583.67,3286.45 L583.67,3303.66 L583.67,3320.88 L600.88,3320.88 L618.10,3338.09 L635.31,3355.31 L635.31,3372.52 L652.53,3389.74 L652.53,3406.95 L652.53,3424.17 L652.53,3441.38 L652.53,3458.60 L652.53,3475.81 L652.53,3493.03 L652.53,3510.24 L669.74,3527.46 L669.74,3544.67 L686.96,3561.89 L704.18,3579.10 L721.39,3596.32 L721.39,3613.53 L738.61,3630.75 L738.61,3647.96 L738.61,3665.18 L755.82,3682.39 L738.61,3699.61 L721.39,3716.82 L704.18,3716.82 L686.96,3716.82 L686.96,3734.04 L686.96,3751.25 L686.96,3768.47 L704.18,3768.47 L721.39,3768.47 L738.61,3785.69 L738.61,3802.90 L738.61,3820.12 L738.61,3837.33 L738.61,3854.55 L721.39,3871.76 L721.39,3888.98 L721.39,3906.19 L738.61,3923.41 L738.61,3940.62 L738.61,3957.84 L738.61,3975.05 L738.61,3992.27 L721.39,4009.48 L721.39,4026.70 L721.39,4043.91 L738.61,4061.13 L738.61,4078.34 L738.61,4095.56 L738.61,4112.77 L738.61,4129.99 L738.61,4147.20 L738.61,4164.42 L738.61,4181.63 L738.61,4198.85 L738.61,4216.06 L738.61,4233.28 L738.61,4250.49 L738.61,4267.71 L738.61,4284.92 L738.61,4302.14 L738.61,4319.35 L738.61,4336.57 L738.61,4353.78 L738.61,4371.00 L738.61,4388.21 L738.61,4405.43 L738.61,4422.65 L738.61,4439.86 L738.61,4457.08 L738.61,4474.29 L738.61,4491.51 L738.61,4508.72 L738.61,4525.94 L738.61,4543.15 L738.61,4560.37 L738.61,4577.58 L738.61,4594.80 L738.61,4612.01 L738.61,4629.23 L738.61,4646.44 L738.61,4663.66 L738.61,4680.87 L738.61,4698.09 L738.61,4715.30 L738.61,4732.52 L738.61,4749.73 L738.61,4766.95 L738.61,4784.16 L738.61,4801.38 L738.61,4818.59 L738.61,4835.81 L738.61,4853.02 L738.61,4870.24 L738.61,4887.45 L738.61,4904.67 L738.61,4921.88 L738.61,4939.10 L738.61,4956.31 L738.61,4973.53 L738.61,4990.74 L738.61,5007.96 L738.61,5025.18 L738.61,5042.39 L738.61,5059.61 L738.61,5076.82 L738.61,5094.04 L738.61,5111.25 L738.61,5128.47 L738.61,5145.68 L738.61,5162.90 L738.61,5180.11 L738.61,5197.33 L738.61,5214.54 L738.61,5231.76 L738.61,5248.97 L738.61,5266.19 L738.61,5283.40 L738.61,5300.62 L738.61,5317.83 L738.61,5335.05 L738.61,5352.26 L738.61,5369.48 L738.61,5386.69 L738.61,5403.91 L738.61,5421.12 L738.61,5438.34 L738.61,5455.55 L738.61,5472.77 L738.61,5489.98 L738.61,5507.20 L738.61,5524.41 L738.61,5541.63 L738.61,5558.84 L738.61,5576.06 L738.61,5593.27 L738.61,5610.49 L738.61,5627.70 L738.61,5644.92 L738.61,5662.14 L738.61,5679.35 L738.61,5696.57 L738.61,5713.78 L738.61,5731.00 L738.61,5748.21 L738.61,5765.43 L738.61,5782.64 L738.61,5799.86 L738.61,5817.07 L738.61,5834.29 L738.61,5851.50 L738.61,5868.72 L738.61,5885.93 L738.61,5903.15 L738.61,5920.36 L755.82,5937.58 L755.82,5954.79 L755.82,5972.01 L755.82,5989.22 L755.82,6006.44 L755.82,6023.65 L755.82,6040.87 L755.82,6058.08 L755.82,6075.30 L755.82,6092.51 L755.82,6109.73 L755.82,6126.94 L738.61,6144.16 L738.61,6161.37 L738.61,6178.59 L738.61,6195.80 L755.82,6213.02 L755.82,6230.23 L755.82,6247.45 L755.82,6264.67 L755.82,6281.88 L755.82,6299.10 L755.82,6316.31 L755.82,6333.53 L755.82,6350.74 L755.82,6367.96 L755.82,6385.17 L755.82,6402.39 L755.82,6419.60 L755.82,6436.82 L755.82,6454.03 L755.82,6471.25 L755.82,6488.46 L755.82,6505.68 L755.82,6522.89 L755.82,6540.11 L755.82,6557.32 L755.82,6574.54 L755.82,6591.75 L755.82,6608.97 L755.82,6626.18 L755.82,6643.40 L755.82,6660.61 L755.82,6677.83 L755.82,6695.04 L755.82,6712.26 L755.82,6729.47 L755.82,6746.69 L755.82,6763.90 L755.82,6781.12 L755.82,6798.33 L755.82,6815.55 L755.82,6832.76 L755.82,6849.98 L755.82,6867.19 L755.82,6884.41 L755.82,6901.63 L755.82,6918.84 L755.82,6936.06 L755.82,6953.27 L755.82,6970.49 L755.82,6987.70 L755.82,7004.92 L755.82,7022.13 L755.82,7039.35 L755.82,7056.56 L755.82,7073.78 L755.82,7090.99 L755.82,7108.21 L755.82,7125.42 L755.82,7142.64 L755.82,7159.85 L755.82,7177.07 L755.82,7194.28 L755.82,7211.50 L755.82,7228.71 L755.82,7245.93 L755.82,7263.14 L755.82,7280.36 L755.82,7297.57 L755.82,7314.79 L755.82,7332.00 L755.82,7349.22 L755.82,7366.43 L755.82,7383.65 L755.82,7400.86 L755.82,7418.08 L755.82,7435.29 L755.82,7452.51 L755.82,7469.72 L755.82,7486.94 L755.82,7504.16 L755.82,7521.37 L755.82,7538.59 L755.82,7555.80 L755.82,7573.02 L755.82,7590.23 L755.82,7607.45 L755.82,7624.66 L755.82,7641.88 L755.82,7659.09 L755.82,7676.31 L755.82,7693.52 L755.82,7710.74 L755.82,7727.95 L755.82,7745.17 L755.82,7762.38 L755.82,7779.60 L755.82,7796.81 L755.82,7814.03 L755.82,7831.24 L755.82,7848.46 L755.82,7865.67 L755.82,7882.89 L755.82,7900.10 L755.82,7917.32 L755.82,7934.53 L755.82,7951.75 L755.82,7968.96 L755.82,7986.18 L755.82,8003.39 L755.82,8020.61 L755.82,8037.82 L773.04,8055.04 L773.04,8072.25 L773.04,8089.47 L773.04,8106.68 L773.04,8123.90 L773.04,8141.12 L773.04,8158.33 L773.04,8175.55 L773.04,8192.76 L773.04,8209.98 L755.82,8227.19 L755.82,8244.41 L755.82,8261.62 L755.82,8278.84 L755.82,8296.05 L755.82,8313.27 L755.82,8330.48 L755.82,8347.70 L755.82,8364.91 L755.82,8382.13 L755.82,8399.34 L773.04,8416.56 L773.04,8433.77 L773.04,8450.99 L755.82,8468.20 L755.82,8485.42 L755.82,8502.63 L755.82,8519.85 L755.82,8537.06 L773.04,8554.28 L773.04,8571.49 L773.04,8588.71 L773.04,8605.92 L773.04,8623.14 L773.04,8640.35 L773.04,8657.57 L773.04,8674.78 L773.04,8692.00 L773.04,8709.21 L773.04,8726.43 L773.04,8743.65 L773.04,8760.86 L773.04,8778.08 L773.04,8795.29 L773.04,8812.51 L773.04,8829.72 L773.04,8846.94 L773.04,8864.15 L773.04,8881.37 L773.04,8898.58 L773.04,8915.80 L773.04,8933.01 L773.04,8950.23 L773.04,8967.44 L773.04,8984.66 L773.04,9001.87 L773.04,9019.09 L773.04,9036.30 L773.04,9053.52 L773.04,9070.73 L773.04,9087.95 L773.04,9105.16 L773.04,9122.38 L773.04,9139.59 L773.04,9156.81 L773.04,9174.02 L773.04,9191.24 L773.04,9208.45 L773.04,9225.67 L773.04,9242.88 L773.04,9260.10 L773.04,9277.31 L773.04,9294.53 L773.04,9311.74 L773.04,9328.96 L773.04,9346.17 L773.04,9363.39 L773.04,9380.61 L773.04,9397.82 L773.04,9415.04 L773.04,9432.25 L773.04,9449.47 L773.04,9466.68 L773.04,9483.90 L773.04,9501.11 L773.04,9518.33 L773.04,9535.54 L773.04,9552.76 L773.04,9569.97 L773.04,9587.19 L773.04,9604.40 L773.04,9621.62 L773.04,9638.83 L773.04,9656.05 L773.04,9673.26 L773.04,9690.48 L773.04,9707.69 L773.04,9724.91 L773.04,9742.12 L773.04,9759.34 L773.04,9776.55 L773.04,9793.77 L773.04,9810.98 L773.04,9828.20 L773.04,9845.41 L773.04,9862.63 L773.04,9879.84 L773.04,9897.06 L773.04,9914.27 L773.04,9931.49 L773.04,9948.70 L773.04,9965.92 L773.04,9983.13 L773.04,10000.35 L773.04,10017.57 L773.04,10034.78 L773.04,10052.00 L773.04,10069.21 L773.04,10086.43 L773.04,10103.64 L773.04,10120.86 L773.04,10138.07 L773.04,10155.29 L773.04,10172.50 L773.04,10189.72 L773.04,10206.93 L773.04,10224.15 L773.04,10241.36 L790.25,10258.58 L790.25,10275.79 L790.25,10293.01 L790.25,10310.22 L790.25,10327.44 L790.25,10344.65 L790.25,10361.87 L790.25,10379.08 L790.25,10396.30 L790.25,10413.51 L790.25,10430.73 L790.25,10447.94 L790.25,10465.16 L790.25,10482.37 L790.25,10499.59 L790.25,10516.80 L790.25,10534.02 L790.25,10551.23 L790.25,10568.45 L790.25,10585.66 L790.25,10602.88 L790.25,10620.10 L790.25,10637.31 L790.25,10654.53 L790.25,10671.74 L790.25,10688.96 L790.25,10706.17 L790.25,10723.39 L790.25,10740.60 L790.25,10757.82 L790.25,10775.03 L790.25,10792.25 L790.25,10809.46 L790.25,10826.68 L790.25,10843.89 L790.25,10861.11 L790.25,10878.32 L790.25,10895.54 L790.25,10912.75 L790.25,10929.97 L790.25,10947.18 L790.25,10964.40 L790.25,10981.61 L790.25,10998.83 L790.25,11016.04 L790.25,11033.26 L790.25,11050.47 L790.25,11067.69 L790.25,11084.90 L790.25,11102.12 L790.25,11119.33 L790.25,11136.55 L790.25,11153.76 L790.25,11170.98 L790.25,11188.19 L790.25,11205.41 L790.25,11222.62 L790.25,11239.84 L790.25,11257.06 L790.25,11274.27 L790.25,11291.49 L790.25,11308.70 L790.25,11325.92 L790.25,11343.13 L790.25,11360.35 L790.25,11377.56 L790.25,11394.78 L790.25,11411.99 L790.25,11429.21 L790.25,11446.42 L790.25,11463.64 L790.25,11480.85 L790.25,11498.07 L790.25,11515.28 L790.25,11532.50 L790.25,11549.71 L790.25,11566.93 L790.25,11584.14 L790.25,11601.36 L790.25,11618.57 L790.25,11635.79 L790.25,11653.00 L790.25,11670.22 L790.25,11687.43 L790.25,11704.65 L790.25,11721.86 L807.47,11739.08 L807.47,11756.29 L807.47,11773.51 L807.47,11790.72 L807.47,11807.94 L807.47,11825.15 L807.47,11842.37 L807.47,11859.59 L807.47,11876.80 L807.47,11894.02 L807.47,11911.23 L807.47,11928.45 L807.47,11945.66 L807.47,11962.88 L807.47,11980.09 L807.47,11997.31 L807.47,12014.52 L807.47,12031.74 L807.47,12048.95 L807.47,12066.17 L807.47,12083.38 L807.47,12100.60 L807.47,12117.81 L807.47,12135.03 L807.47,12152.24 L807.47,12169.46 L807.47,12186.67 L807.47,12203.89 L807.47,12221.10 L807.47,12238.32 L807.47,12255.53 L807.47,12272.75 L807.47,12289.96 L807.47,12307.18 L807.47,12324.39 L807.47,12341.61 L807.47,12358.82 L807.47,12376.04 L807.47,12393.25 L807.47,12410.47 L807.47,12427.68 L807.47,12444.90 L807.47,12462.11 L807.47,12479.33 L807.47,12496.55 L807.47,12513.76 L807.47,12530.98 L807.47,12548.19 L807.47,12565.41 L807.47,12582.62 L807.47,12599.84 L807.47,12617.05 L807.47,12634.27 L807.47,12651.48 L790.25,12668.70 L790.25,12685.91 L790.25,12703.13 L790.25,12720.34 L790.25,12737.56 L790.25,12754.77 L807.47,12771.99 L807.47,12789.20 L807.47,12806.42 L807.47,12823.63 L807.47,12840.85 L807.47,12858.06 L807.47,12875.28 L807.47,12892.49 L790.25,12909.71 L790.25,12926.92 L773.04,12944.14 L773.04,12961.35 L773.04,12978.57 L790.25,12995.78 L790.25,13013.00 L807.47,13030.21 L807.47,13047.43 L807.47,13064.64 L790.25,13081.86 L773.04,13081.86 L755.82,13099.08 L738.61,13116.29 L738.61,13133.51 L721.39,13150.72 L721.39,13167.94 L738.61,13185.15 L738.61,13202.37 L755.82,13219.58 L773.04,13219.58 L790.25,13236.80 L790.25,13254.01 L773.04,13271.23 L755.82,13288.44 L738.61,13288.44 L721.39,13305.66 L704.18,13322.87 L686.96,13340.09 L686.96,13357.30 L686.96,13374.52 L686.96,13391.73 L686.96,13408.95 L686.96,13426.16 L704.18,13443.38 L721.39,13460.59 L738.61,13477.81 L755.82,13495.02 L755.82,13512.24 L755.82,13529.45 L755.82,13546.67 L755.82,13563.88 L755.82,13581.10 L755.82,13598.31 L755.82,13615.53 L755.82,13632.74 L755.82,13649.96 L755.82,13667.17 L755.82,13684.39 L755.82,13701.60 L755.82,13718.82 L755.82,13736.04 L755.82,13753.25 L755.82,13770.47 L755.82,13787.68 L755.82,13804.90 L755.82,13822.11 L755.82,13839.33 L755.82,13856.54 L755.82,13873.76 L755.82,13890.97 L755.82,13908.19 L755.82,13925.40 L755.82,13942.62 L755.82,13959.83 L755.82,13977.05 L755.82,13994.26 L755.82,14011.48 L755.82,14028.69 L755.82,14045.91 L755.82,14063.12 L755.82,14080.34 L755.82,14097.55 L755.82,14114.77 L755.82,14131.98 L755.82,14149.20 L755.82,14166.41 L755.82,14183.63 L755.82,14200.84 L755.82,14218.06 L755.82,14235.27 L755.82,14252.49 L755.82,14269.70 L755.82,14286.92 L755.82,14304.13 L755.82,14321.35 L773.04,14338.57 L773.04,14355.78 L755.82,14373.00 L755.82,14390.21 L755.82,14407.43 L773.04,14424.64 L773.04,14441.86 L773.04,14459.07 L773.04,14476.29 L773.04,14493.50 L773.04,14510.72 L773.04,14527.93 L773.04,14545.15 L773.04,14562.36 L773.04,14579.58 L773.04,14596.79 L773.04,14614.01 L773.04,14631.22 L773.04,14648.44 L773.04,14665.65 L773.04,14682.87 L773.04,14700.08 L773.04,14717.30 L773.04,14734.51 L773.04,14751.73 L773.04,14768.94 L773.04,14786.16 L773.04,14803.37 L773.04,14820.59 L773.04,14837.80 L773.04,14855.02 L773.04,14872.23 L773.04,14889.45 L773.04,14906.66 L773.04,14923.88 L773.04,14941.09 L773.04,14958.31 L773.04,14975.53 L773.04,14992.74 L755.82,15009.96 L755.82,15027.17 L738.61,15044.39 L721.39,15061.60 L704.18,15078.82 L686.96,15096.03 L686.96,15113.25 L686.96,15130.46 L686.96,15147.68 L704.18,15164.89 L686.96,15182.11 L686.96,15199.32 L686.96,15216.54 L704.18,15233.75 L721.39,15250.97 L738.61,15268.18 L738.61,15285.40 L738.61,15302.61 L738.61,15319.83 L738.61,15337.04 L738.61,15354.26 L738.61,15371.47 L738.61,15388.69 L738.61,15405.90 L738.61,15423.12 L738.61,15440.33 L738.61,15457.55 L738.61,15474.76 L738.61,15491.98 L738.61,15509.19 L738.61,15526.41 L738.61,15543.62 L738.61,15560.84 L721.39,15578.06 L704.18,15595.27 L704.18,15612.49 L721.39,15629.70 L721.39,15646.92 L738.61,15664.13 L738.61,15681.35 L738.61,15698.56 L738.61,15715.78 L738.61,15732.99 L721.39,15750.21 L704.18,15767.42 L686.96,15784.64 L669.74,15784.64 L652.53,15801.85 L635.31,15819.07 L618.10,15836.28 L618.10,15853.50 L600.88,15870.71 L600.88,15887.93 L600.88,15905.14 L618.10,15922.36 L618.10,15939.57 L600.88,15956.79 L583.67,15956.79 L566.45,15956.79 L549.24,15956.79 L532.02,15956.79 L514.81,15956.79 L497.59,15974.00 L480.38,15974.00 L463.16,15974.00 L445.95,15991.22 L428.73,15991.22 L411.52,16008.43 L394.30,16025.65 L377.09,16042.86 L377.09,16060.08 L359.87,16077.29 L359.87,16094.51 L359.87,16111.72 L359.87,16128.94 L359.87,16146.15 L359.87,16163.37 L359.87,16180.58 L342.66,16197.80 L325.44,16215.02 L325.44,16232.23 L308.23,16249.45 L308.23,16266.66 L291.01,16283.88 L273.80,16301.09 L273.80,16318.31 L256.58,16335.52 L239.37,16352.74 L222.15,16369.95 L204.94,16369.95 L187.72,16387.17 L170.51,16387.17 L153.29,16387.17 L136.08,16404.38 L118.86,16421.60 L101.65,16438.81 L84.43,16456.03 L84.43,16473.24 L84.43,16490.46 L84.43,16507.67 L84.43,16524.89 L84.43,16542.10 L84.43,16559.32 L84.43,16576.53 L84.43,16593.75 L84.43,16610.96 L84.43,16628.18 L101.65,16645.39 L118.86,16662.61 L118.86,16679.82 L118.86,16697.04 L118.86,16714.25 L118.86,16731.47 L118.86,16748.68 L118.86,16765.90 L118.86,16783.11 L118.86,16800.33 L118.86,16817.55 L118.86,16834.76 L118.86,16851.98 L118.86,16869.19 L118.86,16886.41 L118.86,16903.62 L118.86,16920.84 L118.86,16938.05 L118.86,16955.27 L118.86,16972.48 L118.86,16989.70 L118.86,17006.91 L118.86,17024.13 L118.86,17041.34 L118.86,17058.56 L118.86,17075.77 L118.86,17092.99 L118.86,17110.20 L101.65,17127.42 L84.43,17144.63 L84.43,17161.85 L67.22,17179.06 L67.22,17196.28 L50.00,17213.49 L50.00,17230.71 L50.00,17247.92 L50.00,17265.14 L50.00,17282.35 L50.00,17299.57 L67.22,17316.78 L67.22,17334.00 L84.43,17351.21 L101.65,17368.43 L118.86,17368.43 L136.08,17385.64 L153.29,17385.64 L170.51,17402.86 L187.72,17402.86 L204.94,17420.07 L222.15,17420.07 L239.37,17420.07 L256.58,17420.07 L273.80,17437.29 L291.01,17437.29 L308.23,17437.29 L325.44,17437.29 L342.66,17454.51 L359.87,17454.51 L377.09,17454.51 L394.30,17454.51 L411.52,17454.51 L428.73,17454.51 L445.95,17454.51 L463.16,17454.51 L480.38,17454.51 L497.59,17454.51 L514.81,17454.51 L532.02,17471.72 L549.24,17471.72 L566.45,17471.72 L583.67,17471.72 L600.88,17471.72 L618.10,17471.72 L635.31,17471.72 L652.53,17488.94 L669.74,17488.94 L686.96,17488.94 L704.18,17506.15 L721.39,17506.15 L738.61,17523.37 L755.82,17523.37 L773.04,17540.58 L790.25,17540.58 L807.47,17557.80 L824.68,17557.80 L841.90,17557.80 L859.11,17575.01 L876.33,17575.01 L893.54,17575.01 L910.76,17575.01 L927.97,17575.01 L945.19,17592.23 L962.40,17592.23 L979.62,17609.44 L979.62,17626.66 L962.40,17643.87 L945.19,17643.87 L927.97,17661.09 L910.76,17678.30 L910.76,17695.52 L910.76,17712.73 L910.76,17729.95 L910.76,17747.16 L910.76,17764.38 L910.76,17781.59 L910.76,17798.81 L910.76,17816.02 L910.76,17833.24 L910.76,17850.45 L927.97,17867.67 L945.19,17884.88 L945.19,17902.10 L962.40,17919.31 L979.62,17936.53 L979.62,17953.74 L996.83,17970.96 L996.83,17988.17 L1014.05,18005.39 L1031.26,18005.39 L1048.48,18005.39 L1065.69,18005.39 L1082.91,18005.39 L1100.12,18005.39 L1117.34,18005.39 L1134.55,18005.39 L1151.77,18005.39 L1168.98,18005.39 L1186.20,18005.39 L1203.41,18005.39 L1220.63,18005.39 L1237.84,18005.39 L1255.06,17988.17 L1272.27,17988.17 L1289.49,17988.17 L1306.71,17988.17 L1323.92,17988.17 L1341.14,17988.17 L1358.35,17988.17 L1375.57,17988.17 L1392.78,17970.96 L1410.00,17970.96 L1427.21,17953.74 L1444.43,17953.74 L1461.64,17936.53 L1478.86,17936.53 L1496.07,17919.31 L1513.29,17919.31 L1530.50,17919.31 L1547.72,17902.10 L1564.93,17902.10 L1582.15,17884.88 L1599.36,17884.88 L1616.58,17867.67 L1633.79,17867.67 L1651.01,17850.45 L1668.22,17850.45 L1685.44,17833.24 L1702.65,17833.24 L1719.87,17816.02 L1737.08,17816.02 L1754.30,17798.81 L1771.51,17798.81 L1788.73,17781.59 L1805.94,17781.59 L1823.16,17764.38 L1840.37,17764.38 L1857.59,17764.38 L1874.80,17747.16 L1892.02,17747.16 L1909.23,17729.95 L1926.45,17729.95 L1943.67,17712.73 L1960.88,17712.73 L1978.10,17712.73 L1995.31,17712.73 L2012.53,17712.73 L2029.74,17712.73 L2046.96,17712.73 L2064.17,17712.73 L2081.39,17712.73 L2098.60,17712.73 L2115.82,17712.73 L2133.03,17712.73 L2150.25,17712.73 L2167.46,17712.73 L2184.68,17712.73 L2201.89,17712.73 L2219.11,17712.73 L2236.32,17712.73 L2253.54,17712.73 L2270.75,17712.73 L2287.97,17712.73 L2305.18,17712.73 L2322.40,17712.73 L2339.61,17712.73 L2356.83,17712.73 L2374.04,17712.73 L2391.26,17712.73 L2408.47,17712.73 L2425.69,17695.52 L2442.90,17695.52 L2460.12,17695.52 L2477.33,17695.52 L2494.55,17695.52 L2511.76,17695.52 L2528.98,17695.52 L2546.20,17695.52 L2563.41,17695.52 L2580.63,17695.52 L2597.84,17695.52 L2615.06,17695.52 L2632.27,17695.52 L2649.49,17695.52 L2666.70,17695.52 L2683.92,17678.30 L2701.13,17678.30 L2718.35,17678.30 L2735.56,17678.30 L2752.78,17678.30 L2769.99,17678.30 L2787.21,17678.30 L2804.42,17678.30 L2821.64,17661.09 L2838.85,17661.09 L2856.07,17661.09 L2873.28,17661.09 L2890.50,17661.09 L2907.71,17661.09 L2924.93,17661.09 L2942.14,17661.09 L2959.36,17661.09 L2976.57,17661.09 L2993.79,17643.87 L3011.00,17643.87 L3028.22,17643.87 L3045.43,17643.87 L3062.65,17643.87 L3079.86,17643.87 L3097.08,17643.87 L3114.29,17626.66 L3131.51,17626.66 L3148.72,17626.66 L3165.94,17626.66 L3183.16,17626.66 L3200.37,17626.66 L3217.59,17643.87 L3217.59,17661.09 L3217.59,17678.30 L3217.59,17695.52 L3234.80,17695.52 L3252.02,17695.52 L3269.23,17695.52 L3286.45,17695.52 L3303.66,17712.73 L3320.88,17695.52 L3338.09,17695.52 L3355.31,17695.52 L3372.52,17695.52 L3389.74,17695.52 L3406.95,17695.52 L3424.17,17678.30 L3424.17,17661.09 L3406.95,17643.87 L3424.17,17626.66 L3441.38,17626.66 L3458.60,17643.87 L3475.81,17643.87 L3493.03,17643.87 L3510.24,17661.09 L3527.46,17661.09 L3544.67,17678.30 L3561.89,17678.30 L3579.10,17695.52 L3596.32,17695.52 L3613.53,17695.52 L3630.75,17712.73 L3647.96,17712.73 L3665.18,17712.73 L3682.39,17712.73 L3699.61,17729.95 L3716.82,17729.95 L3734.04,17729.95 L3751.25,17729.95 L3768.47,17747.16 L3785.69,17747.16 L3802.90,17747.16 L3820.12,17747.16 L3837.33,17747.16 L3854.55,17764.38 L3871.76,17764.38 L3888.98,17764.38 L3906.19,17764.38 L3923.41,17764.38 L3940.62,17764.38 L3957.84,17764.38 L3975.05,17764.38 L3992.27,17764.38 L4009.48,17764.38 L4026.70,17764.38 L4043.91,17764.38 L4061.13,17764.38 L4078.34,17764.38 L4095.56,17764.38 L4112.77,17764.38 L4129.99,17764.38 L4147.20,17764.38 L4164.42,17764.38 L4181.63,17764.38 L4198.85,17747.16 L4216.06,17747.16 L4233.28,17729.95 L4250.49,17712.73 L4250.49,17695.52 L4250.49,17678.30 L4250.49,17661.09 L4250.49,17643.87 L4250.49,17626.66 L4250.49,17609.44 L4250.49,17592.23 L4250.49,17575.01 L4233.28,17557.80 L4216.06,17540.58 L4216.06,17523.37 L4198.85,17506.15 L4181.63,17488.94 L4164.42,17471.72 L4147.20,17471.72 L4129.99,17454.51 L4112.77,17437.29 L4095.56,17420.07 L4078.34,17402.86 L4078.34,17385.64 L4095.56,17368.43 L4112.77,17351.21 L4129.99,17334.00 L4147.20,17316.78 L4164.42,17299.57 L4181.63,17282.35 L4198.85,17265.14 L4216.06,17247.92 L4233.28,17230.71 L4233.28,17213.49 L4233.28,17196.28 L4250.49,17179.06 L4267.71,17161.85 L4284.92,17161.85 L4302.14,17161.85 L4319.35,17144.63 L4336.57,17144.63 L4353.78,17127.42 L4371.00,17127.42 L4388.21,17110.20 L4388.21,17092.99 L4405.43,17075.77 L4422.65,17058.56 L4422.65,17041.34 L4422.65,17024.13 L4422.65,17006.91 L4422.65,16989.70 L4405.43,16972.48 L4405.43,16955.27 L4388.21,16938.05 L4371.00,16938.05 L4353.78,16920.84 L4336.57,16920.84 L4319.35,16903.62 L4302.14,16903.62 L4284.92,16903.62 L4267.71,16903.62 L4250.49,16903.62 L4233.28,16886.41 L4233.28,16869.19 L4233.28,16851.98 L4233.28,16834.76 L4233.28,16817.55 L4250.49,16800.33 L4250.49,16783.11 L4250.49,16765.90 L4250.49,16748.68 L4250.49,16731.47 L4250.49,16714.25 L4250.49,16697.04 L4267.71,16679.82 L4267.71,16662.61 L4284.92,16645.39 L4302.14,16628.18 L4319.35,16628.18 L4336.57,16628.18 L4353.78,16610.96 L4371.00,16610.96 L4388.21,16610.96 L4405.43,16610.96 L4422.65,16610.96 L4439.86,16610.96 L4457.08,16593.75 L4474.29,16593.75 L4491.51,16593.75 L4508.72,16576.53 L4525.94,16576.53 L4543.15,16576.53 L4560.37,16559.32 L4577.58,16559.32 L4594.80,16559.32 L4612.01,16542.10 L4629.23,16542.10 L4646.44,16542.10 L4663.66,16524.89 L4680.87,16524.89 L4698.09,16507.67 L4715.30,16490.46 L4698.09,16473.24 L4680.87,16456.03 L4663.66,16456.03 L4646.44,16456.03 L4629.23,16456.03 L4612.01,16456.03 L4594.80,16456.03 L4577.58,16456.03 L4560.37,16456.03 L4543.15,16456.03 L4525.94,16456.03 L4508.72,16456.03 L4491.51,16456.03 L4474.29,16456.03 L4457.08,16473.24 L4439.86,16473.24 L4422.65,16473.24 L4405.43,16473.24 L4388.21,16473.24 L4371.00,16456.03 L4371.00,16438.81 L4371.00,16421.60 L4388.21,16404.38 L4388.21,16387.17 L4405.43,16369.95 L4405.43,16352.74 L4405.43,16335.52 L4422.65,16318.31 L4422.65,16301.09 L4439.86,16283.88 L4439.86,16266.66 L4457.08,16249.45 L4457.08,16232.23 L4474.29,16215.02 L4474.29,16197.80 L4491.51,16180.58 L4491.51,16163.37 L4508.72,16146.15 L4508.72,16128.94 L4525.94,16111.72 L4525.94,16094.51 L4543.15,16077.29 L4560.37,16060.08 L4577.58,16042.86 L4594.80,16025.65 L4612.01,16025.65 L4629.23,16025.65 L4646.44,16025.65 L4663.66,16008.43 L4680.87,15991.22 L4680.87,15974.00 L4698.09,15956.79 L4715.30,15939.57 L4732.52,15939.57 L4749.73,15922.36 L4766.95,15922.36 L4784.16,15905.14 L4801.38,15905.14 L4818.59,15887.93 L4835.81,15887.93 L4853.02,15887.93 L4870.24,15870.71 L4887.45,15870.71 L4904.67,15870.71 L4921.88,15853.50 L4939.10,15853.50 L4956.31,15853.50 L4973.53,15853.50 L4990.74,15853.50 L5007.96,15836.28 L5025.18,15836.28 L5042.39,15836.28 L5059.61,15836.28 L5076.82,15819.07 L5094.04,15819.07 L5111.25,15819.07 L5128.47,15819.07 L5145.68,15801.85 L5162.90,15801.85 L5180.11,15801.85 L5197.33,15784.64 L5214.54,15784.64 L5231.76,15767.42 L5214.54,15750.21 L5197.33,15732.99 L5180.11,15715.78 L5162.90,15715.78 L5145.68,15715.78 L5128.47,15715.78 L5111.25,15715.78 L5094.04,15715.78 L5076.82,15715.78 L5059.61,15715.78 L5042.39,15732.99 L5025.18,15732.99 L5007.96,15732.99 L4990.74,15732.99 L4973.53,15732.99 L4956.31,15732.99 L4939.10,15715.78 L4939.10,15698.56 L4956.31,15681.35 L4973.53,15681.35 L4990.74,15664.13 L5007.96,15646.92 L4990.74,15629.70 L4973.53,15612.49 L4956.31,15612.49 L4939.10,15612.49 L4921.88,15612.49 L4904.67,15612.49 L4887.45,15612.49 L4870.24,15612.49 L4853.02,15612.49 L4835.81,15612.49 L4818.59,15612.49 L4801.38,15612.49 L4784.16,15595.27 L4766.95,15578.06 L4784.16,15560.84 L4784.16,15543.62 L4801.38,15526.41 L4801.38,15509.19 L4801.38,15491.98 L4818.59,15474.76 L4818.59,15457.55 L4835.81,15440.33 L4835.81,15423.12 L4853.02,15405.90 L4853.02,15388.69 L4870.24,15371.47 L4870.24,15354.26 L4887.45,15337.04 L4887.45,15319.83 L4904.67,15302.61 L4904.67,15285.40 L4921.88,15268.18 L4921.88,15250.97 L4939.10,15233.75 L4939.10,15216.54 L4939.10,15199.32 L4956.31,15182.11 L4956.31,15164.89 L4973.53,15147.68 L4973.53,15130.46 L4990.74,15113.25 L4990.74,15096.03 L5007.96,15078.82 L5007.96,15061.60 L5025.18,15044.39 L5025.18,15027.17 L5025.18,15009.96 L5042.39,14992.74 L5042.39,14975.53 L5059.61,14958.31 L5059.61,14941.09 L5076.82,14923.88 L5076.82,14906.66 L5094.04,14889.45 L5094.04,14872.23 L5094.04,14855.02 L5111.25,14837.80 L5111.25,14820.59 L5128.47,14803.37 L5128.47,14786.16 L5145.68,14768.94 L5162.90,14751.73 L5162.90,14734.51 L5162.90,14717.30 L5180.11,14700.08 L5180.11,14682.87 L5180.11,14665.65 L5197.33,14648.44 L5197.33,14631.22 L5214.54,14614.01 L5214.54,14596.79 L5231.76,14579.58 L5231.76,14562.36 L5248.97,14545.15 L5248.97,14527.93 L5266.19,14510.72 L5266.19,14493.50 L5266.19,14476.29 L5283.40,14459.07 L5283.40,14441.86 L5300.62,14424.64 L5300.62,14407.43 L5317.83,14390.21 L5317.83,14373.00 L5335.05,14355.78 L5335.05,14338.57 L5352.26,14321.35 L5352.26,14304.13 L5369.48,14286.92 L5369.48,14269.70 L5386.69,14252.49 L5386.69,14235.27 L5403.91,14218.06 L5403.91,14200.84 L5403.91,14183.63 L5421.12,14166.41 L5421.12,14149.20 L5438.34,14131.98 L5438.34,14114.77 L5455.55,14097.55 L5455.55,14080.34 L5472.77,14063.12 L5472.77,14045.91 L5489.98,14028.69 L5489.98,14011.48 L5489.98,13994.26 L5507.20,13977.05 L5507.20,13959.83 L5524.41,13942.62 L5524.41,13925.40 L5541.63,13908.19 L5541.63,13890.97 L5558.84,13873.76 L5558.84,13856.54 L5576.06,13839.33 L5593.27,13822.11 L5610.49,13804.90 L5610.49,13787.68 L5627.70,13770.47 L5627.70,13753.25 L5627.70,13736.04 L5627.70,13718.82 L5627.70,13701.60 L5644.92,13684.39 L5644.92,13667.17 L5662.14,13649.96 L5662.14,13632.74 L5679.35,13615.53 L5679.35,13598.31 L5696.57,13581.10 L5696.57,13563.88 L5696.57,13546.67 L5713.78,13529.45 L5713.78,13512.24 L5731.00,13495.02 L5731.00,13477.81 L5748.21,13460.59 L5748.21,13443.38 L5765.43,13426.16 L5765.43,13408.95 L5782.64,13391.73 L5782.64,13374.52 L5799.86,13357.30 L5799.86,13340.09 L5799.86,13322.87 L5817.07,13305.66 L5817.07,13288.44 L5834.29,13271.23 L5834.29,13254.01 L5851.50,13236.80 L5851.50,13219.58 L5851.50,13202.37 L5868.72,13185.15 L5868.72,13167.94 L5885.93,13150.72 L5885.93,13133.51 L5903.15,13116.29 L5903.15,13099.08 L5920.36,13081.86 L5920.36,13064.64 L5937.58,13047.43 L5937.58,13030.21 L5937.58,13013.00 L5954.79,12995.78 L5954.79,12978.57 L5972.01,12961.35 L5972.01,12944.14 L5989.22,12926.92 L5989.22,12909.71 L6006.44,12892.49 L6006.44,12875.28 L6023.65,12858.06 L6023.65,12840.85 L6023.65,12823.63 L6040.87,12806.42 L6040.87,12789.20 L6058.08,12771.99 L6058.08,12754.77 L6075.30,12737.56 L6075.30,12720.34 L6092.51,12703.13 L6092.51,12685.91 L6109.73,12668.70 L6109.73,12651.48 L6126.94,12634.27 L6126.94,12617.05 L6144.16,12599.84 L6144.16,12582.62 L6144.16,12565.41 L6161.37,12548.19 L6161.37,12530.98 L6178.59,12513.76 L6178.59,12496.55 L6195.80,12479.33 L6195.80,12462.11 L6213.02,12444.90 L6213.02,12427.68 L6230.23,12410.47 L6230.23,12393.25 L6230.23,12376.04 L6247.45,12358.82 L6247.45,12341.61 L6264.67,12324.39 L6281.88,12307.18 L6299.10,12289.96 L6299.10,12272.75 L6299.10,12255.53 L6299.10,12238.32 L6316.31,12221.10 L6316.31,12203.89 L6316.31,12186.67 L6333.53,12169.46 L6333.53,12152.24 L6350.74,12135.03 L6350.74,12117.81 L6367.96,12100.60 L6367.96,12083.38 L6385.17,12066.17 L6385.17,12048.95 L6402.39,12031.74 L6402.39,12014.52 L6419.60,11997.31 L6419.60,11980.09 L6419.60,11962.88 L6436.82,11945.66 L6436.82,11928.45 L6454.03,11911.23 L6454.03,11894.02 L6471.25,11876.80 L6471.25,11859.59 L6488.46,11842.37 L6488.46,11825.15 L6505.68,11807.94 L6505.68,11790.72 L6522.89,11773.51 L6522.89,11756.29 L6540.11,11739.08 L6540.11,11721.86 L6540.11,11704.65 L6557.32,11687.43 L6557.32,11670.22 L6574.54,11653.00 L6574.54,11635.79 L6591.75,11618.57 L6591.75,11601.36 L6608.97,11584.14 L6608.97,11566.93 L6626.18,11549.71 L6626.18,11532.50 L6643.40,11515.28 L6643.40,11498.07 L6660.61,11480.85 L6660.61,11463.64 L6660.61,11446.42 L6677.83,11429.21 L6677.83,11411.99 L6695.04,11394.78 L6695.04,11377.56 L6712.26,11360.35 L6712.26,11343.13 L6729.47,11325.92 L6729.47,11308.70 L6746.69,11291.49 L6746.69,11274.27 L6746.69,11257.06 L6763.90,11239.84 L6763.90,11222.62 L6781.12,11205.41 L6781.12,11188.19 L6798.33,11170.98 L6798.33,11153.76 L6815.55,11136.55 L6815.55,11119.33 L6832.76,11102.12 L6832.76,11084.90 L6849.98,11067.69 L6849.98,11050.47 L6849.98,11033.26 L6867.19,11016.04 L6867.19,10998.83 L6884.41,10981.61 L6884.41,10964.40 L6901.63,10947.18 L6918.84,10929.97 L6936.06,10912.75 L6936.06,10895.54 L6936.06,10878.32 L6953.27,10861.11 L6953.27,10843.89 L6953.27,10826.68 L6970.49,10809.46 L6970.49,10792.25 L6987.70,10775.03 L6987.70,10757.82 L7004.92,10740.60 L7022.13,10723.39 L7039.35,10740.60 L7056.56,10740.60 L7056.56,10723.39 L7039.35,10723.39 L7022.13,10706.17 L7022.13,10688.96 L7022.13,10671.74 L7039.35,10654.53 L7039.35,10637.31 L7039.35,10620.10 L7056.56,10602.88 L7056.56,10585.66 L7073.78,10568.45 L7073.78,10551.23 L7090.99,10534.02 L7108.21,10516.80 L7125.42,10499.59 L7125.42,10482.37 L7125.42,10465.16 L7125.42,10447.94 L7125.42,10430.73 L7142.64,10413.51 L7142.64,10396.30 L7159.85,10379.08 L7159.85,10361.87 L7177.07,10344.65 L7177.07,10327.44 L7194.28,10310.22 L7194.28,10293.01 L7194.28,10275.79 L7211.50,10258.58 L7211.50,10241.36 L7228.71,10224.15 L7228.71,10206.93 L7245.93,10189.72 L7245.93,10172.50 L7263.14,10155.29 L7263.14,10138.07 L7280.36,10120.86 L7280.36,10103.64 L7297.57,10086.43 L7297.57,10069.21 L7297.57,10052.00 L7314.79,10034.78 L7314.79,10017.57 L7332.00,10000.35 L7349.22,9983.13 L7349.22,9965.92 L7349.22,9948.70 L7366.43,9931.49 L7366.43,9914.27 L7383.65,9897.06 L7383.65,9879.84 L7400.86,9862.63 L7400.86,9845.41 L7418.08,9828.20 L7418.08,9810.98 L7418.08,9793.77 L7435.29,9776.55 L7435.29,9759.34 L7452.51,9742.12 L7452.51,9724.91 L7469.72,9707.69 L7469.72,9690.48 L7486.94,9673.26 L7486.94,9656.05 L7504.16,9638.83 L7504.16,9621.62 L7504.16,9604.40 L7521.37,9587.19 L7521.37,9569.97 L7538.59,9552.76 L7538.59,9535.54 L7555.80,9518.33 L7555.80,9501.11 L7573.02,9483.90 L7573.02,9466.68 L7590.23,9449.47 L7590.23,9432.25 L7590.23,9415.04 L7607.45,9397.82 L7607.45,9380.61 L7624.66,9363.39 L7624.66,9346.17 L7641.88,9328.96 L7641.88,9311.74 L7659.09,9294.53 L7659.09,9277.31 L7676.31,9260.10 L7676.31,9242.88 L7676.31,9225.67 L7693.52,9208.45 L7693.52,9191.24 L7710.74,9174.02 L7710.74,9156.81 L7727.95,9139.59 L7727.95,9122.38 L7745.17,9105.16 L7745.17,9087.95 L7762.38,9070.73 L7762.38,9053.52 L7762.38,9036.30 L7779.60,9019.09 L7779.60,9001.87 L7796.81,8984.66 L7796.81,8967.44 L7814.03,8950.23 L7814.03,8933.01 L7814.03,8915.80 L7831.24,8898.58 L7831.24,8881.37 L7848.46,8864.15 L7848.46,8846.94 L7865.67,8829.72 L7865.67,8812.51 L7882.89,8795.29 L7882.89,8778.08 L7900.10,8760.86 L7900.10,8743.65 L7900.10,8726.43 L7917.32,8709.21 L7917.32,8692.00 L7934.53,8674.78 L7934.53,8657.57 L7951.75,8640.35 L7951.75,8623.14 L7968.96,8605.92 L7968.96,8588.71 L7986.18,8571.49 L7986.18,8554.28 L8003.39,8537.06 L8003.39,8519.85 L8003.39,8502.63 L8020.61,8485.42 L8020.61,8468.20 L8037.82,8450.99 L8037.82,8433.77 L8055.04,8416.56 L8055.04,8399.34 L8072.25,8382.13 L8072.25,8364.91 L8089.47,8347.70 L8089.47,8330.48 L8106.68,8313.27 L8106.68,8296.05 L8123.90,8278.84 L8123.90,8261.62 L8123.90,8244.41 L8141.12,8227.19 L8141.12,8209.98 L8158.33,8192.76 L8158.33,8175.55 L8175.55,8158.33 L8192.76,8141.12 L8209.98,8123.90 L8209.98,8106.68 L8227.19,8089.47 L8227.19,8072.25 L8227.19,8055.04 L8227.19,8037.82 L8244.41,8020.61 L8244.41,8003.39 L8244.41,7986.18 L8261.62,7968.96 L8261.62,7951.75 L8278.84,7934.53 L8278.84,7917.32 L8296.05,7900.10 L8296.05,7882.89 L8313.27,7865.67 L8313.27,7848.46 L8330.48,7831.24 L8330.48,7814.03 L8330.48,7796.81 L8347.70,7779.60 L8347.70,7762.38 L8364.91,7745.17 L8364.91,7727.95 L8382.13,7710.74 L8382.13,7693.52 L8399.34,7676.31 L8416.56,7659.09 L8416.56,7641.88 L8416.56,7624.66 L8416.56,7607.45 L8433.77,7590.23 L8433.77,7573.02 L8450.99,7555.80 L8450.99,7538.59 L8450.99,7521.37 L8468.20,7504.16 L8468.20,7486.94 L8485.42,7469.72 L8502.63,7452.51 L8502.63,7435.29 L8519.85,7418.08 L8519.85,7400.86 L8519.85,7383.65 L8519.85,7366.43 L8537.06,7349.22 L8537.06,7332.00 L8554.28,7314.79 L8554.28,7297.57 L8571.49,7280.36 L8571.49,7263.14 L8588.71,7245.93 L8588.71,7228.71 L8605.92,7211.50 L8605.92,7194.28 L8605.92,7177.07 L8623.14,7159.85 L8623.14,7142.64 L8640.35,7125.42 L8640.35,7108.21 L8657.57,7090.99 L8657.57,7073.78 L8657.57,7056.56 L8674.78,7039.35 L8674.78,7022.13 L8692.00,7004.92 L8692.00,6987.70 L8709.21,6970.49 L8709.21,6953.27 L8726.43,6936.06 L8726.43,6918.84 L8726.43,6901.63 L8743.65,6884.41 L8743.65,6867.19 L8760.86,6849.98 L8760.86,6832.76 L8778.08,6815.55 L8778.08,6798.33 L8795.29,6781.12 L8795.29,6763.90 L8812.51,6746.69 L8812.51,6729.47 L8829.72,6712.26 L8829.72,6695.04 L8829.72,6677.83 L8846.94,6660.61 L8846.94,6643.40 L8864.15,6626.18 L8864.15,6608.97 L8881.37,6591.75 L8881.37,6574.54 L8898.58,6557.32 L8898.58,6540.11 L8898.58,6522.89 L8915.80,6505.68 L8915.80,6488.46 L8933.01,6471.25 L8933.01,6454.03 L8950.23,6436.82 L8950.23,6419.60 L8967.44,6402.39 L8967.44,6385.17 L8984.66,6367.96 L8984.66,6350.74 L8984.66,6333.53 L9001.87,6316.31 L9001.87,6299.10 L9019.09,6281.88 L9019.09,6264.67 L9036.30,6247.45 L9036.30,6230.23 L9053.52,6213.02 L9053.52,6195.80 L9070.73,6178.59 L9070.73,6161.37 L9087.95,6144.16 L9087.95,6126.94 L9105.16,6109.73 L9105.16,6092.51 L9105.16,6075.30 L9122.38,6058.08 L9122.38,6040.87 L9139.59,6023.65 L9156.81,6006.44 L9174.02,5989.22 L9191.24,5972.01 L9208.45,5954.79 L9225.67,5954.79 L9242.88,5937.58 L9242.88,5920.36 L9242.88,5903.15 L9242.88,5885.93 L9260.10,5868.72 L9260.10,5851.50 L9277.31,5834.29 L9277.31,5817.07 L9294.53,5799.86 L9294.53,5782.64 L9294.53,5765.43 L9311.74,5748.21 L9311.74,5731.00 L9328.96,5713.78 L9328.96,5696.57 L9346.17,5679.35 L9346.17,5662.14 L9363.39,5644.92 L9363.39,5627.70 L9363.39,5610.49 L9380.61,5593.27 L9380.61,5576.06 L9397.82,5558.84 L9397.82,5541.63 L9397.82,5524.41 L9415.04,5507.20 L9415.04,5489.98 L9432.25,5472.77 L9432.25,5455.55 L9449.47,5438.34 L9449.47,5421.12 L9449.47,5403.91 L9466.68,5386.69 L9466.68,5369.48 L9483.90,5352.26 L9501.11,5335.05 L9518.33,5317.83 L9518.33,5300.62 L9535.54,5283.40 L9535.54,5266.19 L9535.54,5248.97 L9535.54,5231.76 L9535.54,5214.54 L9535.54,5197.33 L9535.54,5180.11 L9535.54,5162.90 L9535.54,5145.68 L9552.76,5128.47 L9552.76,5111.25 L9569.97,5094.04 L9569.97,5076.82 L9569.97,5059.61 L9569.97,5042.39 L9569.97,5025.18 L9569.97,5007.96 L9587.19,4990.74 L9587.19,4973.53 L9587.19,4956.31 L9587.19,4939.10 L9587.19,4921.88 L9587.19,4904.67 L9587.19,4887.45 L9587.19,4870.24 L9587.19,4853.02 L9587.19,4835.81 L9587.19,4818.59 L9587.19,4801.38 L9587.19,4784.16 L9587.19,4766.95 L9587.19,4749.73 L9587.19,4732.52 L9587.19,4715.30 L9569.97,4698.09 L9569.97,4680.87 L9569.97,4663.66 L9569.97,4646.44 L9569.97,4629.23 L9552.76,4612.01 L9552.76,4594.80 L9552.76,4577.58 L9535.54,4560.37 L9535.54,4543.15 L9518.33,4525.94 L9518.33,4508.72 L9501.11,4491.51 L9501.11,4474.29 L9483.90,4457.08 L9466.68,4439.86 L9466.68,4422.65 L9449.47,4405.43 L9432.25,4388.21 L9432.25,4371.00 L9415.04,4353.78 L9397.82,4336.57 L9380.61,4319.35 L9363.39,4302.14 L9346.17,4284.92 L9328.96,4267.71 L9311.74,4267.71 L9294.53,4250.49 L9277.31,4233.28 L9260.10,4216.06 L9242.88,4198.85 L9225.67,4198.85 L9208.45,4181.63 L9191.24,4164.42 L9174.02,4164.42 L9156.81,4147.20 L9139.59,4129.99 L9122.38,4129.99 L9105.16,4129.99 L9087.95,4112.77 L9070.73,4112.77 L9053.52,4095.56 L9036.30,4095.56 L9019.09,4078.34 L9001.87,4078.34 L8984.66,4078.34 L8967.44,4078.34 L8950.23,4061.13 L8933.01,4061.13 L8915.80,4061.13 L8898.58,4061.13 L8881.37,4043.91 L8864.15,4043.91 L8846.94,4043.91 L8829.72,4043.91 L8812.51,4043.91 L8795.29,4043.91 L8778.08,4043.91 L8760.86,4043.91 L8743.65,4043.91 L8726.43,4043.91 L8709.21,4043.91 L8692.00,4043.91 L8674.78,4043.91 L8657.57,4043.91 L8640.35,4043.91 L8623.14,4043.91 L8605.92,4043.91 L8588.71,4043.91 L8571.49,4043.91 L8554.28,4043.91 L8537.06,4061.13 L8519.85,4061.13 L8502.63,4061.13 L8485.42,4061.13 L8468.20,4078.34 L8450.99,4078.34 L8433.77,4078.34 L8416.56,4078.34 L8399.34,4095.56 L8382.13,4095.56 L8364.91,4095.56 L8347.70,4112.77 L8330.48,4112.77 L8313.27,4112.77 L8296.05,4129.99 L8278.84,4129.99 L8261.62,4129.99 L8244.41,4147.20 L8227.19,4147.20 L8209.98,4164.42 L8192.76,4164.42 L8175.55,4181.63 L8158.33,4181.63 L8141.12,4198.85 L8123.90,4198.85 L8106.68,4198.85 L8089.47,4216.06 L8072.25,4233.28 L8055.04,4233.28 L8037.82,4250.49 L8020.61,4250.49 L8003.39,4267.71 L7986.18,4267.71 L7968.96,4284.92 L7951.75,4284.92 L7934.53,4302.14 L7917.32,4302.14 L7900.10,4319.35 L7882.89,4336.57 L7865.67,4336.57 L7848.46,4336.57 L7831.24,4353.78 L7814.03,4371.00 L7796.81,4388.21 L7779.60,4388.21 L7762.38,4405.43 L7745.17,4422.65 L7727.95,4422.65 L7710.74,4439.86 L7693.52,4457.08 L7676.31,4457.08 L7659.09,4474.29 L7641.88,4491.51 L7624.66,4491.51 L7607.45,4508.72 L7590.23,4525.94 L7573.02,4525.94 L7555.80,4543.15 L7538.59,4543.15 L7521.37,4560.37 L7504.16,4577.58 L7486.94,4577.58 L7469.72,4594.80 L7452.51,4612.01 L7435.29,4612.01 L7418.08,4629.23 L7400.86,4646.44 L7383.65,4646.44 L7366.43,4663.66 L7349.22,4680.87 L7332.00,4680.87 L7314.79,4698.09 L7297.57,4715.30 L7280.36,4715.30 L7263.14,4732.52 L7245.93,4732.52 L7228.71,4749.73 L7211.50,4766.95 L7194.28,4766.95 L7177.07,4784.16 L7159.85,4801.38 L7142.64,4801.38 L7125.42,4818.59 L7108.21,4818.59 L7090.99,4835.81 L7073.78,4853.02 L7056.56,4853.02 L7039.35,4870.24 L7022.13,4870.24 L7004.92,4887.45 L6987.70,4887.45 L6970.49,4904.67 L6953.27,4904.67 L6936.06,4921.88 L6918.84,4921.88 L6901.63,4939.10 L6884.41,4939.10 L6867.19,4956.31 L6849.98,4956.31 L6832.76,4973.53 L6815.55,4973.53 L6798.33,4973.53 L6781.12,4990.74 L6763.90,4990.74 L6746.69,4990.74 L6729.47,5007.96 L6712.26,5007.96 L6695.04,5007.96 L6677.83,5007.96 L6660.61,5007.96 L6643.40,5007.96 L6626.18,5025.18 L6608.97,5025.18 L6591.75,5025.18 L6574.54,5025.18 L6557.32,5025.18 L6540.11,5025.18 L6522.89,5025.18 L6505.68,5025.18 L6488.46,5025.18 L6471.25,5025.18 L6454.03,5025.18 L6436.82,5007.96 L6419.60,5007.96 L6402.39,5007.96 L6385.17,5007.96 L6367.96,4990.74 L6350.74,4990.74 L6333.53,4990.74 L6316.31,4973.53 L6299.10,4973.53 L6281.88,4956.31 L6264.67,4939.10 L6247.45,4939.10 L6230.23,4921.88 L6213.02,4904.67 L6195.80,4904.67 L6178.59,4887.45 L6161.37,4870.24 L6144.16,4853.02 L6126.94,4835.81 L6109.73,4818.59 L6092.51,4801.38 L6075.30,4784.16 L6058.08,4766.95 L6040.87,4749.73 L6023.65,4732.52 L6006.44,4715.30 L5989.22,4698.09 L5972.01,4680.87 L5972.01,4663.66 L5954.79,4646.44 L5937.58,4629.23 L5920.36,4612.01 L5920.36,4594.80 L5903.15,4577.58 L5885.93,4560.37 L5885.93,4543.15 L5868.72,4525.94 L5851.50,4508.72 L5851.50,4491.51 L5834.29,4474.29 L5834.29,4457.08 L5817.07,4439.86 L5799.86,4422.65 L5799.86,4405.43 L5782.64,4388.21 L5782.64,4371.00 L5765.43,4353.78 L5748.21,4336.57 L5748.21,4319.35 L5731.00,4302.14 L5731.00,4284.92 L5713.78,4267.71 L5696.57,4250.49 L5696.57,4233.28 L5679.35,4216.06 L5679.35,4198.85 L5662.14,4181.63 L5662.14,4164.42 L5644.92,4147.20 L5644.92,4129.99 L5627.70,4112.77 L5627.70,4095.56 L5610.49,4078.34 L5610.49,4061.13 L5593.27,4043.91 L5593.27,4026.70 L5576.06,4009.48 L5576.06,3992.27 L5558.84,3975.05 L5558.84,3957.84 L5541.63,3940.62 L5541.63,3923.41 L5524.41,3906.19 L5524.41,3888.98 L5507.20,3871.76 L5507.20,3854.55 L5489.98,3837.33 L5489.98,3820.12 L5472.77,3802.90 L5472.77,3785.69 L5455.55,3768.47 L5455.55,3751.25 L5438.34,3734.04 L5438.34,3716.82 L5421.12,3699.61 L5421.12,3682.39 L5403.91,3665.18 L5403.91,3647.96 L5386.69,3630.75 L5386.69,3613.53 L5369.48,3596.32 L5369.48,3579.10 L5369.48,3561.89 L5352.26,3544.67 L5352.26,3527.46 L5335.05,3510.24 L5335.05,3493.03 L5317.83,3475.81 L5317.83,3458.60 L5300.62,3441.38 L5300.62,3424.17 L5283.40,3406.95 L5283.40,3389.74 L5266.19,3372.52 L5266.19,3355.31 L5248.97,3338.09 L5248.97,3320.88 L5231.76,3303.66 L5231.76,3286.45 L5214.54,3269.23 L5214.54,3252.02 L5214.54,3234.80 L5197.33,3217.59 L5197.33,3200.37 L5180.11,3183.16 L5180.11,3165.94 L5162.90,3148.72 L5162.90,3131.51 L5145.68,3114.29 L5145.68,3097.08 L5128.47,3079.86 L5128.47,3062.65 L5111.25,3045.43 L5111.25,3028.22 L5111.25,3011.00 L5094.04,2993.79 L5076.82,2976.57 L5076.82,2959.36 L5059.61,2942.14 L5059.61,2924.93 L5042.39,2907.71 L5042.39,2890.50 L5025.18,2873.28 L5025.18,2856.07 L5025.18,2838.85 L5007.96,2821.64 L5007.96,2804.42 L4990.74,2787.21 L4990.74,2769.99 L4973.53,2752.78 L4973.53,2735.56 L4956.31,2718.35 L4956.31,2701.13 L4939.10,2683.92 L4939.10,2666.70 L4921.88,2649.49 L4921.88,2632.27 L4904.67,2615.06 L4904.67,2597.84 L4887.45,2580.63 L4887.45,2563.41 L4870.24,2546.20 L4870.24,2528.98 L4870.24,2511.76 L4853.02,2494.55 L4853.02,2477.33 L4835.81,2460.12 L4835.81,2442.90 L4818.59,2425.69 L4818.59,2408.47 L4801.38,2391.26 L4801.38,2374.04 L4784.16,2356.83 L4784.16,2339.61 L4766.95,2322.40 L4766.95,2305.18 L4749.73,2287.97 L4749.73,2270.75 L4732.52,2253.54 L4715.30,2236.32 L4715.30,2219.11 L4698.09,2201.89 L4698.09,2184.68 L4698.09,2167.46 L4680.87,2150.25 L4680.87,2133.03 L4663.66,2115.82 L4663.66,2098.60 L4646.44,2081.39 L4646.44,2064.17 L4629.23,2046.96 L4629.23,2029.74 L4612.01,2012.53 L4612.01,1995.31 L4594.80,1978.10 L4594.80,1960.88 L4577.58,1943.67 L4577.58,1926.45 L4560.37,1909.23 L4560.37,1892.02 L4543.15,1874.80 L4525.94,1857.59 L4525.94,1840.37 L4508.72,1823.16 L4508.72,1805.94 L4491.51,1788.73 L4491.51,1771.51 L4474.29,1754.30 L4474.29,1737.08 L4457.08,1719.87 L4457.08,1702.65 L4439.86,1685.44 L4439.86,1668.22 L4422.65,1651.01 L4405.43,1633.79 L4405.43,1616.58 L4388.21,1599.36 L4388.21,1582.15 L4371.00,1564.93 L4353.78,1547.72 L4336.57,1530.50 L4336.57,1513.29 L4319.35,1496.07 L4302.14,1478.86 L4302.14,1461.64 L4284.92,1444.43 L4267.71,1427.21 L4267.71,1410.00 L4250.49,1392.78 L4233.28,1375.57 L4233.28,1358.35 L4216.06,1341.14 L4198.85,1323.92 L4198.85,1306.71 L4181.63,1289.49 L4181.63,1272.27 L4164.42,1255.06 L4147.20,1237.84 L4129.99,1220.63 L4112.77,1203.41 L4112.77,1186.20 L4095.56,1168.98 L4078.34,1151.77 L4061.13,1134.55 L4061.13,1117.34 L4043.91,1100.12 L4026.70,1082.91 L4009.48,1065.69 L3992.27,1048.48 L3975.05,1031.26 L3957.84,1014.05 L3957.84,996.83 L3940.62,979.62 L3923.41,962.40 L3906.19,945.19 L3888.98,927.97 L3871.76,910.76 L3854.55,893.54 L3837.33,876.33 L3820.12,859.11 L3802.90,841.90 L3785.69,824.68 L3768.47,807.47 L3751.25,790.25 L3734.04,790.25 L3716.82,773.04 L3699.61,755.82 L3682.39,738.61 L3665.18,721.39 L3647.96,721.39 L3630.75,704.18 L3613.53,686.96 L3596.32,669.74 L3579.10,669.74 L3561.89,652.53 L3544.67,635.31 L3527.46,635.31 L3510.24,618.10 L3493.03,600.88 L3475.81,600.88 L3458.60,583.67 L3441.38,566.45 L3424.17,566.45 L3406.95,549.24 L3389.74,549.24 L3372.52,532.02 L3355.31,514.81 L3338.09,514.81 L3320.88,497.59 L3303.66,497.59 L3286.45,480.38 L3269.23,480.38 L3252.02,463.16 L3234.80,463.16 L3217.59,445.95 L3200.37,445.95 L3183.16,428.73 L3165.94,428.73 L3148.72,411.52 L3131.51,411.52 L3114.29,394.30 L3097.08,394.30 L3079.86,377.09 L3062.65,359.87 L3045.43,359.87 L3028.22,342.66 L3011.00,342.66 L2993.79,342.66 L2976.57,342.66 L2959.36,325.44 L2942.14,325.44 L2924.93,325.44 L2907.71,308.23 L2890.50,308.23 L2873.28,308.23 L2856.07,291.01 L2838.85,291.01 L2821.64,273.80 L2804.42,273.80 L2787.21,273.80 L2769.99,273.80 L2752.78,256.58 L2735.56,256.58 L2718.35,256.58 L2701.13,239.37 L2683.92,239.37 L2666.70,239.37 L2649.49,222.15 L2632.27,222.15 L2615.06,222.15 L2597.84,222.15 L2580.63,204.94 L2563.41,204.94 L2546.20,204.94 L2528.98,204.94 L2511.76,187.72 L2494.55,187.72 L2477.33,187.72 L2460.12,187.72 L2442.90,187.72 L2425.69,170.51 L2408.47,170.51 L2391.26,170.51 L2374.04,170.51 L2356.83,153.29 L2339.61,153.29 L2322.40,153.29 L2305.18,153.29 L2287.97,153.29 L2270.75,153.29 L2253.54,153.29 L2236.32,153.29 L2219.11,136.08 L2201.89,136.08 L2184.68,136.08 L2167.46,136.08 L2150.25,136.08 L2133.03,136.08 L2115.82,136.08 L2098.60,136.08 L2081.39,136.08 L2064.17,118.86 L2046.96,118.86 L2029.74,118.86 L2012.53,118.86 L1995.31,118.86 L1978.10,118.86 L1960.88,118.86 L1943.67,118.86 L1926.45,118.86 L1909.23,118.86 L1892.02,118.86 L1874.80,118.86 L1857.59,118.86 L1840.37,118.86 L1823.16,118.86 L1805.94,101.65 L1788.73,101.65 L1771.51,84.43 L1754.30,84.43 L1737.08,84.43 L1719.87,84.43 L1702.65,84.43 L1685.44,84.43 L1668.22,84.43 L1651.01,84.43 L1633.79,67.22 L1616.58,67.22 L1599.36,67.22 L1582.15,67.22 L1564.93,67.22 L1547.72,67.22 L1530.50,67.22 L1513.29,67.22 L1496.07,67.22 L1478.86,67.22 L1461.64,67.22 L1444.43,67.22 L1427.21,67.22 L1410.00,67.22 L1392.78,67.22 L1375.57,67.22 L1358.35,67.22 L1341.14,67.22 L1323.92,67.22 L1306.71,67.22 L1289.49,67.22 L1272.27,67.22 L1255.06,67.22 L1237.84,67.22 L1220.63,67.22 L1203.41,67.22 L1186.20,67.22 L1168.98,67.22 L1151.77,67.22 L1134.55,50.00 L1117.34,50.00 L1100.12,50.00 L1082.91,50.00 L1065.69,50.00 L1048.48,50.00 L1031.26,50.00 L1014.05,50.00 L996.83,50.00 L979.62,50.00 L962.40,50.00 L945.19,50.00 L927.97,50.00 L910.76,50.00 L893.54,50.00 Z"/>
<line class="outline" style="stroke-dasharray:5,3;stroke:#888;stroke-width:0.8" x1="1995.31" y1="5300.62" x2="2706.16" y2="4163.05"/>
<line class="outline" style="stroke-dasharray:5,3;stroke:#888;stroke-width:0.8" x1="1995.31" y1="3785.69" x2="2706.16" y2="4102.45"/>
<circle class="grom" cx="1995.31" cy="5300.62" r="2"/>
<circle class="flat" cx="1995.31" cy="3785.69" r="2"/>
<circle class="grom" cx="2706.16" cy="4163.05" r="2"/>
<circle class="flat" cx="2706.16" cy="4102.45" r="2"/>
<text class="lbl" x="50.00" y="45.00">Erard harp profile (mm)  overall: 9537 x 17955  stringband: 47 strings, bass = 1514.9 mm active  scale: 17.215 mm/px</text>
<text class="dim" x="50.00" y="53.00">solid black = actual silhouette contour from erard-big.jpg, aligned to DXF via bass-string landmarks; dashed = DXF neck/soundboard chords; strings OFF</text>
</svg>