<svg xmlns="http://www.w3.org/2000/svg" viewBox="-7.3000 62.4020 838.7450 493.3010" width="838.7450mm" height="493.3010mm">
  <path d="M 811.4450,418.8680 C 809.1060,422.6120 804.2170,423.9390 800.6070,426.4810 C 795.7110,429.9280 791.4390,434.1850 786.8590,438.0410 C 769.0840,453.0040 751.2950,467.9490 733.5590,482.9580 C 733.1660,483.2900 735.2270,481.7560 734.7960,482.0370 C 725.9100,487.8300 717.0270,493.6270 708.1510,499.4370 C 707.6420,499.7700 710.3020,498.2970 709.7490,498.5510 C 691.9620,506.7340 674.1740,514.9310 656.4480,523.2450 C 655.7120,523.5910 659.5410,522.2450 658.7510,522.4370 C 645.0720,525.7710 631.3990,529.1290 617.7290,532.4970 C 617.0560,532.6620 620.4730,532.1180 619.7820,532.1700 C 605.4290,533.2390 591.0760,534.3080 576.7270,535.4210 C 575.7510,535.4970 580.6290,535.7030 579.6630,535.5420 C 574.8810,534.7490 570.0970,533.9590 565.3010,533.2550 C 564.0000,533.0640 570.2190,535.0860 569.0540,534.4760 C 559.5400,529.4950 549.9310,524.6970 540.3610,519.8250 C 539.8470,519.5630 542.3170,521.0490 541.8450,520.7170 C 531.6110,513.5370 521.3800,506.3530 511.1200,499.2100 C 510.4750,498.7610 513.4630,501.3020 512.9160,500.7370 C 507.8070,495.4660 502.6770,490.2140 497.5470,484.9630 C 497.1480,484.5540 498.9950,486.7280 498.6570,486.2680 C 493.5340,479.3190 488.3990,472.3790 483.2640,465.4390 C 483.0110,465.0980 484.1850,466.8660 483.9680,466.5000 C 466.2160,436.5340 472.0580,444.9050 452.5390,418.6890 C 451.8480,417.7610 454.5980,422.8260 454.1940,421.7410 C 435.6900,371.9950 443.4330,390.2850 421.9960,345.3570 C 421.8310,345.0120 422.5740,346.7720 422.4420,346.4130 C 416.9090,331.4230 412.0370,316.1720 405.8200,301.4530 C 402.8450,294.4080 374.4280,234.5900 371.8210,228.9410 C 366.0140,216.3570 360.2020,203.7770 354.3960,191.1930 C 342.7780,166.0150 331.1960,140.8200 319.5480,115.6560 C 318.8560,114.1620 317.8760,112.8090 316.6680,111.6900 C 315.4570,110.5680 314.0370,109.7050 312.4940,109.1230 C 279.2180,96.5780 291.0920,101.6270 238.6130,92.0790 C 190.5630,83.3360 181.4760,82.4020 146.2840,89.1810 C 140.3060,90.3330 134.3290,91.4850 128.3510,92.6370 C 127.9240,92.7190 112.5000,94.4140 107.0300,97.2630 C 75.5660,113.6560 12.7000,111.0840 12.7000,146.5630 C -83.4823,145.9694 193.4593,61.8964 281.5207,66.8031 C 369.5822,71.7098 359.9341,284.1100 441.9918,343.1455 C 524.0494,402.1810 482.5696,467.4711 576.4689,510.4953 C 670.3681,553.5195 729.5711,472.4303 811.4450,418.8680 Z" fill="#d62728" fill-opacity="0.25" stroke="none" />
  <path d="M 811.4450,418.8680 C 809.1060,422.6120 804.2170,423.9390 800.6070,426.4810 C 795.7110,429.9280 791.4390,434.1850 786.8590,438.0410 C 769.0840,453.0040 751.2950,467.9490 733.5590,482.9580 C 733.1660,483.2900 735.2270,481.7560 734.7960,482.0370 C 725.9100,487.8300 717.0270,493.6270 708.1510,499.4370 C 707.6420,499.7700 710.3020,498.2970 709.7490,498.5510 C 691.9620,506.7340 674.1740,514.9310 656.4480,523.2450 C 655.7120,523.5910 659.5410,522.2450 658.7510,522.4370 C 645.0720,525.7710 631.3990,529.1290 617.7290,532.4970 C 617.0560,532.6620 620.4730,532.1180 619.7820,532.1700 C 605.4290,533.2390 591.0760,534.3080 576.7270,535.4210 C 575.7510,535.4970 580.6290,535.7030 579.6630,535.5420 C 574.8810,534.7490 570.0970,533.9590 565.3010,533.2550 C 564.0000,533.0640 570.2190,535.0860 569.0540,534.4760 C 559.5400,529.4950 549.9310,524.6970 540.3610,519.8250 C 539.8470,519.5630 542.3170,521.0490 541.8450,520.7170 C 531.6110,513.5370 521.3800,506.3530 511.1200,499.2100 C 510.4750,498.7610 513.4630,501.3020 512.9160,500.7370 C 507.8070,495.4660 502.6770,490.2140 497.5470,484.9630 C 497.1480,484.5540 498.9950,486.7280 498.6570,486.2680 C 493.5340,479.3190 488.3990,472.3790 483.2640,465.4390 C 483.0110,465.0980 484.1850,466.8660 483.9680,466.5000 C 466.2160,436.5340 472.0580,444.9050 452.5390,418.6890 C 451.8480,417.7610 454.5980,422.8260 454.1940,421.7410 C 435.6900,371.9950 443.4330,390.2850 421.9960,345.3570 C 421.8310,345.0120 422.5740,346.7720 422.4420,346.4130 C 416.9090,331.4230 412.0370,316.1720 405.8200,301.4530 C 402.8450,294.4080 374.4280,234.5900 371.8210,228.9410 C 366.0140,216.3570 360.2020,203.7770 354.3960,191.1930 C 342.7780,166.0150 331.1960,140.8200 319.5480,115.6560 C 318.8560,114.1620 317.8760,112.8090 316.6680,111.6900 C 315.4570,110.5680 314.0370,109.7050 312.4940,109.1230 C 279.2180,96.5780 291.0920,101.6270 238.6130,92.0790 C 190.5630,83.3360 181.4760,82.4020 146.2840,89.1810 C 140.3060,90.3330 134.3290,91.4850 128.3510,92.6370 C 127.9240,92.7190 112.5000,94.4140 107.0300,97.2630 C 75.5660,113.6560 12.7000,111.0840 12.7000,146.5630" fill="none" stroke="#1f77b4" stroke-width="1.0" />
  <path d="M 811.4450,418.8680 C 729.5711,472.4303 670.3681,553.5195 576.4689,510.4953 C 482.5696,467.4711 524.0494,402.1810 441.9918,343.1455 C 359.9341,284.1100 369.5822,71.7098 281.5207,66.8031 C 193.4593,61.8964 -83.4823,145.9694 12.7000,146.5630" fill="none" stroke="#d62728" stroke-width="1.0" />
  <circle cx="811.4450" cy="418.8680" r="3" fill="#d62728" />
  <circle cx="576.4689" cy="510.4953" r="3" fill="#d62728" />
  <circle cx="441.9918" cy="343.1455" r="3" fill="#d62728" />
  <circle cx="281.5207" cy="66.8031" r="3" fill="#d62728" />
  <circle cx="12.7000" cy="146.5630" r="3" fill="#d62728" />
  <text x="-2.3000" y="70.4020" font-size="3" fill="black">A = 15039.1 mm^2</text>
</svg>
