<svg xmlns="http://www.w3.org/2000/svg" viewBox="-7.3000 278.0340 866.0840 379.8690" width="866.0840mm" height="379.8690mm">
  <path d="M 12.7000,323.8440 C 43.0630,323.9860 73.6340,327.8100 103.7900,324.2690 C 139.9800,320.0200 174.1700,298.0340 210.5170,300.6170 C 245.9620,303.1370 278.2430,322.9820 310.0000,338.9280 C 316.9660,342.4260 320.2880,350.7950 324.0450,357.6250 C 357.8810,419.1390 384.4850,484.8090 422.6530,543.7330 C 439.7520,570.1310 462.6640,593.3430 488.4230,611.3920 C 507.1080,624.4860 530.3340,630.4530 552.7180,634.8750 C 568.0480,637.9030 584.3240,636.7640 599.5730,633.3490 C 615.8350,629.7080 630.9660,621.8520 645.6940,614.0560 C 673.7980,599.1790 702.5850,584.8570 727.7930,565.4750 C 761.3770,539.6530 790.5250,508.5110 821.1000,479.1880 C 822.8840,477.4780 816.7190,481.4980 814.4170,482.3990 C 813.8330,482.6280 811.9140,482.5510 812.5410,482.5390 C 821.2890,482.3740 830.0360,482.1390 838.7840,481.9390 C 765.3913,531.4848 720.3548,579.0357 644.9711,622.5802 C 569.5875,666.1247 450.0254,615.0897 412.2713,536.4251 C 374.5172,457.7606 342.3020,379.3765 270.0875,325.4453 C 197.8729,271.5141 95.8931,354.6785 12.7000,323.8440 Z" fill="#d62728" fill-opacity="0.25" stroke="none" />
  <path d="M 12.7000,323.8440 C 43.0630,323.9860 73.6340,327.8100 103.7900,324.2690 C 139.9800,320.0200 174.1700,298.0340 210.5170,300.6170 C 245.9620,303.1370 278.2430,322.9820 310.0000,338.9280 C 316.9660,342.4260 320.2880,350.7950 324.0450,357.6250 C 357.8810,419.1390 384.4850,484.8090 422.6530,543.7330 C 439.7520,570.1310 462.6640,593.3430 488.4230,611.3920 C 507.1080,624.4860 530.3340,630.4530 552.7180,634.8750 C 568.0480,637.9030 584.3240,636.7640 599.5730,633.3490 C 615.8350,629.7080 630.9660,621.8520 645.6940,614.0560 C 673.7980,599.1790 702.5850,584.8570 727.7930,565.4750 C 761.3770,539.6530 790.5250,508.5110 821.1000,479.1880 C 822.8840,477.4780 816.7190,481.4980 814.4170,482.3990 C 813.8330,482.6280 811.9140,482.5510 812.5410,482.5390 C 821.2890,482.3740 830.0360,482.1390 838.7840,481.9390" fill="none" stroke="#1f77b4" stroke-width="1.0" />
  <path d="M 12.7000,323.8440 C 95.8931,354.6785 197.8729,271.5141 270.0875,325.4453 C 342.3020,379.3765 374.5172,457.7606 412.2713,536.4251 C 450.0254,615.0897 569.5875,666.1247 644.9711,622.5802 C 720.3548,579.0357 765.3913,531.4848 838.7840,481.9390" fill="none" stroke="#d62728" stroke-width="1.0" />
  <circle cx="12.7000" cy="323.8440" r="3" fill="#d62728" />
  <circle cx="270.0875" cy="325.4453" r="3" fill="#d62728" />
  <circle cx="412.2713" cy="536.4251" r="3" fill="#d62728" />
  <circle cx="644.9711" cy="622.5802" r="3" fill="#d62728" />
  <circle cx="838.7840" cy="481.9390" r="3" fill="#d62728" />
  <text x="-2.3000" y="286.0340" font-size="3" fill="black">A = 4445.27 mm^2</text>
</svg>
