<svg xmlns="http://www.w3.org/2000/svg" viewBox="759.21 0 167.42 289.97" width="502" height="870">
<text x="761.21" y="6.00" font-size="5" fill="#333" font-family="monospace">A. Side view (authoring x-y) — seam at y = Y_ST_HORIZ</text>
<line x1="833.78" y1="77.15" x2="911.16" y2="77.15" stroke="#cc00cc" stroke-width="2" fill="none"/>
<text x="831.78" y="87.15" font-size="4" fill="#cc00cc" font-family="monospace">seam (chamber↔shoulder) at y=481.94</text>
<line x1="838.78" y1="77.15" x2="906.63" y2="77.08" stroke="#227722" stroke-width="3" fill="none"/>
<text x="840.78" y="75.15" font-size="5" fill="#227722" font-family="monospace">plate ST→BT (67.8 mm)</text>
<circle cx="799.21" cy="77.47" r="12.0" stroke="#d02020" fill="none" stroke-width="0.8"/>
<text x="812.21" y="79.47" font-size="5" fill="#d02020" font-family="monospace">F7sb</text>
<circle cx="812.54" cy="65.15" r="12.0" stroke="#d02020" fill="none" stroke-width="0.8"/>
<text x="825.54" y="67.15" font-size="5" fill="#d02020" font-family="monospace">G7sb</text>
<circle cx="808.31" cy="31.66" r="12.0" stroke="#2020d0" fill="none" stroke-width="0.8"/>
<text x="821.31" y="33.66" font-size="5" fill="#2020d0" font-family="monospace">F7fb</text>
<circle cx="821.64" cy="20.43" r="12.0" stroke="#2020d0" fill="none" stroke-width="0.8"/>
<text x="834.64" y="22.43" font-size="5" fill="#2020d0" font-family="monospace">G7fb</text>
<circle cx="838.78" cy="77.15" r="1.5" stroke="#000" fill="#000" stroke-width="0.8"/>
<text x="841.78" y="84.15" font-size="6" fill="#000" font-family="monospace">ST</text>
<circle cx="906.63" cy="77.08" r="1.5" stroke="#000" fill="#000" stroke-width="0.8"/>
<text x="909.63" y="84.08" font-size="6" fill="#000" font-family="monospace">BT</text>
<line x1="785.32" y1="106.65" x2="890.28" y2="9.64" stroke="#008800" stroke-width="0.8" fill="none" stroke-dasharray="3,2"/>
<line x1="833.48" y1="85.63" x2="884.14" y2="4.56" stroke="#aa6600" stroke-width="0.8" fill="none" stroke-dasharray="3,2"/>
<circle cx="868.25" cy="30.00" r="1.5" stroke="#ff00ff" fill="#ff00ff" stroke-width="0.8"/>
<text x="871.25" y="30.00" font-size="5" fill="#ff00ff" font-family="monospace">P (angle=15.3°)</text>
<circle cx="844.21" cy="59.02" r="5.0" stroke="#bbbbbb" fill="none" stroke-width="0.3"/>
<path d="M 840.82 55.35 A 5.0 5.0 0 0 1 848.45 61.67" stroke="#ff00ff" stroke-width="2" fill="none"/>
<circle cx="799.21" cy="77.47" r="0.6" stroke="#000" fill="#000" stroke-width="0"/>
<circle cx="812.54" cy="65.15" r="0.6" stroke="#000" fill="#000" stroke-width="0"/>
<circle cx="808.31" cy="31.66" r="0.6" stroke="#000" fill="#000" stroke-width="0"/>
<circle cx="821.64" cy="20.43" r="0.6" stroke="#000" fill="#000" stroke-width="0"/>
<line x1="759.21" y1="124.65" x2="926.63" y2="124.65" stroke="#ccc" stroke-width="0.5" fill="none" stroke-dasharray="2,3"/>
<text x="761.21" y="138.15" font-size="5" fill="#333" font-family="monospace">B. Plan view at y=Y_ST_HORIZ=481.9390000000001 (x-z) — seam ring, plates</text>
<line x1="759.21" y1="179.56" x2="926.63" y2="179.56" stroke="#ddd" stroke-width="0.4" fill="none" stroke-dasharray="1,3"/>
<path d="M 838.78 179.56 L 839.35 168.63 L 839.92 166.06 L 840.48 164.22 L 841.05 162.74 L 841.62 161.48 L 842.18 160.38 L 842.75 159.39 L 843.31 158.49 L 843.88 157.66 L 844.45 156.90 L 845.01 156.19 L 845.58 155.53 L 846.14 154.90 L 846.71 154.32 L 847.28 153.76 L 847.84 153.24 L 848.41 152.74 L 848.98 152.27 L 849.54 151.83 L 850.11 151.40 L 850.67 151.00 L 851.24 150.61 L 851.81 150.25 L 852.37 149.90 L 852.94 149.57 L 853.51 149.25 L 854.07 148.95 L 854.64 148.66 L 855.20 148.39 L 855.77 148.13 L 856.34 147.88 L 856.90 147.65 L 857.47 147.42 L 858.04 147.21 L 858.60 147.02 L 859.17 146.83 L 859.73 146.65 L 860.30 146.49 L 860.87 146.33 L 861.43 146.19 L 862.00 146.05 L 862.57 145.93 L 863.13 145.81 L 863.70 145.71 L 864.26 145.61 L 864.83 145.52 L 865.40 145.45 L 865.96 145.38 L 866.53 145.32 L 867.10 145.27 L 867.66 145.23 L 868.23 145.19 L 868.79 145.17 L 869.36 145.15 L 869.93 145.15 L 870.49 145.15 L 871.06 145.16 L 871.63 145.18 L 872.19 145.21 L 872.76 145.24 L 873.32 145.29 L 873.89 145.34 L 874.46 145.40 L 875.02 145.47 L 875.59 145.55 L 876.15 145.64 L 876.72 145.74 L 877.29 145.84 L 877.85 145.96 L 878.42 146.08 L 878.99 146.21 L 879.55 146.36 L 880.12 146.51 L 880.68 146.67 L 881.25 146.84 L 881.82 147.02 L 882.38 147.20 L 882.95 147.40 L 883.52 147.61 L 884.08 147.83 L 884.65 148.06 L 885.21 148.30 L 885.78 148.55 L 886.35 148.82 L 886.91 149.09 L 887.48 149.38 L 888.05 149.67 L 888.61 149.98 L 889.18 150.31 L 889.74 150.64 L 890.31 150.99 L 890.88 151.36 L 891.44 151.74 L 892.01 152.13 L 892.58 152.54 L 893.14 152.97 L 893.71 153.41 L 894.27 153.88 L 894.84 154.36 L 895.41 154.86 L 895.97 155.39 L 896.54 155.94 L 897.11 156.51 L 897.67 157.11 L 898.24 157.74 L 898.80 158.40 L 899.37 159.10 L 899.94 159.83 L 900.50 160.61 L 901.07 161.43 L 901.63 162.31 L 902.20 163.26 L 902.77 164.28 L 903.33 165.39 L 903.90 166.62 L 904.47 168.01 L 905.03 169.61 L 905.60 171.56 L 906.16 174.22 L 906.16 184.90 L 905.60 187.56 L 905.03 189.51 L 904.47 191.11 L 903.90 192.49 L 903.33 193.72 L 902.77 194.84 L 902.20 195.86 L 901.63 196.80 L 901.07 197.68 L 900.50 198.51 L 899.94 199.29 L 899.37 200.02 L 898.80 200.72 L 898.24 201.38 L 897.67 202.01 L 897.11 202.61 L 896.54 203.18 L 895.97 203.73 L 895.41 204.25 L 894.84 204.76 L 894.27 205.24 L 893.71 205.70 L 893.14 206.15 L 892.58 206.57 L 892.01 206.98 L 891.44 207.38 L 890.88 207.76 L 890.31 208.12 L 889.74 208.47 L 889.18 208.81 L 888.61 209.13 L 888.05 209.44 L 887.48 209.74 L 886.91 210.03 L 886.35 210.30 L 885.78 210.56 L 885.21 210.82 L 884.65 211.06 L 884.08 211.29 L 883.52 211.50 L 882.95 211.71 L 882.38 211.91 L 881.82 212.10 L 881.25 212.28 L 880.68 212.45 L 880.12 212.61 L 879.55 212.76 L 878.99 212.90 L 878.42 213.04 L 877.85 213.16 L 877.29 213.27 L 876.72 213.38 L 876.15 213.48 L 875.59 213.56 L 875.02 213.64 L 874.46 213.71 L 873.89 213.78 L 873.32 213.83 L 872.76 213.88 L 872.19 213.91 L 871.63 213.94 L 871.06 213.96 L 870.49 213.97 L 869.93 213.97 L 869.36 213.96 L 868.79 213.95 L 868.23 213.92 L 867.66 213.89 L 867.10 213.85 L 866.53 213.80 L 865.96 213.74 L 865.40 213.67 L 864.83 213.59 L 864.26 213.51 L 863.70 213.41 L 863.13 213.31 L 862.57 213.19 L 862.00 213.07 L 861.43 212.93 L 860.87 212.79 L 860.30 212.63 L 859.73 212.47 L 859.17 212.29 L 858.60 212.10 L 858.04 211.90 L 857.47 211.69 L 856.90 211.47 L 856.34 211.24 L 855.77 210.99 L 855.20 210.73 L 854.64 210.46 L 854.07 210.17 L 853.51 209.87 L 852.94 209.55 L 852.37 209.22 L 851.81 208.87 L 851.24 208.50 L 850.67 208.12 L 850.11 207.71 L 849.54 207.29 L 848.98 206.84 L 848.41 206.37 L 847.84 205.88 L 847.28 205.35 L 846.71 204.80 L 846.14 204.21 L 845.58 203.59 L 845.01 202.93 L 844.45 202.22 L 843.88 201.45 L 843.31 200.63 L 842.75 199.73 L 842.18 198.74 L 841.62 197.63 L 841.05 196.38 L 840.48 194.90 L 839.92 193.06 L 839.35 190.49 L 838.78 179.56 Z" stroke="#00aaaa" fill="#e0ffff" stroke-width="1.5"/>
<path d="M 833.78 179.56 L 834.37 168.21 L 835.07 164.81 L 835.75 162.60 L 836.43 160.83 L 837.11 159.32 L 837.78 158.00 L 838.46 156.82 L 839.13 155.74 L 839.81 154.76 L 840.48 153.85 L 841.15 153.01 L 841.83 152.22 L 842.50 151.49 L 843.16 150.79 L 843.83 150.14 L 844.50 149.52 L 845.16 148.94 L 845.83 148.39 L 846.49 147.87 L 847.15 147.37 L 847.82 146.90 L 848.48 146.45 L 849.14 146.02 L 849.79 145.61 L 850.45 145.23 L 851.11 144.86 L 851.77 144.51 L 852.42 144.18 L 853.08 143.86 L 853.73 143.56 L 854.38 143.28 L 855.04 143.01 L 855.69 142.75 L 856.34 142.51 L 856.99 142.28 L 857.64 142.07 L 858.29 141.87 L 858.94 141.68 L 859.59 141.50 L 860.23 141.33 L 860.88 141.18 L 861.53 141.04 L 862.18 140.90 L 862.82 140.78 L 863.47 140.67 L 864.11 140.57 L 864.76 140.49 L 865.40 140.41 L 866.05 140.34 L 866.69 140.28 L 867.33 140.24 L 867.98 140.20 L 868.62 140.17 L 869.26 140.15 L 869.91 140.15 L 870.55 140.15 L 871.19 140.16 L 871.83 140.18 L 872.47 140.21 L 873.11 140.25 L 873.76 140.31 L 874.40 140.37 L 875.04 140.44 L 875.68 140.52 L 876.32 140.61 L 876.96 140.71 L 877.60 140.82 L 878.24 140.93 L 878.88 141.06 L 879.52 141.20 L 880.16 141.35 L 880.80 141.51 L 881.44 141.68 L 882.08 141.87 L 882.72 142.06 L 883.36 142.26 L 884.00 142.47 L 884.64 142.70 L 885.28 142.94 L 885.93 143.18 L 886.57 143.44 L 887.21 143.72 L 887.85 144.00 L 888.49 144.30 L 889.13 144.61 L 889.77 144.93 L 890.41 145.27 L 891.05 145.62 L 891.69 145.99 L 892.34 146.37 L 892.98 146.77 L 893.62 147.18 L 894.26 147.61 L 894.91 148.06 L 895.55 148.52 L 896.19 149.01 L 896.84 149.51 L 897.48 150.04 L 898.12 150.59 L 898.77 151.16 L 899.41 151.76 L 900.06 152.39 L 900.70 153.04 L 901.35 153.72 L 902.00 154.44 L 902.64 155.20 L 903.29 155.99 L 903.94 156.83 L 904.59 157.72 L 905.23 158.67 L 905.88 159.68 L 906.53 160.76 L 907.18 161.94 L 907.84 163.22 L 908.49 164.64 L 909.14 166.23 L 909.80 168.09 L 910.45 170.36 L 911.16 174.22 L 911.16 184.90 L 910.45 188.75 L 909.80 191.03 L 909.14 192.88 L 908.49 194.48 L 907.84 195.90 L 907.18 197.18 L 906.53 198.35 L 905.88 199.44 L 905.23 200.45 L 904.59 201.39 L 903.94 202.28 L 903.29 203.12 L 902.64 203.92 L 902.00 204.67 L 901.35 205.39 L 900.70 206.08 L 900.06 206.73 L 899.41 207.36 L 898.77 207.95 L 898.12 208.53 L 897.48 209.08 L 896.84 209.60 L 896.19 210.11 L 895.55 210.59 L 894.91 211.06 L 894.26 211.51 L 893.62 211.94 L 892.98 212.35 L 892.34 212.75 L 891.69 213.13 L 891.05 213.50 L 890.41 213.85 L 889.77 214.19 L 889.13 214.51 L 888.49 214.82 L 887.85 215.12 L 887.21 215.40 L 886.57 215.67 L 885.93 215.93 L 885.28 216.18 L 884.64 216.42 L 884.00 216.64 L 883.36 216.86 L 882.72 217.06 L 882.08 217.25 L 881.44 217.43 L 880.80 217.60 L 880.16 217.76 L 879.52 217.91 L 878.88 218.05 L 878.24 218.18 L 877.60 218.30 L 876.96 218.41 L 876.32 218.51 L 875.68 218.60 L 875.04 218.68 L 874.40 218.75 L 873.76 218.81 L 873.11 218.86 L 872.47 218.90 L 871.83 218.93 L 871.19 218.96 L 870.55 218.97 L 869.91 218.97 L 869.26 218.96 L 868.62 218.95 L 867.98 218.92 L 867.33 218.88 L 866.69 218.83 L 866.05 218.78 L 865.40 218.71 L 864.76 218.63 L 864.11 218.54 L 863.47 218.44 L 862.82 218.33 L 862.18 218.21 L 861.53 218.08 L 860.88 217.94 L 860.23 217.79 L 859.59 217.62 L 858.94 217.44 L 858.29 217.25 L 857.64 217.05 L 856.99 216.83 L 856.34 216.61 L 855.69 216.36 L 855.04 216.11 L 854.38 215.84 L 853.73 215.55 L 853.08 215.25 L 852.42 214.94 L 851.77 214.61 L 851.11 214.26 L 850.45 213.89 L 849.79 213.50 L 849.14 213.10 L 848.48 212.67 L 847.82 212.22 L 847.15 211.75 L 846.49 211.25 L 845.83 210.73 L 845.16 210.18 L 844.50 209.59 L 843.83 208.98 L 843.16 208.32 L 842.50 207.63 L 841.83 206.89 L 841.15 206.11 L 840.48 205.26 L 839.81 204.36 L 839.13 203.37 L 838.46 202.30 L 837.78 201.12 L 837.11 199.79 L 836.43 198.29 L 835.75 196.51 L 835.07 194.31 L 834.37 190.91 L 833.78 179.56 Z" stroke="#cc00cc" fill="none" stroke-width="1.2"/>
<text x="913.16" y="169.56" font-size="4" fill="#cc00cc" font-family="monospace">seam ring (outer rim), chamfer 1.0 mm</text>
<path d="M 836.28 179.56 L 836.86 168.42 L 837.50 165.43 L 838.12 163.41 L 838.74 161.79 L 839.36 160.40 L 839.98 159.19 L 840.60 158.10 L 841.22 157.12 L 841.84 156.21 L 842.46 155.38 L 843.08 154.60 L 843.70 153.87 L 844.32 153.19 L 844.94 152.56 L 845.55 151.95 L 846.17 151.38 L 846.79 150.84 L 847.40 150.33 L 848.02 149.85 L 848.63 149.39 L 849.25 148.95 L 849.86 148.53 L 850.47 148.13 L 851.08 147.76 L 851.70 147.40 L 852.31 147.05 L 852.92 146.73 L 853.53 146.42 L 854.14 146.12 L 854.75 145.84 L 855.36 145.58 L 855.97 145.33 L 856.58 145.09 L 857.19 144.86 L 857.80 144.65 L 858.40 144.45 L 859.01 144.26 L 859.62 144.08 L 860.23 143.91 L 860.83 143.76 L 861.44 143.61 L 862.05 143.48 L 862.65 143.36 L 863.26 143.24 L 863.87 143.14 L 864.47 143.05 L 865.08 142.97 L 865.68 142.89 L 866.29 142.83 L 866.89 142.78 L 867.50 142.73 L 868.10 142.70 L 868.71 142.67 L 869.31 142.65 L 869.92 142.65 L 870.52 142.65 L 871.12 142.66 L 871.73 142.68 L 872.33 142.71 L 872.94 142.75 L 873.54 142.80 L 874.14 142.85 L 874.75 142.92 L 875.35 142.99 L 875.95 143.08 L 876.56 143.17 L 877.16 143.28 L 877.76 143.39 L 878.37 143.51 L 878.97 143.64 L 879.57 143.78 L 880.18 143.93 L 880.78 144.10 L 881.38 144.27 L 881.99 144.45 L 882.59 144.64 L 883.19 144.84 L 883.80 145.05 L 884.40 145.27 L 885.00 145.51 L 885.61 145.75 L 886.21 146.01 L 886.81 146.28 L 887.42 146.56 L 888.02 146.85 L 888.62 147.15 L 889.23 147.47 L 889.83 147.80 L 890.44 148.15 L 891.04 148.51 L 891.64 148.88 L 892.25 149.27 L 892.85 149.67 L 893.46 150.09 L 894.06 150.53 L 894.67 150.99 L 895.27 151.46 L 895.88 151.96 L 896.48 152.47 L 897.09 153.01 L 897.69 153.57 L 898.30 154.16 L 898.90 154.78 L 899.51 155.42 L 900.12 156.09 L 900.72 156.80 L 901.33 157.55 L 901.94 158.33 L 902.54 159.17 L 903.15 160.05 L 903.76 161.00 L 904.37 162.01 L 904.98 163.11 L 905.58 164.31 L 906.19 165.63 L 906.80 167.12 L 907.41 168.85 L 908.03 170.96 L 908.66 174.22 L 908.66 184.90 L 908.03 188.16 L 907.41 190.27 L 906.80 192.00 L 906.19 193.49 L 905.58 194.81 L 904.98 196.01 L 904.37 197.11 L 903.76 198.12 L 903.15 199.07 L 902.54 199.95 L 901.94 200.78 L 901.33 201.57 L 900.72 202.32 L 900.12 203.03 L 899.51 203.70 L 898.90 204.34 L 898.30 204.96 L 897.69 205.54 L 897.09 206.10 L 896.48 206.64 L 895.88 207.16 L 895.27 207.65 L 894.67 208.13 L 894.06 208.58 L 893.46 209.02 L 892.85 209.44 L 892.25 209.85 L 891.64 210.24 L 891.04 210.61 L 890.44 210.97 L 889.83 211.31 L 889.23 211.65 L 888.62 211.96 L 888.02 212.27 L 887.42 212.56 L 886.81 212.84 L 886.21 213.11 L 885.61 213.36 L 885.00 213.61 L 884.40 213.84 L 883.80 214.07 L 883.19 214.28 L 882.59 214.48 L 881.99 214.67 L 881.38 214.85 L 880.78 215.02 L 880.18 215.18 L 879.57 215.33 L 878.97 215.47 L 878.37 215.61 L 877.76 215.73 L 877.16 215.84 L 876.56 215.94 L 875.95 216.04 L 875.35 216.12 L 874.75 216.20 L 874.14 216.26 L 873.54 216.32 L 872.94 216.37 L 872.33 216.41 L 871.73 216.44 L 871.12 216.46 L 870.52 216.47 L 869.92 216.47 L 869.31 216.46 L 868.71 216.45 L 868.10 216.42 L 867.50 216.39 L 866.89 216.34 L 866.29 216.29 L 865.68 216.22 L 865.08 216.15 L 864.47 216.07 L 863.87 215.98 L 863.26 215.87 L 862.65 215.76 L 862.05 215.64 L 861.44 215.50 L 860.83 215.36 L 860.23 215.20 L 859.62 215.04 L 859.01 214.86 L 858.40 214.67 L 857.80 214.47 L 857.19 214.25 L 856.58 214.03 L 855.97 213.79 L 855.36 213.54 L 854.75 213.27 L 854.14 212.99 L 853.53 212.70 L 852.92 212.39 L 852.31 212.06 L 851.70 211.72 L 851.08 211.36 L 850.47 210.98 L 849.86 210.59 L 849.25 210.17 L 848.63 209.73 L 848.02 209.27 L 847.40 208.79 L 846.79 208.27 L 846.17 207.73 L 845.55 207.16 L 844.94 206.56 L 844.32 205.92 L 843.70 205.24 L 843.08 204.52 L 842.46 203.74 L 841.84 202.91 L 841.22 202.00 L 840.60 201.01 L 839.98 199.93 L 839.36 198.71 L 838.74 197.33 L 838.12 195.70 L 837.50 193.68 L 836.86 190.70 L 836.28 179.56 Z" stroke="#aa6600" fill="none" stroke-width="0.8" stroke-dasharray="2,1.5"/>
<text x="833.78" y="132.15" font-size="3.5" fill="#aa6600" font-family="monospace">tongue centerline (h=8.0, t=2.0)</text>
<rect x="838.78" y="171.21" width="67.85" height="2.00" stroke="#227722" fill="#ccffcc" stroke-width="1.0" opacity="0.8"/>
<rect x="838.78" y="185.91" width="67.85" height="2.00" stroke="#227722" fill="#ccffcc" stroke-width="1.0" opacity="0.8"/>
<text x="840.78" y="176.21" font-size="4" fill="#227722" font-family="monospace">+z plate (z∈[6.3, 8.3])</text>
<text x="840.78" y="184.91" font-size="4" fill="#227722" font-family="monospace">-z plate (z∈[-8.3, -6.3])</text>
<circle cx="872.47" cy="142.65" r="1.2" stroke="#0066cc" fill="#ffffff" stroke-width="0.6"/>
<line x1="870.47" y1="142.65" x2="874.47" y2="142.65" stroke="#0066cc" stroke-width="0.4" fill="none"/>
<line x1="872.47" y1="140.65" x2="872.47" y2="144.65" stroke="#0066cc" stroke-width="0.4" fill="none"/>
<circle cx="872.47" cy="216.47" r="1.2" stroke="#0066cc" fill="#ffffff" stroke-width="0.6"/>
<line x1="870.47" y1="216.47" x2="874.47" y2="216.47" stroke="#0066cc" stroke-width="0.4" fill="none"/>
<line x1="872.47" y1="214.47" x2="872.47" y2="218.47" stroke="#0066cc" stroke-width="0.4" fill="none"/>
<circle cx="836.28" cy="179.56" r="1.2" stroke="#0066cc" fill="#ffffff" stroke-width="0.6"/>
<line x1="834.28" y1="179.56" x2="838.28" y2="179.56" stroke="#0066cc" stroke-width="0.4" fill="none"/>
<line x1="836.28" y1="177.56" x2="836.28" y2="181.56" stroke="#0066cc" stroke-width="0.4" fill="none"/>
<circle cx="908.66" cy="179.56" r="1.2" stroke="#0066cc" fill="#ffffff" stroke-width="0.6"/>
<line x1="906.66" y1="179.56" x2="910.66" y2="179.56" stroke="#0066cc" stroke-width="0.4" fill="none"/>
<line x1="908.66" y1="177.56" x2="908.66" y2="181.56" stroke="#0066cc" stroke-width="0.4" fill="none"/>
<text x="911.66" y="181.56" font-size="3.5" fill="#0066cc" font-family="monospace">fasteners (4×)</text>
<circle cx="838.78" cy="179.56" r="1.2" stroke="#000" fill="#000" stroke-width="0.8"/>
<circle cx="906.63" cy="179.56" r="1.2" stroke="#000" fill="#000" stroke-width="0.8"/>
<text x="840.78" y="177.56" font-size="5" fill="#000" font-family="monospace">ST</text>
<text x="908.63" y="177.56" font-size="5" fill="#000" font-family="monospace">BT</text>
<line x1="759.21" y1="234.47" x2="926.63" y2="234.47" stroke="#ccc" stroke-width="0.5" fill="none" stroke-dasharray="2,3"/>
<text x="761.21" y="247.97" font-size="5" fill="#333" font-family="monospace">C. Joint detail at x = 870 (y-z cross-section, 2× zoom) — pear-shape walls</text>
<path d="M 911.74 265.97 L 911.91 266.97 L 912.07 267.97 L 912.23 268.97 L 912.39 269.97 L 912.54 270.97 L 912.69 271.97 L 912.84 272.97 L 912.98 273.97 L 913.12 274.97 L 913.26 275.97 L 913.40 276.97 L 913.53 277.97 L 913.66 278.97 L 913.79 279.97 L 913.92 280.97 L 914.04 281.97 L 914.16 282.97 L 914.28 283.97 L 914.39 284.97 L 914.51 285.97 L 914.62 286.97 L 914.72 287.97 L 914.83 288.97 L 914.93 289.97 L 915.03 290.97 L 915.13 291.97 L 915.23 292.97 L 915.32 293.97 L 915.41 294.97 L 915.50 295.97 L 905.50 295.97 L 905.41 294.97 L 905.32 293.97 L 905.23 292.97 L 905.13 291.97 L 905.03 290.97 L 904.93 289.97 L 904.83 288.97 L 904.72 287.97 L 904.62 286.97 L 904.51 285.97 L 904.39 284.97 L 904.28 283.97 L 904.16 282.97 L 904.04 281.97 L 903.92 280.97 L 903.79 279.97 L 903.66 278.97 L 903.53 277.97 L 903.40 276.97 L 903.26 275.97 L 903.12 274.97 L 902.98 273.97 L 902.84 272.97 L 902.69 271.97 L 902.54 270.97 L 902.39 269.97 L 902.23 268.97 L 902.07 267.97 L 901.91 266.97 L 901.74 265.97 Z" stroke="#008888" fill="#e0ffff" stroke-width="0.8" fill-opacity="0.6"/>
<path d="M 774.10 265.97 L 773.93 266.97 L 773.77 267.97 L 773.61 268.97 L 773.46 269.97 L 773.30 270.97 L 773.15 271.97 L 773.00 272.97 L 772.86 273.97 L 772.72 274.97 L 772.58 275.97 L 772.44 276.97 L 772.31 277.97 L 772.18 278.97 L 772.05 279.97 L 771.92 280.97 L 771.80 281.97 L 771.68 282.97 L 771.56 283.97 L 771.45 284.97 L 771.33 285.97 L 771.22 286.97 L 771.12 287.97 L 771.01 288.97 L 770.91 289.97 L 770.81 290.97 L 770.71 291.97 L 770.62 292.97 L 770.52 293.97 L 770.43 294.97 L 770.34 295.97 L 780.34 295.97 L 780.43 294.97 L 780.52 293.97 L 780.62 292.97 L 780.71 291.97 L 780.81 290.97 L 780.91 289.97 L 781.01 288.97 L 781.12 287.97 L 781.22 286.97 L 781.33 285.97 L 781.45 284.97 L 781.56 283.97 L 781.68 282.97 L 781.80 281.97 L 781.92 280.97 L 782.05 279.97 L 782.18 278.97 L 782.31 277.97 L 782.44 276.97 L 782.58 275.97 L 782.72 274.97 L 782.86 273.97 L 783.00 272.97 L 783.15 271.97 L 783.30 270.97 L 783.46 269.97 L 783.61 268.97 L 783.77 267.97 L 783.93 266.97 L 784.10 265.97 Z" stroke="#008888" fill="#e0ffff" stroke-width="0.8" fill-opacity="0.6"/>
<text x="748.34" y="289.97" font-size="4" fill="#008888" font-family="monospace">chamber wall</text>
<path d="M 911.74 265.97 L 911.91 264.97 L 912.07 263.97 L 912.23 262.97 L 912.39 261.97 L 912.54 260.97 L 912.69 259.97 L 912.84 258.97 L 912.98 257.97 L 913.12 256.97 L 913.26 255.97 L 913.40 254.97 L 913.53 253.97 L 913.66 252.97 L 913.79 251.97 L 913.92 250.97 L 914.04 249.97 L 914.16 248.97 L 914.28 247.97 L 914.39 246.97 L 914.51 245.97 L 904.51 245.97 L 904.39 246.97 L 904.28 247.97 L 904.16 248.97 L 904.04 249.97 L 903.92 250.97 L 903.79 251.97 L 903.66 252.97 L 903.53 253.97 L 903.40 254.97 L 903.26 255.97 L 903.12 256.97 L 902.98 257.97 L 902.84 258.97 L 902.69 259.97 L 902.54 260.97 L 902.39 261.97 L 902.23 262.97 L 902.07 263.97 L 901.91 264.97 L 901.74 265.97 Z" stroke="#884400" fill="#ffddbb" stroke-width="0.8" fill-opacity="0.6"/>
<path d="M 774.10 265.97 L 773.93 264.97 L 773.77 263.97 L 773.61 262.97 L 773.46 261.97 L 773.30 260.97 L 773.15 259.97 L 773.00 258.97 L 772.86 257.97 L 772.72 256.97 L 772.58 255.97 L 772.44 254.97 L 772.31 253.97 L 772.18 252.97 L 772.05 251.97 L 771.92 250.97 L 771.80 249.97 L 771.68 248.97 L 771.56 247.97 L 771.45 246.97 L 771.33 245.97 L 781.33 245.97 L 781.45 246.97 L 781.56 247.97 L 781.68 248.97 L 781.80 249.97 L 781.92 250.97 L 782.05 251.97 L 782.18 252.97 L 782.31 253.97 L 782.44 254.97 L 782.58 255.97 L 782.72 256.97 L 782.86 257.97 L 783.00 258.97 L 783.15 259.97 L 783.30 260.97 L 783.46 261.97 L 783.61 262.97 L 783.77 263.97 L 783.93 264.97 L 784.10 265.97 Z" stroke="#884400" fill="#ffddbb" stroke-width="0.8" fill-opacity="0.6"/>
<text x="747.33" y="249.97" font-size="4" fill="#884400" font-family="monospace">shoulder wall</text>
<rect x="840.92" y="249.97" width="4.00" height="16.00" stroke="#aa6600" fill="#ffeedd" stroke-width="1.0"/>
<text x="846.92" y="257.97" font-size="4" fill="#aa6600" font-family="monospace">tongue (2.0×8.0)</text>
<path d="M 836.9205 265.97053501768124 L 836.9205 241.97053501768124 L 848.9205 241.97053501768124 L 848.9205 265.97053501768124 L 845.2204999999999 265.97053501768124 L 845.2204999999999 247.97053501768124 L 840.6205 247.97053501768124 L 840.6205 265.97053501768124 Z" stroke="#884400" fill="#ffddbb" stroke-width="1.0" fill-opacity="0.6"/>
<text x="850.92" y="253.97" font-size="4" fill="#884400" font-family="monospace">shoulder wall</text>
<text x="820.62" y="245.97" font-size="3.5" fill="#884400" font-family="monospace">groove (clear=0.15)</text>
<line x1="836.72" y1="263.97" x2="834.72" y2="265.97" stroke="#cc00cc" stroke-width="1.0" fill="none"/>
<line x1="849.12" y1="263.97" x2="851.12" y2="265.97" stroke="#cc00cc" stroke-width="1.0" fill="none"/>
<text x="850.92" y="273.97" font-size="3.5" fill="#cc00cc" font-family="monospace">external chamfer (1.0 mm each side)</text>
<line x1="818.92" y1="265.97" x2="866.92" y2="265.97" stroke="#cc00cc" stroke-width="0.4" fill="none" stroke-dasharray="2,1.5"/>
<text x="788.92" y="267.97" font-size="3.5" fill="#cc00cc" font-family="monospace">y=Y_ST_HORIZ=481.9390000000001</text>
<line x1="837.92" y1="293.97" x2="837.92" y2="253.97" stroke="#0066cc" stroke-width="1.2" fill="none" stroke-dasharray="3,2"/>
<rect x="836.42" y="292.47" width="3.00" height="2.00" stroke="#0066cc" fill="#0066cc" stroke-width="0.5"/>
<rect x="836.72" y="251.97" width="2.40" height="4.00" stroke="#0066cc" fill="none" stroke-width="0.8"/>
<text x="840.92" y="254.97" font-size="3.5" fill="#0066cc" font-family="monospace">insert</text>
<text x="825.92" y="291.97" font-size="3.5" fill="#0066cc" font-family="monospace">M4 screw (from inside)</text>
</svg>