0
SECTION
2
HEADER
9
$ACADVER
1
AC1009
9
$INSUNITS
70
4
0
ENDSEC
0
SECTION
2
TABLES
0
TABLE
2
LAYER
70
4
0
LAYER
2
0
70
0
62
7
6
CONTINUOUS
0
LAYER
2
TEXT
70
0
62
1
6
CONTINUOUS
0
LAYER
2
DOWEL
70
0
62
5
6
CONTINUOUS
0
LAYER
2
SLAB_00
70
0
62
2
6
CONTINUOUS
0
ENDTAB
0
ENDSEC
0
SECTION
2
ENTITIES
0
POLYLINE
8
SLAB_00
66
1
70
1
10
0.0
20
0.0
30
0.0
0
VERTEX
8
SLAB_00
10
254.558
20
0.000
30
0.0
0
VERTEX
8
SLAB_00
10
254.403
20
6.662
30
0.0
0
VERTEX
8
SLAB_00
10
253.939
20
13.307
30
0.0
0
VERTEX
8
SLAB_00
10
253.166
20
19.920
30
0.0
0
VERTEX
8
SLAB_00
10
252.087
20
26.485
30
0.0
0
VERTEX
8
SLAB_00
10
250.706
20
32.985
30
0.0
0
VERTEX
8
SLAB_00
10
249.026
20
39.405
30
0.0
0
VERTEX
8
SLAB_00
10
247.053
20
45.730
30
0.0
0
VERTEX
8
SLAB_00
10
244.793
20
51.945
30
0.0
0
VERTEX
8
SLAB_00
10
242.252
20
58.035
30
0.0
0
VERTEX
8
SLAB_00
10
239.438
20
63.985
30
0.0
0
VERTEX
8
SLAB_00
10
236.360
20
69.783
30
0.0
0
VERTEX
8
SLAB_00
10
233.026
20
75.416
30
0.0
0
VERTEX
8
SLAB_00
10
229.447
20
80.870
30
0.0
0
VERTEX
8
SLAB_00
10
225.634
20
86.134
30
0.0
0
VERTEX
8
SLAB_00
10
221.596
20
91.196
30
0.0
0
VERTEX
8
SLAB_00
10
217.347
20
96.047
30
0.0
0
VERTEX
8
SLAB_00
10
212.898
20
100.676
30
0.0
0
VERTEX
8
SLAB_00
10
208.263
20
105.075
30
0.0
0
VERTEX
8
SLAB_00
10
203.455
20
109.235
30
0.0
0
VERTEX
8
SLAB_00
10
198.486
20
113.150
30
0.0
0
VERTEX
8
SLAB_00
10
193.372
20
116.812
30
0.0
0
VERTEX
8
SLAB_00
10
188.127
20
120.216
30
0.0
0
VERTEX
8
SLAB_00
10
182.764
20
123.357
30
0.0
0
VERTEX
8
SLAB_00
10
177.300
20
126.232
30
0.0
0
VERTEX
8
SLAB_00
10
171.747
20
128.838
30
0.0
0
VERTEX
8
SLAB_00
10
166.122
20
131.172
30
0.0
0
VERTEX
8
SLAB_00
10
160.439
20
133.233
30
0.0
0
VERTEX
8
SLAB_00
10
154.713
20
135.022
30
0.0
0
VERTEX
8
SLAB_00
10
148.958
20
136.538
30
0.0
0
VERTEX
8
SLAB_00
10
143.189
20
137.784
30
0.0
0
VERTEX
8
SLAB_00
10
137.420
20
138.761
30
0.0
0
VERTEX
8
SLAB_00
10
131.665
20
139.472
30
0.0
0
VERTEX
8
SLAB_00
10
125.937
20
139.922
30
0.0
0
VERTEX
8
SLAB_00
10
120.250
20
140.115
30
0.0
0
VERTEX
8
SLAB_00
10
114.616
20
140.057
30
0.0
0
VERTEX
8
SLAB_00
10
109.048
20
139.753
30
0.0
0
VERTEX
8
SLAB_00
10
103.558
20
139.211
30
0.0
0
VERTEX
8
SLAB_00
10
98.156
20
138.437
30
0.0
0
VERTEX
8
SLAB_00
10
92.853
20
137.440
30
0.0
0
VERTEX
8
SLAB_00
10
87.660
20
136.229
30
0.0
0
VERTEX
8
SLAB_00
10
82.586
20
134.811
30
0.0
0
VERTEX
8
SLAB_00
10
77.639
20
133.198
30
0.0
0
VERTEX
8
SLAB_00
10
72.828
20
131.398
30
0.0
0
VERTEX
8
SLAB_00
10
68.159
20
129.421
30
0.0
0
VERTEX
8
SLAB_00
10
63.640
20
127.279
30
0.0
0
VERTEX
8
SLAB_00
10
59.275
20
124.982
30
0.0
0
VERTEX
8
SLAB_00
10
55.071
20
122.541
30
0.0
0
VERTEX
8
SLAB_00
10
51.031
20
119.966
30
0.0
0
VERTEX
8
SLAB_00
10
47.158
20
117.270
30
0.0
0
VERTEX
8
SLAB_00
10
43.457
20
114.463
30
0.0
0
VERTEX
8
SLAB_00
10
39.928
20
111.556
30
0.0
0
VERTEX
8
SLAB_00
10
36.573
20
108.560
30
0.0
0
VERTEX
8
SLAB_00
10
33.392
20
105.487
30
0.0
0
VERTEX
8
SLAB_00
10
30.385
20
102.346
30
0.0
0
VERTEX
8
SLAB_00
10
27.552
20
99.150
30
0.0
0
VERTEX
8
SLAB_00
10
24.891
20
95.907
30
0.0
0
VERTEX
8
SLAB_00
10
22.399
20
92.629
30
0.0
0
VERTEX
8
SLAB_00
10
20.074
20
89.323
30
0.0
0
VERTEX
8
SLAB_00
10
17.912
20
86.001
30
0.0
0
VERTEX
8
SLAB_00
10
15.910
20
82.670
30
0.0
0
VERTEX
8
SLAB_00
10
14.063
20
79.339
30
0.0
0
VERTEX
8
SLAB_00
10
12.366
20
76.016
30
0.0
0
VERTEX
8
SLAB_00
10
10.814
20
72.709
30
0.0
0
VERTEX
8
SLAB_00
10
9.401
20
69.423
30
0.0
0
VERTEX
8
SLAB_00
10
8.120
20
66.165
30
0.0
0
VERTEX
8
SLAB_00
10
6.967
20
62.941
30
0.0
0
VERTEX
8
SLAB_00
10
5.933
20
59.757
30
0.0
0
VERTEX
8
SLAB_00
10
5.013
20
56.615
30
0.0
0
VERTEX
8
SLAB_00
10
4.199
20
53.521
30
0.0
0
VERTEX
8
SLAB_00
10
3.483
20
50.477
30
0.0
0
VERTEX
8
SLAB_00
10
2.860
20
47.486
30
0.0
0
VERTEX
8
SLAB_00
10
2.321
20
44.550
30
0.0
0
VERTEX
8
SLAB_00
10
1.860
20
41.671
30
0.0
0
VERTEX
8
SLAB_00
10
1.469
20
38.848
30
0.0
0
VERTEX
8
SLAB_00
10
1.142
20
36.083
30
0.0
0
VERTEX
8
SLAB_00
10
0.872
20
33.374
30
0.0
0
VERTEX
8
SLAB_00
10
0.652
20
30.721
30
0.0
0
VERTEX
8
SLAB_00
10
0.476
20
28.122
30
0.0
0
VERTEX
8
SLAB_00
10
0.337
20
25.576
30
0.0
0
VERTEX
8
SLAB_00
10
0.231
20
23.079
30
0.0
0
VERTEX
8
SLAB_00
10
0.152
20
20.628
30
0.0
0
VERTEX
8
SLAB_00
10
0.096
20
18.221
30
0.0
0
VERTEX
8
SLAB_00
10
0.056
20
15.853
30
0.0
0
VERTEX
8
SLAB_00
10
0.030
20
13.521
30
0.0
0
VERTEX
8
SLAB_00
10
0.015
20
11.219
30
0.0
0
VERTEX
8
SLAB_00
10
0.006
20
8.943
30
0.0
0
VERTEX
8
SLAB_00
10
0.002
20
6.689
30
0.0
0
VERTEX
8
SLAB_00
10
0.000
20
4.450
30
0.0
0
VERTEX
8
SLAB_00
10
0.000
20
2.222
30
0.0
0
VERTEX
8
SLAB_00
10
0.000
20
0.000
30
0.0
0
VERTEX
8
SLAB_00
10
0.000
20
-2.222
30
0.0
0
VERTEX
8
SLAB_00
10
0.000
20
-4.450
30
0.0
0
VERTEX
8
SLAB_00
10
0.002
20
-6.689
30
0.0
0
VERTEX
8
SLAB_00
10
0.006
20
-8.943
30
0.0
0
VERTEX
8
SLAB_00
10
0.015
20
-11.219
30
0.0
0
VERTEX
8
SLAB_00
10
0.030
20
-13.521
30
0.0
0
VERTEX
8
SLAB_00
10
0.056
20
-15.853
30
0.0
0
VERTEX
8
SLAB_00
10
0.096
20
-18.221
30
0.0
0
VERTEX
8
SLAB_00
10
0.152
20
-20.628
30
0.0
0
VERTEX
8
SLAB_00
10
0.231
20
-23.079
30
0.0
0
VERTEX
8
SLAB_00
10
0.337
20
-25.576
30
0.0
0
VERTEX
8
SLAB_00
10
0.476
20
-28.122
30
0.0
0
VERTEX
8
SLAB_00
10
0.652
20
-30.721
30
0.0
0
VERTEX
8
SLAB_00
10
0.872
20
-33.374
30
0.0
0
VERTEX
8
SLAB_00
10
1.142
20
-36.083
30
0.0
0
VERTEX
8
SLAB_00
10
1.469
20
-38.848
30
0.0
0
VERTEX
8
SLAB_00
10
1.860
20
-41.671
30
0.0
0
VERTEX
8
SLAB_00
10
2.321
20
-44.550
30
0.0
0
VERTEX
8
SLAB_00
10
2.860
20
-47.486
30
0.0
0
VERTEX
8
SLAB_00
10
3.483
20
-50.477
30
0.0
0
VERTEX
8
SLAB_00
10
4.199
20
-53.521
30
0.0
0
VERTEX
8
SLAB_00
10
5.013
20
-56.615
30
0.0
0
VERTEX
8
SLAB_00
10
5.933
20
-59.757
30
0.0
0
VERTEX
8
SLAB_00
10
6.967
20
-62.941
30
0.0
0
VERTEX
8
SLAB_00
10
8.120
20
-66.165
30
0.0
0
VERTEX
8
SLAB_00
10
9.401
20
-69.423
30
0.0
0
VERTEX
8
SLAB_00
10
10.814
20
-72.709
30
0.0
0
VERTEX
8
SLAB_00
10
12.366
20
-76.016
30
0.0
0
VERTEX
8
SLAB_00
10
14.063
20
-79.339
30
0.0
0
VERTEX
8
SLAB_00
10
15.910
20
-82.670
30
0.0
0
VERTEX
8
SLAB_00
10
17.912
20
-86.001
30
0.0
0
VERTEX
8
SLAB_00
10
20.074
20
-89.323
30
0.0
0
VERTEX
8
SLAB_00
10
22.399
20
-92.629
30
0.0
0
VERTEX
8
SLAB_00
10
24.891
20
-95.907
30
0.0
0
VERTEX
8
SLAB_00
10
27.552
20
-99.150
30
0.0
0
VERTEX
8
SLAB_00
10
30.385
20
-102.346
30
0.0
0
VERTEX
8
SLAB_00
10
33.392
20
-105.487
30
0.0
0
VERTEX
8
SLAB_00
10
36.573
20
-108.560
30
0.0
0
VERTEX
8
SLAB_00
10
39.928
20
-111.556
30
0.0
0
VERTEX
8
SLAB_00
10
43.457
20
-114.463
30
0.0
0
VERTEX
8
SLAB_00
10
47.158
20
-117.270
30
0.0
0
VERTEX
8
SLAB_00
10
51.031
20
-119.966
30
0.0
0
VERTEX
8
SLAB_00
10
55.071
20
-122.541
30
0.0
0
VERTEX
8
SLAB_00
10
59.275
20
-124.982
30
0.0
0
VERTEX
8
SLAB_00
10
63.640
20
-127.279
30
0.0
0
VERTEX
8
SLAB_00
10
68.159
20
-129.421
30
0.0
0
VERTEX
8
SLAB_00
10
72.828
20
-131.398
30
0.0
0
VERTEX
8
SLAB_00
10
77.639
20
-133.198
30
0.0
0
VERTEX
8
SLAB_00
10
82.586
20
-134.811
30
0.0
0
VERTEX
8
SLAB_00
10
87.660
20
-136.229
30
0.0
0
VERTEX
8
SLAB_00
10
92.853
20
-137.440
30
0.0
0
VERTEX
8
SLAB_00
10
98.156
20
-138.437
30
0.0
0
VERTEX
8
SLAB_00
10
103.558
20
-139.211
30
0.0
0
VERTEX
8
SLAB_00
10
109.048
20
-139.753
30
0.0
0
VERTEX
8
SLAB_00
10
114.616
20
-140.057
30
0.0
0
VERTEX
8
SLAB_00
10
120.250
20
-140.115
30
0.0
0
VERTEX
8
SLAB_00
10
125.937
20
-139.922
30
0.0
0
VERTEX
8
SLAB_00
10
131.665
20
-139.472
30
0.0
0
VERTEX
8
SLAB_00
10
137.420
20
-138.761
30
0.0
0
VERTEX
8
SLAB_00
10
143.189
20
-137.784
30
0.0
0
VERTEX
8
SLAB_00
10
148.958
20
-136.538
30
0.0
0
VERTEX
8
SLAB_00
10
154.713
20
-135.022
30
0.0
0
VERTEX
8
SLAB_00
10
160.439
20
-133.233
30
0.0
0
VERTEX
8
SLAB_00
10
166.122
20
-131.172
30
0.0
0
VERTEX
8
SLAB_00
10
171.747
20
-128.838
30
0.0
0
VERTEX
8
SLAB_00
10
177.300
20
-126.232
30
0.0
0
VERTEX
8
SLAB_00
10
182.764
20
-123.357
30
0.0
0
VERTEX
8
SLAB_00
10
188.127
20
-120.216
30
0.0
0
VERTEX
8
SLAB_00
10
193.372
20
-116.812
30
0.0
0
VERTEX
8
SLAB_00
10
198.486
20
-113.150
30
0.0
0
VERTEX
8
SLAB_00
10
203.455
20
-109.235
30
0.0
0
VERTEX
8
SLAB_00
10
208.263
20
-105.075
30
0.0
0
VERTEX
8
SLAB_00
10
212.898
20
-100.676
30
0.0
0
VERTEX
8
SLAB_00
10
217.347
20
-96.047
30
0.0
0
VERTEX
8
SLAB_00
10
221.596
20
-91.196
30
0.0
0
VERTEX
8
SLAB_00
10
225.634
20
-86.134
30
0.0
0
VERTEX
8
SLAB_00
10
229.447
20
-80.870
30
0.0
0
VERTEX
8
SLAB_00
10
233.026
20
-75.416
30
0.0
0
VERTEX
8
SLAB_00
10
236.360
20
-69.783
30
0.0
0
VERTEX
8
SLAB_00
10
239.438
20
-63.985
30
0.0
0
VERTEX
8
SLAB_00
10
242.252
20
-58.035
30
0.0
0
VERTEX
8
SLAB_00
10
244.793
20
-51.945
30
0.0
0
VERTEX
8
SLAB_00
10
247.053
20
-45.730
30
0.0
0
VERTEX
8
SLAB_00
10
249.026
20
-39.405
30
0.0
0
VERTEX
8
SLAB_00
10
250.706
20
-32.985
30
0.0
0
VERTEX
8
SLAB_00
10
252.087
20
-26.485
30
0.0
0
VERTEX
8
SLAB_00
10
253.166
20
-19.920
30
0.0
0
VERTEX
8
SLAB_00
10
253.939
20
-13.307
30
0.0
0
VERTEX
8
SLAB_00
10
254.403
20
-6.662
30
0.0
0
SEQEND
8
SLAB_00
0
TEXT
8
TEXT
10
0.000
20
155.115
30
0.0
40
8.0
1
09: s'=+122 D=280
0
CIRCLE
8
DOWEL
10
15.000
20
18.000
30
0.0
40
3.250
0
TEXT
8
DOWEL
10
20.000
20
16.000
30
0.0
40
3.0
1
A
0
CIRCLE
8
DOWEL
10
15.000
20
-18.000
30
0.0
40
3.250
0
TEXT
8
DOWEL
10
20.000
20
-20.000
30
0.0
40
3.0
1
B
0
CIRCLE
8
DOWEL
10
45.000
20
18.000
30
0.0
40
3.250
0
TEXT
8
DOWEL
10
50.000
20
16.000
30
0.0
40
3.0
1
C
0
CIRCLE
8
DOWEL
10
45.000
20
-18.000
30
0.0
40
3.250
0
TEXT
8
DOWEL
10
50.000
20
-20.000
30
0.0
40
3.0
1
D
0
ENDSEC
0
EOF