0
SECTION
2
HEADER
9
$ACADVER
1
AC1009
9
$INSUNITS
70
4
0
ENDSEC
0
SECTION
2
TABLES
0
TABLE
2
LAYER
70
4
0
LAYER
2
0
70
0
62
7
6
CONTINUOUS
0
LAYER
2
TEXT
70
0
62
1
6
CONTINUOUS
0
LAYER
2
DOWEL
70
0
62
5
6
CONTINUOUS
0
LAYER
2
SLAB_00
70
0
62
2
6
CONTINUOUS
0
ENDTAB
0
ENDSEC
0
SECTION
2
ENTITIES
0
POLYLINE
8
SLAB_00
66
1
70
1
10
0.0
20
0.0
30
0.0
0
VERTEX
8
SLAB_00
10
254.356
20
0.000
30
0.0
0
VERTEX
8
SLAB_00
10
254.201
20
6.656
30
0.0
0
VERTEX
8
SLAB_00
10
253.737
20
13.296
30
0.0
0
VERTEX
8
SLAB_00
10
252.965
20
19.904
30
0.0
0
VERTEX
8
SLAB_00
10
251.887
20
26.464
30
0.0
0
VERTEX
8
SLAB_00
10
250.507
20
32.959
30
0.0
0
VERTEX
8
SLAB_00
10
248.828
20
39.374
30
0.0
0
VERTEX
8
SLAB_00
10
246.857
20
45.694
30
0.0
0
VERTEX
8
SLAB_00
10
244.598
20
51.904
30
0.0
0
VERTEX
8
SLAB_00
10
242.060
20
57.989
30
0.0
0
VERTEX
8
SLAB_00
10
239.248
20
63.935
30
0.0
0
VERTEX
8
SLAB_00
10
236.172
20
69.728
30
0.0
0
VERTEX
8
SLAB_00
10
232.841
20
75.356
30
0.0
0
VERTEX
8
SLAB_00
10
229.265
20
80.806
30
0.0
0
VERTEX
8
SLAB_00
10
225.455
20
86.065
30
0.0
0
VERTEX
8
SLAB_00
10
221.420
20
91.124
30
0.0
0
VERTEX
8
SLAB_00
10
217.175
20
95.971
30
0.0
0
VERTEX
8
SLAB_00
10
212.729
20
100.596
30
0.0
0
VERTEX
8
SLAB_00
10
208.098
20
104.992
30
0.0
0
VERTEX
8
SLAB_00
10
203.293
20
109.149
30
0.0
0
VERTEX
8
SLAB_00
10
198.329
20
113.060
30
0.0
0
VERTEX
8
SLAB_00
10
193.219
20
116.719
30
0.0
0
VERTEX
8
SLAB_00
10
187.978
20
120.121
30
0.0
0
VERTEX
8
SLAB_00
10
182.619
20
123.259
30
0.0
0
VERTEX
8
SLAB_00
10
177.159
20
126.132
30
0.0
0
VERTEX
8
SLAB_00
10
171.611
20
128.736
30
0.0
0
VERTEX
8
SLAB_00
10
165.990
20
131.068
30
0.0
0
VERTEX
8
SLAB_00
10
160.312
20
133.128
30
0.0
0
VERTEX
8
SLAB_00
10
154.590
20
134.915
30
0.0
0
VERTEX
8
SLAB_00
10
148.840
20
136.430
30
0.0
0
VERTEX
8
SLAB_00
10
143.075
20
137.674
30
0.0
0
VERTEX
8
SLAB_00
10
137.311
20
138.650
30
0.0
0
VERTEX
8
SLAB_00
10
131.560
20
139.361
30
0.0
0
VERTEX
8
SLAB_00
10
125.837
20
139.811
30
0.0
0
VERTEX
8
SLAB_00
10
120.154
20
140.004
30
0.0
0
VERTEX
8
SLAB_00
10
114.525
20
139.945
30
0.0
0
VERTEX
8
SLAB_00
10
108.961
20
139.642
30
0.0
0
VERTEX
8
SLAB_00
10
103.475
20
139.100
30
0.0
0
VERTEX
8
SLAB_00
10
98.078
20
138.327
30
0.0
0
VERTEX
8
SLAB_00
10
92.780
20
137.331
30
0.0
0
VERTEX
8
SLAB_00
10
87.591
20
136.120
30
0.0
0
VERTEX
8
SLAB_00
10
82.521
20
134.704
30
0.0
0
VERTEX
8
SLAB_00
10
77.578
20
133.092
30
0.0
0
VERTEX
8
SLAB_00
10
72.770
20
131.293
30
0.0
0
VERTEX
8
SLAB_00
10
68.105
20
129.319
30
0.0
0
VERTEX
8
SLAB_00
10
63.589
20
127.178
30
0.0
0
VERTEX
8
SLAB_00
10
59.228
20
124.883
30
0.0
0
VERTEX
8
SLAB_00
10
55.027
20
122.443
30
0.0
0
VERTEX
8
SLAB_00
10
50.990
20
119.871
30
0.0
0
VERTEX
8
SLAB_00
10
47.121
20
117.177
30
0.0
0
VERTEX
8
SLAB_00
10
43.422
20
114.372
30
0.0
0
VERTEX
8
SLAB_00
10
39.896
20
111.467
30
0.0
0
VERTEX
8
SLAB_00
10
36.544
20
108.474
30
0.0
0
VERTEX
8
SLAB_00
10
33.365
20
105.403
30
0.0
0
VERTEX
8
SLAB_00
10
30.361
20
102.265
30
0.0
0
VERTEX
8
SLAB_00
10
27.530
20
99.071
30
0.0
0
VERTEX
8
SLAB_00
10
24.871
20
95.831
30
0.0
0
VERTEX
8
SLAB_00
10
22.381
20
92.555
30
0.0
0
VERTEX
8
SLAB_00
10
20.058
20
89.253
30
0.0
0
VERTEX
8
SLAB_00
10
17.898
20
85.933
30
0.0
0
VERTEX
8
SLAB_00
10
15.897
20
82.605
30
0.0
0
VERTEX
8
SLAB_00
10
14.052
20
79.276
30
0.0
0
VERTEX
8
SLAB_00
10
12.356
20
75.956
30
0.0
0
VERTEX
8
SLAB_00
10
10.805
20
72.651
30
0.0
0
VERTEX
8
SLAB_00
10
9.393
20
69.368
30
0.0
0
VERTEX
8
SLAB_00
10
8.114
20
66.113
30
0.0
0
VERTEX
8
SLAB_00
10
6.961
20
62.891
30
0.0
0
VERTEX
8
SLAB_00
10
5.929
20
59.709
30
0.0
0
VERTEX
8
SLAB_00
10
5.009
20
56.570
30
0.0
0
VERTEX
8
SLAB_00
10
4.195
20
53.478
30
0.0
0
VERTEX
8
SLAB_00
10
3.481
20
50.437
30
0.0
0
VERTEX
8
SLAB_00
10
2.858
20
47.449
30
0.0
0
VERTEX
8
SLAB_00
10
2.319
20
44.515
30
0.0
0
VERTEX
8
SLAB_00
10
1.859
20
41.638
30
0.0
0
VERTEX
8
SLAB_00
10
1.468
20
38.817
30
0.0
0
VERTEX
8
SLAB_00
10
1.141
20
36.054
30
0.0
0
VERTEX
8
SLAB_00
10
0.871
20
33.348
30
0.0
0
VERTEX
8
SLAB_00
10
0.651
20
30.697
30
0.0
0
VERTEX
8
SLAB_00
10
0.475
20
28.100
30
0.0
0
VERTEX
8
SLAB_00
10
0.337
20
25.555
30
0.0
0
VERTEX
8
SLAB_00
10
0.231
20
23.060
30
0.0
0
VERTEX
8
SLAB_00
10
0.152
20
20.612
30
0.0
0
VERTEX
8
SLAB_00
10
0.095
20
18.207
30
0.0
0
VERTEX
8
SLAB_00
10
0.056
20
15.841
30
0.0
0
VERTEX
8
SLAB_00
10
0.030
20
13.510
30
0.0
0
VERTEX
8
SLAB_00
10
0.015
20
11.210
30
0.0
0
VERTEX
8
SLAB_00
10
0.006
20
8.936
30
0.0
0
VERTEX
8
SLAB_00
10
0.002
20
6.683
30
0.0
0
VERTEX
8
SLAB_00
10
0.000
20
4.447
30
0.0
0
VERTEX
8
SLAB_00
10
0.000
20
2.221
30
0.0
0
VERTEX
8
SLAB_00
10
0.000
20
0.000
30
0.0
0
VERTEX
8
SLAB_00
10
0.000
20
-2.221
30
0.0
0
VERTEX
8
SLAB_00
10
0.000
20
-4.447
30
0.0
0
VERTEX
8
SLAB_00
10
0.002
20
-6.683
30
0.0
0
VERTEX
8
SLAB_00
10
0.006
20
-8.936
30
0.0
0
VERTEX
8
SLAB_00
10
0.015
20
-11.210
30
0.0
0
VERTEX
8
SLAB_00
10
0.030
20
-13.510
30
0.0
0
VERTEX
8
SLAB_00
10
0.056
20
-15.841
30
0.0
0
VERTEX
8
SLAB_00
10
0.095
20
-18.207
30
0.0
0
VERTEX
8
SLAB_00
10
0.152
20
-20.612
30
0.0
0
VERTEX
8
SLAB_00
10
0.231
20
-23.060
30
0.0
0
VERTEX
8
SLAB_00
10
0.337
20
-25.555
30
0.0
0
VERTEX
8
SLAB_00
10
0.475
20
-28.100
30
0.0
0
VERTEX
8
SLAB_00
10
0.651
20
-30.697
30
0.0
0
VERTEX
8
SLAB_00
10
0.871
20
-33.348
30
0.0
0
VERTEX
8
SLAB_00
10
1.141
20
-36.054
30
0.0
0
VERTEX
8
SLAB_00
10
1.468
20
-38.817
30
0.0
0
VERTEX
8
SLAB_00
10
1.859
20
-41.638
30
0.0
0
VERTEX
8
SLAB_00
10
2.319
20
-44.515
30
0.0
0
VERTEX
8
SLAB_00
10
2.858
20
-47.449
30
0.0
0
VERTEX
8
SLAB_00
10
3.481
20
-50.437
30
0.0
0
VERTEX
8
SLAB_00
10
4.195
20
-53.478
30
0.0
0
VERTEX
8
SLAB_00
10
5.009
20
-56.570
30
0.0
0
VERTEX
8
SLAB_00
10
5.929
20
-59.709
30
0.0
0
VERTEX
8
SLAB_00
10
6.961
20
-62.891
30
0.0
0
VERTEX
8
SLAB_00
10
8.114
20
-66.113
30
0.0
0
VERTEX
8
SLAB_00
10
9.393
20
-69.368
30
0.0
0
VERTEX
8
SLAB_00
10
10.805
20
-72.651
30
0.0
0
VERTEX
8
SLAB_00
10
12.356
20
-75.956
30
0.0
0
VERTEX
8
SLAB_00
10
14.052
20
-79.276
30
0.0
0
VERTEX
8
SLAB_00
10
15.897
20
-82.605
30
0.0
0
VERTEX
8
SLAB_00
10
17.898
20
-85.933
30
0.0
0
VERTEX
8
SLAB_00
10
20.058
20
-89.253
30
0.0
0
VERTEX
8
SLAB_00
10
22.381
20
-92.555
30
0.0
0
VERTEX
8
SLAB_00
10
24.871
20
-95.831
30
0.0
0
VERTEX
8
SLAB_00
10
27.530
20
-99.071
30
0.0
0
VERTEX
8
SLAB_00
10
30.361
20
-102.265
30
0.0
0
VERTEX
8
SLAB_00
10
33.365
20
-105.403
30
0.0
0
VERTEX
8
SLAB_00
10
36.544
20
-108.474
30
0.0
0
VERTEX
8
SLAB_00
10
39.896
20
-111.467
30
0.0
0
VERTEX
8
SLAB_00
10
43.422
20
-114.372
30
0.0
0
VERTEX
8
SLAB_00
10
47.121
20
-117.177
30
0.0
0
VERTEX
8
SLAB_00
10
50.990
20
-119.871
30
0.0
0
VERTEX
8
SLAB_00
10
55.027
20
-122.443
30
0.0
0
VERTEX
8
SLAB_00
10
59.228
20
-124.883
30
0.0
0
VERTEX
8
SLAB_00
10
63.589
20
-127.178
30
0.0
0
VERTEX
8
SLAB_00
10
68.105
20
-129.319
30
0.0
0
VERTEX
8
SLAB_00
10
72.770
20
-131.293
30
0.0
0
VERTEX
8
SLAB_00
10
77.578
20
-133.092
30
0.0
0
VERTEX
8
SLAB_00
10
82.521
20
-134.704
30
0.0
0
VERTEX
8
SLAB_00
10
87.591
20
-136.120
30
0.0
0
VERTEX
8
SLAB_00
10
92.780
20
-137.331
30
0.0
0
VERTEX
8
SLAB_00
10
98.078
20
-138.327
30
0.0
0
VERTEX
8
SLAB_00
10
103.475
20
-139.100
30
0.0
0
VERTEX
8
SLAB_00
10
108.961
20
-139.642
30
0.0
0
VERTEX
8
SLAB_00
10
114.525
20
-139.945
30
0.0
0
VERTEX
8
SLAB_00
10
120.154
20
-140.004
30
0.0
0
VERTEX
8
SLAB_00
10
125.837
20
-139.811
30
0.0
0
VERTEX
8
SLAB_00
10
131.560
20
-139.361
30
0.0
0
VERTEX
8
SLAB_00
10
137.311
20
-138.650
30
0.0
0
VERTEX
8
SLAB_00
10
143.075
20
-137.674
30
0.0
0
VERTEX
8
SLAB_00
10
148.840
20
-136.430
30
0.0
0
VERTEX
8
SLAB_00
10
154.590
20
-134.915
30
0.0
0
VERTEX
8
SLAB_00
10
160.312
20
-133.128
30
0.0
0
VERTEX
8
SLAB_00
10
165.990
20
-131.068
30
0.0
0
VERTEX
8
SLAB_00
10
171.611
20
-128.736
30
0.0
0
VERTEX
8
SLAB_00
10
177.159
20
-126.132
30
0.0
0
VERTEX
8
SLAB_00
10
182.619
20
-123.259
30
0.0
0
VERTEX
8
SLAB_00
10
187.978
20
-120.121
30
0.0
0
VERTEX
8
SLAB_00
10
193.219
20
-116.719
30
0.0
0
VERTEX
8
SLAB_00
10
198.329
20
-113.060
30
0.0
0
VERTEX
8
SLAB_00
10
203.293
20
-109.149
30
0.0
0
VERTEX
8
SLAB_00
10
208.098
20
-104.992
30
0.0
0
VERTEX
8
SLAB_00
10
212.729
20
-100.596
30
0.0
0
VERTEX
8
SLAB_00
10
217.175
20
-95.971
30
0.0
0
VERTEX
8
SLAB_00
10
221.420
20
-91.124
30
0.0
0
VERTEX
8
SLAB_00
10
225.455
20
-86.065
30
0.0
0
VERTEX
8
SLAB_00
10
229.265
20
-80.806
30
0.0
0
VERTEX
8
SLAB_00
10
232.841
20
-75.356
30
0.0
0
VERTEX
8
SLAB_00
10
236.172
20
-69.728
30
0.0
0
VERTEX
8
SLAB_00
10
239.248
20
-63.935
30
0.0
0
VERTEX
8
SLAB_00
10
242.060
20
-57.989
30
0.0
0
VERTEX
8
SLAB_00
10
244.598
20
-51.904
30
0.0
0
VERTEX
8
SLAB_00
10
246.857
20
-45.694
30
0.0
0
VERTEX
8
SLAB_00
10
248.828
20
-39.374
30
0.0
0
VERTEX
8
SLAB_00
10
250.507
20
-32.959
30
0.0
0
VERTEX
8
SLAB_00
10
251.887
20
-26.464
30
0.0
0
VERTEX
8
SLAB_00
10
252.965
20
-19.904
30
0.0
0
VERTEX
8
SLAB_00
10
253.737
20
-13.296
30
0.0
0
VERTEX
8
SLAB_00
10
254.201
20
-6.656
30
0.0
0
SEQEND
8
SLAB_00
0
TEXT
8
TEXT
10
0.000
20
155.004
30
0.0
40
8.0
1
44: s'=+986 D=280
0
CIRCLE
8
DOWEL
10
15.000
20
18.000
30
0.0
40
3.250
0
TEXT
8
DOWEL
10
20.000
20
16.000
30
0.0
40
3.0
1
A
0
CIRCLE
8
DOWEL
10
15.000
20
-18.000
30
0.0
40
3.250
0
TEXT
8
DOWEL
10
20.000
20
-20.000
30
0.0
40
3.0
1
B
0
CIRCLE
8
DOWEL
10
45.000
20
18.000
30
0.0
40
3.250
0
TEXT
8
DOWEL
10
50.000
20
16.000
30
0.0
40
3.0
1
C
0
CIRCLE
8
DOWEL
10
45.000
20
-18.000
30
0.0
40
3.250
0
TEXT
8
DOWEL
10
50.000
20
-20.000
30
0.0
40
3.0
1
D
0
ENDSEC
0
EOF