0
SECTION
2
HEADER
9
$ACADVER
1
AC1009
9
$INSUNITS
70
4
0
ENDSEC
0
SECTION
2
TABLES
0
TABLE
2
LAYER
70
4
0
LAYER
2
0
70
0
62
7
6
CONTINUOUS
0
LAYER
2
TEXT
70
0
62
1
6
CONTINUOUS
0
LAYER
2
DOWEL
70
0
62
5
6
CONTINUOUS
0
LAYER
2
SLAB_00
70
0
62
2
6
CONTINUOUS
0
ENDTAB
0
ENDSEC
0
SECTION
2
ENTITIES
0
POLYLINE
8
SLAB_00
66
1
70
1
10
0.0
20
0.0
30
0.0
0
VERTEX
8
SLAB_00
10
291.637
20
0.000
30
0.0
0
VERTEX
8
SLAB_00
10
291.459
20
7.632
30
0.0
0
VERTEX
8
SLAB_00
10
290.927
20
15.245
30
0.0
0
VERTEX
8
SLAB_00
10
290.041
20
22.821
30
0.0
0
VERTEX
8
SLAB_00
10
288.805
20
30.342
30
0.0
0
VERTEX
8
SLAB_00
10
287.223
20
37.789
30
0.0
0
VERTEX
8
SLAB_00
10
285.299
20
45.145
30
0.0
0
VERTEX
8
SLAB_00
10
283.038
20
52.391
30
0.0
0
VERTEX
8
SLAB_00
10
280.449
20
59.511
30
0.0
0
VERTEX
8
SLAB_00
10
277.538
20
66.488
30
0.0
0
VERTEX
8
SLAB_00
10
274.314
20
73.305
30
0.0
0
VERTEX
8
SLAB_00
10
270.787
20
79.948
30
0.0
0
VERTEX
8
SLAB_00
10
266.968
20
86.401
30
0.0
0
VERTEX
8
SLAB_00
10
262.868
20
92.649
30
0.0
0
VERTEX
8
SLAB_00
10
258.499
20
98.680
30
0.0
0
VERTEX
8
SLAB_00
10
253.873
20
104.480
30
0.0
0
VERTEX
8
SLAB_00
10
249.005
20
110.037
30
0.0
0
VERTEX
8
SLAB_00
10
243.909
20
115.341
30
0.0
0
VERTEX
8
SLAB_00
10
238.598
20
120.380
30
0.0
0
VERTEX
8
SLAB_00
10
233.089
20
125.146
30
0.0
0
VERTEX
8
SLAB_00
10
227.397
20
129.631
30
0.0
0
VERTEX
8
SLAB_00
10
221.538
20
133.826
30
0.0
0
VERTEX
8
SLAB_00
10
215.529
20
137.726
30
0.0
0
VERTEX
8
SLAB_00
10
209.385
20
141.325
30
0.0
0
VERTEX
8
SLAB_00
10
203.125
20
144.619
30
0.0
0
VERTEX
8
SLAB_00
10
196.764
20
147.604
30
0.0
0
VERTEX
8
SLAB_00
10
190.319
20
150.278
30
0.0
0
VERTEX
8
SLAB_00
10
183.809
20
152.640
30
0.0
0
VERTEX
8
SLAB_00
10
177.248
20
154.689
30
0.0
0
VERTEX
8
SLAB_00
10
170.655
20
156.426
30
0.0
0
VERTEX
8
SLAB_00
10
164.046
20
157.853
30
0.0
0
VERTEX
8
SLAB_00
10
157.436
20
158.972
30
0.0
0
VERTEX
8
SLAB_00
10
150.843
20
159.787
30
0.0
0
VERTEX
8
SLAB_00
10
144.281
20
160.303
30
0.0
0
VERTEX
8
SLAB_00
10
137.765
20
160.524
30
0.0
0
VERTEX
8
SLAB_00
10
131.311
20
160.457
30
0.0
0
VERTEX
8
SLAB_00
10
124.932
20
160.109
30
0.0
0
VERTEX
8
SLAB_00
10
118.641
20
159.488
30
0.0
0
VERTEX
8
SLAB_00
10
112.453
20
158.601
30
0.0
0
VERTEX
8
SLAB_00
10
106.378
20
157.459
30
0.0
0
VERTEX
8
SLAB_00
10
100.429
20
156.071
30
0.0
0
VERTEX
8
SLAB_00
10
94.615
20
154.447
30
0.0
0
VERTEX
8
SLAB_00
10
88.948
20
152.599
30
0.0
0
VERTEX
8
SLAB_00
10
83.436
20
150.537
30
0.0
0
VERTEX
8
SLAB_00
10
78.087
20
148.272
30
0.0
0
VERTEX
8
SLAB_00
10
72.909
20
145.818
30
0.0
0
VERTEX
8
SLAB_00
10
67.909
20
143.187
30
0.0
0
VERTEX
8
SLAB_00
10
63.092
20
140.390
30
0.0
0
VERTEX
8
SLAB_00
10
58.464
20
137.440
30
0.0
0
VERTEX
8
SLAB_00
10
54.027
20
134.351
30
0.0
0
VERTEX
8
SLAB_00
10
49.787
20
131.135
30
0.0
0
VERTEX
8
SLAB_00
10
45.743
20
127.804
30
0.0
0
VERTEX
8
SLAB_00
10
41.900
20
124.373
30
0.0
0
VERTEX
8
SLAB_00
10
38.256
20
120.852
30
0.0
0
VERTEX
8
SLAB_00
10
34.811
20
117.254
30
0.0
0
VERTEX
8
SLAB_00
10
31.565
20
113.592
30
0.0
0
VERTEX
8
SLAB_00
10
28.516
20
109.877
30
0.0
0
VERTEX
8
SLAB_00
10
25.661
20
106.121
30
0.0
0
VERTEX
8
SLAB_00
10
22.998
20
102.334
30
0.0
0
VERTEX
8
SLAB_00
10
20.521
20
98.528
30
0.0
0
VERTEX
8
SLAB_00
10
18.227
20
94.712
30
0.0
0
VERTEX
8
SLAB_00
10
16.111
20
90.896
30
0.0
0
VERTEX
8
SLAB_00
10
14.167
20
87.089
30
0.0
0
VERTEX
8
SLAB_00
10
12.389
20
83.299
30
0.0
0
VERTEX
8
SLAB_00
10
10.770
20
79.535
30
0.0
0
VERTEX
8
SLAB_00
10
9.303
20
75.803
30
0.0
0
VERTEX
8
SLAB_00
10
7.982
20
72.109
30
0.0
0
VERTEX
8
SLAB_00
10
6.798
20
68.461
30
0.0
0
VERTEX
8
SLAB_00
10
5.743
20
64.862
30
0.0
0
VERTEX
8
SLAB_00
10
4.810
20
61.317
30
0.0
0
VERTEX
8
SLAB_00
10
3.991
20
57.829
30
0.0
0
VERTEX
8
SLAB_00
10
3.276
20
54.403
30
0.0
0
VERTEX
8
SLAB_00
10
2.659
20
51.039
30
0.0
0
VERTEX
8
SLAB_00
10
2.131
20
47.740
30
0.0
0
VERTEX
8
SLAB_00
10
1.683
20
44.507
30
0.0
0
VERTEX
8
SLAB_00
10
1.309
20
41.339
30
0.0
0
VERTEX
8
SLAB_00
10
0.999
20
38.235
30
0.0
0
VERTEX
8
SLAB_00
10
0.747
20
35.196
30
0.0
0
VERTEX
8
SLAB_00
10
0.545
20
32.219
30
0.0
0
VERTEX
8
SLAB_00
10
0.387
20
29.301
30
0.0
0
VERTEX
8
SLAB_00
10
0.265
20
26.440
30
0.0
0
VERTEX
8
SLAB_00
10
0.175
20
23.633
30
0.0
0
VERTEX
8
SLAB_00
10
0.109
20
20.875
30
0.0
0
VERTEX
8
SLAB_00
10
0.064
20
18.162
30
0.0
0
VERTEX
8
SLAB_00
10
0.035
20
15.490
30
0.0
0
VERTEX
8
SLAB_00
10
0.017
20
12.853
30
0.0
0
VERTEX
8
SLAB_00
10
0.007
20
10.246
30
0.0
0
VERTEX
8
SLAB_00
10
0.002
20
7.663
30
0.0
0
VERTEX
8
SLAB_00
10
0.000
20
5.098
30
0.0
0
VERTEX
8
SLAB_00
10
0.000
20
2.546
30
0.0
0
VERTEX
8
SLAB_00
10
0.000
20
0.000
30
0.0
0
VERTEX
8
SLAB_00
10
0.000
20
-2.546
30
0.0
0
VERTEX
8
SLAB_00
10
0.000
20
-5.098
30
0.0
0
VERTEX
8
SLAB_00
10
0.002
20
-7.663
30
0.0
0
VERTEX
8
SLAB_00
10
0.007
20
-10.246
30
0.0
0
VERTEX
8
SLAB_00
10
0.017
20
-12.853
30
0.0
0
VERTEX
8
SLAB_00
10
0.035
20
-15.490
30
0.0
0
VERTEX
8
SLAB_00
10
0.064
20
-18.162
30
0.0
0
VERTEX
8
SLAB_00
10
0.109
20
-20.875
30
0.0
0
VERTEX
8
SLAB_00
10
0.175
20
-23.633
30
0.0
0
VERTEX
8
SLAB_00
10
0.265
20
-26.440
30
0.0
0
VERTEX
8
SLAB_00
10
0.387
20
-29.301
30
0.0
0
VERTEX
8
SLAB_00
10
0.545
20
-32.219
30
0.0
0
VERTEX
8
SLAB_00
10
0.747
20
-35.196
30
0.0
0
VERTEX
8
SLAB_00
10
0.999
20
-38.235
30
0.0
0
VERTEX
8
SLAB_00
10
1.309
20
-41.339
30
0.0
0
VERTEX
8
SLAB_00
10
1.683
20
-44.507
30
0.0
0
VERTEX
8
SLAB_00
10
2.131
20
-47.740
30
0.0
0
VERTEX
8
SLAB_00
10
2.659
20
-51.039
30
0.0
0
VERTEX
8
SLAB_00
10
3.276
20
-54.403
30
0.0
0
VERTEX
8
SLAB_00
10
3.991
20
-57.829
30
0.0
0
VERTEX
8
SLAB_00
10
4.810
20
-61.317
30
0.0
0
VERTEX
8
SLAB_00
10
5.743
20
-64.862
30
0.0
0
VERTEX
8
SLAB_00
10
6.798
20
-68.461
30
0.0
0
VERTEX
8
SLAB_00
10
7.982
20
-72.109
30
0.0
0
VERTEX
8
SLAB_00
10
9.303
20
-75.803
30
0.0
0
VERTEX
8
SLAB_00
10
10.770
20
-79.535
30
0.0
0
VERTEX
8
SLAB_00
10
12.389
20
-83.299
30
0.0
0
VERTEX
8
SLAB_00
10
14.167
20
-87.089
30
0.0
0
VERTEX
8
SLAB_00
10
16.111
20
-90.896
30
0.0
0
VERTEX
8
SLAB_00
10
18.227
20
-94.712
30
0.0
0
VERTEX
8
SLAB_00
10
20.521
20
-98.528
30
0.0
0
VERTEX
8
SLAB_00
10
22.998
20
-102.334
30
0.0
0
VERTEX
8
SLAB_00
10
25.661
20
-106.121
30
0.0
0
VERTEX
8
SLAB_00
10
28.516
20
-109.877
30
0.0
0
VERTEX
8
SLAB_00
10
31.565
20
-113.592
30
0.0
0
VERTEX
8
SLAB_00
10
34.811
20
-117.254
30
0.0
0
VERTEX
8
SLAB_00
10
38.256
20
-120.852
30
0.0
0
VERTEX
8
SLAB_00
10
41.900
20
-124.373
30
0.0
0
VERTEX
8
SLAB_00
10
45.743
20
-127.804
30
0.0
0
VERTEX
8
SLAB_00
10
49.787
20
-131.135
30
0.0
0
VERTEX
8
SLAB_00
10
54.027
20
-134.351
30
0.0
0
VERTEX
8
SLAB_00
10
58.464
20
-137.440
30
0.0
0
VERTEX
8
SLAB_00
10
63.092
20
-140.390
30
0.0
0
VERTEX
8
SLAB_00
10
67.909
20
-143.187
30
0.0
0
VERTEX
8
SLAB_00
10
72.909
20
-145.818
30
0.0
0
VERTEX
8
SLAB_00
10
78.087
20
-148.272
30
0.0
0
VERTEX
8
SLAB_00
10
83.436
20
-150.537
30
0.0
0
VERTEX
8
SLAB_00
10
88.948
20
-152.599
30
0.0
0
VERTEX
8
SLAB_00
10
94.615
20
-154.447
30
0.0
0
VERTEX
8
SLAB_00
10
100.429
20
-156.071
30
0.0
0
VERTEX
8
SLAB_00
10
106.378
20
-157.459
30
0.0
0
VERTEX
8
SLAB_00
10
112.453
20
-158.601
30
0.0
0
VERTEX
8
SLAB_00
10
118.641
20
-159.488
30
0.0
0
VERTEX
8
SLAB_00
10
124.932
20
-160.109
30
0.0
0
VERTEX
8
SLAB_00
10
131.311
20
-160.457
30
0.0
0
VERTEX
8
SLAB_00
10
137.765
20
-160.524
30
0.0
0
VERTEX
8
SLAB_00
10
144.281
20
-160.303
30
0.0
0
VERTEX
8
SLAB_00
10
150.843
20
-159.787
30
0.0
0
VERTEX
8
SLAB_00
10
157.436
20
-158.972
30
0.0
0
VERTEX
8
SLAB_00
10
164.046
20
-157.853
30
0.0
0
VERTEX
8
SLAB_00
10
170.655
20
-156.426
30
0.0
0
VERTEX
8
SLAB_00
10
177.248
20
-154.689
30
0.0
0
VERTEX
8
SLAB_00
10
183.809
20
-152.640
30
0.0
0
VERTEX
8
SLAB_00
10
190.319
20
-150.278
30
0.0
0
VERTEX
8
SLAB_00
10
196.764
20
-147.604
30
0.0
0
VERTEX
8
SLAB_00
10
203.125
20
-144.619
30
0.0
0
VERTEX
8
SLAB_00
10
209.385
20
-141.325
30
0.0
0
VERTEX
8
SLAB_00
10
215.529
20
-137.726
30
0.0
0
VERTEX
8
SLAB_00
10
221.538
20
-133.826
30
0.0
0
VERTEX
8
SLAB_00
10
227.397
20
-129.631
30
0.0
0
VERTEX
8
SLAB_00
10
233.089
20
-125.146
30
0.0
0
VERTEX
8
SLAB_00
10
238.598
20
-120.380
30
0.0
0
VERTEX
8
SLAB_00
10
243.909
20
-115.341
30
0.0
0
VERTEX
8
SLAB_00
10
249.005
20
-110.037
30
0.0
0
VERTEX
8
SLAB_00
10
253.873
20
-104.480
30
0.0
0
VERTEX
8
SLAB_00
10
258.499
20
-98.680
30
0.0
0
VERTEX
8
SLAB_00
10
262.868
20
-92.649
30
0.0
0
VERTEX
8
SLAB_00
10
266.968
20
-86.401
30
0.0
0
VERTEX
8
SLAB_00
10
270.787
20
-79.948
30
0.0
0
VERTEX
8
SLAB_00
10
274.314
20
-73.305
30
0.0
0
VERTEX
8
SLAB_00
10
277.538
20
-66.488
30
0.0
0
VERTEX
8
SLAB_00
10
280.449
20
-59.511
30
0.0
0
VERTEX
8
SLAB_00
10
283.038
20
-52.391
30
0.0
0
VERTEX
8
SLAB_00
10
285.299
20
-45.145
30
0.0
0
VERTEX
8
SLAB_00
10
287.223
20
-37.789
30
0.0
0
VERTEX
8
SLAB_00
10
288.805
20
-30.342
30
0.0
0
VERTEX
8
SLAB_00
10
290.041
20
-22.821
30
0.0
0
VERTEX
8
SLAB_00
10
290.927
20
-15.245
30
0.0
0
VERTEX
8
SLAB_00
10
291.459
20
-7.632
30
0.0
0
SEQEND
8
SLAB_00
0
TEXT
8
TEXT
10
0.000
20
175.524
30
0.0
40
8.0
1
14: s'=+249 D=321
0
CIRCLE
8
DOWEL
10
15.000
20
18.000
30
0.0
40
3.250
0
TEXT
8
DOWEL
10
20.000
20
16.000
30
0.0
40
3.0
1
A
0
CIRCLE
8
DOWEL
10
15.000
20
-18.000
30
0.0
40
3.250
0
TEXT
8
DOWEL
10
20.000
20
-20.000
30
0.0
40
3.0
1
B
0
CIRCLE
8
DOWEL
10
45.000
20
18.000
30
0.0
40
3.250
0
TEXT
8
DOWEL
10
50.000
20
16.000
30
0.0
40
3.0
1
C
0
CIRCLE
8
DOWEL
10
45.000
20
-18.000
30
0.0
40
3.250
0
TEXT
8
DOWEL
10
50.000
20
-20.000
30
0.0
40
3.0
1
D
0
ENDSEC
0
EOF