0
SECTION
2
HEADER
9
$ACADVER
1
AC1009
9
$INSUNITS
70
4
0
ENDSEC
0
SECTION
2
TABLES
0
TABLE
2
LAYER
70
4
0
LAYER
2
0
70
0
62
7
6
CONTINUOUS
0
LAYER
2
TEXT
70
0
62
1
6
CONTINUOUS
0
LAYER
2
DOWEL
70
0
62
5
6
CONTINUOUS
0
LAYER
2
SLAB_00
70
0
62
2
6
CONTINUOUS
0
ENDTAB
0
ENDSEC
0
SECTION
2
ENTITIES
0
POLYLINE
8
SLAB_00
66
1
70
1
10
0.0
20
0.0
30
0.0
0
VERTEX
8
SLAB_00
10
78.948
20
0.000
30
0.0
0
VERTEX
8
SLAB_00
10
78.900
20
2.066
30
0.0
0
VERTEX
8
SLAB_00
10
78.755
20
4.127
30
0.0
0
VERTEX
8
SLAB_00
10
78.516
20
6.178
30
0.0
0
VERTEX
8
SLAB_00
10
78.181
20
8.214
30
0.0
0
VERTEX
8
SLAB_00
10
77.753
20
10.230
30
0.0
0
VERTEX
8
SLAB_00
10
77.232
20
12.221
30
0.0
0
VERTEX
8
SLAB_00
10
76.620
20
14.183
30
0.0
0
VERTEX
8
SLAB_00
10
75.919
20
16.110
30
0.0
0
VERTEX
8
SLAB_00
10
75.131
20
17.999
30
0.0
0
VERTEX
8
SLAB_00
10
74.258
20
19.844
30
0.0
0
VERTEX
8
SLAB_00
10
73.304
20
21.642
30
0.0
0
VERTEX
8
SLAB_00
10
72.270
20
23.389
30
0.0
0
VERTEX
8
SLAB_00
10
71.160
20
25.081
30
0.0
0
VERTEX
8
SLAB_00
10
69.977
20
26.713
30
0.0
0
VERTEX
8
SLAB_00
10
68.725
20
28.283
30
0.0
0
VERTEX
8
SLAB_00
10
67.407
20
29.788
30
0.0
0
VERTEX
8
SLAB_00
10
66.027
20
31.223
30
0.0
0
VERTEX
8
SLAB_00
10
64.590
20
32.588
30
0.0
0
VERTEX
8
SLAB_00
10
63.099
20
33.878
30
0.0
0
VERTEX
8
SLAB_00
10
61.558
20
35.092
30
0.0
0
VERTEX
8
SLAB_00
10
59.972
20
36.228
30
0.0
0
VERTEX
8
SLAB_00
10
58.345
20
37.283
30
0.0
0
VERTEX
8
SLAB_00
10
56.682
20
38.258
30
0.0
0
VERTEX
8
SLAB_00
10
54.987
20
39.149
30
0.0
0
VERTEX
8
SLAB_00
10
53.265
20
39.957
30
0.0
0
VERTEX
8
SLAB_00
10
51.520
20
40.681
30
0.0
0
VERTEX
8
SLAB_00
10
49.758
20
41.320
30
0.0
0
VERTEX
8
SLAB_00
10
47.982
20
41.875
30
0.0
0
VERTEX
8
SLAB_00
10
46.197
20
42.345
30
0.0
0
VERTEX
8
SLAB_00
10
44.408
20
42.732
30
0.0
0
VERTEX
8
SLAB_00
10
42.619
20
43.035
30
0.0
0
VERTEX
8
SLAB_00
10
40.834
20
43.255
30
0.0
0
VERTEX
8
SLAB_00
10
39.058
20
43.395
30
0.0
0
VERTEX
8
SLAB_00
10
37.294
20
43.455
30
0.0
0
VERTEX
8
SLAB_00
10
35.547
20
43.437
30
0.0
0
VERTEX
8
SLAB_00
10
33.820
20
43.342
30
0.0
0
VERTEX
8
SLAB_00
10
32.117
20
43.174
30
0.0
0
VERTEX
8
SLAB_00
10
30.442
20
42.934
30
0.0
0
VERTEX
8
SLAB_00
10
28.797
20
42.625
30
0.0
0
VERTEX
8
SLAB_00
10
27.187
20
42.249
30
0.0
0
VERTEX
8
SLAB_00
10
25.613
20
41.810
30
0.0
0
VERTEX
8
SLAB_00
10
24.079
20
41.309
30
0.0
0
VERTEX
8
SLAB_00
10
22.586
20
40.751
30
0.0
0
VERTEX
8
SLAB_00
10
21.139
20
40.138
30
0.0
0
VERTEX
8
SLAB_00
10
19.737
20
39.474
30
0.0
0
VERTEX
8
SLAB_00
10
18.383
20
38.761
30
0.0
0
VERTEX
8
SLAB_00
10
17.079
20
38.004
30
0.0
0
VERTEX
8
SLAB_00
10
15.826
20
37.206
30
0.0
0
VERTEX
8
SLAB_00
10
14.625
20
36.370
30
0.0
0
VERTEX
8
SLAB_00
10
13.477
20
35.499
30
0.0
0
VERTEX
8
SLAB_00
10
12.383
20
34.597
30
0.0
0
VERTEX
8
SLAB_00
10
11.342
20
33.668
30
0.0
0
VERTEX
8
SLAB_00
10
10.356
20
32.715
30
0.0
0
VERTEX
8
SLAB_00
10
9.424
20
31.741
30
0.0
0
VERTEX
8
SLAB_00
10
8.545
20
30.750
30
0.0
0
VERTEX
8
SLAB_00
10
7.719
20
29.744
30
0.0
0
VERTEX
8
SLAB_00
10
6.947
20
28.727
30
0.0
0
VERTEX
8
SLAB_00
10
6.226
20
27.702
30
0.0
0
VERTEX
8
SLAB_00
10
5.555
20
26.672
30
0.0
0
VERTEX
8
SLAB_00
10
4.934
20
25.639
30
0.0
0
VERTEX
8
SLAB_00
10
4.361
20
24.606
30
0.0
0
VERTEX
8
SLAB_00
10
3.835
20
23.575
30
0.0
0
VERTEX
8
SLAB_00
10
3.354
20
22.550
30
0.0
0
VERTEX
8
SLAB_00
10
2.915
20
21.530
30
0.0
0
VERTEX
8
SLAB_00
10
2.518
20
20.520
30
0.0
0
VERTEX
8
SLAB_00
10
2.161
20
19.520
30
0.0
0
VERTEX
8
SLAB_00
10
1.840
20
18.533
30
0.0
0
VERTEX
8
SLAB_00
10
1.555
20
17.558
30
0.0
0
VERTEX
8
SLAB_00
10
1.302
20
16.599
30
0.0
0
VERTEX
8
SLAB_00
10
1.080
20
15.655
30
0.0
0
VERTEX
8
SLAB_00
10
0.887
20
14.727
30
0.0
0
VERTEX
8
SLAB_00
10
0.720
20
13.817
30
0.0
0
VERTEX
8
SLAB_00
10
0.577
20
12.924
30
0.0
0
VERTEX
8
SLAB_00
10
0.456
20
12.048
30
0.0
0
VERTEX
8
SLAB_00
10
0.354
20
11.191
30
0.0
0
VERTEX
8
SLAB_00
10
0.270
20
10.351
30
0.0
0
VERTEX
8
SLAB_00
10
0.202
20
9.528
30
0.0
0
VERTEX
8
SLAB_00
10
0.148
20
8.722
30
0.0
0
VERTEX
8
SLAB_00
10
0.105
20
7.932
30
0.0
0
VERTEX
8
SLAB_00
10
0.072
20
7.158
30
0.0
0
VERTEX
8
SLAB_00
10
0.047
20
6.398
30
0.0
0
VERTEX
8
SLAB_00
10
0.030
20
5.651
30
0.0
0
VERTEX
8
SLAB_00
10
0.017
20
4.917
30
0.0
0
VERTEX
8
SLAB_00
10
0.009
20
4.193
30
0.0
0
VERTEX
8
SLAB_00
10
0.005
20
3.479
30
0.0
0
VERTEX
8
SLAB_00
10
0.002
20
2.774
30
0.0
0
VERTEX
8
SLAB_00
10
0.001
20
2.074
30
0.0
0
VERTEX
8
SLAB_00
10
0.000
20
1.380
30
0.0
0
VERTEX
8
SLAB_00
10
0.000
20
0.689
30
0.0
0
VERTEX
8
SLAB_00
10
0.000
20
0.000
30
0.0
0
VERTEX
8
SLAB_00
10
0.000
20
-0.689
30
0.0
0
VERTEX
8
SLAB_00
10
0.000
20
-1.380
30
0.0
0
VERTEX
8
SLAB_00
10
0.001
20
-2.074
30
0.0
0
VERTEX
8
SLAB_00
10
0.002
20
-2.774
30
0.0
0
VERTEX
8
SLAB_00
10
0.005
20
-3.479
30
0.0
0
VERTEX
8
SLAB_00
10
0.009
20
-4.193
30
0.0
0
VERTEX
8
SLAB_00
10
0.017
20
-4.917
30
0.0
0
VERTEX
8
SLAB_00
10
0.030
20
-5.651
30
0.0
0
VERTEX
8
SLAB_00
10
0.047
20
-6.398
30
0.0
0
VERTEX
8
SLAB_00
10
0.072
20
-7.158
30
0.0
0
VERTEX
8
SLAB_00
10
0.105
20
-7.932
30
0.0
0
VERTEX
8
SLAB_00
10
0.148
20
-8.722
30
0.0
0
VERTEX
8
SLAB_00
10
0.202
20
-9.528
30
0.0
0
VERTEX
8
SLAB_00
10
0.270
20
-10.351
30
0.0
0
VERTEX
8
SLAB_00
10
0.354
20
-11.191
30
0.0
0
VERTEX
8
SLAB_00
10
0.456
20
-12.048
30
0.0
0
VERTEX
8
SLAB_00
10
0.577
20
-12.924
30
0.0
0
VERTEX
8
SLAB_00
10
0.720
20
-13.817
30
0.0
0
VERTEX
8
SLAB_00
10
0.887
20
-14.727
30
0.0
0
VERTEX
8
SLAB_00
10
1.080
20
-15.655
30
0.0
0
VERTEX
8
SLAB_00
10
1.302
20
-16.599
30
0.0
0
VERTEX
8
SLAB_00
10
1.555
20
-17.558
30
0.0
0
VERTEX
8
SLAB_00
10
1.840
20
-18.533
30
0.0
0
VERTEX
8
SLAB_00
10
2.161
20
-19.520
30
0.0
0
VERTEX
8
SLAB_00
10
2.518
20
-20.520
30
0.0
0
VERTEX
8
SLAB_00
10
2.915
20
-21.530
30
0.0
0
VERTEX
8
SLAB_00
10
3.354
20
-22.550
30
0.0
0
VERTEX
8
SLAB_00
10
3.835
20
-23.575
30
0.0
0
VERTEX
8
SLAB_00
10
4.361
20
-24.606
30
0.0
0
VERTEX
8
SLAB_00
10
4.934
20
-25.639
30
0.0
0
VERTEX
8
SLAB_00
10
5.555
20
-26.672
30
0.0
0
VERTEX
8
SLAB_00
10
6.226
20
-27.702
30
0.0
0
VERTEX
8
SLAB_00
10
6.947
20
-28.727
30
0.0
0
VERTEX
8
SLAB_00
10
7.719
20
-29.744
30
0.0
0
VERTEX
8
SLAB_00
10
8.545
20
-30.750
30
0.0
0
VERTEX
8
SLAB_00
10
9.424
20
-31.741
30
0.0
0
VERTEX
8
SLAB_00
10
10.356
20
-32.715
30
0.0
0
VERTEX
8
SLAB_00
10
11.342
20
-33.668
30
0.0
0
VERTEX
8
SLAB_00
10
12.383
20
-34.597
30
0.0
0
VERTEX
8
SLAB_00
10
13.477
20
-35.499
30
0.0
0
VERTEX
8
SLAB_00
10
14.625
20
-36.370
30
0.0
0
VERTEX
8
SLAB_00
10
15.826
20
-37.206
30
0.0
0
VERTEX
8
SLAB_00
10
17.079
20
-38.004
30
0.0
0
VERTEX
8
SLAB_00
10
18.383
20
-38.761
30
0.0
0
VERTEX
8
SLAB_00
10
19.737
20
-39.474
30
0.0
0
VERTEX
8
SLAB_00
10
21.139
20
-40.138
30
0.0
0
VERTEX
8
SLAB_00
10
22.586
20
-40.751
30
0.0
0
VERTEX
8
SLAB_00
10
24.079
20
-41.309
30
0.0
0
VERTEX
8
SLAB_00
10
25.613
20
-41.810
30
0.0
0
VERTEX
8
SLAB_00
10
27.187
20
-42.249
30
0.0
0
VERTEX
8
SLAB_00
10
28.797
20
-42.625
30
0.0
0
VERTEX
8
SLAB_00
10
30.442
20
-42.934
30
0.0
0
VERTEX
8
SLAB_00
10
32.117
20
-43.174
30
0.0
0
VERTEX
8
SLAB_00
10
33.820
20
-43.342
30
0.0
0
VERTEX
8
SLAB_00
10
35.547
20
-43.437
30
0.0
0
VERTEX
8
SLAB_00
10
37.294
20
-43.455
30
0.0
0
VERTEX
8
SLAB_00
10
39.058
20
-43.395
30
0.0
0
VERTEX
8
SLAB_00
10
40.834
20
-43.255
30
0.0
0
VERTEX
8
SLAB_00
10
42.619
20
-43.035
30
0.0
0
VERTEX
8
SLAB_00
10
44.408
20
-42.732
30
0.0
0
VERTEX
8
SLAB_00
10
46.197
20
-42.345
30
0.0
0
VERTEX
8
SLAB_00
10
47.982
20
-41.875
30
0.0
0
VERTEX
8
SLAB_00
10
49.758
20
-41.320
30
0.0
0
VERTEX
8
SLAB_00
10
51.520
20
-40.681
30
0.0
0
VERTEX
8
SLAB_00
10
53.265
20
-39.957
30
0.0
0
VERTEX
8
SLAB_00
10
54.987
20
-39.149
30
0.0
0
VERTEX
8
SLAB_00
10
56.682
20
-38.258
30
0.0
0
VERTEX
8
SLAB_00
10
58.345
20
-37.283
30
0.0
0
VERTEX
8
SLAB_00
10
59.972
20
-36.228
30
0.0
0
VERTEX
8
SLAB_00
10
61.558
20
-35.092
30
0.0
0
VERTEX
8
SLAB_00
10
63.099
20
-33.878
30
0.0
0
VERTEX
8
SLAB_00
10
64.590
20
-32.588
30
0.0
0
VERTEX
8
SLAB_00
10
66.027
20
-31.223
30
0.0
0
VERTEX
8
SLAB_00
10
67.407
20
-29.788
30
0.0
0
VERTEX
8
SLAB_00
10
68.725
20
-28.283
30
0.0
0
VERTEX
8
SLAB_00
10
69.977
20
-26.713
30
0.0
0
VERTEX
8
SLAB_00
10
71.160
20
-25.081
30
0.0
0
VERTEX
8
SLAB_00
10
72.270
20
-23.389
30
0.0
0
VERTEX
8
SLAB_00
10
73.304
20
-21.642
30
0.0
0
VERTEX
8
SLAB_00
10
74.258
20
-19.844
30
0.0
0
VERTEX
8
SLAB_00
10
75.131
20
-17.999
30
0.0
0
VERTEX
8
SLAB_00
10
75.919
20
-16.110
30
0.0
0
VERTEX
8
SLAB_00
10
76.620
20
-14.183
30
0.0
0
VERTEX
8
SLAB_00
10
77.232
20
-12.221
30
0.0
0
VERTEX
8
SLAB_00
10
77.753
20
-10.230
30
0.0
0
VERTEX
8
SLAB_00
10
78.181
20
-8.214
30
0.0
0
VERTEX
8
SLAB_00
10
78.516
20
-6.178
30
0.0
0
VERTEX
8
SLAB_00
10
78.755
20
-4.127
30
0.0
0
VERTEX
8
SLAB_00
10
78.900
20
-2.066
30
0.0
0
SEQEND
8
SLAB_00
0
TEXT
8
TEXT
10
0.000
20
58.455
30
0.0
40
8.0
1
65: s'=+1519 D=87
0
CIRCLE
8
DOWEL
10
15.000
20
18.000
30
0.0
40
3.250
0
TEXT
8
DOWEL
10
20.000
20
16.000
30
0.0
40
3.0
1
A
0
CIRCLE
8
DOWEL
10
15.000
20
-18.000
30
0.0
40
3.250
0
TEXT
8
DOWEL
10
20.000
20
-20.000
30
0.0
40
3.0
1
B
0
CIRCLE
8
DOWEL
10
45.000
20
18.000
30
0.0
40
3.250
0
TEXT
8
DOWEL
10
50.000
20
16.000
30
0.0
40
3.0
1
C
0
CIRCLE
8
DOWEL
10
45.000
20
-18.000
30
0.0
40
3.250
0
TEXT
8
DOWEL
10
50.000
20
-20.000
30
0.0
40
3.0
1
D
0
ENDSEC
0
EOF