0
SECTION
2
HEADER
9
$ACADVER
1
AC1009
9
$INSUNITS
70
4
0
ENDSEC
0
SECTION
2
TABLES
0
TABLE
2
LAYER
70
4
0
LAYER
2
0
70
0
62
7
6
CONTINUOUS
0
LAYER
2
TEXT
70
0
62
1
6
CONTINUOUS
0
LAYER
2
DOWEL
70
0
62
5
6
CONTINUOUS
0
LAYER
2
SLAB_00
70
0
62
2
6
CONTINUOUS
0
ENDTAB
0
ENDSEC
0
SECTION
2
ENTITIES
0
POLYLINE
8
SLAB_00
66
1
70
1
10
0.0
20
0.0
30
0.0
0
VERTEX
8
SLAB_00
10
308.200
20
0.000
30
0.0
0
VERTEX
8
SLAB_00
10
308.013
20
8.065
30
0.0
0
VERTEX
8
SLAB_00
10
307.450
20
16.111
30
0.0
0
VERTEX
8
SLAB_00
10
306.514
20
24.118
30
0.0
0
VERTEX
8
SLAB_00
10
305.208
20
32.066
30
0.0
0
VERTEX
8
SLAB_00
10
303.536
20
39.936
30
0.0
0
VERTEX
8
SLAB_00
10
301.502
20
47.709
30
0.0
0
VERTEX
8
SLAB_00
10
299.113
20
55.367
30
0.0
0
VERTEX
8
SLAB_00
10
296.377
20
62.891
30
0.0
0
VERTEX
8
SLAB_00
10
293.301
20
70.264
30
0.0
0
VERTEX
8
SLAB_00
10
289.894
20
77.469
30
0.0
0
VERTEX
8
SLAB_00
10
286.167
20
84.489
30
0.0
0
VERTEX
8
SLAB_00
10
282.131
20
91.308
30
0.0
0
VERTEX
8
SLAB_00
10
277.798
20
97.911
30
0.0
0
VERTEX
8
SLAB_00
10
273.180
20
104.284
30
0.0
0
VERTEX
8
SLAB_00
10
268.292
20
110.414
30
0.0
0
VERTEX
8
SLAB_00
10
263.148
20
116.287
30
0.0
0
VERTEX
8
SLAB_00
10
257.762
20
121.892
30
0.0
0
VERTEX
8
SLAB_00
10
252.150
20
127.217
30
0.0
0
VERTEX
8
SLAB_00
10
246.328
20
132.254
30
0.0
0
VERTEX
8
SLAB_00
10
240.313
20
136.993
30
0.0
0
VERTEX
8
SLAB_00
10
234.121
20
141.427
30
0.0
0
VERTEX
8
SLAB_00
10
227.770
20
145.549
30
0.0
0
VERTEX
8
SLAB_00
10
221.278
20
149.352
30
0.0
0
VERTEX
8
SLAB_00
10
214.661
20
152.833
30
0.0
0
VERTEX
8
SLAB_00
10
207.939
20
155.987
30
0.0
0
VERTEX
8
SLAB_00
10
201.129
20
158.813
30
0.0
0
VERTEX
8
SLAB_00
10
194.248
20
161.309
30
0.0
0
VERTEX
8
SLAB_00
10
187.315
20
163.475
30
0.0
0
VERTEX
8
SLAB_00
10
180.348
20
165.310
30
0.0
0
VERTEX
8
SLAB_00
10
173.363
20
166.818
30
0.0
0
VERTEX
8
SLAB_00
10
166.378
20
168.001
30
0.0
0
VERTEX
8
SLAB_00
10
159.410
20
168.862
30
0.0
0
VERTEX
8
SLAB_00
10
152.475
20
169.407
30
0.0
0
VERTEX
8
SLAB_00
10
145.589
20
169.641
30
0.0
0
VERTEX
8
SLAB_00
10
138.769
20
169.570
30
0.0
0
VERTEX
8
SLAB_00
10
132.027
20
169.202
30
0.0
0
VERTEX
8
SLAB_00
10
125.380
20
168.546
30
0.0
0
VERTEX
8
SLAB_00
10
118.840
20
167.609
30
0.0
0
VERTEX
8
SLAB_00
10
112.420
20
166.402
30
0.0
0
VERTEX
8
SLAB_00
10
106.133
20
164.935
30
0.0
0
VERTEX
8
SLAB_00
10
99.989
20
163.219
30
0.0
0
VERTEX
8
SLAB_00
10
94.000
20
161.266
30
0.0
0
VERTEX
8
SLAB_00
10
88.175
20
159.086
30
0.0
0
VERTEX
8
SLAB_00
10
82.522
20
156.694
30
0.0
0
VERTEX
8
SLAB_00
10
77.050
20
154.100
30
0.0
0
VERTEX
8
SLAB_00
10
71.766
20
151.319
30
0.0
0
VERTEX
8
SLAB_00
10
66.676
20
148.363
30
0.0
0
VERTEX
8
SLAB_00
10
61.784
20
145.246
30
0.0
0
VERTEX
8
SLAB_00
10
57.096
20
141.982
30
0.0
0
VERTEX
8
SLAB_00
10
52.614
20
138.583
30
0.0
0
VERTEX
8
SLAB_00
10
48.342
20
135.063
30
0.0
0
VERTEX
8
SLAB_00
10
44.279
20
131.436
30
0.0
0
VERTEX
8
SLAB_00
10
40.428
20
127.715
30
0.0
0
VERTEX
8
SLAB_00
10
36.788
20
123.914
30
0.0
0
VERTEX
8
SLAB_00
10
33.358
20
120.043
30
0.0
0
VERTEX
8
SLAB_00
10
30.136
20
116.117
30
0.0
0
VERTEX
8
SLAB_00
10
27.119
20
112.148
30
0.0
0
VERTEX
8
SLAB_00
10
24.304
20
108.146
30
0.0
0
VERTEX
8
SLAB_00
10
21.687
20
104.124
30
0.0
0
VERTEX
8
SLAB_00
10
19.263
20
100.091
30
0.0
0
VERTEX
8
SLAB_00
10
17.026
20
96.058
30
0.0
0
VERTEX
8
SLAB_00
10
14.972
20
92.035
30
0.0
0
VERTEX
8
SLAB_00
10
13.092
20
88.030
30
0.0
0
VERTEX
8
SLAB_00
10
11.382
20
84.052
30
0.0
0
VERTEX
8
SLAB_00
10
9.832
20
80.108
30
0.0
0
VERTEX
8
SLAB_00
10
8.435
20
76.205
30
0.0
0
VERTEX
8
SLAB_00
10
7.184
20
72.349
30
0.0
0
VERTEX
8
SLAB_00
10
6.069
20
68.545
30
0.0
0
VERTEX
8
SLAB_00
10
5.083
20
64.799
30
0.0
0
VERTEX
8
SLAB_00
10
4.217
20
61.114
30
0.0
0
VERTEX
8
SLAB_00
10
3.463
20
57.493
30
0.0
0
VERTEX
8
SLAB_00
10
2.810
20
53.938
30
0.0
0
VERTEX
8
SLAB_00
10
2.252
20
50.452
30
0.0
0
VERTEX
8
SLAB_00
10
1.779
20
47.035
30
0.0
0
VERTEX
8
SLAB_00
10
1.383
20
43.686
30
0.0
0
VERTEX
8
SLAB_00
10
1.056
20
40.407
30
0.0
0
VERTEX
8
SLAB_00
10
0.789
20
37.195
30
0.0
0
VERTEX
8
SLAB_00
10
0.576
20
34.049
30
0.0
0
VERTEX
8
SLAB_00
10
0.409
20
30.965
30
0.0
0
VERTEX
8
SLAB_00
10
0.280
20
27.942
30
0.0
0
VERTEX
8
SLAB_00
10
0.185
20
24.975
30
0.0
0
VERTEX
8
SLAB_00
10
0.116
20
22.061
30
0.0
0
VERTEX
8
SLAB_00
10
0.068
20
19.194
30
0.0
0
VERTEX
8
SLAB_00
10
0.037
20
16.370
30
0.0
0
VERTEX
8
SLAB_00
10
0.018
20
13.583
30
0.0
0
VERTEX
8
SLAB_00
10
0.007
20
10.828
30
0.0
0
VERTEX
8
SLAB_00
10
0.002
20
8.098
30
0.0
0
VERTEX
8
SLAB_00
10
0.000
20
5.388
30
0.0
0
VERTEX
8
SLAB_00
10
0.000
20
2.691
30
0.0
0
VERTEX
8
SLAB_00
10
0.000
20
0.000
30
0.0
0
VERTEX
8
SLAB_00
10
0.000
20
-2.691
30
0.0
0
VERTEX
8
SLAB_00
10
0.000
20
-5.388
30
0.0
0
VERTEX
8
SLAB_00
10
0.002
20
-8.098
30
0.0
0
VERTEX
8
SLAB_00
10
0.007
20
-10.828
30
0.0
0
VERTEX
8
SLAB_00
10
0.018
20
-13.583
30
0.0
0
VERTEX
8
SLAB_00
10
0.037
20
-16.370
30
0.0
0
VERTEX
8
SLAB_00
10
0.068
20
-19.194
30
0.0
0
VERTEX
8
SLAB_00
10
0.116
20
-22.061
30
0.0
0
VERTEX
8
SLAB_00
10
0.185
20
-24.975
30
0.0
0
VERTEX
8
SLAB_00
10
0.280
20
-27.942
30
0.0
0
VERTEX
8
SLAB_00
10
0.409
20
-30.965
30
0.0
0
VERTEX
8
SLAB_00
10
0.576
20
-34.049
30
0.0
0
VERTEX
8
SLAB_00
10
0.789
20
-37.195
30
0.0
0
VERTEX
8
SLAB_00
10
1.056
20
-40.407
30
0.0
0
VERTEX
8
SLAB_00
10
1.383
20
-43.686
30
0.0
0
VERTEX
8
SLAB_00
10
1.779
20
-47.035
30
0.0
0
VERTEX
8
SLAB_00
10
2.252
20
-50.452
30
0.0
0
VERTEX
8
SLAB_00
10
2.810
20
-53.938
30
0.0
0
VERTEX
8
SLAB_00
10
3.463
20
-57.493
30
0.0
0
VERTEX
8
SLAB_00
10
4.217
20
-61.114
30
0.0
0
VERTEX
8
SLAB_00
10
5.083
20
-64.799
30
0.0
0
VERTEX
8
SLAB_00
10
6.069
20
-68.545
30
0.0
0
VERTEX
8
SLAB_00
10
7.184
20
-72.349
30
0.0
0
VERTEX
8
SLAB_00
10
8.435
20
-76.205
30
0.0
0
VERTEX
8
SLAB_00
10
9.832
20
-80.108
30
0.0
0
VERTEX
8
SLAB_00
10
11.382
20
-84.052
30
0.0
0
VERTEX
8
SLAB_00
10
13.092
20
-88.030
30
0.0
0
VERTEX
8
SLAB_00
10
14.972
20
-92.035
30
0.0
0
VERTEX
8
SLAB_00
10
17.026
20
-96.058
30
0.0
0
VERTEX
8
SLAB_00
10
19.263
20
-100.091
30
0.0
0
VERTEX
8
SLAB_00
10
21.687
20
-104.124
30
0.0
0
VERTEX
8
SLAB_00
10
24.304
20
-108.146
30
0.0
0
VERTEX
8
SLAB_00
10
27.119
20
-112.148
30
0.0
0
VERTEX
8
SLAB_00
10
30.136
20
-116.117
30
0.0
0
VERTEX
8
SLAB_00
10
33.358
20
-120.043
30
0.0
0
VERTEX
8
SLAB_00
10
36.788
20
-123.914
30
0.0
0
VERTEX
8
SLAB_00
10
40.428
20
-127.715
30
0.0
0
VERTEX
8
SLAB_00
10
44.279
20
-131.436
30
0.0
0
VERTEX
8
SLAB_00
10
48.342
20
-135.063
30
0.0
0
VERTEX
8
SLAB_00
10
52.614
20
-138.583
30
0.0
0
VERTEX
8
SLAB_00
10
57.096
20
-141.982
30
0.0
0
VERTEX
8
SLAB_00
10
61.784
20
-145.246
30
0.0
0
VERTEX
8
SLAB_00
10
66.676
20
-148.363
30
0.0
0
VERTEX
8
SLAB_00
10
71.766
20
-151.319
30
0.0
0
VERTEX
8
SLAB_00
10
77.050
20
-154.100
30
0.0
0
VERTEX
8
SLAB_00
10
82.522
20
-156.694
30
0.0
0
VERTEX
8
SLAB_00
10
88.175
20
-159.086
30
0.0
0
VERTEX
8
SLAB_00
10
94.000
20
-161.266
30
0.0
0
VERTEX
8
SLAB_00
10
99.989
20
-163.219
30
0.0
0
VERTEX
8
SLAB_00
10
106.133
20
-164.935
30
0.0
0
VERTEX
8
SLAB_00
10
112.420
20
-166.402
30
0.0
0
VERTEX
8
SLAB_00
10
118.840
20
-167.609
30
0.0
0
VERTEX
8
SLAB_00
10
125.380
20
-168.546
30
0.0
0
VERTEX
8
SLAB_00
10
132.027
20
-169.202
30
0.0
0
VERTEX
8
SLAB_00
10
138.769
20
-169.570
30
0.0
0
VERTEX
8
SLAB_00
10
145.589
20
-169.641
30
0.0
0
VERTEX
8
SLAB_00
10
152.475
20
-169.407
30
0.0
0
VERTEX
8
SLAB_00
10
159.410
20
-168.862
30
0.0
0
VERTEX
8
SLAB_00
10
166.378
20
-168.001
30
0.0
0
VERTEX
8
SLAB_00
10
173.363
20
-166.818
30
0.0
0
VERTEX
8
SLAB_00
10
180.348
20
-165.310
30
0.0
0
VERTEX
8
SLAB_00
10
187.315
20
-163.475
30
0.0
0
VERTEX
8
SLAB_00
10
194.248
20
-161.309
30
0.0
0
VERTEX
8
SLAB_00
10
201.129
20
-158.813
30
0.0
0
VERTEX
8
SLAB_00
10
207.939
20
-155.987
30
0.0
0
VERTEX
8
SLAB_00
10
214.661
20
-152.833
30
0.0
0
VERTEX
8
SLAB_00
10
221.278
20
-149.352
30
0.0
0
VERTEX
8
SLAB_00
10
227.770
20
-145.549
30
0.0
0
VERTEX
8
SLAB_00
10
234.121
20
-141.427
30
0.0
0
VERTEX
8
SLAB_00
10
240.313
20
-136.993
30
0.0
0
VERTEX
8
SLAB_00
10
246.328
20
-132.254
30
0.0
0
VERTEX
8
SLAB_00
10
252.150
20
-127.217
30
0.0
0
VERTEX
8
SLAB_00
10
257.762
20
-121.892
30
0.0
0
VERTEX
8
SLAB_00
10
263.148
20
-116.287
30
0.0
0
VERTEX
8
SLAB_00
10
268.292
20
-110.414
30
0.0
0
VERTEX
8
SLAB_00
10
273.180
20
-104.284
30
0.0
0
VERTEX
8
SLAB_00
10
277.798
20
-97.911
30
0.0
0
VERTEX
8
SLAB_00
10
282.131
20
-91.308
30
0.0
0
VERTEX
8
SLAB_00
10
286.167
20
-84.489
30
0.0
0
VERTEX
8
SLAB_00
10
289.894
20
-77.469
30
0.0
0
VERTEX
8
SLAB_00
10
293.301
20
-70.264
30
0.0
0
VERTEX
8
SLAB_00
10
296.377
20
-62.891
30
0.0
0
VERTEX
8
SLAB_00
10
299.113
20
-55.367
30
0.0
0
VERTEX
8
SLAB_00
10
301.502
20
-47.709
30
0.0
0
VERTEX
8
SLAB_00
10
303.536
20
-39.936
30
0.0
0
VERTEX
8
SLAB_00
10
305.208
20
-32.066
30
0.0
0
VERTEX
8
SLAB_00
10
306.514
20
-24.118
30
0.0
0
VERTEX
8
SLAB_00
10
307.450
20
-16.111
30
0.0
0
VERTEX
8
SLAB_00
10
308.013
20
-8.065
30
0.0
0
SEQEND
8
SLAB_00
0
TEXT
8
TEXT
10
0.000
20
184.641
30
0.0
40
8.0
1
17: s'=+325 D=339
0
CIRCLE
8
DOWEL
10
15.000
20
18.000
30
0.0
40
3.250
0
TEXT
8
DOWEL
10
20.000
20
16.000
30
0.0
40
3.0
1
A
0
CIRCLE
8
DOWEL
10
15.000
20
-18.000
30
0.0
40
3.250
0
TEXT
8
DOWEL
10
20.000
20
-20.000
30
0.0
40
3.0
1
B
0
CIRCLE
8
DOWEL
10
45.000
20
18.000
30
0.0
40
3.250
0
TEXT
8
DOWEL
10
50.000
20
16.000
30
0.0
40
3.0
1
C
0
CIRCLE
8
DOWEL
10
45.000
20
-18.000
30
0.0
40
3.250
0
TEXT
8
DOWEL
10
50.000
20
-20.000
30
0.0
40
3.0
1
D
0
ENDSEC
0
EOF