0
SECTION
2
HEADER
9
$ACADVER
1
AC1009
9
$INSUNITS
70
4
0
ENDSEC
0
SECTION
2
TABLES
0
TABLE
2
LAYER
70
4
0
LAYER
2
0
70
0
62
7
6
CONTINUOUS
0
LAYER
2
TEXT
70
0
62
1
6
CONTINUOUS
0
LAYER
2
DOWEL
70
0
62
5
6
CONTINUOUS
0
LAYER
2
SLAB_00
70
0
62
2
6
CONTINUOUS
0
ENDTAB
0
ENDSEC
0
SECTION
2
ENTITIES
0
POLYLINE
8
SLAB_00
66
1
70
1
10
0.0
20
0.0
30
0.0
0
VERTEX
8
SLAB_00
10
324.508
20
0.000
30
0.0
0
VERTEX
8
SLAB_00
10
324.310
20
8.492
30
0.0
0
VERTEX
8
SLAB_00
10
323.718
20
16.964
30
0.0
0
VERTEX
8
SLAB_00
10
322.733
20
25.394
30
0.0
0
VERTEX
8
SLAB_00
10
321.358
20
33.762
30
0.0
0
VERTEX
8
SLAB_00
10
319.597
20
42.049
30
0.0
0
VERTEX
8
SLAB_00
10
317.456
20
50.233
30
0.0
0
VERTEX
8
SLAB_00
10
314.940
20
58.296
30
0.0
0
VERTEX
8
SLAB_00
10
312.059
20
66.219
30
0.0
0
VERTEX
8
SLAB_00
10
308.820
20
73.982
30
0.0
0
VERTEX
8
SLAB_00
10
305.233
20
81.568
30
0.0
0
VERTEX
8
SLAB_00
10
301.309
20
88.959
30
0.0
0
VERTEX
8
SLAB_00
10
297.059
20
96.139
30
0.0
0
VERTEX
8
SLAB_00
10
292.497
20
103.092
30
0.0
0
VERTEX
8
SLAB_00
10
287.635
20
109.802
30
0.0
0
VERTEX
8
SLAB_00
10
282.488
20
116.256
30
0.0
0
VERTEX
8
SLAB_00
10
277.072
20
122.440
30
0.0
0
VERTEX
8
SLAB_00
10
271.401
20
128.341
30
0.0
0
VERTEX
8
SLAB_00
10
265.492
20
133.949
30
0.0
0
VERTEX
8
SLAB_00
10
259.362
20
139.252
30
0.0
0
VERTEX
8
SLAB_00
10
253.028
20
144.242
30
0.0
0
VERTEX
8
SLAB_00
10
246.509
20
148.910
30
0.0
0
VERTEX
8
SLAB_00
10
239.822
20
153.250
30
0.0
0
VERTEX
8
SLAB_00
10
232.986
20
157.255
30
0.0
0
VERTEX
8
SLAB_00
10
226.020
20
160.920
30
0.0
0
VERTEX
8
SLAB_00
10
218.942
20
164.241
30
0.0
0
VERTEX
8
SLAB_00
10
211.771
20
167.217
30
0.0
0
VERTEX
8
SLAB_00
10
204.526
20
169.844
30
0.0
0
VERTEX
8
SLAB_00
10
197.226
20
172.125
30
0.0
0
VERTEX
8
SLAB_00
10
189.890
20
174.057
30
0.0
0
VERTEX
8
SLAB_00
10
182.536
20
175.645
30
0.0
0
VERTEX
8
SLAB_00
10
175.181
20
176.890
30
0.0
0
VERTEX
8
SLAB_00
10
167.845
20
177.797
30
0.0
0
VERTEX
8
SLAB_00
10
160.543
20
178.371
30
0.0
0
VERTEX
8
SLAB_00
10
153.293
20
178.617
30
0.0
0
VERTEX
8
SLAB_00
10
146.111
20
178.543
30
0.0
0
VERTEX
8
SLAB_00
10
139.013
20
178.155
30
0.0
0
VERTEX
8
SLAB_00
10
132.014
20
177.464
30
0.0
0
VERTEX
8
SLAB_00
10
125.128
20
176.478
30
0.0
0
VERTEX
8
SLAB_00
10
118.368
20
175.207
30
0.0
0
VERTEX
8
SLAB_00
10
111.748
20
173.663
30
0.0
0
VERTEX
8
SLAB_00
10
105.280
20
171.856
30
0.0
0
VERTEX
8
SLAB_00
10
98.974
20
169.799
30
0.0
0
VERTEX
8
SLAB_00
10
92.840
20
167.504
30
0.0
0
VERTEX
8
SLAB_00
10
86.888
20
164.985
30
0.0
0
VERTEX
8
SLAB_00
10
81.127
20
162.254
30
0.0
0
VERTEX
8
SLAB_00
10
75.563
20
159.326
30
0.0
0
VERTEX
8
SLAB_00
10
70.204
20
156.213
30
0.0
0
VERTEX
8
SLAB_00
10
65.053
20
152.932
30
0.0
0
VERTEX
8
SLAB_00
10
60.117
20
149.494
30
0.0
0
VERTEX
8
SLAB_00
10
55.398
20
145.916
30
0.0
0
VERTEX
8
SLAB_00
10
50.899
20
142.210
30
0.0
0
VERTEX
8
SLAB_00
10
46.622
20
138.391
30
0.0
0
VERTEX
8
SLAB_00
10
42.567
20
134.473
30
0.0
0
VERTEX
8
SLAB_00
10
38.735
20
130.470
30
0.0
0
VERTEX
8
SLAB_00
10
35.123
20
126.395
30
0.0
0
VERTEX
8
SLAB_00
10
31.730
20
122.262
30
0.0
0
VERTEX
8
SLAB_00
10
28.554
20
118.082
30
0.0
0
VERTEX
8
SLAB_00
10
25.590
20
113.868
30
0.0
0
VERTEX
8
SLAB_00
10
22.834
20
109.633
30
0.0
0
VERTEX
8
SLAB_00
10
20.282
20
105.387
30
0.0
0
VERTEX
8
SLAB_00
10
17.927
20
101.141
30
0.0
0
VERTEX
8
SLAB_00
10
15.764
20
96.905
30
0.0
0
VERTEX
8
SLAB_00
10
13.785
20
92.688
30
0.0
0
VERTEX
8
SLAB_00
10
11.984
20
88.499
30
0.0
0
VERTEX
8
SLAB_00
10
10.352
20
84.347
30
0.0
0
VERTEX
8
SLAB_00
10
8.881
20
80.237
30
0.0
0
VERTEX
8
SLAB_00
10
7.564
20
76.177
30
0.0
0
VERTEX
8
SLAB_00
10
6.390
20
72.172
30
0.0
0
VERTEX
8
SLAB_00
10
5.352
20
68.228
30
0.0
0
VERTEX
8
SLAB_00
10
4.441
20
64.348
30
0.0
0
VERTEX
8
SLAB_00
10
3.646
20
60.535
30
0.0
0
VERTEX
8
SLAB_00
10
2.959
20
56.792
30
0.0
0
VERTEX
8
SLAB_00
10
2.371
20
53.121
30
0.0
0
VERTEX
8
SLAB_00
10
1.873
20
49.523
30
0.0
0
VERTEX
8
SLAB_00
10
1.456
20
45.998
30
0.0
0
VERTEX
8
SLAB_00
10
1.112
20
42.545
30
0.0
0
VERTEX
8
SLAB_00
10
0.831
20
39.163
30
0.0
0
VERTEX
8
SLAB_00
10
0.606
20
35.850
30
0.0
0
VERTEX
8
SLAB_00
10
0.430
20
32.604
30
0.0
0
VERTEX
8
SLAB_00
10
0.295
20
29.420
30
0.0
0
VERTEX
8
SLAB_00
10
0.194
20
26.297
30
0.0
0
VERTEX
8
SLAB_00
10
0.122
20
23.228
30
0.0
0
VERTEX
8
SLAB_00
10
0.072
20
20.209
30
0.0
0
VERTEX
8
SLAB_00
10
0.039
20
17.236
30
0.0
0
VERTEX
8
SLAB_00
10
0.019
20
14.302
30
0.0
0
VERTEX
8
SLAB_00
10
0.008
20
11.401
30
0.0
0
VERTEX
8
SLAB_00
10
0.002
20
8.527
30
0.0
0
VERTEX
8
SLAB_00
10
0.000
20
5.673
30
0.0
0
VERTEX
8
SLAB_00
10
0.000
20
2.833
30
0.0
0
VERTEX
8
SLAB_00
10
0.000
20
0.000
30
0.0
0
VERTEX
8
SLAB_00
10
0.000
20
-2.833
30
0.0
0
VERTEX
8
SLAB_00
10
0.000
20
-5.673
30
0.0
0
VERTEX
8
SLAB_00
10
0.002
20
-8.527
30
0.0
0
VERTEX
8
SLAB_00
10
0.008
20
-11.401
30
0.0
0
VERTEX
8
SLAB_00
10
0.019
20
-14.302
30
0.0
0
VERTEX
8
SLAB_00
10
0.039
20
-17.236
30
0.0
0
VERTEX
8
SLAB_00
10
0.072
20
-20.209
30
0.0
0
VERTEX
8
SLAB_00
10
0.122
20
-23.228
30
0.0
0
VERTEX
8
SLAB_00
10
0.194
20
-26.297
30
0.0
0
VERTEX
8
SLAB_00
10
0.295
20
-29.420
30
0.0
0
VERTEX
8
SLAB_00
10
0.430
20
-32.604
30
0.0
0
VERTEX
8
SLAB_00
10
0.606
20
-35.850
30
0.0
0
VERTEX
8
SLAB_00
10
0.831
20
-39.163
30
0.0
0
VERTEX
8
SLAB_00
10
1.112
20
-42.545
30
0.0
0
VERTEX
8
SLAB_00
10
1.456
20
-45.998
30
0.0
0
VERTEX
8
SLAB_00
10
1.873
20
-49.523
30
0.0
0
VERTEX
8
SLAB_00
10
2.371
20
-53.121
30
0.0
0
VERTEX
8
SLAB_00
10
2.959
20
-56.792
30
0.0
0
VERTEX
8
SLAB_00
10
3.646
20
-60.535
30
0.0
0
VERTEX
8
SLAB_00
10
4.441
20
-64.348
30
0.0
0
VERTEX
8
SLAB_00
10
5.352
20
-68.228
30
0.0
0
VERTEX
8
SLAB_00
10
6.390
20
-72.172
30
0.0
0
VERTEX
8
SLAB_00
10
7.564
20
-76.177
30
0.0
0
VERTEX
8
SLAB_00
10
8.881
20
-80.237
30
0.0
0
VERTEX
8
SLAB_00
10
10.352
20
-84.347
30
0.0
0
VERTEX
8
SLAB_00
10
11.984
20
-88.499
30
0.0
0
VERTEX
8
SLAB_00
10
13.785
20
-92.688
30
0.0
0
VERTEX
8
SLAB_00
10
15.764
20
-96.905
30
0.0
0
VERTEX
8
SLAB_00
10
17.927
20
-101.141
30
0.0
0
VERTEX
8
SLAB_00
10
20.282
20
-105.387
30
0.0
0
VERTEX
8
SLAB_00
10
22.834
20
-109.633
30
0.0
0
VERTEX
8
SLAB_00
10
25.590
20
-113.868
30
0.0
0
VERTEX
8
SLAB_00
10
28.554
20
-118.082
30
0.0
0
VERTEX
8
SLAB_00
10
31.730
20
-122.262
30
0.0
0
VERTEX
8
SLAB_00
10
35.123
20
-126.395
30
0.0
0
VERTEX
8
SLAB_00
10
38.735
20
-130.470
30
0.0
0
VERTEX
8
SLAB_00
10
42.567
20
-134.473
30
0.0
0
VERTEX
8
SLAB_00
10
46.622
20
-138.391
30
0.0
0
VERTEX
8
SLAB_00
10
50.899
20
-142.210
30
0.0
0
VERTEX
8
SLAB_00
10
55.398
20
-145.916
30
0.0
0
VERTEX
8
SLAB_00
10
60.117
20
-149.494
30
0.0
0
VERTEX
8
SLAB_00
10
65.053
20
-152.932
30
0.0
0
VERTEX
8
SLAB_00
10
70.204
20
-156.213
30
0.0
0
VERTEX
8
SLAB_00
10
75.563
20
-159.326
30
0.0
0
VERTEX
8
SLAB_00
10
81.127
20
-162.254
30
0.0
0
VERTEX
8
SLAB_00
10
86.888
20
-164.985
30
0.0
0
VERTEX
8
SLAB_00
10
92.840
20
-167.504
30
0.0
0
VERTEX
8
SLAB_00
10
98.974
20
-169.799
30
0.0
0
VERTEX
8
SLAB_00
10
105.280
20
-171.856
30
0.0
0
VERTEX
8
SLAB_00
10
111.748
20
-173.663
30
0.0
0
VERTEX
8
SLAB_00
10
118.368
20
-175.207
30
0.0
0
VERTEX
8
SLAB_00
10
125.128
20
-176.478
30
0.0
0
VERTEX
8
SLAB_00
10
132.014
20
-177.464
30
0.0
0
VERTEX
8
SLAB_00
10
139.013
20
-178.155
30
0.0
0
VERTEX
8
SLAB_00
10
146.111
20
-178.543
30
0.0
0
VERTEX
8
SLAB_00
10
153.293
20
-178.617
30
0.0
0
VERTEX
8
SLAB_00
10
160.543
20
-178.371
30
0.0
0
VERTEX
8
SLAB_00
10
167.845
20
-177.797
30
0.0
0
VERTEX
8
SLAB_00
10
175.181
20
-176.890
30
0.0
0
VERTEX
8
SLAB_00
10
182.536
20
-175.645
30
0.0
0
VERTEX
8
SLAB_00
10
189.890
20
-174.057
30
0.0
0
VERTEX
8
SLAB_00
10
197.226
20
-172.125
30
0.0
0
VERTEX
8
SLAB_00
10
204.526
20
-169.844
30
0.0
0
VERTEX
8
SLAB_00
10
211.771
20
-167.217
30
0.0
0
VERTEX
8
SLAB_00
10
218.942
20
-164.241
30
0.0
0
VERTEX
8
SLAB_00
10
226.020
20
-160.920
30
0.0
0
VERTEX
8
SLAB_00
10
232.986
20
-157.255
30
0.0
0
VERTEX
8
SLAB_00
10
239.822
20
-153.250
30
0.0
0
VERTEX
8
SLAB_00
10
246.509
20
-148.910
30
0.0
0
VERTEX
8
SLAB_00
10
253.028
20
-144.242
30
0.0
0
VERTEX
8
SLAB_00
10
259.362
20
-139.252
30
0.0
0
VERTEX
8
SLAB_00
10
265.492
20
-133.949
30
0.0
0
VERTEX
8
SLAB_00
10
271.401
20
-128.341
30
0.0
0
VERTEX
8
SLAB_00
10
277.072
20
-122.440
30
0.0
0
VERTEX
8
SLAB_00
10
282.488
20
-116.256
30
0.0
0
VERTEX
8
SLAB_00
10
287.635
20
-109.802
30
0.0
0
VERTEX
8
SLAB_00
10
292.497
20
-103.092
30
0.0
0
VERTEX
8
SLAB_00
10
297.059
20
-96.139
30
0.0
0
VERTEX
8
SLAB_00
10
301.309
20
-88.959
30
0.0
0
VERTEX
8
SLAB_00
10
305.233
20
-81.568
30
0.0
0
VERTEX
8
SLAB_00
10
308.820
20
-73.982
30
0.0
0
VERTEX
8
SLAB_00
10
312.059
20
-66.219
30
0.0
0
VERTEX
8
SLAB_00
10
314.940
20
-58.296
30
0.0
0
VERTEX
8
SLAB_00
10
317.456
20
-50.233
30
0.0
0
VERTEX
8
SLAB_00
10
319.597
20
-42.049
30
0.0
0
VERTEX
8
SLAB_00
10
321.358
20
-33.762
30
0.0
0
VERTEX
8
SLAB_00
10
322.733
20
-25.394
30
0.0
0
VERTEX
8
SLAB_00
10
323.718
20
-16.964
30
0.0
0
VERTEX
8
SLAB_00
10
324.310
20
-8.492
30
0.0
0
SEQEND
8
SLAB_00
0
TEXT
8
TEXT
10
0.000
20
193.617
30
0.0
40
8.0
1
22: s'=+452 D=357
0
CIRCLE
8
DOWEL
10
15.000
20
18.000
30
0.0
40
3.250
0
TEXT
8
DOWEL
10
20.000
20
16.000
30
0.0
40
3.0
1
A
0
CIRCLE
8
DOWEL
10
15.000
20
-18.000
30
0.0
40
3.250
0
TEXT
8
DOWEL
10
20.000
20
-20.000
30
0.0
40
3.0
1
B
0
CIRCLE
8
DOWEL
10
45.000
20
18.000
30
0.0
40
3.250
0
TEXT
8
DOWEL
10
50.000
20
16.000
30
0.0
40
3.0
1
C
0
CIRCLE
8
DOWEL
10
45.000
20
-18.000
30
0.0
40
3.250
0
TEXT
8
DOWEL
10
50.000
20
-20.000
30
0.0
40
3.0
1
D
0
ENDSEC
0
EOF