0
SECTION
2
HEADER
9
$ACADVER
1
AC1009
9
$INSUNITS
70
4
0
ENDSEC
0
SECTION
2
TABLES
0
TABLE
2
LAYER
70
4
0
LAYER
2
0
70
0
62
7
6
CONTINUOUS
0
LAYER
2
TEXT
70
0
62
1
6
CONTINUOUS
0
LAYER
2
DOWEL
70
0
62
5
6
CONTINUOUS
0
LAYER
2
SLAB_00
70
0
62
2
6
CONTINUOUS
0
ENDTAB
0
ENDSEC
0
SECTION
2
ENTITIES
0
POLYLINE
8
SLAB_00
66
1
70
1
10
0.0
20
0.0
30
0.0
0
VERTEX
8
SLAB_00
10
275.067
20
0.000
30
0.0
0
VERTEX
8
SLAB_00
10
274.900
20
7.198
30
0.0
0
VERTEX
8
SLAB_00
10
274.397
20
14.379
30
0.0
0
VERTEX
8
SLAB_00
10
273.562
20
21.525
30
0.0
0
VERTEX
8
SLAB_00
10
272.397
20
28.618
30
0.0
0
VERTEX
8
SLAB_00
10
270.904
20
35.642
30
0.0
0
VERTEX
8
SLAB_00
10
269.089
20
42.580
30
0.0
0
VERTEX
8
SLAB_00
10
266.957
20
49.414
30
0.0
0
VERTEX
8
SLAB_00
10
264.515
20
56.130
30
0.0
0
VERTEX
8
SLAB_00
10
261.769
20
62.710
30
0.0
0
VERTEX
8
SLAB_00
10
258.729
20
69.140
30
0.0
0
VERTEX
8
SLAB_00
10
255.402
20
75.406
30
0.0
0
VERTEX
8
SLAB_00
10
251.800
20
81.492
30
0.0
0
VERTEX
8
SLAB_00
10
247.933
20
87.385
30
0.0
0
VERTEX
8
SLAB_00
10
243.812
20
93.073
30
0.0
0
VERTEX
8
SLAB_00
10
239.449
20
98.544
30
0.0
0
VERTEX
8
SLAB_00
10
234.858
20
103.785
30
0.0
0
VERTEX
8
SLAB_00
10
230.051
20
108.788
30
0.0
0
VERTEX
8
SLAB_00
10
225.042
20
113.541
30
0.0
0
VERTEX
8
SLAB_00
10
219.846
20
118.036
30
0.0
0
VERTEX
8
SLAB_00
10
214.478
20
122.266
30
0.0
0
VERTEX
8
SLAB_00
10
208.952
20
126.223
30
0.0
0
VERTEX
8
SLAB_00
10
203.283
20
129.901
30
0.0
0
VERTEX
8
SLAB_00
10
197.489
20
133.296
30
0.0
0
VERTEX
8
SLAB_00
10
191.584
20
136.402
30
0.0
0
VERTEX
8
SLAB_00
10
185.584
20
139.218
30
0.0
0
VERTEX
8
SLAB_00
10
179.506
20
141.740
30
0.0
0
VERTEX
8
SLAB_00
10
173.365
20
143.968
30
0.0
0
VERTEX
8
SLAB_00
10
167.178
20
145.900
30
0.0
0
VERTEX
8
SLAB_00
10
160.959
20
147.539
30
0.0
0
VERTEX
8
SLAB_00
10
154.725
20
148.884
30
0.0
0
VERTEX
8
SLAB_00
10
148.491
20
149.940
30
0.0
0
VERTEX
8
SLAB_00
10
142.272
20
150.709
30
0.0
0
VERTEX
8
SLAB_00
10
136.083
20
151.195
30
0.0
0
VERTEX
8
SLAB_00
10
129.938
20
151.404
30
0.0
0
VERTEX
8
SLAB_00
10
123.850
20
151.340
30
0.0
0
VERTEX
8
SLAB_00
10
117.834
20
151.012
30
0.0
0
VERTEX
8
SLAB_00
10
111.901
20
150.426
30
0.0
0
VERTEX
8
SLAB_00
10
106.064
20
149.590
30
0.0
0
VERTEX
8
SLAB_00
10
100.334
20
148.513
30
0.0
0
VERTEX
8
SLAB_00
10
94.723
20
147.204
30
0.0
0
VERTEX
8
SLAB_00
10
89.240
20
145.672
30
0.0
0
VERTEX
8
SLAB_00
10
83.894
20
143.929
30
0.0
0
VERTEX
8
SLAB_00
10
78.695
20
141.984
30
0.0
0
VERTEX
8
SLAB_00
10
73.650
20
139.848
30
0.0
0
VERTEX
8
SLAB_00
10
68.767
20
137.534
30
0.0
0
VERTEX
8
SLAB_00
10
64.051
20
135.051
30
0.0
0
VERTEX
8
SLAB_00
10
59.508
20
132.413
30
0.0
0
VERTEX
8
SLAB_00
10
55.142
20
129.631
30
0.0
0
VERTEX
8
SLAB_00
10
50.958
20
126.718
30
0.0
0
VERTEX
8
SLAB_00
10
46.958
20
123.684
30
0.0
0
VERTEX
8
SLAB_00
10
43.145
20
120.543
30
0.0
0
VERTEX
8
SLAB_00
10
39.519
20
117.306
30
0.0
0
VERTEX
8
SLAB_00
10
36.082
20
113.985
30
0.0
0
VERTEX
8
SLAB_00
10
32.833
20
110.592
30
0.0
0
VERTEX
8
SLAB_00
10
29.772
20
107.138
30
0.0
0
VERTEX
8
SLAB_00
10
26.896
20
103.634
30
0.0
0
VERTEX
8
SLAB_00
10
24.203
20
100.091
30
0.0
0
VERTEX
8
SLAB_00
10
21.691
20
96.520
30
0.0
0
VERTEX
8
SLAB_00
10
19.355
20
92.930
30
0.0
0
VERTEX
8
SLAB_00
10
17.192
20
89.331
30
0.0
0
VERTEX
8
SLAB_00
10
15.196
20
85.731
30
0.0
0
VERTEX
8
SLAB_00
10
13.362
20
82.141
30
0.0
0
VERTEX
8
SLAB_00
10
11.685
20
78.566
30
0.0
0
VERTEX
8
SLAB_00
10
10.158
20
75.016
30
0.0
0
VERTEX
8
SLAB_00
10
8.775
20
71.496
30
0.0
0
VERTEX
8
SLAB_00
10
7.528
20
68.012
30
0.0
0
VERTEX
8
SLAB_00
10
6.411
20
64.571
30
0.0
0
VERTEX
8
SLAB_00
10
5.417
20
61.176
30
0.0
0
VERTEX
8
SLAB_00
10
4.537
20
57.833
30
0.0
0
VERTEX
8
SLAB_00
10
3.764
20
54.544
30
0.0
0
VERTEX
8
SLAB_00
10
3.090
20
51.312
30
0.0
0
VERTEX
8
SLAB_00
10
2.508
20
48.140
30
0.0
0
VERTEX
8
SLAB_00
10
2.010
20
45.028
30
0.0
0
VERTEX
8
SLAB_00
10
1.588
20
41.978
30
0.0
0
VERTEX
8
SLAB_00
10
1.234
20
38.990
30
0.0
0
VERTEX
8
SLAB_00
10
0.942
20
36.063
30
0.0
0
VERTEX
8
SLAB_00
10
0.704
20
33.196
30
0.0
0
VERTEX
8
SLAB_00
10
0.514
20
30.388
30
0.0
0
VERTEX
8
SLAB_00
10
0.365
20
27.636
30
0.0
0
VERTEX
8
SLAB_00
10
0.250
20
24.938
30
0.0
0
VERTEX
8
SLAB_00
10
0.165
20
22.290
30
0.0
0
VERTEX
8
SLAB_00
10
0.103
20
19.689
30
0.0
0
VERTEX
8
SLAB_00
10
0.061
20
17.130
30
0.0
0
VERTEX
8
SLAB_00
10
0.033
20
14.610
30
0.0
0
VERTEX
8
SLAB_00
10
0.016
20
12.123
30
0.0
0
VERTEX
8
SLAB_00
10
0.007
20
9.664
30
0.0
0
VERTEX
8
SLAB_00
10
0.002
20
7.227
30
0.0
0
VERTEX
8
SLAB_00
10
0.000
20
4.809
30
0.0
0
VERTEX
8
SLAB_00
10
0.000
20
2.401
30
0.0
0
VERTEX
8
SLAB_00
10
0.000
20
0.000
30
0.0
0
VERTEX
8
SLAB_00
10
0.000
20
-2.401
30
0.0
0
VERTEX
8
SLAB_00
10
0.000
20
-4.809
30
0.0
0
VERTEX
8
SLAB_00
10
0.002
20
-7.227
30
0.0
0
VERTEX
8
SLAB_00
10
0.007
20
-9.664
30
0.0
0
VERTEX
8
SLAB_00
10
0.016
20
-12.123
30
0.0
0
VERTEX
8
SLAB_00
10
0.033
20
-14.610
30
0.0
0
VERTEX
8
SLAB_00
10
0.061
20
-17.130
30
0.0
0
VERTEX
8
SLAB_00
10
0.103
20
-19.689
30
0.0
0
VERTEX
8
SLAB_00
10
0.165
20
-22.290
30
0.0
0
VERTEX
8
SLAB_00
10
0.250
20
-24.938
30
0.0
0
VERTEX
8
SLAB_00
10
0.365
20
-27.636
30
0.0
0
VERTEX
8
SLAB_00
10
0.514
20
-30.388
30
0.0
0
VERTEX
8
SLAB_00
10
0.704
20
-33.196
30
0.0
0
VERTEX
8
SLAB_00
10
0.942
20
-36.063
30
0.0
0
VERTEX
8
SLAB_00
10
1.234
20
-38.990
30
0.0
0
VERTEX
8
SLAB_00
10
1.588
20
-41.978
30
0.0
0
VERTEX
8
SLAB_00
10
2.010
20
-45.028
30
0.0
0
VERTEX
8
SLAB_00
10
2.508
20
-48.140
30
0.0
0
VERTEX
8
SLAB_00
10
3.090
20
-51.312
30
0.0
0
VERTEX
8
SLAB_00
10
3.764
20
-54.544
30
0.0
0
VERTEX
8
SLAB_00
10
4.537
20
-57.833
30
0.0
0
VERTEX
8
SLAB_00
10
5.417
20
-61.176
30
0.0
0
VERTEX
8
SLAB_00
10
6.411
20
-64.571
30
0.0
0
VERTEX
8
SLAB_00
10
7.528
20
-68.012
30
0.0
0
VERTEX
8
SLAB_00
10
8.775
20
-71.496
30
0.0
0
VERTEX
8
SLAB_00
10
10.158
20
-75.016
30
0.0
0
VERTEX
8
SLAB_00
10
11.685
20
-78.566
30
0.0
0
VERTEX
8
SLAB_00
10
13.362
20
-82.141
30
0.0
0
VERTEX
8
SLAB_00
10
15.196
20
-85.731
30
0.0
0
VERTEX
8
SLAB_00
10
17.192
20
-89.331
30
0.0
0
VERTEX
8
SLAB_00
10
19.355
20
-92.930
30
0.0
0
VERTEX
8
SLAB_00
10
21.691
20
-96.520
30
0.0
0
VERTEX
8
SLAB_00
10
24.203
20
-100.091
30
0.0
0
VERTEX
8
SLAB_00
10
26.896
20
-103.634
30
0.0
0
VERTEX
8
SLAB_00
10
29.772
20
-107.138
30
0.0
0
VERTEX
8
SLAB_00
10
32.833
20
-110.592
30
0.0
0
VERTEX
8
SLAB_00
10
36.082
20
-113.985
30
0.0
0
VERTEX
8
SLAB_00
10
39.519
20
-117.306
30
0.0
0
VERTEX
8
SLAB_00
10
43.145
20
-120.543
30
0.0
0
VERTEX
8
SLAB_00
10
46.958
20
-123.684
30
0.0
0
VERTEX
8
SLAB_00
10
50.958
20
-126.718
30
0.0
0
VERTEX
8
SLAB_00
10
55.142
20
-129.631
30
0.0
0
VERTEX
8
SLAB_00
10
59.508
20
-132.413
30
0.0
0
VERTEX
8
SLAB_00
10
64.051
20
-135.051
30
0.0
0
VERTEX
8
SLAB_00
10
68.767
20
-137.534
30
0.0
0
VERTEX
8
SLAB_00
10
73.650
20
-139.848
30
0.0
0
VERTEX
8
SLAB_00
10
78.695
20
-141.984
30
0.0
0
VERTEX
8
SLAB_00
10
83.894
20
-143.929
30
0.0
0
VERTEX
8
SLAB_00
10
89.240
20
-145.672
30
0.0
0
VERTEX
8
SLAB_00
10
94.723
20
-147.204
30
0.0
0
VERTEX
8
SLAB_00
10
100.334
20
-148.513
30
0.0
0
VERTEX
8
SLAB_00
10
106.064
20
-149.590
30
0.0
0
VERTEX
8
SLAB_00
10
111.901
20
-150.426
30
0.0
0
VERTEX
8
SLAB_00
10
117.834
20
-151.012
30
0.0
0
VERTEX
8
SLAB_00
10
123.850
20
-151.340
30
0.0
0
VERTEX
8
SLAB_00
10
129.938
20
-151.404
30
0.0
0
VERTEX
8
SLAB_00
10
136.083
20
-151.195
30
0.0
0
VERTEX
8
SLAB_00
10
142.272
20
-150.709
30
0.0
0
VERTEX
8
SLAB_00
10
148.491
20
-149.940
30
0.0
0
VERTEX
8
SLAB_00
10
154.725
20
-148.884
30
0.0
0
VERTEX
8
SLAB_00
10
160.959
20
-147.539
30
0.0
0
VERTEX
8
SLAB_00
10
167.178
20
-145.900
30
0.0
0
VERTEX
8
SLAB_00
10
173.365
20
-143.968
30
0.0
0
VERTEX
8
SLAB_00
10
179.506
20
-141.740
30
0.0
0
VERTEX
8
SLAB_00
10
185.584
20
-139.218
30
0.0
0
VERTEX
8
SLAB_00
10
191.584
20
-136.402
30
0.0
0
VERTEX
8
SLAB_00
10
197.489
20
-133.296
30
0.0
0
VERTEX
8
SLAB_00
10
203.283
20
-129.901
30
0.0
0
VERTEX
8
SLAB_00
10
208.952
20
-126.223
30
0.0
0
VERTEX
8
SLAB_00
10
214.478
20
-122.266
30
0.0
0
VERTEX
8
SLAB_00
10
219.846
20
-118.036
30
0.0
0
VERTEX
8
SLAB_00
10
225.042
20
-113.541
30
0.0
0
VERTEX
8
SLAB_00
10
230.051
20
-108.788
30
0.0
0
VERTEX
8
SLAB_00
10
234.858
20
-103.785
30
0.0
0
VERTEX
8
SLAB_00
10
239.449
20
-98.544
30
0.0
0
VERTEX
8
SLAB_00
10
243.812
20
-93.073
30
0.0
0
VERTEX
8
SLAB_00
10
247.933
20
-87.385
30
0.0
0
VERTEX
8
SLAB_00
10
251.800
20
-81.492
30
0.0
0
VERTEX
8
SLAB_00
10
255.402
20
-75.406
30
0.0
0
VERTEX
8
SLAB_00
10
258.729
20
-69.140
30
0.0
0
VERTEX
8
SLAB_00
10
261.769
20
-62.710
30
0.0
0
VERTEX
8
SLAB_00
10
264.515
20
-56.130
30
0.0
0
VERTEX
8
SLAB_00
10
266.957
20
-49.414
30
0.0
0
VERTEX
8
SLAB_00
10
269.089
20
-42.580
30
0.0
0
VERTEX
8
SLAB_00
10
270.904
20
-35.642
30
0.0
0
VERTEX
8
SLAB_00
10
272.397
20
-28.618
30
0.0
0
VERTEX
8
SLAB_00
10
273.562
20
-21.525
30
0.0
0
VERTEX
8
SLAB_00
10
274.397
20
-14.379
30
0.0
0
VERTEX
8
SLAB_00
10
274.900
20
-7.198
30
0.0
0
SEQEND
8
SLAB_00
0
TEXT
8
TEXT
10
0.000
20
166.404
30
0.0
40
8.0
1
41: s'=+909 D=303
0
CIRCLE
8
DOWEL
10
15.000
20
18.000
30
0.0
40
3.250
0
TEXT
8
DOWEL
10
20.000
20
16.000
30
0.0
40
3.0
1
A
0
CIRCLE
8
DOWEL
10
15.000
20
-18.000
30
0.0
40
3.250
0
TEXT
8
DOWEL
10
20.000
20
-20.000
30
0.0
40
3.0
1
B
0
CIRCLE
8
DOWEL
10
45.000
20
18.000
30
0.0
40
3.250
0
TEXT
8
DOWEL
10
50.000
20
16.000
30
0.0
40
3.0
1
C
0
CIRCLE
8
DOWEL
10
45.000
20
-18.000
30
0.0
40
3.250
0
TEXT
8
DOWEL
10
50.000
20
-20.000
30
0.0
40
3.0
1
D
0
ENDSEC
0
EOF