0
SECTION
2
HEADER
9
$ACADVER
1
AC1009
9
$INSUNITS
70
4
0
ENDSEC
0
SECTION
2
TABLES
0
TABLE
2
LAYER
70
4
0
LAYER
2
0
70
0
62
7
6
CONTINUOUS
0
LAYER
2
TEXT
70
0
62
1
6
CONTINUOUS
0
LAYER
2
DOWEL
70
0
62
5
6
CONTINUOUS
0
LAYER
2
SLAB_00
70
0
62
2
6
CONTINUOUS
0
ENDTAB
0
ENDSEC
0
SECTION
2
ENTITIES
0
POLYLINE
8
SLAB_00
66
1
70
1
10
0.0
20
0.0
30
0.0
0
VERTEX
8
SLAB_00
10
214.857
20
0.000
30
0.0
0
VERTEX
8
SLAB_00
10
214.726
20
5.623
30
0.0
0
VERTEX
8
SLAB_00
10
214.334
20
11.232
30
0.0
0
VERTEX
8
SLAB_00
10
213.682
20
16.813
30
0.0
0
VERTEX
8
SLAB_00
10
212.771
20
22.354
30
0.0
0
VERTEX
8
SLAB_00
10
211.606
20
27.840
30
0.0
0
VERTEX
8
SLAB_00
10
210.188
20
33.259
30
0.0
0
VERTEX
8
SLAB_00
10
208.523
20
38.598
30
0.0
0
VERTEX
8
SLAB_00
10
206.615
20
43.843
30
0.0
0
VERTEX
8
SLAB_00
10
204.470
20
48.984
30
0.0
0
VERTEX
8
SLAB_00
10
202.095
20
54.006
30
0.0
0
VERTEX
8
SLAB_00
10
199.497
20
58.900
30
0.0
0
VERTEX
8
SLAB_00
10
196.683
20
63.654
30
0.0
0
VERTEX
8
SLAB_00
10
193.663
20
68.257
30
0.0
0
VERTEX
8
SLAB_00
10
190.444
20
72.700
30
0.0
0
VERTEX
8
SLAB_00
10
187.036
20
76.973
30
0.0
0
VERTEX
8
SLAB_00
10
183.450
20
81.068
30
0.0
0
VERTEX
8
SLAB_00
10
179.695
20
84.975
30
0.0
0
VERTEX
8
SLAB_00
10
175.782
20
88.688
30
0.0
0
VERTEX
8
SLAB_00
10
171.724
20
92.199
30
0.0
0
VERTEX
8
SLAB_00
10
167.530
20
95.503
30
0.0
0
VERTEX
8
SLAB_00
10
163.214
20
98.594
30
0.0
0
VERTEX
8
SLAB_00
10
158.786
20
101.467
30
0.0
0
VERTEX
8
SLAB_00
10
154.260
20
104.119
30
0.0
0
VERTEX
8
SLAB_00
10
149.648
20
106.545
30
0.0
0
VERTEX
8
SLAB_00
10
144.962
20
108.744
30
0.0
0
VERTEX
8
SLAB_00
10
140.214
20
110.714
30
0.0
0
VERTEX
8
SLAB_00
10
135.417
20
112.454
30
0.0
0
VERTEX
8
SLAB_00
10
130.584
20
113.964
30
0.0
0
VERTEX
8
SLAB_00
10
125.727
20
115.244
30
0.0
0
VERTEX
8
SLAB_00
10
120.857
20
116.295
30
0.0
0
VERTEX
8
SLAB_00
10
115.988
20
117.119
30
0.0
0
VERTEX
8
SLAB_00
10
111.130
20
117.720
30
0.0
0
VERTEX
8
SLAB_00
10
106.296
20
118.100
30
0.0
0
VERTEX
8
SLAB_00
10
101.496
20
118.263
30
0.0
0
VERTEX
8
SLAB_00
10
96.740
20
118.213
30
0.0
0
VERTEX
8
SLAB_00
10
92.041
20
117.957
30
0.0
0
VERTEX
8
SLAB_00
10
87.407
20
117.499
30
0.0
0
VERTEX
8
SLAB_00
10
82.847
20
116.846
30
0.0
0
VERTEX
8
SLAB_00
10
78.372
20
116.005
30
0.0
0
VERTEX
8
SLAB_00
10
73.989
20
114.982
30
0.0
0
VERTEX
8
SLAB_00
10
69.706
20
113.786
30
0.0
0
VERTEX
8
SLAB_00
10
65.531
20
112.424
30
0.0
0
VERTEX
8
SLAB_00
10
61.470
20
110.905
30
0.0
0
VERTEX
8
SLAB_00
10
57.529
20
109.237
30
0.0
0
VERTEX
8
SLAB_00
10
53.714
20
107.429
30
0.0
0
VERTEX
8
SLAB_00
10
50.031
20
105.490
30
0.0
0
VERTEX
8
SLAB_00
10
46.482
20
103.429
30
0.0
0
VERTEX
8
SLAB_00
10
43.072
20
101.256
30
0.0
0
VERTEX
8
SLAB_00
10
39.804
20
98.980
30
0.0
0
VERTEX
8
SLAB_00
10
36.679
20
96.611
30
0.0
0
VERTEX
8
SLAB_00
10
33.701
20
94.157
30
0.0
0
VERTEX
8
SLAB_00
10
30.869
20
91.629
30
0.0
0
VERTEX
8
SLAB_00
10
28.184
20
89.035
30
0.0
0
VERTEX
8
SLAB_00
10
25.646
20
86.384
30
0.0
0
VERTEX
8
SLAB_00
10
23.255
20
83.686
30
0.0
0
VERTEX
8
SLAB_00
10
21.009
20
80.950
30
0.0
0
VERTEX
8
SLAB_00
10
18.905
20
78.182
30
0.0
0
VERTEX
8
SLAB_00
10
16.943
20
75.392
30
0.0
0
VERTEX
8
SLAB_00
10
15.118
20
72.588
30
0.0
0
VERTEX
8
SLAB_00
10
13.429
20
69.777
30
0.0
0
VERTEX
8
SLAB_00
10
11.870
20
66.966
30
0.0
0
VERTEX
8
SLAB_00
10
10.437
20
64.161
30
0.0
0
VERTEX
8
SLAB_00
10
9.127
20
61.369
30
0.0
0
VERTEX
8
SLAB_00
10
7.934
20
58.596
30
0.0
0
VERTEX
8
SLAB_00
10
6.854
20
55.846
30
0.0
0
VERTEX
8
SLAB_00
10
5.880
20
53.125
30
0.0
0
VERTEX
8
SLAB_00
10
5.008
20
50.437
30
0.0
0
VERTEX
8
SLAB_00
10
4.231
20
47.785
30
0.0
0
VERTEX
8
SLAB_00
10
3.544
20
45.174
30
0.0
0
VERTEX
8
SLAB_00
10
2.940
20
42.605
30
0.0
0
VERTEX
8
SLAB_00
10
2.414
20
40.080
30
0.0
0
VERTEX
8
SLAB_00
10
1.959
20
37.602
30
0.0
0
VERTEX
8
SLAB_00
10
1.570
20
35.172
30
0.0
0
VERTEX
8
SLAB_00
10
1.240
20
32.789
30
0.0
0
VERTEX
8
SLAB_00
10
0.964
20
30.455
30
0.0
0
VERTEX
8
SLAB_00
10
0.736
20
28.169
30
0.0
0
VERTEX
8
SLAB_00
10
0.550
20
25.930
30
0.0
0
VERTEX
8
SLAB_00
10
0.401
20
23.736
30
0.0
0
VERTEX
8
SLAB_00
10
0.285
20
21.587
30
0.0
0
VERTEX
8
SLAB_00
10
0.195
20
19.479
30
0.0
0
VERTEX
8
SLAB_00
10
0.129
20
17.411
30
0.0
0
VERTEX
8
SLAB_00
10
0.081
20
15.379
30
0.0
0
VERTEX
8
SLAB_00
10
0.047
20
13.381
30
0.0
0
VERTEX
8
SLAB_00
10
0.026
20
11.412
30
0.0
0
VERTEX
8
SLAB_00
10
0.012
20
9.469
30
0.0
0
VERTEX
8
SLAB_00
10
0.005
20
7.548
30
0.0
0
VERTEX
8
SLAB_00
10
0.002
20
5.645
30
0.0
0
VERTEX
8
SLAB_00
10
0.000
20
3.756
30
0.0
0
VERTEX
8
SLAB_00
10
0.000
20
1.876
30
0.0
0
VERTEX
8
SLAB_00
10
0.000
20
0.000
30
0.0
0
VERTEX
8
SLAB_00
10
0.000
20
-1.876
30
0.0
0
VERTEX
8
SLAB_00
10
0.000
20
-3.756
30
0.0
0
VERTEX
8
SLAB_00
10
0.002
20
-5.645
30
0.0
0
VERTEX
8
SLAB_00
10
0.005
20
-7.548
30
0.0
0
VERTEX
8
SLAB_00
10
0.012
20
-9.469
30
0.0
0
VERTEX
8
SLAB_00
10
0.026
20
-11.412
30
0.0
0
VERTEX
8
SLAB_00
10
0.047
20
-13.381
30
0.0
0
VERTEX
8
SLAB_00
10
0.081
20
-15.379
30
0.0
0
VERTEX
8
SLAB_00
10
0.129
20
-17.411
30
0.0
0
VERTEX
8
SLAB_00
10
0.195
20
-19.479
30
0.0
0
VERTEX
8
SLAB_00
10
0.285
20
-21.587
30
0.0
0
VERTEX
8
SLAB_00
10
0.401
20
-23.736
30
0.0
0
VERTEX
8
SLAB_00
10
0.550
20
-25.930
30
0.0
0
VERTEX
8
SLAB_00
10
0.736
20
-28.169
30
0.0
0
VERTEX
8
SLAB_00
10
0.964
20
-30.455
30
0.0
0
VERTEX
8
SLAB_00
10
1.240
20
-32.789
30
0.0
0
VERTEX
8
SLAB_00
10
1.570
20
-35.172
30
0.0
0
VERTEX
8
SLAB_00
10
1.959
20
-37.602
30
0.0
0
VERTEX
8
SLAB_00
10
2.414
20
-40.080
30
0.0
0
VERTEX
8
SLAB_00
10
2.940
20
-42.605
30
0.0
0
VERTEX
8
SLAB_00
10
3.544
20
-45.174
30
0.0
0
VERTEX
8
SLAB_00
10
4.231
20
-47.785
30
0.0
0
VERTEX
8
SLAB_00
10
5.008
20
-50.437
30
0.0
0
VERTEX
8
SLAB_00
10
5.880
20
-53.125
30
0.0
0
VERTEX
8
SLAB_00
10
6.854
20
-55.846
30
0.0
0
VERTEX
8
SLAB_00
10
7.934
20
-58.596
30
0.0
0
VERTEX
8
SLAB_00
10
9.127
20
-61.369
30
0.0
0
VERTEX
8
SLAB_00
10
10.437
20
-64.161
30
0.0
0
VERTEX
8
SLAB_00
10
11.870
20
-66.966
30
0.0
0
VERTEX
8
SLAB_00
10
13.429
20
-69.777
30
0.0
0
VERTEX
8
SLAB_00
10
15.118
20
-72.588
30
0.0
0
VERTEX
8
SLAB_00
10
16.943
20
-75.392
30
0.0
0
VERTEX
8
SLAB_00
10
18.905
20
-78.182
30
0.0
0
VERTEX
8
SLAB_00
10
21.009
20
-80.950
30
0.0
0
VERTEX
8
SLAB_00
10
23.255
20
-83.686
30
0.0
0
VERTEX
8
SLAB_00
10
25.646
20
-86.384
30
0.0
0
VERTEX
8
SLAB_00
10
28.184
20
-89.035
30
0.0
0
VERTEX
8
SLAB_00
10
30.869
20
-91.629
30
0.0
0
VERTEX
8
SLAB_00
10
33.701
20
-94.157
30
0.0
0
VERTEX
8
SLAB_00
10
36.679
20
-96.611
30
0.0
0
VERTEX
8
SLAB_00
10
39.804
20
-98.980
30
0.0
0
VERTEX
8
SLAB_00
10
43.072
20
-101.256
30
0.0
0
VERTEX
8
SLAB_00
10
46.482
20
-103.429
30
0.0
0
VERTEX
8
SLAB_00
10
50.031
20
-105.490
30
0.0
0
VERTEX
8
SLAB_00
10
53.714
20
-107.429
30
0.0
0
VERTEX
8
SLAB_00
10
57.529
20
-109.237
30
0.0
0
VERTEX
8
SLAB_00
10
61.470
20
-110.905
30
0.0
0
VERTEX
8
SLAB_00
10
65.531
20
-112.424
30
0.0
0
VERTEX
8
SLAB_00
10
69.706
20
-113.786
30
0.0
0
VERTEX
8
SLAB_00
10
73.989
20
-114.982
30
0.0
0
VERTEX
8
SLAB_00
10
78.372
20
-116.005
30
0.0
0
VERTEX
8
SLAB_00
10
82.847
20
-116.846
30
0.0
0
VERTEX
8
SLAB_00
10
87.407
20
-117.499
30
0.0
0
VERTEX
8
SLAB_00
10
92.041
20
-117.957
30
0.0
0
VERTEX
8
SLAB_00
10
96.740
20
-118.213
30
0.0
0
VERTEX
8
SLAB_00
10
101.496
20
-118.263
30
0.0
0
VERTEX
8
SLAB_00
10
106.296
20
-118.100
30
0.0
0
VERTEX
8
SLAB_00
10
111.130
20
-117.720
30
0.0
0
VERTEX
8
SLAB_00
10
115.988
20
-117.119
30
0.0
0
VERTEX
8
SLAB_00
10
120.857
20
-116.295
30
0.0
0
VERTEX
8
SLAB_00
10
125.727
20
-115.244
30
0.0
0
VERTEX
8
SLAB_00
10
130.584
20
-113.964
30
0.0
0
VERTEX
8
SLAB_00
10
135.417
20
-112.454
30
0.0
0
VERTEX
8
SLAB_00
10
140.214
20
-110.714
30
0.0
0
VERTEX
8
SLAB_00
10
144.962
20
-108.744
30
0.0
0
VERTEX
8
SLAB_00
10
149.648
20
-106.545
30
0.0
0
VERTEX
8
SLAB_00
10
154.260
20
-104.119
30
0.0
0
VERTEX
8
SLAB_00
10
158.786
20
-101.467
30
0.0
0
VERTEX
8
SLAB_00
10
163.214
20
-98.594
30
0.0
0
VERTEX
8
SLAB_00
10
167.530
20
-95.503
30
0.0
0
VERTEX
8
SLAB_00
10
171.724
20
-92.199
30
0.0
0
VERTEX
8
SLAB_00
10
175.782
20
-88.688
30
0.0
0
VERTEX
8
SLAB_00
10
179.695
20
-84.975
30
0.0
0
VERTEX
8
SLAB_00
10
183.450
20
-81.068
30
0.0
0
VERTEX
8
SLAB_00
10
187.036
20
-76.973
30
0.0
0
VERTEX
8
SLAB_00
10
190.444
20
-72.700
30
0.0
0
VERTEX
8
SLAB_00
10
193.663
20
-68.257
30
0.0
0
VERTEX
8
SLAB_00
10
196.683
20
-63.654
30
0.0
0
VERTEX
8
SLAB_00
10
199.497
20
-58.900
30
0.0
0
VERTEX
8
SLAB_00
10
202.095
20
-54.006
30
0.0
0
VERTEX
8
SLAB_00
10
204.470
20
-48.984
30
0.0
0
VERTEX
8
SLAB_00
10
206.615
20
-43.843
30
0.0
0
VERTEX
8
SLAB_00
10
208.523
20
-38.598
30
0.0
0
VERTEX
8
SLAB_00
10
210.188
20
-33.259
30
0.0
0
VERTEX
8
SLAB_00
10
211.606
20
-27.840
30
0.0
0
VERTEX
8
SLAB_00
10
212.771
20
-22.354
30
0.0
0
VERTEX
8
SLAB_00
10
213.682
20
-16.813
30
0.0
0
VERTEX
8
SLAB_00
10
214.334
20
-11.232
30
0.0
0
VERTEX
8
SLAB_00
10
214.726
20
-5.623
30
0.0
0
SEQEND
8
SLAB_00
0
TEXT
8
TEXT
10
0.000
20
133.263
30
0.0
40
8.0
1
49: s'=+1112 D=237
0
CIRCLE
8
DOWEL
10
15.000
20
18.000
30
0.0
40
3.250
0
TEXT
8
DOWEL
10
20.000
20
16.000
30
0.0
40
3.0
1
A
0
CIRCLE
8
DOWEL
10
15.000
20
-18.000
30
0.0
40
3.250
0
TEXT
8
DOWEL
10
20.000
20
-20.000
30
0.0
40
3.0
1
B
0
CIRCLE
8
DOWEL
10
45.000
20
18.000
30
0.0
40
3.250
0
TEXT
8
DOWEL
10
50.000
20
16.000
30
0.0
40
3.0
1
C
0
CIRCLE
8
DOWEL
10
45.000
20
-18.000
30
0.0
40
3.250
0
TEXT
8
DOWEL
10
50.000
20
-20.000
30
0.0
40
3.0
1
D
0
ENDSEC
0
EOF