0
SECTION
2
HEADER
9
$ACADVER
1
AC1009
9
$INSUNITS
70
4
0
ENDSEC
0
SECTION
2
TABLES
0
TABLE
2
LAYER
70
4
0
LAYER
2
0
70
0
62
7
6
CONTINUOUS
0
LAYER
2
TEXT
70
0
62
1
6
CONTINUOUS
0
LAYER
2
DOWEL
70
0
62
5
6
CONTINUOUS
0
LAYER
2
SLAB_00
70
0
62
2
6
CONTINUOUS
0
ENDTAB
0
ENDSEC
0
SECTION
2
ENTITIES
0
POLYLINE
8
SLAB_00
66
1
70
1
10
0.0
20
0.0
30
0.0
0
VERTEX
8
SLAB_00
10
246.896
20
0.000
30
0.0
0
VERTEX
8
SLAB_00
10
246.746
20
6.461
30
0.0
0
VERTEX
8
SLAB_00
10
246.295
20
12.906
30
0.0
0
VERTEX
8
SLAB_00
10
245.546
20
19.320
30
0.0
0
VERTEX
8
SLAB_00
10
244.499
20
25.687
30
0.0
0
VERTEX
8
SLAB_00
10
243.160
20
31.992
30
0.0
0
VERTEX
8
SLAB_00
10
241.531
20
38.219
30
0.0
0
VERTEX
8
SLAB_00
10
239.617
20
44.354
30
0.0
0
VERTEX
8
SLAB_00
10
237.425
20
50.381
30
0.0
0
VERTEX
8
SLAB_00
10
234.960
20
56.288
30
0.0
0
VERTEX
8
SLAB_00
10
232.231
20
62.059
30
0.0
0
VERTEX
8
SLAB_00
10
229.246
20
67.683
30
0.0
0
VERTEX
8
SLAB_00
10
226.012
20
73.146
30
0.0
0
VERTEX
8
SLAB_00
10
222.541
20
78.436
30
0.0
0
VERTEX
8
SLAB_00
10
218.842
20
83.541
30
0.0
0
VERTEX
8
SLAB_00
10
214.926
20
88.451
30
0.0
0
VERTEX
8
SLAB_00
10
210.805
20
93.156
30
0.0
0
VERTEX
8
SLAB_00
10
206.490
20
97.646
30
0.0
0
VERTEX
8
SLAB_00
10
201.995
20
101.913
30
0.0
0
VERTEX
8
SLAB_00
10
197.331
20
105.948
30
0.0
0
VERTEX
8
SLAB_00
10
192.512
20
109.744
30
0.0
0
VERTEX
8
SLAB_00
10
187.552
20
113.296
30
0.0
0
VERTEX
8
SLAB_00
10
182.464
20
116.598
30
0.0
0
VERTEX
8
SLAB_00
10
177.263
20
119.644
30
0.0
0
VERTEX
8
SLAB_00
10
171.963
20
122.433
30
0.0
0
VERTEX
8
SLAB_00
10
166.578
20
124.960
30
0.0
0
VERTEX
8
SLAB_00
10
161.122
20
127.224
30
0.0
0
VERTEX
8
SLAB_00
10
155.610
20
129.223
30
0.0
0
VERTEX
8
SLAB_00
10
150.056
20
130.958
30
0.0
0
VERTEX
8
SLAB_00
10
144.475
20
132.429
30
0.0
0
VERTEX
8
SLAB_00
10
138.879
20
133.637
30
0.0
0
VERTEX
8
SLAB_00
10
133.284
20
134.584
30
0.0
0
VERTEX
8
SLAB_00
10
127.702
20
135.274
30
0.0
0
VERTEX
8
SLAB_00
10
122.146
20
135.710
30
0.0
0
VERTEX
8
SLAB_00
10
116.630
20
135.898
30
0.0
0
VERTEX
8
SLAB_00
10
111.166
20
135.841
30
0.0
0
VERTEX
8
SLAB_00
10
105.766
20
135.546
30
0.0
0
VERTEX
8
SLAB_00
10
100.441
20
135.020
30
0.0
0
VERTEX
8
SLAB_00
10
95.201
20
134.270
30
0.0
0
VERTEX
8
SLAB_00
10
90.059
20
133.303
30
0.0
0
VERTEX
8
SLAB_00
10
85.022
20
132.128
30
0.0
0
VERTEX
8
SLAB_00
10
80.100
20
130.754
30
0.0
0
VERTEX
8
SLAB_00
10
75.302
20
129.188
30
0.0
0
VERTEX
8
SLAB_00
10
70.636
20
127.443
30
0.0
0
VERTEX
8
SLAB_00
10
66.108
20
125.526
30
0.0
0
VERTEX
8
SLAB_00
10
61.724
20
123.448
30
0.0
0
VERTEX
8
SLAB_00
10
57.491
20
121.220
30
0.0
0
VERTEX
8
SLAB_00
10
53.413
20
118.852
30
0.0
0
VERTEX
8
SLAB_00
10
49.495
20
116.355
30
0.0
0
VERTEX
8
SLAB_00
10
45.739
20
113.740
30
0.0
0
VERTEX
8
SLAB_00
10
42.149
20
111.017
30
0.0
0
VERTEX
8
SLAB_00
10
38.726
20
108.198
30
0.0
0
VERTEX
8
SLAB_00
10
35.472
20
105.292
30
0.0
0
VERTEX
8
SLAB_00
10
32.387
20
102.312
30
0.0
0
VERTEX
8
SLAB_00
10
29.471
20
99.266
30
0.0
0
VERTEX
8
SLAB_00
10
26.723
20
96.166
30
0.0
0
VERTEX
8
SLAB_00
10
24.141
20
93.021
30
0.0
0
VERTEX
8
SLAB_00
10
21.724
20
89.841
30
0.0
0
VERTEX
8
SLAB_00
10
19.469
20
86.635
30
0.0
0
VERTEX
8
SLAB_00
10
17.373
20
83.412
30
0.0
0
VERTEX
8
SLAB_00
10
15.431
20
80.182
30
0.0
0
VERTEX
8
SLAB_00
10
13.640
20
76.951
30
0.0
0
VERTEX
8
SLAB_00
10
11.994
20
73.728
30
0.0
0
VERTEX
8
SLAB_00
10
10.488
20
70.520
30
0.0
0
VERTEX
8
SLAB_00
10
9.118
20
67.333
30
0.0
0
VERTEX
8
SLAB_00
10
7.876
20
64.174
30
0.0
0
VERTEX
8
SLAB_00
10
6.757
20
61.047
30
0.0
0
VERTEX
8
SLAB_00
10
5.755
20
57.958
30
0.0
0
VERTEX
8
SLAB_00
10
4.862
20
54.911
30
0.0
0
VERTEX
8
SLAB_00
10
4.072
20
51.910
30
0.0
0
VERTEX
8
SLAB_00
10
3.378
20
48.958
30
0.0
0
VERTEX
8
SLAB_00
10
2.774
20
46.057
30
0.0
0
VERTEX
8
SLAB_00
10
2.251
20
43.209
30
0.0
0
VERTEX
8
SLAB_00
10
1.804
20
40.417
30
0.0
0
VERTEX
8
SLAB_00
10
1.425
20
37.679
30
0.0
0
VERTEX
8
SLAB_00
10
1.108
20
34.997
30
0.0
0
VERTEX
8
SLAB_00
10
0.846
20
32.370
30
0.0
0
VERTEX
8
SLAB_00
10
0.632
20
29.796
30
0.0
0
VERTEX
8
SLAB_00
10
0.461
20
27.276
30
0.0
0
VERTEX
8
SLAB_00
10
0.327
20
24.806
30
0.0
0
VERTEX
8
SLAB_00
10
0.224
20
22.384
30
0.0
0
VERTEX
8
SLAB_00
10
0.148
20
20.007
30
0.0
0
VERTEX
8
SLAB_00
10
0.093
20
17.673
30
0.0
0
VERTEX
8
SLAB_00
10
0.054
20
15.376
30
0.0
0
VERTEX
8
SLAB_00
10
0.029
20
13.114
30
0.0
0
VERTEX
8
SLAB_00
10
0.014
20
10.881
30
0.0
0
VERTEX
8
SLAB_00
10
0.006
20
8.674
30
0.0
0
VERTEX
8
SLAB_00
10
0.002
20
6.487
30
0.0
0
VERTEX
8
SLAB_00
10
0.000
20
4.316
30
0.0
0
VERTEX
8
SLAB_00
10
0.000
20
2.155
30
0.0
0
VERTEX
8
SLAB_00
10
0.000
20
0.000
30
0.0
0
VERTEX
8
SLAB_00
10
0.000
20
-2.155
30
0.0
0
VERTEX
8
SLAB_00
10
0.000
20
-4.316
30
0.0
0
VERTEX
8
SLAB_00
10
0.002
20
-6.487
30
0.0
0
VERTEX
8
SLAB_00
10
0.006
20
-8.674
30
0.0
0
VERTEX
8
SLAB_00
10
0.014
20
-10.881
30
0.0
0
VERTEX
8
SLAB_00
10
0.029
20
-13.114
30
0.0
0
VERTEX
8
SLAB_00
10
0.054
20
-15.376
30
0.0
0
VERTEX
8
SLAB_00
10
0.093
20
-17.673
30
0.0
0
VERTEX
8
SLAB_00
10
0.148
20
-20.007
30
0.0
0
VERTEX
8
SLAB_00
10
0.224
20
-22.384
30
0.0
0
VERTEX
8
SLAB_00
10
0.327
20
-24.806
30
0.0
0
VERTEX
8
SLAB_00
10
0.461
20
-27.276
30
0.0
0
VERTEX
8
SLAB_00
10
0.632
20
-29.796
30
0.0
0
VERTEX
8
SLAB_00
10
0.846
20
-32.370
30
0.0
0
VERTEX
8
SLAB_00
10
1.108
20
-34.997
30
0.0
0
VERTEX
8
SLAB_00
10
1.425
20
-37.679
30
0.0
0
VERTEX
8
SLAB_00
10
1.804
20
-40.417
30
0.0
0
VERTEX
8
SLAB_00
10
2.251
20
-43.209
30
0.0
0
VERTEX
8
SLAB_00
10
2.774
20
-46.057
30
0.0
0
VERTEX
8
SLAB_00
10
3.378
20
-48.958
30
0.0
0
VERTEX
8
SLAB_00
10
4.072
20
-51.910
30
0.0
0
VERTEX
8
SLAB_00
10
4.862
20
-54.911
30
0.0
0
VERTEX
8
SLAB_00
10
5.755
20
-57.958
30
0.0
0
VERTEX
8
SLAB_00
10
6.757
20
-61.047
30
0.0
0
VERTEX
8
SLAB_00
10
7.876
20
-64.174
30
0.0
0
VERTEX
8
SLAB_00
10
9.118
20
-67.333
30
0.0
0
VERTEX
8
SLAB_00
10
10.488
20
-70.520
30
0.0
0
VERTEX
8
SLAB_00
10
11.994
20
-73.728
30
0.0
0
VERTEX
8
SLAB_00
10
13.640
20
-76.951
30
0.0
0
VERTEX
8
SLAB_00
10
15.431
20
-80.182
30
0.0
0
VERTEX
8
SLAB_00
10
17.373
20
-83.412
30
0.0
0
VERTEX
8
SLAB_00
10
19.469
20
-86.635
30
0.0
0
VERTEX
8
SLAB_00
10
21.724
20
-89.841
30
0.0
0
VERTEX
8
SLAB_00
10
24.141
20
-93.021
30
0.0
0
VERTEX
8
SLAB_00
10
26.723
20
-96.166
30
0.0
0
VERTEX
8
SLAB_00
10
29.471
20
-99.266
30
0.0
0
VERTEX
8
SLAB_00
10
32.387
20
-102.312
30
0.0
0
VERTEX
8
SLAB_00
10
35.472
20
-105.292
30
0.0
0
VERTEX
8
SLAB_00
10
38.726
20
-108.198
30
0.0
0
VERTEX
8
SLAB_00
10
42.149
20
-111.017
30
0.0
0
VERTEX
8
SLAB_00
10
45.739
20
-113.740
30
0.0
0
VERTEX
8
SLAB_00
10
49.495
20
-116.355
30
0.0
0
VERTEX
8
SLAB_00
10
53.413
20
-118.852
30
0.0
0
VERTEX
8
SLAB_00
10
57.491
20
-121.220
30
0.0
0
VERTEX
8
SLAB_00
10
61.724
20
-123.448
30
0.0
0
VERTEX
8
SLAB_00
10
66.108
20
-125.526
30
0.0
0
VERTEX
8
SLAB_00
10
70.636
20
-127.443
30
0.0
0
VERTEX
8
SLAB_00
10
75.302
20
-129.188
30
0.0
0
VERTEX
8
SLAB_00
10
80.100
20
-130.754
30
0.0
0
VERTEX
8
SLAB_00
10
85.022
20
-132.128
30
0.0
0
VERTEX
8
SLAB_00
10
90.059
20
-133.303
30
0.0
0
VERTEX
8
SLAB_00
10
95.201
20
-134.270
30
0.0
0
VERTEX
8
SLAB_00
10
100.441
20
-135.020
30
0.0
0
VERTEX
8
SLAB_00
10
105.766
20
-135.546
30
0.0
0
VERTEX
8
SLAB_00
10
111.166
20
-135.841
30
0.0
0
VERTEX
8
SLAB_00
10
116.630
20
-135.898
30
0.0
0
VERTEX
8
SLAB_00
10
122.146
20
-135.710
30
0.0
0
VERTEX
8
SLAB_00
10
127.702
20
-135.274
30
0.0
0
VERTEX
8
SLAB_00
10
133.284
20
-134.584
30
0.0
0
VERTEX
8
SLAB_00
10
138.879
20
-133.637
30
0.0
0
VERTEX
8
SLAB_00
10
144.475
20
-132.429
30
0.0
0
VERTEX
8
SLAB_00
10
150.056
20
-130.958
30
0.0
0
VERTEX
8
SLAB_00
10
155.610
20
-129.223
30
0.0
0
VERTEX
8
SLAB_00
10
161.122
20
-127.224
30
0.0
0
VERTEX
8
SLAB_00
10
166.578
20
-124.960
30
0.0
0
VERTEX
8
SLAB_00
10
171.963
20
-122.433
30
0.0
0
VERTEX
8
SLAB_00
10
177.263
20
-119.644
30
0.0
0
VERTEX
8
SLAB_00
10
182.464
20
-116.598
30
0.0
0
VERTEX
8
SLAB_00
10
187.552
20
-113.296
30
0.0
0
VERTEX
8
SLAB_00
10
192.512
20
-109.744
30
0.0
0
VERTEX
8
SLAB_00
10
197.331
20
-105.948
30
0.0
0
VERTEX
8
SLAB_00
10
201.995
20
-101.913
30
0.0
0
VERTEX
8
SLAB_00
10
206.490
20
-97.646
30
0.0
0
VERTEX
8
SLAB_00
10
210.805
20
-93.156
30
0.0
0
VERTEX
8
SLAB_00
10
214.926
20
-88.451
30
0.0
0
VERTEX
8
SLAB_00
10
218.842
20
-83.541
30
0.0
0
VERTEX
8
SLAB_00
10
222.541
20
-78.436
30
0.0
0
VERTEX
8
SLAB_00
10
226.012
20
-73.146
30
0.0
0
VERTEX
8
SLAB_00
10
229.246
20
-67.683
30
0.0
0
VERTEX
8
SLAB_00
10
232.231
20
-62.059
30
0.0
0
VERTEX
8
SLAB_00
10
234.960
20
-56.288
30
0.0
0
VERTEX
8
SLAB_00
10
237.425
20
-50.381
30
0.0
0
VERTEX
8
SLAB_00
10
239.617
20
-44.354
30
0.0
0
VERTEX
8
SLAB_00
10
241.531
20
-38.219
30
0.0
0
VERTEX
8
SLAB_00
10
243.160
20
-31.992
30
0.0
0
VERTEX
8
SLAB_00
10
244.499
20
-25.687
30
0.0
0
VERTEX
8
SLAB_00
10
245.546
20
-19.320
30
0.0
0
VERTEX
8
SLAB_00
10
246.295
20
-12.906
30
0.0
0
VERTEX
8
SLAB_00
10
246.746
20
-6.461
30
0.0
0
SEQEND
8
SLAB_00
0
TEXT
8
TEXT
10
0.000
20
150.898
30
0.0
40
8.0
1
45: s'=+1011 D=272
0
CIRCLE
8
DOWEL
10
15.000
20
18.000
30
0.0
40
3.250
0
TEXT
8
DOWEL
10
20.000
20
16.000
30
0.0
40
3.0
1
A
0
CIRCLE
8
DOWEL
10
15.000
20
-18.000
30
0.0
40
3.250
0
TEXT
8
DOWEL
10
20.000
20
-20.000
30
0.0
40
3.0
1
B
0
CIRCLE
8
DOWEL
10
45.000
20
18.000
30
0.0
40
3.250
0
TEXT
8
DOWEL
10
50.000
20
16.000
30
0.0
40
3.0
1
C
0
CIRCLE
8
DOWEL
10
45.000
20
-18.000
30
0.0
40
3.250
0
TEXT
8
DOWEL
10
50.000
20
-20.000
30
0.0
40
3.0
1
D
0
ENDSEC
0
EOF