0
SECTION
2
HEADER
9
$ACADVER
1
AC1009
9
$INSUNITS
70
4
0
ENDSEC
0
SECTION
2
TABLES
0
TABLE
2
LAYER
70
4
0
LAYER
2
0
70
0
62
7
6
CONTINUOUS
0
LAYER
2
TEXT
70
0
62
1
6
CONTINUOUS
0
LAYER
2
DOWEL
70
0
62
5
6
CONTINUOUS
0
LAYER
2
SLAB_00
70
0
62
2
6
CONTINUOUS
0
ENDTAB
0
ENDSEC
0
SECTION
2
ENTITIES
0
POLYLINE
8
SLAB_00
66
1
70
1
10
0.0
20
0.0
30
0.0
0
VERTEX
8
SLAB_00
10
86.615
20
0.000
30
0.0
0
VERTEX
8
SLAB_00
10
86.563
20
2.267
30
0.0
0
VERTEX
8
SLAB_00
10
86.404
20
4.528
30
0.0
0
VERTEX
8
SLAB_00
10
86.141
20
6.778
30
0.0
0
VERTEX
8
SLAB_00
10
85.774
20
9.012
30
0.0
0
VERTEX
8
SLAB_00
10
85.304
20
11.223
30
0.0
0
VERTEX
8
SLAB_00
10
84.733
20
13.408
30
0.0
0
VERTEX
8
SLAB_00
10
84.062
20
15.560
30
0.0
0
VERTEX
8
SLAB_00
10
83.292
20
17.675
30
0.0
0
VERTEX
8
SLAB_00
10
82.428
20
19.747
30
0.0
0
VERTEX
8
SLAB_00
10
81.471
20
21.771
30
0.0
0
VERTEX
8
SLAB_00
10
80.423
20
23.744
30
0.0
0
VERTEX
8
SLAB_00
10
79.289
20
25.661
30
0.0
0
VERTEX
8
SLAB_00
10
78.071
20
27.517
30
0.0
0
VERTEX
8
SLAB_00
10
76.773
20
29.308
30
0.0
0
VERTEX
8
SLAB_00
10
75.400
20
31.030
30
0.0
0
VERTEX
8
SLAB_00
10
73.954
20
32.681
30
0.0
0
VERTEX
8
SLAB_00
10
72.440
20
34.256
30
0.0
0
VERTEX
8
SLAB_00
10
70.863
20
35.753
30
0.0
0
VERTEX
8
SLAB_00
10
69.227
20
37.168
30
0.0
0
VERTEX
8
SLAB_00
10
67.536
20
38.500
30
0.0
0
VERTEX
8
SLAB_00
10
65.796
20
39.746
30
0.0
0
VERTEX
8
SLAB_00
10
64.012
20
40.904
30
0.0
0
VERTEX
8
SLAB_00
10
62.187
20
41.973
30
0.0
0
VERTEX
8
SLAB_00
10
60.327
20
42.951
30
0.0
0
VERTEX
8
SLAB_00
10
58.438
20
43.838
30
0.0
0
VERTEX
8
SLAB_00
10
56.524
20
44.632
30
0.0
0
VERTEX
8
SLAB_00
10
54.591
20
45.334
30
0.0
0
VERTEX
8
SLAB_00
10
52.642
20
45.942
30
0.0
0
VERTEX
8
SLAB_00
10
50.684
20
46.458
30
0.0
0
VERTEX
8
SLAB_00
10
48.721
20
46.882
30
0.0
0
VERTEX
8
SLAB_00
10
46.758
20
47.214
30
0.0
0
VERTEX
8
SLAB_00
10
44.800
20
47.456
30
0.0
0
VERTEX
8
SLAB_00
10
42.851
20
47.609
30
0.0
0
VERTEX
8
SLAB_00
10
40.916
20
47.675
30
0.0
0
VERTEX
8
SLAB_00
10
38.999
20
47.655
30
0.0
0
VERTEX
8
SLAB_00
10
37.104
20
47.552
30
0.0
0
VERTEX
8
SLAB_00
10
35.236
20
47.367
30
0.0
0
VERTEX
8
SLAB_00
10
33.398
20
47.104
30
0.0
0
VERTEX
8
SLAB_00
10
31.594
20
46.765
30
0.0
0
VERTEX
8
SLAB_00
10
29.827
20
46.353
30
0.0
0
VERTEX
8
SLAB_00
10
28.101
20
45.870
30
0.0
0
VERTEX
8
SLAB_00
10
26.417
20
45.321
30
0.0
0
VERTEX
8
SLAB_00
10
24.780
20
44.709
30
0.0
0
VERTEX
8
SLAB_00
10
23.192
20
44.037
30
0.0
0
VERTEX
8
SLAB_00
10
21.654
20
43.308
30
0.0
0
VERTEX
8
SLAB_00
10
20.169
20
42.526
30
0.0
0
VERTEX
8
SLAB_00
10
18.738
20
41.695
30
0.0
0
VERTEX
8
SLAB_00
10
17.364
20
40.819
30
0.0
0
VERTEX
8
SLAB_00
10
16.046
20
39.902
30
0.0
0
VERTEX
8
SLAB_00
10
14.786
20
38.947
30
0.0
0
VERTEX
8
SLAB_00
10
13.586
20
37.958
30
0.0
0
VERTEX
8
SLAB_00
10
12.444
20
36.938
30
0.0
0
VERTEX
8
SLAB_00
10
11.362
20
35.893
30
0.0
0
VERTEX
8
SLAB_00
10
10.339
20
34.824
30
0.0
0
VERTEX
8
SLAB_00
10
9.375
20
33.736
30
0.0
0
VERTEX
8
SLAB_00
10
8.469
20
32.633
30
0.0
0
VERTEX
8
SLAB_00
10
7.621
20
31.518
30
0.0
0
VERTEX
8
SLAB_00
10
6.830
20
30.393
30
0.0
0
VERTEX
8
SLAB_00
10
6.095
20
29.262
30
0.0
0
VERTEX
8
SLAB_00
10
5.413
20
28.129
30
0.0
0
VERTEX
8
SLAB_00
10
4.785
20
26.996
30
0.0
0
VERTEX
8
SLAB_00
10
4.208
20
25.865
30
0.0
0
VERTEX
8
SLAB_00
10
3.679
20
24.740
30
0.0
0
VERTEX
8
SLAB_00
10
3.199
20
23.622
30
0.0
0
VERTEX
8
SLAB_00
10
2.763
20
22.513
30
0.0
0
VERTEX
8
SLAB_00
10
2.371
20
21.416
30
0.0
0
VERTEX
8
SLAB_00
10
2.019
20
20.333
30
0.0
0
VERTEX
8
SLAB_00
10
1.706
20
19.264
30
0.0
0
VERTEX
8
SLAB_00
10
1.429
20
18.211
30
0.0
0
VERTEX
8
SLAB_00
10
1.185
20
17.175
30
0.0
0
VERTEX
8
SLAB_00
10
0.973
20
16.158
30
0.0
0
VERTEX
8
SLAB_00
10
0.790
20
15.159
30
0.0
0
VERTEX
8
SLAB_00
10
0.633
20
14.179
30
0.0
0
VERTEX
8
SLAB_00
10
0.500
20
13.218
30
0.0
0
VERTEX
8
SLAB_00
10
0.389
20
12.277
30
0.0
0
VERTEX
8
SLAB_00
10
0.297
20
11.356
30
0.0
0
VERTEX
8
SLAB_00
10
0.222
20
10.453
30
0.0
0
VERTEX
8
SLAB_00
10
0.162
20
9.569
30
0.0
0
VERTEX
8
SLAB_00
10
0.115
20
8.702
30
0.0
0
VERTEX
8
SLAB_00
10
0.079
20
7.853
30
0.0
0
VERTEX
8
SLAB_00
10
0.052
20
7.019
30
0.0
0
VERTEX
8
SLAB_00
10
0.032
20
6.200
30
0.0
0
VERTEX
8
SLAB_00
10
0.019
20
5.394
30
0.0
0
VERTEX
8
SLAB_00
10
0.010
20
4.600
30
0.0
0
VERTEX
8
SLAB_00
10
0.005
20
3.817
30
0.0
0
VERTEX
8
SLAB_00
10
0.002
20
3.043
30
0.0
0
VERTEX
8
SLAB_00
10
0.001
20
2.276
30
0.0
0
VERTEX
8
SLAB_00
10
0.000
20
1.514
30
0.0
0
VERTEX
8
SLAB_00
10
0.000
20
0.756
30
0.0
0
VERTEX
8
SLAB_00
10
0.000
20
0.000
30
0.0
0
VERTEX
8
SLAB_00
10
0.000
20
-0.756
30
0.0
0
VERTEX
8
SLAB_00
10
0.000
20
-1.514
30
0.0
0
VERTEX
8
SLAB_00
10
0.001
20
-2.276
30
0.0
0
VERTEX
8
SLAB_00
10
0.002
20
-3.043
30
0.0
0
VERTEX
8
SLAB_00
10
0.005
20
-3.817
30
0.0
0
VERTEX
8
SLAB_00
10
0.010
20
-4.600
30
0.0
0
VERTEX
8
SLAB_00
10
0.019
20
-5.394
30
0.0
0
VERTEX
8
SLAB_00
10
0.032
20
-6.200
30
0.0
0
VERTEX
8
SLAB_00
10
0.052
20
-7.019
30
0.0
0
VERTEX
8
SLAB_00
10
0.079
20
-7.853
30
0.0
0
VERTEX
8
SLAB_00
10
0.115
20
-8.702
30
0.0
0
VERTEX
8
SLAB_00
10
0.162
20
-9.569
30
0.0
0
VERTEX
8
SLAB_00
10
0.222
20
-10.453
30
0.0
0
VERTEX
8
SLAB_00
10
0.297
20
-11.356
30
0.0
0
VERTEX
8
SLAB_00
10
0.389
20
-12.277
30
0.0
0
VERTEX
8
SLAB_00
10
0.500
20
-13.218
30
0.0
0
VERTEX
8
SLAB_00
10
0.633
20
-14.179
30
0.0
0
VERTEX
8
SLAB_00
10
0.790
20
-15.159
30
0.0
0
VERTEX
8
SLAB_00
10
0.973
20
-16.158
30
0.0
0
VERTEX
8
SLAB_00
10
1.185
20
-17.175
30
0.0
0
VERTEX
8
SLAB_00
10
1.429
20
-18.211
30
0.0
0
VERTEX
8
SLAB_00
10
1.706
20
-19.264
30
0.0
0
VERTEX
8
SLAB_00
10
2.019
20
-20.333
30
0.0
0
VERTEX
8
SLAB_00
10
2.371
20
-21.416
30
0.0
0
VERTEX
8
SLAB_00
10
2.763
20
-22.513
30
0.0
0
VERTEX
8
SLAB_00
10
3.199
20
-23.622
30
0.0
0
VERTEX
8
SLAB_00
10
3.679
20
-24.740
30
0.0
0
VERTEX
8
SLAB_00
10
4.208
20
-25.865
30
0.0
0
VERTEX
8
SLAB_00
10
4.785
20
-26.996
30
0.0
0
VERTEX
8
SLAB_00
10
5.413
20
-28.129
30
0.0
0
VERTEX
8
SLAB_00
10
6.095
20
-29.262
30
0.0
0
VERTEX
8
SLAB_00
10
6.830
20
-30.393
30
0.0
0
VERTEX
8
SLAB_00
10
7.621
20
-31.518
30
0.0
0
VERTEX
8
SLAB_00
10
8.469
20
-32.633
30
0.0
0
VERTEX
8
SLAB_00
10
9.375
20
-33.736
30
0.0
0
VERTEX
8
SLAB_00
10
10.339
20
-34.824
30
0.0
0
VERTEX
8
SLAB_00
10
11.362
20
-35.893
30
0.0
0
VERTEX
8
SLAB_00
10
12.444
20
-36.938
30
0.0
0
VERTEX
8
SLAB_00
10
13.586
20
-37.958
30
0.0
0
VERTEX
8
SLAB_00
10
14.786
20
-38.947
30
0.0
0
VERTEX
8
SLAB_00
10
16.046
20
-39.902
30
0.0
0
VERTEX
8
SLAB_00
10
17.364
20
-40.819
30
0.0
0
VERTEX
8
SLAB_00
10
18.738
20
-41.695
30
0.0
0
VERTEX
8
SLAB_00
10
20.169
20
-42.526
30
0.0
0
VERTEX
8
SLAB_00
10
21.654
20
-43.308
30
0.0
0
VERTEX
8
SLAB_00
10
23.192
20
-44.037
30
0.0
0
VERTEX
8
SLAB_00
10
24.780
20
-44.709
30
0.0
0
VERTEX
8
SLAB_00
10
26.417
20
-45.321
30
0.0
0
VERTEX
8
SLAB_00
10
28.101
20
-45.870
30
0.0
0
VERTEX
8
SLAB_00
10
29.827
20
-46.353
30
0.0
0
VERTEX
8
SLAB_00
10
31.594
20
-46.765
30
0.0
0
VERTEX
8
SLAB_00
10
33.398
20
-47.104
30
0.0
0
VERTEX
8
SLAB_00
10
35.236
20
-47.367
30
0.0
0
VERTEX
8
SLAB_00
10
37.104
20
-47.552
30
0.0
0
VERTEX
8
SLAB_00
10
38.999
20
-47.655
30
0.0
0
VERTEX
8
SLAB_00
10
40.916
20
-47.675
30
0.0
0
VERTEX
8
SLAB_00
10
42.851
20
-47.609
30
0.0
0
VERTEX
8
SLAB_00
10
44.800
20
-47.456
30
0.0
0
VERTEX
8
SLAB_00
10
46.758
20
-47.214
30
0.0
0
VERTEX
8
SLAB_00
10
48.721
20
-46.882
30
0.0
0
VERTEX
8
SLAB_00
10
50.684
20
-46.458
30
0.0
0
VERTEX
8
SLAB_00
10
52.642
20
-45.942
30
0.0
0
VERTEX
8
SLAB_00
10
54.591
20
-45.334
30
0.0
0
VERTEX
8
SLAB_00
10
56.524
20
-44.632
30
0.0
0
VERTEX
8
SLAB_00
10
58.438
20
-43.838
30
0.0
0
VERTEX
8
SLAB_00
10
60.327
20
-42.951
30
0.0
0
VERTEX
8
SLAB_00
10
62.187
20
-41.973
30
0.0
0
VERTEX
8
SLAB_00
10
64.012
20
-40.904
30
0.0
0
VERTEX
8
SLAB_00
10
65.796
20
-39.746
30
0.0
0
VERTEX
8
SLAB_00
10
67.536
20
-38.500
30
0.0
0
VERTEX
8
SLAB_00
10
69.227
20
-37.168
30
0.0
0
VERTEX
8
SLAB_00
10
70.863
20
-35.753
30
0.0
0
VERTEX
8
SLAB_00
10
72.440
20
-34.256
30
0.0
0
VERTEX
8
SLAB_00
10
73.954
20
-32.681
30
0.0
0
VERTEX
8
SLAB_00
10
75.400
20
-31.030
30
0.0
0
VERTEX
8
SLAB_00
10
76.773
20
-29.308
30
0.0
0
VERTEX
8
SLAB_00
10
78.071
20
-27.517
30
0.0
0
VERTEX
8
SLAB_00
10
79.289
20
-25.661
30
0.0
0
VERTEX
8
SLAB_00
10
80.423
20
-23.744
30
0.0
0
VERTEX
8
SLAB_00
10
81.471
20
-21.771
30
0.0
0
VERTEX
8
SLAB_00
10
82.428
20
-19.747
30
0.0
0
VERTEX
8
SLAB_00
10
83.292
20
-17.675
30
0.0
0
VERTEX
8
SLAB_00
10
84.062
20
-15.560
30
0.0
0
VERTEX
8
SLAB_00
10
84.733
20
-13.408
30
0.0
0
VERTEX
8
SLAB_00
10
85.304
20
-11.223
30
0.0
0
VERTEX
8
SLAB_00
10
85.774
20
-9.012
30
0.0
0
VERTEX
8
SLAB_00
10
86.141
20
-6.778
30
0.0
0
VERTEX
8
SLAB_00
10
86.404
20
-4.528
30
0.0
0
VERTEX
8
SLAB_00
10
86.563
20
-2.267
30
0.0
0
SEQEND
8
SLAB_00
0
TEXT
8
TEXT
10
0.000
20
62.675
30
0.0
40
8.0
1
64: s'=+1493 D=95
0
CIRCLE
8
DOWEL
10
15.000
20
18.000
30
0.0
40
3.250
0
TEXT
8
DOWEL
10
20.000
20
16.000
30
0.0
40
3.0
1
A
0
CIRCLE
8
DOWEL
10
15.000
20
-18.000
30
0.0
40
3.250
0
TEXT
8
DOWEL
10
20.000
20
-20.000
30
0.0
40
3.0
1
B
0
CIRCLE
8
DOWEL
10
45.000
20
18.000
30
0.0
40
3.250
0
TEXT
8
DOWEL
10
50.000
20
16.000
30
0.0
40
3.0
1
C
0
CIRCLE
8
DOWEL
10
45.000
20
-18.000
30
0.0
40
3.250
0
TEXT
8
DOWEL
10
50.000
20
-20.000
30
0.0
40
3.0
1
D
0
ENDSEC
0
EOF