0
SECTION
2
HEADER
9
$ACADVER
1
AC1009
9
$INSUNITS
70
4
0
ENDSEC
0
SECTION
2
TABLES
0
TABLE
2
LAYER
70
4
0
LAYER
2
0
70
0
62
7
6
CONTINUOUS
0
LAYER
2
TEXT
70
0
62
1
6
CONTINUOUS
0
LAYER
2
DOWEL
70
0
62
5
6
CONTINUOUS
0
LAYER
2
SLAB_00
70
0
62
2
6
CONTINUOUS
0
ENDTAB
0
ENDSEC
0
SECTION
2
ENTITIES
0
POLYLINE
8
SLAB_00
66
1
70
1
10
0.0
20
0.0
30
0.0
0
VERTEX
8
SLAB_00
10
197.846
20
0.000
30
0.0
0
VERTEX
8
SLAB_00
10
197.726
20
5.178
30
0.0
0
VERTEX
8
SLAB_00
10
197.365
20
10.342
30
0.0
0
VERTEX
8
SLAB_00
10
196.764
20
15.482
30
0.0
0
VERTEX
8
SLAB_00
10
195.926
20
20.584
30
0.0
0
VERTEX
8
SLAB_00
10
194.852
20
25.636
30
0.0
0
VERTEX
8
SLAB_00
10
193.547
20
30.626
30
0.0
0
VERTEX
8
SLAB_00
10
192.013
20
35.542
30
0.0
0
VERTEX
8
SLAB_00
10
190.256
20
40.372
30
0.0
0
VERTEX
8
SLAB_00
10
188.282
20
45.105
30
0.0
0
VERTEX
8
SLAB_00
10
186.095
20
49.730
30
0.0
0
VERTEX
8
SLAB_00
10
183.702
20
54.237
30
0.0
0
VERTEX
8
SLAB_00
10
181.111
20
58.614
30
0.0
0
VERTEX
8
SLAB_00
10
178.330
20
62.853
30
0.0
0
VERTEX
8
SLAB_00
10
175.366
20
66.944
30
0.0
0
VERTEX
8
SLAB_00
10
172.228
20
70.879
30
0.0
0
VERTEX
8
SLAB_00
10
168.925
20
74.649
30
0.0
0
VERTEX
8
SLAB_00
10
165.468
20
78.247
30
0.0
0
VERTEX
8
SLAB_00
10
161.865
20
81.666
30
0.0
0
VERTEX
8
SLAB_00
10
158.128
20
84.899
30
0.0
0
VERTEX
8
SLAB_00
10
154.266
20
87.942
30
0.0
0
VERTEX
8
SLAB_00
10
150.292
20
90.788
30
0.0
0
VERTEX
8
SLAB_00
10
146.215
20
93.434
30
0.0
0
VERTEX
8
SLAB_00
10
142.047
20
95.875
30
0.0
0
VERTEX
8
SLAB_00
10
137.800
20
98.110
30
0.0
0
VERTEX
8
SLAB_00
10
133.485
20
100.135
30
0.0
0
VERTEX
8
SLAB_00
10
129.113
20
101.949
30
0.0
0
VERTEX
8
SLAB_00
10
124.696
20
103.551
30
0.0
0
VERTEX
8
SLAB_00
10
120.245
20
104.941
30
0.0
0
VERTEX
8
SLAB_00
10
115.772
20
106.119
30
0.0
0
VERTEX
8
SLAB_00
10
111.289
20
107.087
30
0.0
0
VERTEX
8
SLAB_00
10
106.805
20
107.847
30
0.0
0
VERTEX
8
SLAB_00
10
102.332
20
108.400
30
0.0
0
VERTEX
8
SLAB_00
10
97.880
20
108.749
30
0.0
0
VERTEX
8
SLAB_00
10
93.460
20
108.899
30
0.0
0
VERTEX
8
SLAB_00
10
89.081
20
108.854
30
0.0
0
VERTEX
8
SLAB_00
10
84.754
20
108.618
30
0.0
0
VERTEX
8
SLAB_00
10
80.486
20
108.196
30
0.0
0
VERTEX
8
SLAB_00
10
76.288
20
107.595
30
0.0
0
VERTEX
8
SLAB_00
10
72.167
20
106.820
30
0.0
0
VERTEX
8
SLAB_00
10
68.131
20
105.879
30
0.0
0
VERTEX
8
SLAB_00
10
64.187
20
104.777
30
0.0
0
VERTEX
8
SLAB_00
10
60.342
20
103.523
30
0.0
0
VERTEX
8
SLAB_00
10
56.603
20
102.124
30
0.0
0
VERTEX
8
SLAB_00
10
52.974
20
100.588
30
0.0
0
VERTEX
8
SLAB_00
10
49.462
20
98.923
30
0.0
0
VERTEX
8
SLAB_00
10
46.069
20
97.138
30
0.0
0
VERTEX
8
SLAB_00
10
42.802
20
95.240
30
0.0
0
VERTEX
8
SLAB_00
10
39.662
20
93.239
30
0.0
0
VERTEX
8
SLAB_00
10
36.652
20
91.144
30
0.0
0
VERTEX
8
SLAB_00
10
33.775
20
88.962
30
0.0
0
VERTEX
8
SLAB_00
10
31.032
20
86.703
30
0.0
0
VERTEX
8
SLAB_00
10
28.425
20
84.374
30
0.0
0
VERTEX
8
SLAB_00
10
25.953
20
81.986
30
0.0
0
VERTEX
8
SLAB_00
10
23.616
20
79.545
30
0.0
0
VERTEX
8
SLAB_00
10
21.414
20
77.061
30
0.0
0
VERTEX
8
SLAB_00
10
19.345
20
74.541
30
0.0
0
VERTEX
8
SLAB_00
10
17.409
20
71.992
30
0.0
0
VERTEX
8
SLAB_00
10
15.602
20
69.423
30
0.0
0
VERTEX
8
SLAB_00
10
13.921
20
66.841
30
0.0
0
VERTEX
8
SLAB_00
10
12.365
20
64.252
30
0.0
0
VERTEX
8
SLAB_00
10
10.930
20
61.664
30
0.0
0
VERTEX
8
SLAB_00
10
9.611
20
59.081
30
0.0
0
VERTEX
8
SLAB_00
10
8.405
20
56.510
30
0.0
0
VERTEX
8
SLAB_00
10
7.306
20
53.956
30
0.0
0
VERTEX
8
SLAB_00
10
6.311
20
51.424
30
0.0
0
VERTEX
8
SLAB_00
10
5.415
20
48.919
30
0.0
0
VERTEX
8
SLAB_00
10
4.611
20
46.444
30
0.0
0
VERTEX
8
SLAB_00
10
3.896
20
44.002
30
0.0
0
VERTEX
8
SLAB_00
10
3.263
20
41.597
30
0.0
0
VERTEX
8
SLAB_00
10
2.707
20
39.232
30
0.0
0
VERTEX
8
SLAB_00
10
2.223
20
36.907
30
0.0
0
VERTEX
8
SLAB_00
10
1.804
20
34.625
30
0.0
0
VERTEX
8
SLAB_00
10
1.446
20
32.387
30
0.0
0
VERTEX
8
SLAB_00
10
1.142
20
30.193
30
0.0
0
VERTEX
8
SLAB_00
10
0.888
20
28.044
30
0.0
0
VERTEX
8
SLAB_00
10
0.678
20
25.939
30
0.0
0
VERTEX
8
SLAB_00
10
0.507
20
23.877
30
0.0
0
VERTEX
8
SLAB_00
10
0.370
20
21.857
30
0.0
0
VERTEX
8
SLAB_00
10
0.262
20
19.878
30
0.0
0
VERTEX
8
SLAB_00
10
0.180
20
17.937
30
0.0
0
VERTEX
8
SLAB_00
10
0.118
20
16.033
30
0.0
0
VERTEX
8
SLAB_00
10
0.074
20
14.162
30
0.0
0
VERTEX
8
SLAB_00
10
0.044
20
12.321
30
0.0
0
VERTEX
8
SLAB_00
10
0.024
20
10.508
30
0.0
0
VERTEX
8
SLAB_00
10
0.011
20
8.719
30
0.0
0
VERTEX
8
SLAB_00
10
0.005
20
6.951
30
0.0
0
VERTEX
8
SLAB_00
10
0.001
20
5.198
30
0.0
0
VERTEX
8
SLAB_00
10
0.000
20
3.459
30
0.0
0
VERTEX
8
SLAB_00
10
0.000
20
1.727
30
0.0
0
VERTEX
8
SLAB_00
10
0.000
20
0.000
30
0.0
0
VERTEX
8
SLAB_00
10
0.000
20
-1.727
30
0.0
0
VERTEX
8
SLAB_00
10
0.000
20
-3.459
30
0.0
0
VERTEX
8
SLAB_00
10
0.001
20
-5.198
30
0.0
0
VERTEX
8
SLAB_00
10
0.005
20
-6.951
30
0.0
0
VERTEX
8
SLAB_00
10
0.011
20
-8.719
30
0.0
0
VERTEX
8
SLAB_00
10
0.024
20
-10.508
30
0.0
0
VERTEX
8
SLAB_00
10
0.044
20
-12.321
30
0.0
0
VERTEX
8
SLAB_00
10
0.074
20
-14.162
30
0.0
0
VERTEX
8
SLAB_00
10
0.118
20
-16.033
30
0.0
0
VERTEX
8
SLAB_00
10
0.180
20
-17.937
30
0.0
0
VERTEX
8
SLAB_00
10
0.262
20
-19.878
30
0.0
0
VERTEX
8
SLAB_00
10
0.370
20
-21.857
30
0.0
0
VERTEX
8
SLAB_00
10
0.507
20
-23.877
30
0.0
0
VERTEX
8
SLAB_00
10
0.678
20
-25.939
30
0.0
0
VERTEX
8
SLAB_00
10
0.888
20
-28.044
30
0.0
0
VERTEX
8
SLAB_00
10
1.142
20
-30.193
30
0.0
0
VERTEX
8
SLAB_00
10
1.446
20
-32.387
30
0.0
0
VERTEX
8
SLAB_00
10
1.804
20
-34.625
30
0.0
0
VERTEX
8
SLAB_00
10
2.223
20
-36.907
30
0.0
0
VERTEX
8
SLAB_00
10
2.707
20
-39.232
30
0.0
0
VERTEX
8
SLAB_00
10
3.263
20
-41.597
30
0.0
0
VERTEX
8
SLAB_00
10
3.896
20
-44.002
30
0.0
0
VERTEX
8
SLAB_00
10
4.611
20
-46.444
30
0.0
0
VERTEX
8
SLAB_00
10
5.415
20
-48.919
30
0.0
0
VERTEX
8
SLAB_00
10
6.311
20
-51.424
30
0.0
0
VERTEX
8
SLAB_00
10
7.306
20
-53.956
30
0.0
0
VERTEX
8
SLAB_00
10
8.405
20
-56.510
30
0.0
0
VERTEX
8
SLAB_00
10
9.611
20
-59.081
30
0.0
0
VERTEX
8
SLAB_00
10
10.930
20
-61.664
30
0.0
0
VERTEX
8
SLAB_00
10
12.365
20
-64.252
30
0.0
0
VERTEX
8
SLAB_00
10
13.921
20
-66.841
30
0.0
0
VERTEX
8
SLAB_00
10
15.602
20
-69.423
30
0.0
0
VERTEX
8
SLAB_00
10
17.409
20
-71.992
30
0.0
0
VERTEX
8
SLAB_00
10
19.345
20
-74.541
30
0.0
0
VERTEX
8
SLAB_00
10
21.414
20
-77.061
30
0.0
0
VERTEX
8
SLAB_00
10
23.616
20
-79.545
30
0.0
0
VERTEX
8
SLAB_00
10
25.953
20
-81.986
30
0.0
0
VERTEX
8
SLAB_00
10
28.425
20
-84.374
30
0.0
0
VERTEX
8
SLAB_00
10
31.032
20
-86.703
30
0.0
0
VERTEX
8
SLAB_00
10
33.775
20
-88.962
30
0.0
0
VERTEX
8
SLAB_00
10
36.652
20
-91.144
30
0.0
0
VERTEX
8
SLAB_00
10
39.662
20
-93.239
30
0.0
0
VERTEX
8
SLAB_00
10
42.802
20
-95.240
30
0.0
0
VERTEX
8
SLAB_00
10
46.069
20
-97.138
30
0.0
0
VERTEX
8
SLAB_00
10
49.462
20
-98.923
30
0.0
0
VERTEX
8
SLAB_00
10
52.974
20
-100.588
30
0.0
0
VERTEX
8
SLAB_00
10
56.603
20
-102.124
30
0.0
0
VERTEX
8
SLAB_00
10
60.342
20
-103.523
30
0.0
0
VERTEX
8
SLAB_00
10
64.187
20
-104.777
30
0.0
0
VERTEX
8
SLAB_00
10
68.131
20
-105.879
30
0.0
0
VERTEX
8
SLAB_00
10
72.167
20
-106.820
30
0.0
0
VERTEX
8
SLAB_00
10
76.288
20
-107.595
30
0.0
0
VERTEX
8
SLAB_00
10
80.486
20
-108.196
30
0.0
0
VERTEX
8
SLAB_00
10
84.754
20
-108.618
30
0.0
0
VERTEX
8
SLAB_00
10
89.081
20
-108.854
30
0.0
0
VERTEX
8
SLAB_00
10
93.460
20
-108.899
30
0.0
0
VERTEX
8
SLAB_00
10
97.880
20
-108.749
30
0.0
0
VERTEX
8
SLAB_00
10
102.332
20
-108.400
30
0.0
0
VERTEX
8
SLAB_00
10
106.805
20
-107.847
30
0.0
0
VERTEX
8
SLAB_00
10
111.289
20
-107.087
30
0.0
0
VERTEX
8
SLAB_00
10
115.772
20
-106.119
30
0.0
0
VERTEX
8
SLAB_00
10
120.245
20
-104.941
30
0.0
0
VERTEX
8
SLAB_00
10
124.696
20
-103.551
30
0.0
0
VERTEX
8
SLAB_00
10
129.113
20
-101.949
30
0.0
0
VERTEX
8
SLAB_00
10
133.485
20
-100.135
30
0.0
0
VERTEX
8
SLAB_00
10
137.800
20
-98.110
30
0.0
0
VERTEX
8
SLAB_00
10
142.047
20
-95.875
30
0.0
0
VERTEX
8
SLAB_00
10
146.215
20
-93.434
30
0.0
0
VERTEX
8
SLAB_00
10
150.292
20
-90.788
30
0.0
0
VERTEX
8
SLAB_00
10
154.266
20
-87.942
30
0.0
0
VERTEX
8
SLAB_00
10
158.128
20
-84.899
30
0.0
0
VERTEX
8
SLAB_00
10
161.865
20
-81.666
30
0.0
0
VERTEX
8
SLAB_00
10
165.468
20
-78.247
30
0.0
0
VERTEX
8
SLAB_00
10
168.925
20
-74.649
30
0.0
0
VERTEX
8
SLAB_00
10
172.228
20
-70.879
30
0.0
0
VERTEX
8
SLAB_00
10
175.366
20
-66.944
30
0.0
0
VERTEX
8
SLAB_00
10
178.330
20
-62.853
30
0.0
0
VERTEX
8
SLAB_00
10
181.111
20
-58.614
30
0.0
0
VERTEX
8
SLAB_00
10
183.702
20
-54.237
30
0.0
0
VERTEX
8
SLAB_00
10
186.095
20
-49.730
30
0.0
0
VERTEX
8
SLAB_00
10
188.282
20
-45.105
30
0.0
0
VERTEX
8
SLAB_00
10
190.256
20
-40.372
30
0.0
0
VERTEX
8
SLAB_00
10
192.013
20
-35.542
30
0.0
0
VERTEX
8
SLAB_00
10
193.547
20
-30.626
30
0.0
0
VERTEX
8
SLAB_00
10
194.852
20
-25.636
30
0.0
0
VERTEX
8
SLAB_00
10
195.926
20
-20.584
30
0.0
0
VERTEX
8
SLAB_00
10
196.764
20
-15.482
30
0.0
0
VERTEX
8
SLAB_00
10
197.365
20
-10.342
30
0.0
0
VERTEX
8
SLAB_00
10
197.726
20
-5.178
30
0.0
0
SEQEND
8
SLAB_00
0
TEXT
8
TEXT
10
0.000
20
123.899
30
0.0
40
8.0
1
51: s'=+1163 D=218
0
CIRCLE
8
DOWEL
10
15.000
20
18.000
30
0.0
40
3.250
0
TEXT
8
DOWEL
10
20.000
20
16.000
30
0.0
40
3.0
1
A
0
CIRCLE
8
DOWEL
10
15.000
20
-18.000
30
0.0
40
3.250
0
TEXT
8
DOWEL
10
20.000
20
-20.000
30
0.0
40
3.0
1
B
0
CIRCLE
8
DOWEL
10
45.000
20
18.000
30
0.0
40
3.250
0
TEXT
8
DOWEL
10
50.000
20
16.000
30
0.0
40
3.0
1
C
0
CIRCLE
8
DOWEL
10
45.000
20
-18.000
30
0.0
40
3.250
0
TEXT
8
DOWEL
10
50.000
20
-20.000
30
0.0
40
3.0
1
D
0
ENDSEC
0
EOF