0
SECTION
2
HEADER
9
$ACADVER
1
AC1009
9
$INSUNITS
70
4
0
ENDSEC
0
SECTION
2
TABLES
0
TABLE
2
LAYER
70
4
0
LAYER
2
0
70
0
62
7
6
CONTINUOUS
0
LAYER
2
TEXT
70
0
62
1
6
CONTINUOUS
0
LAYER
2
DOWEL
70
0
62
5
6
CONTINUOUS
0
LAYER
2
SLAB_00
70
0
62
2
6
CONTINUOUS
0
ENDTAB
0
ENDSEC
0
SECTION
2
ENTITIES
0
POLYLINE
8
SLAB_00
66
1
70
1
10
0.0
20
0.0
30
0.0
0
VERTEX
8
SLAB_00
10
325.952
20
0.000
30
0.0
0
VERTEX
8
SLAB_00
10
325.753
20
8.530
30
0.0
0
VERTEX
8
SLAB_00
10
325.158
20
17.039
30
0.0
0
VERTEX
8
SLAB_00
10
324.169
20
25.507
30
0.0
0
VERTEX
8
SLAB_00
10
322.788
20
33.912
30
0.0
0
VERTEX
8
SLAB_00
10
321.019
20
42.236
30
0.0
0
VERTEX
8
SLAB_00
10
318.868
20
50.457
30
0.0
0
VERTEX
8
SLAB_00
10
316.342
20
58.556
30
0.0
0
VERTEX
8
SLAB_00
10
313.447
20
66.513
30
0.0
0
VERTEX
8
SLAB_00
10
310.194
20
74.311
30
0.0
0
VERTEX
8
SLAB_00
10
306.591
20
81.931
30
0.0
0
VERTEX
8
SLAB_00
10
302.649
20
89.355
30
0.0
0
VERTEX
8
SLAB_00
10
298.381
20
96.567
30
0.0
0
VERTEX
8
SLAB_00
10
293.798
20
103.551
30
0.0
0
VERTEX
8
SLAB_00
10
288.915
20
110.291
30
0.0
0
VERTEX
8
SLAB_00
10
283.745
20
116.773
30
0.0
0
VERTEX
8
SLAB_00
10
278.304
20
122.985
30
0.0
0
VERTEX
8
SLAB_00
10
272.608
20
128.912
30
0.0
0
VERTEX
8
SLAB_00
10
266.673
20
134.545
30
0.0
0
VERTEX
8
SLAB_00
10
260.516
20
139.872
30
0.0
0
VERTEX
8
SLAB_00
10
254.154
20
144.884
30
0.0
0
VERTEX
8
SLAB_00
10
247.606
20
149.573
30
0.0
0
VERTEX
8
SLAB_00
10
240.889
20
153.932
30
0.0
0
VERTEX
8
SLAB_00
10
234.023
20
157.954
30
0.0
0
VERTEX
8
SLAB_00
10
227.025
20
161.636
30
0.0
0
VERTEX
8
SLAB_00
10
219.916
20
164.972
30
0.0
0
VERTEX
8
SLAB_00
10
212.713
20
167.961
30
0.0
0
VERTEX
8
SLAB_00
10
205.436
20
170.600
30
0.0
0
VERTEX
8
SLAB_00
10
198.104
20
172.890
30
0.0
0
VERTEX
8
SLAB_00
10
190.735
20
174.832
30
0.0
0
VERTEX
8
SLAB_00
10
183.348
20
176.427
30
0.0
0
VERTEX
8
SLAB_00
10
175.961
20
177.678
30
0.0
0
VERTEX
8
SLAB_00
10
168.591
20
178.589
30
0.0
0
VERTEX
8
SLAB_00
10
161.257
20
179.165
30
0.0
0
VERTEX
8
SLAB_00
10
153.975
20
179.412
30
0.0
0
VERTEX
8
SLAB_00
10
146.761
20
179.337
30
0.0
0
VERTEX
8
SLAB_00
10
139.632
20
178.948
30
0.0
0
VERTEX
8
SLAB_00
10
132.601
20
178.254
30
0.0
0
VERTEX
8
SLAB_00
10
125.685
20
177.263
30
0.0
0
VERTEX
8
SLAB_00
10
118.895
20
175.987
30
0.0
0
VERTEX
8
SLAB_00
10
112.246
20
174.435
30
0.0
0
VERTEX
8
SLAB_00
10
105.748
20
172.620
30
0.0
0
VERTEX
8
SLAB_00
10
99.414
20
170.554
30
0.0
0
VERTEX
8
SLAB_00
10
93.253
20
168.249
30
0.0
0
VERTEX
8
SLAB_00
10
87.275
20
165.719
30
0.0
0
VERTEX
8
SLAB_00
10
81.488
20
162.976
30
0.0
0
VERTEX
8
SLAB_00
10
75.899
20
160.035
30
0.0
0
VERTEX
8
SLAB_00
10
70.516
20
156.909
30
0.0
0
VERTEX
8
SLAB_00
10
65.343
20
153.612
30
0.0
0
VERTEX
8
SLAB_00
10
60.384
20
150.159
30
0.0
0
VERTEX
8
SLAB_00
10
55.645
20
146.565
30
0.0
0
VERTEX
8
SLAB_00
10
51.126
20
142.842
30
0.0
0
VERTEX
8
SLAB_00
10
46.830
20
139.007
30
0.0
0
VERTEX
8
SLAB_00
10
42.757
20
135.072
30
0.0
0
VERTEX
8
SLAB_00
10
38.907
20
131.051
30
0.0
0
VERTEX
8
SLAB_00
10
35.279
20
126.958
30
0.0
0
VERTEX
8
SLAB_00
10
31.871
20
122.806
30
0.0
0
VERTEX
8
SLAB_00
10
28.681
20
118.607
30
0.0
0
VERTEX
8
SLAB_00
10
25.704
20
114.375
30
0.0
0
VERTEX
8
SLAB_00
10
22.936
20
110.121
30
0.0
0
VERTEX
8
SLAB_00
10
20.372
20
105.856
30
0.0
0
VERTEX
8
SLAB_00
10
18.007
20
101.591
30
0.0
0
VERTEX
8
SLAB_00
10
15.834
20
97.336
30
0.0
0
VERTEX
8
SLAB_00
10
13.847
20
93.101
30
0.0
0
VERTEX
8
SLAB_00
10
12.037
20
88.893
30
0.0
0
VERTEX
8
SLAB_00
10
10.398
20
84.722
30
0.0
0
VERTEX
8
SLAB_00
10
8.921
20
80.594
30
0.0
0
VERTEX
8
SLAB_00
10
7.597
20
76.516
30
0.0
0
VERTEX
8
SLAB_00
10
6.419
20
72.493
30
0.0
0
VERTEX
8
SLAB_00
10
5.376
20
68.531
30
0.0
0
VERTEX
8
SLAB_00
10
4.460
20
64.634
30
0.0
0
VERTEX
8
SLAB_00
10
3.662
20
60.804
30
0.0
0
VERTEX
8
SLAB_00
10
2.972
20
57.045
30
0.0
0
VERTEX
8
SLAB_00
10
2.382
20
53.358
30
0.0
0
VERTEX
8
SLAB_00
10
1.882
20
49.744
30
0.0
0
VERTEX
8
SLAB_00
10
1.463
20
46.203
30
0.0
0
VERTEX
8
SLAB_00
10
1.116
20
42.734
30
0.0
0
VERTEX
8
SLAB_00
10
0.835
20
39.337
30
0.0
0
VERTEX
8
SLAB_00
10
0.609
20
36.010
30
0.0
0
VERTEX
8
SLAB_00
10
0.432
20
32.749
30
0.0
0
VERTEX
8
SLAB_00
10
0.296
20
29.551
30
0.0
0
VERTEX
8
SLAB_00
10
0.195
20
26.414
30
0.0
0
VERTEX
8
SLAB_00
10
0.122
20
23.331
30
0.0
0
VERTEX
8
SLAB_00
10
0.072
20
20.299
30
0.0
0
VERTEX
8
SLAB_00
10
0.039
20
17.313
30
0.0
0
VERTEX
8
SLAB_00
10
0.019
20
14.365
30
0.0
0
VERTEX
8
SLAB_00
10
0.008
20
11.451
30
0.0
0
VERTEX
8
SLAB_00
10
0.002
20
8.564
30
0.0
0
VERTEX
8
SLAB_00
10
0.000
20
5.698
30
0.0
0
VERTEX
8
SLAB_00
10
0.000
20
2.846
30
0.0
0
VERTEX
8
SLAB_00
10
0.000
20
0.000
30
0.0
0
VERTEX
8
SLAB_00
10
0.000
20
-2.846
30
0.0
0
VERTEX
8
SLAB_00
10
0.000
20
-5.698
30
0.0
0
VERTEX
8
SLAB_00
10
0.002
20
-8.564
30
0.0
0
VERTEX
8
SLAB_00
10
0.008
20
-11.451
30
0.0
0
VERTEX
8
SLAB_00
10
0.019
20
-14.365
30
0.0
0
VERTEX
8
SLAB_00
10
0.039
20
-17.313
30
0.0
0
VERTEX
8
SLAB_00
10
0.072
20
-20.299
30
0.0
0
VERTEX
8
SLAB_00
10
0.122
20
-23.331
30
0.0
0
VERTEX
8
SLAB_00
10
0.195
20
-26.414
30
0.0
0
VERTEX
8
SLAB_00
10
0.296
20
-29.551
30
0.0
0
VERTEX
8
SLAB_00
10
0.432
20
-32.749
30
0.0
0
VERTEX
8
SLAB_00
10
0.609
20
-36.010
30
0.0
0
VERTEX
8
SLAB_00
10
0.835
20
-39.337
30
0.0
0
VERTEX
8
SLAB_00
10
1.116
20
-42.734
30
0.0
0
VERTEX
8
SLAB_00
10
1.463
20
-46.203
30
0.0
0
VERTEX
8
SLAB_00
10
1.882
20
-49.744
30
0.0
0
VERTEX
8
SLAB_00
10
2.382
20
-53.358
30
0.0
0
VERTEX
8
SLAB_00
10
2.972
20
-57.045
30
0.0
0
VERTEX
8
SLAB_00
10
3.662
20
-60.804
30
0.0
0
VERTEX
8
SLAB_00
10
4.460
20
-64.634
30
0.0
0
VERTEX
8
SLAB_00
10
5.376
20
-68.531
30
0.0
0
VERTEX
8
SLAB_00
10
6.419
20
-72.493
30
0.0
0
VERTEX
8
SLAB_00
10
7.597
20
-76.516
30
0.0
0
VERTEX
8
SLAB_00
10
8.921
20
-80.594
30
0.0
0
VERTEX
8
SLAB_00
10
10.398
20
-84.722
30
0.0
0
VERTEX
8
SLAB_00
10
12.037
20
-88.893
30
0.0
0
VERTEX
8
SLAB_00
10
13.847
20
-93.101
30
0.0
0
VERTEX
8
SLAB_00
10
15.834
20
-97.336
30
0.0
0
VERTEX
8
SLAB_00
10
18.007
20
-101.591
30
0.0
0
VERTEX
8
SLAB_00
10
20.372
20
-105.856
30
0.0
0
VERTEX
8
SLAB_00
10
22.936
20
-110.121
30
0.0
0
VERTEX
8
SLAB_00
10
25.704
20
-114.375
30
0.0
0
VERTEX
8
SLAB_00
10
28.681
20
-118.607
30
0.0
0
VERTEX
8
SLAB_00
10
31.871
20
-122.806
30
0.0
0
VERTEX
8
SLAB_00
10
35.279
20
-126.958
30
0.0
0
VERTEX
8
SLAB_00
10
38.907
20
-131.051
30
0.0
0
VERTEX
8
SLAB_00
10
42.757
20
-135.072
30
0.0
0
VERTEX
8
SLAB_00
10
46.830
20
-139.007
30
0.0
0
VERTEX
8
SLAB_00
10
51.126
20
-142.842
30
0.0
0
VERTEX
8
SLAB_00
10
55.645
20
-146.565
30
0.0
0
VERTEX
8
SLAB_00
10
60.384
20
-150.159
30
0.0
0
VERTEX
8
SLAB_00
10
65.343
20
-153.612
30
0.0
0
VERTEX
8
SLAB_00
10
70.516
20
-156.909
30
0.0
0
VERTEX
8
SLAB_00
10
75.899
20
-160.035
30
0.0
0
VERTEX
8
SLAB_00
10
81.488
20
-162.976
30
0.0
0
VERTEX
8
SLAB_00
10
87.275
20
-165.719
30
0.0
0
VERTEX
8
SLAB_00
10
93.253
20
-168.249
30
0.0
0
VERTEX
8
SLAB_00
10
99.414
20
-170.554
30
0.0
0
VERTEX
8
SLAB_00
10
105.748
20
-172.620
30
0.0
0
VERTEX
8
SLAB_00
10
112.246
20
-174.435
30
0.0
0
VERTEX
8
SLAB_00
10
118.895
20
-175.987
30
0.0
0
VERTEX
8
SLAB_00
10
125.685
20
-177.263
30
0.0
0
VERTEX
8
SLAB_00
10
132.601
20
-178.254
30
0.0
0
VERTEX
8
SLAB_00
10
139.632
20
-178.948
30
0.0
0
VERTEX
8
SLAB_00
10
146.761
20
-179.337
30
0.0
0
VERTEX
8
SLAB_00
10
153.975
20
-179.412
30
0.0
0
VERTEX
8
SLAB_00
10
161.257
20
-179.165
30
0.0
0
VERTEX
8
SLAB_00
10
168.591
20
-178.589
30
0.0
0
VERTEX
8
SLAB_00
10
175.961
20
-177.678
30
0.0
0
VERTEX
8
SLAB_00
10
183.348
20
-176.427
30
0.0
0
VERTEX
8
SLAB_00
10
190.735
20
-174.832
30
0.0
0
VERTEX
8
SLAB_00
10
198.104
20
-172.890
30
0.0
0
VERTEX
8
SLAB_00
10
205.436
20
-170.600
30
0.0
0
VERTEX
8
SLAB_00
10
212.713
20
-167.961
30
0.0
0
VERTEX
8
SLAB_00
10
219.916
20
-164.972
30
0.0
0
VERTEX
8
SLAB_00
10
227.025
20
-161.636
30
0.0
0
VERTEX
8
SLAB_00
10
234.023
20
-157.954
30
0.0
0
VERTEX
8
SLAB_00
10
240.889
20
-153.932
30
0.0
0
VERTEX
8
SLAB_00
10
247.606
20
-149.573
30
0.0
0
VERTEX
8
SLAB_00
10
254.154
20
-144.884
30
0.0
0
VERTEX
8
SLAB_00
10
260.516
20
-139.872
30
0.0
0
VERTEX
8
SLAB_00
10
266.673
20
-134.545
30
0.0
0
VERTEX
8
SLAB_00
10
272.608
20
-128.912
30
0.0
0
VERTEX
8
SLAB_00
10
278.304
20
-122.985
30
0.0
0
VERTEX
8
SLAB_00
10
283.745
20
-116.773
30
0.0
0
VERTEX
8
SLAB_00
10
288.915
20
-110.291
30
0.0
0
VERTEX
8
SLAB_00
10
293.798
20
-103.551
30
0.0
0
VERTEX
8
SLAB_00
10
298.381
20
-96.567
30
0.0
0
VERTEX
8
SLAB_00
10
302.649
20
-89.355
30
0.0
0
VERTEX
8
SLAB_00
10
306.591
20
-81.931
30
0.0
0
VERTEX
8
SLAB_00
10
310.194
20
-74.311
30
0.0
0
VERTEX
8
SLAB_00
10
313.447
20
-66.513
30
0.0
0
VERTEX
8
SLAB_00
10
316.342
20
-58.556
30
0.0
0
VERTEX
8
SLAB_00
10
318.868
20
-50.457
30
0.0
0
VERTEX
8
SLAB_00
10
321.019
20
-42.236
30
0.0
0
VERTEX
8
SLAB_00
10
322.788
20
-33.912
30
0.0
0
VERTEX
8
SLAB_00
10
324.169
20
-25.507
30
0.0
0
VERTEX
8
SLAB_00
10
325.158
20
-17.039
30
0.0
0
VERTEX
8
SLAB_00
10
325.753
20
-8.530
30
0.0
0
SEQEND
8
SLAB_00
0
TEXT
8
TEXT
10
0.000
20
194.412
30
0.0
40
8.0
1
23: s'=+478 D=359
0
CIRCLE
8
DOWEL
10
15.000
20
18.000
30
0.0
40
3.250
0
TEXT
8
DOWEL
10
20.000
20
16.000
30
0.0
40
3.0
1
A
0
CIRCLE
8
DOWEL
10
15.000
20
-18.000
30
0.0
40
3.250
0
TEXT
8
DOWEL
10
20.000
20
-20.000
30
0.0
40
3.0
1
B
0
CIRCLE
8
DOWEL
10
45.000
20
18.000
30
0.0
40
3.250
0
TEXT
8
DOWEL
10
50.000
20
16.000
30
0.0
40
3.0
1
C
0
CIRCLE
8
DOWEL
10
45.000
20
-18.000
30
0.0
40
3.250
0
TEXT
8
DOWEL
10
50.000
20
-20.000
30
0.0
40
3.0
1
D
0
ENDSEC
0
EOF