0
SECTION
2
HEADER
9
$ACADVER
1
AC1009
9
$INSUNITS
70
4
0
ENDSEC
0
SECTION
2
TABLES
0
TABLE
2
LAYER
70
4
0
LAYER
2
0
70
0
62
7
6
CONTINUOUS
0
LAYER
2
TEXT
70
0
62
1
6
CONTINUOUS
0
LAYER
2
DOWEL
70
0
62
5
6
CONTINUOUS
0
LAYER
2
SLAB_00
70
0
62
2
6
CONTINUOUS
0
ENDTAB
0
ENDSEC
0
SECTION
2
ENTITIES
0
POLYLINE
8
SLAB_00
66
1
70
1
10
0.0
20
0.0
30
0.0
0
VERTEX
8
SLAB_00
10
239.194
20
0.000
30
0.0
0
VERTEX
8
SLAB_00
10
239.048
20
6.260
30
0.0
0
VERTEX
8
SLAB_00
10
238.611
20
12.504
30
0.0
0
VERTEX
8
SLAB_00
10
237.885
20
18.718
30
0.0
0
VERTEX
8
SLAB_00
10
236.872
20
24.886
30
0.0
0
VERTEX
8
SLAB_00
10
235.574
20
30.994
30
0.0
0
VERTEX
8
SLAB_00
10
233.995
20
37.027
30
0.0
0
VERTEX
8
SLAB_00
10
232.141
20
42.970
30
0.0
0
VERTEX
8
SLAB_00
10
230.018
20
48.810
30
0.0
0
VERTEX
8
SLAB_00
10
227.630
20
54.532
30
0.0
0
VERTEX
8
SLAB_00
10
224.986
20
60.123
30
0.0
0
VERTEX
8
SLAB_00
10
222.094
20
65.572
30
0.0
0
VERTEX
8
SLAB_00
10
218.961
20
70.864
30
0.0
0
VERTEX
8
SLAB_00
10
215.598
20
75.989
30
0.0
0
VERTEX
8
SLAB_00
10
212.015
20
80.935
30
0.0
0
VERTEX
8
SLAB_00
10
208.221
20
85.692
30
0.0
0
VERTEX
8
SLAB_00
10
204.229
20
90.250
30
0.0
0
VERTEX
8
SLAB_00
10
200.048
20
94.600
30
0.0
0
VERTEX
8
SLAB_00
10
195.693
20
98.733
30
0.0
0
VERTEX
8
SLAB_00
10
191.175
20
102.642
30
0.0
0
VERTEX
8
SLAB_00
10
186.506
20
106.320
30
0.0
0
VERTEX
8
SLAB_00
10
181.701
20
109.761
30
0.0
0
VERTEX
8
SLAB_00
10
176.772
20
112.960
30
0.0
0
VERTEX
8
SLAB_00
10
171.733
20
115.912
30
0.0
0
VERTEX
8
SLAB_00
10
166.598
20
118.613
30
0.0
0
VERTEX
8
SLAB_00
10
161.381
20
121.061
30
0.0
0
VERTEX
8
SLAB_00
10
156.096
20
123.255
30
0.0
0
VERTEX
8
SLAB_00
10
150.756
20
125.192
30
0.0
0
VERTEX
8
SLAB_00
10
145.375
20
126.872
30
0.0
0
VERTEX
8
SLAB_00
10
139.967
20
128.297
30
0.0
0
VERTEX
8
SLAB_00
10
134.546
20
129.467
30
0.0
0
VERTEX
8
SLAB_00
10
129.126
20
130.385
30
0.0
0
VERTEX
8
SLAB_00
10
123.718
20
131.054
30
0.0
0
VERTEX
8
SLAB_00
10
118.336
20
131.477
30
0.0
0
VERTEX
8
SLAB_00
10
112.992
20
131.658
30
0.0
0
VERTEX
8
SLAB_00
10
107.698
20
131.603
30
0.0
0
VERTEX
8
SLAB_00
10
102.466
20
131.318
30
0.0
0
VERTEX
8
SLAB_00
10
97.307
20
130.808
30
0.0
0
VERTEX
8
SLAB_00
10
92.231
20
130.081
30
0.0
0
VERTEX
8
SLAB_00
10
87.249
20
129.144
30
0.0
0
VERTEX
8
SLAB_00
10
82.369
20
128.006
30
0.0
0
VERTEX
8
SLAB_00
10
77.601
20
126.674
30
0.0
0
VERTEX
8
SLAB_00
10
72.953
20
125.158
30
0.0
0
VERTEX
8
SLAB_00
10
68.432
20
123.467
30
0.0
0
VERTEX
8
SLAB_00
10
64.045
20
121.610
30
0.0
0
VERTEX
8
SLAB_00
10
59.798
20
119.597
30
0.0
0
VERTEX
8
SLAB_00
10
55.697
20
117.438
30
0.0
0
VERTEX
8
SLAB_00
10
51.747
20
115.144
30
0.0
0
VERTEX
8
SLAB_00
10
47.951
20
112.725
30
0.0
0
VERTEX
8
SLAB_00
10
44.312
20
110.192
30
0.0
0
VERTEX
8
SLAB_00
10
40.834
20
107.554
30
0.0
0
VERTEX
8
SLAB_00
10
37.518
20
104.822
30
0.0
0
VERTEX
8
SLAB_00
10
34.365
20
102.007
30
0.0
0
VERTEX
8
SLAB_00
10
31.376
20
99.120
30
0.0
0
VERTEX
8
SLAB_00
10
28.551
20
96.169
30
0.0
0
VERTEX
8
SLAB_00
10
25.889
20
93.165
30
0.0
0
VERTEX
8
SLAB_00
10
23.388
20
90.119
30
0.0
0
VERTEX
8
SLAB_00
10
21.047
20
87.038
30
0.0
0
VERTEX
8
SLAB_00
10
18.862
20
83.932
30
0.0
0
VERTEX
8
SLAB_00
10
16.831
20
80.810
30
0.0
0
VERTEX
8
SLAB_00
10
14.950
20
77.680
30
0.0
0
VERTEX
8
SLAB_00
10
13.214
20
74.551
30
0.0
0
VERTEX
8
SLAB_00
10
11.619
20
71.428
30
0.0
0
VERTEX
8
SLAB_00
10
10.161
20
68.320
30
0.0
0
VERTEX
8
SLAB_00
10
8.833
20
65.233
30
0.0
0
VERTEX
8
SLAB_00
10
7.630
20
62.172
30
0.0
0
VERTEX
8
SLAB_00
10
6.546
20
59.142
30
0.0
0
VERTEX
8
SLAB_00
10
5.575
20
56.150
30
0.0
0
VERTEX
8
SLAB_00
10
4.710
20
53.198
30
0.0
0
VERTEX
8
SLAB_00
10
3.945
20
50.290
30
0.0
0
VERTEX
8
SLAB_00
10
3.273
20
47.430
30
0.0
0
VERTEX
8
SLAB_00
10
2.687
20
44.620
30
0.0
0
VERTEX
8
SLAB_00
10
2.181
20
41.861
30
0.0
0
VERTEX
8
SLAB_00
10
1.748
20
39.156
30
0.0
0
VERTEX
8
SLAB_00
10
1.381
20
36.503
30
0.0
0
VERTEX
8
SLAB_00
10
1.073
20
33.905
30
0.0
0
VERTEX
8
SLAB_00
10
0.819
20
31.360
30
0.0
0
VERTEX
8
SLAB_00
10
0.612
20
28.867
30
0.0
0
VERTEX
8
SLAB_00
10
0.447
20
26.425
30
0.0
0
VERTEX
8
SLAB_00
10
0.317
20
24.032
30
0.0
0
VERTEX
8
SLAB_00
10
0.217
20
21.686
30
0.0
0
VERTEX
8
SLAB_00
10
0.143
20
19.383
30
0.0
0
VERTEX
8
SLAB_00
10
0.090
20
17.121
30
0.0
0
VERTEX
8
SLAB_00
10
0.053
20
14.896
30
0.0
0
VERTEX
8
SLAB_00
10
0.029
20
12.704
30
0.0
0
VERTEX
8
SLAB_00
10
0.014
20
10.542
30
0.0
0
VERTEX
8
SLAB_00
10
0.006
20
8.403
30
0.0
0
VERTEX
8
SLAB_00
10
0.002
20
6.285
30
0.0
0
VERTEX
8
SLAB_00
10
0.000
20
4.181
30
0.0
0
VERTEX
8
SLAB_00
10
0.000
20
2.088
30
0.0
0
VERTEX
8
SLAB_00
10
0.000
20
0.000
30
0.0
0
VERTEX
8
SLAB_00
10
0.000
20
-2.088
30
0.0
0
VERTEX
8
SLAB_00
10
0.000
20
-4.181
30
0.0
0
VERTEX
8
SLAB_00
10
0.002
20
-6.285
30
0.0
0
VERTEX
8
SLAB_00
10
0.006
20
-8.403
30
0.0
0
VERTEX
8
SLAB_00
10
0.014
20
-10.542
30
0.0
0
VERTEX
8
SLAB_00
10
0.029
20
-12.704
30
0.0
0
VERTEX
8
SLAB_00
10
0.053
20
-14.896
30
0.0
0
VERTEX
8
SLAB_00
10
0.090
20
-17.121
30
0.0
0
VERTEX
8
SLAB_00
10
0.143
20
-19.383
30
0.0
0
VERTEX
8
SLAB_00
10
0.217
20
-21.686
30
0.0
0
VERTEX
8
SLAB_00
10
0.317
20
-24.032
30
0.0
0
VERTEX
8
SLAB_00
10
0.447
20
-26.425
30
0.0
0
VERTEX
8
SLAB_00
10
0.612
20
-28.867
30
0.0
0
VERTEX
8
SLAB_00
10
0.819
20
-31.360
30
0.0
0
VERTEX
8
SLAB_00
10
1.073
20
-33.905
30
0.0
0
VERTEX
8
SLAB_00
10
1.381
20
-36.503
30
0.0
0
VERTEX
8
SLAB_00
10
1.748
20
-39.156
30
0.0
0
VERTEX
8
SLAB_00
10
2.181
20
-41.861
30
0.0
0
VERTEX
8
SLAB_00
10
2.687
20
-44.620
30
0.0
0
VERTEX
8
SLAB_00
10
3.273
20
-47.430
30
0.0
0
VERTEX
8
SLAB_00
10
3.945
20
-50.290
30
0.0
0
VERTEX
8
SLAB_00
10
4.710
20
-53.198
30
0.0
0
VERTEX
8
SLAB_00
10
5.575
20
-56.150
30
0.0
0
VERTEX
8
SLAB_00
10
6.546
20
-59.142
30
0.0
0
VERTEX
8
SLAB_00
10
7.630
20
-62.172
30
0.0
0
VERTEX
8
SLAB_00
10
8.833
20
-65.233
30
0.0
0
VERTEX
8
SLAB_00
10
10.161
20
-68.320
30
0.0
0
VERTEX
8
SLAB_00
10
11.619
20
-71.428
30
0.0
0
VERTEX
8
SLAB_00
10
13.214
20
-74.551
30
0.0
0
VERTEX
8
SLAB_00
10
14.950
20
-77.680
30
0.0
0
VERTEX
8
SLAB_00
10
16.831
20
-80.810
30
0.0
0
VERTEX
8
SLAB_00
10
18.862
20
-83.932
30
0.0
0
VERTEX
8
SLAB_00
10
21.047
20
-87.038
30
0.0
0
VERTEX
8
SLAB_00
10
23.388
20
-90.119
30
0.0
0
VERTEX
8
SLAB_00
10
25.889
20
-93.165
30
0.0
0
VERTEX
8
SLAB_00
10
28.551
20
-96.169
30
0.0
0
VERTEX
8
SLAB_00
10
31.376
20
-99.120
30
0.0
0
VERTEX
8
SLAB_00
10
34.365
20
-102.007
30
0.0
0
VERTEX
8
SLAB_00
10
37.518
20
-104.822
30
0.0
0
VERTEX
8
SLAB_00
10
40.834
20
-107.554
30
0.0
0
VERTEX
8
SLAB_00
10
44.312
20
-110.192
30
0.0
0
VERTEX
8
SLAB_00
10
47.951
20
-112.725
30
0.0
0
VERTEX
8
SLAB_00
10
51.747
20
-115.144
30
0.0
0
VERTEX
8
SLAB_00
10
55.697
20
-117.438
30
0.0
0
VERTEX
8
SLAB_00
10
59.798
20
-119.597
30
0.0
0
VERTEX
8
SLAB_00
10
64.045
20
-121.610
30
0.0
0
VERTEX
8
SLAB_00
10
68.432
20
-123.467
30
0.0
0
VERTEX
8
SLAB_00
10
72.953
20
-125.158
30
0.0
0
VERTEX
8
SLAB_00
10
77.601
20
-126.674
30
0.0
0
VERTEX
8
SLAB_00
10
82.369
20
-128.006
30
0.0
0
VERTEX
8
SLAB_00
10
87.249
20
-129.144
30
0.0
0
VERTEX
8
SLAB_00
10
92.231
20
-130.081
30
0.0
0
VERTEX
8
SLAB_00
10
97.307
20
-130.808
30
0.0
0
VERTEX
8
SLAB_00
10
102.466
20
-131.318
30
0.0
0
VERTEX
8
SLAB_00
10
107.698
20
-131.603
30
0.0
0
VERTEX
8
SLAB_00
10
112.992
20
-131.658
30
0.0
0
VERTEX
8
SLAB_00
10
118.336
20
-131.477
30
0.0
0
VERTEX
8
SLAB_00
10
123.718
20
-131.054
30
0.0
0
VERTEX
8
SLAB_00
10
129.126
20
-130.385
30
0.0
0
VERTEX
8
SLAB_00
10
134.546
20
-129.467
30
0.0
0
VERTEX
8
SLAB_00
10
139.967
20
-128.297
30
0.0
0
VERTEX
8
SLAB_00
10
145.375
20
-126.872
30
0.0
0
VERTEX
8
SLAB_00
10
150.756
20
-125.192
30
0.0
0
VERTEX
8
SLAB_00
10
156.096
20
-123.255
30
0.0
0
VERTEX
8
SLAB_00
10
161.381
20
-121.061
30
0.0
0
VERTEX
8
SLAB_00
10
166.598
20
-118.613
30
0.0
0
VERTEX
8
SLAB_00
10
171.733
20
-115.912
30
0.0
0
VERTEX
8
SLAB_00
10
176.772
20
-112.960
30
0.0
0
VERTEX
8
SLAB_00
10
181.701
20
-109.761
30
0.0
0
VERTEX
8
SLAB_00
10
186.506
20
-106.320
30
0.0
0
VERTEX
8
SLAB_00
10
191.175
20
-102.642
30
0.0
0
VERTEX
8
SLAB_00
10
195.693
20
-98.733
30
0.0
0
VERTEX
8
SLAB_00
10
200.048
20
-94.600
30
0.0
0
VERTEX
8
SLAB_00
10
204.229
20
-90.250
30
0.0
0
VERTEX
8
SLAB_00
10
208.221
20
-85.692
30
0.0
0
VERTEX
8
SLAB_00
10
212.015
20
-80.935
30
0.0
0
VERTEX
8
SLAB_00
10
215.598
20
-75.989
30
0.0
0
VERTEX
8
SLAB_00
10
218.961
20
-70.864
30
0.0
0
VERTEX
8
SLAB_00
10
222.094
20
-65.572
30
0.0
0
VERTEX
8
SLAB_00
10
224.986
20
-60.123
30
0.0
0
VERTEX
8
SLAB_00
10
227.630
20
-54.532
30
0.0
0
VERTEX
8
SLAB_00
10
230.018
20
-48.810
30
0.0
0
VERTEX
8
SLAB_00
10
232.141
20
-42.970
30
0.0
0
VERTEX
8
SLAB_00
10
233.995
20
-37.027
30
0.0
0
VERTEX
8
SLAB_00
10
235.574
20
-30.994
30
0.0
0
VERTEX
8
SLAB_00
10
236.872
20
-24.886
30
0.0
0
VERTEX
8
SLAB_00
10
237.885
20
-18.718
30
0.0
0
VERTEX
8
SLAB_00
10
238.611
20
-12.504
30
0.0
0
VERTEX
8
SLAB_00
10
239.048
20
-6.260
30
0.0
0
SEQEND
8
SLAB_00
0
TEXT
8
TEXT
10
0.000
20
146.658
30
0.0
40
8.0
1
46: s'=+1036 D=263
0
CIRCLE
8
DOWEL
10
15.000
20
18.000
30
0.0
40
3.250
0
TEXT
8
DOWEL
10
20.000
20
16.000
30
0.0
40
3.0
1
A
0
CIRCLE
8
DOWEL
10
15.000
20
-18.000
30
0.0
40
3.250
0
TEXT
8
DOWEL
10
20.000
20
-20.000
30
0.0
40
3.0
1
B
0
CIRCLE
8
DOWEL
10
45.000
20
18.000
30
0.0
40
3.250
0
TEXT
8
DOWEL
10
50.000
20
16.000
30
0.0
40
3.0
1
C
0
CIRCLE
8
DOWEL
10
45.000
20
-18.000
30
0.0
40
3.250
0
TEXT
8
DOWEL
10
50.000
20
-20.000
30
0.0
40
3.0
1
D
0
ENDSEC
0
EOF