0
SECTION
2
HEADER
9
$ACADVER
1
AC1009
9
$INSUNITS
70
4
0
ENDSEC
0
SECTION
2
TABLES
0
TABLE
2
LAYER
70
4
0
LAYER
2
0
70
0
62
7
6
CONTINUOUS
0
LAYER
2
TEXT
70
0
62
1
6
CONTINUOUS
0
LAYER
2
DOWEL
70
0
62
5
6
CONTINUOUS
0
LAYER
2
SLAB_00
70
0
62
2
6
CONTINUOUS
0
ENDTAB
0
ENDSEC
0
SECTION
2
ENTITIES
0
POLYLINE
8
SLAB_00
66
1
70
1
10
0.0
20
0.0
30
0.0
0
VERTEX
8
SLAB_00
10
237.066
20
0.000
30
0.0
0
VERTEX
8
SLAB_00
10
236.922
20
6.204
30
0.0
0
VERTEX
8
SLAB_00
10
236.489
20
12.393
30
0.0
0
VERTEX
8
SLAB_00
10
235.769
20
18.551
30
0.0
0
VERTEX
8
SLAB_00
10
234.765
20
24.665
30
0.0
0
VERTEX
8
SLAB_00
10
233.478
20
30.718
30
0.0
0
VERTEX
8
SLAB_00
10
231.914
20
36.697
30
0.0
0
VERTEX
8
SLAB_00
10
230.076
20
42.588
30
0.0
0
VERTEX
8
SLAB_00
10
227.971
20
48.375
30
0.0
0
VERTEX
8
SLAB_00
10
225.605
20
54.047
30
0.0
0
VERTEX
8
SLAB_00
10
222.985
20
59.589
30
0.0
0
VERTEX
8
SLAB_00
10
220.118
20
64.988
30
0.0
0
VERTEX
8
SLAB_00
10
217.014
20
70.234
30
0.0
0
VERTEX
8
SLAB_00
10
213.681
20
75.313
30
0.0
0
VERTEX
8
SLAB_00
10
210.129
20
80.215
30
0.0
0
VERTEX
8
SLAB_00
10
206.369
20
84.930
30
0.0
0
VERTEX
8
SLAB_00
10
202.412
20
89.447
30
0.0
0
VERTEX
8
SLAB_00
10
198.269
20
93.758
30
0.0
0
VERTEX
8
SLAB_00
10
193.952
20
97.855
30
0.0
0
VERTEX
8
SLAB_00
10
189.474
20
101.729
30
0.0
0
VERTEX
8
SLAB_00
10
184.847
20
105.375
30
0.0
0
VERTEX
8
SLAB_00
10
180.084
20
108.785
30
0.0
0
VERTEX
8
SLAB_00
10
175.199
20
111.955
30
0.0
0
VERTEX
8
SLAB_00
10
170.206
20
114.881
30
0.0
0
VERTEX
8
SLAB_00
10
165.116
20
117.558
30
0.0
0
VERTEX
8
SLAB_00
10
159.946
20
119.985
30
0.0
0
VERTEX
8
SLAB_00
10
154.707
20
122.158
30
0.0
0
VERTEX
8
SLAB_00
10
149.415
20
124.078
30
0.0
0
VERTEX
8
SLAB_00
10
144.082
20
125.744
30
0.0
0
VERTEX
8
SLAB_00
10
138.722
20
127.156
30
0.0
0
VERTEX
8
SLAB_00
10
133.350
20
128.316
30
0.0
0
VERTEX
8
SLAB_00
10
127.977
20
129.226
30
0.0
0
VERTEX
8
SLAB_00
10
122.617
20
129.888
30
0.0
0
VERTEX
8
SLAB_00
10
117.283
20
130.307
30
0.0
0
VERTEX
8
SLAB_00
10
111.987
20
130.487
30
0.0
0
VERTEX
8
SLAB_00
10
106.740
20
130.432
30
0.0
0
VERTEX
8
SLAB_00
10
101.555
20
130.150
30
0.0
0
VERTEX
8
SLAB_00
10
96.441
20
129.644
30
0.0
0
VERTEX
8
SLAB_00
10
91.411
20
128.924
30
0.0
0
VERTEX
8
SLAB_00
10
86.473
20
127.996
30
0.0
0
VERTEX
8
SLAB_00
10
81.637
20
126.867
30
0.0
0
VERTEX
8
SLAB_00
10
76.911
20
125.547
30
0.0
0
VERTEX
8
SLAB_00
10
72.304
20
124.045
30
0.0
0
VERTEX
8
SLAB_00
10
67.823
20
122.368
30
0.0
0
VERTEX
8
SLAB_00
10
63.475
20
120.528
30
0.0
0
VERTEX
8
SLAB_00
10
59.267
20
118.533
30
0.0
0
VERTEX
8
SLAB_00
10
55.202
20
116.394
30
0.0
0
VERTEX
8
SLAB_00
10
51.286
20
114.120
30
0.0
0
VERTEX
8
SLAB_00
10
47.524
20
111.723
30
0.0
0
VERTEX
8
SLAB_00
10
43.918
20
109.211
30
0.0
0
VERTEX
8
SLAB_00
10
40.471
20
106.597
30
0.0
0
VERTEX
8
SLAB_00
10
37.184
20
103.890
30
0.0
0
VERTEX
8
SLAB_00
10
34.059
20
101.100
30
0.0
0
VERTEX
8
SLAB_00
10
31.097
20
98.238
30
0.0
0
VERTEX
8
SLAB_00
10
28.297
20
95.314
30
0.0
0
VERTEX
8
SLAB_00
10
25.659
20
92.337
30
0.0
0
VERTEX
8
SLAB_00
10
23.180
20
89.317
30
0.0
0
VERTEX
8
SLAB_00
10
20.860
20
86.263
30
0.0
0
VERTEX
8
SLAB_00
10
18.694
20
83.185
30
0.0
0
VERTEX
8
SLAB_00
10
16.681
20
80.091
30
0.0
0
VERTEX
8
SLAB_00
10
14.817
20
76.989
30
0.0
0
VERTEX
8
SLAB_00
10
13.096
20
73.887
30
0.0
0
VERTEX
8
SLAB_00
10
11.516
20
70.793
30
0.0
0
VERTEX
8
SLAB_00
10
10.071
20
67.712
30
0.0
0
VERTEX
8
SLAB_00
10
8.755
20
64.652
30
0.0
0
VERTEX
8
SLAB_00
10
7.562
20
61.618
30
0.0
0
VERTEX
8
SLAB_00
10
6.488
20
58.616
30
0.0
0
VERTEX
8
SLAB_00
10
5.526
20
55.650
30
0.0
0
VERTEX
8
SLAB_00
10
4.668
20
52.725
30
0.0
0
VERTEX
8
SLAB_00
10
3.910
20
49.843
30
0.0
0
VERTEX
8
SLAB_00
10
3.244
20
47.008
30
0.0
0
VERTEX
8
SLAB_00
10
2.663
20
44.223
30
0.0
0
VERTEX
8
SLAB_00
10
2.162
20
41.489
30
0.0
0
VERTEX
8
SLAB_00
10
1.732
20
38.807
30
0.0
0
VERTEX
8
SLAB_00
10
1.368
20
36.179
30
0.0
0
VERTEX
8
SLAB_00
10
1.064
20
33.603
30
0.0
0
VERTEX
8
SLAB_00
10
0.812
20
31.081
30
0.0
0
VERTEX
8
SLAB_00
10
0.607
20
28.610
30
0.0
0
VERTEX
8
SLAB_00
10
0.443
20
26.190
30
0.0
0
VERTEX
8
SLAB_00
10
0.314
20
23.818
30
0.0
0
VERTEX
8
SLAB_00
10
0.216
20
21.493
30
0.0
0
VERTEX
8
SLAB_00
10
0.142
20
19.211
30
0.0
0
VERTEX
8
SLAB_00
10
0.089
20
16.969
30
0.0
0
VERTEX
8
SLAB_00
10
0.052
20
14.764
30
0.0
0
VERTEX
8
SLAB_00
10
0.028
20
12.591
30
0.0
0
VERTEX
8
SLAB_00
10
0.014
20
10.448
30
0.0
0
VERTEX
8
SLAB_00
10
0.006
20
8.329
30
0.0
0
VERTEX
8
SLAB_00
10
0.002
20
6.229
30
0.0
0
VERTEX
8
SLAB_00
10
0.000
20
4.144
30
0.0
0
VERTEX
8
SLAB_00
10
0.000
20
2.070
30
0.0
0
VERTEX
8
SLAB_00
10
0.000
20
0.000
30
0.0
0
VERTEX
8
SLAB_00
10
0.000
20
-2.070
30
0.0
0
VERTEX
8
SLAB_00
10
0.000
20
-4.144
30
0.0
0
VERTEX
8
SLAB_00
10
0.002
20
-6.229
30
0.0
0
VERTEX
8
SLAB_00
10
0.006
20
-8.329
30
0.0
0
VERTEX
8
SLAB_00
10
0.014
20
-10.448
30
0.0
0
VERTEX
8
SLAB_00
10
0.028
20
-12.591
30
0.0
0
VERTEX
8
SLAB_00
10
0.052
20
-14.764
30
0.0
0
VERTEX
8
SLAB_00
10
0.089
20
-16.969
30
0.0
0
VERTEX
8
SLAB_00
10
0.142
20
-19.211
30
0.0
0
VERTEX
8
SLAB_00
10
0.216
20
-21.493
30
0.0
0
VERTEX
8
SLAB_00
10
0.314
20
-23.818
30
0.0
0
VERTEX
8
SLAB_00
10
0.443
20
-26.190
30
0.0
0
VERTEX
8
SLAB_00
10
0.607
20
-28.610
30
0.0
0
VERTEX
8
SLAB_00
10
0.812
20
-31.081
30
0.0
0
VERTEX
8
SLAB_00
10
1.064
20
-33.603
30
0.0
0
VERTEX
8
SLAB_00
10
1.368
20
-36.179
30
0.0
0
VERTEX
8
SLAB_00
10
1.732
20
-38.807
30
0.0
0
VERTEX
8
SLAB_00
10
2.162
20
-41.489
30
0.0
0
VERTEX
8
SLAB_00
10
2.663
20
-44.223
30
0.0
0
VERTEX
8
SLAB_00
10
3.244
20
-47.008
30
0.0
0
VERTEX
8
SLAB_00
10
3.910
20
-49.843
30
0.0
0
VERTEX
8
SLAB_00
10
4.668
20
-52.725
30
0.0
0
VERTEX
8
SLAB_00
10
5.526
20
-55.650
30
0.0
0
VERTEX
8
SLAB_00
10
6.488
20
-58.616
30
0.0
0
VERTEX
8
SLAB_00
10
7.562
20
-61.618
30
0.0
0
VERTEX
8
SLAB_00
10
8.755
20
-64.652
30
0.0
0
VERTEX
8
SLAB_00
10
10.071
20
-67.712
30
0.0
0
VERTEX
8
SLAB_00
10
11.516
20
-70.793
30
0.0
0
VERTEX
8
SLAB_00
10
13.096
20
-73.887
30
0.0
0
VERTEX
8
SLAB_00
10
14.817
20
-76.989
30
0.0
0
VERTEX
8
SLAB_00
10
16.681
20
-80.091
30
0.0
0
VERTEX
8
SLAB_00
10
18.694
20
-83.185
30
0.0
0
VERTEX
8
SLAB_00
10
20.860
20
-86.263
30
0.0
0
VERTEX
8
SLAB_00
10
23.180
20
-89.317
30
0.0
0
VERTEX
8
SLAB_00
10
25.659
20
-92.337
30
0.0
0
VERTEX
8
SLAB_00
10
28.297
20
-95.314
30
0.0
0
VERTEX
8
SLAB_00
10
31.097
20
-98.238
30
0.0
0
VERTEX
8
SLAB_00
10
34.059
20
-101.100
30
0.0
0
VERTEX
8
SLAB_00
10
37.184
20
-103.890
30
0.0
0
VERTEX
8
SLAB_00
10
40.471
20
-106.597
30
0.0
0
VERTEX
8
SLAB_00
10
43.918
20
-109.211
30
0.0
0
VERTEX
8
SLAB_00
10
47.524
20
-111.723
30
0.0
0
VERTEX
8
SLAB_00
10
51.286
20
-114.120
30
0.0
0
VERTEX
8
SLAB_00
10
55.202
20
-116.394
30
0.0
0
VERTEX
8
SLAB_00
10
59.267
20
-118.533
30
0.0
0
VERTEX
8
SLAB_00
10
63.475
20
-120.528
30
0.0
0
VERTEX
8
SLAB_00
10
67.823
20
-122.368
30
0.0
0
VERTEX
8
SLAB_00
10
72.304
20
-124.045
30
0.0
0
VERTEX
8
SLAB_00
10
76.911
20
-125.547
30
0.0
0
VERTEX
8
SLAB_00
10
81.637
20
-126.867
30
0.0
0
VERTEX
8
SLAB_00
10
86.473
20
-127.996
30
0.0
0
VERTEX
8
SLAB_00
10
91.411
20
-128.924
30
0.0
0
VERTEX
8
SLAB_00
10
96.441
20
-129.644
30
0.0
0
VERTEX
8
SLAB_00
10
101.555
20
-130.150
30
0.0
0
VERTEX
8
SLAB_00
10
106.740
20
-130.432
30
0.0
0
VERTEX
8
SLAB_00
10
111.987
20
-130.487
30
0.0
0
VERTEX
8
SLAB_00
10
117.283
20
-130.307
30
0.0
0
VERTEX
8
SLAB_00
10
122.617
20
-129.888
30
0.0
0
VERTEX
8
SLAB_00
10
127.977
20
-129.226
30
0.0
0
VERTEX
8
SLAB_00
10
133.350
20
-128.316
30
0.0
0
VERTEX
8
SLAB_00
10
138.722
20
-127.156
30
0.0
0
VERTEX
8
SLAB_00
10
144.082
20
-125.744
30
0.0
0
VERTEX
8
SLAB_00
10
149.415
20
-124.078
30
0.0
0
VERTEX
8
SLAB_00
10
154.707
20
-122.158
30
0.0
0
VERTEX
8
SLAB_00
10
159.946
20
-119.985
30
0.0
0
VERTEX
8
SLAB_00
10
165.116
20
-117.558
30
0.0
0
VERTEX
8
SLAB_00
10
170.206
20
-114.881
30
0.0
0
VERTEX
8
SLAB_00
10
175.199
20
-111.955
30
0.0
0
VERTEX
8
SLAB_00
10
180.084
20
-108.785
30
0.0
0
VERTEX
8
SLAB_00
10
184.847
20
-105.375
30
0.0
0
VERTEX
8
SLAB_00
10
189.474
20
-101.729
30
0.0
0
VERTEX
8
SLAB_00
10
193.952
20
-97.855
30
0.0
0
VERTEX
8
SLAB_00
10
198.269
20
-93.758
30
0.0
0
VERTEX
8
SLAB_00
10
202.412
20
-89.447
30
0.0
0
VERTEX
8
SLAB_00
10
206.369
20
-84.930
30
0.0
0
VERTEX
8
SLAB_00
10
210.129
20
-80.215
30
0.0
0
VERTEX
8
SLAB_00
10
213.681
20
-75.313
30
0.0
0
VERTEX
8
SLAB_00
10
217.014
20
-70.234
30
0.0
0
VERTEX
8
SLAB_00
10
220.118
20
-64.988
30
0.0
0
VERTEX
8
SLAB_00
10
222.985
20
-59.589
30
0.0
0
VERTEX
8
SLAB_00
10
225.605
20
-54.047
30
0.0
0
VERTEX
8
SLAB_00
10
227.971
20
-48.375
30
0.0
0
VERTEX
8
SLAB_00
10
230.076
20
-42.588
30
0.0
0
VERTEX
8
SLAB_00
10
231.914
20
-36.697
30
0.0
0
VERTEX
8
SLAB_00
10
233.478
20
-30.718
30
0.0
0
VERTEX
8
SLAB_00
10
234.765
20
-24.665
30
0.0
0
VERTEX
8
SLAB_00
10
235.769
20
-18.551
30
0.0
0
VERTEX
8
SLAB_00
10
236.489
20
-12.393
30
0.0
0
VERTEX
8
SLAB_00
10
236.922
20
-6.204
30
0.0
0
SEQEND
8
SLAB_00
0
TEXT
8
TEXT
10
0.000
20
145.487
30
0.0
40
8.0
1
07: s'=+72 D=261
0
CIRCLE
8
DOWEL
10
15.000
20
18.000
30
0.0
40
3.250
0
TEXT
8
DOWEL
10
20.000
20
16.000
30
0.0
40
3.0
1
A
0
CIRCLE
8
DOWEL
10
15.000
20
-18.000
30
0.0
40
3.250
0
TEXT
8
DOWEL
10
20.000
20
-20.000
30
0.0
40
3.0
1
B
0
CIRCLE
8
DOWEL
10
45.000
20
18.000
30
0.0
40
3.250
0
TEXT
8
DOWEL
10
50.000
20
16.000
30
0.0
40
3.0
1
C
0
CIRCLE
8
DOWEL
10
45.000
20
-18.000
30
0.0
40
3.250
0
TEXT
8
DOWEL
10
50.000
20
-20.000
30
0.0
40
3.0
1
D
0
ENDSEC
0
EOF