0
SECTION
2
HEADER
9
$ACADVER
1
AC1009
9
$INSUNITS
70
4
0
ENDSEC
0
SECTION
2
TABLES
0
TABLE
2
LAYER
70
4
0
LAYER
2
0
70
0
62
7
6
CONTINUOUS
0
LAYER
2
TEXT
70
0
62
1
6
CONTINUOUS
0
LAYER
2
DOWEL
70
0
62
5
6
CONTINUOUS
0
LAYER
2
SLAB_00
70
0
62
2
6
CONTINUOUS
0
ENDTAB
0
ENDSEC
0
SECTION
2
ENTITIES
0
POLYLINE
8
SLAB_00
66
1
70
1
10
0.0
20
0.0
30
0.0
0
VERTEX
8
SLAB_00
10
64.372
20
0.000
30
0.0
0
VERTEX
8
SLAB_00
10
64.332
20
1.685
30
0.0
0
VERTEX
8
SLAB_00
10
64.215
20
3.365
30
0.0
0
VERTEX
8
SLAB_00
10
64.019
20
5.037
30
0.0
0
VERTEX
8
SLAB_00
10
63.747
20
6.697
30
0.0
0
VERTEX
8
SLAB_00
10
63.397
20
8.341
30
0.0
0
VERTEX
8
SLAB_00
10
62.973
20
9.965
30
0.0
0
VERTEX
8
SLAB_00
10
62.474
20
11.564
30
0.0
0
VERTEX
8
SLAB_00
10
61.902
20
13.136
30
0.0
0
VERTEX
8
SLAB_00
10
61.260
20
14.676
30
0.0
0
VERTEX
8
SLAB_00
10
60.548
20
16.180
30
0.0
0
VERTEX
8
SLAB_00
10
59.770
20
17.647
30
0.0
0
VERTEX
8
SLAB_00
10
58.927
20
19.071
30
0.0
0
VERTEX
8
SLAB_00
10
58.022
20
20.450
30
0.0
0
VERTEX
8
SLAB_00
10
57.057
20
21.781
30
0.0
0
VERTEX
8
SLAB_00
10
56.036
20
23.061
30
0.0
0
VERTEX
8
SLAB_00
10
54.962
20
24.288
30
0.0
0
VERTEX
8
SLAB_00
10
53.837
20
25.459
30
0.0
0
VERTEX
8
SLAB_00
10
52.665
20
26.571
30
0.0
0
VERTEX
8
SLAB_00
10
51.449
20
27.623
30
0.0
0
VERTEX
8
SLAB_00
10
50.192
20
28.613
30
0.0
0
VERTEX
8
SLAB_00
10
48.899
20
29.539
30
0.0
0
VERTEX
8
SLAB_00
10
47.573
20
30.400
30
0.0
0
VERTEX
8
SLAB_00
10
46.217
20
31.194
30
0.0
0
VERTEX
8
SLAB_00
10
44.835
20
31.921
30
0.0
0
VERTEX
8
SLAB_00
10
43.431
20
32.580
30
0.0
0
VERTEX
8
SLAB_00
10
42.008
20
33.170
30
0.0
0
VERTEX
8
SLAB_00
10
40.571
20
33.691
30
0.0
0
VERTEX
8
SLAB_00
10
39.123
20
34.144
30
0.0
0
VERTEX
8
SLAB_00
10
37.668
20
34.527
30
0.0
0
VERTEX
8
SLAB_00
10
36.209
20
34.842
30
0.0
0
VERTEX
8
SLAB_00
10
34.750
20
35.089
30
0.0
0
VERTEX
8
SLAB_00
10
33.295
20
35.269
30
0.0
0
VERTEX
8
SLAB_00
10
31.846
20
35.383
30
0.0
0
VERTEX
8
SLAB_00
10
30.408
20
35.432
30
0.0
0
VERTEX
8
SLAB_00
10
28.984
20
35.417
30
0.0
0
VERTEX
8
SLAB_00
10
27.576
20
35.340
30
0.0
0
VERTEX
8
SLAB_00
10
26.187
20
35.203
30
0.0
0
VERTEX
8
SLAB_00
10
24.821
20
35.007
30
0.0
0
VERTEX
8
SLAB_00
10
23.480
20
34.755
30
0.0
0
VERTEX
8
SLAB_00
10
22.167
20
34.449
30
0.0
0
VERTEX
8
SLAB_00
10
20.884
20
34.090
30
0.0
0
VERTEX
8
SLAB_00
10
19.633
20
33.682
30
0.0
0
VERTEX
8
SLAB_00
10
18.416
20
33.227
30
0.0
0
VERTEX
8
SLAB_00
10
17.236
20
32.727
30
0.0
0
VERTEX
8
SLAB_00
10
16.093
20
32.186
30
0.0
0
VERTEX
8
SLAB_00
10
14.989
20
31.605
30
0.0
0
VERTEX
8
SLAB_00
10
13.926
20
30.988
30
0.0
0
VERTEX
8
SLAB_00
10
12.904
20
30.337
30
0.0
0
VERTEX
8
SLAB_00
10
11.925
20
29.655
30
0.0
0
VERTEX
8
SLAB_00
10
10.989
20
28.945
30
0.0
0
VERTEX
8
SLAB_00
10
10.097
20
28.210
30
0.0
0
VERTEX
8
SLAB_00
10
9.248
20
27.452
30
0.0
0
VERTEX
8
SLAB_00
10
8.444
20
26.675
30
0.0
0
VERTEX
8
SLAB_00
10
7.684
20
25.881
30
0.0
0
VERTEX
8
SLAB_00
10
6.967
20
25.073
30
0.0
0
VERTEX
8
SLAB_00
10
6.294
20
24.253
30
0.0
0
VERTEX
8
SLAB_00
10
5.664
20
23.424
30
0.0
0
VERTEX
8
SLAB_00
10
5.076
20
22.588
30
0.0
0
VERTEX
8
SLAB_00
10
4.530
20
21.748
30
0.0
0
VERTEX
8
SLAB_00
10
4.023
20
20.905
30
0.0
0
VERTEX
8
SLAB_00
10
3.556
20
20.063
30
0.0
0
VERTEX
8
SLAB_00
10
3.127
20
19.223
30
0.0
0
VERTEX
8
SLAB_00
10
2.735
20
18.386
30
0.0
0
VERTEX
8
SLAB_00
10
2.377
20
17.555
30
0.0
0
VERTEX
8
SLAB_00
10
2.053
20
16.732
30
0.0
0
VERTEX
8
SLAB_00
10
1.762
20
15.916
30
0.0
0
VERTEX
8
SLAB_00
10
1.500
20
15.111
30
0.0
0
VERTEX
8
SLAB_00
10
1.268
20
14.317
30
0.0
0
VERTEX
8
SLAB_00
10
1.062
20
13.534
30
0.0
0
VERTEX
8
SLAB_00
10
0.881
20
12.764
30
0.0
0
VERTEX
8
SLAB_00
10
0.723
20
12.008
30
0.0
0
VERTEX
8
SLAB_00
10
0.587
20
11.266
30
0.0
0
VERTEX
8
SLAB_00
10
0.470
20
10.538
30
0.0
0
VERTEX
8
SLAB_00
10
0.372
20
9.824
30
0.0
0
VERTEX
8
SLAB_00
10
0.289
20
9.124
30
0.0
0
VERTEX
8
SLAB_00
10
0.220
20
8.440
30
0.0
0
VERTEX
8
SLAB_00
10
0.165
20
7.769
30
0.0
0
VERTEX
8
SLAB_00
10
0.120
20
7.111
30
0.0
0
VERTEX
8
SLAB_00
10
0.085
20
6.467
30
0.0
0
VERTEX
8
SLAB_00
10
0.059
20
5.836
30
0.0
0
VERTEX
8
SLAB_00
10
0.039
20
5.216
30
0.0
0
VERTEX
8
SLAB_00
10
0.024
20
4.608
30
0.0
0
VERTEX
8
SLAB_00
10
0.014
20
4.009
30
0.0
0
VERTEX
8
SLAB_00
10
0.008
20
3.419
30
0.0
0
VERTEX
8
SLAB_00
10
0.004
20
2.837
30
0.0
0
VERTEX
8
SLAB_00
10
0.002
20
2.261
30
0.0
0
VERTEX
8
SLAB_00
10
0.000
20
1.691
30
0.0
0
VERTEX
8
SLAB_00
10
0.000
20
1.125
30
0.0
0
VERTEX
8
SLAB_00
10
0.000
20
0.562
30
0.0
0
VERTEX
8
SLAB_00
10
0.000
20
0.000
30
0.0
0
VERTEX
8
SLAB_00
10
0.000
20
-0.562
30
0.0
0
VERTEX
8
SLAB_00
10
0.000
20
-1.125
30
0.0
0
VERTEX
8
SLAB_00
10
0.000
20
-1.691
30
0.0
0
VERTEX
8
SLAB_00
10
0.002
20
-2.261
30
0.0
0
VERTEX
8
SLAB_00
10
0.004
20
-2.837
30
0.0
0
VERTEX
8
SLAB_00
10
0.008
20
-3.419
30
0.0
0
VERTEX
8
SLAB_00
10
0.014
20
-4.009
30
0.0
0
VERTEX
8
SLAB_00
10
0.024
20
-4.608
30
0.0
0
VERTEX
8
SLAB_00
10
0.039
20
-5.216
30
0.0
0
VERTEX
8
SLAB_00
10
0.059
20
-5.836
30
0.0
0
VERTEX
8
SLAB_00
10
0.085
20
-6.467
30
0.0
0
VERTEX
8
SLAB_00
10
0.120
20
-7.111
30
0.0
0
VERTEX
8
SLAB_00
10
0.165
20
-7.769
30
0.0
0
VERTEX
8
SLAB_00
10
0.220
20
-8.440
30
0.0
0
VERTEX
8
SLAB_00
10
0.289
20
-9.124
30
0.0
0
VERTEX
8
SLAB_00
10
0.372
20
-9.824
30
0.0
0
VERTEX
8
SLAB_00
10
0.470
20
-10.538
30
0.0
0
VERTEX
8
SLAB_00
10
0.587
20
-11.266
30
0.0
0
VERTEX
8
SLAB_00
10
0.723
20
-12.008
30
0.0
0
VERTEX
8
SLAB_00
10
0.881
20
-12.764
30
0.0
0
VERTEX
8
SLAB_00
10
1.062
20
-13.534
30
0.0
0
VERTEX
8
SLAB_00
10
1.268
20
-14.317
30
0.0
0
VERTEX
8
SLAB_00
10
1.500
20
-15.111
30
0.0
0
VERTEX
8
SLAB_00
10
1.762
20
-15.916
30
0.0
0
VERTEX
8
SLAB_00
10
2.053
20
-16.732
30
0.0
0
VERTEX
8
SLAB_00
10
2.377
20
-17.555
30
0.0
0
VERTEX
8
SLAB_00
10
2.735
20
-18.386
30
0.0
0
VERTEX
8
SLAB_00
10
3.127
20
-19.223
30
0.0
0
VERTEX
8
SLAB_00
10
3.556
20
-20.063
30
0.0
0
VERTEX
8
SLAB_00
10
4.023
20
-20.905
30
0.0
0
VERTEX
8
SLAB_00
10
4.530
20
-21.748
30
0.0
0
VERTEX
8
SLAB_00
10
5.076
20
-22.588
30
0.0
0
VERTEX
8
SLAB_00
10
5.664
20
-23.424
30
0.0
0
VERTEX
8
SLAB_00
10
6.294
20
-24.253
30
0.0
0
VERTEX
8
SLAB_00
10
6.967
20
-25.073
30
0.0
0
VERTEX
8
SLAB_00
10
7.684
20
-25.881
30
0.0
0
VERTEX
8
SLAB_00
10
8.444
20
-26.675
30
0.0
0
VERTEX
8
SLAB_00
10
9.248
20
-27.452
30
0.0
0
VERTEX
8
SLAB_00
10
10.097
20
-28.210
30
0.0
0
VERTEX
8
SLAB_00
10
10.989
20
-28.945
30
0.0
0
VERTEX
8
SLAB_00
10
11.925
20
-29.655
30
0.0
0
VERTEX
8
SLAB_00
10
12.904
20
-30.337
30
0.0
0
VERTEX
8
SLAB_00
10
13.926
20
-30.988
30
0.0
0
VERTEX
8
SLAB_00
10
14.989
20
-31.605
30
0.0
0
VERTEX
8
SLAB_00
10
16.093
20
-32.186
30
0.0
0
VERTEX
8
SLAB_00
10
17.236
20
-32.727
30
0.0
0
VERTEX
8
SLAB_00
10
18.416
20
-33.227
30
0.0
0
VERTEX
8
SLAB_00
10
19.633
20
-33.682
30
0.0
0
VERTEX
8
SLAB_00
10
20.884
20
-34.090
30
0.0
0
VERTEX
8
SLAB_00
10
22.167
20
-34.449
30
0.0
0
VERTEX
8
SLAB_00
10
23.480
20
-34.755
30
0.0
0
VERTEX
8
SLAB_00
10
24.821
20
-35.007
30
0.0
0
VERTEX
8
SLAB_00
10
26.187
20
-35.203
30
0.0
0
VERTEX
8
SLAB_00
10
27.576
20
-35.340
30
0.0
0
VERTEX
8
SLAB_00
10
28.984
20
-35.417
30
0.0
0
VERTEX
8
SLAB_00
10
30.408
20
-35.432
30
0.0
0
VERTEX
8
SLAB_00
10
31.846
20
-35.383
30
0.0
0
VERTEX
8
SLAB_00
10
33.295
20
-35.269
30
0.0
0
VERTEX
8
SLAB_00
10
34.750
20
-35.089
30
0.0
0
VERTEX
8
SLAB_00
10
36.209
20
-34.842
30
0.0
0
VERTEX
8
SLAB_00
10
37.668
20
-34.527
30
0.0
0
VERTEX
8
SLAB_00
10
39.123
20
-34.144
30
0.0
0
VERTEX
8
SLAB_00
10
40.571
20
-33.691
30
0.0
0
VERTEX
8
SLAB_00
10
42.008
20
-33.170
30
0.0
0
VERTEX
8
SLAB_00
10
43.431
20
-32.580
30
0.0
0
VERTEX
8
SLAB_00
10
44.835
20
-31.921
30
0.0
0
VERTEX
8
SLAB_00
10
46.217
20
-31.194
30
0.0
0
VERTEX
8
SLAB_00
10
47.573
20
-30.400
30
0.0
0
VERTEX
8
SLAB_00
10
48.899
20
-29.539
30
0.0
0
VERTEX
8
SLAB_00
10
50.192
20
-28.613
30
0.0
0
VERTEX
8
SLAB_00
10
51.449
20
-27.623
30
0.0
0
VERTEX
8
SLAB_00
10
52.665
20
-26.571
30
0.0
0
VERTEX
8
SLAB_00
10
53.837
20
-25.459
30
0.0
0
VERTEX
8
SLAB_00
10
54.962
20
-24.288
30
0.0
0
VERTEX
8
SLAB_00
10
56.036
20
-23.061
30
0.0
0
VERTEX
8
SLAB_00
10
57.057
20
-21.781
30
0.0
0
VERTEX
8
SLAB_00
10
58.022
20
-20.450
30
0.0
0
VERTEX
8
SLAB_00
10
58.927
20
-19.071
30
0.0
0
VERTEX
8
SLAB_00
10
59.770
20
-17.647
30
0.0
0
VERTEX
8
SLAB_00
10
60.548
20
-16.180
30
0.0
0
VERTEX
8
SLAB_00
10
61.260
20
-14.676
30
0.0
0
VERTEX
8
SLAB_00
10
61.902
20
-13.136
30
0.0
0
VERTEX
8
SLAB_00
10
62.474
20
-11.564
30
0.0
0
VERTEX
8
SLAB_00
10
62.973
20
-9.965
30
0.0
0
VERTEX
8
SLAB_00
10
63.397
20
-8.341
30
0.0
0
VERTEX
8
SLAB_00
10
63.747
20
-6.697
30
0.0
0
VERTEX
8
SLAB_00
10
64.019
20
-5.037
30
0.0
0
VERTEX
8
SLAB_00
10
64.215
20
-3.365
30
0.0
0
VERTEX
8
SLAB_00
10
64.332
20
-1.685
30
0.0
0
SEQEND
8
SLAB_00
0
TEXT
8
TEXT
10
0.000
20
50.432
30
0.0
40
8.0
1
67: s'=+1569 D=71
0
CIRCLE
8
DOWEL
10
15.000
20
18.000
30
0.0
40
3.250
0
TEXT
8
DOWEL
10
20.000
20
16.000
30
0.0
40
3.0
1
A
0
CIRCLE
8
DOWEL
10
15.000
20
-18.000
30
0.0
40
3.250
0
TEXT
8
DOWEL
10
20.000
20
-20.000
30
0.0
40
3.0
1
B
0
CIRCLE
8
DOWEL
10
45.000
20
18.000
30
0.0
40
3.250
0
TEXT
8
DOWEL
10
50.000
20
16.000
30
0.0
40
3.0
1
C
0
CIRCLE
8
DOWEL
10
45.000
20
-18.000
30
0.0
40
3.250
0
TEXT
8
DOWEL
10
50.000
20
-20.000
30
0.0
40
3.0
1
D
0
ENDSEC
0
EOF