0
SECTION
2
HEADER
9
$ACADVER
1
AC1009
9
$INSUNITS
70
4
0
ENDSEC
0
SECTION
2
TABLES
0
TABLE
2
LAYER
70
4
0
LAYER
2
0
70
0
62
7
6
CONTINUOUS
0
LAYER
2
TEXT
70
0
62
1
6
CONTINUOUS
0
LAYER
2
DOWEL
70
0
62
5
6
CONTINUOUS
0
LAYER
2
SLAB_00
70
0
62
2
6
CONTINUOUS
0
ENDTAB
0
ENDSEC
0
SECTION
2
ENTITIES
0
POLYLINE
8
SLAB_00
66
1
70
1
10
0.0
20
0.0
30
0.0
0
VERTEX
8
SLAB_00
10
322.809
20
0.000
30
0.0
0
VERTEX
8
SLAB_00
10
322.612
20
8.448
30
0.0
0
VERTEX
8
SLAB_00
10
322.023
20
16.875
30
0.0
0
VERTEX
8
SLAB_00
10
321.043
20
25.261
30
0.0
0
VERTEX
8
SLAB_00
10
319.675
20
33.585
30
0.0
0
VERTEX
8
SLAB_00
10
317.923
20
41.828
30
0.0
0
VERTEX
8
SLAB_00
10
315.793
20
49.970
30
0.0
0
VERTEX
8
SLAB_00
10
313.291
20
57.991
30
0.0
0
VERTEX
8
SLAB_00
10
310.425
20
65.872
30
0.0
0
VERTEX
8
SLAB_00
10
307.203
20
73.594
30
0.0
0
VERTEX
8
SLAB_00
10
303.635
20
81.141
30
0.0
0
VERTEX
8
SLAB_00
10
299.731
20
88.493
30
0.0
0
VERTEX
8
SLAB_00
10
295.504
20
95.636
30
0.0
0
VERTEX
8
SLAB_00
10
290.965
20
102.552
30
0.0
0
VERTEX
8
SLAB_00
10
286.129
20
109.227
30
0.0
0
VERTEX
8
SLAB_00
10
281.009
20
115.647
30
0.0
0
VERTEX
8
SLAB_00
10
275.621
20
121.799
30
0.0
0
VERTEX
8
SLAB_00
10
269.979
20
127.669
30
0.0
0
VERTEX
8
SLAB_00
10
264.101
20
133.247
30
0.0
0
VERTEX
8
SLAB_00
10
258.003
20
138.523
30
0.0
0
VERTEX
8
SLAB_00
10
251.703
20
143.487
30
0.0
0
VERTEX
8
SLAB_00
10
245.218
20
148.131
30
0.0
0
VERTEX
8
SLAB_00
10
238.566
20
152.447
30
0.0
0
VERTEX
8
SLAB_00
10
231.766
20
156.431
30
0.0
0
VERTEX
8
SLAB_00
10
224.836
20
160.077
30
0.0
0
VERTEX
8
SLAB_00
10
217.795
20
163.381
30
0.0
0
VERTEX
8
SLAB_00
10
210.662
20
166.341
30
0.0
0
VERTEX
8
SLAB_00
10
203.455
20
168.955
30
0.0
0
VERTEX
8
SLAB_00
10
196.194
20
171.223
30
0.0
0
VERTEX
8
SLAB_00
10
188.896
20
173.146
30
0.0
0
VERTEX
8
SLAB_00
10
181.580
20
174.725
30
0.0
0
VERTEX
8
SLAB_00
10
174.264
20
175.964
30
0.0
0
VERTEX
8
SLAB_00
10
166.966
20
176.866
30
0.0
0
VERTEX
8
SLAB_00
10
159.702
20
177.437
30
0.0
0
VERTEX
8
SLAB_00
10
152.490
20
177.682
30
0.0
0
VERTEX
8
SLAB_00
10
145.346
20
177.608
30
0.0
0
VERTEX
8
SLAB_00
10
138.285
20
177.222
30
0.0
0
VERTEX
8
SLAB_00
10
131.323
20
176.535
30
0.0
0
VERTEX
8
SLAB_00
10
124.473
20
175.554
30
0.0
0
VERTEX
8
SLAB_00
10
117.749
20
174.290
30
0.0
0
VERTEX
8
SLAB_00
10
111.163
20
172.753
30
0.0
0
VERTEX
8
SLAB_00
10
104.728
20
170.956
30
0.0
0
VERTEX
8
SLAB_00
10
98.455
20
168.910
30
0.0
0
VERTEX
8
SLAB_00
10
92.354
20
166.627
30
0.0
0
VERTEX
8
SLAB_00
10
86.433
20
164.121
30
0.0
0
VERTEX
8
SLAB_00
10
80.702
20
161.404
30
0.0
0
VERTEX
8
SLAB_00
10
75.168
20
158.491
30
0.0
0
VERTEX
8
SLAB_00
10
69.836
20
155.395
30
0.0
0
VERTEX
8
SLAB_00
10
64.713
20
152.131
30
0.0
0
VERTEX
8
SLAB_00
10
59.802
20
148.711
30
0.0
0
VERTEX
8
SLAB_00
10
55.108
20
145.151
30
0.0
0
VERTEX
8
SLAB_00
10
50.633
20
141.465
30
0.0
0
VERTEX
8
SLAB_00
10
46.378
20
137.666
30
0.0
0
VERTEX
8
SLAB_00
10
42.345
20
133.769
30
0.0
0
VERTEX
8
SLAB_00
10
38.532
20
129.787
30
0.0
0
VERTEX
8
SLAB_00
10
34.939
20
125.733
30
0.0
0
VERTEX
8
SLAB_00
10
31.564
20
121.621
30
0.0
0
VERTEX
8
SLAB_00
10
28.404
20
117.464
30
0.0
0
VERTEX
8
SLAB_00
10
25.456
20
113.272
30
0.0
0
VERTEX
8
SLAB_00
10
22.714
20
109.059
30
0.0
0
VERTEX
8
SLAB_00
10
20.176
20
104.835
30
0.0
0
VERTEX
8
SLAB_00
10
17.833
20
100.611
30
0.0
0
VERTEX
8
SLAB_00
10
15.681
20
96.397
30
0.0
0
VERTEX
8
SLAB_00
10
13.713
20
92.203
30
0.0
0
VERTEX
8
SLAB_00
10
11.921
20
88.036
30
0.0
0
VERTEX
8
SLAB_00
10
10.298
20
83.905
30
0.0
0
VERTEX
8
SLAB_00
10
8.835
20
79.817
30
0.0
0
VERTEX
8
SLAB_00
10
7.524
20
75.778
30
0.0
0
VERTEX
8
SLAB_00
10
6.357
20
71.794
30
0.0
0
VERTEX
8
SLAB_00
10
5.324
20
67.871
30
0.0
0
VERTEX
8
SLAB_00
10
4.417
20
64.011
30
0.0
0
VERTEX
8
SLAB_00
10
3.627
20
60.218
30
0.0
0
VERTEX
8
SLAB_00
10
2.944
20
56.495
30
0.0
0
VERTEX
8
SLAB_00
10
2.359
20
52.843
30
0.0
0
VERTEX
8
SLAB_00
10
1.863
20
49.264
30
0.0
0
VERTEX
8
SLAB_00
10
1.449
20
45.757
30
0.0
0
VERTEX
8
SLAB_00
10
1.106
20
42.322
30
0.0
0
VERTEX
8
SLAB_00
10
0.827
20
38.958
30
0.0
0
VERTEX
8
SLAB_00
10
0.603
20
35.662
30
0.0
0
VERTEX
8
SLAB_00
10
0.428
20
32.433
30
0.0
0
VERTEX
8
SLAB_00
10
0.294
20
29.266
30
0.0
0
VERTEX
8
SLAB_00
10
0.193
20
26.159
30
0.0
0
VERTEX
8
SLAB_00
10
0.121
20
23.106
30
0.0
0
VERTEX
8
SLAB_00
10
0.071
20
20.104
30
0.0
0
VERTEX
8
SLAB_00
10
0.039
20
17.146
30
0.0
0
VERTEX
8
SLAB_00
10
0.019
20
14.227
30
0.0
0
VERTEX
8
SLAB_00
10
0.008
20
11.341
30
0.0
0
VERTEX
8
SLAB_00
10
0.002
20
8.482
30
0.0
0
VERTEX
8
SLAB_00
10
0.000
20
5.643
30
0.0
0
VERTEX
8
SLAB_00
10
0.000
20
2.818
30
0.0
0
VERTEX
8
SLAB_00
10
0.000
20
0.000
30
0.0
0
VERTEX
8
SLAB_00
10
0.000
20
-2.818
30
0.0
0
VERTEX
8
SLAB_00
10
0.000
20
-5.643
30
0.0
0
VERTEX
8
SLAB_00
10
0.002
20
-8.482
30
0.0
0
VERTEX
8
SLAB_00
10
0.008
20
-11.341
30
0.0
0
VERTEX
8
SLAB_00
10
0.019
20
-14.227
30
0.0
0
VERTEX
8
SLAB_00
10
0.039
20
-17.146
30
0.0
0
VERTEX
8
SLAB_00
10
0.071
20
-20.104
30
0.0
0
VERTEX
8
SLAB_00
10
0.121
20
-23.106
30
0.0
0
VERTEX
8
SLAB_00
10
0.193
20
-26.159
30
0.0
0
VERTEX
8
SLAB_00
10
0.294
20
-29.266
30
0.0
0
VERTEX
8
SLAB_00
10
0.428
20
-32.433
30
0.0
0
VERTEX
8
SLAB_00
10
0.603
20
-35.662
30
0.0
0
VERTEX
8
SLAB_00
10
0.827
20
-38.958
30
0.0
0
VERTEX
8
SLAB_00
10
1.106
20
-42.322
30
0.0
0
VERTEX
8
SLAB_00
10
1.449
20
-45.757
30
0.0
0
VERTEX
8
SLAB_00
10
1.863
20
-49.264
30
0.0
0
VERTEX
8
SLAB_00
10
2.359
20
-52.843
30
0.0
0
VERTEX
8
SLAB_00
10
2.944
20
-56.495
30
0.0
0
VERTEX
8
SLAB_00
10
3.627
20
-60.218
30
0.0
0
VERTEX
8
SLAB_00
10
4.417
20
-64.011
30
0.0
0
VERTEX
8
SLAB_00
10
5.324
20
-67.871
30
0.0
0
VERTEX
8
SLAB_00
10
6.357
20
-71.794
30
0.0
0
VERTEX
8
SLAB_00
10
7.524
20
-75.778
30
0.0
0
VERTEX
8
SLAB_00
10
8.835
20
-79.817
30
0.0
0
VERTEX
8
SLAB_00
10
10.298
20
-83.905
30
0.0
0
VERTEX
8
SLAB_00
10
11.921
20
-88.036
30
0.0
0
VERTEX
8
SLAB_00
10
13.713
20
-92.203
30
0.0
0
VERTEX
8
SLAB_00
10
15.681
20
-96.397
30
0.0
0
VERTEX
8
SLAB_00
10
17.833
20
-100.611
30
0.0
0
VERTEX
8
SLAB_00
10
20.176
20
-104.835
30
0.0
0
VERTEX
8
SLAB_00
10
22.714
20
-109.059
30
0.0
0
VERTEX
8
SLAB_00
10
25.456
20
-113.272
30
0.0
0
VERTEX
8
SLAB_00
10
28.404
20
-117.464
30
0.0
0
VERTEX
8
SLAB_00
10
31.564
20
-121.621
30
0.0
0
VERTEX
8
SLAB_00
10
34.939
20
-125.733
30
0.0
0
VERTEX
8
SLAB_00
10
38.532
20
-129.787
30
0.0
0
VERTEX
8
SLAB_00
10
42.345
20
-133.769
30
0.0
0
VERTEX
8
SLAB_00
10
46.378
20
-137.666
30
0.0
0
VERTEX
8
SLAB_00
10
50.633
20
-141.465
30
0.0
0
VERTEX
8
SLAB_00
10
55.108
20
-145.151
30
0.0
0
VERTEX
8
SLAB_00
10
59.802
20
-148.711
30
0.0
0
VERTEX
8
SLAB_00
10
64.713
20
-152.131
30
0.0
0
VERTEX
8
SLAB_00
10
69.836
20
-155.395
30
0.0
0
VERTEX
8
SLAB_00
10
75.168
20
-158.491
30
0.0
0
VERTEX
8
SLAB_00
10
80.702
20
-161.404
30
0.0
0
VERTEX
8
SLAB_00
10
86.433
20
-164.121
30
0.0
0
VERTEX
8
SLAB_00
10
92.354
20
-166.627
30
0.0
0
VERTEX
8
SLAB_00
10
98.455
20
-168.910
30
0.0
0
VERTEX
8
SLAB_00
10
104.728
20
-170.956
30
0.0
0
VERTEX
8
SLAB_00
10
111.163
20
-172.753
30
0.0
0
VERTEX
8
SLAB_00
10
117.749
20
-174.290
30
0.0
0
VERTEX
8
SLAB_00
10
124.473
20
-175.554
30
0.0
0
VERTEX
8
SLAB_00
10
131.323
20
-176.535
30
0.0
0
VERTEX
8
SLAB_00
10
138.285
20
-177.222
30
0.0
0
VERTEX
8
SLAB_00
10
145.346
20
-177.608
30
0.0
0
VERTEX
8
SLAB_00
10
152.490
20
-177.682
30
0.0
0
VERTEX
8
SLAB_00
10
159.702
20
-177.437
30
0.0
0
VERTEX
8
SLAB_00
10
166.966
20
-176.866
30
0.0
0
VERTEX
8
SLAB_00
10
174.264
20
-175.964
30
0.0
0
VERTEX
8
SLAB_00
10
181.580
20
-174.725
30
0.0
0
VERTEX
8
SLAB_00
10
188.896
20
-173.146
30
0.0
0
VERTEX
8
SLAB_00
10
196.194
20
-171.223
30
0.0
0
VERTEX
8
SLAB_00
10
203.455
20
-168.955
30
0.0
0
VERTEX
8
SLAB_00
10
210.662
20
-166.341
30
0.0
0
VERTEX
8
SLAB_00
10
217.795
20
-163.381
30
0.0
0
VERTEX
8
SLAB_00
10
224.836
20
-160.077
30
0.0
0
VERTEX
8
SLAB_00
10
231.766
20
-156.431
30
0.0
0
VERTEX
8
SLAB_00
10
238.566
20
-152.447
30
0.0
0
VERTEX
8
SLAB_00
10
245.218
20
-148.131
30
0.0
0
VERTEX
8
SLAB_00
10
251.703
20
-143.487
30
0.0
0
VERTEX
8
SLAB_00
10
258.003
20
-138.523
30
0.0
0
VERTEX
8
SLAB_00
10
264.101
20
-133.247
30
0.0
0
VERTEX
8
SLAB_00
10
269.979
20
-127.669
30
0.0
0
VERTEX
8
SLAB_00
10
275.621
20
-121.799
30
0.0
0
VERTEX
8
SLAB_00
10
281.009
20
-115.647
30
0.0
0
VERTEX
8
SLAB_00
10
286.129
20
-109.227
30
0.0
0
VERTEX
8
SLAB_00
10
290.965
20
-102.552
30
0.0
0
VERTEX
8
SLAB_00
10
295.504
20
-95.636
30
0.0
0
VERTEX
8
SLAB_00
10
299.731
20
-88.493
30
0.0
0
VERTEX
8
SLAB_00
10
303.635
20
-81.141
30
0.0
0
VERTEX
8
SLAB_00
10
307.203
20
-73.594
30
0.0
0
VERTEX
8
SLAB_00
10
310.425
20
-65.872
30
0.0
0
VERTEX
8
SLAB_00
10
313.291
20
-57.991
30
0.0
0
VERTEX
8
SLAB_00
10
315.793
20
-49.970
30
0.0
0
VERTEX
8
SLAB_00
10
317.923
20
-41.828
30
0.0
0
VERTEX
8
SLAB_00
10
319.675
20
-33.585
30
0.0
0
VERTEX
8
SLAB_00
10
321.043
20
-25.261
30
0.0
0
VERTEX
8
SLAB_00
10
322.023
20
-16.875
30
0.0
0
VERTEX
8
SLAB_00
10
322.612
20
-8.448
30
0.0
0
SEQEND
8
SLAB_00
0
TEXT
8
TEXT
10
0.000
20
192.682
30
0.0
40
8.0
1
30: s'=+630 D=355
0
CIRCLE
8
DOWEL
10
15.000
20
18.000
30
0.0
40
3.250
0
TEXT
8
DOWEL
10
20.000
20
16.000
30
0.0
40
3.0
1
A
0
CIRCLE
8
DOWEL
10
15.000
20
-18.000
30
0.0
40
3.250
0
TEXT
8
DOWEL
10
20.000
20
-20.000
30
0.0
40
3.0
1
B
0
CIRCLE
8
DOWEL
10
45.000
20
18.000
30
0.0
40
3.250
0
TEXT
8
DOWEL
10
50.000
20
16.000
30
0.0
40
3.0
1
C
0
CIRCLE
8
DOWEL
10
45.000
20
-18.000
30
0.0
40
3.250
0
TEXT
8
DOWEL
10
50.000
20
-20.000
30
0.0
40
3.0
1
D
0
ENDSEC
0
EOF