0
SECTION
2
HEADER
9
$ACADVER
1
AC1009
9
$INSUNITS
70
4
0
ENDSEC
0
SECTION
2
TABLES
0
TABLE
2
LAYER
70
4
0
LAYER
2
0
70
0
62
7
6
CONTINUOUS
0
LAYER
2
TEXT
70
0
62
1
6
CONTINUOUS
0
LAYER
2
DOWEL
70
0
62
5
6
CONTINUOUS
0
LAYER
2
SLAB_00
70
0
62
2
6
CONTINUOUS
0
ENDTAB
0
ENDSEC
0
SECTION
2
ENTITIES
0
POLYLINE
8
SLAB_00
66
1
70
1
10
0.0
20
0.0
30
0.0
0
VERTEX
8
SLAB_00
10
102.599
20
0.000
30
0.0
0
VERTEX
8
SLAB_00
10
102.536
20
2.685
30
0.0
0
VERTEX
8
SLAB_00
10
102.349
20
5.363
30
0.0
0
VERTEX
8
SLAB_00
10
102.037
20
8.029
30
0.0
0
VERTEX
8
SLAB_00
10
101.603
20
10.674
30
0.0
0
VERTEX
8
SLAB_00
10
101.046
20
13.294
30
0.0
0
VERTEX
8
SLAB_00
10
100.369
20
15.882
30
0.0
0
VERTEX
8
SLAB_00
10
99.574
20
18.431
30
0.0
0
VERTEX
8
SLAB_00
10
98.663
20
20.936
30
0.0
0
VERTEX
8
SLAB_00
10
97.639
20
23.391
30
0.0
0
VERTEX
8
SLAB_00
10
96.505
20
25.789
30
0.0
0
VERTEX
8
SLAB_00
10
95.264
20
28.126
30
0.0
0
VERTEX
8
SLAB_00
10
93.920
20
30.396
30
0.0
0
VERTEX
8
SLAB_00
10
92.478
20
32.594
30
0.0
0
VERTEX
8
SLAB_00
10
90.941
20
34.716
30
0.0
0
VERTEX
8
SLAB_00
10
89.313
20
36.756
30
0.0
0
VERTEX
8
SLAB_00
10
87.601
20
38.711
30
0.0
0
VERTEX
8
SLAB_00
10
85.808
20
40.577
30
0.0
0
VERTEX
8
SLAB_00
10
83.940
20
42.350
30
0.0
0
VERTEX
8
SLAB_00
10
82.002
20
44.027
30
0.0
0
VERTEX
8
SLAB_00
10
79.999
20
45.605
30
0.0
0
VERTEX
8
SLAB_00
10
77.938
20
47.081
30
0.0
0
VERTEX
8
SLAB_00
10
75.824
20
48.453
30
0.0
0
VERTEX
8
SLAB_00
10
73.662
20
49.719
30
0.0
0
VERTEX
8
SLAB_00
10
71.460
20
50.877
30
0.0
0
VERTEX
8
SLAB_00
10
69.222
20
51.928
30
0.0
0
VERTEX
8
SLAB_00
10
66.955
20
52.868
30
0.0
0
VERTEX
8
SLAB_00
10
64.664
20
53.699
30
0.0
0
VERTEX
8
SLAB_00
10
62.356
20
54.420
30
0.0
0
VERTEX
8
SLAB_00
10
60.037
20
55.031
30
0.0
0
VERTEX
8
SLAB_00
10
57.712
20
55.533
30
0.0
0
VERTEX
8
SLAB_00
10
55.387
20
55.927
30
0.0
0
VERTEX
8
SLAB_00
10
53.067
20
56.214
30
0.0
0
VERTEX
8
SLAB_00
10
50.758
20
56.395
30
0.0
0
VERTEX
8
SLAB_00
10
48.466
20
56.473
30
0.0
0
VERTEX
8
SLAB_00
10
46.196
20
56.449
30
0.0
0
VERTEX
8
SLAB_00
10
43.951
20
56.327
30
0.0
0
VERTEX
8
SLAB_00
10
41.738
20
56.108
30
0.0
0
VERTEX
8
SLAB_00
10
39.561
20
55.796
30
0.0
0
VERTEX
8
SLAB_00
10
37.424
20
55.395
30
0.0
0
VERTEX
8
SLAB_00
10
35.331
20
54.906
30
0.0
0
VERTEX
8
SLAB_00
10
33.286
20
54.335
30
0.0
0
VERTEX
8
SLAB_00
10
31.292
20
53.685
30
0.0
0
VERTEX
8
SLAB_00
10
29.353
20
52.959
30
0.0
0
VERTEX
8
SLAB_00
10
27.471
20
52.163
30
0.0
0
VERTEX
8
SLAB_00
10
25.650
20
51.299
30
0.0
0
VERTEX
8
SLAB_00
10
23.891
20
50.373
30
0.0
0
VERTEX
8
SLAB_00
10
22.196
20
49.390
30
0.0
0
VERTEX
8
SLAB_00
10
20.568
20
48.352
30
0.0
0
VERTEX
8
SLAB_00
10
19.007
20
47.265
30
0.0
0
VERTEX
8
SLAB_00
10
17.515
20
46.134
30
0.0
0
VERTEX
8
SLAB_00
10
16.093
20
44.962
30
0.0
0
VERTEX
8
SLAB_00
10
14.740
20
43.755
30
0.0
0
VERTEX
8
SLAB_00
10
13.458
20
42.516
30
0.0
0
VERTEX
8
SLAB_00
10
12.247
20
41.250
30
0.0
0
VERTEX
8
SLAB_00
10
11.105
20
39.962
30
0.0
0
VERTEX
8
SLAB_00
10
10.032
20
38.655
30
0.0
0
VERTEX
8
SLAB_00
10
9.028
20
37.334
30
0.0
0
VERTEX
8
SLAB_00
10
8.091
20
36.001
30
0.0
0
VERTEX
8
SLAB_00
10
7.219
20
34.662
30
0.0
0
VERTEX
8
SLAB_00
10
6.412
20
33.320
30
0.0
0
VERTEX
8
SLAB_00
10
5.668
20
31.977
30
0.0
0
VERTEX
8
SLAB_00
10
4.984
20
30.638
30
0.0
0
VERTEX
8
SLAB_00
10
4.358
20
29.305
30
0.0
0
VERTEX
8
SLAB_00
10
3.789
20
27.981
30
0.0
0
VERTEX
8
SLAB_00
10
3.273
20
26.668
30
0.0
0
VERTEX
8
SLAB_00
10
2.808
20
25.368
30
0.0
0
VERTEX
8
SLAB_00
10
2.391
20
24.085
30
0.0
0
VERTEX
8
SLAB_00
10
2.020
20
22.818
30
0.0
0
VERTEX
8
SLAB_00
10
1.692
20
21.571
30
0.0
0
VERTEX
8
SLAB_00
10
1.404
20
20.345
30
0.0
0
VERTEX
8
SLAB_00
10
1.153
20
19.139
30
0.0
0
VERTEX
8
SLAB_00
10
0.936
20
17.956
30
0.0
0
VERTEX
8
SLAB_00
10
0.750
20
16.795
30
0.0
0
VERTEX
8
SLAB_00
10
0.592
20
15.658
30
0.0
0
VERTEX
8
SLAB_00
10
0.460
20
14.543
30
0.0
0
VERTEX
8
SLAB_00
10
0.351
20
13.451
30
0.0
0
VERTEX
8
SLAB_00
10
0.263
20
12.382
30
0.0
0
VERTEX
8
SLAB_00
10
0.192
20
11.335
30
0.0
0
VERTEX
8
SLAB_00
10
0.136
20
10.308
30
0.0
0
VERTEX
8
SLAB_00
10
0.093
20
9.302
30
0.0
0
VERTEX
8
SLAB_00
10
0.061
20
8.314
30
0.0
0
VERTEX
8
SLAB_00
10
0.038
20
7.344
30
0.0
0
VERTEX
8
SLAB_00
10
0.023
20
6.390
30
0.0
0
VERTEX
8
SLAB_00
10
0.012
20
5.449
30
0.0
0
VERTEX
8
SLAB_00
10
0.006
20
4.522
30
0.0
0
VERTEX
8
SLAB_00
10
0.002
20
3.604
30
0.0
0
VERTEX
8
SLAB_00
10
0.001
20
2.696
30
0.0
0
VERTEX
8
SLAB_00
10
0.000
20
1.794
30
0.0
0
VERTEX
8
SLAB_00
10
0.000
20
0.896
30
0.0
0
VERTEX
8
SLAB_00
10
0.000
20
0.000
30
0.0
0
VERTEX
8
SLAB_00
10
0.000
20
-0.896
30
0.0
0
VERTEX
8
SLAB_00
10
0.000
20
-1.794
30
0.0
0
VERTEX
8
SLAB_00
10
0.001
20
-2.696
30
0.0
0
VERTEX
8
SLAB_00
10
0.002
20
-3.604
30
0.0
0
VERTEX
8
SLAB_00
10
0.006
20
-4.522
30
0.0
0
VERTEX
8
SLAB_00
10
0.012
20
-5.449
30
0.0
0
VERTEX
8
SLAB_00
10
0.023
20
-6.390
30
0.0
0
VERTEX
8
SLAB_00
10
0.038
20
-7.344
30
0.0
0
VERTEX
8
SLAB_00
10
0.061
20
-8.314
30
0.0
0
VERTEX
8
SLAB_00
10
0.093
20
-9.302
30
0.0
0
VERTEX
8
SLAB_00
10
0.136
20
-10.308
30
0.0
0
VERTEX
8
SLAB_00
10
0.192
20
-11.335
30
0.0
0
VERTEX
8
SLAB_00
10
0.263
20
-12.382
30
0.0
0
VERTEX
8
SLAB_00
10
0.351
20
-13.451
30
0.0
0
VERTEX
8
SLAB_00
10
0.460
20
-14.543
30
0.0
0
VERTEX
8
SLAB_00
10
0.592
20
-15.658
30
0.0
0
VERTEX
8
SLAB_00
10
0.750
20
-16.795
30
0.0
0
VERTEX
8
SLAB_00
10
0.936
20
-17.956
30
0.0
0
VERTEX
8
SLAB_00
10
1.153
20
-19.139
30
0.0
0
VERTEX
8
SLAB_00
10
1.404
20
-20.345
30
0.0
0
VERTEX
8
SLAB_00
10
1.692
20
-21.571
30
0.0
0
VERTEX
8
SLAB_00
10
2.020
20
-22.818
30
0.0
0
VERTEX
8
SLAB_00
10
2.391
20
-24.085
30
0.0
0
VERTEX
8
SLAB_00
10
2.808
20
-25.368
30
0.0
0
VERTEX
8
SLAB_00
10
3.273
20
-26.668
30
0.0
0
VERTEX
8
SLAB_00
10
3.789
20
-27.981
30
0.0
0
VERTEX
8
SLAB_00
10
4.358
20
-29.305
30
0.0
0
VERTEX
8
SLAB_00
10
4.984
20
-30.638
30
0.0
0
VERTEX
8
SLAB_00
10
5.668
20
-31.977
30
0.0
0
VERTEX
8
SLAB_00
10
6.412
20
-33.320
30
0.0
0
VERTEX
8
SLAB_00
10
7.219
20
-34.662
30
0.0
0
VERTEX
8
SLAB_00
10
8.091
20
-36.001
30
0.0
0
VERTEX
8
SLAB_00
10
9.028
20
-37.334
30
0.0
0
VERTEX
8
SLAB_00
10
10.032
20
-38.655
30
0.0
0
VERTEX
8
SLAB_00
10
11.105
20
-39.962
30
0.0
0
VERTEX
8
SLAB_00
10
12.247
20
-41.250
30
0.0
0
VERTEX
8
SLAB_00
10
13.458
20
-42.516
30
0.0
0
VERTEX
8
SLAB_00
10
14.740
20
-43.755
30
0.0
0
VERTEX
8
SLAB_00
10
16.093
20
-44.962
30
0.0
0
VERTEX
8
SLAB_00
10
17.515
20
-46.134
30
0.0
0
VERTEX
8
SLAB_00
10
19.007
20
-47.265
30
0.0
0
VERTEX
8
SLAB_00
10
20.568
20
-48.352
30
0.0
0
VERTEX
8
SLAB_00
10
22.196
20
-49.390
30
0.0
0
VERTEX
8
SLAB_00
10
23.891
20
-50.373
30
0.0
0
VERTEX
8
SLAB_00
10
25.650
20
-51.299
30
0.0
0
VERTEX
8
SLAB_00
10
27.471
20
-52.163
30
0.0
0
VERTEX
8
SLAB_00
10
29.353
20
-52.959
30
0.0
0
VERTEX
8
SLAB_00
10
31.292
20
-53.685
30
0.0
0
VERTEX
8
SLAB_00
10
33.286
20
-54.335
30
0.0
0
VERTEX
8
SLAB_00
10
35.331
20
-54.906
30
0.0
0
VERTEX
8
SLAB_00
10
37.424
20
-55.395
30
0.0
0
VERTEX
8
SLAB_00
10
39.561
20
-55.796
30
0.0
0
VERTEX
8
SLAB_00
10
41.738
20
-56.108
30
0.0
0
VERTEX
8
SLAB_00
10
43.951
20
-56.327
30
0.0
0
VERTEX
8
SLAB_00
10
46.196
20
-56.449
30
0.0
0
VERTEX
8
SLAB_00
10
48.466
20
-56.473
30
0.0
0
VERTEX
8
SLAB_00
10
50.758
20
-56.395
30
0.0
0
VERTEX
8
SLAB_00
10
53.067
20
-56.214
30
0.0
0
VERTEX
8
SLAB_00
10
55.387
20
-55.927
30
0.0
0
VERTEX
8
SLAB_00
10
57.712
20
-55.533
30
0.0
0
VERTEX
8
SLAB_00
10
60.037
20
-55.031
30
0.0
0
VERTEX
8
SLAB_00
10
62.356
20
-54.420
30
0.0
0
VERTEX
8
SLAB_00
10
64.664
20
-53.699
30
0.0
0
VERTEX
8
SLAB_00
10
66.955
20
-52.868
30
0.0
0
VERTEX
8
SLAB_00
10
69.222
20
-51.928
30
0.0
0
VERTEX
8
SLAB_00
10
71.460
20
-50.877
30
0.0
0
VERTEX
8
SLAB_00
10
73.662
20
-49.719
30
0.0
0
VERTEX
8
SLAB_00
10
75.824
20
-48.453
30
0.0
0
VERTEX
8
SLAB_00
10
77.938
20
-47.081
30
0.0
0
VERTEX
8
SLAB_00
10
79.999
20
-45.605
30
0.0
0
VERTEX
8
SLAB_00
10
82.002
20
-44.027
30
0.0
0
VERTEX
8
SLAB_00
10
83.940
20
-42.350
30
0.0
0
VERTEX
8
SLAB_00
10
85.808
20
-40.577
30
0.0
0
VERTEX
8
SLAB_00
10
87.601
20
-38.711
30
0.0
0
VERTEX
8
SLAB_00
10
89.313
20
-36.756
30
0.0
0
VERTEX
8
SLAB_00
10
90.941
20
-34.716
30
0.0
0
VERTEX
8
SLAB_00
10
92.478
20
-32.594
30
0.0
0
VERTEX
8
SLAB_00
10
93.920
20
-30.396
30
0.0
0
VERTEX
8
SLAB_00
10
95.264
20
-28.126
30
0.0
0
VERTEX
8
SLAB_00
10
96.505
20
-25.789
30
0.0
0
VERTEX
8
SLAB_00
10
97.639
20
-23.391
30
0.0
0
VERTEX
8
SLAB_00
10
98.663
20
-20.936
30
0.0
0
VERTEX
8
SLAB_00
10
99.574
20
-18.431
30
0.0
0
VERTEX
8
SLAB_00
10
100.369
20
-15.882
30
0.0
0
VERTEX
8
SLAB_00
10
101.046
20
-13.294
30
0.0
0
VERTEX
8
SLAB_00
10
101.603
20
-10.674
30
0.0
0
VERTEX
8
SLAB_00
10
102.037
20
-8.029
30
0.0
0
VERTEX
8
SLAB_00
10
102.349
20
-5.363
30
0.0
0
VERTEX
8
SLAB_00
10
102.536
20
-2.685
30
0.0
0
SEQEND
8
SLAB_00
0
TEXT
8
TEXT
10
0.000
20
71.473
30
0.0
40
8.0
1
62: s'=+1443 D=113
0
CIRCLE
8
DOWEL
10
15.000
20
18.000
30
0.0
40
3.250
0
TEXT
8
DOWEL
10
20.000
20
16.000
30
0.0
40
3.0
1
A
0
CIRCLE
8
DOWEL
10
15.000
20
-18.000
30
0.0
40
3.250
0
TEXT
8
DOWEL
10
20.000
20
-20.000
30
0.0
40
3.0
1
B
0
CIRCLE
8
DOWEL
10
45.000
20
18.000
30
0.0
40
3.250
0
TEXT
8
DOWEL
10
50.000
20
16.000
30
0.0
40
3.0
1
C
0
CIRCLE
8
DOWEL
10
45.000
20
-18.000
30
0.0
40
3.250
0
TEXT
8
DOWEL
10
50.000
20
-20.000
30
0.0
40
3.0
1
D
0
ENDSEC
0
EOF