0
SECTION
2
HEADER
9
$ACADVER
1
AC1009
9
$INSUNITS
70
4
0
ENDSEC
0
SECTION
2
TABLES
0
TABLE
2
LAYER
70
4
0
LAYER
2
0
70
0
62
7
6
CONTINUOUS
0
LAYER
2
TEXT
70
0
62
1
6
CONTINUOUS
0
LAYER
2
DOWEL
70
0
62
5
6
CONTINUOUS
0
LAYER
2
SLAB_00
70
0
62
2
6
CONTINUOUS
0
ENDTAB
0
ENDSEC
0
SECTION
2
ENTITIES
0
POLYLINE
8
SLAB_00
66
1
70
1
10
0.0
20
0.0
30
0.0
0
VERTEX
8
SLAB_00
10
162.828
20
0.000
30
0.0
0
VERTEX
8
SLAB_00
10
162.729
20
4.261
30
0.0
0
VERTEX
8
SLAB_00
10
162.432
20
8.512
30
0.0
0
VERTEX
8
SLAB_00
10
161.938
20
12.742
30
0.0
0
VERTEX
8
SLAB_00
10
161.248
20
16.941
30
0.0
0
VERTEX
8
SLAB_00
10
160.364
20
21.099
30
0.0
0
VERTEX
8
SLAB_00
10
159.290
20
25.205
30
0.0
0
VERTEX
8
SLAB_00
10
158.028
20
29.251
30
0.0
0
VERTEX
8
SLAB_00
10
156.582
20
33.227
30
0.0
0
VERTEX
8
SLAB_00
10
154.956
20
37.122
30
0.0
0
VERTEX
8
SLAB_00
10
153.157
20
40.928
30
0.0
0
VERTEX
8
SLAB_00
10
151.188
20
44.637
30
0.0
0
VERTEX
8
SLAB_00
10
149.055
20
48.240
30
0.0
0
VERTEX
8
SLAB_00
10
146.766
20
51.728
30
0.0
0
VERTEX
8
SLAB_00
10
144.327
20
55.095
30
0.0
0
VERTEX
8
SLAB_00
10
141.744
20
58.334
30
0.0
0
VERTEX
8
SLAB_00
10
139.026
20
61.437
30
0.0
0
VERTEX
8
SLAB_00
10
136.181
20
64.398
30
0.0
0
VERTEX
8
SLAB_00
10
133.216
20
67.211
30
0.0
0
VERTEX
8
SLAB_00
10
130.140
20
69.873
30
0.0
0
VERTEX
8
SLAB_00
10
126.962
20
72.376
30
0.0
0
VERTEX
8
SLAB_00
10
123.691
20
74.719
30
0.0
0
VERTEX
8
SLAB_00
10
120.335
20
76.896
30
0.0
0
VERTEX
8
SLAB_00
10
116.905
20
78.906
30
0.0
0
VERTEX
8
SLAB_00
10
113.410
20
80.745
30
0.0
0
VERTEX
8
SLAB_00
10
109.858
20
82.411
30
0.0
0
VERTEX
8
SLAB_00
10
106.260
20
83.904
30
0.0
0
VERTEX
8
SLAB_00
10
102.625
20
85.223
30
0.0
0
VERTEX
8
SLAB_00
10
98.962
20
86.367
30
0.0
0
VERTEX
8
SLAB_00
10
95.281
20
87.337
30
0.0
0
VERTEX
8
SLAB_00
10
91.591
20
88.133
30
0.0
0
VERTEX
8
SLAB_00
10
87.901
20
88.758
30
0.0
0
VERTEX
8
SLAB_00
10
84.219
20
89.213
30
0.0
0
VERTEX
8
SLAB_00
10
80.556
20
89.501
30
0.0
0
VERTEX
8
SLAB_00
10
76.918
20
89.625
30
0.0
0
VERTEX
8
SLAB_00
10
73.314
20
89.587
30
0.0
0
VERTEX
8
SLAB_00
10
69.753
20
89.393
30
0.0
0
VERTEX
8
SLAB_00
10
66.241
20
89.046
30
0.0
0
VERTEX
8
SLAB_00
10
62.785
20
88.551
30
0.0
0
VERTEX
8
SLAB_00
10
59.394
20
87.914
30
0.0
0
VERTEX
8
SLAB_00
10
56.072
20
87.139
30
0.0
0
VERTEX
8
SLAB_00
10
52.826
20
86.232
30
0.0
0
VERTEX
8
SLAB_00
10
49.662
20
85.200
30
0.0
0
VERTEX
8
SLAB_00
10
46.584
20
84.049
30
0.0
0
VERTEX
8
SLAB_00
10
43.598
20
82.784
30
0.0
0
VERTEX
8
SLAB_00
10
40.707
20
81.414
30
0.0
0
VERTEX
8
SLAB_00
10
37.915
20
79.945
30
0.0
0
VERTEX
8
SLAB_00
10
35.226
20
78.383
30
0.0
0
VERTEX
8
SLAB_00
10
32.642
20
76.736
30
0.0
0
VERTEX
8
SLAB_00
10
30.165
20
75.012
30
0.0
0
VERTEX
8
SLAB_00
10
27.797
20
73.216
30
0.0
0
VERTEX
8
SLAB_00
10
25.540
20
71.357
30
0.0
0
VERTEX
8
SLAB_00
10
23.394
20
69.440
30
0.0
0
VERTEX
8
SLAB_00
10
21.359
20
67.475
30
0.0
0
VERTEX
8
SLAB_00
10
19.436
20
65.466
30
0.0
0
VERTEX
8
SLAB_00
10
17.624
20
63.421
30
0.0
0
VERTEX
8
SLAB_00
10
15.921
20
61.347
30
0.0
0
VERTEX
8
SLAB_00
10
14.327
20
59.250
30
0.0
0
VERTEX
8
SLAB_00
10
12.840
20
57.136
30
0.0
0
VERTEX
8
SLAB_00
10
11.457
20
55.011
30
0.0
0
VERTEX
8
SLAB_00
10
10.177
20
52.880
30
0.0
0
VERTEX
8
SLAB_00
10
8.995
20
50.749
30
0.0
0
VERTEX
8
SLAB_00
10
7.910
20
48.624
30
0.0
0
VERTEX
8
SLAB_00
10
6.917
20
46.508
30
0.0
0
VERTEX
8
SLAB_00
10
6.013
20
44.406
30
0.0
0
VERTEX
8
SLAB_00
10
5.194
20
42.323
30
0.0
0
VERTEX
8
SLAB_00
10
4.456
20
40.260
30
0.0
0
VERTEX
8
SLAB_00
10
3.795
20
38.223
30
0.0
0
VERTEX
8
SLAB_00
10
3.207
20
36.214
30
0.0
0
VERTEX
8
SLAB_00
10
2.686
20
34.235
30
0.0
0
VERTEX
8
SLAB_00
10
2.228
20
32.288
30
0.0
0
VERTEX
8
SLAB_00
10
1.829
20
30.375
30
0.0
0
VERTEX
8
SLAB_00
10
1.485
20
28.497
30
0.0
0
VERTEX
8
SLAB_00
10
1.190
20
26.655
30
0.0
0
VERTEX
8
SLAB_00
10
0.940
20
24.849
30
0.0
0
VERTEX
8
SLAB_00
10
0.731
20
23.080
30
0.0
0
VERTEX
8
SLAB_00
10
0.558
20
21.348
30
0.0
0
VERTEX
8
SLAB_00
10
0.417
20
19.651
30
0.0
0
VERTEX
8
SLAB_00
10
0.304
20
17.988
30
0.0
0
VERTEX
8
SLAB_00
10
0.216
20
16.360
30
0.0
0
VERTEX
8
SLAB_00
10
0.148
20
14.762
30
0.0
0
VERTEX
8
SLAB_00
10
0.098
20
13.195
30
0.0
0
VERTEX
8
SLAB_00
10
0.061
20
11.655
30
0.0
0
VERTEX
8
SLAB_00
10
0.036
20
10.140
30
0.0
0
VERTEX
8
SLAB_00
10
0.019
20
8.648
30
0.0
0
VERTEX
8
SLAB_00
10
0.009
20
7.176
30
0.0
0
VERTEX
8
SLAB_00
10
0.004
20
5.720
30
0.0
0
VERTEX
8
SLAB_00
10
0.001
20
4.278
30
0.0
0
VERTEX
8
SLAB_00
10
0.000
20
2.846
30
0.0
0
VERTEX
8
SLAB_00
10
0.000
20
1.422
30
0.0
0
VERTEX
8
SLAB_00
10
0.000
20
0.000
30
0.0
0
VERTEX
8
SLAB_00
10
0.000
20
-1.422
30
0.0
0
VERTEX
8
SLAB_00
10
0.000
20
-2.846
30
0.0
0
VERTEX
8
SLAB_00
10
0.001
20
-4.278
30
0.0
0
VERTEX
8
SLAB_00
10
0.004
20
-5.720
30
0.0
0
VERTEX
8
SLAB_00
10
0.009
20
-7.176
30
0.0
0
VERTEX
8
SLAB_00
10
0.019
20
-8.648
30
0.0
0
VERTEX
8
SLAB_00
10
0.036
20
-10.140
30
0.0
0
VERTEX
8
SLAB_00
10
0.061
20
-11.655
30
0.0
0
VERTEX
8
SLAB_00
10
0.098
20
-13.195
30
0.0
0
VERTEX
8
SLAB_00
10
0.148
20
-14.762
30
0.0
0
VERTEX
8
SLAB_00
10
0.216
20
-16.360
30
0.0
0
VERTEX
8
SLAB_00
10
0.304
20
-17.988
30
0.0
0
VERTEX
8
SLAB_00
10
0.417
20
-19.651
30
0.0
0
VERTEX
8
SLAB_00
10
0.558
20
-21.348
30
0.0
0
VERTEX
8
SLAB_00
10
0.731
20
-23.080
30
0.0
0
VERTEX
8
SLAB_00
10
0.940
20
-24.849
30
0.0
0
VERTEX
8
SLAB_00
10
1.190
20
-26.655
30
0.0
0
VERTEX
8
SLAB_00
10
1.485
20
-28.497
30
0.0
0
VERTEX
8
SLAB_00
10
1.829
20
-30.375
30
0.0
0
VERTEX
8
SLAB_00
10
2.228
20
-32.288
30
0.0
0
VERTEX
8
SLAB_00
10
2.686
20
-34.235
30
0.0
0
VERTEX
8
SLAB_00
10
3.207
20
-36.214
30
0.0
0
VERTEX
8
SLAB_00
10
3.795
20
-38.223
30
0.0
0
VERTEX
8
SLAB_00
10
4.456
20
-40.260
30
0.0
0
VERTEX
8
SLAB_00
10
5.194
20
-42.323
30
0.0
0
VERTEX
8
SLAB_00
10
6.013
20
-44.406
30
0.0
0
VERTEX
8
SLAB_00
10
6.917
20
-46.508
30
0.0
0
VERTEX
8
SLAB_00
10
7.910
20
-48.624
30
0.0
0
VERTEX
8
SLAB_00
10
8.995
20
-50.749
30
0.0
0
VERTEX
8
SLAB_00
10
10.177
20
-52.880
30
0.0
0
VERTEX
8
SLAB_00
10
11.457
20
-55.011
30
0.0
0
VERTEX
8
SLAB_00
10
12.840
20
-57.136
30
0.0
0
VERTEX
8
SLAB_00
10
14.327
20
-59.250
30
0.0
0
VERTEX
8
SLAB_00
10
15.921
20
-61.347
30
0.0
0
VERTEX
8
SLAB_00
10
17.624
20
-63.421
30
0.0
0
VERTEX
8
SLAB_00
10
19.436
20
-65.466
30
0.0
0
VERTEX
8
SLAB_00
10
21.359
20
-67.475
30
0.0
0
VERTEX
8
SLAB_00
10
23.394
20
-69.440
30
0.0
0
VERTEX
8
SLAB_00
10
25.540
20
-71.357
30
0.0
0
VERTEX
8
SLAB_00
10
27.797
20
-73.216
30
0.0
0
VERTEX
8
SLAB_00
10
30.165
20
-75.012
30
0.0
0
VERTEX
8
SLAB_00
10
32.642
20
-76.736
30
0.0
0
VERTEX
8
SLAB_00
10
35.226
20
-78.383
30
0.0
0
VERTEX
8
SLAB_00
10
37.915
20
-79.945
30
0.0
0
VERTEX
8
SLAB_00
10
40.707
20
-81.414
30
0.0
0
VERTEX
8
SLAB_00
10
43.598
20
-82.784
30
0.0
0
VERTEX
8
SLAB_00
10
46.584
20
-84.049
30
0.0
0
VERTEX
8
SLAB_00
10
49.662
20
-85.200
30
0.0
0
VERTEX
8
SLAB_00
10
52.826
20
-86.232
30
0.0
0
VERTEX
8
SLAB_00
10
56.072
20
-87.139
30
0.0
0
VERTEX
8
SLAB_00
10
59.394
20
-87.914
30
0.0
0
VERTEX
8
SLAB_00
10
62.785
20
-88.551
30
0.0
0
VERTEX
8
SLAB_00
10
66.241
20
-89.046
30
0.0
0
VERTEX
8
SLAB_00
10
69.753
20
-89.393
30
0.0
0
VERTEX
8
SLAB_00
10
73.314
20
-89.587
30
0.0
0
VERTEX
8
SLAB_00
10
76.918
20
-89.625
30
0.0
0
VERTEX
8
SLAB_00
10
80.556
20
-89.501
30
0.0
0
VERTEX
8
SLAB_00
10
84.219
20
-89.213
30
0.0
0
VERTEX
8
SLAB_00
10
87.901
20
-88.758
30
0.0
0
VERTEX
8
SLAB_00
10
91.591
20
-88.133
30
0.0
0
VERTEX
8
SLAB_00
10
95.281
20
-87.337
30
0.0
0
VERTEX
8
SLAB_00
10
98.962
20
-86.367
30
0.0
0
VERTEX
8
SLAB_00
10
102.625
20
-85.223
30
0.0
0
VERTEX
8
SLAB_00
10
106.260
20
-83.904
30
0.0
0
VERTEX
8
SLAB_00
10
109.858
20
-82.411
30
0.0
0
VERTEX
8
SLAB_00
10
113.410
20
-80.745
30
0.0
0
VERTEX
8
SLAB_00
10
116.905
20
-78.906
30
0.0
0
VERTEX
8
SLAB_00
10
120.335
20
-76.896
30
0.0
0
VERTEX
8
SLAB_00
10
123.691
20
-74.719
30
0.0
0
VERTEX
8
SLAB_00
10
126.962
20
-72.376
30
0.0
0
VERTEX
8
SLAB_00
10
130.140
20
-69.873
30
0.0
0
VERTEX
8
SLAB_00
10
133.216
20
-67.211
30
0.0
0
VERTEX
8
SLAB_00
10
136.181
20
-64.398
30
0.0
0
VERTEX
8
SLAB_00
10
139.026
20
-61.437
30
0.0
0
VERTEX
8
SLAB_00
10
141.744
20
-58.334
30
0.0
0
VERTEX
8
SLAB_00
10
144.327
20
-55.095
30
0.0
0
VERTEX
8
SLAB_00
10
146.766
20
-51.728
30
0.0
0
VERTEX
8
SLAB_00
10
149.055
20
-48.240
30
0.0
0
VERTEX
8
SLAB_00
10
151.188
20
-44.637
30
0.0
0
VERTEX
8
SLAB_00
10
153.157
20
-40.928
30
0.0
0
VERTEX
8
SLAB_00
10
154.956
20
-37.122
30
0.0
0
VERTEX
8
SLAB_00
10
156.582
20
-33.227
30
0.0
0
VERTEX
8
SLAB_00
10
158.028
20
-29.251
30
0.0
0
VERTEX
8
SLAB_00
10
159.290
20
-25.205
30
0.0
0
VERTEX
8
SLAB_00
10
160.364
20
-21.099
30
0.0
0
VERTEX
8
SLAB_00
10
161.248
20
-16.941
30
0.0
0
VERTEX
8
SLAB_00
10
161.938
20
-12.742
30
0.0
0
VERTEX
8
SLAB_00
10
162.432
20
-8.512
30
0.0
0
VERTEX
8
SLAB_00
10
162.729
20
-4.261
30
0.0
0
SEQEND
8
SLAB_00
0
TEXT
8
TEXT
10
0.000
20
104.625
30
0.0
40
8.0
1
55: s'=+1265 D=179
0
CIRCLE
8
DOWEL
10
15.000
20
18.000
30
0.0
40
3.250
0
TEXT
8
DOWEL
10
20.000
20
16.000
30
0.0
40
3.0
1
A
0
CIRCLE
8
DOWEL
10
15.000
20
-18.000
30
0.0
40
3.250
0
TEXT
8
DOWEL
10
20.000
20
-20.000
30
0.0
40
3.0
1
B
0
CIRCLE
8
DOWEL
10
45.000
20
18.000
30
0.0
40
3.250
0
TEXT
8
DOWEL
10
50.000
20
16.000
30
0.0
40
3.0
1
C
0
CIRCLE
8
DOWEL
10
45.000
20
-18.000
30
0.0
40
3.250
0
TEXT
8
DOWEL
10
50.000
20
-20.000
30
0.0
40
3.0
1
D
0
ENDSEC
0
EOF