0
SECTION
2
HEADER
9
$ACADVER
1
AC1009
9
$INSUNITS
70
4
0
ENDSEC
0
SECTION
2
TABLES
0
TABLE
2
LAYER
70
4
0
LAYER
2
0
70
0
62
7
6
CONTINUOUS
0
LAYER
2
TEXT
70
0
62
1
6
CONTINUOUS
0
LAYER
2
DOWEL
70
0
62
5
6
CONTINUOUS
0
LAYER
2
SLAB_00
70
0
62
2
6
CONTINUOUS
0
ENDTAB
0
ENDSEC
0
SECTION
2
ENTITIES
0
POLYLINE
8
SLAB_00
66
1
70
1
10
0.0
20
0.0
30
0.0
0
VERTEX
8
SLAB_00
10
231.271
20
0.000
30
0.0
0
VERTEX
8
SLAB_00
10
231.130
20
6.052
30
0.0
0
VERTEX
8
SLAB_00
10
230.708
20
12.090
30
0.0
0
VERTEX
8
SLAB_00
10
230.006
20
18.098
30
0.0
0
VERTEX
8
SLAB_00
10
229.026
20
24.062
30
0.0
0
VERTEX
8
SLAB_00
10
227.771
20
29.967
30
0.0
0
VERTEX
8
SLAB_00
10
226.245
20
35.800
30
0.0
0
VERTEX
8
SLAB_00
10
224.452
20
41.547
30
0.0
0
VERTEX
8
SLAB_00
10
222.399
20
47.193
30
0.0
0
VERTEX
8
SLAB_00
10
220.090
20
52.726
30
0.0
0
VERTEX
8
SLAB_00
10
217.534
20
58.132
30
0.0
0
VERTEX
8
SLAB_00
10
214.737
20
63.400
30
0.0
0
VERTEX
8
SLAB_00
10
211.709
20
68.517
30
0.0
0
VERTEX
8
SLAB_00
10
208.457
20
73.472
30
0.0
0
VERTEX
8
SLAB_00
10
204.992
20
78.254
30
0.0
0
VERTEX
8
SLAB_00
10
201.324
20
82.854
30
0.0
0
VERTEX
8
SLAB_00
10
197.464
20
87.261
30
0.0
0
VERTEX
8
SLAB_00
10
193.422
20
91.466
30
0.0
0
VERTEX
8
SLAB_00
10
189.211
20
95.463
30
0.0
0
VERTEX
8
SLAB_00
10
184.842
20
99.242
30
0.0
0
VERTEX
8
SLAB_00
10
180.328
20
102.799
30
0.0
0
VERTEX
8
SLAB_00
10
175.682
20
106.126
30
0.0
0
VERTEX
8
SLAB_00
10
170.917
20
109.218
30
0.0
0
VERTEX
8
SLAB_00
10
166.045
20
112.072
30
0.0
0
VERTEX
8
SLAB_00
10
161.080
20
114.684
30
0.0
0
VERTEX
8
SLAB_00
10
156.036
20
117.052
30
0.0
0
VERTEX
8
SLAB_00
10
150.925
20
119.172
30
0.0
0
VERTEX
8
SLAB_00
10
145.762
20
121.045
30
0.0
0
VERTEX
8
SLAB_00
10
140.560
20
122.670
30
0.0
0
VERTEX
8
SLAB_00
10
135.331
20
124.048
30
0.0
0
VERTEX
8
SLAB_00
10
130.090
20
125.179
30
0.0
0
VERTEX
8
SLAB_00
10
124.849
20
126.067
30
0.0
0
VERTEX
8
SLAB_00
10
119.620
20
126.713
30
0.0
0
VERTEX
8
SLAB_00
10
114.416
20
127.122
30
0.0
0
VERTEX
8
SLAB_00
10
109.249
20
127.297
30
0.0
0
VERTEX
8
SLAB_00
10
104.131
20
127.244
30
0.0
0
VERTEX
8
SLAB_00
10
99.072
20
126.968
30
0.0
0
VERTEX
8
SLAB_00
10
94.084
20
126.475
30
0.0
0
VERTEX
8
SLAB_00
10
89.176
20
125.772
30
0.0
0
VERTEX
8
SLAB_00
10
84.359
20
124.867
30
0.0
0
VERTEX
8
SLAB_00
10
79.641
20
123.766
30
0.0
0
VERTEX
8
SLAB_00
10
75.031
20
122.478
30
0.0
0
VERTEX
8
SLAB_00
10
70.537
20
121.012
30
0.0
0
VERTEX
8
SLAB_00
10
66.165
20
119.377
30
0.0
0
VERTEX
8
SLAB_00
10
61.924
20
117.582
30
0.0
0
VERTEX
8
SLAB_00
10
57.818
20
115.635
30
0.0
0
VERTEX
8
SLAB_00
10
53.853
20
113.548
30
0.0
0
VERTEX
8
SLAB_00
10
50.033
20
111.330
30
0.0
0
VERTEX
8
SLAB_00
10
46.362
20
108.991
30
0.0
0
VERTEX
8
SLAB_00
10
42.844
20
106.542
30
0.0
0
VERTEX
8
SLAB_00
10
39.481
20
103.991
30
0.0
0
VERTEX
8
SLAB_00
10
36.275
20
101.350
30
0.0
0
VERTEX
8
SLAB_00
10
33.227
20
98.629
30
0.0
0
VERTEX
8
SLAB_00
10
30.337
20
95.837
30
0.0
0
VERTEX
8
SLAB_00
10
27.606
20
92.984
30
0.0
0
VERTEX
8
SLAB_00
10
25.031
20
90.080
30
0.0
0
VERTEX
8
SLAB_00
10
22.613
20
87.134
30
0.0
0
VERTEX
8
SLAB_00
10
20.350
20
84.155
30
0.0
0
VERTEX
8
SLAB_00
10
18.237
20
81.152
30
0.0
0
VERTEX
8
SLAB_00
10
16.273
20
78.134
30
0.0
0
VERTEX
8
SLAB_00
10
14.454
20
75.107
30
0.0
0
VERTEX
8
SLAB_00
10
12.776
20
72.081
30
0.0
0
VERTEX
8
SLAB_00
10
11.235
20
69.062
30
0.0
0
VERTEX
8
SLAB_00
10
9.824
20
66.057
30
0.0
0
VERTEX
8
SLAB_00
10
8.541
20
63.072
30
0.0
0
VERTEX
8
SLAB_00
10
7.378
20
60.112
30
0.0
0
VERTEX
8
SLAB_00
10
6.330
20
57.183
30
0.0
0
VERTEX
8
SLAB_00
10
5.391
20
54.290
30
0.0
0
VERTEX
8
SLAB_00
10
4.554
20
51.436
30
0.0
0
VERTEX
8
SLAB_00
10
3.815
20
48.625
30
0.0
0
VERTEX
8
SLAB_00
10
3.165
20
45.859
30
0.0
0
VERTEX
8
SLAB_00
10
2.598
20
43.142
30
0.0
0
VERTEX
8
SLAB_00
10
2.109
20
40.475
30
0.0
0
VERTEX
8
SLAB_00
10
1.690
20
37.859
30
0.0
0
VERTEX
8
SLAB_00
10
1.335
20
35.294
30
0.0
0
VERTEX
8
SLAB_00
10
1.038
20
32.782
30
0.0
0
VERTEX
8
SLAB_00
10
0.792
20
30.321
30
0.0
0
VERTEX
8
SLAB_00
10
0.592
20
27.911
30
0.0
0
VERTEX
8
SLAB_00
10
0.432
20
25.550
30
0.0
0
VERTEX
8
SLAB_00
10
0.307
20
23.236
30
0.0
0
VERTEX
8
SLAB_00
10
0.210
20
20.967
30
0.0
0
VERTEX
8
SLAB_00
10
0.139
20
18.741
30
0.0
0
VERTEX
8
SLAB_00
10
0.087
20
16.554
30
0.0
0
VERTEX
8
SLAB_00
10
0.051
20
14.403
30
0.0
0
VERTEX
8
SLAB_00
10
0.028
20
12.284
30
0.0
0
VERTEX
8
SLAB_00
10
0.013
20
10.192
30
0.0
0
VERTEX
8
SLAB_00
10
0.005
20
8.125
30
0.0
0
VERTEX
8
SLAB_00
10
0.002
20
6.077
30
0.0
0
VERTEX
8
SLAB_00
10
0.000
20
4.043
30
0.0
0
VERTEX
8
SLAB_00
10
0.000
20
2.019
30
0.0
0
VERTEX
8
SLAB_00
10
0.000
20
0.000
30
0.0
0
VERTEX
8
SLAB_00
10
0.000
20
-2.019
30
0.0
0
VERTEX
8
SLAB_00
10
0.000
20
-4.043
30
0.0
0
VERTEX
8
SLAB_00
10
0.002
20
-6.077
30
0.0
0
VERTEX
8
SLAB_00
10
0.005
20
-8.125
30
0.0
0
VERTEX
8
SLAB_00
10
0.013
20
-10.192
30
0.0
0
VERTEX
8
SLAB_00
10
0.028
20
-12.284
30
0.0
0
VERTEX
8
SLAB_00
10
0.051
20
-14.403
30
0.0
0
VERTEX
8
SLAB_00
10
0.087
20
-16.554
30
0.0
0
VERTEX
8
SLAB_00
10
0.139
20
-18.741
30
0.0
0
VERTEX
8
SLAB_00
10
0.210
20
-20.967
30
0.0
0
VERTEX
8
SLAB_00
10
0.307
20
-23.236
30
0.0
0
VERTEX
8
SLAB_00
10
0.432
20
-25.550
30
0.0
0
VERTEX
8
SLAB_00
10
0.592
20
-27.911
30
0.0
0
VERTEX
8
SLAB_00
10
0.792
20
-30.321
30
0.0
0
VERTEX
8
SLAB_00
10
1.038
20
-32.782
30
0.0
0
VERTEX
8
SLAB_00
10
1.335
20
-35.294
30
0.0
0
VERTEX
8
SLAB_00
10
1.690
20
-37.859
30
0.0
0
VERTEX
8
SLAB_00
10
2.109
20
-40.475
30
0.0
0
VERTEX
8
SLAB_00
10
2.598
20
-43.142
30
0.0
0
VERTEX
8
SLAB_00
10
3.165
20
-45.859
30
0.0
0
VERTEX
8
SLAB_00
10
3.815
20
-48.625
30
0.0
0
VERTEX
8
SLAB_00
10
4.554
20
-51.436
30
0.0
0
VERTEX
8
SLAB_00
10
5.391
20
-54.290
30
0.0
0
VERTEX
8
SLAB_00
10
6.330
20
-57.183
30
0.0
0
VERTEX
8
SLAB_00
10
7.378
20
-60.112
30
0.0
0
VERTEX
8
SLAB_00
10
8.541
20
-63.072
30
0.0
0
VERTEX
8
SLAB_00
10
9.824
20
-66.057
30
0.0
0
VERTEX
8
SLAB_00
10
11.235
20
-69.062
30
0.0
0
VERTEX
8
SLAB_00
10
12.776
20
-72.081
30
0.0
0
VERTEX
8
SLAB_00
10
14.454
20
-75.107
30
0.0
0
VERTEX
8
SLAB_00
10
16.273
20
-78.134
30
0.0
0
VERTEX
8
SLAB_00
10
18.237
20
-81.152
30
0.0
0
VERTEX
8
SLAB_00
10
20.350
20
-84.155
30
0.0
0
VERTEX
8
SLAB_00
10
22.613
20
-87.134
30
0.0
0
VERTEX
8
SLAB_00
10
25.031
20
-90.080
30
0.0
0
VERTEX
8
SLAB_00
10
27.606
20
-92.984
30
0.0
0
VERTEX
8
SLAB_00
10
30.337
20
-95.837
30
0.0
0
VERTEX
8
SLAB_00
10
33.227
20
-98.629
30
0.0
0
VERTEX
8
SLAB_00
10
36.275
20
-101.350
30
0.0
0
VERTEX
8
SLAB_00
10
39.481
20
-103.991
30
0.0
0
VERTEX
8
SLAB_00
10
42.844
20
-106.542
30
0.0
0
VERTEX
8
SLAB_00
10
46.362
20
-108.991
30
0.0
0
VERTEX
8
SLAB_00
10
50.033
20
-111.330
30
0.0
0
VERTEX
8
SLAB_00
10
53.853
20
-113.548
30
0.0
0
VERTEX
8
SLAB_00
10
57.818
20
-115.635
30
0.0
0
VERTEX
8
SLAB_00
10
61.924
20
-117.582
30
0.0
0
VERTEX
8
SLAB_00
10
66.165
20
-119.377
30
0.0
0
VERTEX
8
SLAB_00
10
70.537
20
-121.012
30
0.0
0
VERTEX
8
SLAB_00
10
75.031
20
-122.478
30
0.0
0
VERTEX
8
SLAB_00
10
79.641
20
-123.766
30
0.0
0
VERTEX
8
SLAB_00
10
84.359
20
-124.867
30
0.0
0
VERTEX
8
SLAB_00
10
89.176
20
-125.772
30
0.0
0
VERTEX
8
SLAB_00
10
94.084
20
-126.475
30
0.0
0
VERTEX
8
SLAB_00
10
99.072
20
-126.968
30
0.0
0
VERTEX
8
SLAB_00
10
104.131
20
-127.244
30
0.0
0
VERTEX
8
SLAB_00
10
109.249
20
-127.297
30
0.0
0
VERTEX
8
SLAB_00
10
114.416
20
-127.122
30
0.0
0
VERTEX
8
SLAB_00
10
119.620
20
-126.713
30
0.0
0
VERTEX
8
SLAB_00
10
124.849
20
-126.067
30
0.0
0
VERTEX
8
SLAB_00
10
130.090
20
-125.179
30
0.0
0
VERTEX
8
SLAB_00
10
135.331
20
-124.048
30
0.0
0
VERTEX
8
SLAB_00
10
140.560
20
-122.670
30
0.0
0
VERTEX
8
SLAB_00
10
145.762
20
-121.045
30
0.0
0
VERTEX
8
SLAB_00
10
150.925
20
-119.172
30
0.0
0
VERTEX
8
SLAB_00
10
156.036
20
-117.052
30
0.0
0
VERTEX
8
SLAB_00
10
161.080
20
-114.684
30
0.0
0
VERTEX
8
SLAB_00
10
166.045
20
-112.072
30
0.0
0
VERTEX
8
SLAB_00
10
170.917
20
-109.218
30
0.0
0
VERTEX
8
SLAB_00
10
175.682
20
-106.126
30
0.0
0
VERTEX
8
SLAB_00
10
180.328
20
-102.799
30
0.0
0
VERTEX
8
SLAB_00
10
184.842
20
-99.242
30
0.0
0
VERTEX
8
SLAB_00
10
189.211
20
-95.463
30
0.0
0
VERTEX
8
SLAB_00
10
193.422
20
-91.466
30
0.0
0
VERTEX
8
SLAB_00
10
197.464
20
-87.261
30
0.0
0
VERTEX
8
SLAB_00
10
201.324
20
-82.854
30
0.0
0
VERTEX
8
SLAB_00
10
204.992
20
-78.254
30
0.0
0
VERTEX
8
SLAB_00
10
208.457
20
-73.472
30
0.0
0
VERTEX
8
SLAB_00
10
211.709
20
-68.517
30
0.0
0
VERTEX
8
SLAB_00
10
214.737
20
-63.400
30
0.0
0
VERTEX
8
SLAB_00
10
217.534
20
-58.132
30
0.0
0
VERTEX
8
SLAB_00
10
220.090
20
-52.726
30
0.0
0
VERTEX
8
SLAB_00
10
222.399
20
-47.193
30
0.0
0
VERTEX
8
SLAB_00
10
224.452
20
-41.547
30
0.0
0
VERTEX
8
SLAB_00
10
226.245
20
-35.800
30
0.0
0
VERTEX
8
SLAB_00
10
227.771
20
-29.967
30
0.0
0
VERTEX
8
SLAB_00
10
229.026
20
-24.062
30
0.0
0
VERTEX
8
SLAB_00
10
230.006
20
-18.098
30
0.0
0
VERTEX
8
SLAB_00
10
230.708
20
-12.090
30
0.0
0
VERTEX
8
SLAB_00
10
231.130
20
-6.052
30
0.0
0
SEQEND
8
SLAB_00
0
TEXT
8
TEXT
10
0.000
20
142.297
30
0.0
40
8.0
1
47: s'=+1062 D=255
0
CIRCLE
8
DOWEL
10
15.000
20
18.000
30
0.0
40
3.250
0
TEXT
8
DOWEL
10
20.000
20
16.000
30
0.0
40
3.0
1
A
0
CIRCLE
8
DOWEL
10
15.000
20
-18.000
30
0.0
40
3.250
0
TEXT
8
DOWEL
10
20.000
20
-20.000
30
0.0
40
3.0
1
B
0
CIRCLE
8
DOWEL
10
45.000
20
18.000
30
0.0
40
3.250
0
TEXT
8
DOWEL
10
50.000
20
16.000
30
0.0
40
3.0
1
C
0
CIRCLE
8
DOWEL
10
45.000
20
-18.000
30
0.0
40
3.250
0
TEXT
8
DOWEL
10
50.000
20
-20.000
30
0.0
40
3.0
1
D
0
ENDSEC
0
EOF