0
SECTION
2
HEADER
9
$ACADVER
1
AC1009
9
$INSUNITS
70
4
0
ENDSEC
0
SECTION
2
TABLES
0
TABLE
2
LAYER
70
4
0
LAYER
2
0
70
0
62
7
6
CONTINUOUS
0
LAYER
2
TEXT
70
0
62
1
6
CONTINUOUS
0
LAYER
2
DOWEL
70
0
62
5
6
CONTINUOUS
0
LAYER
2
SLAB_00
70
0
62
2
6
CONTINUOUS
0
ENDTAB
0
ENDSEC
0
SECTION
2
ENTITIES
0
POLYLINE
8
SLAB_00
66
1
70
1
10
0.0
20
0.0
30
0.0
0
VERTEX
8
SLAB_00
10
326.966
20
0.000
30
0.0
0
VERTEX
8
SLAB_00
10
326.767
20
8.556
30
0.0
0
VERTEX
8
SLAB_00
10
326.171
20
17.092
30
0.0
0
VERTEX
8
SLAB_00
10
325.178
20
25.586
30
0.0
0
VERTEX
8
SLAB_00
10
323.792
20
34.018
30
0.0
0
VERTEX
8
SLAB_00
10
322.018
20
42.367
30
0.0
0
VERTEX
8
SLAB_00
10
319.861
20
50.614
30
0.0
0
VERTEX
8
SLAB_00
10
317.326
20
58.738
30
0.0
0
VERTEX
8
SLAB_00
10
314.423
20
66.720
30
0.0
0
VERTEX
8
SLAB_00
10
311.159
20
74.542
30
0.0
0
VERTEX
8
SLAB_00
10
307.545
20
82.186
30
0.0
0
VERTEX
8
SLAB_00
10
303.591
20
89.633
30
0.0
0
VERTEX
8
SLAB_00
10
299.310
20
96.868
30
0.0
0
VERTEX
8
SLAB_00
10
294.713
20
103.873
30
0.0
0
VERTEX
8
SLAB_00
10
289.814
20
110.634
30
0.0
0
VERTEX
8
SLAB_00
10
284.628
20
117.137
30
0.0
0
VERTEX
8
SLAB_00
10
279.171
20
123.367
30
0.0
0
VERTEX
8
SLAB_00
10
273.457
20
129.313
30
0.0
0
VERTEX
8
SLAB_00
10
267.503
20
134.963
30
0.0
0
VERTEX
8
SLAB_00
10
261.327
20
140.307
30
0.0
0
VERTEX
8
SLAB_00
10
254.945
20
145.335
30
0.0
0
VERTEX
8
SLAB_00
10
248.376
20
150.039
30
0.0
0
VERTEX
8
SLAB_00
10
241.639
20
154.411
30
0.0
0
VERTEX
8
SLAB_00
10
234.751
20
158.446
30
0.0
0
VERTEX
8
SLAB_00
10
227.732
20
162.139
30
0.0
0
VERTEX
8
SLAB_00
10
220.600
20
165.485
30
0.0
0
VERTEX
8
SLAB_00
10
213.375
20
168.483
30
0.0
0
VERTEX
8
SLAB_00
10
206.076
20
171.131
30
0.0
0
VERTEX
8
SLAB_00
10
198.721
20
173.429
30
0.0
0
VERTEX
8
SLAB_00
10
191.329
20
175.376
30
0.0
0
VERTEX
8
SLAB_00
10
183.919
20
176.976
30
0.0
0
VERTEX
8
SLAB_00
10
176.509
20
178.231
30
0.0
0
VERTEX
8
SLAB_00
10
169.116
20
179.144
30
0.0
0
VERTEX
8
SLAB_00
10
161.759
20
179.722
30
0.0
0
VERTEX
8
SLAB_00
10
154.454
20
179.970
30
0.0
0
VERTEX
8
SLAB_00
10
147.218
20
179.895
30
0.0
0
VERTEX
8
SLAB_00
10
140.066
20
179.505
30
0.0
0
VERTEX
8
SLAB_00
10
133.014
20
178.808
30
0.0
0
VERTEX
8
SLAB_00
10
126.076
20
177.815
30
0.0
0
VERTEX
8
SLAB_00
10
119.265
20
176.534
30
0.0
0
VERTEX
8
SLAB_00
10
112.595
20
174.978
30
0.0
0
VERTEX
8
SLAB_00
10
106.077
20
173.158
30
0.0
0
VERTEX
8
SLAB_00
10
99.723
20
171.085
30
0.0
0
VERTEX
8
SLAB_00
10
93.543
20
168.773
30
0.0
0
VERTEX
8
SLAB_00
10
87.547
20
166.235
30
0.0
0
VERTEX
8
SLAB_00
10
81.742
20
163.483
30
0.0
0
VERTEX
8
SLAB_00
10
76.136
20
160.533
30
0.0
0
VERTEX
8
SLAB_00
10
70.735
20
157.397
30
0.0
0
VERTEX
8
SLAB_00
10
65.546
20
154.090
30
0.0
0
VERTEX
8
SLAB_00
10
60.572
20
150.627
30
0.0
0
VERTEX
8
SLAB_00
10
55.818
20
147.021
30
0.0
0
VERTEX
8
SLAB_00
10
51.285
20
143.287
30
0.0
0
VERTEX
8
SLAB_00
10
46.975
20
139.439
30
0.0
0
VERTEX
8
SLAB_00
10
42.890
20
135.492
30
0.0
0
VERTEX
8
SLAB_00
10
39.028
20
131.459
30
0.0
0
VERTEX
8
SLAB_00
10
35.389
20
127.353
30
0.0
0
VERTEX
8
SLAB_00
10
31.971
20
123.188
30
0.0
0
VERTEX
8
SLAB_00
10
28.770
20
118.976
30
0.0
0
VERTEX
8
SLAB_00
10
25.784
20
114.731
30
0.0
0
VERTEX
8
SLAB_00
10
23.007
20
110.464
30
0.0
0
VERTEX
8
SLAB_00
10
20.435
20
106.185
30
0.0
0
VERTEX
8
SLAB_00
10
18.063
20
101.907
30
0.0
0
VERTEX
8
SLAB_00
10
15.883
20
97.639
30
0.0
0
VERTEX
8
SLAB_00
10
13.890
20
93.390
30
0.0
0
VERTEX
8
SLAB_00
10
12.075
20
89.170
30
0.0
0
VERTEX
8
SLAB_00
10
10.430
20
84.986
30
0.0
0
VERTEX
8
SLAB_00
10
8.949
20
80.845
30
0.0
0
VERTEX
8
SLAB_00
10
7.621
20
76.754
30
0.0
0
VERTEX
8
SLAB_00
10
6.439
20
72.719
30
0.0
0
VERTEX
8
SLAB_00
10
5.393
20
68.745
30
0.0
0
VERTEX
8
SLAB_00
10
4.474
20
64.835
30
0.0
0
VERTEX
8
SLAB_00
10
3.673
20
60.994
30
0.0
0
VERTEX
8
SLAB_00
10
2.981
20
57.223
30
0.0
0
VERTEX
8
SLAB_00
10
2.389
20
53.524
30
0.0
0
VERTEX
8
SLAB_00
10
1.887
20
49.898
30
0.0
0
VERTEX
8
SLAB_00
10
1.467
20
46.346
30
0.0
0
VERTEX
8
SLAB_00
10
1.120
20
42.867
30
0.0
0
VERTEX
8
SLAB_00
10
0.837
20
39.460
30
0.0
0
VERTEX
8
SLAB_00
10
0.611
20
36.122
30
0.0
0
VERTEX
8
SLAB_00
10
0.433
20
32.851
30
0.0
0
VERTEX
8
SLAB_00
10
0.297
20
29.643
30
0.0
0
VERTEX
8
SLAB_00
10
0.196
20
26.496
30
0.0
0
VERTEX
8
SLAB_00
10
0.123
20
23.404
30
0.0
0
VERTEX
8
SLAB_00
10
0.072
20
20.362
30
0.0
0
VERTEX
8
SLAB_00
10
0.039
20
17.366
30
0.0
0
VERTEX
8
SLAB_00
10
0.019
20
14.410
30
0.0
0
VERTEX
8
SLAB_00
10
0.008
20
11.487
30
0.0
0
VERTEX
8
SLAB_00
10
0.002
20
8.591
30
0.0
0
VERTEX
8
SLAB_00
10
0.000
20
5.716
30
0.0
0
VERTEX
8
SLAB_00
10
0.000
20
2.854
30
0.0
0
VERTEX
8
SLAB_00
10
0.000
20
0.000
30
0.0
0
VERTEX
8
SLAB_00
10
0.000
20
-2.854
30
0.0
0
VERTEX
8
SLAB_00
10
0.000
20
-5.716
30
0.0
0
VERTEX
8
SLAB_00
10
0.002
20
-8.591
30
0.0
0
VERTEX
8
SLAB_00
10
0.008
20
-11.487
30
0.0
0
VERTEX
8
SLAB_00
10
0.019
20
-14.410
30
0.0
0
VERTEX
8
SLAB_00
10
0.039
20
-17.366
30
0.0
0
VERTEX
8
SLAB_00
10
0.072
20
-20.362
30
0.0
0
VERTEX
8
SLAB_00
10
0.123
20
-23.404
30
0.0
0
VERTEX
8
SLAB_00
10
0.196
20
-26.496
30
0.0
0
VERTEX
8
SLAB_00
10
0.297
20
-29.643
30
0.0
0
VERTEX
8
SLAB_00
10
0.433
20
-32.851
30
0.0
0
VERTEX
8
SLAB_00
10
0.611
20
-36.122
30
0.0
0
VERTEX
8
SLAB_00
10
0.837
20
-39.460
30
0.0
0
VERTEX
8
SLAB_00
10
1.120
20
-42.867
30
0.0
0
VERTEX
8
SLAB_00
10
1.467
20
-46.346
30
0.0
0
VERTEX
8
SLAB_00
10
1.887
20
-49.898
30
0.0
0
VERTEX
8
SLAB_00
10
2.389
20
-53.524
30
0.0
0
VERTEX
8
SLAB_00
10
2.981
20
-57.223
30
0.0
0
VERTEX
8
SLAB_00
10
3.673
20
-60.994
30
0.0
0
VERTEX
8
SLAB_00
10
4.474
20
-64.835
30
0.0
0
VERTEX
8
SLAB_00
10
5.393
20
-68.745
30
0.0
0
VERTEX
8
SLAB_00
10
6.439
20
-72.719
30
0.0
0
VERTEX
8
SLAB_00
10
7.621
20
-76.754
30
0.0
0
VERTEX
8
SLAB_00
10
8.949
20
-80.845
30
0.0
0
VERTEX
8
SLAB_00
10
10.430
20
-84.986
30
0.0
0
VERTEX
8
SLAB_00
10
12.075
20
-89.170
30
0.0
0
VERTEX
8
SLAB_00
10
13.890
20
-93.390
30
0.0
0
VERTEX
8
SLAB_00
10
15.883
20
-97.639
30
0.0
0
VERTEX
8
SLAB_00
10
18.063
20
-101.907
30
0.0
0
VERTEX
8
SLAB_00
10
20.435
20
-106.185
30
0.0
0
VERTEX
8
SLAB_00
10
23.007
20
-110.464
30
0.0
0
VERTEX
8
SLAB_00
10
25.784
20
-114.731
30
0.0
0
VERTEX
8
SLAB_00
10
28.770
20
-118.976
30
0.0
0
VERTEX
8
SLAB_00
10
31.971
20
-123.188
30
0.0
0
VERTEX
8
SLAB_00
10
35.389
20
-127.353
30
0.0
0
VERTEX
8
SLAB_00
10
39.028
20
-131.459
30
0.0
0
VERTEX
8
SLAB_00
10
42.890
20
-135.492
30
0.0
0
VERTEX
8
SLAB_00
10
46.975
20
-139.439
30
0.0
0
VERTEX
8
SLAB_00
10
51.285
20
-143.287
30
0.0
0
VERTEX
8
SLAB_00
10
55.818
20
-147.021
30
0.0
0
VERTEX
8
SLAB_00
10
60.572
20
-150.627
30
0.0
0
VERTEX
8
SLAB_00
10
65.546
20
-154.090
30
0.0
0
VERTEX
8
SLAB_00
10
70.735
20
-157.397
30
0.0
0
VERTEX
8
SLAB_00
10
76.136
20
-160.533
30
0.0
0
VERTEX
8
SLAB_00
10
81.742
20
-163.483
30
0.0
0
VERTEX
8
SLAB_00
10
87.547
20
-166.235
30
0.0
0
VERTEX
8
SLAB_00
10
93.543
20
-168.773
30
0.0
0
VERTEX
8
SLAB_00
10
99.723
20
-171.085
30
0.0
0
VERTEX
8
SLAB_00
10
106.077
20
-173.158
30
0.0
0
VERTEX
8
SLAB_00
10
112.595
20
-174.978
30
0.0
0
VERTEX
8
SLAB_00
10
119.265
20
-176.534
30
0.0
0
VERTEX
8
SLAB_00
10
126.076
20
-177.815
30
0.0
0
VERTEX
8
SLAB_00
10
133.014
20
-178.808
30
0.0
0
VERTEX
8
SLAB_00
10
140.066
20
-179.505
30
0.0
0
VERTEX
8
SLAB_00
10
147.218
20
-179.895
30
0.0
0
VERTEX
8
SLAB_00
10
154.454
20
-179.970
30
0.0
0
VERTEX
8
SLAB_00
10
161.759
20
-179.722
30
0.0
0
VERTEX
8
SLAB_00
10
169.116
20
-179.144
30
0.0
0
VERTEX
8
SLAB_00
10
176.509
20
-178.231
30
0.0
0
VERTEX
8
SLAB_00
10
183.919
20
-176.976
30
0.0
0
VERTEX
8
SLAB_00
10
191.329
20
-175.376
30
0.0
0
VERTEX
8
SLAB_00
10
198.721
20
-173.429
30
0.0
0
VERTEX
8
SLAB_00
10
206.076
20
-171.131
30
0.0
0
VERTEX
8
SLAB_00
10
213.375
20
-168.483
30
0.0
0
VERTEX
8
SLAB_00
10
220.600
20
-165.485
30
0.0
0
VERTEX
8
SLAB_00
10
227.732
20
-162.139
30
0.0
0
VERTEX
8
SLAB_00
10
234.751
20
-158.446
30
0.0
0
VERTEX
8
SLAB_00
10
241.639
20
-154.411
30
0.0
0
VERTEX
8
SLAB_00
10
248.376
20
-150.039
30
0.0
0
VERTEX
8
SLAB_00
10
254.945
20
-145.335
30
0.0
0
VERTEX
8
SLAB_00
10
261.327
20
-140.307
30
0.0
0
VERTEX
8
SLAB_00
10
267.503
20
-134.963
30
0.0
0
VERTEX
8
SLAB_00
10
273.457
20
-129.313
30
0.0
0
VERTEX
8
SLAB_00
10
279.171
20
-123.367
30
0.0
0
VERTEX
8
SLAB_00
10
284.628
20
-117.137
30
0.0
0
VERTEX
8
SLAB_00
10
289.814
20
-110.634
30
0.0
0
VERTEX
8
SLAB_00
10
294.713
20
-103.873
30
0.0
0
VERTEX
8
SLAB_00
10
299.310
20
-96.868
30
0.0
0
VERTEX
8
SLAB_00
10
303.591
20
-89.633
30
0.0
0
VERTEX
8
SLAB_00
10
307.545
20
-82.186
30
0.0
0
VERTEX
8
SLAB_00
10
311.159
20
-74.542
30
0.0
0
VERTEX
8
SLAB_00
10
314.423
20
-66.720
30
0.0
0
VERTEX
8
SLAB_00
10
317.326
20
-58.738
30
0.0
0
VERTEX
8
SLAB_00
10
319.861
20
-50.614
30
0.0
0
VERTEX
8
SLAB_00
10
322.018
20
-42.367
30
0.0
0
VERTEX
8
SLAB_00
10
323.792
20
-34.018
30
0.0
0
VERTEX
8
SLAB_00
10
325.178
20
-25.586
30
0.0
0
VERTEX
8
SLAB_00
10
326.171
20
-17.092
30
0.0
0
VERTEX
8
SLAB_00
10
326.767
20
-8.556
30
0.0
0
SEQEND
8
SLAB_00
0
TEXT
8
TEXT
10
0.000
20
194.970
30
0.0
40
8.0
1
26: s'=+529 D=360
0
CIRCLE
8
DOWEL
10
15.000
20
18.000
30
0.0
40
3.250
0
TEXT
8
DOWEL
10
20.000
20
16.000
30
0.0
40
3.0
1
A
0
CIRCLE
8
DOWEL
10
15.000
20
-18.000
30
0.0
40
3.250
0
TEXT
8
DOWEL
10
20.000
20
-20.000
30
0.0
40
3.0
1
B
0
CIRCLE
8
DOWEL
10
45.000
20
18.000
30
0.0
40
3.250
0
TEXT
8
DOWEL
10
50.000
20
16.000
30
0.0
40
3.0
1
C
0
CIRCLE
8
DOWEL
10
45.000
20
-18.000
30
0.0
40
3.250
0
TEXT
8
DOWEL
10
50.000
20
-20.000
30
0.0
40
3.0
1
D
0
ENDSEC
0
EOF