0
SECTION
2
HEADER
9
$ACADVER
1
AC1009
9
$INSUNITS
70
4
0
ENDSEC
0
SECTION
2
TABLES
0
TABLE
2
LAYER
70
4
0
LAYER
2
0
70
0
62
7
6
CONTINUOUS
0
LAYER
2
TEXT
70
0
62
1
6
CONTINUOUS
0
LAYER
2
DOWEL
70
0
62
5
6
CONTINUOUS
0
LAYER
2
SLAB_00
70
0
62
2
6
CONTINUOUS
0
ENDTAB
0
ENDSEC
0
SECTION
2
ENTITIES
0
POLYLINE
8
SLAB_00
66
1
70
1
10
0.0
20
0.0
30
0.0
0
VERTEX
8
SLAB_00
10
245.971
20
0.000
30
0.0
0
VERTEX
8
SLAB_00
10
245.821
20
6.437
30
0.0
0
VERTEX
8
SLAB_00
10
245.372
20
12.858
30
0.0
0
VERTEX
8
SLAB_00
10
244.625
20
19.248
30
0.0
0
VERTEX
8
SLAB_00
10
243.583
20
25.591
30
0.0
0
VERTEX
8
SLAB_00
10
242.248
20
31.872
30
0.0
0
VERTEX
8
SLAB_00
10
240.625
20
38.076
30
0.0
0
VERTEX
8
SLAB_00
10
238.719
20
44.187
30
0.0
0
VERTEX
8
SLAB_00
10
236.534
20
50.192
30
0.0
0
VERTEX
8
SLAB_00
10
234.079
20
56.077
30
0.0
0
VERTEX
8
SLAB_00
10
231.360
20
61.827
30
0.0
0
VERTEX
8
SLAB_00
10
228.386
20
67.429
30
0.0
0
VERTEX
8
SLAB_00
10
225.165
20
72.872
30
0.0
0
VERTEX
8
SLAB_00
10
221.707
20
78.142
30
0.0
0
VERTEX
8
SLAB_00
10
218.022
20
83.228
30
0.0
0
VERTEX
8
SLAB_00
10
214.121
20
88.120
30
0.0
0
VERTEX
8
SLAB_00
10
210.015
20
92.807
30
0.0
0
VERTEX
8
SLAB_00
10
205.716
20
97.280
30
0.0
0
VERTEX
8
SLAB_00
10
201.237
20
101.530
30
0.0
0
VERTEX
8
SLAB_00
10
196.591
20
105.550
30
0.0
0
VERTEX
8
SLAB_00
10
191.790
20
109.333
30
0.0
0
VERTEX
8
SLAB_00
10
186.849
20
112.871
30
0.0
0
VERTEX
8
SLAB_00
10
181.780
20
116.160
30
0.0
0
VERTEX
8
SLAB_00
10
176.599
20
119.196
30
0.0
0
VERTEX
8
SLAB_00
10
171.318
20
121.974
30
0.0
0
VERTEX
8
SLAB_00
10
165.953
20
124.491
30
0.0
0
VERTEX
8
SLAB_00
10
160.518
20
126.747
30
0.0
0
VERTEX
8
SLAB_00
10
155.027
20
128.739
30
0.0
0
VERTEX
8
SLAB_00
10
149.494
20
130.467
30
0.0
0
VERTEX
8
SLAB_00
10
143.933
20
131.932
30
0.0
0
VERTEX
8
SLAB_00
10
138.358
20
133.136
30
0.0
0
VERTEX
8
SLAB_00
10
132.784
20
134.079
30
0.0
0
VERTEX
8
SLAB_00
10
127.223
20
134.767
30
0.0
0
VERTEX
8
SLAB_00
10
121.688
20
135.202
30
0.0
0
VERTEX
8
SLAB_00
10
116.193
20
135.388
30
0.0
0
VERTEX
8
SLAB_00
10
110.749
20
135.332
30
0.0
0
VERTEX
8
SLAB_00
10
105.369
20
135.038
30
0.0
0
VERTEX
8
SLAB_00
10
100.064
20
134.514
30
0.0
0
VERTEX
8
SLAB_00
10
94.844
20
133.767
30
0.0
0
VERTEX
8
SLAB_00
10
89.721
20
132.803
30
0.0
0
VERTEX
8
SLAB_00
10
84.703
20
131.633
30
0.0
0
VERTEX
8
SLAB_00
10
79.800
20
130.263
30
0.0
0
VERTEX
8
SLAB_00
10
75.020
20
128.704
30
0.0
0
VERTEX
8
SLAB_00
10
70.371
20
126.965
30
0.0
0
VERTEX
8
SLAB_00
10
65.860
20
125.055
30
0.0
0
VERTEX
8
SLAB_00
10
61.493
20
122.985
30
0.0
0
VERTEX
8
SLAB_00
10
57.275
20
120.766
30
0.0
0
VERTEX
8
SLAB_00
10
53.213
20
118.407
30
0.0
0
VERTEX
8
SLAB_00
10
49.309
20
115.919
30
0.0
0
VERTEX
8
SLAB_00
10
45.567
20
113.314
30
0.0
0
VERTEX
8
SLAB_00
10
41.991
20
110.601
30
0.0
0
VERTEX
8
SLAB_00
10
38.581
20
107.792
30
0.0
0
VERTEX
8
SLAB_00
10
35.339
20
104.898
30
0.0
0
VERTEX
8
SLAB_00
10
32.265
20
101.928
30
0.0
0
VERTEX
8
SLAB_00
10
29.360
20
98.894
30
0.0
0
VERTEX
8
SLAB_00
10
26.622
20
95.805
30
0.0
0
VERTEX
8
SLAB_00
10
24.051
20
92.672
30
0.0
0
VERTEX
8
SLAB_00
10
21.643
20
89.504
30
0.0
0
VERTEX
8
SLAB_00
10
19.396
20
86.310
30
0.0
0
VERTEX
8
SLAB_00
10
17.308
20
83.100
30
0.0
0
VERTEX
8
SLAB_00
10
15.373
20
79.881
30
0.0
0
VERTEX
8
SLAB_00
10
13.588
20
76.663
30
0.0
0
VERTEX
8
SLAB_00
10
11.949
20
73.452
30
0.0
0
VERTEX
8
SLAB_00
10
10.449
20
70.256
30
0.0
0
VERTEX
8
SLAB_00
10
9.083
20
67.081
30
0.0
0
VERTEX
8
SLAB_00
10
7.847
20
63.933
30
0.0
0
VERTEX
8
SLAB_00
10
6.732
20
60.818
30
0.0
0
VERTEX
8
SLAB_00
10
5.733
20
57.741
30
0.0
0
VERTEX
8
SLAB_00
10
4.844
20
54.705
30
0.0
0
VERTEX
8
SLAB_00
10
4.057
20
51.715
30
0.0
0
VERTEX
8
SLAB_00
10
3.366
20
48.774
30
0.0
0
VERTEX
8
SLAB_00
10
2.763
20
45.884
30
0.0
0
VERTEX
8
SLAB_00
10
2.243
20
43.047
30
0.0
0
VERTEX
8
SLAB_00
10
1.797
20
40.265
30
0.0
0
VERTEX
8
SLAB_00
10
1.420
20
37.538
30
0.0
0
VERTEX
8
SLAB_00
10
1.104
20
34.866
30
0.0
0
VERTEX
8
SLAB_00
10
0.843
20
32.248
30
0.0
0
VERTEX
8
SLAB_00
10
0.630
20
29.685
30
0.0
0
VERTEX
8
SLAB_00
10
0.460
20
27.174
30
0.0
0
VERTEX
8
SLAB_00
10
0.326
20
24.713
30
0.0
0
VERTEX
8
SLAB_00
10
0.224
20
22.300
30
0.0
0
VERTEX
8
SLAB_00
10
0.147
20
19.932
30
0.0
0
VERTEX
8
SLAB_00
10
0.092
20
17.606
30
0.0
0
VERTEX
8
SLAB_00
10
0.054
20
15.318
30
0.0
0
VERTEX
8
SLAB_00
10
0.029
20
13.064
30
0.0
0
VERTEX
8
SLAB_00
10
0.014
20
10.840
30
0.0
0
VERTEX
8
SLAB_00
10
0.006
20
8.641
30
0.0
0
VERTEX
8
SLAB_00
10
0.002
20
6.463
30
0.0
0
VERTEX
8
SLAB_00
10
0.000
20
4.300
30
0.0
0
VERTEX
8
SLAB_00
10
0.000
20
2.147
30
0.0
0
VERTEX
8
SLAB_00
10
0.000
20
0.000
30
0.0
0
VERTEX
8
SLAB_00
10
0.000
20
-2.147
30
0.0
0
VERTEX
8
SLAB_00
10
0.000
20
-4.300
30
0.0
0
VERTEX
8
SLAB_00
10
0.002
20
-6.463
30
0.0
0
VERTEX
8
SLAB_00
10
0.006
20
-8.641
30
0.0
0
VERTEX
8
SLAB_00
10
0.014
20
-10.840
30
0.0
0
VERTEX
8
SLAB_00
10
0.029
20
-13.064
30
0.0
0
VERTEX
8
SLAB_00
10
0.054
20
-15.318
30
0.0
0
VERTEX
8
SLAB_00
10
0.092
20
-17.606
30
0.0
0
VERTEX
8
SLAB_00
10
0.147
20
-19.932
30
0.0
0
VERTEX
8
SLAB_00
10
0.224
20
-22.300
30
0.0
0
VERTEX
8
SLAB_00
10
0.326
20
-24.713
30
0.0
0
VERTEX
8
SLAB_00
10
0.460
20
-27.174
30
0.0
0
VERTEX
8
SLAB_00
10
0.630
20
-29.685
30
0.0
0
VERTEX
8
SLAB_00
10
0.843
20
-32.248
30
0.0
0
VERTEX
8
SLAB_00
10
1.104
20
-34.866
30
0.0
0
VERTEX
8
SLAB_00
10
1.420
20
-37.538
30
0.0
0
VERTEX
8
SLAB_00
10
1.797
20
-40.265
30
0.0
0
VERTEX
8
SLAB_00
10
2.243
20
-43.047
30
0.0
0
VERTEX
8
SLAB_00
10
2.763
20
-45.884
30
0.0
0
VERTEX
8
SLAB_00
10
3.366
20
-48.774
30
0.0
0
VERTEX
8
SLAB_00
10
4.057
20
-51.715
30
0.0
0
VERTEX
8
SLAB_00
10
4.844
20
-54.705
30
0.0
0
VERTEX
8
SLAB_00
10
5.733
20
-57.741
30
0.0
0
VERTEX
8
SLAB_00
10
6.732
20
-60.818
30
0.0
0
VERTEX
8
SLAB_00
10
7.847
20
-63.933
30
0.0
0
VERTEX
8
SLAB_00
10
9.083
20
-67.081
30
0.0
0
VERTEX
8
SLAB_00
10
10.449
20
-70.256
30
0.0
0
VERTEX
8
SLAB_00
10
11.949
20
-73.452
30
0.0
0
VERTEX
8
SLAB_00
10
13.588
20
-76.663
30
0.0
0
VERTEX
8
SLAB_00
10
15.373
20
-79.881
30
0.0
0
VERTEX
8
SLAB_00
10
17.308
20
-83.100
30
0.0
0
VERTEX
8
SLAB_00
10
19.396
20
-86.310
30
0.0
0
VERTEX
8
SLAB_00
10
21.643
20
-89.504
30
0.0
0
VERTEX
8
SLAB_00
10
24.051
20
-92.672
30
0.0
0
VERTEX
8
SLAB_00
10
26.622
20
-95.805
30
0.0
0
VERTEX
8
SLAB_00
10
29.360
20
-98.894
30
0.0
0
VERTEX
8
SLAB_00
10
32.265
20
-101.928
30
0.0
0
VERTEX
8
SLAB_00
10
35.339
20
-104.898
30
0.0
0
VERTEX
8
SLAB_00
10
38.581
20
-107.792
30
0.0
0
VERTEX
8
SLAB_00
10
41.991
20
-110.601
30
0.0
0
VERTEX
8
SLAB_00
10
45.567
20
-113.314
30
0.0
0
VERTEX
8
SLAB_00
10
49.309
20
-115.919
30
0.0
0
VERTEX
8
SLAB_00
10
53.213
20
-118.407
30
0.0
0
VERTEX
8
SLAB_00
10
57.275
20
-120.766
30
0.0
0
VERTEX
8
SLAB_00
10
61.493
20
-122.985
30
0.0
0
VERTEX
8
SLAB_00
10
65.860
20
-125.055
30
0.0
0
VERTEX
8
SLAB_00
10
70.371
20
-126.965
30
0.0
0
VERTEX
8
SLAB_00
10
75.020
20
-128.704
30
0.0
0
VERTEX
8
SLAB_00
10
79.800
20
-130.263
30
0.0
0
VERTEX
8
SLAB_00
10
84.703
20
-131.633
30
0.0
0
VERTEX
8
SLAB_00
10
89.721
20
-132.803
30
0.0
0
VERTEX
8
SLAB_00
10
94.844
20
-133.767
30
0.0
0
VERTEX
8
SLAB_00
10
100.064
20
-134.514
30
0.0
0
VERTEX
8
SLAB_00
10
105.369
20
-135.038
30
0.0
0
VERTEX
8
SLAB_00
10
110.749
20
-135.332
30
0.0
0
VERTEX
8
SLAB_00
10
116.193
20
-135.388
30
0.0
0
VERTEX
8
SLAB_00
10
121.688
20
-135.202
30
0.0
0
VERTEX
8
SLAB_00
10
127.223
20
-134.767
30
0.0
0
VERTEX
8
SLAB_00
10
132.784
20
-134.079
30
0.0
0
VERTEX
8
SLAB_00
10
138.358
20
-133.136
30
0.0
0
VERTEX
8
SLAB_00
10
143.933
20
-131.932
30
0.0
0
VERTEX
8
SLAB_00
10
149.494
20
-130.467
30
0.0
0
VERTEX
8
SLAB_00
10
155.027
20
-128.739
30
0.0
0
VERTEX
8
SLAB_00
10
160.518
20
-126.747
30
0.0
0
VERTEX
8
SLAB_00
10
165.953
20
-124.491
30
0.0
0
VERTEX
8
SLAB_00
10
171.318
20
-121.974
30
0.0
0
VERTEX
8
SLAB_00
10
176.599
20
-119.196
30
0.0
0
VERTEX
8
SLAB_00
10
181.780
20
-116.160
30
0.0
0
VERTEX
8
SLAB_00
10
186.849
20
-112.871
30
0.0
0
VERTEX
8
SLAB_00
10
191.790
20
-109.333
30
0.0
0
VERTEX
8
SLAB_00
10
196.591
20
-105.550
30
0.0
0
VERTEX
8
SLAB_00
10
201.237
20
-101.530
30
0.0
0
VERTEX
8
SLAB_00
10
205.716
20
-97.280
30
0.0
0
VERTEX
8
SLAB_00
10
210.015
20
-92.807
30
0.0
0
VERTEX
8
SLAB_00
10
214.121
20
-88.120
30
0.0
0
VERTEX
8
SLAB_00
10
218.022
20
-83.228
30
0.0
0
VERTEX
8
SLAB_00
10
221.707
20
-78.142
30
0.0
0
VERTEX
8
SLAB_00
10
225.165
20
-72.872
30
0.0
0
VERTEX
8
SLAB_00
10
228.386
20
-67.429
30
0.0
0
VERTEX
8
SLAB_00
10
231.360
20
-61.827
30
0.0
0
VERTEX
8
SLAB_00
10
234.079
20
-56.077
30
0.0
0
VERTEX
8
SLAB_00
10
236.534
20
-50.192
30
0.0
0
VERTEX
8
SLAB_00
10
238.719
20
-44.187
30
0.0
0
VERTEX
8
SLAB_00
10
240.625
20
-38.076
30
0.0
0
VERTEX
8
SLAB_00
10
242.248
20
-31.872
30
0.0
0
VERTEX
8
SLAB_00
10
243.583
20
-25.591
30
0.0
0
VERTEX
8
SLAB_00
10
244.625
20
-19.248
30
0.0
0
VERTEX
8
SLAB_00
10
245.372
20
-12.858
30
0.0
0
VERTEX
8
SLAB_00
10
245.821
20
-6.437
30
0.0
0
SEQEND
8
SLAB_00
0
TEXT
8
TEXT
10
0.000
20
150.388
30
0.0
40
8.0
1
08: s'=+97 D=271
0
CIRCLE
8
DOWEL
10
15.000
20
18.000
30
0.0
40
3.250
0
TEXT
8
DOWEL
10
20.000
20
16.000
30
0.0
40
3.0
1
A
0
CIRCLE
8
DOWEL
10
15.000
20
-18.000
30
0.0
40
3.250
0
TEXT
8
DOWEL
10
20.000
20
-20.000
30
0.0
40
3.0
1
B
0
CIRCLE
8
DOWEL
10
45.000
20
18.000
30
0.0
40
3.250
0
TEXT
8
DOWEL
10
50.000
20
16.000
30
0.0
40
3.0
1
C
0
CIRCLE
8
DOWEL
10
45.000
20
-18.000
30
0.0
40
3.250
0
TEXT
8
DOWEL
10
50.000
20
-20.000
30
0.0
40
3.0
1
D
0
ENDSEC
0
EOF