0
SECTION
2
HEADER
9
$ACADVER
1
AC1009
9
$INSUNITS
70
4
0
ENDSEC
0
SECTION
2
TABLES
0
TABLE
2
LAYER
70
4
0
LAYER
2
0
70
0
62
7
6
CONTINUOUS
0
LAYER
2
TEXT
70
0
62
1
6
CONTINUOUS
0
LAYER
2
DOWEL
70
0
62
5
6
CONTINUOUS
0
LAYER
2
SLAB_00
70
0
62
2
6
CONTINUOUS
0
ENDTAB
0
ENDSEC
0
SECTION
2
ENTITIES
0
POLYLINE
8
SLAB_00
66
1
70
1
10
0.0
20
0.0
30
0.0
0
VERTEX
8
SLAB_00
10
136.495
20
0.000
30
0.0
0
VERTEX
8
SLAB_00
10
136.412
20
3.572
30
0.0
0
VERTEX
8
SLAB_00
10
136.163
20
7.135
30
0.0
0
VERTEX
8
SLAB_00
10
135.749
20
10.681
30
0.0
0
VERTEX
8
SLAB_00
10
135.170
20
14.201
30
0.0
0
VERTEX
8
SLAB_00
10
134.430
20
17.687
30
0.0
0
VERTEX
8
SLAB_00
10
133.529
20
21.129
30
0.0
0
VERTEX
8
SLAB_00
10
132.471
20
24.521
30
0.0
0
VERTEX
8
SLAB_00
10
131.259
20
27.853
30
0.0
0
VERTEX
8
SLAB_00
10
129.897
20
31.118
30
0.0
0
VERTEX
8
SLAB_00
10
128.388
20
34.309
30
0.0
0
VERTEX
8
SLAB_00
10
126.737
20
37.418
30
0.0
0
VERTEX
8
SLAB_00
10
124.950
20
40.438
30
0.0
0
VERTEX
8
SLAB_00
10
123.031
20
43.363
30
0.0
0
VERTEX
8
SLAB_00
10
120.986
20
46.185
30
0.0
0
VERTEX
8
SLAB_00
10
118.821
20
48.900
30
0.0
0
VERTEX
8
SLAB_00
10
116.543
20
51.501
30
0.0
0
VERTEX
8
SLAB_00
10
114.157
20
53.983
30
0.0
0
VERTEX
8
SLAB_00
10
111.672
20
56.342
30
0.0
0
VERTEX
8
SLAB_00
10
109.093
20
58.573
30
0.0
0
VERTEX
8
SLAB_00
10
106.429
20
60.671
30
0.0
0
VERTEX
8
SLAB_00
10
103.687
20
62.635
30
0.0
0
VERTEX
8
SLAB_00
10
100.875
20
64.460
30
0.0
0
VERTEX
8
SLAB_00
10
97.999
20
66.145
30
0.0
0
VERTEX
8
SLAB_00
10
95.069
20
67.686
30
0.0
0
VERTEX
8
SLAB_00
10
92.092
20
69.083
30
0.0
0
VERTEX
8
SLAB_00
10
89.076
20
70.335
30
0.0
0
VERTEX
8
SLAB_00
10
86.028
20
71.440
30
0.0
0
VERTEX
8
SLAB_00
10
82.958
20
72.399
30
0.0
0
VERTEX
8
SLAB_00
10
79.872
20
73.212
30
0.0
0
VERTEX
8
SLAB_00
10
76.779
20
73.880
30
0.0
0
VERTEX
8
SLAB_00
10
73.685
20
74.404
30
0.0
0
VERTEX
8
SLAB_00
10
70.599
20
74.786
30
0.0
0
VERTEX
8
SLAB_00
10
67.528
20
75.027
30
0.0
0
VERTEX
8
SLAB_00
10
64.478
20
75.130
30
0.0
0
VERTEX
8
SLAB_00
10
61.458
20
75.099
30
0.0
0
VERTEX
8
SLAB_00
10
58.472
20
74.936
30
0.0
0
VERTEX
8
SLAB_00
10
55.528
20
74.645
30
0.0
0
VERTEX
8
SLAB_00
10
52.632
20
74.231
30
0.0
0
VERTEX
8
SLAB_00
10
49.788
20
73.696
30
0.0
0
VERTEX
8
SLAB_00
10
47.004
20
73.046
30
0.0
0
VERTEX
8
SLAB_00
10
44.283
20
72.286
30
0.0
0
VERTEX
8
SLAB_00
10
41.631
20
71.421
30
0.0
0
VERTEX
8
SLAB_00
10
39.051
20
70.456
30
0.0
0
VERTEX
8
SLAB_00
10
36.547
20
69.396
30
0.0
0
VERTEX
8
SLAB_00
10
34.124
20
68.248
30
0.0
0
VERTEX
8
SLAB_00
10
31.784
20
67.016
30
0.0
0
VERTEX
8
SLAB_00
10
29.529
20
65.707
30
0.0
0
VERTEX
8
SLAB_00
10
27.363
20
64.326
30
0.0
0
VERTEX
8
SLAB_00
10
25.287
20
62.881
30
0.0
0
VERTEX
8
SLAB_00
10
23.302
20
61.375
30
0.0
0
VERTEX
8
SLAB_00
10
21.409
20
59.817
30
0.0
0
VERTEX
8
SLAB_00
10
19.610
20
58.210
30
0.0
0
VERTEX
8
SLAB_00
10
17.905
20
56.562
30
0.0
0
VERTEX
8
SLAB_00
10
16.293
20
54.879
30
0.0
0
VERTEX
8
SLAB_00
10
14.773
20
53.165
30
0.0
0
VERTEX
8
SLAB_00
10
13.346
20
51.426
30
0.0
0
VERTEX
8
SLAB_00
10
12.010
20
49.668
30
0.0
0
VERTEX
8
SLAB_00
10
10.764
20
47.896
30
0.0
0
VERTEX
8
SLAB_00
10
9.605
20
46.114
30
0.0
0
VERTEX
8
SLAB_00
10
8.531
20
44.328
30
0.0
0
VERTEX
8
SLAB_00
10
7.541
20
42.542
30
0.0
0
VERTEX
8
SLAB_00
10
6.631
20
40.760
30
0.0
0
VERTEX
8
SLAB_00
10
5.798
20
38.987
30
0.0
0
VERTEX
8
SLAB_00
10
5.041
20
37.225
30
0.0
0
VERTEX
8
SLAB_00
10
4.354
20
35.478
30
0.0
0
VERTEX
8
SLAB_00
10
3.736
20
33.749
30
0.0
0
VERTEX
8
SLAB_00
10
3.181
20
32.042
30
0.0
0
VERTEX
8
SLAB_00
10
2.688
20
30.357
30
0.0
0
VERTEX
8
SLAB_00
10
2.251
20
28.698
30
0.0
0
VERTEX
8
SLAB_00
10
1.868
20
27.066
30
0.0
0
VERTEX
8
SLAB_00
10
1.534
20
25.462
30
0.0
0
VERTEX
8
SLAB_00
10
1.245
20
23.888
30
0.0
0
VERTEX
8
SLAB_00
10
0.997
20
22.344
30
0.0
0
VERTEX
8
SLAB_00
10
0.788
20
20.831
30
0.0
0
VERTEX
8
SLAB_00
10
0.612
20
19.348
30
0.0
0
VERTEX
8
SLAB_00
10
0.468
20
17.895
30
0.0
0
VERTEX
8
SLAB_00
10
0.350
20
16.473
30
0.0
0
VERTEX
8
SLAB_00
10
0.255
20
15.079
30
0.0
0
VERTEX
8
SLAB_00
10
0.181
20
13.714
30
0.0
0
VERTEX
8
SLAB_00
10
0.124
20
12.375
30
0.0
0
VERTEX
8
SLAB_00
10
0.082
20
11.061
30
0.0
0
VERTEX
8
SLAB_00
10
0.051
20
9.770
30
0.0
0
VERTEX
8
SLAB_00
10
0.030
20
8.501
30
0.0
0
VERTEX
8
SLAB_00
10
0.016
20
7.250
30
0.0
0
VERTEX
8
SLAB_00
10
0.008
20
6.016
30
0.0
0
VERTEX
8
SLAB_00
10
0.003
20
4.795
30
0.0
0
VERTEX
8
SLAB_00
10
0.001
20
3.586
30
0.0
0
VERTEX
8
SLAB_00
10
0.000
20
2.386
30
0.0
0
VERTEX
8
SLAB_00
10
0.000
20
1.192
30
0.0
0
VERTEX
8
SLAB_00
10
0.000
20
0.000
30
0.0
0
VERTEX
8
SLAB_00
10
0.000
20
-1.192
30
0.0
0
VERTEX
8
SLAB_00
10
0.000
20
-2.386
30
0.0
0
VERTEX
8
SLAB_00
10
0.001
20
-3.586
30
0.0
0
VERTEX
8
SLAB_00
10
0.003
20
-4.795
30
0.0
0
VERTEX
8
SLAB_00
10
0.008
20
-6.016
30
0.0
0
VERTEX
8
SLAB_00
10
0.016
20
-7.250
30
0.0
0
VERTEX
8
SLAB_00
10
0.030
20
-8.501
30
0.0
0
VERTEX
8
SLAB_00
10
0.051
20
-9.770
30
0.0
0
VERTEX
8
SLAB_00
10
0.082
20
-11.061
30
0.0
0
VERTEX
8
SLAB_00
10
0.124
20
-12.375
30
0.0
0
VERTEX
8
SLAB_00
10
0.181
20
-13.714
30
0.0
0
VERTEX
8
SLAB_00
10
0.255
20
-15.079
30
0.0
0
VERTEX
8
SLAB_00
10
0.350
20
-16.473
30
0.0
0
VERTEX
8
SLAB_00
10
0.468
20
-17.895
30
0.0
0
VERTEX
8
SLAB_00
10
0.612
20
-19.348
30
0.0
0
VERTEX
8
SLAB_00
10
0.788
20
-20.831
30
0.0
0
VERTEX
8
SLAB_00
10
0.997
20
-22.344
30
0.0
0
VERTEX
8
SLAB_00
10
1.245
20
-23.888
30
0.0
0
VERTEX
8
SLAB_00
10
1.534
20
-25.462
30
0.0
0
VERTEX
8
SLAB_00
10
1.868
20
-27.066
30
0.0
0
VERTEX
8
SLAB_00
10
2.251
20
-28.698
30
0.0
0
VERTEX
8
SLAB_00
10
2.688
20
-30.357
30
0.0
0
VERTEX
8
SLAB_00
10
3.181
20
-32.042
30
0.0
0
VERTEX
8
SLAB_00
10
3.736
20
-33.749
30
0.0
0
VERTEX
8
SLAB_00
10
4.354
20
-35.478
30
0.0
0
VERTEX
8
SLAB_00
10
5.041
20
-37.225
30
0.0
0
VERTEX
8
SLAB_00
10
5.798
20
-38.987
30
0.0
0
VERTEX
8
SLAB_00
10
6.631
20
-40.760
30
0.0
0
VERTEX
8
SLAB_00
10
7.541
20
-42.542
30
0.0
0
VERTEX
8
SLAB_00
10
8.531
20
-44.328
30
0.0
0
VERTEX
8
SLAB_00
10
9.605
20
-46.114
30
0.0
0
VERTEX
8
SLAB_00
10
10.764
20
-47.896
30
0.0
0
VERTEX
8
SLAB_00
10
12.010
20
-49.668
30
0.0
0
VERTEX
8
SLAB_00
10
13.346
20
-51.426
30
0.0
0
VERTEX
8
SLAB_00
10
14.773
20
-53.165
30
0.0
0
VERTEX
8
SLAB_00
10
16.293
20
-54.879
30
0.0
0
VERTEX
8
SLAB_00
10
17.905
20
-56.562
30
0.0
0
VERTEX
8
SLAB_00
10
19.610
20
-58.210
30
0.0
0
VERTEX
8
SLAB_00
10
21.409
20
-59.817
30
0.0
0
VERTEX
8
SLAB_00
10
23.302
20
-61.375
30
0.0
0
VERTEX
8
SLAB_00
10
25.287
20
-62.881
30
0.0
0
VERTEX
8
SLAB_00
10
27.363
20
-64.326
30
0.0
0
VERTEX
8
SLAB_00
10
29.529
20
-65.707
30
0.0
0
VERTEX
8
SLAB_00
10
31.784
20
-67.016
30
0.0
0
VERTEX
8
SLAB_00
10
34.124
20
-68.248
30
0.0
0
VERTEX
8
SLAB_00
10
36.547
20
-69.396
30
0.0
0
VERTEX
8
SLAB_00
10
39.051
20
-70.456
30
0.0
0
VERTEX
8
SLAB_00
10
41.631
20
-71.421
30
0.0
0
VERTEX
8
SLAB_00
10
44.283
20
-72.286
30
0.0
0
VERTEX
8
SLAB_00
10
47.004
20
-73.046
30
0.0
0
VERTEX
8
SLAB_00
10
49.788
20
-73.696
30
0.0
0
VERTEX
8
SLAB_00
10
52.632
20
-74.231
30
0.0
0
VERTEX
8
SLAB_00
10
55.528
20
-74.645
30
0.0
0
VERTEX
8
SLAB_00
10
58.472
20
-74.936
30
0.0
0
VERTEX
8
SLAB_00
10
61.458
20
-75.099
30
0.0
0
VERTEX
8
SLAB_00
10
64.478
20
-75.130
30
0.0
0
VERTEX
8
SLAB_00
10
67.528
20
-75.027
30
0.0
0
VERTEX
8
SLAB_00
10
70.599
20
-74.786
30
0.0
0
VERTEX
8
SLAB_00
10
73.685
20
-74.404
30
0.0
0
VERTEX
8
SLAB_00
10
76.779
20
-73.880
30
0.0
0
VERTEX
8
SLAB_00
10
79.872
20
-73.212
30
0.0
0
VERTEX
8
SLAB_00
10
82.958
20
-72.399
30
0.0
0
VERTEX
8
SLAB_00
10
86.028
20
-71.440
30
0.0
0
VERTEX
8
SLAB_00
10
89.076
20
-70.335
30
0.0
0
VERTEX
8
SLAB_00
10
92.092
20
-69.083
30
0.0
0
VERTEX
8
SLAB_00
10
95.069
20
-67.686
30
0.0
0
VERTEX
8
SLAB_00
10
97.999
20
-66.145
30
0.0
0
VERTEX
8
SLAB_00
10
100.875
20
-64.460
30
0.0
0
VERTEX
8
SLAB_00
10
103.687
20
-62.635
30
0.0
0
VERTEX
8
SLAB_00
10
106.429
20
-60.671
30
0.0
0
VERTEX
8
SLAB_00
10
109.093
20
-58.573
30
0.0
0
VERTEX
8
SLAB_00
10
111.672
20
-56.342
30
0.0
0
VERTEX
8
SLAB_00
10
114.157
20
-53.983
30
0.0
0
VERTEX
8
SLAB_00
10
116.543
20
-51.501
30
0.0
0
VERTEX
8
SLAB_00
10
118.821
20
-48.900
30
0.0
0
VERTEX
8
SLAB_00
10
120.986
20
-46.185
30
0.0
0
VERTEX
8
SLAB_00
10
123.031
20
-43.363
30
0.0
0
VERTEX
8
SLAB_00
10
124.950
20
-40.438
30
0.0
0
VERTEX
8
SLAB_00
10
126.737
20
-37.418
30
0.0
0
VERTEX
8
SLAB_00
10
128.388
20
-34.309
30
0.0
0
VERTEX
8
SLAB_00
10
129.897
20
-31.118
30
0.0
0
VERTEX
8
SLAB_00
10
131.259
20
-27.853
30
0.0
0
VERTEX
8
SLAB_00
10
132.471
20
-24.521
30
0.0
0
VERTEX
8
SLAB_00
10
133.529
20
-21.129
30
0.0
0
VERTEX
8
SLAB_00
10
134.430
20
-17.687
30
0.0
0
VERTEX
8
SLAB_00
10
135.170
20
-14.201
30
0.0
0
VERTEX
8
SLAB_00
10
135.749
20
-10.681
30
0.0
0
VERTEX
8
SLAB_00
10
136.163
20
-7.135
30
0.0
0
VERTEX
8
SLAB_00
10
136.412
20
-3.572
30
0.0
0
SEQEND
8
SLAB_00
0
TEXT
8
TEXT
10
0.000
20
90.130
30
0.0
40
8.0
1
58: s'=+1341 D=150
0
CIRCLE
8
DOWEL
10
15.000
20
18.000
30
0.0
40
3.250
0
TEXT
8
DOWEL
10
20.000
20
16.000
30
0.0
40
3.0
1
A
0
CIRCLE
8
DOWEL
10
15.000
20
-18.000
30
0.0
40
3.250
0
TEXT
8
DOWEL
10
20.000
20
-20.000
30
0.0
40
3.0
1
B
0
CIRCLE
8
DOWEL
10
45.000
20
18.000
30
0.0
40
3.250
0
TEXT
8
DOWEL
10
50.000
20
16.000
30
0.0
40
3.0
1
C
0
CIRCLE
8
DOWEL
10
45.000
20
-18.000
30
0.0
40
3.250
0
TEXT
8
DOWEL
10
50.000
20
-20.000
30
0.0
40
3.0
1
D
0
ENDSEC
0
EOF