0
SECTION
2
HEADER
9
$ACADVER
1
AC1009
9
$INSUNITS
70
4
0
ENDSEC
0
SECTION
2
TABLES
0
TABLE
2
LAYER
70
4
0
LAYER
2
0
70
0
62
7
6
CONTINUOUS
0
LAYER
2
TEXT
70
0
62
1
6
CONTINUOUS
0
LAYER
2
DOWEL
70
0
62
5
6
CONTINUOUS
0
LAYER
2
SLAB_00
70
0
62
2
6
CONTINUOUS
0
ENDTAB
0
ENDSEC
0
SECTION
2
ENTITIES
0
POLYLINE
8
SLAB_00
66
1
70
1
10
0.0
20
0.0
30
0.0
0
VERTEX
8
SLAB_00
10
206.414
20
0.000
30
0.0
0
VERTEX
8
SLAB_00
10
206.289
20
5.402
30
0.0
0
VERTEX
8
SLAB_00
10
205.912
20
10.790
30
0.0
0
VERTEX
8
SLAB_00
10
205.285
20
16.153
30
0.0
0
VERTEX
8
SLAB_00
10
204.410
20
21.476
30
0.0
0
VERTEX
8
SLAB_00
10
203.290
20
26.746
30
0.0
0
VERTEX
8
SLAB_00
10
201.928
20
31.952
30
0.0
0
VERTEX
8
SLAB_00
10
200.328
20
37.081
30
0.0
0
VERTEX
8
SLAB_00
10
198.496
20
42.121
30
0.0
0
VERTEX
8
SLAB_00
10
196.435
20
47.059
30
0.0
0
VERTEX
8
SLAB_00
10
194.154
20
51.884
30
0.0
0
VERTEX
8
SLAB_00
10
191.658
20
56.585
30
0.0
0
VERTEX
8
SLAB_00
10
188.955
20
61.153
30
0.0
0
VERTEX
8
SLAB_00
10
186.052
20
65.575
30
0.0
0
VERTEX
8
SLAB_00
10
182.960
20
69.843
30
0.0
0
VERTEX
8
SLAB_00
10
179.686
20
73.949
30
0.0
0
VERTEX
8
SLAB_00
10
176.241
20
77.882
30
0.0
0
VERTEX
8
SLAB_00
10
172.633
20
81.636
30
0.0
0
VERTEX
8
SLAB_00
10
168.875
20
85.203
30
0.0
0
VERTEX
8
SLAB_00
10
164.976
20
88.576
30
0.0
0
VERTEX
8
SLAB_00
10
160.947
20
91.750
30
0.0
0
VERTEX
8
SLAB_00
10
156.800
20
94.719
30
0.0
0
VERTEX
8
SLAB_00
10
152.547
20
97.480
30
0.0
0
VERTEX
8
SLAB_00
10
148.199
20
100.027
30
0.0
0
VERTEX
8
SLAB_00
10
143.767
20
102.358
30
0.0
0
VERTEX
8
SLAB_00
10
139.265
20
104.471
30
0.0
0
VERTEX
8
SLAB_00
10
134.704
20
106.364
30
0.0
0
VERTEX
8
SLAB_00
10
130.096
20
108.035
30
0.0
0
VERTEX
8
SLAB_00
10
125.453
20
109.486
30
0.0
0
VERTEX
8
SLAB_00
10
120.786
20
110.715
30
0.0
0
VERTEX
8
SLAB_00
10
116.108
20
111.725
30
0.0
0
VERTEX
8
SLAB_00
10
111.430
20
112.517
30
0.0
0
VERTEX
8
SLAB_00
10
106.763
20
113.094
30
0.0
0
VERTEX
8
SLAB_00
10
102.119
20
113.459
30
0.0
0
VERTEX
8
SLAB_00
10
97.507
20
113.615
30
0.0
0
VERTEX
8
SLAB_00
10
92.939
20
113.568
30
0.0
0
VERTEX
8
SLAB_00
10
88.424
20
113.322
30
0.0
0
VERTEX
8
SLAB_00
10
83.972
20
112.882
30
0.0
0
VERTEX
8
SLAB_00
10
79.592
20
112.255
30
0.0
0
VERTEX
8
SLAB_00
10
75.292
20
111.446
30
0.0
0
VERTEX
8
SLAB_00
10
71.081
20
110.464
30
0.0
0
VERTEX
8
SLAB_00
10
66.967
20
109.315
30
0.0
0
VERTEX
8
SLAB_00
10
62.955
20
108.006
30
0.0
0
VERTEX
8
SLAB_00
10
59.054
20
106.547
30
0.0
0
VERTEX
8
SLAB_00
10
55.268
20
104.944
30
0.0
0
VERTEX
8
SLAB_00
10
51.604
20
103.207
30
0.0
0
VERTEX
8
SLAB_00
10
48.065
20
101.344
30
0.0
0
VERTEX
8
SLAB_00
10
44.655
20
99.365
30
0.0
0
VERTEX
8
SLAB_00
10
41.379
20
97.277
30
0.0
0
VERTEX
8
SLAB_00
10
38.239
20
95.091
30
0.0
0
VERTEX
8
SLAB_00
10
35.238
20
92.814
30
0.0
0
VERTEX
8
SLAB_00
10
32.376
20
90.457
30
0.0
0
VERTEX
8
SLAB_00
10
29.656
20
88.028
30
0.0
0
VERTEX
8
SLAB_00
10
27.076
20
85.536
30
0.0
0
VERTEX
8
SLAB_00
10
24.639
20
82.990
30
0.0
0
VERTEX
8
SLAB_00
10
22.341
20
80.398
30
0.0
0
VERTEX
8
SLAB_00
10
20.183
20
77.769
30
0.0
0
VERTEX
8
SLAB_00
10
18.162
20
75.110
30
0.0
0
VERTEX
8
SLAB_00
10
16.277
20
72.430
30
0.0
0
VERTEX
8
SLAB_00
10
14.524
20
69.736
30
0.0
0
VERTEX
8
SLAB_00
10
12.901
20
67.035
30
0.0
0
VERTEX
8
SLAB_00
10
11.403
20
64.334
30
0.0
0
VERTEX
8
SLAB_00
10
10.027
20
61.640
30
0.0
0
VERTEX
8
SLAB_00
10
8.769
20
58.957
30
0.0
0
VERTEX
8
SLAB_00
10
7.623
20
56.293
30
0.0
0
VERTEX
8
SLAB_00
10
6.585
20
53.651
30
0.0
0
VERTEX
8
SLAB_00
10
5.649
20
51.037
30
0.0
0
VERTEX
8
SLAB_00
10
4.811
20
48.455
30
0.0
0
VERTEX
8
SLAB_00
10
4.065
20
45.908
30
0.0
0
VERTEX
8
SLAB_00
10
3.405
20
43.399
30
0.0
0
VERTEX
8
SLAB_00
10
2.825
20
40.930
30
0.0
0
VERTEX
8
SLAB_00
10
2.319
20
38.505
30
0.0
0
VERTEX
8
SLAB_00
10
1.882
20
36.125
30
0.0
0
VERTEX
8
SLAB_00
10
1.508
20
33.790
30
0.0
0
VERTEX
8
SLAB_00
10
1.191
20
31.501
30
0.0
0
VERTEX
8
SLAB_00
10
0.926
20
29.259
30
0.0
0
VERTEX
8
SLAB_00
10
0.707
20
27.062
30
0.0
0
VERTEX
8
SLAB_00
10
0.529
20
24.911
30
0.0
0
VERTEX
8
SLAB_00
10
0.386
20
22.804
30
0.0
0
VERTEX
8
SLAB_00
10
0.274
20
20.739
30
0.0
0
VERTEX
8
SLAB_00
10
0.188
20
18.714
30
0.0
0
VERTEX
8
SLAB_00
10
0.124
20
16.727
30
0.0
0
VERTEX
8
SLAB_00
10
0.077
20
14.775
30
0.0
0
VERTEX
8
SLAB_00
10
0.046
20
12.855
30
0.0
0
VERTEX
8
SLAB_00
10
0.025
20
10.963
30
0.0
0
VERTEX
8
SLAB_00
10
0.012
20
9.097
30
0.0
0
VERTEX
8
SLAB_00
10
0.005
20
7.252
30
0.0
0
VERTEX
8
SLAB_00
10
0.002
20
5.424
30
0.0
0
VERTEX
8
SLAB_00
10
0.000
20
3.608
30
0.0
0
VERTEX
8
SLAB_00
10
0.000
20
1.802
30
0.0
0
VERTEX
8
SLAB_00
10
0.000
20
0.000
30
0.0
0
VERTEX
8
SLAB_00
10
0.000
20
-1.802
30
0.0
0
VERTEX
8
SLAB_00
10
0.000
20
-3.608
30
0.0
0
VERTEX
8
SLAB_00
10
0.002
20
-5.424
30
0.0
0
VERTEX
8
SLAB_00
10
0.005
20
-7.252
30
0.0
0
VERTEX
8
SLAB_00
10
0.012
20
-9.097
30
0.0
0
VERTEX
8
SLAB_00
10
0.025
20
-10.963
30
0.0
0
VERTEX
8
SLAB_00
10
0.046
20
-12.855
30
0.0
0
VERTEX
8
SLAB_00
10
0.077
20
-14.775
30
0.0
0
VERTEX
8
SLAB_00
10
0.124
20
-16.727
30
0.0
0
VERTEX
8
SLAB_00
10
0.188
20
-18.714
30
0.0
0
VERTEX
8
SLAB_00
10
0.274
20
-20.739
30
0.0
0
VERTEX
8
SLAB_00
10
0.386
20
-22.804
30
0.0
0
VERTEX
8
SLAB_00
10
0.529
20
-24.911
30
0.0
0
VERTEX
8
SLAB_00
10
0.707
20
-27.062
30
0.0
0
VERTEX
8
SLAB_00
10
0.926
20
-29.259
30
0.0
0
VERTEX
8
SLAB_00
10
1.191
20
-31.501
30
0.0
0
VERTEX
8
SLAB_00
10
1.508
20
-33.790
30
0.0
0
VERTEX
8
SLAB_00
10
1.882
20
-36.125
30
0.0
0
VERTEX
8
SLAB_00
10
2.319
20
-38.505
30
0.0
0
VERTEX
8
SLAB_00
10
2.825
20
-40.930
30
0.0
0
VERTEX
8
SLAB_00
10
3.405
20
-43.399
30
0.0
0
VERTEX
8
SLAB_00
10
4.065
20
-45.908
30
0.0
0
VERTEX
8
SLAB_00
10
4.811
20
-48.455
30
0.0
0
VERTEX
8
SLAB_00
10
5.649
20
-51.037
30
0.0
0
VERTEX
8
SLAB_00
10
6.585
20
-53.651
30
0.0
0
VERTEX
8
SLAB_00
10
7.623
20
-56.293
30
0.0
0
VERTEX
8
SLAB_00
10
8.769
20
-58.957
30
0.0
0
VERTEX
8
SLAB_00
10
10.027
20
-61.640
30
0.0
0
VERTEX
8
SLAB_00
10
11.403
20
-64.334
30
0.0
0
VERTEX
8
SLAB_00
10
12.901
20
-67.035
30
0.0
0
VERTEX
8
SLAB_00
10
14.524
20
-69.736
30
0.0
0
VERTEX
8
SLAB_00
10
16.277
20
-72.430
30
0.0
0
VERTEX
8
SLAB_00
10
18.162
20
-75.110
30
0.0
0
VERTEX
8
SLAB_00
10
20.183
20
-77.769
30
0.0
0
VERTEX
8
SLAB_00
10
22.341
20
-80.398
30
0.0
0
VERTEX
8
SLAB_00
10
24.639
20
-82.990
30
0.0
0
VERTEX
8
SLAB_00
10
27.076
20
-85.536
30
0.0
0
VERTEX
8
SLAB_00
10
29.656
20
-88.028
30
0.0
0
VERTEX
8
SLAB_00
10
32.376
20
-90.457
30
0.0
0
VERTEX
8
SLAB_00
10
35.238
20
-92.814
30
0.0
0
VERTEX
8
SLAB_00
10
38.239
20
-95.091
30
0.0
0
VERTEX
8
SLAB_00
10
41.379
20
-97.277
30
0.0
0
VERTEX
8
SLAB_00
10
44.655
20
-99.365
30
0.0
0
VERTEX
8
SLAB_00
10
48.065
20
-101.344
30
0.0
0
VERTEX
8
SLAB_00
10
51.604
20
-103.207
30
0.0
0
VERTEX
8
SLAB_00
10
55.268
20
-104.944
30
0.0
0
VERTEX
8
SLAB_00
10
59.054
20
-106.547
30
0.0
0
VERTEX
8
SLAB_00
10
62.955
20
-108.006
30
0.0
0
VERTEX
8
SLAB_00
10
66.967
20
-109.315
30
0.0
0
VERTEX
8
SLAB_00
10
71.081
20
-110.464
30
0.0
0
VERTEX
8
SLAB_00
10
75.292
20
-111.446
30
0.0
0
VERTEX
8
SLAB_00
10
79.592
20
-112.255
30
0.0
0
VERTEX
8
SLAB_00
10
83.972
20
-112.882
30
0.0
0
VERTEX
8
SLAB_00
10
88.424
20
-113.322
30
0.0
0
VERTEX
8
SLAB_00
10
92.939
20
-113.568
30
0.0
0
VERTEX
8
SLAB_00
10
97.507
20
-113.615
30
0.0
0
VERTEX
8
SLAB_00
10
102.119
20
-113.459
30
0.0
0
VERTEX
8
SLAB_00
10
106.763
20
-113.094
30
0.0
0
VERTEX
8
SLAB_00
10
111.430
20
-112.517
30
0.0
0
VERTEX
8
SLAB_00
10
116.108
20
-111.725
30
0.0
0
VERTEX
8
SLAB_00
10
120.786
20
-110.715
30
0.0
0
VERTEX
8
SLAB_00
10
125.453
20
-109.486
30
0.0
0
VERTEX
8
SLAB_00
10
130.096
20
-108.035
30
0.0
0
VERTEX
8
SLAB_00
10
134.704
20
-106.364
30
0.0
0
VERTEX
8
SLAB_00
10
139.265
20
-104.471
30
0.0
0
VERTEX
8
SLAB_00
10
143.767
20
-102.358
30
0.0
0
VERTEX
8
SLAB_00
10
148.199
20
-100.027
30
0.0
0
VERTEX
8
SLAB_00
10
152.547
20
-97.480
30
0.0
0
VERTEX
8
SLAB_00
10
156.800
20
-94.719
30
0.0
0
VERTEX
8
SLAB_00
10
160.947
20
-91.750
30
0.0
0
VERTEX
8
SLAB_00
10
164.976
20
-88.576
30
0.0
0
VERTEX
8
SLAB_00
10
168.875
20
-85.203
30
0.0
0
VERTEX
8
SLAB_00
10
172.633
20
-81.636
30
0.0
0
VERTEX
8
SLAB_00
10
176.241
20
-77.882
30
0.0
0
VERTEX
8
SLAB_00
10
179.686
20
-73.949
30
0.0
0
VERTEX
8
SLAB_00
10
182.960
20
-69.843
30
0.0
0
VERTEX
8
SLAB_00
10
186.052
20
-65.575
30
0.0
0
VERTEX
8
SLAB_00
10
188.955
20
-61.153
30
0.0
0
VERTEX
8
SLAB_00
10
191.658
20
-56.585
30
0.0
0
VERTEX
8
SLAB_00
10
194.154
20
-51.884
30
0.0
0
VERTEX
8
SLAB_00
10
196.435
20
-47.059
30
0.0
0
VERTEX
8
SLAB_00
10
198.496
20
-42.121
30
0.0
0
VERTEX
8
SLAB_00
10
200.328
20
-37.081
30
0.0
0
VERTEX
8
SLAB_00
10
201.928
20
-31.952
30
0.0
0
VERTEX
8
SLAB_00
10
203.290
20
-26.746
30
0.0
0
VERTEX
8
SLAB_00
10
204.410
20
-21.476
30
0.0
0
VERTEX
8
SLAB_00
10
205.285
20
-16.153
30
0.0
0
VERTEX
8
SLAB_00
10
205.912
20
-10.790
30
0.0
0
VERTEX
8
SLAB_00
10
206.289
20
-5.402
30
0.0
0
SEQEND
8
SLAB_00
0
TEXT
8
TEXT
10
0.000
20
128.615
30
0.0
40
8.0
1
50: s'=+1138 D=227
0
CIRCLE
8
DOWEL
10
15.000
20
18.000
30
0.0
40
3.250
0
TEXT
8
DOWEL
10
20.000
20
16.000
30
0.0
40
3.0
1
A
0
CIRCLE
8
DOWEL
10
15.000
20
-18.000
30
0.0
40
3.250
0
TEXT
8
DOWEL
10
20.000
20
-20.000
30
0.0
40
3.0
1
B
0
CIRCLE
8
DOWEL
10
45.000
20
18.000
30
0.0
40
3.250
0
TEXT
8
DOWEL
10
50.000
20
16.000
30
0.0
40
3.0
1
C
0
CIRCLE
8
DOWEL
10
45.000
20
-18.000
30
0.0
40
3.250
0
TEXT
8
DOWEL
10
50.000
20
-20.000
30
0.0
40
3.0
1
D
0
ENDSEC
0
EOF