0
SECTION
2
HEADER
9
$ACADVER
1
AC1009
9
$INSUNITS
70
4
0
ENDSEC
0
SECTION
2
TABLES
0
TABLE
2
LAYER
70
4
0
LAYER
2
0
70
0
62
7
6
CONTINUOUS
0
LAYER
2
TEXT
70
0
62
1
6
CONTINUOUS
0
LAYER
2
DOWEL
70
0
62
5
6
CONTINUOUS
0
LAYER
2
SLAB_00
70
0
62
2
6
CONTINUOUS
0
ENDTAB
0
ENDSEC
0
SECTION
2
ENTITIES
0
POLYLINE
8
SLAB_00
66
1
70
1
10
0.0
20
0.0
30
0.0
0
VERTEX
8
SLAB_00
10
189.178
20
0.000
30
0.0
0
VERTEX
8
SLAB_00
10
189.063
20
4.951
30
0.0
0
VERTEX
8
SLAB_00
10
188.718
20
9.889
30
0.0
0
VERTEX
8
SLAB_00
10
188.144
20
14.804
30
0.0
0
VERTEX
8
SLAB_00
10
187.342
20
19.682
30
0.0
0
VERTEX
8
SLAB_00
10
186.315
20
24.513
30
0.0
0
VERTEX
8
SLAB_00
10
185.067
20
29.284
30
0.0
0
VERTEX
8
SLAB_00
10
183.601
20
33.985
30
0.0
0
VERTEX
8
SLAB_00
10
181.921
20
38.603
30
0.0
0
VERTEX
8
SLAB_00
10
180.033
20
43.129
30
0.0
0
VERTEX
8
SLAB_00
10
177.942
20
47.552
30
0.0
0
VERTEX
8
SLAB_00
10
175.654
20
51.861
30
0.0
0
VERTEX
8
SLAB_00
10
173.177
20
56.046
30
0.0
0
VERTEX
8
SLAB_00
10
170.517
20
60.100
30
0.0
0
VERTEX
8
SLAB_00
10
167.683
20
64.011
30
0.0
0
VERTEX
8
SLAB_00
10
164.682
20
67.774
30
0.0
0
VERTEX
8
SLAB_00
10
161.524
20
71.379
30
0.0
0
VERTEX
8
SLAB_00
10
158.218
20
74.819
30
0.0
0
VERTEX
8
SLAB_00
10
154.774
20
78.088
30
0.0
0
VERTEX
8
SLAB_00
10
151.200
20
81.180
30
0.0
0
VERTEX
8
SLAB_00
10
147.508
20
84.089
30
0.0
0
VERTEX
8
SLAB_00
10
143.707
20
86.810
30
0.0
0
VERTEX
8
SLAB_00
10
139.809
20
89.340
30
0.0
0
VERTEX
8
SLAB_00
10
135.824
20
91.675
30
0.0
0
VERTEX
8
SLAB_00
10
131.763
20
93.811
30
0.0
0
VERTEX
8
SLAB_00
10
127.636
20
95.748
30
0.0
0
VERTEX
8
SLAB_00
10
123.456
20
97.482
30
0.0
0
VERTEX
8
SLAB_00
10
119.233
20
99.014
30
0.0
0
VERTEX
8
SLAB_00
10
114.977
20
100.343
30
0.0
0
VERTEX
8
SLAB_00
10
110.700
20
101.470
30
0.0
0
VERTEX
8
SLAB_00
10
106.413
20
102.396
30
0.0
0
VERTEX
8
SLAB_00
10
102.125
20
103.122
30
0.0
0
VERTEX
8
SLAB_00
10
97.848
20
103.651
30
0.0
0
VERTEX
8
SLAB_00
10
93.592
20
103.985
30
0.0
0
VERTEX
8
SLAB_00
10
89.365
20
104.128
30
0.0
0
VERTEX
8
SLAB_00
10
85.178
20
104.085
30
0.0
0
VERTEX
8
SLAB_00
10
81.041
20
103.859
30
0.0
0
VERTEX
8
SLAB_00
10
76.960
20
103.456
30
0.0
0
VERTEX
8
SLAB_00
10
72.946
20
102.881
30
0.0
0
VERTEX
8
SLAB_00
10
69.005
20
102.140
30
0.0
0
VERTEX
8
SLAB_00
10
65.146
20
101.240
30
0.0
0
VERTEX
8
SLAB_00
10
61.375
20
100.187
30
0.0
0
VERTEX
8
SLAB_00
10
57.699
20
98.988
30
0.0
0
VERTEX
8
SLAB_00
10
54.123
20
97.650
30
0.0
0
VERTEX
8
SLAB_00
10
50.653
20
96.181
30
0.0
0
VERTEX
8
SLAB_00
10
47.295
20
94.589
30
0.0
0
VERTEX
8
SLAB_00
10
44.051
20
92.882
30
0.0
0
VERTEX
8
SLAB_00
10
40.927
20
91.068
30
0.0
0
VERTEX
8
SLAB_00
10
37.924
20
89.155
30
0.0
0
VERTEX
8
SLAB_00
10
35.046
20
87.151
30
0.0
0
VERTEX
8
SLAB_00
10
32.295
20
85.064
30
0.0
0
VERTEX
8
SLAB_00
10
29.673
20
82.904
30
0.0
0
VERTEX
8
SLAB_00
10
27.179
20
80.678
30
0.0
0
VERTEX
8
SLAB_00
10
24.816
20
78.394
30
0.0
0
VERTEX
8
SLAB_00
10
22.581
20
76.060
30
0.0
0
VERTEX
8
SLAB_00
10
20.476
20
73.685
30
0.0
0
VERTEX
8
SLAB_00
10
18.498
20
71.275
30
0.0
0
VERTEX
8
SLAB_00
10
16.646
20
68.838
30
0.0
0
VERTEX
8
SLAB_00
10
14.918
20
66.382
30
0.0
0
VERTEX
8
SLAB_00
10
13.312
20
63.913
30
0.0
0
VERTEX
8
SLAB_00
10
11.824
20
61.438
30
0.0
0
VERTEX
8
SLAB_00
10
10.451
20
58.962
30
0.0
0
VERTEX
8
SLAB_00
10
9.190
20
56.493
30
0.0
0
VERTEX
8
SLAB_00
10
8.036
20
54.034
30
0.0
0
VERTEX
8
SLAB_00
10
6.986
20
51.592
30
0.0
0
VERTEX
8
SLAB_00
10
6.035
20
49.172
30
0.0
0
VERTEX
8
SLAB_00
10
5.178
20
46.776
30
0.0
0
VERTEX
8
SLAB_00
10
4.409
20
44.409
30
0.0
0
VERTEX
8
SLAB_00
10
3.725
20
42.074
30
0.0
0
VERTEX
8
SLAB_00
10
3.120
20
39.775
30
0.0
0
VERTEX
8
SLAB_00
10
2.589
20
37.513
30
0.0
0
VERTEX
8
SLAB_00
10
2.125
20
35.290
30
0.0
0
VERTEX
8
SLAB_00
10
1.725
20
33.108
30
0.0
0
VERTEX
8
SLAB_00
10
1.382
20
30.968
30
0.0
0
VERTEX
8
SLAB_00
10
1.092
20
28.871
30
0.0
0
VERTEX
8
SLAB_00
10
0.849
20
26.815
30
0.0
0
VERTEX
8
SLAB_00
10
0.648
20
24.802
30
0.0
0
VERTEX
8
SLAB_00
10
0.484
20
22.831
30
0.0
0
VERTEX
8
SLAB_00
10
0.353
20
20.900
30
0.0
0
VERTEX
8
SLAB_00
10
0.251
20
19.007
30
0.0
0
VERTEX
8
SLAB_00
10
0.172
20
17.151
30
0.0
0
VERTEX
8
SLAB_00
10
0.113
20
15.330
30
0.0
0
VERTEX
8
SLAB_00
10
0.071
20
13.541
30
0.0
0
VERTEX
8
SLAB_00
10
0.042
20
11.781
30
0.0
0
VERTEX
8
SLAB_00
10
0.023
20
10.048
30
0.0
0
VERTEX
8
SLAB_00
10
0.011
20
8.337
30
0.0
0
VERTEX
8
SLAB_00
10
0.004
20
6.646
30
0.0
0
VERTEX
8
SLAB_00
10
0.001
20
4.971
30
0.0
0
VERTEX
8
SLAB_00
10
0.000
20
3.307
30
0.0
0
VERTEX
8
SLAB_00
10
0.000
20
1.652
30
0.0
0
VERTEX
8
SLAB_00
10
0.000
20
0.000
30
0.0
0
VERTEX
8
SLAB_00
10
0.000
20
-1.652
30
0.0
0
VERTEX
8
SLAB_00
10
0.000
20
-3.307
30
0.0
0
VERTEX
8
SLAB_00
10
0.001
20
-4.971
30
0.0
0
VERTEX
8
SLAB_00
10
0.004
20
-6.646
30
0.0
0
VERTEX
8
SLAB_00
10
0.011
20
-8.337
30
0.0
0
VERTEX
8
SLAB_00
10
0.023
20
-10.048
30
0.0
0
VERTEX
8
SLAB_00
10
0.042
20
-11.781
30
0.0
0
VERTEX
8
SLAB_00
10
0.071
20
-13.541
30
0.0
0
VERTEX
8
SLAB_00
10
0.113
20
-15.330
30
0.0
0
VERTEX
8
SLAB_00
10
0.172
20
-17.151
30
0.0
0
VERTEX
8
SLAB_00
10
0.251
20
-19.007
30
0.0
0
VERTEX
8
SLAB_00
10
0.353
20
-20.900
30
0.0
0
VERTEX
8
SLAB_00
10
0.484
20
-22.831
30
0.0
0
VERTEX
8
SLAB_00
10
0.648
20
-24.802
30
0.0
0
VERTEX
8
SLAB_00
10
0.849
20
-26.815
30
0.0
0
VERTEX
8
SLAB_00
10
1.092
20
-28.871
30
0.0
0
VERTEX
8
SLAB_00
10
1.382
20
-30.968
30
0.0
0
VERTEX
8
SLAB_00
10
1.725
20
-33.108
30
0.0
0
VERTEX
8
SLAB_00
10
2.125
20
-35.290
30
0.0
0
VERTEX
8
SLAB_00
10
2.589
20
-37.513
30
0.0
0
VERTEX
8
SLAB_00
10
3.120
20
-39.775
30
0.0
0
VERTEX
8
SLAB_00
10
3.725
20
-42.074
30
0.0
0
VERTEX
8
SLAB_00
10
4.409
20
-44.409
30
0.0
0
VERTEX
8
SLAB_00
10
5.178
20
-46.776
30
0.0
0
VERTEX
8
SLAB_00
10
6.035
20
-49.172
30
0.0
0
VERTEX
8
SLAB_00
10
6.986
20
-51.592
30
0.0
0
VERTEX
8
SLAB_00
10
8.036
20
-54.034
30
0.0
0
VERTEX
8
SLAB_00
10
9.190
20
-56.493
30
0.0
0
VERTEX
8
SLAB_00
10
10.451
20
-58.962
30
0.0
0
VERTEX
8
SLAB_00
10
11.824
20
-61.438
30
0.0
0
VERTEX
8
SLAB_00
10
13.312
20
-63.913
30
0.0
0
VERTEX
8
SLAB_00
10
14.918
20
-66.382
30
0.0
0
VERTEX
8
SLAB_00
10
16.646
20
-68.838
30
0.0
0
VERTEX
8
SLAB_00
10
18.498
20
-71.275
30
0.0
0
VERTEX
8
SLAB_00
10
20.476
20
-73.685
30
0.0
0
VERTEX
8
SLAB_00
10
22.581
20
-76.060
30
0.0
0
VERTEX
8
SLAB_00
10
24.816
20
-78.394
30
0.0
0
VERTEX
8
SLAB_00
10
27.179
20
-80.678
30
0.0
0
VERTEX
8
SLAB_00
10
29.673
20
-82.904
30
0.0
0
VERTEX
8
SLAB_00
10
32.295
20
-85.064
30
0.0
0
VERTEX
8
SLAB_00
10
35.046
20
-87.151
30
0.0
0
VERTEX
8
SLAB_00
10
37.924
20
-89.155
30
0.0
0
VERTEX
8
SLAB_00
10
40.927
20
-91.068
30
0.0
0
VERTEX
8
SLAB_00
10
44.051
20
-92.882
30
0.0
0
VERTEX
8
SLAB_00
10
47.295
20
-94.589
30
0.0
0
VERTEX
8
SLAB_00
10
50.653
20
-96.181
30
0.0
0
VERTEX
8
SLAB_00
10
54.123
20
-97.650
30
0.0
0
VERTEX
8
SLAB_00
10
57.699
20
-98.988
30
0.0
0
VERTEX
8
SLAB_00
10
61.375
20
-100.187
30
0.0
0
VERTEX
8
SLAB_00
10
65.146
20
-101.240
30
0.0
0
VERTEX
8
SLAB_00
10
69.005
20
-102.140
30
0.0
0
VERTEX
8
SLAB_00
10
72.946
20
-102.881
30
0.0
0
VERTEX
8
SLAB_00
10
76.960
20
-103.456
30
0.0
0
VERTEX
8
SLAB_00
10
81.041
20
-103.859
30
0.0
0
VERTEX
8
SLAB_00
10
85.178
20
-104.085
30
0.0
0
VERTEX
8
SLAB_00
10
89.365
20
-104.128
30
0.0
0
VERTEX
8
SLAB_00
10
93.592
20
-103.985
30
0.0
0
VERTEX
8
SLAB_00
10
97.848
20
-103.651
30
0.0
0
VERTEX
8
SLAB_00
10
102.125
20
-103.122
30
0.0
0
VERTEX
8
SLAB_00
10
106.413
20
-102.396
30
0.0
0
VERTEX
8
SLAB_00
10
110.700
20
-101.470
30
0.0
0
VERTEX
8
SLAB_00
10
114.977
20
-100.343
30
0.0
0
VERTEX
8
SLAB_00
10
119.233
20
-99.014
30
0.0
0
VERTEX
8
SLAB_00
10
123.456
20
-97.482
30
0.0
0
VERTEX
8
SLAB_00
10
127.636
20
-95.748
30
0.0
0
VERTEX
8
SLAB_00
10
131.763
20
-93.811
30
0.0
0
VERTEX
8
SLAB_00
10
135.824
20
-91.675
30
0.0
0
VERTEX
8
SLAB_00
10
139.809
20
-89.340
30
0.0
0
VERTEX
8
SLAB_00
10
143.707
20
-86.810
30
0.0
0
VERTEX
8
SLAB_00
10
147.508
20
-84.089
30
0.0
0
VERTEX
8
SLAB_00
10
151.200
20
-81.180
30
0.0
0
VERTEX
8
SLAB_00
10
154.774
20
-78.088
30
0.0
0
VERTEX
8
SLAB_00
10
158.218
20
-74.819
30
0.0
0
VERTEX
8
SLAB_00
10
161.524
20
-71.379
30
0.0
0
VERTEX
8
SLAB_00
10
164.682
20
-67.774
30
0.0
0
VERTEX
8
SLAB_00
10
167.683
20
-64.011
30
0.0
0
VERTEX
8
SLAB_00
10
170.517
20
-60.100
30
0.0
0
VERTEX
8
SLAB_00
10
173.177
20
-56.046
30
0.0
0
VERTEX
8
SLAB_00
10
175.654
20
-51.861
30
0.0
0
VERTEX
8
SLAB_00
10
177.942
20
-47.552
30
0.0
0
VERTEX
8
SLAB_00
10
180.033
20
-43.129
30
0.0
0
VERTEX
8
SLAB_00
10
181.921
20
-38.603
30
0.0
0
VERTEX
8
SLAB_00
10
183.601
20
-33.985
30
0.0
0
VERTEX
8
SLAB_00
10
185.067
20
-29.284
30
0.0
0
VERTEX
8
SLAB_00
10
186.315
20
-24.513
30
0.0
0
VERTEX
8
SLAB_00
10
187.342
20
-19.682
30
0.0
0
VERTEX
8
SLAB_00
10
188.144
20
-14.804
30
0.0
0
VERTEX
8
SLAB_00
10
188.718
20
-9.889
30
0.0
0
VERTEX
8
SLAB_00
10
189.063
20
-4.951
30
0.0
0
SEQEND
8
SLAB_00
0
TEXT
8
TEXT
10
0.000
20
119.128
30
0.0
40
8.0
1
52: s'=+1189 D=208
0
CIRCLE
8
DOWEL
10
15.000
20
18.000
30
0.0
40
3.250
0
TEXT
8
DOWEL
10
20.000
20
16.000
30
0.0
40
3.0
1
A
0
CIRCLE
8
DOWEL
10
15.000
20
-18.000
30
0.0
40
3.250
0
TEXT
8
DOWEL
10
20.000
20
-20.000
30
0.0
40
3.0
1
B
0
CIRCLE
8
DOWEL
10
45.000
20
18.000
30
0.0
40
3.250
0
TEXT
8
DOWEL
10
50.000
20
16.000
30
0.0
40
3.0
1
C
0
CIRCLE
8
DOWEL
10
45.000
20
-18.000
30
0.0
40
3.250
0
TEXT
8
DOWEL
10
50.000
20
-20.000
30
0.0
40
3.0
1
D
0
ENDSEC
0
EOF