0
SECTION
2
HEADER
9
$ACADVER
1
AC1009
9
$INSUNITS
70
4
0
ENDSEC
0
SECTION
2
TABLES
0
TABLE
2
LAYER
70
4
0
LAYER
2
0
70
0
62
7
6
CONTINUOUS
0
LAYER
2
TEXT
70
0
62
1
6
CONTINUOUS
0
LAYER
2
DOWEL
70
0
62
5
6
CONTINUOUS
0
LAYER
2
SLAB_00
70
0
62
2
6
CONTINUOUS
0
ENDTAB
0
ENDSEC
0
SECTION
2
ENTITIES
0
POLYLINE
8
SLAB_00
66
1
70
1
10
0.0
20
0.0
30
0.0
0
VERTEX
8
SLAB_00
10
178.966
20
0.000
30
0.0
0
VERTEX
8
SLAB_00
10
178.857
20
4.683
30
0.0
0
VERTEX
8
SLAB_00
10
178.531
20
9.355
30
0.0
0
VERTEX
8
SLAB_00
10
177.987
20
14.005
30
0.0
0
VERTEX
8
SLAB_00
10
177.229
20
18.620
30
0.0
0
VERTEX
8
SLAB_00
10
176.258
20
23.190
30
0.0
0
VERTEX
8
SLAB_00
10
175.077
20
27.704
30
0.0
0
VERTEX
8
SLAB_00
10
173.690
20
32.150
30
0.0
0
VERTEX
8
SLAB_00
10
172.101
20
36.520
30
0.0
0
VERTEX
8
SLAB_00
10
170.314
20
40.801
30
0.0
0
VERTEX
8
SLAB_00
10
168.336
20
44.985
30
0.0
0
VERTEX
8
SLAB_00
10
166.172
20
49.061
30
0.0
0
VERTEX
8
SLAB_00
10
163.828
20
53.021
30
0.0
0
VERTEX
8
SLAB_00
10
161.312
20
56.855
30
0.0
0
VERTEX
8
SLAB_00
10
158.631
20
60.556
30
0.0
0
VERTEX
8
SLAB_00
10
155.792
20
64.115
30
0.0
0
VERTEX
8
SLAB_00
10
152.805
20
67.526
30
0.0
0
VERTEX
8
SLAB_00
10
149.678
20
70.780
30
0.0
0
VERTEX
8
SLAB_00
10
146.419
20
73.873
30
0.0
0
VERTEX
8
SLAB_00
10
143.038
20
76.798
30
0.0
0
VERTEX
8
SLAB_00
10
139.545
20
79.550
30
0.0
0
VERTEX
8
SLAB_00
10
135.950
20
82.124
30
0.0
0
VERTEX
8
SLAB_00
10
132.262
20
84.517
30
0.0
0
VERTEX
8
SLAB_00
10
128.492
20
86.726
30
0.0
0
VERTEX
8
SLAB_00
10
124.650
20
88.747
30
0.0
0
VERTEX
8
SLAB_00
10
120.746
20
90.579
30
0.0
0
VERTEX
8
SLAB_00
10
116.792
20
92.220
30
0.0
0
VERTEX
8
SLAB_00
10
112.796
20
93.669
30
0.0
0
VERTEX
8
SLAB_00
10
108.770
20
94.927
30
0.0
0
VERTEX
8
SLAB_00
10
104.725
20
95.993
30
0.0
0
VERTEX
8
SLAB_00
10
100.669
20
96.868
30
0.0
0
VERTEX
8
SLAB_00
10
96.613
20
97.555
30
0.0
0
VERTEX
8
SLAB_00
10
92.566
20
98.055
30
0.0
0
VERTEX
8
SLAB_00
10
88.539
20
98.372
30
0.0
0
VERTEX
8
SLAB_00
10
84.541
20
98.507
30
0.0
0
VERTEX
8
SLAB_00
10
80.580
20
98.466
30
0.0
0
VERTEX
8
SLAB_00
10
76.666
20
98.253
30
0.0
0
VERTEX
8
SLAB_00
10
72.806
20
97.871
30
0.0
0
VERTEX
8
SLAB_00
10
69.008
20
97.328
30
0.0
0
VERTEX
8
SLAB_00
10
65.280
20
96.627
30
0.0
0
VERTEX
8
SLAB_00
10
61.629
20
95.775
30
0.0
0
VERTEX
8
SLAB_00
10
58.062
20
94.779
30
0.0
0
VERTEX
8
SLAB_00
10
54.584
20
93.644
30
0.0
0
VERTEX
8
SLAB_00
10
51.201
20
92.379
30
0.0
0
VERTEX
8
SLAB_00
10
47.919
20
90.989
30
0.0
0
VERTEX
8
SLAB_00
10
44.742
20
89.483
30
0.0
0
VERTEX
8
SLAB_00
10
41.673
20
87.868
30
0.0
0
VERTEX
8
SLAB_00
10
38.717
20
86.152
30
0.0
0
VERTEX
8
SLAB_00
10
35.877
20
84.342
30
0.0
0
VERTEX
8
SLAB_00
10
33.155
20
82.446
30
0.0
0
VERTEX
8
SLAB_00
10
30.552
20
80.472
30
0.0
0
VERTEX
8
SLAB_00
10
28.071
20
78.429
30
0.0
0
VERTEX
8
SLAB_00
10
25.712
20
76.323
30
0.0
0
VERTEX
8
SLAB_00
10
23.476
20
74.162
30
0.0
0
VERTEX
8
SLAB_00
10
21.362
20
71.954
30
0.0
0
VERTEX
8
SLAB_00
10
19.370
20
69.707
30
0.0
0
VERTEX
8
SLAB_00
10
17.499
20
67.427
30
0.0
0
VERTEX
8
SLAB_00
10
15.747
20
65.122
30
0.0
0
VERTEX
8
SLAB_00
10
14.113
20
62.799
30
0.0
0
VERTEX
8
SLAB_00
10
12.593
20
60.463
30
0.0
0
VERTEX
8
SLAB_00
10
11.185
20
58.121
30
0.0
0
VERTEX
8
SLAB_00
10
9.887
20
55.779
30
0.0
0
VERTEX
8
SLAB_00
10
8.694
20
53.443
30
0.0
0
VERTEX
8
SLAB_00
10
7.603
20
51.118
30
0.0
0
VERTEX
8
SLAB_00
10
6.609
20
48.807
30
0.0
0
VERTEX
8
SLAB_00
10
5.709
20
46.517
30
0.0
0
VERTEX
8
SLAB_00
10
4.898
20
44.251
30
0.0
0
VERTEX
8
SLAB_00
10
4.171
20
42.012
30
0.0
0
VERTEX
8
SLAB_00
10
3.524
20
39.803
30
0.0
0
VERTEX
8
SLAB_00
10
2.952
20
37.628
30
0.0
0
VERTEX
8
SLAB_00
10
2.449
20
35.488
30
0.0
0
VERTEX
8
SLAB_00
10
2.011
20
33.385
30
0.0
0
VERTEX
8
SLAB_00
10
1.632
20
31.321
30
0.0
0
VERTEX
8
SLAB_00
10
1.308
20
29.297
30
0.0
0
VERTEX
8
SLAB_00
10
1.033
20
27.312
30
0.0
0
VERTEX
8
SLAB_00
10
0.803
20
25.368
30
0.0
0
VERTEX
8
SLAB_00
10
0.613
20
23.464
30
0.0
0
VERTEX
8
SLAB_00
10
0.458
20
21.598
30
0.0
0
VERTEX
8
SLAB_00
10
0.334
20
19.771
30
0.0
0
VERTEX
8
SLAB_00
10
0.237
20
17.981
30
0.0
0
VERTEX
8
SLAB_00
10
0.163
20
16.225
30
0.0
0
VERTEX
8
SLAB_00
10
0.107
20
14.503
30
0.0
0
VERTEX
8
SLAB_00
10
0.067
20
12.810
30
0.0
0
VERTEX
8
SLAB_00
10
0.039
20
11.145
30
0.0
0
VERTEX
8
SLAB_00
10
0.021
20
9.506
30
0.0
0
VERTEX
8
SLAB_00
10
0.010
20
7.887
30
0.0
0
VERTEX
8
SLAB_00
10
0.004
20
6.287
30
0.0
0
VERTEX
8
SLAB_00
10
0.001
20
4.702
30
0.0
0
VERTEX
8
SLAB_00
10
0.000
20
3.129
30
0.0
0
VERTEX
8
SLAB_00
10
0.000
20
1.562
30
0.0
0
VERTEX
8
SLAB_00
10
0.000
20
0.000
30
0.0
0
VERTEX
8
SLAB_00
10
0.000
20
-1.562
30
0.0
0
VERTEX
8
SLAB_00
10
0.000
20
-3.129
30
0.0
0
VERTEX
8
SLAB_00
10
0.001
20
-4.702
30
0.0
0
VERTEX
8
SLAB_00
10
0.004
20
-6.287
30
0.0
0
VERTEX
8
SLAB_00
10
0.010
20
-7.887
30
0.0
0
VERTEX
8
SLAB_00
10
0.021
20
-9.506
30
0.0
0
VERTEX
8
SLAB_00
10
0.039
20
-11.145
30
0.0
0
VERTEX
8
SLAB_00
10
0.067
20
-12.810
30
0.0
0
VERTEX
8
SLAB_00
10
0.107
20
-14.503
30
0.0
0
VERTEX
8
SLAB_00
10
0.163
20
-16.225
30
0.0
0
VERTEX
8
SLAB_00
10
0.237
20
-17.981
30
0.0
0
VERTEX
8
SLAB_00
10
0.334
20
-19.771
30
0.0
0
VERTEX
8
SLAB_00
10
0.458
20
-21.598
30
0.0
0
VERTEX
8
SLAB_00
10
0.613
20
-23.464
30
0.0
0
VERTEX
8
SLAB_00
10
0.803
20
-25.368
30
0.0
0
VERTEX
8
SLAB_00
10
1.033
20
-27.312
30
0.0
0
VERTEX
8
SLAB_00
10
1.308
20
-29.297
30
0.0
0
VERTEX
8
SLAB_00
10
1.632
20
-31.321
30
0.0
0
VERTEX
8
SLAB_00
10
2.011
20
-33.385
30
0.0
0
VERTEX
8
SLAB_00
10
2.449
20
-35.488
30
0.0
0
VERTEX
8
SLAB_00
10
2.952
20
-37.628
30
0.0
0
VERTEX
8
SLAB_00
10
3.524
20
-39.803
30
0.0
0
VERTEX
8
SLAB_00
10
4.171
20
-42.012
30
0.0
0
VERTEX
8
SLAB_00
10
4.898
20
-44.251
30
0.0
0
VERTEX
8
SLAB_00
10
5.709
20
-46.517
30
0.0
0
VERTEX
8
SLAB_00
10
6.609
20
-48.807
30
0.0
0
VERTEX
8
SLAB_00
10
7.603
20
-51.118
30
0.0
0
VERTEX
8
SLAB_00
10
8.694
20
-53.443
30
0.0
0
VERTEX
8
SLAB_00
10
9.887
20
-55.779
30
0.0
0
VERTEX
8
SLAB_00
10
11.185
20
-58.121
30
0.0
0
VERTEX
8
SLAB_00
10
12.593
20
-60.463
30
0.0
0
VERTEX
8
SLAB_00
10
14.113
20
-62.799
30
0.0
0
VERTEX
8
SLAB_00
10
15.747
20
-65.122
30
0.0
0
VERTEX
8
SLAB_00
10
17.499
20
-67.427
30
0.0
0
VERTEX
8
SLAB_00
10
19.370
20
-69.707
30
0.0
0
VERTEX
8
SLAB_00
10
21.362
20
-71.954
30
0.0
0
VERTEX
8
SLAB_00
10
23.476
20
-74.162
30
0.0
0
VERTEX
8
SLAB_00
10
25.712
20
-76.323
30
0.0
0
VERTEX
8
SLAB_00
10
28.071
20
-78.429
30
0.0
0
VERTEX
8
SLAB_00
10
30.552
20
-80.472
30
0.0
0
VERTEX
8
SLAB_00
10
33.155
20
-82.446
30
0.0
0
VERTEX
8
SLAB_00
10
35.877
20
-84.342
30
0.0
0
VERTEX
8
SLAB_00
10
38.717
20
-86.152
30
0.0
0
VERTEX
8
SLAB_00
10
41.673
20
-87.868
30
0.0
0
VERTEX
8
SLAB_00
10
44.742
20
-89.483
30
0.0
0
VERTEX
8
SLAB_00
10
47.919
20
-90.989
30
0.0
0
VERTEX
8
SLAB_00
10
51.201
20
-92.379
30
0.0
0
VERTEX
8
SLAB_00
10
54.584
20
-93.644
30
0.0
0
VERTEX
8
SLAB_00
10
58.062
20
-94.779
30
0.0
0
VERTEX
8
SLAB_00
10
61.629
20
-95.775
30
0.0
0
VERTEX
8
SLAB_00
10
65.280
20
-96.627
30
0.0
0
VERTEX
8
SLAB_00
10
69.008
20
-97.328
30
0.0
0
VERTEX
8
SLAB_00
10
72.806
20
-97.871
30
0.0
0
VERTEX
8
SLAB_00
10
76.666
20
-98.253
30
0.0
0
VERTEX
8
SLAB_00
10
80.580
20
-98.466
30
0.0
0
VERTEX
8
SLAB_00
10
84.541
20
-98.507
30
0.0
0
VERTEX
8
SLAB_00
10
88.539
20
-98.372
30
0.0
0
VERTEX
8
SLAB_00
10
92.566
20
-98.055
30
0.0
0
VERTEX
8
SLAB_00
10
96.613
20
-97.555
30
0.0
0
VERTEX
8
SLAB_00
10
100.669
20
-96.868
30
0.0
0
VERTEX
8
SLAB_00
10
104.725
20
-95.993
30
0.0
0
VERTEX
8
SLAB_00
10
108.770
20
-94.927
30
0.0
0
VERTEX
8
SLAB_00
10
112.796
20
-93.669
30
0.0
0
VERTEX
8
SLAB_00
10
116.792
20
-92.220
30
0.0
0
VERTEX
8
SLAB_00
10
120.746
20
-90.579
30
0.0
0
VERTEX
8
SLAB_00
10
124.650
20
-88.747
30
0.0
0
VERTEX
8
SLAB_00
10
128.492
20
-86.726
30
0.0
0
VERTEX
8
SLAB_00
10
132.262
20
-84.517
30
0.0
0
VERTEX
8
SLAB_00
10
135.950
20
-82.124
30
0.0
0
VERTEX
8
SLAB_00
10
139.545
20
-79.550
30
0.0
0
VERTEX
8
SLAB_00
10
143.038
20
-76.798
30
0.0
0
VERTEX
8
SLAB_00
10
146.419
20
-73.873
30
0.0
0
VERTEX
8
SLAB_00
10
149.678
20
-70.780
30
0.0
0
VERTEX
8
SLAB_00
10
152.805
20
-67.526
30
0.0
0
VERTEX
8
SLAB_00
10
155.792
20
-64.115
30
0.0
0
VERTEX
8
SLAB_00
10
158.631
20
-60.556
30
0.0
0
VERTEX
8
SLAB_00
10
161.312
20
-56.855
30
0.0
0
VERTEX
8
SLAB_00
10
163.828
20
-53.021
30
0.0
0
VERTEX
8
SLAB_00
10
166.172
20
-49.061
30
0.0
0
VERTEX
8
SLAB_00
10
168.336
20
-44.985
30
0.0
0
VERTEX
8
SLAB_00
10
170.314
20
-40.801
30
0.0
0
VERTEX
8
SLAB_00
10
172.101
20
-36.520
30
0.0
0
VERTEX
8
SLAB_00
10
173.690
20
-32.150
30
0.0
0
VERTEX
8
SLAB_00
10
175.077
20
-27.704
30
0.0
0
VERTEX
8
SLAB_00
10
176.258
20
-23.190
30
0.0
0
VERTEX
8
SLAB_00
10
177.229
20
-18.620
30
0.0
0
VERTEX
8
SLAB_00
10
177.987
20
-14.005
30
0.0
0
VERTEX
8
SLAB_00
10
178.531
20
-9.355
30
0.0
0
VERTEX
8
SLAB_00
10
178.857
20
-4.683
30
0.0
0
SEQEND
8
SLAB_00
0
TEXT
8
TEXT
10
0.000
20
113.507
30
0.0
40
8.0
1
01: s'=-81 D=197
0
CIRCLE
8
DOWEL
10
15.000
20
18.000
30
0.0
40
3.250
0
TEXT
8
DOWEL
10
20.000
20
16.000
30
0.0
40
3.0
1
A
0
CIRCLE
8
DOWEL
10
15.000
20
-18.000
30
0.0
40
3.250
0
TEXT
8
DOWEL
10
20.000
20
-20.000
30
0.0
40
3.0
1
B
0
CIRCLE
8
DOWEL
10
45.000
20
18.000
30
0.0
40
3.250
0
TEXT
8
DOWEL
10
50.000
20
16.000
30
0.0
40
3.0
1
C
0
CIRCLE
8
DOWEL
10
45.000
20
-18.000
30
0.0
40
3.250
0
TEXT
8
DOWEL
10
50.000
20
-20.000
30
0.0
40
3.0
1
D
0
ENDSEC
0
EOF