0
SECTION
2
HEADER
9
$ACADVER
1
AC1009
9
$INSUNITS
70
4
0
ENDSEC
0
SECTION
2
TABLES
0
TABLE
2
LAYER
70
4
0
LAYER
2
0
70
0
62
7
6
CONTINUOUS
0
LAYER
2
TEXT
70
0
62
1
6
CONTINUOUS
0
LAYER
2
DOWEL
70
0
62
5
6
CONTINUOUS
0
LAYER
2
SLAB_00
70
0
62
2
6
CONTINUOUS
0
ENDTAB
0
ENDSEC
0
SECTION
2
ENTITIES
0
POLYLINE
8
SLAB_00
66
1
70
1
10
0.0
20
0.0
30
0.0
0
VERTEX
8
SLAB_00
10
268.462
20
0.000
30
0.0
0
VERTEX
8
SLAB_00
10
268.299
20
7.025
30
0.0
0
VERTEX
8
SLAB_00
10
267.809
20
14.034
30
0.0
0
VERTEX
8
SLAB_00
10
266.994
20
21.008
30
0.0
0
VERTEX
8
SLAB_00
10
265.856
20
27.931
30
0.0
0
VERTEX
8
SLAB_00
10
264.399
20
34.786
30
0.0
0
VERTEX
8
SLAB_00
10
262.628
20
41.557
30
0.0
0
VERTEX
8
SLAB_00
10
260.547
20
48.228
30
0.0
0
VERTEX
8
SLAB_00
10
258.163
20
54.782
30
0.0
0
VERTEX
8
SLAB_00
10
255.483
20
61.204
30
0.0
0
VERTEX
8
SLAB_00
10
252.516
20
67.480
30
0.0
0
VERTEX
8
SLAB_00
10
249.270
20
73.595
30
0.0
0
VERTEX
8
SLAB_00
10
245.754
20
79.535
30
0.0
0
VERTEX
8
SLAB_00
10
241.980
20
85.287
30
0.0
0
VERTEX
8
SLAB_00
10
237.958
20
90.838
30
0.0
0
VERTEX
8
SLAB_00
10
233.700
20
96.177
30
0.0
0
VERTEX
8
SLAB_00
10
229.218
20
101.293
30
0.0
0
VERTEX
8
SLAB_00
10
224.527
20
106.175
30
0.0
0
VERTEX
8
SLAB_00
10
219.638
20
110.814
30
0.0
0
VERTEX
8
SLAB_00
10
214.567
20
115.202
30
0.0
0
VERTEX
8
SLAB_00
10
209.328
20
119.330
30
0.0
0
VERTEX
8
SLAB_00
10
203.934
20
123.192
30
0.0
0
VERTEX
8
SLAB_00
10
198.402
20
126.782
30
0.0
0
VERTEX
8
SLAB_00
10
192.747
20
130.095
30
0.0
0
VERTEX
8
SLAB_00
10
186.984
20
133.127
30
0.0
0
VERTEX
8
SLAB_00
10
181.128
20
135.875
30
0.0
0
VERTEX
8
SLAB_00
10
175.196
20
138.337
30
0.0
0
VERTEX
8
SLAB_00
10
169.202
20
140.511
30
0.0
0
VERTEX
8
SLAB_00
10
163.163
20
142.397
30
0.0
0
VERTEX
8
SLAB_00
10
157.094
20
143.996
30
0.0
0
VERTEX
8
SLAB_00
10
151.010
20
145.309
30
0.0
0
VERTEX
8
SLAB_00
10
144.926
20
146.340
30
0.0
0
VERTEX
8
SLAB_00
10
138.856
20
147.090
30
0.0
0
VERTEX
8
SLAB_00
10
132.815
20
147.564
30
0.0
0
VERTEX
8
SLAB_00
10
126.818
20
147.768
30
0.0
0
VERTEX
8
SLAB_00
10
120.876
20
147.706
30
0.0
0
VERTEX
8
SLAB_00
10
115.004
20
147.386
30
0.0
0
VERTEX
8
SLAB_00
10
109.214
20
146.814
30
0.0
0
VERTEX
8
SLAB_00
10
103.517
20
145.998
30
0.0
0
VERTEX
8
SLAB_00
10
97.925
20
144.947
30
0.0
0
VERTEX
8
SLAB_00
10
92.448
20
143.669
30
0.0
0
VERTEX
8
SLAB_00
10
87.097
20
142.175
30
0.0
0
VERTEX
8
SLAB_00
10
81.880
20
140.473
30
0.0
0
VERTEX
8
SLAB_00
10
76.806
20
138.574
30
0.0
0
VERTEX
8
SLAB_00
10
71.882
20
136.490
30
0.0
0
VERTEX
8
SLAB_00
10
67.116
20
134.231
30
0.0
0
VERTEX
8
SLAB_00
10
62.513
20
131.808
30
0.0
0
VERTEX
8
SLAB_00
10
58.079
20
129.234
30
0.0
0
VERTEX
8
SLAB_00
10
53.818
20
126.519
30
0.0
0
VERTEX
8
SLAB_00
10
49.734
20
123.675
30
0.0
0
VERTEX
8
SLAB_00
10
45.830
20
120.714
30
0.0
0
VERTEX
8
SLAB_00
10
42.109
20
117.649
30
0.0
0
VERTEX
8
SLAB_00
10
38.570
20
114.489
30
0.0
0
VERTEX
8
SLAB_00
10
35.216
20
111.248
30
0.0
0
VERTEX
8
SLAB_00
10
32.045
20
107.937
30
0.0
0
VERTEX
8
SLAB_00
10
29.057
20
104.565
30
0.0
0
VERTEX
8
SLAB_00
10
26.250
20
101.146
30
0.0
0
VERTEX
8
SLAB_00
10
23.622
20
97.688
30
0.0
0
VERTEX
8
SLAB_00
10
21.170
20
94.202
30
0.0
0
VERTEX
8
SLAB_00
10
18.890
20
90.698
30
0.0
0
VERTEX
8
SLAB_00
10
16.779
20
87.186
30
0.0
0
VERTEX
8
SLAB_00
10
14.831
20
83.673
30
0.0
0
VERTEX
8
SLAB_00
10
13.041
20
80.168
30
0.0
0
VERTEX
8
SLAB_00
10
11.404
20
76.680
30
0.0
0
VERTEX
8
SLAB_00
10
9.914
20
73.215
30
0.0
0
VERTEX
8
SLAB_00
10
8.564
20
69.779
30
0.0
0
VERTEX
8
SLAB_00
10
7.347
20
66.379
30
0.0
0
VERTEX
8
SLAB_00
10
6.257
20
63.020
30
0.0
0
VERTEX
8
SLAB_00
10
5.287
20
59.707
30
0.0
0
VERTEX
8
SLAB_00
10
4.428
20
56.444
30
0.0
0
VERTEX
8
SLAB_00
10
3.674
20
53.234
30
0.0
0
VERTEX
8
SLAB_00
10
3.016
20
50.080
30
0.0
0
VERTEX
8
SLAB_00
10
2.448
20
46.984
30
0.0
0
VERTEX
8
SLAB_00
10
1.962
20
43.947
30
0.0
0
VERTEX
8
SLAB_00
10
1.550
20
40.970
30
0.0
0
VERTEX
8
SLAB_00
10
1.205
20
38.054
30
0.0
0
VERTEX
8
SLAB_00
10
0.920
20
35.197
30
0.0
0
VERTEX
8
SLAB_00
10
0.687
20
32.399
30
0.0
0
VERTEX
8
SLAB_00
10
0.502
20
29.658
30
0.0
0
VERTEX
8
SLAB_00
10
0.356
20
26.973
30
0.0
0
VERTEX
8
SLAB_00
10
0.244
20
24.339
30
0.0
0
VERTEX
8
SLAB_00
10
0.161
20
21.755
30
0.0
0
VERTEX
8
SLAB_00
10
0.101
20
19.216
30
0.0
0
VERTEX
8
SLAB_00
10
0.059
20
16.719
30
0.0
0
VERTEX
8
SLAB_00
10
0.032
20
14.259
30
0.0
0
VERTEX
8
SLAB_00
10
0.015
20
11.832
30
0.0
0
VERTEX
8
SLAB_00
10
0.006
20
9.432
30
0.0
0
VERTEX
8
SLAB_00
10
0.002
20
7.054
30
0.0
0
VERTEX
8
SLAB_00
10
0.000
20
4.693
30
0.0
0
VERTEX
8
SLAB_00
10
0.000
20
2.344
30
0.0
0
VERTEX
8
SLAB_00
10
0.000
20
0.000
30
0.0
0
VERTEX
8
SLAB_00
10
0.000
20
-2.344
30
0.0
0
VERTEX
8
SLAB_00
10
0.000
20
-4.693
30
0.0
0
VERTEX
8
SLAB_00
10
0.002
20
-7.054
30
0.0
0
VERTEX
8
SLAB_00
10
0.006
20
-9.432
30
0.0
0
VERTEX
8
SLAB_00
10
0.015
20
-11.832
30
0.0
0
VERTEX
8
SLAB_00
10
0.032
20
-14.259
30
0.0
0
VERTEX
8
SLAB_00
10
0.059
20
-16.719
30
0.0
0
VERTEX
8
SLAB_00
10
0.101
20
-19.216
30
0.0
0
VERTEX
8
SLAB_00
10
0.161
20
-21.755
30
0.0
0
VERTEX
8
SLAB_00
10
0.244
20
-24.339
30
0.0
0
VERTEX
8
SLAB_00
10
0.356
20
-26.973
30
0.0
0
VERTEX
8
SLAB_00
10
0.502
20
-29.658
30
0.0
0
VERTEX
8
SLAB_00
10
0.687
20
-32.399
30
0.0
0
VERTEX
8
SLAB_00
10
0.920
20
-35.197
30
0.0
0
VERTEX
8
SLAB_00
10
1.205
20
-38.054
30
0.0
0
VERTEX
8
SLAB_00
10
1.550
20
-40.970
30
0.0
0
VERTEX
8
SLAB_00
10
1.962
20
-43.947
30
0.0
0
VERTEX
8
SLAB_00
10
2.448
20
-46.984
30
0.0
0
VERTEX
8
SLAB_00
10
3.016
20
-50.080
30
0.0
0
VERTEX
8
SLAB_00
10
3.674
20
-53.234
30
0.0
0
VERTEX
8
SLAB_00
10
4.428
20
-56.444
30
0.0
0
VERTEX
8
SLAB_00
10
5.287
20
-59.707
30
0.0
0
VERTEX
8
SLAB_00
10
6.257
20
-63.020
30
0.0
0
VERTEX
8
SLAB_00
10
7.347
20
-66.379
30
0.0
0
VERTEX
8
SLAB_00
10
8.564
20
-69.779
30
0.0
0
VERTEX
8
SLAB_00
10
9.914
20
-73.215
30
0.0
0
VERTEX
8
SLAB_00
10
11.404
20
-76.680
30
0.0
0
VERTEX
8
SLAB_00
10
13.041
20
-80.168
30
0.0
0
VERTEX
8
SLAB_00
10
14.831
20
-83.673
30
0.0
0
VERTEX
8
SLAB_00
10
16.779
20
-87.186
30
0.0
0
VERTEX
8
SLAB_00
10
18.890
20
-90.698
30
0.0
0
VERTEX
8
SLAB_00
10
21.170
20
-94.202
30
0.0
0
VERTEX
8
SLAB_00
10
23.622
20
-97.688
30
0.0
0
VERTEX
8
SLAB_00
10
26.250
20
-101.146
30
0.0
0
VERTEX
8
SLAB_00
10
29.057
20
-104.565
30
0.0
0
VERTEX
8
SLAB_00
10
32.045
20
-107.937
30
0.0
0
VERTEX
8
SLAB_00
10
35.216
20
-111.248
30
0.0
0
VERTEX
8
SLAB_00
10
38.570
20
-114.489
30
0.0
0
VERTEX
8
SLAB_00
10
42.109
20
-117.649
30
0.0
0
VERTEX
8
SLAB_00
10
45.830
20
-120.714
30
0.0
0
VERTEX
8
SLAB_00
10
49.734
20
-123.675
30
0.0
0
VERTEX
8
SLAB_00
10
53.818
20
-126.519
30
0.0
0
VERTEX
8
SLAB_00
10
58.079
20
-129.234
30
0.0
0
VERTEX
8
SLAB_00
10
62.513
20
-131.808
30
0.0
0
VERTEX
8
SLAB_00
10
67.116
20
-134.231
30
0.0
0
VERTEX
8
SLAB_00
10
71.882
20
-136.490
30
0.0
0
VERTEX
8
SLAB_00
10
76.806
20
-138.574
30
0.0
0
VERTEX
8
SLAB_00
10
81.880
20
-140.473
30
0.0
0
VERTEX
8
SLAB_00
10
87.097
20
-142.175
30
0.0
0
VERTEX
8
SLAB_00
10
92.448
20
-143.669
30
0.0
0
VERTEX
8
SLAB_00
10
97.925
20
-144.947
30
0.0
0
VERTEX
8
SLAB_00
10
103.517
20
-145.998
30
0.0
0
VERTEX
8
SLAB_00
10
109.214
20
-146.814
30
0.0
0
VERTEX
8
SLAB_00
10
115.004
20
-147.386
30
0.0
0
VERTEX
8
SLAB_00
10
120.876
20
-147.706
30
0.0
0
VERTEX
8
SLAB_00
10
126.818
20
-147.768
30
0.0
0
VERTEX
8
SLAB_00
10
132.815
20
-147.564
30
0.0
0
VERTEX
8
SLAB_00
10
138.856
20
-147.090
30
0.0
0
VERTEX
8
SLAB_00
10
144.926
20
-146.340
30
0.0
0
VERTEX
8
SLAB_00
10
151.010
20
-145.309
30
0.0
0
VERTEX
8
SLAB_00
10
157.094
20
-143.996
30
0.0
0
VERTEX
8
SLAB_00
10
163.163
20
-142.397
30
0.0
0
VERTEX
8
SLAB_00
10
169.202
20
-140.511
30
0.0
0
VERTEX
8
SLAB_00
10
175.196
20
-138.337
30
0.0
0
VERTEX
8
SLAB_00
10
181.128
20
-135.875
30
0.0
0
VERTEX
8
SLAB_00
10
186.984
20
-133.127
30
0.0
0
VERTEX
8
SLAB_00
10
192.747
20
-130.095
30
0.0
0
VERTEX
8
SLAB_00
10
198.402
20
-126.782
30
0.0
0
VERTEX
8
SLAB_00
10
203.934
20
-123.192
30
0.0
0
VERTEX
8
SLAB_00
10
209.328
20
-119.330
30
0.0
0
VERTEX
8
SLAB_00
10
214.567
20
-115.202
30
0.0
0
VERTEX
8
SLAB_00
10
219.638
20
-110.814
30
0.0
0
VERTEX
8
SLAB_00
10
224.527
20
-106.175
30
0.0
0
VERTEX
8
SLAB_00
10
229.218
20
-101.293
30
0.0
0
VERTEX
8
SLAB_00
10
233.700
20
-96.177
30
0.0
0
VERTEX
8
SLAB_00
10
237.958
20
-90.838
30
0.0
0
VERTEX
8
SLAB_00
10
241.980
20
-85.287
30
0.0
0
VERTEX
8
SLAB_00
10
245.754
20
-79.535
30
0.0
0
VERTEX
8
SLAB_00
10
249.270
20
-73.595
30
0.0
0
VERTEX
8
SLAB_00
10
252.516
20
-67.480
30
0.0
0
VERTEX
8
SLAB_00
10
255.483
20
-61.204
30
0.0
0
VERTEX
8
SLAB_00
10
258.163
20
-54.782
30
0.0
0
VERTEX
8
SLAB_00
10
260.547
20
-48.228
30
0.0
0
VERTEX
8
SLAB_00
10
262.628
20
-41.557
30
0.0
0
VERTEX
8
SLAB_00
10
264.399
20
-34.786
30
0.0
0
VERTEX
8
SLAB_00
10
265.856
20
-27.931
30
0.0
0
VERTEX
8
SLAB_00
10
266.994
20
-21.008
30
0.0
0
VERTEX
8
SLAB_00
10
267.809
20
-14.034
30
0.0
0
VERTEX
8
SLAB_00
10
268.299
20
-7.025
30
0.0
0
SEQEND
8
SLAB_00
0
TEXT
8
TEXT
10
0.000
20
162.768
30
0.0
40
8.0
1
42: s'=+935 D=296
0
CIRCLE
8
DOWEL
10
15.000
20
18.000
30
0.0
40
3.250
0
TEXT
8
DOWEL
10
20.000
20
16.000
30
0.0
40
3.0
1
A
0
CIRCLE
8
DOWEL
10
15.000
20
-18.000
30
0.0
40
3.250
0
TEXT
8
DOWEL
10
20.000
20
-20.000
30
0.0
40
3.0
1
B
0
CIRCLE
8
DOWEL
10
45.000
20
18.000
30
0.0
40
3.250
0
TEXT
8
DOWEL
10
50.000
20
16.000
30
0.0
40
3.0
1
C
0
CIRCLE
8
DOWEL
10
45.000
20
-18.000
30
0.0
40
3.250
0
TEXT
8
DOWEL
10
50.000
20
-20.000
30
0.0
40
3.0
1
D
0
ENDSEC
0
EOF