0
SECTION
2
HEADER
9
$ACADVER
1
AC1009
9
$INSUNITS
70
4
0
ENDSEC
0
SECTION
2
TABLES
0
TABLE
2
LAYER
70
4
0
LAYER
2
0
70
0
62
7
6
CONTINUOUS
0
LAYER
2
TEXT
70
0
62
1
6
CONTINUOUS
0
LAYER
2
DOWEL
70
0
62
5
6
CONTINUOUS
0
LAYER
2
SLAB_00
70
0
62
2
6
CONTINUOUS
0
ENDTAB
0
ENDSEC
0
SECTION
2
ENTITIES
0
POLYLINE
8
SLAB_00
66
1
70
1
10
0.0
20
0.0
30
0.0
0
VERTEX
8
SLAB_00
10
208.798
20
0.000
30
0.0
0
VERTEX
8
SLAB_00
10
208.671
20
5.464
30
0.0
0
VERTEX
8
SLAB_00
10
208.289
20
10.915
30
0.0
0
VERTEX
8
SLAB_00
10
207.655
20
16.339
30
0.0
0
VERTEX
8
SLAB_00
10
206.771
20
21.724
30
0.0
0
VERTEX
8
SLAB_00
10
205.638
20
27.055
30
0.0
0
VERTEX
8
SLAB_00
10
204.260
20
32.321
30
0.0
0
VERTEX
8
SLAB_00
10
202.642
20
37.509
30
0.0
0
VERTEX
8
SLAB_00
10
200.788
20
42.607
30
0.0
0
VERTEX
8
SLAB_00
10
198.703
20
47.602
30
0.0
0
VERTEX
8
SLAB_00
10
196.396
20
52.483
30
0.0
0
VERTEX
8
SLAB_00
10
193.871
20
57.239
30
0.0
0
VERTEX
8
SLAB_00
10
191.136
20
61.859
30
0.0
0
VERTEX
8
SLAB_00
10
188.201
20
66.332
30
0.0
0
VERTEX
8
SLAB_00
10
185.073
20
70.650
30
0.0
0
VERTEX
8
SLAB_00
10
181.761
20
74.802
30
0.0
0
VERTEX
8
SLAB_00
10
178.276
20
78.781
30
0.0
0
VERTEX
8
SLAB_00
10
174.627
20
82.578
30
0.0
0
VERTEX
8
SLAB_00
10
170.825
20
86.186
30
0.0
0
VERTEX
8
SLAB_00
10
166.881
20
89.599
30
0.0
0
VERTEX
8
SLAB_00
10
162.805
20
92.809
30
0.0
0
VERTEX
8
SLAB_00
10
158.611
20
95.813
30
0.0
0
VERTEX
8
SLAB_00
10
154.308
20
98.605
30
0.0
0
VERTEX
8
SLAB_00
10
149.910
20
101.182
30
0.0
0
VERTEX
8
SLAB_00
10
145.427
20
103.540
30
0.0
0
VERTEX
8
SLAB_00
10
140.873
20
105.677
30
0.0
0
VERTEX
8
SLAB_00
10
136.259
20
107.592
30
0.0
0
VERTEX
8
SLAB_00
10
131.598
20
109.283
30
0.0
0
VERTEX
8
SLAB_00
10
126.901
20
110.750
30
0.0
0
VERTEX
8
SLAB_00
10
122.181
20
111.994
30
0.0
0
VERTEX
8
SLAB_00
10
117.449
20
113.015
30
0.0
0
VERTEX
8
SLAB_00
10
112.717
20
113.816
30
0.0
0
VERTEX
8
SLAB_00
10
107.996
20
114.400
30
0.0
0
VERTEX
8
SLAB_00
10
103.298
20
114.769
30
0.0
0
VERTEX
8
SLAB_00
10
98.633
20
114.927
30
0.0
0
VERTEX
8
SLAB_00
10
94.012
20
114.879
30
0.0
0
VERTEX
8
SLAB_00
10
89.445
20
114.630
30
0.0
0
VERTEX
8
SLAB_00
10
84.942
20
114.185
30
0.0
0
VERTEX
8
SLAB_00
10
80.511
20
113.551
30
0.0
0
VERTEX
8
SLAB_00
10
76.162
20
112.733
30
0.0
0
VERTEX
8
SLAB_00
10
71.902
20
111.739
30
0.0
0
VERTEX
8
SLAB_00
10
67.740
20
110.577
30
0.0
0
VERTEX
8
SLAB_00
10
63.682
20
109.253
30
0.0
0
VERTEX
8
SLAB_00
10
59.736
20
107.777
30
0.0
0
VERTEX
8
SLAB_00
10
55.906
20
106.156
30
0.0
0
VERTEX
8
SLAB_00
10
52.199
20
104.399
30
0.0
0
VERTEX
8
SLAB_00
10
48.620
20
102.515
30
0.0
0
VERTEX
8
SLAB_00
10
45.171
20
100.512
30
0.0
0
VERTEX
8
SLAB_00
10
41.857
20
98.401
30
0.0
0
VERTEX
8
SLAB_00
10
38.681
20
96.189
30
0.0
0
VERTEX
8
SLAB_00
10
35.645
20
93.886
30
0.0
0
VERTEX
8
SLAB_00
10
32.750
20
91.502
30
0.0
0
VERTEX
8
SLAB_00
10
29.998
20
89.045
30
0.0
0
VERTEX
8
SLAB_00
10
27.389
20
86.524
30
0.0
0
VERTEX
8
SLAB_00
10
24.923
20
83.948
30
0.0
0
VERTEX
8
SLAB_00
10
22.599
20
81.326
30
0.0
0
VERTEX
8
SLAB_00
10
20.416
20
78.667
30
0.0
0
VERTEX
8
SLAB_00
10
18.372
20
75.977
30
0.0
0
VERTEX
8
SLAB_00
10
16.465
20
73.266
30
0.0
0
VERTEX
8
SLAB_00
10
14.692
20
70.541
30
0.0
0
VERTEX
8
SLAB_00
10
13.050
20
67.809
30
0.0
0
VERTEX
8
SLAB_00
10
11.535
20
65.077
30
0.0
0
VERTEX
8
SLAB_00
10
10.143
20
62.351
30
0.0
0
VERTEX
8
SLAB_00
10
8.870
20
59.638
30
0.0
0
VERTEX
8
SLAB_00
10
7.711
20
56.943
30
0.0
0
VERTEX
8
SLAB_00
10
6.661
20
54.271
30
0.0
0
VERTEX
8
SLAB_00
10
5.715
20
51.627
30
0.0
0
VERTEX
8
SLAB_00
10
4.867
20
49.014
30
0.0
0
VERTEX
8
SLAB_00
10
4.112
20
46.438
30
0.0
0
VERTEX
8
SLAB_00
10
3.444
20
43.900
30
0.0
0
VERTEX
8
SLAB_00
10
2.857
20
41.403
30
0.0
0
VERTEX
8
SLAB_00
10
2.346
20
38.950
30
0.0
0
VERTEX
8
SLAB_00
10
1.904
20
36.542
30
0.0
0
VERTEX
8
SLAB_00
10
1.526
20
34.180
30
0.0
0
VERTEX
8
SLAB_00
10
1.205
20
31.865
30
0.0
0
VERTEX
8
SLAB_00
10
0.937
20
29.596
30
0.0
0
VERTEX
8
SLAB_00
10
0.715
20
27.375
30
0.0
0
VERTEX
8
SLAB_00
10
0.535
20
25.199
30
0.0
0
VERTEX
8
SLAB_00
10
0.390
20
23.067
30
0.0
0
VERTEX
8
SLAB_00
10
0.277
20
20.978
30
0.0
0
VERTEX
8
SLAB_00
10
0.190
20
18.930
30
0.0
0
VERTEX
8
SLAB_00
10
0.125
20
16.920
30
0.0
0
VERTEX
8
SLAB_00
10
0.078
20
14.945
30
0.0
0
VERTEX
8
SLAB_00
10
0.046
20
13.003
30
0.0
0
VERTEX
8
SLAB_00
10
0.025
20
11.090
30
0.0
0
VERTEX
8
SLAB_00
10
0.012
20
9.202
30
0.0
0
VERTEX
8
SLAB_00
10
0.005
20
7.335
30
0.0
0
VERTEX
8
SLAB_00
10
0.002
20
5.486
30
0.0
0
VERTEX
8
SLAB_00
10
0.000
20
3.650
30
0.0
0
VERTEX
8
SLAB_00
10
0.000
20
1.823
30
0.0
0
VERTEX
8
SLAB_00
10
0.000
20
0.000
30
0.0
0
VERTEX
8
SLAB_00
10
0.000
20
-1.823
30
0.0
0
VERTEX
8
SLAB_00
10
0.000
20
-3.650
30
0.0
0
VERTEX
8
SLAB_00
10
0.002
20
-5.486
30
0.0
0
VERTEX
8
SLAB_00
10
0.005
20
-7.335
30
0.0
0
VERTEX
8
SLAB_00
10
0.012
20
-9.202
30
0.0
0
VERTEX
8
SLAB_00
10
0.025
20
-11.090
30
0.0
0
VERTEX
8
SLAB_00
10
0.046
20
-13.003
30
0.0
0
VERTEX
8
SLAB_00
10
0.078
20
-14.945
30
0.0
0
VERTEX
8
SLAB_00
10
0.125
20
-16.920
30
0.0
0
VERTEX
8
SLAB_00
10
0.190
20
-18.930
30
0.0
0
VERTEX
8
SLAB_00
10
0.277
20
-20.978
30
0.0
0
VERTEX
8
SLAB_00
10
0.390
20
-23.067
30
0.0
0
VERTEX
8
SLAB_00
10
0.535
20
-25.199
30
0.0
0
VERTEX
8
SLAB_00
10
0.715
20
-27.375
30
0.0
0
VERTEX
8
SLAB_00
10
0.937
20
-29.596
30
0.0
0
VERTEX
8
SLAB_00
10
1.205
20
-31.865
30
0.0
0
VERTEX
8
SLAB_00
10
1.526
20
-34.180
30
0.0
0
VERTEX
8
SLAB_00
10
1.904
20
-36.542
30
0.0
0
VERTEX
8
SLAB_00
10
2.346
20
-38.950
30
0.0
0
VERTEX
8
SLAB_00
10
2.857
20
-41.403
30
0.0
0
VERTEX
8
SLAB_00
10
3.444
20
-43.900
30
0.0
0
VERTEX
8
SLAB_00
10
4.112
20
-46.438
30
0.0
0
VERTEX
8
SLAB_00
10
4.867
20
-49.014
30
0.0
0
VERTEX
8
SLAB_00
10
5.715
20
-51.627
30
0.0
0
VERTEX
8
SLAB_00
10
6.661
20
-54.271
30
0.0
0
VERTEX
8
SLAB_00
10
7.711
20
-56.943
30
0.0
0
VERTEX
8
SLAB_00
10
8.870
20
-59.638
30
0.0
0
VERTEX
8
SLAB_00
10
10.143
20
-62.351
30
0.0
0
VERTEX
8
SLAB_00
10
11.535
20
-65.077
30
0.0
0
VERTEX
8
SLAB_00
10
13.050
20
-67.809
30
0.0
0
VERTEX
8
SLAB_00
10
14.692
20
-70.541
30
0.0
0
VERTEX
8
SLAB_00
10
16.465
20
-73.266
30
0.0
0
VERTEX
8
SLAB_00
10
18.372
20
-75.977
30
0.0
0
VERTEX
8
SLAB_00
10
20.416
20
-78.667
30
0.0
0
VERTEX
8
SLAB_00
10
22.599
20
-81.326
30
0.0
0
VERTEX
8
SLAB_00
10
24.923
20
-83.948
30
0.0
0
VERTEX
8
SLAB_00
10
27.389
20
-86.524
30
0.0
0
VERTEX
8
SLAB_00
10
29.998
20
-89.045
30
0.0
0
VERTEX
8
SLAB_00
10
32.750
20
-91.502
30
0.0
0
VERTEX
8
SLAB_00
10
35.645
20
-93.886
30
0.0
0
VERTEX
8
SLAB_00
10
38.681
20
-96.189
30
0.0
0
VERTEX
8
SLAB_00
10
41.857
20
-98.401
30
0.0
0
VERTEX
8
SLAB_00
10
45.171
20
-100.512
30
0.0
0
VERTEX
8
SLAB_00
10
48.620
20
-102.515
30
0.0
0
VERTEX
8
SLAB_00
10
52.199
20
-104.399
30
0.0
0
VERTEX
8
SLAB_00
10
55.906
20
-106.156
30
0.0
0
VERTEX
8
SLAB_00
10
59.736
20
-107.777
30
0.0
0
VERTEX
8
SLAB_00
10
63.682
20
-109.253
30
0.0
0
VERTEX
8
SLAB_00
10
67.740
20
-110.577
30
0.0
0
VERTEX
8
SLAB_00
10
71.902
20
-111.739
30
0.0
0
VERTEX
8
SLAB_00
10
76.162
20
-112.733
30
0.0
0
VERTEX
8
SLAB_00
10
80.511
20
-113.551
30
0.0
0
VERTEX
8
SLAB_00
10
84.942
20
-114.185
30
0.0
0
VERTEX
8
SLAB_00
10
89.445
20
-114.630
30
0.0
0
VERTEX
8
SLAB_00
10
94.012
20
-114.879
30
0.0
0
VERTEX
8
SLAB_00
10
98.633
20
-114.927
30
0.0
0
VERTEX
8
SLAB_00
10
103.298
20
-114.769
30
0.0
0
VERTEX
8
SLAB_00
10
107.996
20
-114.400
30
0.0
0
VERTEX
8
SLAB_00
10
112.717
20
-113.816
30
0.0
0
VERTEX
8
SLAB_00
10
117.449
20
-113.015
30
0.0
0
VERTEX
8
SLAB_00
10
122.181
20
-111.994
30
0.0
0
VERTEX
8
SLAB_00
10
126.901
20
-110.750
30
0.0
0
VERTEX
8
SLAB_00
10
131.598
20
-109.283
30
0.0
0
VERTEX
8
SLAB_00
10
136.259
20
-107.592
30
0.0
0
VERTEX
8
SLAB_00
10
140.873
20
-105.677
30
0.0
0
VERTEX
8
SLAB_00
10
145.427
20
-103.540
30
0.0
0
VERTEX
8
SLAB_00
10
149.910
20
-101.182
30
0.0
0
VERTEX
8
SLAB_00
10
154.308
20
-98.605
30
0.0
0
VERTEX
8
SLAB_00
10
158.611
20
-95.813
30
0.0
0
VERTEX
8
SLAB_00
10
162.805
20
-92.809
30
0.0
0
VERTEX
8
SLAB_00
10
166.881
20
-89.599
30
0.0
0
VERTEX
8
SLAB_00
10
170.825
20
-86.186
30
0.0
0
VERTEX
8
SLAB_00
10
174.627
20
-82.578
30
0.0
0
VERTEX
8
SLAB_00
10
178.276
20
-78.781
30
0.0
0
VERTEX
8
SLAB_00
10
181.761
20
-74.802
30
0.0
0
VERTEX
8
SLAB_00
10
185.073
20
-70.650
30
0.0
0
VERTEX
8
SLAB_00
10
188.201
20
-66.332
30
0.0
0
VERTEX
8
SLAB_00
10
191.136
20
-61.859
30
0.0
0
VERTEX
8
SLAB_00
10
193.871
20
-57.239
30
0.0
0
VERTEX
8
SLAB_00
10
196.396
20
-52.483
30
0.0
0
VERTEX
8
SLAB_00
10
198.703
20
-47.602
30
0.0
0
VERTEX
8
SLAB_00
10
200.788
20
-42.607
30
0.0
0
VERTEX
8
SLAB_00
10
202.642
20
-37.509
30
0.0
0
VERTEX
8
SLAB_00
10
204.260
20
-32.321
30
0.0
0
VERTEX
8
SLAB_00
10
205.638
20
-27.055
30
0.0
0
VERTEX
8
SLAB_00
10
206.771
20
-21.724
30
0.0
0
VERTEX
8
SLAB_00
10
207.655
20
-16.339
30
0.0
0
VERTEX
8
SLAB_00
10
208.289
20
-10.915
30
0.0
0
VERTEX
8
SLAB_00
10
208.671
20
-5.464
30
0.0
0
SEQEND
8
SLAB_00
0
TEXT
8
TEXT
10
0.000
20
129.927
30
0.0
40
8.0
1
04: s'=-5 D=230
0
CIRCLE
8
DOWEL
10
15.000
20
18.000
30
0.0
40
3.250
0
TEXT
8
DOWEL
10
20.000
20
16.000
30
0.0
40
3.0
1
A
0
CIRCLE
8
DOWEL
10
15.000
20
-18.000
30
0.0
40
3.250
0
TEXT
8
DOWEL
10
20.000
20
-20.000
30
0.0
40
3.0
1
B
0
CIRCLE
8
DOWEL
10
45.000
20
18.000
30
0.0
40
3.250
0
TEXT
8
DOWEL
10
50.000
20
16.000
30
0.0
40
3.0
1
C
0
CIRCLE
8
DOWEL
10
45.000
20
-18.000
30
0.0
40
3.250
0
TEXT
8
DOWEL
10
50.000
20
-20.000
30
0.0
40
3.0
1
D
0
ENDSEC
0
EOF