0
SECTION
2
HEADER
9
$ACADVER
1
AC1009
9
$INSUNITS
70
4
0
ENDSEC
0
SECTION
2
TABLES
0
TABLE
2
LAYER
70
4
0
LAYER
2
0
70
0
62
7
6
CONTINUOUS
0
LAYER
2
TEXT
70
0
62
1
6
CONTINUOUS
0
LAYER
2
DOWEL
70
0
62
5
6
CONTINUOUS
0
LAYER
2
SLAB_00
70
0
62
2
6
CONTINUOUS
0
ENDTAB
0
ENDSEC
0
SECTION
2
ENTITIES
0
POLYLINE
8
SLAB_00
66
1
70
1
10
0.0
20
0.0
30
0.0
0
VERTEX
8
SLAB_00
10
180.436
20
0.000
30
0.0
0
VERTEX
8
SLAB_00
10
180.326
20
4.722
30
0.0
0
VERTEX
8
SLAB_00
10
179.997
20
9.432
30
0.0
0
VERTEX
8
SLAB_00
10
179.449
20
14.120
30
0.0
0
VERTEX
8
SLAB_00
10
178.684
20
18.773
30
0.0
0
VERTEX
8
SLAB_00
10
177.705
20
23.380
30
0.0
0
VERTEX
8
SLAB_00
10
176.514
20
27.931
30
0.0
0
VERTEX
8
SLAB_00
10
175.116
20
32.414
30
0.0
0
VERTEX
8
SLAB_00
10
173.514
20
36.819
30
0.0
0
VERTEX
8
SLAB_00
10
171.713
20
41.136
30
0.0
0
VERTEX
8
SLAB_00
10
169.718
20
45.354
30
0.0
0
VERTEX
8
SLAB_00
10
167.536
20
49.464
30
0.0
0
VERTEX
8
SLAB_00
10
165.174
20
53.456
30
0.0
0
VERTEX
8
SLAB_00
10
162.637
20
57.322
30
0.0
0
VERTEX
8
SLAB_00
10
159.933
20
61.053
30
0.0
0
VERTEX
8
SLAB_00
10
157.072
20
64.642
30
0.0
0
VERTEX
8
SLAB_00
10
154.060
20
68.080
30
0.0
0
VERTEX
8
SLAB_00
10
150.907
20
71.361
30
0.0
0
VERTEX
8
SLAB_00
10
147.621
20
74.479
30
0.0
0
VERTEX
8
SLAB_00
10
144.213
20
77.428
30
0.0
0
VERTEX
8
SLAB_00
10
140.691
20
80.203
30
0.0
0
VERTEX
8
SLAB_00
10
137.066
20
82.799
30
0.0
0
VERTEX
8
SLAB_00
10
133.348
20
85.211
30
0.0
0
VERTEX
8
SLAB_00
10
129.547
20
87.438
30
0.0
0
VERTEX
8
SLAB_00
10
125.673
20
89.476
30
0.0
0
VERTEX
8
SLAB_00
10
121.738
20
91.323
30
0.0
0
VERTEX
8
SLAB_00
10
117.751
20
92.977
30
0.0
0
VERTEX
8
SLAB_00
10
113.723
20
94.438
30
0.0
0
VERTEX
8
SLAB_00
10
109.664
20
95.706
30
0.0
0
VERTEX
8
SLAB_00
10
105.584
20
96.781
30
0.0
0
VERTEX
8
SLAB_00
10
101.495
20
97.664
30
0.0
0
VERTEX
8
SLAB_00
10
97.406
20
98.356
30
0.0
0
VERTEX
8
SLAB_00
10
93.326
20
98.861
30
0.0
0
VERTEX
8
SLAB_00
10
89.266
20
99.179
30
0.0
0
VERTEX
8
SLAB_00
10
85.235
20
99.316
30
0.0
0
VERTEX
8
SLAB_00
10
81.242
20
99.275
30
0.0
0
VERTEX
8
SLAB_00
10
77.295
20
99.060
30
0.0
0
VERTEX
8
SLAB_00
10
73.404
20
98.675
30
0.0
0
VERTEX
8
SLAB_00
10
69.575
20
98.127
30
0.0
0
VERTEX
8
SLAB_00
10
65.816
20
97.420
30
0.0
0
VERTEX
8
SLAB_00
10
62.135
20
96.561
30
0.0
0
VERTEX
8
SLAB_00
10
58.539
20
95.557
30
0.0
0
VERTEX
8
SLAB_00
10
55.032
20
94.413
30
0.0
0
VERTEX
8
SLAB_00
10
51.622
20
93.137
30
0.0
0
VERTEX
8
SLAB_00
10
48.312
20
91.736
30
0.0
0
VERTEX
8
SLAB_00
10
45.109
20
90.218
30
0.0
0
VERTEX
8
SLAB_00
10
42.015
20
88.590
30
0.0
0
VERTEX
8
SLAB_00
10
39.035
20
86.859
30
0.0
0
VERTEX
8
SLAB_00
10
36.171
20
85.034
30
0.0
0
VERTEX
8
SLAB_00
10
33.427
20
83.123
30
0.0
0
VERTEX
8
SLAB_00
10
30.803
20
81.133
30
0.0
0
VERTEX
8
SLAB_00
10
28.302
20
79.073
30
0.0
0
VERTEX
8
SLAB_00
10
25.923
20
76.949
30
0.0
0
VERTEX
8
SLAB_00
10
23.669
20
74.771
30
0.0
0
VERTEX
8
SLAB_00
10
21.538
20
72.545
30
0.0
0
VERTEX
8
SLAB_00
10
19.529
20
70.279
30
0.0
0
VERTEX
8
SLAB_00
10
17.643
20
67.981
30
0.0
0
VERTEX
8
SLAB_00
10
15.877
20
65.657
30
0.0
0
VERTEX
8
SLAB_00
10
14.229
20
63.314
30
0.0
0
VERTEX
8
SLAB_00
10
12.696
20
60.959
30
0.0
0
VERTEX
8
SLAB_00
10
11.277
20
58.598
30
0.0
0
VERTEX
8
SLAB_00
10
9.968
20
56.237
30
0.0
0
VERTEX
8
SLAB_00
10
8.765
20
53.882
30
0.0
0
VERTEX
8
SLAB_00
10
7.665
20
51.537
30
0.0
0
VERTEX
8
SLAB_00
10
6.663
20
49.208
30
0.0
0
VERTEX
8
SLAB_00
10
5.756
20
46.899
30
0.0
0
VERTEX
8
SLAB_00
10
4.938
20
44.614
30
0.0
0
VERTEX
8
SLAB_00
10
4.206
20
42.357
30
0.0
0
VERTEX
8
SLAB_00
10
3.553
20
40.130
30
0.0
0
VERTEX
8
SLAB_00
10
2.976
20
37.937
30
0.0
0
VERTEX
8
SLAB_00
10
2.469
20
35.779
30
0.0
0
VERTEX
8
SLAB_00
10
2.027
20
33.659
30
0.0
0
VERTEX
8
SLAB_00
10
1.645
20
31.578
30
0.0
0
VERTEX
8
SLAB_00
10
1.318
20
29.537
30
0.0
0
VERTEX
8
SLAB_00
10
1.042
20
27.536
30
0.0
0
VERTEX
8
SLAB_00
10
0.810
20
25.576
30
0.0
0
VERTEX
8
SLAB_00
10
0.618
20
23.656
30
0.0
0
VERTEX
8
SLAB_00
10
0.462
20
21.776
30
0.0
0
VERTEX
8
SLAB_00
10
0.337
20
19.934
30
0.0
0
VERTEX
8
SLAB_00
10
0.239
20
18.129
30
0.0
0
VERTEX
8
SLAB_00
10
0.164
20
16.359
30
0.0
0
VERTEX
8
SLAB_00
10
0.108
20
14.622
30
0.0
0
VERTEX
8
SLAB_00
10
0.068
20
12.915
30
0.0
0
VERTEX
8
SLAB_00
10
0.040
20
11.237
30
0.0
0
VERTEX
8
SLAB_00
10
0.022
20
9.584
30
0.0
0
VERTEX
8
SLAB_00
10
0.010
20
7.952
30
0.0
0
VERTEX
8
SLAB_00
10
0.004
20
6.339
30
0.0
0
VERTEX
8
SLAB_00
10
0.001
20
4.741
30
0.0
0
VERTEX
8
SLAB_00
10
0.000
20
3.154
30
0.0
0
VERTEX
8
SLAB_00
10
0.000
20
1.575
30
0.0
0
VERTEX
8
SLAB_00
10
0.000
20
0.000
30
0.0
0
VERTEX
8
SLAB_00
10
0.000
20
-1.575
30
0.0
0
VERTEX
8
SLAB_00
10
0.000
20
-3.154
30
0.0
0
VERTEX
8
SLAB_00
10
0.001
20
-4.741
30
0.0
0
VERTEX
8
SLAB_00
10
0.004
20
-6.339
30
0.0
0
VERTEX
8
SLAB_00
10
0.010
20
-7.952
30
0.0
0
VERTEX
8
SLAB_00
10
0.022
20
-9.584
30
0.0
0
VERTEX
8
SLAB_00
10
0.040
20
-11.237
30
0.0
0
VERTEX
8
SLAB_00
10
0.068
20
-12.915
30
0.0
0
VERTEX
8
SLAB_00
10
0.108
20
-14.622
30
0.0
0
VERTEX
8
SLAB_00
10
0.164
20
-16.359
30
0.0
0
VERTEX
8
SLAB_00
10
0.239
20
-18.129
30
0.0
0
VERTEX
8
SLAB_00
10
0.337
20
-19.934
30
0.0
0
VERTEX
8
SLAB_00
10
0.462
20
-21.776
30
0.0
0
VERTEX
8
SLAB_00
10
0.618
20
-23.656
30
0.0
0
VERTEX
8
SLAB_00
10
0.810
20
-25.576
30
0.0
0
VERTEX
8
SLAB_00
10
1.042
20
-27.536
30
0.0
0
VERTEX
8
SLAB_00
10
1.318
20
-29.537
30
0.0
0
VERTEX
8
SLAB_00
10
1.645
20
-31.578
30
0.0
0
VERTEX
8
SLAB_00
10
2.027
20
-33.659
30
0.0
0
VERTEX
8
SLAB_00
10
2.469
20
-35.779
30
0.0
0
VERTEX
8
SLAB_00
10
2.976
20
-37.937
30
0.0
0
VERTEX
8
SLAB_00
10
3.553
20
-40.130
30
0.0
0
VERTEX
8
SLAB_00
10
4.206
20
-42.357
30
0.0
0
VERTEX
8
SLAB_00
10
4.938
20
-44.614
30
0.0
0
VERTEX
8
SLAB_00
10
5.756
20
-46.899
30
0.0
0
VERTEX
8
SLAB_00
10
6.663
20
-49.208
30
0.0
0
VERTEX
8
SLAB_00
10
7.665
20
-51.537
30
0.0
0
VERTEX
8
SLAB_00
10
8.765
20
-53.882
30
0.0
0
VERTEX
8
SLAB_00
10
9.968
20
-56.237
30
0.0
0
VERTEX
8
SLAB_00
10
11.277
20
-58.598
30
0.0
0
VERTEX
8
SLAB_00
10
12.696
20
-60.959
30
0.0
0
VERTEX
8
SLAB_00
10
14.229
20
-63.314
30
0.0
0
VERTEX
8
SLAB_00
10
15.877
20
-65.657
30
0.0
0
VERTEX
8
SLAB_00
10
17.643
20
-67.981
30
0.0
0
VERTEX
8
SLAB_00
10
19.529
20
-70.279
30
0.0
0
VERTEX
8
SLAB_00
10
21.538
20
-72.545
30
0.0
0
VERTEX
8
SLAB_00
10
23.669
20
-74.771
30
0.0
0
VERTEX
8
SLAB_00
10
25.923
20
-76.949
30
0.0
0
VERTEX
8
SLAB_00
10
28.302
20
-79.073
30
0.0
0
VERTEX
8
SLAB_00
10
30.803
20
-81.133
30
0.0
0
VERTEX
8
SLAB_00
10
33.427
20
-83.123
30
0.0
0
VERTEX
8
SLAB_00
10
36.171
20
-85.034
30
0.0
0
VERTEX
8
SLAB_00
10
39.035
20
-86.859
30
0.0
0
VERTEX
8
SLAB_00
10
42.015
20
-88.590
30
0.0
0
VERTEX
8
SLAB_00
10
45.109
20
-90.218
30
0.0
0
VERTEX
8
SLAB_00
10
48.312
20
-91.736
30
0.0
0
VERTEX
8
SLAB_00
10
51.622
20
-93.137
30
0.0
0
VERTEX
8
SLAB_00
10
55.032
20
-94.413
30
0.0
0
VERTEX
8
SLAB_00
10
58.539
20
-95.557
30
0.0
0
VERTEX
8
SLAB_00
10
62.135
20
-96.561
30
0.0
0
VERTEX
8
SLAB_00
10
65.816
20
-97.420
30
0.0
0
VERTEX
8
SLAB_00
10
69.575
20
-98.127
30
0.0
0
VERTEX
8
SLAB_00
10
73.404
20
-98.675
30
0.0
0
VERTEX
8
SLAB_00
10
77.295
20
-99.060
30
0.0
0
VERTEX
8
SLAB_00
10
81.242
20
-99.275
30
0.0
0
VERTEX
8
SLAB_00
10
85.235
20
-99.316
30
0.0
0
VERTEX
8
SLAB_00
10
89.266
20
-99.179
30
0.0
0
VERTEX
8
SLAB_00
10
93.326
20
-98.861
30
0.0
0
VERTEX
8
SLAB_00
10
97.406
20
-98.356
30
0.0
0
VERTEX
8
SLAB_00
10
101.495
20
-97.664
30
0.0
0
VERTEX
8
SLAB_00
10
105.584
20
-96.781
30
0.0
0
VERTEX
8
SLAB_00
10
109.664
20
-95.706
30
0.0
0
VERTEX
8
SLAB_00
10
113.723
20
-94.438
30
0.0
0
VERTEX
8
SLAB_00
10
117.751
20
-92.977
30
0.0
0
VERTEX
8
SLAB_00
10
121.738
20
-91.323
30
0.0
0
VERTEX
8
SLAB_00
10
125.673
20
-89.476
30
0.0
0
VERTEX
8
SLAB_00
10
129.547
20
-87.438
30
0.0
0
VERTEX
8
SLAB_00
10
133.348
20
-85.211
30
0.0
0
VERTEX
8
SLAB_00
10
137.066
20
-82.799
30
0.0
0
VERTEX
8
SLAB_00
10
140.691
20
-80.203
30
0.0
0
VERTEX
8
SLAB_00
10
144.213
20
-77.428
30
0.0
0
VERTEX
8
SLAB_00
10
147.621
20
-74.479
30
0.0
0
VERTEX
8
SLAB_00
10
150.907
20
-71.361
30
0.0
0
VERTEX
8
SLAB_00
10
154.060
20
-68.080
30
0.0
0
VERTEX
8
SLAB_00
10
157.072
20
-64.642
30
0.0
0
VERTEX
8
SLAB_00
10
159.933
20
-61.053
30
0.0
0
VERTEX
8
SLAB_00
10
162.637
20
-57.322
30
0.0
0
VERTEX
8
SLAB_00
10
165.174
20
-53.456
30
0.0
0
VERTEX
8
SLAB_00
10
167.536
20
-49.464
30
0.0
0
VERTEX
8
SLAB_00
10
169.718
20
-45.354
30
0.0
0
VERTEX
8
SLAB_00
10
171.713
20
-41.136
30
0.0
0
VERTEX
8
SLAB_00
10
173.514
20
-36.819
30
0.0
0
VERTEX
8
SLAB_00
10
175.116
20
-32.414
30
0.0
0
VERTEX
8
SLAB_00
10
176.514
20
-27.931
30
0.0
0
VERTEX
8
SLAB_00
10
177.705
20
-23.380
30
0.0
0
VERTEX
8
SLAB_00
10
178.684
20
-18.773
30
0.0
0
VERTEX
8
SLAB_00
10
179.449
20
-14.120
30
0.0
0
VERTEX
8
SLAB_00
10
179.997
20
-9.432
30
0.0
0
VERTEX
8
SLAB_00
10
180.326
20
-4.722
30
0.0
0
SEQEND
8
SLAB_00
0
TEXT
8
TEXT
10
0.000
20
114.316
30
0.0
40
8.0
1
53: s'=+1214 D=199
0
CIRCLE
8
DOWEL
10
15.000
20
18.000
30
0.0
40
3.250
0
TEXT
8
DOWEL
10
20.000
20
16.000
30
0.0
40
3.0
1
A
0
CIRCLE
8
DOWEL
10
15.000
20
-18.000
30
0.0
40
3.250
0
TEXT
8
DOWEL
10
20.000
20
-20.000
30
0.0
40
3.0
1
B
0
CIRCLE
8
DOWEL
10
45.000
20
18.000
30
0.0
40
3.250
0
TEXT
8
DOWEL
10
50.000
20
16.000
30
0.0
40
3.0
1
C
0
CIRCLE
8
DOWEL
10
45.000
20
-18.000
30
0.0
40
3.250
0
TEXT
8
DOWEL
10
50.000
20
-20.000
30
0.0
40
3.0
1
D
0
ENDSEC
0
EOF