0
SECTION
2
HEADER
9
$ACADVER
1
AC1009
9
$INSUNITS
70
4
0
ENDSEC
0
SECTION
2
TABLES
0
TABLE
2
LAYER
70
4
0
LAYER
2
0
70
0
62
7
6
CONTINUOUS
0
LAYER
2
TEXT
70
0
62
1
6
CONTINUOUS
0
LAYER
2
DOWEL
70
0
62
5
6
CONTINUOUS
0
LAYER
2
SLAB_00
70
0
62
2
6
CONTINUOUS
0
ENDTAB
0
ENDSEC
0
SECTION
2
ENTITIES
0
POLYLINE
8
SLAB_00
66
1
70
1
10
0.0
20
0.0
30
0.0
0
VERTEX
8
SLAB_00
10
227.879
20
0.000
30
0.0
0
VERTEX
8
SLAB_00
10
227.740
20
5.963
30
0.0
0
VERTEX
8
SLAB_00
10
227.324
20
11.912
30
0.0
0
VERTEX
8
SLAB_00
10
226.632
20
17.832
30
0.0
0
VERTEX
8
SLAB_00
10
225.666
20
23.709
30
0.0
0
VERTEX
8
SLAB_00
10
224.430
20
29.528
30
0.0
0
VERTEX
8
SLAB_00
10
222.926
20
35.275
30
0.0
0
VERTEX
8
SLAB_00
10
221.160
20
40.937
30
0.0
0
VERTEX
8
SLAB_00
10
219.136
20
46.501
30
0.0
0
VERTEX
8
SLAB_00
10
216.862
20
51.952
30
0.0
0
VERTEX
8
SLAB_00
10
214.343
20
57.279
30
0.0
0
VERTEX
8
SLAB_00
10
211.587
20
62.470
30
0.0
0
VERTEX
8
SLAB_00
10
208.603
20
67.512
30
0.0
0
VERTEX
8
SLAB_00
10
205.399
20
72.394
30
0.0
0
VERTEX
8
SLAB_00
10
201.985
20
77.106
30
0.0
0
VERTEX
8
SLAB_00
10
198.371
20
81.638
30
0.0
0
VERTEX
8
SLAB_00
10
194.567
20
85.981
30
0.0
0
VERTEX
8
SLAB_00
10
190.585
20
90.125
30
0.0
0
VERTEX
8
SLAB_00
10
186.436
20
94.063
30
0.0
0
VERTEX
8
SLAB_00
10
182.131
20
97.787
30
0.0
0
VERTEX
8
SLAB_00
10
177.683
20
101.291
30
0.0
0
VERTEX
8
SLAB_00
10
173.105
20
104.569
30
0.0
0
VERTEX
8
SLAB_00
10
168.410
20
107.616
30
0.0
0
VERTEX
8
SLAB_00
10
163.609
20
110.429
30
0.0
0
VERTEX
8
SLAB_00
10
158.717
20
113.002
30
0.0
0
VERTEX
8
SLAB_00
10
153.747
20
115.335
30
0.0
0
VERTEX
8
SLAB_00
10
148.711
20
117.424
30
0.0
0
VERTEX
8
SLAB_00
10
143.624
20
119.270
30
0.0
0
VERTEX
8
SLAB_00
10
138.498
20
120.871
30
0.0
0
VERTEX
8
SLAB_00
10
133.346
20
122.228
30
0.0
0
VERTEX
8
SLAB_00
10
128.182
20
123.343
30
0.0
0
VERTEX
8
SLAB_00
10
123.017
20
124.217
30
0.0
0
VERTEX
8
SLAB_00
10
117.865
20
124.854
30
0.0
0
VERTEX
8
SLAB_00
10
112.738
20
125.257
30
0.0
0
VERTEX
8
SLAB_00
10
107.647
20
125.430
30
0.0
0
VERTEX
8
SLAB_00
10
102.603
20
125.378
30
0.0
0
VERTEX
8
SLAB_00
10
97.619
20
125.106
30
0.0
0
VERTEX
8
SLAB_00
10
92.704
20
124.620
30
0.0
0
VERTEX
8
SLAB_00
10
87.868
20
123.928
30
0.0
0
VERTEX
8
SLAB_00
10
83.122
20
123.035
30
0.0
0
VERTEX
8
SLAB_00
10
78.473
20
121.951
30
0.0
0
VERTEX
8
SLAB_00
10
73.930
20
120.682
30
0.0
0
VERTEX
8
SLAB_00
10
69.502
20
119.237
30
0.0
0
VERTEX
8
SLAB_00
10
65.195
20
117.626
30
0.0
0
VERTEX
8
SLAB_00
10
61.015
20
115.857
30
0.0
0
VERTEX
8
SLAB_00
10
56.970
20
113.939
30
0.0
0
VERTEX
8
SLAB_00
10
53.063
20
111.883
30
0.0
0
VERTEX
8
SLAB_00
10
49.299
20
109.697
30
0.0
0
VERTEX
8
SLAB_00
10
45.682
20
107.393
30
0.0
0
VERTEX
8
SLAB_00
10
42.216
20
104.979
30
0.0
0
VERTEX
8
SLAB_00
10
38.902
20
102.466
30
0.0
0
VERTEX
8
SLAB_00
10
35.743
20
99.864
30
0.0
0
VERTEX
8
SLAB_00
10
32.739
20
97.182
30
0.0
0
VERTEX
8
SLAB_00
10
29.892
20
94.431
30
0.0
0
VERTEX
8
SLAB_00
10
27.201
20
91.620
30
0.0
0
VERTEX
8
SLAB_00
10
24.664
20
88.758
30
0.0
0
VERTEX
8
SLAB_00
10
22.282
20
85.855
30
0.0
0
VERTEX
8
SLAB_00
10
20.051
20
82.920
30
0.0
0
VERTEX
8
SLAB_00
10
17.970
20
79.962
30
0.0
0
VERTEX
8
SLAB_00
10
16.035
20
76.987
30
0.0
0
VERTEX
8
SLAB_00
10
14.242
20
74.006
30
0.0
0
VERTEX
8
SLAB_00
10
12.589
20
71.024
30
0.0
0
VERTEX
8
SLAB_00
10
11.070
20
68.049
30
0.0
0
VERTEX
8
SLAB_00
10
9.680
20
65.088
30
0.0
0
VERTEX
8
SLAB_00
10
8.415
20
62.147
30
0.0
0
VERTEX
8
SLAB_00
10
7.269
20
59.230
30
0.0
0
VERTEX
8
SLAB_00
10
6.237
20
56.345
30
0.0
0
VERTEX
8
SLAB_00
10
5.311
20
53.494
30
0.0
0
VERTEX
8
SLAB_00
10
4.488
20
50.681
30
0.0
0
VERTEX
8
SLAB_00
10
3.759
20
47.911
30
0.0
0
VERTEX
8
SLAB_00
10
3.118
20
45.187
30
0.0
0
VERTEX
8
SLAB_00
10
2.560
20
42.509
30
0.0
0
VERTEX
8
SLAB_00
10
2.078
20
39.881
30
0.0
0
VERTEX
8
SLAB_00
10
1.665
20
37.303
30
0.0
0
VERTEX
8
SLAB_00
10
1.315
20
34.777
30
0.0
0
VERTEX
8
SLAB_00
10
1.023
20
32.301
30
0.0
0
VERTEX
8
SLAB_00
10
0.781
20
29.876
30
0.0
0
VERTEX
8
SLAB_00
10
0.584
20
27.501
30
0.0
0
VERTEX
8
SLAB_00
10
0.426
20
25.175
30
0.0
0
VERTEX
8
SLAB_00
10
0.302
20
22.895
30
0.0
0
VERTEX
8
SLAB_00
10
0.207
20
20.660
30
0.0
0
VERTEX
8
SLAB_00
10
0.136
20
18.466
30
0.0
0
VERTEX
8
SLAB_00
10
0.085
20
16.311
30
0.0
0
VERTEX
8
SLAB_00
10
0.050
20
14.192
30
0.0
0
VERTEX
8
SLAB_00
10
0.027
20
12.103
30
0.0
0
VERTEX
8
SLAB_00
10
0.013
20
10.043
30
0.0
0
VERTEX
8
SLAB_00
10
0.005
20
8.006
30
0.0
0
VERTEX
8
SLAB_00
10
0.002
20
5.988
30
0.0
0
VERTEX
8
SLAB_00
10
0.000
20
3.984
30
0.0
0
VERTEX
8
SLAB_00
10
0.000
20
1.989
30
0.0
0
VERTEX
8
SLAB_00
10
0.000
20
0.000
30
0.0
0
VERTEX
8
SLAB_00
10
0.000
20
-1.989
30
0.0
0
VERTEX
8
SLAB_00
10
0.000
20
-3.984
30
0.0
0
VERTEX
8
SLAB_00
10
0.002
20
-5.988
30
0.0
0
VERTEX
8
SLAB_00
10
0.005
20
-8.006
30
0.0
0
VERTEX
8
SLAB_00
10
0.013
20
-10.043
30
0.0
0
VERTEX
8
SLAB_00
10
0.027
20
-12.103
30
0.0
0
VERTEX
8
SLAB_00
10
0.050
20
-14.192
30
0.0
0
VERTEX
8
SLAB_00
10
0.085
20
-16.311
30
0.0
0
VERTEX
8
SLAB_00
10
0.136
20
-18.466
30
0.0
0
VERTEX
8
SLAB_00
10
0.207
20
-20.660
30
0.0
0
VERTEX
8
SLAB_00
10
0.302
20
-22.895
30
0.0
0
VERTEX
8
SLAB_00
10
0.426
20
-25.175
30
0.0
0
VERTEX
8
SLAB_00
10
0.584
20
-27.501
30
0.0
0
VERTEX
8
SLAB_00
10
0.781
20
-29.876
30
0.0
0
VERTEX
8
SLAB_00
10
1.023
20
-32.301
30
0.0
0
VERTEX
8
SLAB_00
10
1.315
20
-34.777
30
0.0
0
VERTEX
8
SLAB_00
10
1.665
20
-37.303
30
0.0
0
VERTEX
8
SLAB_00
10
2.078
20
-39.881
30
0.0
0
VERTEX
8
SLAB_00
10
2.560
20
-42.509
30
0.0
0
VERTEX
8
SLAB_00
10
3.118
20
-45.187
30
0.0
0
VERTEX
8
SLAB_00
10
3.759
20
-47.911
30
0.0
0
VERTEX
8
SLAB_00
10
4.488
20
-50.681
30
0.0
0
VERTEX
8
SLAB_00
10
5.311
20
-53.494
30
0.0
0
VERTEX
8
SLAB_00
10
6.237
20
-56.345
30
0.0
0
VERTEX
8
SLAB_00
10
7.269
20
-59.230
30
0.0
0
VERTEX
8
SLAB_00
10
8.415
20
-62.147
30
0.0
0
VERTEX
8
SLAB_00
10
9.680
20
-65.088
30
0.0
0
VERTEX
8
SLAB_00
10
11.070
20
-68.049
30
0.0
0
VERTEX
8
SLAB_00
10
12.589
20
-71.024
30
0.0
0
VERTEX
8
SLAB_00
10
14.242
20
-74.006
30
0.0
0
VERTEX
8
SLAB_00
10
16.035
20
-76.987
30
0.0
0
VERTEX
8
SLAB_00
10
17.970
20
-79.962
30
0.0
0
VERTEX
8
SLAB_00
10
20.051
20
-82.920
30
0.0
0
VERTEX
8
SLAB_00
10
22.282
20
-85.855
30
0.0
0
VERTEX
8
SLAB_00
10
24.664
20
-88.758
30
0.0
0
VERTEX
8
SLAB_00
10
27.201
20
-91.620
30
0.0
0
VERTEX
8
SLAB_00
10
29.892
20
-94.431
30
0.0
0
VERTEX
8
SLAB_00
10
32.739
20
-97.182
30
0.0
0
VERTEX
8
SLAB_00
10
35.743
20
-99.864
30
0.0
0
VERTEX
8
SLAB_00
10
38.902
20
-102.466
30
0.0
0
VERTEX
8
SLAB_00
10
42.216
20
-104.979
30
0.0
0
VERTEX
8
SLAB_00
10
45.682
20
-107.393
30
0.0
0
VERTEX
8
SLAB_00
10
49.299
20
-109.697
30
0.0
0
VERTEX
8
SLAB_00
10
53.063
20
-111.883
30
0.0
0
VERTEX
8
SLAB_00
10
56.970
20
-113.939
30
0.0
0
VERTEX
8
SLAB_00
10
61.015
20
-115.857
30
0.0
0
VERTEX
8
SLAB_00
10
65.195
20
-117.626
30
0.0
0
VERTEX
8
SLAB_00
10
69.502
20
-119.237
30
0.0
0
VERTEX
8
SLAB_00
10
73.930
20
-120.682
30
0.0
0
VERTEX
8
SLAB_00
10
78.473
20
-121.951
30
0.0
0
VERTEX
8
SLAB_00
10
83.122
20
-123.035
30
0.0
0
VERTEX
8
SLAB_00
10
87.868
20
-123.928
30
0.0
0
VERTEX
8
SLAB_00
10
92.704
20
-124.620
30
0.0
0
VERTEX
8
SLAB_00
10
97.619
20
-125.106
30
0.0
0
VERTEX
8
SLAB_00
10
102.603
20
-125.378
30
0.0
0
VERTEX
8
SLAB_00
10
107.647
20
-125.430
30
0.0
0
VERTEX
8
SLAB_00
10
112.738
20
-125.257
30
0.0
0
VERTEX
8
SLAB_00
10
117.865
20
-124.854
30
0.0
0
VERTEX
8
SLAB_00
10
123.017
20
-124.217
30
0.0
0
VERTEX
8
SLAB_00
10
128.182
20
-123.343
30
0.0
0
VERTEX
8
SLAB_00
10
133.346
20
-122.228
30
0.0
0
VERTEX
8
SLAB_00
10
138.498
20
-120.871
30
0.0
0
VERTEX
8
SLAB_00
10
143.624
20
-119.270
30
0.0
0
VERTEX
8
SLAB_00
10
148.711
20
-117.424
30
0.0
0
VERTEX
8
SLAB_00
10
153.747
20
-115.335
30
0.0
0
VERTEX
8
SLAB_00
10
158.717
20
-113.002
30
0.0
0
VERTEX
8
SLAB_00
10
163.609
20
-110.429
30
0.0
0
VERTEX
8
SLAB_00
10
168.410
20
-107.616
30
0.0
0
VERTEX
8
SLAB_00
10
173.105
20
-104.569
30
0.0
0
VERTEX
8
SLAB_00
10
177.683
20
-101.291
30
0.0
0
VERTEX
8
SLAB_00
10
182.131
20
-97.787
30
0.0
0
VERTEX
8
SLAB_00
10
186.436
20
-94.063
30
0.0
0
VERTEX
8
SLAB_00
10
190.585
20
-90.125
30
0.0
0
VERTEX
8
SLAB_00
10
194.567
20
-85.981
30
0.0
0
VERTEX
8
SLAB_00
10
198.371
20
-81.638
30
0.0
0
VERTEX
8
SLAB_00
10
201.985
20
-77.106
30
0.0
0
VERTEX
8
SLAB_00
10
205.399
20
-72.394
30
0.0
0
VERTEX
8
SLAB_00
10
208.603
20
-67.512
30
0.0
0
VERTEX
8
SLAB_00
10
211.587
20
-62.470
30
0.0
0
VERTEX
8
SLAB_00
10
214.343
20
-57.279
30
0.0
0
VERTEX
8
SLAB_00
10
216.862
20
-51.952
30
0.0
0
VERTEX
8
SLAB_00
10
219.136
20
-46.501
30
0.0
0
VERTEX
8
SLAB_00
10
221.160
20
-40.937
30
0.0
0
VERTEX
8
SLAB_00
10
222.926
20
-35.275
30
0.0
0
VERTEX
8
SLAB_00
10
224.430
20
-29.528
30
0.0
0
VERTEX
8
SLAB_00
10
225.666
20
-23.709
30
0.0
0
VERTEX
8
SLAB_00
10
226.632
20
-17.832
30
0.0
0
VERTEX
8
SLAB_00
10
227.324
20
-11.912
30
0.0
0
VERTEX
8
SLAB_00
10
227.740
20
-5.963
30
0.0
0
SEQEND
8
SLAB_00
0
TEXT
8
TEXT
10
0.000
20
140.430
30
0.0
40
8.0
1
06: s'=+46 D=251
0
CIRCLE
8
DOWEL
10
15.000
20
18.000
30
0.0
40
3.250
0
TEXT
8
DOWEL
10
20.000
20
16.000
30
0.0
40
3.0
1
A
0
CIRCLE
8
DOWEL
10
15.000
20
-18.000
30
0.0
40
3.250
0
TEXT
8
DOWEL
10
20.000
20
-20.000
30
0.0
40
3.0
1
B
0
CIRCLE
8
DOWEL
10
45.000
20
18.000
30
0.0
40
3.250
0
TEXT
8
DOWEL
10
50.000
20
16.000
30
0.0
40
3.0
1
C
0
CIRCLE
8
DOWEL
10
45.000
20
-18.000
30
0.0
40
3.250
0
TEXT
8
DOWEL
10
50.000
20
-20.000
30
0.0
40
3.0
1
D
0
ENDSEC
0
EOF