0
SECTION
2
HEADER
9
$ACADVER
1
AC1009
9
$INSUNITS
70
4
0
ENDSEC
0
SECTION
2
TABLES
0
TABLE
2
LAYER
70
4
0
LAYER
2
0
70
0
62
7
6
CONTINUOUS
0
LAYER
2
TEXT
70
0
62
1
6
CONTINUOUS
0
LAYER
2
DOWEL
70
0
62
5
6
CONTINUOUS
0
LAYER
2
SLAB_00
70
0
62
2
6
CONTINUOUS
0
ENDTAB
0
ENDSEC
0
SECTION
2
ENTITIES
0
POLYLINE
8
SLAB_00
66
1
70
1
10
0.0
20
0.0
30
0.0
0
VERTEX
8
SLAB_00
10
281.347
20
0.000
30
0.0
0
VERTEX
8
SLAB_00
10
281.176
20
7.363
30
0.0
0
VERTEX
8
SLAB_00
10
280.662
20
14.707
30
0.0
0
VERTEX
8
SLAB_00
10
279.808
20
22.016
30
0.0
0
VERTEX
8
SLAB_00
10
278.616
20
29.272
30
0.0
0
VERTEX
8
SLAB_00
10
277.089
20
36.456
30
0.0
0
VERTEX
8
SLAB_00
10
275.233
20
43.552
30
0.0
0
VERTEX
8
SLAB_00
10
273.052
20
50.543
30
0.0
0
VERTEX
8
SLAB_00
10
270.554
20
57.411
30
0.0
0
VERTEX
8
SLAB_00
10
267.746
20
64.142
30
0.0
0
VERTEX
8
SLAB_00
10
264.636
20
70.719
30
0.0
0
VERTEX
8
SLAB_00
10
261.234
20
77.127
30
0.0
0
VERTEX
8
SLAB_00
10
257.549
20
83.352
30
0.0
0
VERTEX
8
SLAB_00
10
253.594
20
89.380
30
0.0
0
VERTEX
8
SLAB_00
10
249.379
20
95.198
30
0.0
0
VERTEX
8
SLAB_00
10
244.917
20
100.794
30
0.0
0
VERTEX
8
SLAB_00
10
240.220
20
106.155
30
0.0
0
VERTEX
8
SLAB_00
10
235.303
20
111.271
30
0.0
0
VERTEX
8
SLAB_00
10
230.180
20
116.133
30
0.0
0
VERTEX
8
SLAB_00
10
224.866
20
120.731
30
0.0
0
VERTEX
8
SLAB_00
10
219.375
20
125.057
30
0.0
0
VERTEX
8
SLAB_00
10
213.722
20
129.105
30
0.0
0
VERTEX
8
SLAB_00
10
207.925
20
132.867
30
0.0
0
VERTEX
8
SLAB_00
10
201.998
20
136.339
30
0.0
0
VERTEX
8
SLAB_00
10
195.958
20
139.517
30
0.0
0
VERTEX
8
SLAB_00
10
189.822
20
142.396
30
0.0
0
VERTEX
8
SLAB_00
10
183.605
20
144.976
30
0.0
0
VERTEX
8
SLAB_00
10
177.324
20
147.255
30
0.0
0
VERTEX
8
SLAB_00
10
170.995
20
149.231
30
0.0
0
VERTEX
8
SLAB_00
10
164.634
20
150.907
30
0.0
0
VERTEX
8
SLAB_00
10
158.258
20
152.284
30
0.0
0
VERTEX
8
SLAB_00
10
151.882
20
153.363
30
0.0
0
VERTEX
8
SLAB_00
10
145.521
20
154.150
30
0.0
0
VERTEX
8
SLAB_00
10
139.190
20
154.647
30
0.0
0
VERTEX
8
SLAB_00
10
132.905
20
154.860
30
0.0
0
VERTEX
8
SLAB_00
10
126.678
20
154.796
30
0.0
0
VERTEX
8
SLAB_00
10
120.524
20
154.460
30
0.0
0
VERTEX
8
SLAB_00
10
114.456
20
153.861
30
0.0
0
VERTEX
8
SLAB_00
10
108.485
20
153.006
30
0.0
0
VERTEX
8
SLAB_00
10
102.625
20
151.904
30
0.0
0
VERTEX
8
SLAB_00
10
96.886
20
150.565
30
0.0
0
VERTEX
8
SLAB_00
10
91.277
20
148.998
30
0.0
0
VERTEX
8
SLAB_00
10
85.810
20
147.215
30
0.0
0
VERTEX
8
SLAB_00
10
80.492
20
145.226
30
0.0
0
VERTEX
8
SLAB_00
10
75.332
20
143.041
30
0.0
0
VERTEX
8
SLAB_00
10
70.337
20
140.674
30
0.0
0
VERTEX
8
SLAB_00
10
65.513
20
138.135
30
0.0
0
VERTEX
8
SLAB_00
10
60.866
20
135.437
30
0.0
0
VERTEX
8
SLAB_00
10
56.401
20
132.591
30
0.0
0
VERTEX
8
SLAB_00
10
52.121
20
129.611
30
0.0
0
VERTEX
8
SLAB_00
10
48.030
20
126.508
30
0.0
0
VERTEX
8
SLAB_00
10
44.130
20
123.295
30
0.0
0
VERTEX
8
SLAB_00
10
40.421
20
119.985
30
0.0
0
VERTEX
8
SLAB_00
10
36.906
20
116.588
30
0.0
0
VERTEX
8
SLAB_00
10
33.583
20
113.117
30
0.0
0
VERTEX
8
SLAB_00
10
30.451
20
109.584
30
0.0
0
VERTEX
8
SLAB_00
10
27.510
20
106.000
30
0.0
0
VERTEX
8
SLAB_00
10
24.756
20
102.377
30
0.0
0
VERTEX
8
SLAB_00
10
22.186
20
98.724
30
0.0
0
VERTEX
8
SLAB_00
10
19.797
20
95.052
30
0.0
0
VERTEX
8
SLAB_00
10
17.584
20
91.370
30
0.0
0
VERTEX
8
SLAB_00
10
15.543
20
87.689
30
0.0
0
VERTEX
8
SLAB_00
10
13.667
20
84.016
30
0.0
0
VERTEX
8
SLAB_00
10
11.952
20
80.360
30
0.0
0
VERTEX
8
SLAB_00
10
10.390
20
76.729
30
0.0
0
VERTEX
8
SLAB_00
10
8.975
20
73.128
30
0.0
0
VERTEX
8
SLAB_00
10
7.700
20
69.565
30
0.0
0
VERTEX
8
SLAB_00
10
6.558
20
66.045
30
0.0
0
VERTEX
8
SLAB_00
10
5.540
20
62.573
30
0.0
0
VERTEX
8
SLAB_00
10
4.640
20
59.153
30
0.0
0
VERTEX
8
SLAB_00
10
3.850
20
55.789
30
0.0
0
VERTEX
8
SLAB_00
10
3.161
20
52.484
30
0.0
0
VERTEX
8
SLAB_00
10
2.566
20
49.239
30
0.0
0
VERTEX
8
SLAB_00
10
2.056
20
46.056
30
0.0
0
VERTEX
8
SLAB_00
10
1.624
20
42.937
30
0.0
0
VERTEX
8
SLAB_00
10
1.262
20
39.880
30
0.0
0
VERTEX
8
SLAB_00
10
0.964
20
36.886
30
0.0
0
VERTEX
8
SLAB_00
10
0.720
20
33.954
30
0.0
0
VERTEX
8
SLAB_00
10
0.526
20
31.082
30
0.0
0
VERTEX
8
SLAB_00
10
0.373
20
28.267
30
0.0
0
VERTEX
8
SLAB_00
10
0.256
20
25.507
30
0.0
0
VERTEX
8
SLAB_00
10
0.168
20
22.799
30
0.0
0
VERTEX
8
SLAB_00
10
0.106
20
20.139
30
0.0
0
VERTEX
8
SLAB_00
10
0.062
20
17.521
30
0.0
0
VERTEX
8
SLAB_00
10
0.034
20
14.943
30
0.0
0
VERTEX
8
SLAB_00
10
0.016
20
12.399
30
0.0
0
VERTEX
8
SLAB_00
10
0.007
20
9.884
30
0.0
0
VERTEX
8
SLAB_00
10
0.002
20
7.392
30
0.0
0
VERTEX
8
SLAB_00
10
0.000
20
4.918
30
0.0
0
VERTEX
8
SLAB_00
10
0.000
20
2.456
30
0.0
0
VERTEX
8
SLAB_00
10
0.000
20
0.000
30
0.0
0
VERTEX
8
SLAB_00
10
0.000
20
-2.456
30
0.0
0
VERTEX
8
SLAB_00
10
0.000
20
-4.918
30
0.0
0
VERTEX
8
SLAB_00
10
0.002
20
-7.392
30
0.0
0
VERTEX
8
SLAB_00
10
0.007
20
-9.884
30
0.0
0
VERTEX
8
SLAB_00
10
0.016
20
-12.399
30
0.0
0
VERTEX
8
SLAB_00
10
0.034
20
-14.943
30
0.0
0
VERTEX
8
SLAB_00
10
0.062
20
-17.521
30
0.0
0
VERTEX
8
SLAB_00
10
0.106
20
-20.139
30
0.0
0
VERTEX
8
SLAB_00
10
0.168
20
-22.799
30
0.0
0
VERTEX
8
SLAB_00
10
0.256
20
-25.507
30
0.0
0
VERTEX
8
SLAB_00
10
0.373
20
-28.267
30
0.0
0
VERTEX
8
SLAB_00
10
0.526
20
-31.082
30
0.0
0
VERTEX
8
SLAB_00
10
0.720
20
-33.954
30
0.0
0
VERTEX
8
SLAB_00
10
0.964
20
-36.886
30
0.0
0
VERTEX
8
SLAB_00
10
1.262
20
-39.880
30
0.0
0
VERTEX
8
SLAB_00
10
1.624
20
-42.937
30
0.0
0
VERTEX
8
SLAB_00
10
2.056
20
-46.056
30
0.0
0
VERTEX
8
SLAB_00
10
2.566
20
-49.239
30
0.0
0
VERTEX
8
SLAB_00
10
3.161
20
-52.484
30
0.0
0
VERTEX
8
SLAB_00
10
3.850
20
-55.789
30
0.0
0
VERTEX
8
SLAB_00
10
4.640
20
-59.153
30
0.0
0
VERTEX
8
SLAB_00
10
5.540
20
-62.573
30
0.0
0
VERTEX
8
SLAB_00
10
6.558
20
-66.045
30
0.0
0
VERTEX
8
SLAB_00
10
7.700
20
-69.565
30
0.0
0
VERTEX
8
SLAB_00
10
8.975
20
-73.128
30
0.0
0
VERTEX
8
SLAB_00
10
10.390
20
-76.729
30
0.0
0
VERTEX
8
SLAB_00
10
11.952
20
-80.360
30
0.0
0
VERTEX
8
SLAB_00
10
13.667
20
-84.016
30
0.0
0
VERTEX
8
SLAB_00
10
15.543
20
-87.689
30
0.0
0
VERTEX
8
SLAB_00
10
17.584
20
-91.370
30
0.0
0
VERTEX
8
SLAB_00
10
19.797
20
-95.052
30
0.0
0
VERTEX
8
SLAB_00
10
22.186
20
-98.724
30
0.0
0
VERTEX
8
SLAB_00
10
24.756
20
-102.377
30
0.0
0
VERTEX
8
SLAB_00
10
27.510
20
-106.000
30
0.0
0
VERTEX
8
SLAB_00
10
30.451
20
-109.584
30
0.0
0
VERTEX
8
SLAB_00
10
33.583
20
-113.117
30
0.0
0
VERTEX
8
SLAB_00
10
36.906
20
-116.588
30
0.0
0
VERTEX
8
SLAB_00
10
40.421
20
-119.985
30
0.0
0
VERTEX
8
SLAB_00
10
44.130
20
-123.295
30
0.0
0
VERTEX
8
SLAB_00
10
48.030
20
-126.508
30
0.0
0
VERTEX
8
SLAB_00
10
52.121
20
-129.611
30
0.0
0
VERTEX
8
SLAB_00
10
56.401
20
-132.591
30
0.0
0
VERTEX
8
SLAB_00
10
60.866
20
-135.437
30
0.0
0
VERTEX
8
SLAB_00
10
65.513
20
-138.135
30
0.0
0
VERTEX
8
SLAB_00
10
70.337
20
-140.674
30
0.0
0
VERTEX
8
SLAB_00
10
75.332
20
-143.041
30
0.0
0
VERTEX
8
SLAB_00
10
80.492
20
-145.226
30
0.0
0
VERTEX
8
SLAB_00
10
85.810
20
-147.215
30
0.0
0
VERTEX
8
SLAB_00
10
91.277
20
-148.998
30
0.0
0
VERTEX
8
SLAB_00
10
96.886
20
-150.565
30
0.0
0
VERTEX
8
SLAB_00
10
102.625
20
-151.904
30
0.0
0
VERTEX
8
SLAB_00
10
108.485
20
-153.006
30
0.0
0
VERTEX
8
SLAB_00
10
114.456
20
-153.861
30
0.0
0
VERTEX
8
SLAB_00
10
120.524
20
-154.460
30
0.0
0
VERTEX
8
SLAB_00
10
126.678
20
-154.796
30
0.0
0
VERTEX
8
SLAB_00
10
132.905
20
-154.860
30
0.0
0
VERTEX
8
SLAB_00
10
139.190
20
-154.647
30
0.0
0
VERTEX
8
SLAB_00
10
145.521
20
-154.150
30
0.0
0
VERTEX
8
SLAB_00
10
151.882
20
-153.363
30
0.0
0
VERTEX
8
SLAB_00
10
158.258
20
-152.284
30
0.0
0
VERTEX
8
SLAB_00
10
164.634
20
-150.907
30
0.0
0
VERTEX
8
SLAB_00
10
170.995
20
-149.231
30
0.0
0
VERTEX
8
SLAB_00
10
177.324
20
-147.255
30
0.0
0
VERTEX
8
SLAB_00
10
183.605
20
-144.976
30
0.0
0
VERTEX
8
SLAB_00
10
189.822
20
-142.396
30
0.0
0
VERTEX
8
SLAB_00
10
195.958
20
-139.517
30
0.0
0
VERTEX
8
SLAB_00
10
201.998
20
-136.339
30
0.0
0
VERTEX
8
SLAB_00
10
207.925
20
-132.867
30
0.0
0
VERTEX
8
SLAB_00
10
213.722
20
-129.105
30
0.0
0
VERTEX
8
SLAB_00
10
219.375
20
-125.057
30
0.0
0
VERTEX
8
SLAB_00
10
224.866
20
-120.731
30
0.0
0
VERTEX
8
SLAB_00
10
230.180
20
-116.133
30
0.0
0
VERTEX
8
SLAB_00
10
235.303
20
-111.271
30
0.0
0
VERTEX
8
SLAB_00
10
240.220
20
-106.155
30
0.0
0
VERTEX
8
SLAB_00
10
244.917
20
-100.794
30
0.0
0
VERTEX
8
SLAB_00
10
249.379
20
-95.198
30
0.0
0
VERTEX
8
SLAB_00
10
253.594
20
-89.380
30
0.0
0
VERTEX
8
SLAB_00
10
257.549
20
-83.352
30
0.0
0
VERTEX
8
SLAB_00
10
261.234
20
-77.127
30
0.0
0
VERTEX
8
SLAB_00
10
264.636
20
-70.719
30
0.0
0
VERTEX
8
SLAB_00
10
267.746
20
-64.142
30
0.0
0
VERTEX
8
SLAB_00
10
270.554
20
-57.411
30
0.0
0
VERTEX
8
SLAB_00
10
273.052
20
-50.543
30
0.0
0
VERTEX
8
SLAB_00
10
275.233
20
-43.552
30
0.0
0
VERTEX
8
SLAB_00
10
277.089
20
-36.456
30
0.0
0
VERTEX
8
SLAB_00
10
278.616
20
-29.272
30
0.0
0
VERTEX
8
SLAB_00
10
279.808
20
-22.016
30
0.0
0
VERTEX
8
SLAB_00
10
280.662
20
-14.707
30
0.0
0
VERTEX
8
SLAB_00
10
281.176
20
-7.363
30
0.0
0
SEQEND
8
SLAB_00
0
TEXT
8
TEXT
10
0.000
20
169.860
30
0.0
40
8.0
1
40: s'=+884 D=310
0
CIRCLE
8
DOWEL
10
15.000
20
18.000
30
0.0
40
3.250
0
TEXT
8
DOWEL
10
20.000
20
16.000
30
0.0
40
3.0
1
A
0
CIRCLE
8
DOWEL
10
15.000
20
-18.000
30
0.0
40
3.250
0
TEXT
8
DOWEL
10
20.000
20
-20.000
30
0.0
40
3.0
1
B
0
CIRCLE
8
DOWEL
10
45.000
20
18.000
30
0.0
40
3.250
0
TEXT
8
DOWEL
10
50.000
20
16.000
30
0.0
40
3.0
1
C
0
CIRCLE
8
DOWEL
10
45.000
20
-18.000
30
0.0
40
3.250
0
TEXT
8
DOWEL
10
50.000
20
-20.000
30
0.0
40
3.0
1
D
0
ENDSEC
0
EOF