0
SECTION
2
HEADER
9
$ACADVER
1
AC1009
9
$INSUNITS
70
4
0
ENDSEC
0
SECTION
2
TABLES
0
TABLE
2
LAYER
70
4
0
LAYER
2
0
70
0
62
7
6
CONTINUOUS
0
LAYER
2
TEXT
70
0
62
1
6
CONTINUOUS
0
LAYER
2
DOWEL
70
0
62
5
6
CONTINUOUS
0
LAYER
2
SLAB_00
70
0
62
2
6
CONTINUOUS
0
ENDTAB
0
ENDSEC
0
SECTION
2
ENTITIES
0
POLYLINE
8
SLAB_00
66
1
70
1
10
0.0
20
0.0
30
0.0
0
VERTEX
8
SLAB_00
10
218.444
20
0.000
30
0.0
0
VERTEX
8
SLAB_00
10
218.311
20
5.717
30
0.0
0
VERTEX
8
SLAB_00
10
217.912
20
11.419
30
0.0
0
VERTEX
8
SLAB_00
10
217.249
20
17.094
30
0.0
0
VERTEX
8
SLAB_00
10
216.323
20
22.727
30
0.0
0
VERTEX
8
SLAB_00
10
215.138
20
28.305
30
0.0
0
VERTEX
8
SLAB_00
10
213.696
20
33.815
30
0.0
0
VERTEX
8
SLAB_00
10
212.003
20
39.242
30
0.0
0
VERTEX
8
SLAB_00
10
210.064
20
44.575
30
0.0
0
VERTEX
8
SLAB_00
10
207.883
20
49.801
30
0.0
0
VERTEX
8
SLAB_00
10
205.469
20
54.908
30
0.0
0
VERTEX
8
SLAB_00
10
202.827
20
59.883
30
0.0
0
VERTEX
8
SLAB_00
10
199.966
20
64.716
30
0.0
0
VERTEX
8
SLAB_00
10
196.895
20
69.397
30
0.0
0
VERTEX
8
SLAB_00
10
193.623
20
73.914
30
0.0
0
VERTEX
8
SLAB_00
10
190.158
20
78.258
30
0.0
0
VERTEX
8
SLAB_00
10
186.512
20
82.421
30
0.0
0
VERTEX
8
SLAB_00
10
182.694
20
86.393
30
0.0
0
VERTEX
8
SLAB_00
10
178.717
20
90.168
30
0.0
0
VERTEX
8
SLAB_00
10
174.590
20
93.738
30
0.0
0
VERTEX
8
SLAB_00
10
170.327
20
97.097
30
0.0
0
VERTEX
8
SLAB_00
10
165.938
20
100.240
30
0.0
0
VERTEX
8
SLAB_00
10
161.437
20
103.161
30
0.0
0
VERTEX
8
SLAB_00
10
156.835
20
105.856
30
0.0
0
VERTEX
8
SLAB_00
10
152.146
20
108.324
30
0.0
0
VERTEX
8
SLAB_00
10
147.381
20
110.559
30
0.0
0
VERTEX
8
SLAB_00
10
142.554
20
112.562
30
0.0
0
VERTEX
8
SLAB_00
10
137.678
20
114.331
30
0.0
0
VERTEX
8
SLAB_00
10
132.764
20
115.866
30
0.0
0
VERTEX
8
SLAB_00
10
127.825
20
117.167
30
0.0
0
VERTEX
8
SLAB_00
10
122.875
20
118.236
30
0.0
0
VERTEX
8
SLAB_00
10
117.924
20
119.074
30
0.0
0
VERTEX
8
SLAB_00
10
112.985
20
119.685
30
0.0
0
VERTEX
8
SLAB_00
10
108.070
20
120.071
30
0.0
0
VERTEX
8
SLAB_00
10
103.190
20
120.237
30
0.0
0
VERTEX
8
SLAB_00
10
98.355
20
120.187
30
0.0
0
VERTEX
8
SLAB_00
10
93.577
20
119.926
30
0.0
0
VERTEX
8
SLAB_00
10
88.866
20
119.461
30
0.0
0
VERTEX
8
SLAB_00
10
84.230
20
118.797
30
0.0
0
VERTEX
8
SLAB_00
10
79.680
20
117.941
30
0.0
0
VERTEX
8
SLAB_00
10
75.224
20
116.902
30
0.0
0
VERTEX
8
SLAB_00
10
70.869
20
115.685
30
0.0
0
VERTEX
8
SLAB_00
10
66.624
20
114.301
30
0.0
0
VERTEX
8
SLAB_00
10
62.496
20
112.756
30
0.0
0
VERTEX
8
SLAB_00
10
58.489
20
111.060
30
0.0
0
VERTEX
8
SLAB_00
10
54.611
20
109.222
30
0.0
0
VERTEX
8
SLAB_00
10
50.866
20
107.251
30
0.0
0
VERTEX
8
SLAB_00
10
47.258
20
105.156
30
0.0
0
VERTEX
8
SLAB_00
10
43.791
20
102.946
30
0.0
0
VERTEX
8
SLAB_00
10
40.468
20
100.633
30
0.0
0
VERTEX
8
SLAB_00
10
37.291
20
98.224
30
0.0
0
VERTEX
8
SLAB_00
10
34.263
20
95.729
30
0.0
0
VERTEX
8
SLAB_00
10
31.384
20
93.158
30
0.0
0
VERTEX
8
SLAB_00
10
28.654
20
90.521
30
0.0
0
VERTEX
8
SLAB_00
10
26.074
20
87.826
30
0.0
0
VERTEX
8
SLAB_00
10
23.643
20
85.083
30
0.0
0
VERTEX
8
SLAB_00
10
21.359
20
82.301
30
0.0
0
VERTEX
8
SLAB_00
10
19.221
20
79.487
30
0.0
0
VERTEX
8
SLAB_00
10
17.226
20
76.651
30
0.0
0
VERTEX
8
SLAB_00
10
15.371
20
73.800
30
0.0
0
VERTEX
8
SLAB_00
10
13.653
20
70.942
30
0.0
0
VERTEX
8
SLAB_00
10
12.068
20
68.083
30
0.0
0
VERTEX
8
SLAB_00
10
10.612
20
65.232
30
0.0
0
VERTEX
8
SLAB_00
10
9.280
20
62.393
30
0.0
0
VERTEX
8
SLAB_00
10
8.067
20
59.574
30
0.0
0
VERTEX
8
SLAB_00
10
6.968
20
56.778
30
0.0
0
VERTEX
8
SLAB_00
10
5.979
20
54.012
30
0.0
0
VERTEX
8
SLAB_00
10
5.092
20
51.279
30
0.0
0
VERTEX
8
SLAB_00
10
4.302
20
48.583
30
0.0
0
VERTEX
8
SLAB_00
10
3.603
20
45.928
30
0.0
0
VERTEX
8
SLAB_00
10
2.989
20
43.316
30
0.0
0
VERTEX
8
SLAB_00
10
2.454
20
40.749
30
0.0
0
VERTEX
8
SLAB_00
10
1.992
20
38.230
30
0.0
0
VERTEX
8
SLAB_00
10
1.596
20
35.759
30
0.0
0
VERTEX
8
SLAB_00
10
1.261
20
33.337
30
0.0
0
VERTEX
8
SLAB_00
10
0.980
20
30.964
30
0.0
0
VERTEX
8
SLAB_00
10
0.748
20
28.639
30
0.0
0
VERTEX
8
SLAB_00
10
0.559
20
26.363
30
0.0
0
VERTEX
8
SLAB_00
10
0.408
20
24.133
30
0.0
0
VERTEX
8
SLAB_00
10
0.290
20
21.947
30
0.0
0
VERTEX
8
SLAB_00
10
0.199
20
19.804
30
0.0
0
VERTEX
8
SLAB_00
10
0.131
20
17.702
30
0.0
0
VERTEX
8
SLAB_00
10
0.082
20
15.636
30
0.0
0
VERTEX
8
SLAB_00
10
0.048
20
13.604
30
0.0
0
VERTEX
8
SLAB_00
10
0.026
20
11.602
30
0.0
0
VERTEX
8
SLAB_00
10
0.013
20
9.627
30
0.0
0
VERTEX
8
SLAB_00
10
0.005
20
7.674
30
0.0
0
VERTEX
8
SLAB_00
10
0.002
20
5.740
30
0.0
0
VERTEX
8
SLAB_00
10
0.000
20
3.819
30
0.0
0
VERTEX
8
SLAB_00
10
0.000
20
1.907
30
0.0
0
VERTEX
8
SLAB_00
10
0.000
20
0.000
30
0.0
0
VERTEX
8
SLAB_00
10
0.000
20
-1.907
30
0.0
0
VERTEX
8
SLAB_00
10
0.000
20
-3.819
30
0.0
0
VERTEX
8
SLAB_00
10
0.002
20
-5.740
30
0.0
0
VERTEX
8
SLAB_00
10
0.005
20
-7.674
30
0.0
0
VERTEX
8
SLAB_00
10
0.013
20
-9.627
30
0.0
0
VERTEX
8
SLAB_00
10
0.026
20
-11.602
30
0.0
0
VERTEX
8
SLAB_00
10
0.048
20
-13.604
30
0.0
0
VERTEX
8
SLAB_00
10
0.082
20
-15.636
30
0.0
0
VERTEX
8
SLAB_00
10
0.131
20
-17.702
30
0.0
0
VERTEX
8
SLAB_00
10
0.199
20
-19.804
30
0.0
0
VERTEX
8
SLAB_00
10
0.290
20
-21.947
30
0.0
0
VERTEX
8
SLAB_00
10
0.408
20
-24.133
30
0.0
0
VERTEX
8
SLAB_00
10
0.559
20
-26.363
30
0.0
0
VERTEX
8
SLAB_00
10
0.748
20
-28.639
30
0.0
0
VERTEX
8
SLAB_00
10
0.980
20
-30.964
30
0.0
0
VERTEX
8
SLAB_00
10
1.261
20
-33.337
30
0.0
0
VERTEX
8
SLAB_00
10
1.596
20
-35.759
30
0.0
0
VERTEX
8
SLAB_00
10
1.992
20
-38.230
30
0.0
0
VERTEX
8
SLAB_00
10
2.454
20
-40.749
30
0.0
0
VERTEX
8
SLAB_00
10
2.989
20
-43.316
30
0.0
0
VERTEX
8
SLAB_00
10
3.603
20
-45.928
30
0.0
0
VERTEX
8
SLAB_00
10
4.302
20
-48.583
30
0.0
0
VERTEX
8
SLAB_00
10
5.092
20
-51.279
30
0.0
0
VERTEX
8
SLAB_00
10
5.979
20
-54.012
30
0.0
0
VERTEX
8
SLAB_00
10
6.968
20
-56.778
30
0.0
0
VERTEX
8
SLAB_00
10
8.067
20
-59.574
30
0.0
0
VERTEX
8
SLAB_00
10
9.280
20
-62.393
30
0.0
0
VERTEX
8
SLAB_00
10
10.612
20
-65.232
30
0.0
0
VERTEX
8
SLAB_00
10
12.068
20
-68.083
30
0.0
0
VERTEX
8
SLAB_00
10
13.653
20
-70.942
30
0.0
0
VERTEX
8
SLAB_00
10
15.371
20
-73.800
30
0.0
0
VERTEX
8
SLAB_00
10
17.226
20
-76.651
30
0.0
0
VERTEX
8
SLAB_00
10
19.221
20
-79.487
30
0.0
0
VERTEX
8
SLAB_00
10
21.359
20
-82.301
30
0.0
0
VERTEX
8
SLAB_00
10
23.643
20
-85.083
30
0.0
0
VERTEX
8
SLAB_00
10
26.074
20
-87.826
30
0.0
0
VERTEX
8
SLAB_00
10
28.654
20
-90.521
30
0.0
0
VERTEX
8
SLAB_00
10
31.384
20
-93.158
30
0.0
0
VERTEX
8
SLAB_00
10
34.263
20
-95.729
30
0.0
0
VERTEX
8
SLAB_00
10
37.291
20
-98.224
30
0.0
0
VERTEX
8
SLAB_00
10
40.468
20
-100.633
30
0.0
0
VERTEX
8
SLAB_00
10
43.791
20
-102.946
30
0.0
0
VERTEX
8
SLAB_00
10
47.258
20
-105.156
30
0.0
0
VERTEX
8
SLAB_00
10
50.866
20
-107.251
30
0.0
0
VERTEX
8
SLAB_00
10
54.611
20
-109.222
30
0.0
0
VERTEX
8
SLAB_00
10
58.489
20
-111.060
30
0.0
0
VERTEX
8
SLAB_00
10
62.496
20
-112.756
30
0.0
0
VERTEX
8
SLAB_00
10
66.624
20
-114.301
30
0.0
0
VERTEX
8
SLAB_00
10
70.869
20
-115.685
30
0.0
0
VERTEX
8
SLAB_00
10
75.224
20
-116.902
30
0.0
0
VERTEX
8
SLAB_00
10
79.680
20
-117.941
30
0.0
0
VERTEX
8
SLAB_00
10
84.230
20
-118.797
30
0.0
0
VERTEX
8
SLAB_00
10
88.866
20
-119.461
30
0.0
0
VERTEX
8
SLAB_00
10
93.577
20
-119.926
30
0.0
0
VERTEX
8
SLAB_00
10
98.355
20
-120.187
30
0.0
0
VERTEX
8
SLAB_00
10
103.190
20
-120.237
30
0.0
0
VERTEX
8
SLAB_00
10
108.070
20
-120.071
30
0.0
0
VERTEX
8
SLAB_00
10
112.985
20
-119.685
30
0.0
0
VERTEX
8
SLAB_00
10
117.924
20
-119.074
30
0.0
0
VERTEX
8
SLAB_00
10
122.875
20
-118.236
30
0.0
0
VERTEX
8
SLAB_00
10
127.825
20
-117.167
30
0.0
0
VERTEX
8
SLAB_00
10
132.764
20
-115.866
30
0.0
0
VERTEX
8
SLAB_00
10
137.678
20
-114.331
30
0.0
0
VERTEX
8
SLAB_00
10
142.554
20
-112.562
30
0.0
0
VERTEX
8
SLAB_00
10
147.381
20
-110.559
30
0.0
0
VERTEX
8
SLAB_00
10
152.146
20
-108.324
30
0.0
0
VERTEX
8
SLAB_00
10
156.835
20
-105.856
30
0.0
0
VERTEX
8
SLAB_00
10
161.437
20
-103.161
30
0.0
0
VERTEX
8
SLAB_00
10
165.938
20
-100.240
30
0.0
0
VERTEX
8
SLAB_00
10
170.327
20
-97.097
30
0.0
0
VERTEX
8
SLAB_00
10
174.590
20
-93.738
30
0.0
0
VERTEX
8
SLAB_00
10
178.717
20
-90.168
30
0.0
0
VERTEX
8
SLAB_00
10
182.694
20
-86.393
30
0.0
0
VERTEX
8
SLAB_00
10
186.512
20
-82.421
30
0.0
0
VERTEX
8
SLAB_00
10
190.158
20
-78.258
30
0.0
0
VERTEX
8
SLAB_00
10
193.623
20
-73.914
30
0.0
0
VERTEX
8
SLAB_00
10
196.895
20
-69.397
30
0.0
0
VERTEX
8
SLAB_00
10
199.966
20
-64.716
30
0.0
0
VERTEX
8
SLAB_00
10
202.827
20
-59.883
30
0.0
0
VERTEX
8
SLAB_00
10
205.469
20
-54.908
30
0.0
0
VERTEX
8
SLAB_00
10
207.883
20
-49.801
30
0.0
0
VERTEX
8
SLAB_00
10
210.064
20
-44.575
30
0.0
0
VERTEX
8
SLAB_00
10
212.003
20
-39.242
30
0.0
0
VERTEX
8
SLAB_00
10
213.696
20
-33.815
30
0.0
0
VERTEX
8
SLAB_00
10
215.138
20
-28.305
30
0.0
0
VERTEX
8
SLAB_00
10
216.323
20
-22.727
30
0.0
0
VERTEX
8
SLAB_00
10
217.249
20
-17.094
30
0.0
0
VERTEX
8
SLAB_00
10
217.912
20
-11.419
30
0.0
0
VERTEX
8
SLAB_00
10
218.311
20
-5.717
30
0.0
0
SEQEND
8
SLAB_00
0
TEXT
8
TEXT
10
0.000
20
135.237
30
0.0
40
8.0
1
05: s'=+21 D=241
0
CIRCLE
8
DOWEL
10
15.000
20
18.000
30
0.0
40
3.250
0
TEXT
8
DOWEL
10
20.000
20
16.000
30
0.0
40
3.0
1
A
0
CIRCLE
8
DOWEL
10
15.000
20
-18.000
30
0.0
40
3.250
0
TEXT
8
DOWEL
10
20.000
20
-20.000
30
0.0
40
3.0
1
B
0
CIRCLE
8
DOWEL
10
45.000
20
18.000
30
0.0
40
3.250
0
TEXT
8
DOWEL
10
50.000
20
16.000
30
0.0
40
3.0
1
C
0
CIRCLE
8
DOWEL
10
45.000
20
-18.000
30
0.0
40
3.250
0
TEXT
8
DOWEL
10
50.000
20
-20.000
30
0.0
40
3.0
1
D
0
ENDSEC
0
EOF