0
SECTION
2
HEADER
9
$ACADVER
1
AC1009
9
$INSUNITS
70
4
0
ENDSEC
0
SECTION
2
TABLES
0
TABLE
2
LAYER
70
4
0
LAYER
2
0
70
0
62
7
6
CONTINUOUS
0
LAYER
2
TEXT
70
0
62
1
6
CONTINUOUS
0
LAYER
2
DOWEL
70
0
62
5
6
CONTINUOUS
0
LAYER
2
SLAB_00
70
0
62
2
6
CONTINUOUS
0
ENDTAB
0
ENDSEC
0
SECTION
2
ENTITIES
0
POLYLINE
8
SLAB_00
66
1
70
1
10
0.0
20
0.0
30
0.0
0
VERTEX
8
SLAB_00
10
302.873
20
0.000
30
0.0
0
VERTEX
8
SLAB_00
10
302.688
20
7.926
30
0.0
0
VERTEX
8
SLAB_00
10
302.135
20
15.833
30
0.0
0
VERTEX
8
SLAB_00
10
301.216
20
23.701
30
0.0
0
VERTEX
8
SLAB_00
10
299.932
20
31.511
30
0.0
0
VERTEX
8
SLAB_00
10
298.289
20
39.245
30
0.0
0
VERTEX
8
SLAB_00
10
296.290
20
46.884
30
0.0
0
VERTEX
8
SLAB_00
10
293.943
20
54.410
30
0.0
0
VERTEX
8
SLAB_00
10
291.253
20
61.804
30
0.0
0
VERTEX
8
SLAB_00
10
288.230
20
69.049
30
0.0
0
VERTEX
8
SLAB_00
10
284.883
20
76.130
30
0.0
0
VERTEX
8
SLAB_00
10
281.220
20
83.028
30
0.0
0
VERTEX
8
SLAB_00
10
277.254
20
89.729
30
0.0
0
VERTEX
8
SLAB_00
10
272.996
20
96.219
30
0.0
0
VERTEX
8
SLAB_00
10
268.458
20
102.482
30
0.0
0
VERTEX
8
SLAB_00
10
263.654
20
108.505
30
0.0
0
VERTEX
8
SLAB_00
10
258.599
20
114.277
30
0.0
0
VERTEX
8
SLAB_00
10
253.306
20
119.784
30
0.0
0
VERTEX
8
SLAB_00
10
247.791
20
125.018
30
0.0
0
VERTEX
8
SLAB_00
10
242.070
20
129.968
30
0.0
0
VERTEX
8
SLAB_00
10
236.158
20
134.625
30
0.0
0
VERTEX
8
SLAB_00
10
230.074
20
138.982
30
0.0
0
VERTEX
8
SLAB_00
10
223.833
20
143.032
30
0.0
0
VERTEX
8
SLAB_00
10
217.452
20
146.770
30
0.0
0
VERTEX
8
SLAB_00
10
210.951
20
150.191
30
0.0
0
VERTEX
8
SLAB_00
10
204.344
20
153.291
30
0.0
0
VERTEX
8
SLAB_00
10
197.652
20
156.068
30
0.0
0
VERTEX
8
SLAB_00
10
190.890
20
158.521
30
0.0
0
VERTEX
8
SLAB_00
10
184.077
20
160.649
30
0.0
0
VERTEX
8
SLAB_00
10
177.230
20
162.453
30
0.0
0
VERTEX
8
SLAB_00
10
170.366
20
163.935
30
0.0
0
VERTEX
8
SLAB_00
10
163.502
20
165.097
30
0.0
0
VERTEX
8
SLAB_00
10
156.654
20
165.943
30
0.0
0
VERTEX
8
SLAB_00
10
149.839
20
166.479
30
0.0
0
VERTEX
8
SLAB_00
10
143.073
20
166.708
30
0.0
0
VERTEX
8
SLAB_00
10
136.370
20
166.639
30
0.0
0
VERTEX
8
SLAB_00
10
129.745
20
166.277
30
0.0
0
VERTEX
8
SLAB_00
10
123.212
20
165.632
30
0.0
0
VERTEX
8
SLAB_00
10
116.785
20
164.712
30
0.0
0
VERTEX
8
SLAB_00
10
110.477
20
163.526
30
0.0
0
VERTEX
8
SLAB_00
10
104.298
20
162.084
30
0.0
0
VERTEX
8
SLAB_00
10
98.261
20
160.398
30
0.0
0
VERTEX
8
SLAB_00
10
92.375
20
158.478
30
0.0
0
VERTEX
8
SLAB_00
10
86.650
20
156.336
30
0.0
0
VERTEX
8
SLAB_00
10
81.095
20
153.985
30
0.0
0
VERTEX
8
SLAB_00
10
75.718
20
151.436
30
0.0
0
VERTEX
8
SLAB_00
10
70.525
20
148.703
30
0.0
0
VERTEX
8
SLAB_00
10
65.523
20
145.798
30
0.0
0
VERTEX
8
SLAB_00
10
60.716
20
142.735
30
0.0
0
VERTEX
8
SLAB_00
10
56.109
20
139.527
30
0.0
0
VERTEX
8
SLAB_00
10
51.705
20
136.187
30
0.0
0
VERTEX
8
SLAB_00
10
47.506
20
132.728
30
0.0
0
VERTEX
8
SLAB_00
10
43.514
20
129.164
30
0.0
0
VERTEX
8
SLAB_00
10
39.729
20
125.508
30
0.0
0
VERTEX
8
SLAB_00
10
36.152
20
121.771
30
0.0
0
VERTEX
8
SLAB_00
10
32.781
20
117.968
30
0.0
0
VERTEX
8
SLAB_00
10
29.615
20
114.110
30
0.0
0
VERTEX
8
SLAB_00
10
26.650
20
110.209
30
0.0
0
VERTEX
8
SLAB_00
10
23.884
20
106.277
30
0.0
0
VERTEX
8
SLAB_00
10
21.312
20
102.324
30
0.0
0
VERTEX
8
SLAB_00
10
18.930
20
98.361
30
0.0
0
VERTEX
8
SLAB_00
10
16.732
20
94.398
30
0.0
0
VERTEX
8
SLAB_00
10
14.713
20
90.444
30
0.0
0
VERTEX
8
SLAB_00
10
12.866
20
86.508
30
0.0
0
VERTEX
8
SLAB_00
10
11.185
20
82.599
30
0.0
0
VERTEX
8
SLAB_00
10
9.662
20
78.723
30
0.0
0
VERTEX
8
SLAB_00
10
8.289
20
74.887
30
0.0
0
VERTEX
8
SLAB_00
10
7.059
20
71.098
30
0.0
0
VERTEX
8
SLAB_00
10
5.964
20
67.360
30
0.0
0
VERTEX
8
SLAB_00
10
4.995
20
63.679
30
0.0
0
VERTEX
8
SLAB_00
10
4.144
20
60.057
30
0.0
0
VERTEX
8
SLAB_00
10
3.403
20
56.499
30
0.0
0
VERTEX
8
SLAB_00
10
2.762
20
53.006
30
0.0
0
VERTEX
8
SLAB_00
10
2.213
20
49.580
30
0.0
0
VERTEX
8
SLAB_00
10
1.748
20
46.221
30
0.0
0
VERTEX
8
SLAB_00
10
1.359
20
42.931
30
0.0
0
VERTEX
8
SLAB_00
10
1.037
20
39.708
30
0.0
0
VERTEX
8
SLAB_00
10
0.776
20
36.552
30
0.0
0
VERTEX
8
SLAB_00
10
0.566
20
33.460
30
0.0
0
VERTEX
8
SLAB_00
10
0.401
20
30.430
30
0.0
0
VERTEX
8
SLAB_00
10
0.275
20
27.459
30
0.0
0
VERTEX
8
SLAB_00
10
0.181
20
24.543
30
0.0
0
VERTEX
8
SLAB_00
10
0.114
20
21.679
30
0.0
0
VERTEX
8
SLAB_00
10
0.067
20
18.862
30
0.0
0
VERTEX
8
SLAB_00
10
0.036
20
16.087
30
0.0
0
VERTEX
8
SLAB_00
10
0.017
20
13.348
30
0.0
0
VERTEX
8
SLAB_00
10
0.007
20
10.640
30
0.0
0
VERTEX
8
SLAB_00
10
0.002
20
7.958
30
0.0
0
VERTEX
8
SLAB_00
10
0.000
20
5.295
30
0.0
0
VERTEX
8
SLAB_00
10
0.000
20
2.644
30
0.0
0
VERTEX
8
SLAB_00
10
0.000
20
0.000
30
0.0
0
VERTEX
8
SLAB_00
10
0.000
20
-2.644
30
0.0
0
VERTEX
8
SLAB_00
10
0.000
20
-5.295
30
0.0
0
VERTEX
8
SLAB_00
10
0.002
20
-7.958
30
0.0
0
VERTEX
8
SLAB_00
10
0.007
20
-10.640
30
0.0
0
VERTEX
8
SLAB_00
10
0.017
20
-13.348
30
0.0
0
VERTEX
8
SLAB_00
10
0.036
20
-16.087
30
0.0
0
VERTEX
8
SLAB_00
10
0.067
20
-18.862
30
0.0
0
VERTEX
8
SLAB_00
10
0.114
20
-21.679
30
0.0
0
VERTEX
8
SLAB_00
10
0.181
20
-24.543
30
0.0
0
VERTEX
8
SLAB_00
10
0.275
20
-27.459
30
0.0
0
VERTEX
8
SLAB_00
10
0.401
20
-30.430
30
0.0
0
VERTEX
8
SLAB_00
10
0.566
20
-33.460
30
0.0
0
VERTEX
8
SLAB_00
10
0.776
20
-36.552
30
0.0
0
VERTEX
8
SLAB_00
10
1.037
20
-39.708
30
0.0
0
VERTEX
8
SLAB_00
10
1.359
20
-42.931
30
0.0
0
VERTEX
8
SLAB_00
10
1.748
20
-46.221
30
0.0
0
VERTEX
8
SLAB_00
10
2.213
20
-49.580
30
0.0
0
VERTEX
8
SLAB_00
10
2.762
20
-53.006
30
0.0
0
VERTEX
8
SLAB_00
10
3.403
20
-56.499
30
0.0
0
VERTEX
8
SLAB_00
10
4.144
20
-60.057
30
0.0
0
VERTEX
8
SLAB_00
10
4.995
20
-63.679
30
0.0
0
VERTEX
8
SLAB_00
10
5.964
20
-67.360
30
0.0
0
VERTEX
8
SLAB_00
10
7.059
20
-71.098
30
0.0
0
VERTEX
8
SLAB_00
10
8.289
20
-74.887
30
0.0
0
VERTEX
8
SLAB_00
10
9.662
20
-78.723
30
0.0
0
VERTEX
8
SLAB_00
10
11.185
20
-82.599
30
0.0
0
VERTEX
8
SLAB_00
10
12.866
20
-86.508
30
0.0
0
VERTEX
8
SLAB_00
10
14.713
20
-90.444
30
0.0
0
VERTEX
8
SLAB_00
10
16.732
20
-94.398
30
0.0
0
VERTEX
8
SLAB_00
10
18.930
20
-98.361
30
0.0
0
VERTEX
8
SLAB_00
10
21.312
20
-102.324
30
0.0
0
VERTEX
8
SLAB_00
10
23.884
20
-106.277
30
0.0
0
VERTEX
8
SLAB_00
10
26.650
20
-110.209
30
0.0
0
VERTEX
8
SLAB_00
10
29.615
20
-114.110
30
0.0
0
VERTEX
8
SLAB_00
10
32.781
20
-117.968
30
0.0
0
VERTEX
8
SLAB_00
10
36.152
20
-121.771
30
0.0
0
VERTEX
8
SLAB_00
10
39.729
20
-125.508
30
0.0
0
VERTEX
8
SLAB_00
10
43.514
20
-129.164
30
0.0
0
VERTEX
8
SLAB_00
10
47.506
20
-132.728
30
0.0
0
VERTEX
8
SLAB_00
10
51.705
20
-136.187
30
0.0
0
VERTEX
8
SLAB_00
10
56.109
20
-139.527
30
0.0
0
VERTEX
8
SLAB_00
10
60.716
20
-142.735
30
0.0
0
VERTEX
8
SLAB_00
10
65.523
20
-145.798
30
0.0
0
VERTEX
8
SLAB_00
10
70.525
20
-148.703
30
0.0
0
VERTEX
8
SLAB_00
10
75.718
20
-151.436
30
0.0
0
VERTEX
8
SLAB_00
10
81.095
20
-153.985
30
0.0
0
VERTEX
8
SLAB_00
10
86.650
20
-156.336
30
0.0
0
VERTEX
8
SLAB_00
10
92.375
20
-158.478
30
0.0
0
VERTEX
8
SLAB_00
10
98.261
20
-160.398
30
0.0
0
VERTEX
8
SLAB_00
10
104.298
20
-162.084
30
0.0
0
VERTEX
8
SLAB_00
10
110.477
20
-163.526
30
0.0
0
VERTEX
8
SLAB_00
10
116.785
20
-164.712
30
0.0
0
VERTEX
8
SLAB_00
10
123.212
20
-165.632
30
0.0
0
VERTEX
8
SLAB_00
10
129.745
20
-166.277
30
0.0
0
VERTEX
8
SLAB_00
10
136.370
20
-166.639
30
0.0
0
VERTEX
8
SLAB_00
10
143.073
20
-166.708
30
0.0
0
VERTEX
8
SLAB_00
10
149.839
20
-166.479
30
0.0
0
VERTEX
8
SLAB_00
10
156.654
20
-165.943
30
0.0
0
VERTEX
8
SLAB_00
10
163.502
20
-165.097
30
0.0
0
VERTEX
8
SLAB_00
10
170.366
20
-163.935
30
0.0
0
VERTEX
8
SLAB_00
10
177.230
20
-162.453
30
0.0
0
VERTEX
8
SLAB_00
10
184.077
20
-160.649
30
0.0
0
VERTEX
8
SLAB_00
10
190.890
20
-158.521
30
0.0
0
VERTEX
8
SLAB_00
10
197.652
20
-156.068
30
0.0
0
VERTEX
8
SLAB_00
10
204.344
20
-153.291
30
0.0
0
VERTEX
8
SLAB_00
10
210.951
20
-150.191
30
0.0
0
VERTEX
8
SLAB_00
10
217.452
20
-146.770
30
0.0
0
VERTEX
8
SLAB_00
10
223.833
20
-143.032
30
0.0
0
VERTEX
8
SLAB_00
10
230.074
20
-138.982
30
0.0
0
VERTEX
8
SLAB_00
10
236.158
20
-134.625
30
0.0
0
VERTEX
8
SLAB_00
10
242.070
20
-129.968
30
0.0
0
VERTEX
8
SLAB_00
10
247.791
20
-125.018
30
0.0
0
VERTEX
8
SLAB_00
10
253.306
20
-119.784
30
0.0
0
VERTEX
8
SLAB_00
10
258.599
20
-114.277
30
0.0
0
VERTEX
8
SLAB_00
10
263.654
20
-108.505
30
0.0
0
VERTEX
8
SLAB_00
10
268.458
20
-102.482
30
0.0
0
VERTEX
8
SLAB_00
10
272.996
20
-96.219
30
0.0
0
VERTEX
8
SLAB_00
10
277.254
20
-89.729
30
0.0
0
VERTEX
8
SLAB_00
10
281.220
20
-83.028
30
0.0
0
VERTEX
8
SLAB_00
10
284.883
20
-76.130
30
0.0
0
VERTEX
8
SLAB_00
10
288.230
20
-69.049
30
0.0
0
VERTEX
8
SLAB_00
10
291.253
20
-61.804
30
0.0
0
VERTEX
8
SLAB_00
10
293.943
20
-54.410
30
0.0
0
VERTEX
8
SLAB_00
10
296.290
20
-46.884
30
0.0
0
VERTEX
8
SLAB_00
10
298.289
20
-39.245
30
0.0
0
VERTEX
8
SLAB_00
10
299.932
20
-31.511
30
0.0
0
VERTEX
8
SLAB_00
10
301.216
20
-23.701
30
0.0
0
VERTEX
8
SLAB_00
10
302.135
20
-15.833
30
0.0
0
VERTEX
8
SLAB_00
10
302.688
20
-7.926
30
0.0
0
SEQEND
8
SLAB_00
0
TEXT
8
TEXT
10
0.000
20
181.708
30
0.0
40
8.0
1
36: s'=+782 D=333
0
CIRCLE
8
DOWEL
10
15.000
20
18.000
30
0.0
40
3.250
0
TEXT
8
DOWEL
10
20.000
20
16.000
30
0.0
40
3.0
1
A
0
CIRCLE
8
DOWEL
10
15.000
20
-18.000
30
0.0
40
3.250
0
TEXT
8
DOWEL
10
20.000
20
-20.000
30
0.0
40
3.0
1
B
0
CIRCLE
8
DOWEL
10
45.000
20
18.000
30
0.0
40
3.250
0
TEXT
8
DOWEL
10
50.000
20
16.000
30
0.0
40
3.0
1
C
0
CIRCLE
8
DOWEL
10
45.000
20
-18.000
30
0.0
40
3.250
0
TEXT
8
DOWEL
10
50.000
20
-20.000
30
0.0
40
3.0
1
D
0
ENDSEC
0
EOF