0
SECTION
2
HEADER
9
$ACADVER
1
AC1009
9
$INSUNITS
70
4
0
ENDSEC
0
SECTION
2
TABLES
0
TABLE
2
LAYER
70
4
0
LAYER
2
0
70
0
62
7
6
CONTINUOUS
0
LAYER
2
TEXT
70
0
62
1
6
CONTINUOUS
0
LAYER
2
DOWEL
70
0
62
5
6
CONTINUOUS
0
LAYER
2
SLAB_00
70
0
62
2
6
CONTINUOUS
0
ENDTAB
0
ENDSEC
0
SECTION
2
ENTITIES
0
POLYLINE
8
SLAB_00
66
1
70
1
10
0.0
20
0.0
30
0.0
0
VERTEX
8
SLAB_00
10
285.100
20
0.000
30
0.0
0
VERTEX
8
SLAB_00
10
284.927
20
7.461
30
0.0
0
VERTEX
8
SLAB_00
10
284.406
20
14.904
30
0.0
0
VERTEX
8
SLAB_00
10
283.541
20
22.310
30
0.0
0
VERTEX
8
SLAB_00
10
282.332
20
29.662
30
0.0
0
VERTEX
8
SLAB_00
10
280.785
20
36.942
30
0.0
0
VERTEX
8
SLAB_00
10
278.904
20
44.133
30
0.0
0
VERTEX
8
SLAB_00
10
276.694
20
51.217
30
0.0
0
VERTEX
8
SLAB_00
10
274.163
20
58.177
30
0.0
0
VERTEX
8
SLAB_00
10
271.317
20
64.998
30
0.0
0
VERTEX
8
SLAB_00
10
268.166
20
71.662
30
0.0
0
VERTEX
8
SLAB_00
10
264.718
20
78.156
30
0.0
0
VERTEX
8
SLAB_00
10
260.985
20
84.464
30
0.0
0
VERTEX
8
SLAB_00
10
256.976
20
90.573
30
0.0
0
VERTEX
8
SLAB_00
10
252.705
20
96.468
30
0.0
0
VERTEX
8
SLAB_00
10
248.183
20
102.138
30
0.0
0
VERTEX
8
SLAB_00
10
243.424
20
107.571
30
0.0
0
VERTEX
8
SLAB_00
10
238.442
20
112.756
30
0.0
0
VERTEX
8
SLAB_00
10
233.251
20
117.682
30
0.0
0
VERTEX
8
SLAB_00
10
227.865
20
122.342
30
0.0
0
VERTEX
8
SLAB_00
10
222.301
20
126.726
30
0.0
0
VERTEX
8
SLAB_00
10
216.573
20
130.827
30
0.0
0
VERTEX
8
SLAB_00
10
210.698
20
134.639
30
0.0
0
VERTEX
8
SLAB_00
10
204.692
20
138.158
30
0.0
0
VERTEX
8
SLAB_00
10
198.572
20
141.378
30
0.0
0
VERTEX
8
SLAB_00
10
192.354
20
144.296
30
0.0
0
VERTEX
8
SLAB_00
10
186.054
20
146.910
30
0.0
0
VERTEX
8
SLAB_00
10
179.689
20
149.219
30
0.0
0
VERTEX
8
SLAB_00
10
173.276
20
151.222
30
0.0
0
VERTEX
8
SLAB_00
10
166.830
20
152.920
30
0.0
0
VERTEX
8
SLAB_00
10
160.369
20
154.315
30
0.0
0
VERTEX
8
SLAB_00
10
153.908
20
155.409
30
0.0
0
VERTEX
8
SLAB_00
10
147.462
20
156.206
30
0.0
0
VERTEX
8
SLAB_00
10
141.047
20
156.710
30
0.0
0
VERTEX
8
SLAB_00
10
134.677
20
156.926
30
0.0
0
VERTEX
8
SLAB_00
10
128.368
20
156.861
30
0.0
0
VERTEX
8
SLAB_00
10
122.132
20
156.520
30
0.0
0
VERTEX
8
SLAB_00
10
115.982
20
155.913
30
0.0
0
VERTEX
8
SLAB_00
10
109.932
20
155.047
30
0.0
0
VERTEX
8
SLAB_00
10
103.994
20
153.930
30
0.0
0
VERTEX
8
SLAB_00
10
98.178
20
152.573
30
0.0
0
VERTEX
8
SLAB_00
10
92.495
20
150.986
30
0.0
0
VERTEX
8
SLAB_00
10
86.954
20
149.179
30
0.0
0
VERTEX
8
SLAB_00
10
81.566
20
147.163
30
0.0
0
VERTEX
8
SLAB_00
10
76.337
20
144.949
30
0.0
0
VERTEX
8
SLAB_00
10
71.275
20
142.550
30
0.0
0
VERTEX
8
SLAB_00
10
66.387
20
139.977
30
0.0
0
VERTEX
8
SLAB_00
10
61.678
20
137.243
30
0.0
0
VERTEX
8
SLAB_00
10
57.153
20
134.360
30
0.0
0
VERTEX
8
SLAB_00
10
52.816
20
131.340
30
0.0
0
VERTEX
8
SLAB_00
10
48.671
20
128.196
30
0.0
0
VERTEX
8
SLAB_00
10
44.718
20
124.940
30
0.0
0
VERTEX
8
SLAB_00
10
40.961
20
121.585
30
0.0
0
VERTEX
8
SLAB_00
10
37.398
20
118.143
30
0.0
0
VERTEX
8
SLAB_00
10
34.031
20
114.626
30
0.0
0
VERTEX
8
SLAB_00
10
30.858
20
111.046
30
0.0
0
VERTEX
8
SLAB_00
10
27.877
20
107.414
30
0.0
0
VERTEX
8
SLAB_00
10
25.086
20
103.742
30
0.0
0
VERTEX
8
SLAB_00
10
22.482
20
100.040
30
0.0
0
VERTEX
8
SLAB_00
10
20.061
20
96.319
30
0.0
0
VERTEX
8
SLAB_00
10
17.819
20
92.589
30
0.0
0
VERTEX
8
SLAB_00
10
15.750
20
88.859
30
0.0
0
VERTEX
8
SLAB_00
10
13.850
20
85.137
30
0.0
0
VERTEX
8
SLAB_00
10
12.111
20
81.432
30
0.0
0
VERTEX
8
SLAB_00
10
10.528
20
77.752
30
0.0
0
VERTEX
8
SLAB_00
10
9.095
20
74.104
30
0.0
0
VERTEX
8
SLAB_00
10
7.803
20
70.493
30
0.0
0
VERTEX
8
SLAB_00
10
6.645
20
66.926
30
0.0
0
VERTEX
8
SLAB_00
10
5.614
20
63.408
30
0.0
0
VERTEX
8
SLAB_00
10
4.702
20
59.942
30
0.0
0
VERTEX
8
SLAB_00
10
3.901
20
56.533
30
0.0
0
VERTEX
8
SLAB_00
10
3.203
20
53.184
30
0.0
0
VERTEX
8
SLAB_00
10
2.600
20
49.896
30
0.0
0
VERTEX
8
SLAB_00
10
2.083
20
46.670
30
0.0
0
VERTEX
8
SLAB_00
10
1.646
20
43.509
30
0.0
0
VERTEX
8
SLAB_00
10
1.279
20
40.412
30
0.0
0
VERTEX
8
SLAB_00
10
0.977
20
37.378
30
0.0
0
VERTEX
8
SLAB_00
10
0.730
20
34.407
30
0.0
0
VERTEX
8
SLAB_00
10
0.533
20
31.497
30
0.0
0
VERTEX
8
SLAB_00
10
0.378
20
28.644
30
0.0
0
VERTEX
8
SLAB_00
10
0.259
20
25.848
30
0.0
0
VERTEX
8
SLAB_00
10
0.171
20
23.103
30
0.0
0
VERTEX
8
SLAB_00
10
0.107
20
20.407
30
0.0
0
VERTEX
8
SLAB_00
10
0.063
20
17.755
30
0.0
0
VERTEX
8
SLAB_00
10
0.034
20
15.143
30
0.0
0
VERTEX
8
SLAB_00
10
0.016
20
12.565
30
0.0
0
VERTEX
8
SLAB_00
10
0.007
20
10.016
30
0.0
0
VERTEX
8
SLAB_00
10
0.002
20
7.491
30
0.0
0
VERTEX
8
SLAB_00
10
0.000
20
4.984
30
0.0
0
VERTEX
8
SLAB_00
10
0.000
20
2.489
30
0.0
0
VERTEX
8
SLAB_00
10
0.000
20
0.000
30
0.0
0
VERTEX
8
SLAB_00
10
0.000
20
-2.489
30
0.0
0
VERTEX
8
SLAB_00
10
0.000
20
-4.984
30
0.0
0
VERTEX
8
SLAB_00
10
0.002
20
-7.491
30
0.0
0
VERTEX
8
SLAB_00
10
0.007
20
-10.016
30
0.0
0
VERTEX
8
SLAB_00
10
0.016
20
-12.565
30
0.0
0
VERTEX
8
SLAB_00
10
0.034
20
-15.143
30
0.0
0
VERTEX
8
SLAB_00
10
0.063
20
-17.755
30
0.0
0
VERTEX
8
SLAB_00
10
0.107
20
-20.407
30
0.0
0
VERTEX
8
SLAB_00
10
0.171
20
-23.103
30
0.0
0
VERTEX
8
SLAB_00
10
0.259
20
-25.848
30
0.0
0
VERTEX
8
SLAB_00
10
0.378
20
-28.644
30
0.0
0
VERTEX
8
SLAB_00
10
0.533
20
-31.497
30
0.0
0
VERTEX
8
SLAB_00
10
0.730
20
-34.407
30
0.0
0
VERTEX
8
SLAB_00
10
0.977
20
-37.378
30
0.0
0
VERTEX
8
SLAB_00
10
1.279
20
-40.412
30
0.0
0
VERTEX
8
SLAB_00
10
1.646
20
-43.509
30
0.0
0
VERTEX
8
SLAB_00
10
2.083
20
-46.670
30
0.0
0
VERTEX
8
SLAB_00
10
2.600
20
-49.896
30
0.0
0
VERTEX
8
SLAB_00
10
3.203
20
-53.184
30
0.0
0
VERTEX
8
SLAB_00
10
3.901
20
-56.533
30
0.0
0
VERTEX
8
SLAB_00
10
4.702
20
-59.942
30
0.0
0
VERTEX
8
SLAB_00
10
5.614
20
-63.408
30
0.0
0
VERTEX
8
SLAB_00
10
6.645
20
-66.926
30
0.0
0
VERTEX
8
SLAB_00
10
7.803
20
-70.493
30
0.0
0
VERTEX
8
SLAB_00
10
9.095
20
-74.104
30
0.0
0
VERTEX
8
SLAB_00
10
10.528
20
-77.752
30
0.0
0
VERTEX
8
SLAB_00
10
12.111
20
-81.432
30
0.0
0
VERTEX
8
SLAB_00
10
13.850
20
-85.137
30
0.0
0
VERTEX
8
SLAB_00
10
15.750
20
-88.859
30
0.0
0
VERTEX
8
SLAB_00
10
17.819
20
-92.589
30
0.0
0
VERTEX
8
SLAB_00
10
20.061
20
-96.319
30
0.0
0
VERTEX
8
SLAB_00
10
22.482
20
-100.040
30
0.0
0
VERTEX
8
SLAB_00
10
25.086
20
-103.742
30
0.0
0
VERTEX
8
SLAB_00
10
27.877
20
-107.414
30
0.0
0
VERTEX
8
SLAB_00
10
30.858
20
-111.046
30
0.0
0
VERTEX
8
SLAB_00
10
34.031
20
-114.626
30
0.0
0
VERTEX
8
SLAB_00
10
37.398
20
-118.143
30
0.0
0
VERTEX
8
SLAB_00
10
40.961
20
-121.585
30
0.0
0
VERTEX
8
SLAB_00
10
44.718
20
-124.940
30
0.0
0
VERTEX
8
SLAB_00
10
48.671
20
-128.196
30
0.0
0
VERTEX
8
SLAB_00
10
52.816
20
-131.340
30
0.0
0
VERTEX
8
SLAB_00
10
57.153
20
-134.360
30
0.0
0
VERTEX
8
SLAB_00
10
61.678
20
-137.243
30
0.0
0
VERTEX
8
SLAB_00
10
66.387
20
-139.977
30
0.0
0
VERTEX
8
SLAB_00
10
71.275
20
-142.550
30
0.0
0
VERTEX
8
SLAB_00
10
76.337
20
-144.949
30
0.0
0
VERTEX
8
SLAB_00
10
81.566
20
-147.163
30
0.0
0
VERTEX
8
SLAB_00
10
86.954
20
-149.179
30
0.0
0
VERTEX
8
SLAB_00
10
92.495
20
-150.986
30
0.0
0
VERTEX
8
SLAB_00
10
98.178
20
-152.573
30
0.0
0
VERTEX
8
SLAB_00
10
103.994
20
-153.930
30
0.0
0
VERTEX
8
SLAB_00
10
109.932
20
-155.047
30
0.0
0
VERTEX
8
SLAB_00
10
115.982
20
-155.913
30
0.0
0
VERTEX
8
SLAB_00
10
122.132
20
-156.520
30
0.0
0
VERTEX
8
SLAB_00
10
128.368
20
-156.861
30
0.0
0
VERTEX
8
SLAB_00
10
134.677
20
-156.926
30
0.0
0
VERTEX
8
SLAB_00
10
141.047
20
-156.710
30
0.0
0
VERTEX
8
SLAB_00
10
147.462
20
-156.206
30
0.0
0
VERTEX
8
SLAB_00
10
153.908
20
-155.409
30
0.0
0
VERTEX
8
SLAB_00
10
160.369
20
-154.315
30
0.0
0
VERTEX
8
SLAB_00
10
166.830
20
-152.920
30
0.0
0
VERTEX
8
SLAB_00
10
173.276
20
-151.222
30
0.0
0
VERTEX
8
SLAB_00
10
179.689
20
-149.219
30
0.0
0
VERTEX
8
SLAB_00
10
186.054
20
-146.910
30
0.0
0
VERTEX
8
SLAB_00
10
192.354
20
-144.296
30
0.0
0
VERTEX
8
SLAB_00
10
198.572
20
-141.378
30
0.0
0
VERTEX
8
SLAB_00
10
204.692
20
-138.158
30
0.0
0
VERTEX
8
SLAB_00
10
210.698
20
-134.639
30
0.0
0
VERTEX
8
SLAB_00
10
216.573
20
-130.827
30
0.0
0
VERTEX
8
SLAB_00
10
222.301
20
-126.726
30
0.0
0
VERTEX
8
SLAB_00
10
227.865
20
-122.342
30
0.0
0
VERTEX
8
SLAB_00
10
233.251
20
-117.682
30
0.0
0
VERTEX
8
SLAB_00
10
238.442
20
-112.756
30
0.0
0
VERTEX
8
SLAB_00
10
243.424
20
-107.571
30
0.0
0
VERTEX
8
SLAB_00
10
248.183
20
-102.138
30
0.0
0
VERTEX
8
SLAB_00
10
252.705
20
-96.468
30
0.0
0
VERTEX
8
SLAB_00
10
256.976
20
-90.573
30
0.0
0
VERTEX
8
SLAB_00
10
260.985
20
-84.464
30
0.0
0
VERTEX
8
SLAB_00
10
264.718
20
-78.156
30
0.0
0
VERTEX
8
SLAB_00
10
268.166
20
-71.662
30
0.0
0
VERTEX
8
SLAB_00
10
271.317
20
-64.998
30
0.0
0
VERTEX
8
SLAB_00
10
274.163
20
-58.177
30
0.0
0
VERTEX
8
SLAB_00
10
276.694
20
-51.217
30
0.0
0
VERTEX
8
SLAB_00
10
278.904
20
-44.133
30
0.0
0
VERTEX
8
SLAB_00
10
280.785
20
-36.942
30
0.0
0
VERTEX
8
SLAB_00
10
282.332
20
-29.662
30
0.0
0
VERTEX
8
SLAB_00
10
283.541
20
-22.310
30
0.0
0
VERTEX
8
SLAB_00
10
284.406
20
-14.904
30
0.0
0
VERTEX
8
SLAB_00
10
284.927
20
-7.461
30
0.0
0
SEQEND
8
SLAB_00
0
TEXT
8
TEXT
10
0.000
20
171.926
30
0.0
40
8.0
1
13: s'=+224 D=314
0
CIRCLE
8
DOWEL
10
15.000
20
18.000
30
0.0
40
3.250
0
TEXT
8
DOWEL
10
20.000
20
16.000
30
0.0
40
3.0
1
A
0
CIRCLE
8
DOWEL
10
15.000
20
-18.000
30
0.0
40
3.250
0
TEXT
8
DOWEL
10
20.000
20
-20.000
30
0.0
40
3.0
1
B
0
CIRCLE
8
DOWEL
10
45.000
20
18.000
30
0.0
40
3.250
0
TEXT
8
DOWEL
10
50.000
20
16.000
30
0.0
40
3.0
1
C
0
CIRCLE
8
DOWEL
10
45.000
20
-18.000
30
0.0
40
3.250
0
TEXT
8
DOWEL
10
50.000
20
-20.000
30
0.0
40
3.0
1
D
0
ENDSEC
0
EOF