0
SECTION
2
HEADER
9
$ACADVER
1
AC1009
9
$INSUNITS
70
4
0
ENDSEC
0
SECTION
2
TABLES
0
TABLE
2
LAYER
70
4
0
LAYER
2
0
70
0
62
7
6
CONTINUOUS
0
LAYER
2
TEXT
70
0
62
1
6
CONTINUOUS
0
LAYER
2
DOWEL
70
0
62
5
6
CONTINUOUS
0
LAYER
2
SLAB_00
70
0
62
2
6
CONTINUOUS
0
ENDTAB
0
ENDSEC
0
SECTION
2
ENTITIES
0
POLYLINE
8
SLAB_00
66
1
70
1
10
0.0
20
0.0
30
0.0
0
VERTEX
8
SLAB_00
10
127.841
20
0.000
30
0.0
0
VERTEX
8
SLAB_00
10
127.763
20
3.346
30
0.0
0
VERTEX
8
SLAB_00
10
127.530
20
6.683
30
0.0
0
VERTEX
8
SLAB_00
10
127.142
20
10.004
30
0.0
0
VERTEX
8
SLAB_00
10
126.600
20
13.301
30
0.0
0
VERTEX
8
SLAB_00
10
125.906
20
16.565
30
0.0
0
VERTEX
8
SLAB_00
10
125.063
20
19.790
30
0.0
0
VERTEX
8
SLAB_00
10
124.072
20
22.966
30
0.0
0
VERTEX
8
SLAB_00
10
122.937
20
26.087
30
0.0
0
VERTEX
8
SLAB_00
10
121.660
20
29.145
30
0.0
0
VERTEX
8
SLAB_00
10
120.247
20
32.134
30
0.0
0
VERTEX
8
SLAB_00
10
118.701
20
35.046
30
0.0
0
VERTEX
8
SLAB_00
10
117.027
20
37.874
30
0.0
0
VERTEX
8
SLAB_00
10
115.230
20
40.613
30
0.0
0
VERTEX
8
SLAB_00
10
113.315
20
43.257
30
0.0
0
VERTEX
8
SLAB_00
10
111.287
20
45.799
30
0.0
0
VERTEX
8
SLAB_00
10
109.153
20
48.236
30
0.0
0
VERTEX
8
SLAB_00
10
106.919
20
50.560
30
0.0
0
VERTEX
8
SLAB_00
10
104.591
20
52.769
30
0.0
0
VERTEX
8
SLAB_00
10
102.176
20
54.859
30
0.0
0
VERTEX
8
SLAB_00
10
99.681
20
56.825
30
0.0
0
VERTEX
8
SLAB_00
10
97.113
20
58.664
30
0.0
0
VERTEX
8
SLAB_00
10
94.479
20
60.373
30
0.0
0
VERTEX
8
SLAB_00
10
91.786
20
61.951
30
0.0
0
VERTEX
8
SLAB_00
10
89.041
20
63.395
30
0.0
0
VERTEX
8
SLAB_00
10
86.253
20
64.703
30
0.0
0
VERTEX
8
SLAB_00
10
83.428
20
65.875
30
0.0
0
VERTEX
8
SLAB_00
10
80.574
20
66.911
30
0.0
0
VERTEX
8
SLAB_00
10
77.698
20
67.809
30
0.0
0
VERTEX
8
SLAB_00
10
74.808
20
68.570
30
0.0
0
VERTEX
8
SLAB_00
10
71.910
20
69.196
30
0.0
0
VERTEX
8
SLAB_00
10
69.013
20
69.687
30
0.0
0
VERTEX
8
SLAB_00
10
66.123
20
70.044
30
0.0
0
VERTEX
8
SLAB_00
10
63.246
20
70.270
30
0.0
0
VERTEX
8
SLAB_00
10
60.390
20
70.367
30
0.0
0
VERTEX
8
SLAB_00
10
57.561
20
70.337
30
0.0
0
VERTEX
8
SLAB_00
10
54.765
20
70.185
30
0.0
0
VERTEX
8
SLAB_00
10
52.007
20
69.912
30
0.0
0
VERTEX
8
SLAB_00
10
49.294
20
69.524
30
0.0
0
VERTEX
8
SLAB_00
10
46.632
20
69.023
30
0.0
0
VERTEX
8
SLAB_00
10
44.024
20
68.415
30
0.0
0
VERTEX
8
SLAB_00
10
41.475
20
67.703
30
0.0
0
VERTEX
8
SLAB_00
10
38.991
20
66.893
30
0.0
0
VERTEX
8
SLAB_00
10
36.575
20
65.989
30
0.0
0
VERTEX
8
SLAB_00
10
34.230
20
64.996
30
0.0
0
VERTEX
8
SLAB_00
10
31.960
20
63.920
30
0.0
0
VERTEX
8
SLAB_00
10
29.768
20
62.767
30
0.0
0
VERTEX
8
SLAB_00
10
27.657
20
61.541
30
0.0
0
VERTEX
8
SLAB_00
10
25.628
20
60.248
30
0.0
0
VERTEX
8
SLAB_00
10
23.683
20
58.894
30
0.0
0
VERTEX
8
SLAB_00
10
21.824
20
57.484
30
0.0
0
VERTEX
8
SLAB_00
10
20.052
20
56.024
30
0.0
0
VERTEX
8
SLAB_00
10
18.367
20
54.520
30
0.0
0
VERTEX
8
SLAB_00
10
16.770
20
52.976
30
0.0
0
VERTEX
8
SLAB_00
10
15.260
20
51.399
30
0.0
0
VERTEX
8
SLAB_00
10
13.837
20
49.794
30
0.0
0
VERTEX
8
SLAB_00
10
12.500
20
48.165
30
0.0
0
VERTEX
8
SLAB_00
10
11.249
20
46.519
30
0.0
0
VERTEX
8
SLAB_00
10
10.081
20
44.859
30
0.0
0
VERTEX
8
SLAB_00
10
8.996
20
43.190
30
0.0
0
VERTEX
8
SLAB_00
10
7.990
20
41.518
30
0.0
0
VERTEX
8
SLAB_00
10
7.062
20
39.845
30
0.0
0
VERTEX
8
SLAB_00
10
6.210
20
38.176
30
0.0
0
VERTEX
8
SLAB_00
10
5.431
20
36.515
30
0.0
0
VERTEX
8
SLAB_00
10
4.721
20
34.865
30
0.0
0
VERTEX
8
SLAB_00
10
4.078
20
33.229
30
0.0
0
VERTEX
8
SLAB_00
10
3.499
20
31.610
30
0.0
0
VERTEX
8
SLAB_00
10
2.980
20
30.010
30
0.0
0
VERTEX
8
SLAB_00
10
2.518
20
28.432
30
0.0
0
VERTEX
8
SLAB_00
10
2.109
20
26.879
30
0.0
0
VERTEX
8
SLAB_00
10
1.749
20
25.350
30
0.0
0
VERTEX
8
SLAB_00
10
1.436
20
23.848
30
0.0
0
VERTEX
8
SLAB_00
10
1.166
20
22.374
30
0.0
0
VERTEX
8
SLAB_00
10
0.934
20
20.927
30
0.0
0
VERTEX
8
SLAB_00
10
0.738
20
19.510
30
0.0
0
VERTEX
8
SLAB_00
10
0.574
20
18.121
30
0.0
0
VERTEX
8
SLAB_00
10
0.438
20
16.761
30
0.0
0
VERTEX
8
SLAB_00
10
0.327
20
15.428
30
0.0
0
VERTEX
8
SLAB_00
10
0.239
20
14.123
30
0.0
0
VERTEX
8
SLAB_00
10
0.169
20
12.844
30
0.0
0
VERTEX
8
SLAB_00
10
0.116
20
11.590
30
0.0
0
VERTEX
8
SLAB_00
10
0.077
20
10.360
30
0.0
0
VERTEX
8
SLAB_00
10
0.048
20
9.151
30
0.0
0
VERTEX
8
SLAB_00
10
0.028
20
7.962
30
0.0
0
VERTEX
8
SLAB_00
10
0.015
20
6.790
30
0.0
0
VERTEX
8
SLAB_00
10
0.007
20
5.634
30
0.0
0
VERTEX
8
SLAB_00
10
0.003
20
4.491
30
0.0
0
VERTEX
8
SLAB_00
10
0.001
20
3.359
30
0.0
0
VERTEX
8
SLAB_00
10
0.000
20
2.235
30
0.0
0
VERTEX
8
SLAB_00
10
0.000
20
1.116
30
0.0
0
VERTEX
8
SLAB_00
10
0.000
20
0.000
30
0.0
0
VERTEX
8
SLAB_00
10
0.000
20
-1.116
30
0.0
0
VERTEX
8
SLAB_00
10
0.000
20
-2.235
30
0.0
0
VERTEX
8
SLAB_00
10
0.001
20
-3.359
30
0.0
0
VERTEX
8
SLAB_00
10
0.003
20
-4.491
30
0.0
0
VERTEX
8
SLAB_00
10
0.007
20
-5.634
30
0.0
0
VERTEX
8
SLAB_00
10
0.015
20
-6.790
30
0.0
0
VERTEX
8
SLAB_00
10
0.028
20
-7.962
30
0.0
0
VERTEX
8
SLAB_00
10
0.048
20
-9.151
30
0.0
0
VERTEX
8
SLAB_00
10
0.077
20
-10.360
30
0.0
0
VERTEX
8
SLAB_00
10
0.116
20
-11.590
30
0.0
0
VERTEX
8
SLAB_00
10
0.169
20
-12.844
30
0.0
0
VERTEX
8
SLAB_00
10
0.239
20
-14.123
30
0.0
0
VERTEX
8
SLAB_00
10
0.327
20
-15.428
30
0.0
0
VERTEX
8
SLAB_00
10
0.438
20
-16.761
30
0.0
0
VERTEX
8
SLAB_00
10
0.574
20
-18.121
30
0.0
0
VERTEX
8
SLAB_00
10
0.738
20
-19.510
30
0.0
0
VERTEX
8
SLAB_00
10
0.934
20
-20.927
30
0.0
0
VERTEX
8
SLAB_00
10
1.166
20
-22.374
30
0.0
0
VERTEX
8
SLAB_00
10
1.436
20
-23.848
30
0.0
0
VERTEX
8
SLAB_00
10
1.749
20
-25.350
30
0.0
0
VERTEX
8
SLAB_00
10
2.109
20
-26.879
30
0.0
0
VERTEX
8
SLAB_00
10
2.518
20
-28.432
30
0.0
0
VERTEX
8
SLAB_00
10
2.980
20
-30.010
30
0.0
0
VERTEX
8
SLAB_00
10
3.499
20
-31.610
30
0.0
0
VERTEX
8
SLAB_00
10
4.078
20
-33.229
30
0.0
0
VERTEX
8
SLAB_00
10
4.721
20
-34.865
30
0.0
0
VERTEX
8
SLAB_00
10
5.431
20
-36.515
30
0.0
0
VERTEX
8
SLAB_00
10
6.210
20
-38.176
30
0.0
0
VERTEX
8
SLAB_00
10
7.062
20
-39.845
30
0.0
0
VERTEX
8
SLAB_00
10
7.990
20
-41.518
30
0.0
0
VERTEX
8
SLAB_00
10
8.996
20
-43.190
30
0.0
0
VERTEX
8
SLAB_00
10
10.081
20
-44.859
30
0.0
0
VERTEX
8
SLAB_00
10
11.249
20
-46.519
30
0.0
0
VERTEX
8
SLAB_00
10
12.500
20
-48.165
30
0.0
0
VERTEX
8
SLAB_00
10
13.837
20
-49.794
30
0.0
0
VERTEX
8
SLAB_00
10
15.260
20
-51.399
30
0.0
0
VERTEX
8
SLAB_00
10
16.770
20
-52.976
30
0.0
0
VERTEX
8
SLAB_00
10
18.367
20
-54.520
30
0.0
0
VERTEX
8
SLAB_00
10
20.052
20
-56.024
30
0.0
0
VERTEX
8
SLAB_00
10
21.824
20
-57.484
30
0.0
0
VERTEX
8
SLAB_00
10
23.683
20
-58.894
30
0.0
0
VERTEX
8
SLAB_00
10
25.628
20
-60.248
30
0.0
0
VERTEX
8
SLAB_00
10
27.657
20
-61.541
30
0.0
0
VERTEX
8
SLAB_00
10
29.768
20
-62.767
30
0.0
0
VERTEX
8
SLAB_00
10
31.960
20
-63.920
30
0.0
0
VERTEX
8
SLAB_00
10
34.230
20
-64.996
30
0.0
0
VERTEX
8
SLAB_00
10
36.575
20
-65.989
30
0.0
0
VERTEX
8
SLAB_00
10
38.991
20
-66.893
30
0.0
0
VERTEX
8
SLAB_00
10
41.475
20
-67.703
30
0.0
0
VERTEX
8
SLAB_00
10
44.024
20
-68.415
30
0.0
0
VERTEX
8
SLAB_00
10
46.632
20
-69.023
30
0.0
0
VERTEX
8
SLAB_00
10
49.294
20
-69.524
30
0.0
0
VERTEX
8
SLAB_00
10
52.007
20
-69.912
30
0.0
0
VERTEX
8
SLAB_00
10
54.765
20
-70.185
30
0.0
0
VERTEX
8
SLAB_00
10
57.561
20
-70.337
30
0.0
0
VERTEX
8
SLAB_00
10
60.390
20
-70.367
30
0.0
0
VERTEX
8
SLAB_00
10
63.246
20
-70.270
30
0.0
0
VERTEX
8
SLAB_00
10
66.123
20
-70.044
30
0.0
0
VERTEX
8
SLAB_00
10
69.013
20
-69.687
30
0.0
0
VERTEX
8
SLAB_00
10
71.910
20
-69.196
30
0.0
0
VERTEX
8
SLAB_00
10
74.808
20
-68.570
30
0.0
0
VERTEX
8
SLAB_00
10
77.698
20
-67.809
30
0.0
0
VERTEX
8
SLAB_00
10
80.574
20
-66.911
30
0.0
0
VERTEX
8
SLAB_00
10
83.428
20
-65.875
30
0.0
0
VERTEX
8
SLAB_00
10
86.253
20
-64.703
30
0.0
0
VERTEX
8
SLAB_00
10
89.041
20
-63.395
30
0.0
0
VERTEX
8
SLAB_00
10
91.786
20
-61.951
30
0.0
0
VERTEX
8
SLAB_00
10
94.479
20
-60.373
30
0.0
0
VERTEX
8
SLAB_00
10
97.113
20
-58.664
30
0.0
0
VERTEX
8
SLAB_00
10
99.681
20
-56.825
30
0.0
0
VERTEX
8
SLAB_00
10
102.176
20
-54.859
30
0.0
0
VERTEX
8
SLAB_00
10
104.591
20
-52.769
30
0.0
0
VERTEX
8
SLAB_00
10
106.919
20
-50.560
30
0.0
0
VERTEX
8
SLAB_00
10
109.153
20
-48.236
30
0.0
0
VERTEX
8
SLAB_00
10
111.287
20
-45.799
30
0.0
0
VERTEX
8
SLAB_00
10
113.315
20
-43.257
30
0.0
0
VERTEX
8
SLAB_00
10
115.230
20
-40.613
30
0.0
0
VERTEX
8
SLAB_00
10
117.027
20
-37.874
30
0.0
0
VERTEX
8
SLAB_00
10
118.701
20
-35.046
30
0.0
0
VERTEX
8
SLAB_00
10
120.247
20
-32.134
30
0.0
0
VERTEX
8
SLAB_00
10
121.660
20
-29.145
30
0.0
0
VERTEX
8
SLAB_00
10
122.937
20
-26.087
30
0.0
0
VERTEX
8
SLAB_00
10
124.072
20
-22.966
30
0.0
0
VERTEX
8
SLAB_00
10
125.063
20
-19.790
30
0.0
0
VERTEX
8
SLAB_00
10
125.906
20
-16.565
30
0.0
0
VERTEX
8
SLAB_00
10
126.600
20
-13.301
30
0.0
0
VERTEX
8
SLAB_00
10
127.142
20
-10.004
30
0.0
0
VERTEX
8
SLAB_00
10
127.530
20
-6.683
30
0.0
0
VERTEX
8
SLAB_00
10
127.763
20
-3.346
30
0.0
0
SEQEND
8
SLAB_00
0
TEXT
8
TEXT
10
0.000
20
85.367
30
0.0
40
8.0
1
59: s'=+1366 D=141
0
CIRCLE
8
DOWEL
10
15.000
20
18.000
30
0.0
40
3.250
0
TEXT
8
DOWEL
10
20.000
20
16.000
30
0.0
40
3.0
1
A
0
CIRCLE
8
DOWEL
10
15.000
20
-18.000
30
0.0
40
3.250
0
TEXT
8
DOWEL
10
20.000
20
-20.000
30
0.0
40
3.0
1
B
0
CIRCLE
8
DOWEL
10
45.000
20
18.000
30
0.0
40
3.250
0
TEXT
8
DOWEL
10
50.000
20
16.000
30
0.0
40
3.0
1
C
0
CIRCLE
8
DOWEL
10
45.000
20
-18.000
30
0.0
40
3.250
0
TEXT
8
DOWEL
10
50.000
20
-20.000
30
0.0
40
3.0
1
D
0
ENDSEC
0
EOF