0
SECTION
2
HEADER
9
$ACADVER
1
AC1009
9
$INSUNITS
70
4
0
ENDSEC
0
SECTION
2
TABLES
0
TABLE
2
LAYER
70
4
0
LAYER
2
0
70
0
62
7
6
CONTINUOUS
0
LAYER
2
TEXT
70
0
62
1
6
CONTINUOUS
0
LAYER
2
DOWEL
70
0
62
5
6
CONTINUOUS
0
LAYER
2
SLAB_00
70
0
62
2
6
CONTINUOUS
0
ENDTAB
0
ENDSEC
0
SECTION
2
ENTITIES
0
POLYLINE
8
SLAB_00
66
1
70
1
10
0.0
20
0.0
30
0.0
0
VERTEX
8
SLAB_00
10
320.600
20
0.000
30
0.0
0
VERTEX
8
SLAB_00
10
320.404
20
8.390
30
0.0
0
VERTEX
8
SLAB_00
10
319.819
20
16.759
30
0.0
0
VERTEX
8
SLAB_00
10
318.846
20
25.088
30
0.0
0
VERTEX
8
SLAB_00
10
317.487
20
33.356
30
0.0
0
VERTEX
8
SLAB_00
10
315.747
20
41.542
30
0.0
0
VERTEX
8
SLAB_00
10
313.632
20
49.628
30
0.0
0
VERTEX
8
SLAB_00
10
311.147
20
57.594
30
0.0
0
VERTEX
8
SLAB_00
10
308.300
20
65.421
30
0.0
0
VERTEX
8
SLAB_00
10
305.100
20
73.091
30
0.0
0
VERTEX
8
SLAB_00
10
301.557
20
80.585
30
0.0
0
VERTEX
8
SLAB_00
10
297.680
20
87.888
30
0.0
0
VERTEX
8
SLAB_00
10
293.481
20
94.981
30
0.0
0
VERTEX
8
SLAB_00
10
288.974
20
101.850
30
0.0
0
VERTEX
8
SLAB_00
10
284.171
20
108.480
30
0.0
0
VERTEX
8
SLAB_00
10
279.086
20
114.856
30
0.0
0
VERTEX
8
SLAB_00
10
273.735
20
120.965
30
0.0
0
VERTEX
8
SLAB_00
10
268.132
20
126.795
30
0.0
0
VERTEX
8
SLAB_00
10
262.294
20
132.335
30
0.0
0
VERTEX
8
SLAB_00
10
256.238
20
137.575
30
0.0
0
VERTEX
8
SLAB_00
10
249.981
20
142.505
30
0.0
0
VERTEX
8
SLAB_00
10
243.540
20
147.117
30
0.0
0
VERTEX
8
SLAB_00
10
236.933
20
151.404
30
0.0
0
VERTEX
8
SLAB_00
10
230.180
20
155.361
30
0.0
0
VERTEX
8
SLAB_00
10
223.297
20
158.981
30
0.0
0
VERTEX
8
SLAB_00
10
216.305
20
162.263
30
0.0
0
VERTEX
8
SLAB_00
10
209.220
20
165.203
30
0.0
0
VERTEX
8
SLAB_00
10
202.063
20
167.799
30
0.0
0
VERTEX
8
SLAB_00
10
194.851
20
170.051
30
0.0
0
VERTEX
8
SLAB_00
10
187.603
20
171.961
30
0.0
0
VERTEX
8
SLAB_00
10
180.337
20
173.530
30
0.0
0
VERTEX
8
SLAB_00
10
173.071
20
174.760
30
0.0
0
VERTEX
8
SLAB_00
10
165.823
20
175.656
30
0.0
0
VERTEX
8
SLAB_00
10
158.609
20
176.223
30
0.0
0
VERTEX
8
SLAB_00
10
151.447
20
176.466
30
0.0
0
VERTEX
8
SLAB_00
10
144.351
20
176.392
30
0.0
0
VERTEX
8
SLAB_00
10
137.339
20
176.010
30
0.0
0
VERTEX
8
SLAB_00
10
130.424
20
175.327
30
0.0
0
VERTEX
8
SLAB_00
10
123.621
20
174.352
30
0.0
0
VERTEX
8
SLAB_00
10
116.943
20
173.097
30
0.0
0
VERTEX
8
SLAB_00
10
110.402
20
171.571
30
0.0
0
VERTEX
8
SLAB_00
10
104.012
20
169.786
30
0.0
0
VERTEX
8
SLAB_00
10
97.782
20
167.754
30
0.0
0
VERTEX
8
SLAB_00
10
91.722
20
165.487
30
0.0
0
VERTEX
8
SLAB_00
10
85.842
20
162.998
30
0.0
0
VERTEX
8
SLAB_00
10
80.150
20
160.300
30
0.0
0
VERTEX
8
SLAB_00
10
74.653
20
157.407
30
0.0
0
VERTEX
8
SLAB_00
10
69.358
20
154.332
30
0.0
0
VERTEX
8
SLAB_00
10
64.270
20
151.090
30
0.0
0
VERTEX
8
SLAB_00
10
59.393
20
147.694
30
0.0
0
VERTEX
8
SLAB_00
10
54.731
20
144.158
30
0.0
0
VERTEX
8
SLAB_00
10
50.286
20
140.497
30
0.0
0
VERTEX
8
SLAB_00
10
46.061
20
136.724
30
0.0
0
VERTEX
8
SLAB_00
10
42.055
20
132.854
30
0.0
0
VERTEX
8
SLAB_00
10
38.268
20
128.899
30
0.0
0
VERTEX
8
SLAB_00
10
34.700
20
124.873
30
0.0
0
VERTEX
8
SLAB_00
10
31.348
20
120.789
30
0.0
0
VERTEX
8
SLAB_00
10
28.210
20
116.660
30
0.0
0
VERTEX
8
SLAB_00
10
25.281
20
112.497
30
0.0
0
VERTEX
8
SLAB_00
10
22.559
20
108.313
30
0.0
0
VERTEX
8
SLAB_00
10
20.037
20
104.118
30
0.0
0
VERTEX
8
SLAB_00
10
17.711
20
99.923
30
0.0
0
VERTEX
8
SLAB_00
10
15.574
20
95.738
30
0.0
0
VERTEX
8
SLAB_00
10
13.619
20
91.572
30
0.0
0
VERTEX
8
SLAB_00
10
11.839
20
87.433
30
0.0
0
VERTEX
8
SLAB_00
10
10.227
20
83.331
30
0.0
0
VERTEX
8
SLAB_00
10
8.774
20
79.271
30
0.0
0
VERTEX
8
SLAB_00
10
7.473
20
75.259
30
0.0
0
VERTEX
8
SLAB_00
10
6.313
20
71.303
30
0.0
0
VERTEX
8
SLAB_00
10
5.288
20
67.406
30
0.0
0
VERTEX
8
SLAB_00
10
4.387
20
63.573
30
0.0
0
VERTEX
8
SLAB_00
10
3.602
20
59.806
30
0.0
0
VERTEX
8
SLAB_00
10
2.923
20
56.108
30
0.0
0
VERTEX
8
SLAB_00
10
2.343
20
52.482
30
0.0
0
VERTEX
8
SLAB_00
10
1.851
20
48.927
30
0.0
0
VERTEX
8
SLAB_00
10
1.439
20
45.444
30
0.0
0
VERTEX
8
SLAB_00
10
1.098
20
42.033
30
0.0
0
VERTEX
8
SLAB_00
10
0.821
20
38.691
30
0.0
0
VERTEX
8
SLAB_00
10
0.599
20
35.418
30
0.0
0
VERTEX
8
SLAB_00
10
0.425
20
32.211
30
0.0
0
VERTEX
8
SLAB_00
10
0.292
20
29.066
30
0.0
0
VERTEX
8
SLAB_00
10
0.192
20
25.980
30
0.0
0
VERTEX
8
SLAB_00
10
0.120
20
22.948
30
0.0
0
VERTEX
8
SLAB_00
10
0.071
20
19.966
30
0.0
0
VERTEX
8
SLAB_00
10
0.038
20
17.028
30
0.0
0
VERTEX
8
SLAB_00
10
0.018
20
14.129
30
0.0
0
VERTEX
8
SLAB_00
10
0.008
20
11.263
30
0.0
0
VERTEX
8
SLAB_00
10
0.002
20
8.424
30
0.0
0
VERTEX
8
SLAB_00
10
0.000
20
5.605
30
0.0
0
VERTEX
8
SLAB_00
10
0.000
20
2.799
30
0.0
0
VERTEX
8
SLAB_00
10
0.000
20
0.000
30
0.0
0
VERTEX
8
SLAB_00
10
0.000
20
-2.799
30
0.0
0
VERTEX
8
SLAB_00
10
0.000
20
-5.605
30
0.0
0
VERTEX
8
SLAB_00
10
0.002
20
-8.424
30
0.0
0
VERTEX
8
SLAB_00
10
0.008
20
-11.263
30
0.0
0
VERTEX
8
SLAB_00
10
0.018
20
-14.129
30
0.0
0
VERTEX
8
SLAB_00
10
0.038
20
-17.028
30
0.0
0
VERTEX
8
SLAB_00
10
0.071
20
-19.966
30
0.0
0
VERTEX
8
SLAB_00
10
0.120
20
-22.948
30
0.0
0
VERTEX
8
SLAB_00
10
0.192
20
-25.980
30
0.0
0
VERTEX
8
SLAB_00
10
0.292
20
-29.066
30
0.0
0
VERTEX
8
SLAB_00
10
0.425
20
-32.211
30
0.0
0
VERTEX
8
SLAB_00
10
0.599
20
-35.418
30
0.0
0
VERTEX
8
SLAB_00
10
0.821
20
-38.691
30
0.0
0
VERTEX
8
SLAB_00
10
1.098
20
-42.033
30
0.0
0
VERTEX
8
SLAB_00
10
1.439
20
-45.444
30
0.0
0
VERTEX
8
SLAB_00
10
1.851
20
-48.927
30
0.0
0
VERTEX
8
SLAB_00
10
2.343
20
-52.482
30
0.0
0
VERTEX
8
SLAB_00
10
2.923
20
-56.108
30
0.0
0
VERTEX
8
SLAB_00
10
3.602
20
-59.806
30
0.0
0
VERTEX
8
SLAB_00
10
4.387
20
-63.573
30
0.0
0
VERTEX
8
SLAB_00
10
5.288
20
-67.406
30
0.0
0
VERTEX
8
SLAB_00
10
6.313
20
-71.303
30
0.0
0
VERTEX
8
SLAB_00
10
7.473
20
-75.259
30
0.0
0
VERTEX
8
SLAB_00
10
8.774
20
-79.271
30
0.0
0
VERTEX
8
SLAB_00
10
10.227
20
-83.331
30
0.0
0
VERTEX
8
SLAB_00
10
11.839
20
-87.433
30
0.0
0
VERTEX
8
SLAB_00
10
13.619
20
-91.572
30
0.0
0
VERTEX
8
SLAB_00
10
15.574
20
-95.738
30
0.0
0
VERTEX
8
SLAB_00
10
17.711
20
-99.923
30
0.0
0
VERTEX
8
SLAB_00
10
20.037
20
-104.118
30
0.0
0
VERTEX
8
SLAB_00
10
22.559
20
-108.313
30
0.0
0
VERTEX
8
SLAB_00
10
25.281
20
-112.497
30
0.0
0
VERTEX
8
SLAB_00
10
28.210
20
-116.660
30
0.0
0
VERTEX
8
SLAB_00
10
31.348
20
-120.789
30
0.0
0
VERTEX
8
SLAB_00
10
34.700
20
-124.873
30
0.0
0
VERTEX
8
SLAB_00
10
38.268
20
-128.899
30
0.0
0
VERTEX
8
SLAB_00
10
42.055
20
-132.854
30
0.0
0
VERTEX
8
SLAB_00
10
46.061
20
-136.724
30
0.0
0
VERTEX
8
SLAB_00
10
50.286
20
-140.497
30
0.0
0
VERTEX
8
SLAB_00
10
54.731
20
-144.158
30
0.0
0
VERTEX
8
SLAB_00
10
59.393
20
-147.694
30
0.0
0
VERTEX
8
SLAB_00
10
64.270
20
-151.090
30
0.0
0
VERTEX
8
SLAB_00
10
69.358
20
-154.332
30
0.0
0
VERTEX
8
SLAB_00
10
74.653
20
-157.407
30
0.0
0
VERTEX
8
SLAB_00
10
80.150
20
-160.300
30
0.0
0
VERTEX
8
SLAB_00
10
85.842
20
-162.998
30
0.0
0
VERTEX
8
SLAB_00
10
91.722
20
-165.487
30
0.0
0
VERTEX
8
SLAB_00
10
97.782
20
-167.754
30
0.0
0
VERTEX
8
SLAB_00
10
104.012
20
-169.786
30
0.0
0
VERTEX
8
SLAB_00
10
110.402
20
-171.571
30
0.0
0
VERTEX
8
SLAB_00
10
116.943
20
-173.097
30
0.0
0
VERTEX
8
SLAB_00
10
123.621
20
-174.352
30
0.0
0
VERTEX
8
SLAB_00
10
130.424
20
-175.327
30
0.0
0
VERTEX
8
SLAB_00
10
137.339
20
-176.010
30
0.0
0
VERTEX
8
SLAB_00
10
144.351
20
-176.392
30
0.0
0
VERTEX
8
SLAB_00
10
151.447
20
-176.466
30
0.0
0
VERTEX
8
SLAB_00
10
158.609
20
-176.223
30
0.0
0
VERTEX
8
SLAB_00
10
165.823
20
-175.656
30
0.0
0
VERTEX
8
SLAB_00
10
173.071
20
-174.760
30
0.0
0
VERTEX
8
SLAB_00
10
180.337
20
-173.530
30
0.0
0
VERTEX
8
SLAB_00
10
187.603
20
-171.961
30
0.0
0
VERTEX
8
SLAB_00
10
194.851
20
-170.051
30
0.0
0
VERTEX
8
SLAB_00
10
202.063
20
-167.799
30
0.0
0
VERTEX
8
SLAB_00
10
209.220
20
-165.203
30
0.0
0
VERTEX
8
SLAB_00
10
216.305
20
-162.263
30
0.0
0
VERTEX
8
SLAB_00
10
223.297
20
-158.981
30
0.0
0
VERTEX
8
SLAB_00
10
230.180
20
-155.361
30
0.0
0
VERTEX
8
SLAB_00
10
236.933
20
-151.404
30
0.0
0
VERTEX
8
SLAB_00
10
243.540
20
-147.117
30
0.0
0
VERTEX
8
SLAB_00
10
249.981
20
-142.505
30
0.0
0
VERTEX
8
SLAB_00
10
256.238
20
-137.575
30
0.0
0
VERTEX
8
SLAB_00
10
262.294
20
-132.335
30
0.0
0
VERTEX
8
SLAB_00
10
268.132
20
-126.795
30
0.0
0
VERTEX
8
SLAB_00
10
273.735
20
-120.965
30
0.0
0
VERTEX
8
SLAB_00
10
279.086
20
-114.856
30
0.0
0
VERTEX
8
SLAB_00
10
284.171
20
-108.480
30
0.0
0
VERTEX
8
SLAB_00
10
288.974
20
-101.850
30
0.0
0
VERTEX
8
SLAB_00
10
293.481
20
-94.981
30
0.0
0
VERTEX
8
SLAB_00
10
297.680
20
-87.888
30
0.0
0
VERTEX
8
SLAB_00
10
301.557
20
-80.585
30
0.0
0
VERTEX
8
SLAB_00
10
305.100
20
-73.091
30
0.0
0
VERTEX
8
SLAB_00
10
308.300
20
-65.421
30
0.0
0
VERTEX
8
SLAB_00
10
311.147
20
-57.594
30
0.0
0
VERTEX
8
SLAB_00
10
313.632
20
-49.628
30
0.0
0
VERTEX
8
SLAB_00
10
315.747
20
-41.542
30
0.0
0
VERTEX
8
SLAB_00
10
317.487
20
-33.356
30
0.0
0
VERTEX
8
SLAB_00
10
318.846
20
-25.088
30
0.0
0
VERTEX
8
SLAB_00
10
319.819
20
-16.759
30
0.0
0
VERTEX
8
SLAB_00
10
320.404
20
-8.390
30
0.0
0
SEQEND
8
SLAB_00
0
TEXT
8
TEXT
10
0.000
20
191.466
30
0.0
40
8.0
1
31: s'=+655 D=353
0
CIRCLE
8
DOWEL
10
15.000
20
18.000
30
0.0
40
3.250
0
TEXT
8
DOWEL
10
20.000
20
16.000
30
0.0
40
3.0
1
A
0
CIRCLE
8
DOWEL
10
15.000
20
-18.000
30
0.0
40
3.250
0
TEXT
8
DOWEL
10
20.000
20
-20.000
30
0.0
40
3.0
1
B
0
CIRCLE
8
DOWEL
10
45.000
20
18.000
30
0.0
40
3.250
0
TEXT
8
DOWEL
10
50.000
20
16.000
30
0.0
40
3.0
1
C
0
CIRCLE
8
DOWEL
10
45.000
20
-18.000
30
0.0
40
3.250
0
TEXT
8
DOWEL
10
50.000
20
-20.000
30
0.0
40
3.0
1
D
0
ENDSEC
0
EOF