0
SECTION
2
HEADER
9
$ACADVER
1
AC1009
9
$INSUNITS
70
4
0
ENDSEC
0
SECTION
2
TABLES
0
TABLE
2
LAYER
70
4
0
LAYER
2
0
70
0
62
7
6
CONTINUOUS
0
LAYER
2
TEXT
70
0
62
1
6
CONTINUOUS
0
LAYER
2
DOWEL
70
0
62
5
6
CONTINUOUS
0
LAYER
2
SLAB_00
70
0
62
2
6
CONTINUOUS
0
ENDTAB
0
ENDSEC
0
SECTION
2
ENTITIES
0
POLYLINE
8
SLAB_00
66
1
70
1
10
0.0
20
0.0
30
0.0
0
VERTEX
8
SLAB_00
10
314.818
20
0.000
30
0.0
0
VERTEX
8
SLAB_00
10
314.626
20
8.239
30
0.0
0
VERTEX
8
SLAB_00
10
314.052
20
16.457
30
0.0
0
VERTEX
8
SLAB_00
10
313.096
20
24.636
30
0.0
0
VERTEX
8
SLAB_00
10
311.762
20
32.754
30
0.0
0
VERTEX
8
SLAB_00
10
310.053
20
40.793
30
0.0
0
VERTEX
8
SLAB_00
10
307.976
20
48.733
30
0.0
0
VERTEX
8
SLAB_00
10
305.536
20
56.555
30
0.0
0
VERTEX
8
SLAB_00
10
302.741
20
64.241
30
0.0
0
VERTEX
8
SLAB_00
10
299.598
20
71.773
30
0.0
0
VERTEX
8
SLAB_00
10
296.118
20
79.132
30
0.0
0
VERTEX
8
SLAB_00
10
292.311
20
86.303
30
0.0
0
VERTEX
8
SLAB_00
10
288.189
20
93.268
30
0.0
0
VERTEX
8
SLAB_00
10
283.763
20
100.014
30
0.0
0
VERTEX
8
SLAB_00
10
279.046
20
106.524
30
0.0
0
VERTEX
8
SLAB_00
10
274.053
20
112.785
30
0.0
0
VERTEX
8
SLAB_00
10
268.798
20
118.784
30
0.0
0
VERTEX
8
SLAB_00
10
263.296
20
124.509
30
0.0
0
VERTEX
8
SLAB_00
10
257.564
20
129.949
30
0.0
0
VERTEX
8
SLAB_00
10
251.617
20
135.094
30
0.0
0
VERTEX
8
SLAB_00
10
245.472
20
139.935
30
0.0
0
VERTEX
8
SLAB_00
10
239.148
20
144.464
30
0.0
0
VERTEX
8
SLAB_00
10
232.661
20
148.674
30
0.0
0
VERTEX
8
SLAB_00
10
226.029
20
152.559
30
0.0
0
VERTEX
8
SLAB_00
10
219.270
20
156.114
30
0.0
0
VERTEX
8
SLAB_00
10
212.404
20
159.337
30
0.0
0
VERTEX
8
SLAB_00
10
205.447
20
162.223
30
0.0
0
VERTEX
8
SLAB_00
10
198.419
20
164.773
30
0.0
0
VERTEX
8
SLAB_00
10
191.337
20
166.985
30
0.0
0
VERTEX
8
SLAB_00
10
184.220
20
168.860
30
0.0
0
VERTEX
8
SLAB_00
10
177.085
20
170.400
30
0.0
0
VERTEX
8
SLAB_00
10
169.950
20
171.608
30
0.0
0
VERTEX
8
SLAB_00
10
162.833
20
172.488
30
0.0
0
VERTEX
8
SLAB_00
10
155.749
20
173.045
30
0.0
0
VERTEX
8
SLAB_00
10
148.716
20
173.283
30
0.0
0
VERTEX
8
SLAB_00
10
141.748
20
173.211
30
0.0
0
VERTEX
8
SLAB_00
10
134.862
20
172.835
30
0.0
0
VERTEX
8
SLAB_00
10
128.072
20
172.165
30
0.0
0
VERTEX
8
SLAB_00
10
121.391
20
171.208
30
0.0
0
VERTEX
8
SLAB_00
10
114.834
20
169.975
30
0.0
0
VERTEX
8
SLAB_00
10
108.411
20
168.477
30
0.0
0
VERTEX
8
SLAB_00
10
102.136
20
166.724
30
0.0
0
VERTEX
8
SLAB_00
10
96.018
20
164.728
30
0.0
0
VERTEX
8
SLAB_00
10
90.068
20
162.502
30
0.0
0
VERTEX
8
SLAB_00
10
84.294
20
160.058
30
0.0
0
VERTEX
8
SLAB_00
10
78.704
20
157.409
30
0.0
0
VERTEX
8
SLAB_00
10
73.307
20
154.568
30
0.0
0
VERTEX
8
SLAB_00
10
68.107
20
151.549
30
0.0
0
VERTEX
8
SLAB_00
10
63.111
20
148.365
30
0.0
0
VERTEX
8
SLAB_00
10
58.322
20
145.030
30
0.0
0
VERTEX
8
SLAB_00
10
53.744
20
141.558
30
0.0
0
VERTEX
8
SLAB_00
10
49.379
20
137.963
30
0.0
0
VERTEX
8
SLAB_00
10
45.230
20
134.258
30
0.0
0
VERTEX
8
SLAB_00
10
41.296
20
130.458
30
0.0
0
VERTEX
8
SLAB_00
10
37.578
20
126.574
30
0.0
0
VERTEX
8
SLAB_00
10
34.074
20
122.621
30
0.0
0
VERTEX
8
SLAB_00
10
30.783
20
118.611
30
0.0
0
VERTEX
8
SLAB_00
10
27.701
20
114.556
30
0.0
0
VERTEX
8
SLAB_00
10
24.826
20
110.468
30
0.0
0
VERTEX
8
SLAB_00
10
22.152
20
106.359
30
0.0
0
VERTEX
8
SLAB_00
10
19.676
20
102.240
30
0.0
0
VERTEX
8
SLAB_00
10
17.392
20
98.121
30
0.0
0
VERTEX
8
SLAB_00
10
15.293
20
94.011
30
0.0
0
VERTEX
8
SLAB_00
10
13.374
20
89.920
30
0.0
0
VERTEX
8
SLAB_00
10
11.626
20
85.857
30
0.0
0
VERTEX
8
SLAB_00
10
10.043
20
81.828
30
0.0
0
VERTEX
8
SLAB_00
10
8.616
20
77.841
30
0.0
0
VERTEX
8
SLAB_00
10
7.338
20
73.902
30
0.0
0
VERTEX
8
SLAB_00
10
6.200
20
70.017
30
0.0
0
VERTEX
8
SLAB_00
10
5.192
20
66.190
30
0.0
0
VERTEX
8
SLAB_00
10
4.308
20
62.426
30
0.0
0
VERTEX
8
SLAB_00
10
3.537
20
58.727
30
0.0
0
VERTEX
8
SLAB_00
10
2.871
20
55.096
30
0.0
0
VERTEX
8
SLAB_00
10
2.300
20
51.535
30
0.0
0
VERTEX
8
SLAB_00
10
1.817
20
48.044
30
0.0
0
VERTEX
8
SLAB_00
10
1.413
20
44.624
30
0.0
0
VERTEX
8
SLAB_00
10
1.078
20
41.275
30
0.0
0
VERTEX
8
SLAB_00
10
0.806
20
37.994
30
0.0
0
VERTEX
8
SLAB_00
10
0.588
20
34.780
30
0.0
0
VERTEX
8
SLAB_00
10
0.417
20
31.630
30
0.0
0
VERTEX
8
SLAB_00
10
0.286
20
28.542
30
0.0
0
VERTEX
8
SLAB_00
10
0.189
20
25.511
30
0.0
0
VERTEX
8
SLAB_00
10
0.118
20
22.534
30
0.0
0
VERTEX
8
SLAB_00
10
0.069
20
19.606
30
0.0
0
VERTEX
8
SLAB_00
10
0.038
20
16.721
30
0.0
0
VERTEX
8
SLAB_00
10
0.018
20
13.875
30
0.0
0
VERTEX
8
SLAB_00
10
0.007
20
11.060
30
0.0
0
VERTEX
8
SLAB_00
10
0.002
20
8.272
30
0.0
0
VERTEX
8
SLAB_00
10
0.000
20
5.504
30
0.0
0
VERTEX
8
SLAB_00
10
0.000
20
2.748
30
0.0
0
VERTEX
8
SLAB_00
10
0.000
20
0.000
30
0.0
0
VERTEX
8
SLAB_00
10
0.000
20
-2.748
30
0.0
0
VERTEX
8
SLAB_00
10
0.000
20
-5.504
30
0.0
0
VERTEX
8
SLAB_00
10
0.002
20
-8.272
30
0.0
0
VERTEX
8
SLAB_00
10
0.007
20
-11.060
30
0.0
0
VERTEX
8
SLAB_00
10
0.018
20
-13.875
30
0.0
0
VERTEX
8
SLAB_00
10
0.038
20
-16.721
30
0.0
0
VERTEX
8
SLAB_00
10
0.069
20
-19.606
30
0.0
0
VERTEX
8
SLAB_00
10
0.118
20
-22.534
30
0.0
0
VERTEX
8
SLAB_00
10
0.189
20
-25.511
30
0.0
0
VERTEX
8
SLAB_00
10
0.286
20
-28.542
30
0.0
0
VERTEX
8
SLAB_00
10
0.417
20
-31.630
30
0.0
0
VERTEX
8
SLAB_00
10
0.588
20
-34.780
30
0.0
0
VERTEX
8
SLAB_00
10
0.806
20
-37.994
30
0.0
0
VERTEX
8
SLAB_00
10
1.078
20
-41.275
30
0.0
0
VERTEX
8
SLAB_00
10
1.413
20
-44.624
30
0.0
0
VERTEX
8
SLAB_00
10
1.817
20
-48.044
30
0.0
0
VERTEX
8
SLAB_00
10
2.300
20
-51.535
30
0.0
0
VERTEX
8
SLAB_00
10
2.871
20
-55.096
30
0.0
0
VERTEX
8
SLAB_00
10
3.537
20
-58.727
30
0.0
0
VERTEX
8
SLAB_00
10
4.308
20
-62.426
30
0.0
0
VERTEX
8
SLAB_00
10
5.192
20
-66.190
30
0.0
0
VERTEX
8
SLAB_00
10
6.200
20
-70.017
30
0.0
0
VERTEX
8
SLAB_00
10
7.338
20
-73.902
30
0.0
0
VERTEX
8
SLAB_00
10
8.616
20
-77.841
30
0.0
0
VERTEX
8
SLAB_00
10
10.043
20
-81.828
30
0.0
0
VERTEX
8
SLAB_00
10
11.626
20
-85.857
30
0.0
0
VERTEX
8
SLAB_00
10
13.374
20
-89.920
30
0.0
0
VERTEX
8
SLAB_00
10
15.293
20
-94.011
30
0.0
0
VERTEX
8
SLAB_00
10
17.392
20
-98.121
30
0.0
0
VERTEX
8
SLAB_00
10
19.676
20
-102.240
30
0.0
0
VERTEX
8
SLAB_00
10
22.152
20
-106.359
30
0.0
0
VERTEX
8
SLAB_00
10
24.826
20
-110.468
30
0.0
0
VERTEX
8
SLAB_00
10
27.701
20
-114.556
30
0.0
0
VERTEX
8
SLAB_00
10
30.783
20
-118.611
30
0.0
0
VERTEX
8
SLAB_00
10
34.074
20
-122.621
30
0.0
0
VERTEX
8
SLAB_00
10
37.578
20
-126.574
30
0.0
0
VERTEX
8
SLAB_00
10
41.296
20
-130.458
30
0.0
0
VERTEX
8
SLAB_00
10
45.230
20
-134.258
30
0.0
0
VERTEX
8
SLAB_00
10
49.379
20
-137.963
30
0.0
0
VERTEX
8
SLAB_00
10
53.744
20
-141.558
30
0.0
0
VERTEX
8
SLAB_00
10
58.322
20
-145.030
30
0.0
0
VERTEX
8
SLAB_00
10
63.111
20
-148.365
30
0.0
0
VERTEX
8
SLAB_00
10
68.107
20
-151.549
30
0.0
0
VERTEX
8
SLAB_00
10
73.307
20
-154.568
30
0.0
0
VERTEX
8
SLAB_00
10
78.704
20
-157.409
30
0.0
0
VERTEX
8
SLAB_00
10
84.294
20
-160.058
30
0.0
0
VERTEX
8
SLAB_00
10
90.068
20
-162.502
30
0.0
0
VERTEX
8
SLAB_00
10
96.018
20
-164.728
30
0.0
0
VERTEX
8
SLAB_00
10
102.136
20
-166.724
30
0.0
0
VERTEX
8
SLAB_00
10
108.411
20
-168.477
30
0.0
0
VERTEX
8
SLAB_00
10
114.834
20
-169.975
30
0.0
0
VERTEX
8
SLAB_00
10
121.391
20
-171.208
30
0.0
0
VERTEX
8
SLAB_00
10
128.072
20
-172.165
30
0.0
0
VERTEX
8
SLAB_00
10
134.862
20
-172.835
30
0.0
0
VERTEX
8
SLAB_00
10
141.748
20
-173.211
30
0.0
0
VERTEX
8
SLAB_00
10
148.716
20
-173.283
30
0.0
0
VERTEX
8
SLAB_00
10
155.749
20
-173.045
30
0.0
0
VERTEX
8
SLAB_00
10
162.833
20
-172.488
30
0.0
0
VERTEX
8
SLAB_00
10
169.950
20
-171.608
30
0.0
0
VERTEX
8
SLAB_00
10
177.085
20
-170.400
30
0.0
0
VERTEX
8
SLAB_00
10
184.220
20
-168.860
30
0.0
0
VERTEX
8
SLAB_00
10
191.337
20
-166.985
30
0.0
0
VERTEX
8
SLAB_00
10
198.419
20
-164.773
30
0.0
0
VERTEX
8
SLAB_00
10
205.447
20
-162.223
30
0.0
0
VERTEX
8
SLAB_00
10
212.404
20
-159.337
30
0.0
0
VERTEX
8
SLAB_00
10
219.270
20
-156.114
30
0.0
0
VERTEX
8
SLAB_00
10
226.029
20
-152.559
30
0.0
0
VERTEX
8
SLAB_00
10
232.661
20
-148.674
30
0.0
0
VERTEX
8
SLAB_00
10
239.148
20
-144.464
30
0.0
0
VERTEX
8
SLAB_00
10
245.472
20
-139.935
30
0.0
0
VERTEX
8
SLAB_00
10
251.617
20
-135.094
30
0.0
0
VERTEX
8
SLAB_00
10
257.564
20
-129.949
30
0.0
0
VERTEX
8
SLAB_00
10
263.296
20
-124.509
30
0.0
0
VERTEX
8
SLAB_00
10
268.798
20
-118.784
30
0.0
0
VERTEX
8
SLAB_00
10
274.053
20
-112.785
30
0.0
0
VERTEX
8
SLAB_00
10
279.046
20
-106.524
30
0.0
0
VERTEX
8
SLAB_00
10
283.763
20
-100.014
30
0.0
0
VERTEX
8
SLAB_00
10
288.189
20
-93.268
30
0.0
0
VERTEX
8
SLAB_00
10
292.311
20
-86.303
30
0.0
0
VERTEX
8
SLAB_00
10
296.118
20
-79.132
30
0.0
0
VERTEX
8
SLAB_00
10
299.598
20
-71.773
30
0.0
0
VERTEX
8
SLAB_00
10
302.741
20
-64.241
30
0.0
0
VERTEX
8
SLAB_00
10
305.536
20
-56.555
30
0.0
0
VERTEX
8
SLAB_00
10
307.976
20
-48.733
30
0.0
0
VERTEX
8
SLAB_00
10
310.053
20
-40.793
30
0.0
0
VERTEX
8
SLAB_00
10
311.762
20
-32.754
30
0.0
0
VERTEX
8
SLAB_00
10
313.096
20
-24.636
30
0.0
0
VERTEX
8
SLAB_00
10
314.052
20
-16.457
30
0.0
0
VERTEX
8
SLAB_00
10
314.626
20
-8.239
30
0.0
0
SEQEND
8
SLAB_00
0
TEXT
8
TEXT
10
0.000
20
188.283
30
0.0
40
8.0
1
33: s'=+706 D=347
0
CIRCLE
8
DOWEL
10
15.000
20
18.000
30
0.0
40
3.250
0
TEXT
8
DOWEL
10
20.000
20
16.000
30
0.0
40
3.0
1
A
0
CIRCLE
8
DOWEL
10
15.000
20
-18.000
30
0.0
40
3.250
0
TEXT
8
DOWEL
10
20.000
20
-20.000
30
0.0
40
3.0
1
B
0
CIRCLE
8
DOWEL
10
45.000
20
18.000
30
0.0
40
3.250
0
TEXT
8
DOWEL
10
50.000
20
16.000
30
0.0
40
3.0
1
C
0
CIRCLE
8
DOWEL
10
45.000
20
-18.000
30
0.0
40
3.250
0
TEXT
8
DOWEL
10
50.000
20
-20.000
30
0.0
40
3.0
1
D
0
ENDSEC
0
EOF