0
SECTION
2
HEADER
9
$ACADVER
1
AC1009
9
$INSUNITS
70
4
0
ENDSEC
0
SECTION
2
TABLES
0
TABLE
2
LAYER
70
4
0
LAYER
2
0
70
0
62
7
6
CONTINUOUS
0
LAYER
2
TEXT
70
0
62
1
6
CONTINUOUS
0
LAYER
2
DOWEL
70
0
62
5
6
CONTINUOUS
0
LAYER
2
SLAB_00
70
0
62
2
6
CONTINUOUS
0
ENDTAB
0
ENDSEC
0
SECTION
2
ENTITIES
0
POLYLINE
8
SLAB_00
66
1
70
1
10
0.0
20
0.0
30
0.0
0
VERTEX
8
SLAB_00
10
303.209
20
0.000
30
0.0
0
VERTEX
8
SLAB_00
10
303.024
20
7.935
30
0.0
0
VERTEX
8
SLAB_00
10
302.471
20
15.850
30
0.0
0
VERTEX
8
SLAB_00
10
301.550
20
23.727
30
0.0
0
VERTEX
8
SLAB_00
10
300.265
20
31.546
30
0.0
0
VERTEX
8
SLAB_00
10
298.620
20
39.289
30
0.0
0
VERTEX
8
SLAB_00
10
296.619
20
46.936
30
0.0
0
VERTEX
8
SLAB_00
10
294.269
20
54.470
30
0.0
0
VERTEX
8
SLAB_00
10
291.577
20
61.872
30
0.0
0
VERTEX
8
SLAB_00
10
288.550
20
69.126
30
0.0
0
VERTEX
8
SLAB_00
10
285.199
20
76.214
30
0.0
0
VERTEX
8
SLAB_00
10
281.532
20
83.120
30
0.0
0
VERTEX
8
SLAB_00
10
277.562
20
89.829
30
0.0
0
VERTEX
8
SLAB_00
10
273.299
20
96.326
30
0.0
0
VERTEX
8
SLAB_00
10
268.756
20
102.595
30
0.0
0
VERTEX
8
SLAB_00
10
263.947
20
108.626
30
0.0
0
VERTEX
8
SLAB_00
10
258.886
20
114.403
30
0.0
0
VERTEX
8
SLAB_00
10
253.587
20
119.917
30
0.0
0
VERTEX
8
SLAB_00
10
248.066
20
125.157
30
0.0
0
VERTEX
8
SLAB_00
10
242.338
20
130.112
30
0.0
0
VERTEX
8
SLAB_00
10
236.421
20
134.775
30
0.0
0
VERTEX
8
SLAB_00
10
230.329
20
139.137
30
0.0
0
VERTEX
8
SLAB_00
10
224.081
20
143.191
30
0.0
0
VERTEX
8
SLAB_00
10
217.694
20
146.933
30
0.0
0
VERTEX
8
SLAB_00
10
211.185
20
150.358
30
0.0
0
VERTEX
8
SLAB_00
10
204.571
20
153.461
30
0.0
0
VERTEX
8
SLAB_00
10
197.871
20
156.241
30
0.0
0
VERTEX
8
SLAB_00
10
191.102
20
158.697
30
0.0
0
VERTEX
8
SLAB_00
10
184.282
20
160.827
30
0.0
0
VERTEX
8
SLAB_00
10
177.427
20
162.633
30
0.0
0
VERTEX
8
SLAB_00
10
170.555
20
164.117
30
0.0
0
VERTEX
8
SLAB_00
10
163.683
20
165.280
30
0.0
0
VERTEX
8
SLAB_00
10
156.828
20
166.128
30
0.0
0
VERTEX
8
SLAB_00
10
150.006
20
166.664
30
0.0
0
VERTEX
8
SLAB_00
10
143.232
20
166.894
30
0.0
0
VERTEX
8
SLAB_00
10
136.521
20
166.824
30
0.0
0
VERTEX
8
SLAB_00
10
129.889
20
166.462
30
0.0
0
VERTEX
8
SLAB_00
10
123.349
20
165.816
30
0.0
0
VERTEX
8
SLAB_00
10
116.915
20
164.895
30
0.0
0
VERTEX
8
SLAB_00
10
110.599
20
163.707
30
0.0
0
VERTEX
8
SLAB_00
10
104.414
20
162.264
30
0.0
0
VERTEX
8
SLAB_00
10
98.370
20
160.576
30
0.0
0
VERTEX
8
SLAB_00
10
92.477
20
158.654
30
0.0
0
VERTEX
8
SLAB_00
10
86.746
20
156.510
30
0.0
0
VERTEX
8
SLAB_00
10
81.185
20
154.156
30
0.0
0
VERTEX
8
SLAB_00
10
75.802
20
151.604
30
0.0
0
VERTEX
8
SLAB_00
10
70.604
20
148.868
30
0.0
0
VERTEX
8
SLAB_00
10
65.596
20
145.960
30
0.0
0
VERTEX
8
SLAB_00
10
60.783
20
142.894
30
0.0
0
VERTEX
8
SLAB_00
10
56.171
20
139.682
30
0.0
0
VERTEX
8
SLAB_00
10
51.762
20
136.338
30
0.0
0
VERTEX
8
SLAB_00
10
47.559
20
132.876
30
0.0
0
VERTEX
8
SLAB_00
10
43.562
20
129.308
30
0.0
0
VERTEX
8
SLAB_00
10
39.774
20
125.647
30
0.0
0
VERTEX
8
SLAB_00
10
36.192
20
121.907
30
0.0
0
VERTEX
8
SLAB_00
10
32.818
20
118.099
30
0.0
0
VERTEX
8
SLAB_00
10
29.648
20
114.237
30
0.0
0
VERTEX
8
SLAB_00
10
26.679
20
110.332
30
0.0
0
VERTEX
8
SLAB_00
10
23.910
20
106.395
30
0.0
0
VERTEX
8
SLAB_00
10
21.335
20
102.437
30
0.0
0
VERTEX
8
SLAB_00
10
18.951
20
98.470
30
0.0
0
VERTEX
8
SLAB_00
10
16.750
20
94.503
30
0.0
0
VERTEX
8
SLAB_00
10
14.729
20
90.545
30
0.0
0
VERTEX
8
SLAB_00
10
12.880
20
86.605
30
0.0
0
VERTEX
8
SLAB_00
10
11.197
20
82.691
30
0.0
0
VERTEX
8
SLAB_00
10
9.672
20
78.810
30
0.0
0
VERTEX
8
SLAB_00
10
8.298
20
74.971
30
0.0
0
VERTEX
8
SLAB_00
10
7.067
20
71.177
30
0.0
0
VERTEX
8
SLAB_00
10
5.971
20
67.435
30
0.0
0
VERTEX
8
SLAB_00
10
5.001
20
63.750
30
0.0
0
VERTEX
8
SLAB_00
10
4.149
20
60.124
30
0.0
0
VERTEX
8
SLAB_00
10
3.407
20
56.562
30
0.0
0
VERTEX
8
SLAB_00
10
2.765
20
53.065
30
0.0
0
VERTEX
8
SLAB_00
10
2.216
20
49.635
30
0.0
0
VERTEX
8
SLAB_00
10
1.750
20
46.273
30
0.0
0
VERTEX
8
SLAB_00
10
1.361
20
42.979
30
0.0
0
VERTEX
8
SLAB_00
10
1.039
20
39.753
30
0.0
0
VERTEX
8
SLAB_00
10
0.776
20
36.593
30
0.0
0
VERTEX
8
SLAB_00
10
0.567
20
33.497
30
0.0
0
VERTEX
8
SLAB_00
10
0.402
20
30.464
30
0.0
0
VERTEX
8
SLAB_00
10
0.276
20
27.489
30
0.0
0
VERTEX
8
SLAB_00
10
0.182
20
24.571
30
0.0
0
VERTEX
8
SLAB_00
10
0.114
20
21.703
30
0.0
0
VERTEX
8
SLAB_00
10
0.067
20
18.883
30
0.0
0
VERTEX
8
SLAB_00
10
0.036
20
16.105
30
0.0
0
VERTEX
8
SLAB_00
10
0.017
20
13.363
30
0.0
0
VERTEX
8
SLAB_00
10
0.007
20
10.652
30
0.0
0
VERTEX
8
SLAB_00
10
0.002
20
7.967
30
0.0
0
VERTEX
8
SLAB_00
10
0.000
20
5.301
30
0.0
0
VERTEX
8
SLAB_00
10
0.000
20
2.647
30
0.0
0
VERTEX
8
SLAB_00
10
0.000
20
0.000
30
0.0
0
VERTEX
8
SLAB_00
10
0.000
20
-2.647
30
0.0
0
VERTEX
8
SLAB_00
10
0.000
20
-5.301
30
0.0
0
VERTEX
8
SLAB_00
10
0.002
20
-7.967
30
0.0
0
VERTEX
8
SLAB_00
10
0.007
20
-10.652
30
0.0
0
VERTEX
8
SLAB_00
10
0.017
20
-13.363
30
0.0
0
VERTEX
8
SLAB_00
10
0.036
20
-16.105
30
0.0
0
VERTEX
8
SLAB_00
10
0.067
20
-18.883
30
0.0
0
VERTEX
8
SLAB_00
10
0.114
20
-21.703
30
0.0
0
VERTEX
8
SLAB_00
10
0.182
20
-24.571
30
0.0
0
VERTEX
8
SLAB_00
10
0.276
20
-27.489
30
0.0
0
VERTEX
8
SLAB_00
10
0.402
20
-30.464
30
0.0
0
VERTEX
8
SLAB_00
10
0.567
20
-33.497
30
0.0
0
VERTEX
8
SLAB_00
10
0.776
20
-36.593
30
0.0
0
VERTEX
8
SLAB_00
10
1.039
20
-39.753
30
0.0
0
VERTEX
8
SLAB_00
10
1.361
20
-42.979
30
0.0
0
VERTEX
8
SLAB_00
10
1.750
20
-46.273
30
0.0
0
VERTEX
8
SLAB_00
10
2.216
20
-49.635
30
0.0
0
VERTEX
8
SLAB_00
10
2.765
20
-53.065
30
0.0
0
VERTEX
8
SLAB_00
10
3.407
20
-56.562
30
0.0
0
VERTEX
8
SLAB_00
10
4.149
20
-60.124
30
0.0
0
VERTEX
8
SLAB_00
10
5.001
20
-63.750
30
0.0
0
VERTEX
8
SLAB_00
10
5.971
20
-67.435
30
0.0
0
VERTEX
8
SLAB_00
10
7.067
20
-71.177
30
0.0
0
VERTEX
8
SLAB_00
10
8.298
20
-74.971
30
0.0
0
VERTEX
8
SLAB_00
10
9.672
20
-78.810
30
0.0
0
VERTEX
8
SLAB_00
10
11.197
20
-82.691
30
0.0
0
VERTEX
8
SLAB_00
10
12.880
20
-86.605
30
0.0
0
VERTEX
8
SLAB_00
10
14.729
20
-90.545
30
0.0
0
VERTEX
8
SLAB_00
10
16.750
20
-94.503
30
0.0
0
VERTEX
8
SLAB_00
10
18.951
20
-98.470
30
0.0
0
VERTEX
8
SLAB_00
10
21.335
20
-102.437
30
0.0
0
VERTEX
8
SLAB_00
10
23.910
20
-106.395
30
0.0
0
VERTEX
8
SLAB_00
10
26.679
20
-110.332
30
0.0
0
VERTEX
8
SLAB_00
10
29.648
20
-114.237
30
0.0
0
VERTEX
8
SLAB_00
10
32.818
20
-118.099
30
0.0
0
VERTEX
8
SLAB_00
10
36.192
20
-121.907
30
0.0
0
VERTEX
8
SLAB_00
10
39.774
20
-125.647
30
0.0
0
VERTEX
8
SLAB_00
10
43.562
20
-129.308
30
0.0
0
VERTEX
8
SLAB_00
10
47.559
20
-132.876
30
0.0
0
VERTEX
8
SLAB_00
10
51.762
20
-136.338
30
0.0
0
VERTEX
8
SLAB_00
10
56.171
20
-139.682
30
0.0
0
VERTEX
8
SLAB_00
10
60.783
20
-142.894
30
0.0
0
VERTEX
8
SLAB_00
10
65.596
20
-145.960
30
0.0
0
VERTEX
8
SLAB_00
10
70.604
20
-148.868
30
0.0
0
VERTEX
8
SLAB_00
10
75.802
20
-151.604
30
0.0
0
VERTEX
8
SLAB_00
10
81.185
20
-154.156
30
0.0
0
VERTEX
8
SLAB_00
10
86.746
20
-156.510
30
0.0
0
VERTEX
8
SLAB_00
10
92.477
20
-158.654
30
0.0
0
VERTEX
8
SLAB_00
10
98.370
20
-160.576
30
0.0
0
VERTEX
8
SLAB_00
10
104.414
20
-162.264
30
0.0
0
VERTEX
8
SLAB_00
10
110.599
20
-163.707
30
0.0
0
VERTEX
8
SLAB_00
10
116.915
20
-164.895
30
0.0
0
VERTEX
8
SLAB_00
10
123.349
20
-165.816
30
0.0
0
VERTEX
8
SLAB_00
10
129.889
20
-166.462
30
0.0
0
VERTEX
8
SLAB_00
10
136.521
20
-166.824
30
0.0
0
VERTEX
8
SLAB_00
10
143.232
20
-166.894
30
0.0
0
VERTEX
8
SLAB_00
10
150.006
20
-166.664
30
0.0
0
VERTEX
8
SLAB_00
10
156.828
20
-166.128
30
0.0
0
VERTEX
8
SLAB_00
10
163.683
20
-165.280
30
0.0
0
VERTEX
8
SLAB_00
10
170.555
20
-164.117
30
0.0
0
VERTEX
8
SLAB_00
10
177.427
20
-162.633
30
0.0
0
VERTEX
8
SLAB_00
10
184.282
20
-160.827
30
0.0
0
VERTEX
8
SLAB_00
10
191.102
20
-158.697
30
0.0
0
VERTEX
8
SLAB_00
10
197.871
20
-156.241
30
0.0
0
VERTEX
8
SLAB_00
10
204.571
20
-153.461
30
0.0
0
VERTEX
8
SLAB_00
10
211.185
20
-150.358
30
0.0
0
VERTEX
8
SLAB_00
10
217.694
20
-146.933
30
0.0
0
VERTEX
8
SLAB_00
10
224.081
20
-143.191
30
0.0
0
VERTEX
8
SLAB_00
10
230.329
20
-139.137
30
0.0
0
VERTEX
8
SLAB_00
10
236.421
20
-134.775
30
0.0
0
VERTEX
8
SLAB_00
10
242.338
20
-130.112
30
0.0
0
VERTEX
8
SLAB_00
10
248.066
20
-125.157
30
0.0
0
VERTEX
8
SLAB_00
10
253.587
20
-119.917
30
0.0
0
VERTEX
8
SLAB_00
10
258.886
20
-114.403
30
0.0
0
VERTEX
8
SLAB_00
10
263.947
20
-108.626
30
0.0
0
VERTEX
8
SLAB_00
10
268.756
20
-102.595
30
0.0
0
VERTEX
8
SLAB_00
10
273.299
20
-96.326
30
0.0
0
VERTEX
8
SLAB_00
10
277.562
20
-89.829
30
0.0
0
VERTEX
8
SLAB_00
10
281.532
20
-83.120
30
0.0
0
VERTEX
8
SLAB_00
10
285.199
20
-76.214
30
0.0
0
VERTEX
8
SLAB_00
10
288.550
20
-69.126
30
0.0
0
VERTEX
8
SLAB_00
10
291.577
20
-61.872
30
0.0
0
VERTEX
8
SLAB_00
10
294.269
20
-54.470
30
0.0
0
VERTEX
8
SLAB_00
10
296.619
20
-46.936
30
0.0
0
VERTEX
8
SLAB_00
10
298.620
20
-39.289
30
0.0
0
VERTEX
8
SLAB_00
10
300.265
20
-31.546
30
0.0
0
VERTEX
8
SLAB_00
10
301.550
20
-23.727
30
0.0
0
VERTEX
8
SLAB_00
10
302.471
20
-15.850
30
0.0
0
VERTEX
8
SLAB_00
10
303.024
20
-7.935
30
0.0
0
SEQEND
8
SLAB_00
0
TEXT
8
TEXT
10
0.000
20
181.894
30
0.0
40
8.0
1
16: s'=+300 D=334
0
CIRCLE
8
DOWEL
10
15.000
20
18.000
30
0.0
40
3.250
0
TEXT
8
DOWEL
10
20.000
20
16.000
30
0.0
40
3.0
1
A
0
CIRCLE
8
DOWEL
10
15.000
20
-18.000
30
0.0
40
3.250
0
TEXT
8
DOWEL
10
20.000
20
-20.000
30
0.0
40
3.0
1
B
0
CIRCLE
8
DOWEL
10
45.000
20
18.000
30
0.0
40
3.250
0
TEXT
8
DOWEL
10
50.000
20
16.000
30
0.0
40
3.0
1
C
0
CIRCLE
8
DOWEL
10
45.000
20
-18.000
30
0.0
40
3.250
0
TEXT
8
DOWEL
10
50.000
20
-20.000
30
0.0
40
3.0
1
D
0
ENDSEC
0
EOF