0
SECTION
2
HEADER
9
$ACADVER
1
AC1009
9
$INSUNITS
70
4
0
ENDSEC
0
SECTION
2
TABLES
0
TABLE
2
LAYER
70
4
0
LAYER
2
0
70
0
62
7
6
CONTINUOUS
0
LAYER
2
TEXT
70
0
62
1
6
CONTINUOUS
0
LAYER
2
DOWEL
70
0
62
5
6
CONTINUOUS
0
LAYER
2
SLAB_00
70
0
62
2
6
CONTINUOUS
0
ENDTAB
0
ENDSEC
0
SECTION
2
ENTITIES
0
POLYLINE
8
SLAB_00
66
1
70
1
10
0.0
20
0.0
30
0.0
0
VERTEX
8
SLAB_00
10
317.933
20
0.000
30
0.0
0
VERTEX
8
SLAB_00
10
317.740
20
8.320
30
0.0
0
VERTEX
8
SLAB_00
10
317.159
20
16.620
30
0.0
0
VERTEX
8
SLAB_00
10
316.194
20
24.879
30
0.0
0
VERTEX
8
SLAB_00
10
314.847
20
33.078
30
0.0
0
VERTEX
8
SLAB_00
10
313.122
20
41.197
30
0.0
0
VERTEX
8
SLAB_00
10
311.024
20
49.215
30
0.0
0
VERTEX
8
SLAB_00
10
308.560
20
57.115
30
0.0
0
VERTEX
8
SLAB_00
10
305.737
20
64.877
30
0.0
0
VERTEX
8
SLAB_00
10
302.563
20
72.483
30
0.0
0
VERTEX
8
SLAB_00
10
299.049
20
79.915
30
0.0
0
VERTEX
8
SLAB_00
10
295.204
20
87.157
30
0.0
0
VERTEX
8
SLAB_00
10
291.041
20
94.191
30
0.0
0
VERTEX
8
SLAB_00
10
286.571
20
101.003
30
0.0
0
VERTEX
8
SLAB_00
10
281.808
20
107.578
30
0.0
0
VERTEX
8
SLAB_00
10
276.765
20
113.901
30
0.0
0
VERTEX
8
SLAB_00
10
271.458
20
119.959
30
0.0
0
VERTEX
8
SLAB_00
10
265.902
20
125.741
30
0.0
0
VERTEX
8
SLAB_00
10
260.113
20
131.235
30
0.0
0
VERTEX
8
SLAB_00
10
254.107
20
136.431
30
0.0
0
VERTEX
8
SLAB_00
10
247.902
20
141.320
30
0.0
0
VERTEX
8
SLAB_00
10
241.514
20
145.893
30
0.0
0
VERTEX
8
SLAB_00
10
234.963
20
150.145
30
0.0
0
VERTEX
8
SLAB_00
10
228.266
20
154.069
30
0.0
0
VERTEX
8
SLAB_00
10
221.440
20
157.659
30
0.0
0
VERTEX
8
SLAB_00
10
214.506
20
160.913
30
0.0
0
VERTEX
8
SLAB_00
10
207.480
20
163.829
30
0.0
0
VERTEX
8
SLAB_00
10
200.382
20
166.403
30
0.0
0
VERTEX
8
SLAB_00
10
193.231
20
168.637
30
0.0
0
VERTEX
8
SLAB_00
10
186.043
20
170.531
30
0.0
0
VERTEX
8
SLAB_00
10
178.838
20
172.087
30
0.0
0
VERTEX
8
SLAB_00
10
171.632
20
173.307
30
0.0
0
VERTEX
8
SLAB_00
10
164.444
20
174.195
30
0.0
0
VERTEX
8
SLAB_00
10
157.290
20
174.757
30
0.0
0
VERTEX
8
SLAB_00
10
150.187
20
174.998
30
0.0
0
VERTEX
8
SLAB_00
10
143.151
20
174.925
30
0.0
0
VERTEX
8
SLAB_00
10
136.197
20
174.546
30
0.0
0
VERTEX
8
SLAB_00
10
129.339
20
173.868
30
0.0
0
VERTEX
8
SLAB_00
10
122.593
20
172.902
30
0.0
0
VERTEX
8
SLAB_00
10
115.970
20
171.657
30
0.0
0
VERTEX
8
SLAB_00
10
109.484
20
170.144
30
0.0
0
VERTEX
8
SLAB_00
10
103.147
20
168.374
30
0.0
0
VERTEX
8
SLAB_00
10
96.968
20
166.359
30
0.0
0
VERTEX
8
SLAB_00
10
90.959
20
164.110
30
0.0
0
VERTEX
8
SLAB_00
10
85.128
20
161.642
30
0.0
0
VERTEX
8
SLAB_00
10
79.483
20
158.967
30
0.0
0
VERTEX
8
SLAB_00
10
74.032
20
156.098
30
0.0
0
VERTEX
8
SLAB_00
10
68.781
20
153.049
30
0.0
0
VERTEX
8
SLAB_00
10
63.735
20
149.833
30
0.0
0
VERTEX
8
SLAB_00
10
58.899
20
146.465
30
0.0
0
VERTEX
8
SLAB_00
10
54.276
20
142.959
30
0.0
0
VERTEX
8
SLAB_00
10
49.868
20
139.329
30
0.0
0
VERTEX
8
SLAB_00
10
45.678
20
135.587
30
0.0
0
VERTEX
8
SLAB_00
10
41.705
20
131.749
30
0.0
0
VERTEX
8
SLAB_00
10
37.950
20
127.827
30
0.0
0
VERTEX
8
SLAB_00
10
34.411
20
123.834
30
0.0
0
VERTEX
8
SLAB_00
10
31.087
20
119.784
30
0.0
0
VERTEX
8
SLAB_00
10
27.975
20
115.689
30
0.0
0
VERTEX
8
SLAB_00
10
25.071
20
111.561
30
0.0
0
VERTEX
8
SLAB_00
10
22.371
20
107.412
30
0.0
0
VERTEX
8
SLAB_00
10
19.871
20
103.252
30
0.0
0
VERTEX
8
SLAB_00
10
17.564
20
99.092
30
0.0
0
VERTEX
8
SLAB_00
10
15.444
20
94.942
30
0.0
0
VERTEX
8
SLAB_00
10
13.506
20
90.810
30
0.0
0
VERTEX
8
SLAB_00
10
11.741
20
86.706
30
0.0
0
VERTEX
8
SLAB_00
10
10.142
20
82.638
30
0.0
0
VERTEX
8
SLAB_00
10
8.701
20
78.611
30
0.0
0
VERTEX
8
SLAB_00
10
7.411
20
74.634
30
0.0
0
VERTEX
8
SLAB_00
10
6.261
20
70.710
30
0.0
0
VERTEX
8
SLAB_00
10
5.244
20
66.846
30
0.0
0
VERTEX
8
SLAB_00
10
4.351
20
63.044
30
0.0
0
VERTEX
8
SLAB_00
10
3.572
20
59.309
30
0.0
0
VERTEX
8
SLAB_00
10
2.899
20
55.642
30
0.0
0
VERTEX
8
SLAB_00
10
2.323
20
52.045
30
0.0
0
VERTEX
8
SLAB_00
10
1.835
20
48.520
30
0.0
0
VERTEX
8
SLAB_00
10
1.427
20
45.066
30
0.0
0
VERTEX
8
SLAB_00
10
1.089
20
41.683
30
0.0
0
VERTEX
8
SLAB_00
10
0.814
20
38.370
30
0.0
0
VERTEX
8
SLAB_00
10
0.594
20
35.124
30
0.0
0
VERTEX
8
SLAB_00
10
0.421
20
31.943
30
0.0
0
VERTEX
8
SLAB_00
10
0.289
20
28.824
30
0.0
0
VERTEX
8
SLAB_00
10
0.190
20
25.764
30
0.0
0
VERTEX
8
SLAB_00
10
0.119
20
22.757
30
0.0
0
VERTEX
8
SLAB_00
10
0.070
20
19.800
30
0.0
0
VERTEX
8
SLAB_00
10
0.038
20
16.887
30
0.0
0
VERTEX
8
SLAB_00
10
0.018
20
14.012
30
0.0
0
VERTEX
8
SLAB_00
10
0.008
20
11.170
30
0.0
0
VERTEX
8
SLAB_00
10
0.002
20
8.354
30
0.0
0
VERTEX
8
SLAB_00
10
0.000
20
5.558
30
0.0
0
VERTEX
8
SLAB_00
10
0.000
20
2.776
30
0.0
0
VERTEX
8
SLAB_00
10
0.000
20
0.000
30
0.0
0
VERTEX
8
SLAB_00
10
0.000
20
-2.776
30
0.0
0
VERTEX
8
SLAB_00
10
0.000
20
-5.558
30
0.0
0
VERTEX
8
SLAB_00
10
0.002
20
-8.354
30
0.0
0
VERTEX
8
SLAB_00
10
0.008
20
-11.170
30
0.0
0
VERTEX
8
SLAB_00
10
0.018
20
-14.012
30
0.0
0
VERTEX
8
SLAB_00
10
0.038
20
-16.887
30
0.0
0
VERTEX
8
SLAB_00
10
0.070
20
-19.800
30
0.0
0
VERTEX
8
SLAB_00
10
0.119
20
-22.757
30
0.0
0
VERTEX
8
SLAB_00
10
0.190
20
-25.764
30
0.0
0
VERTEX
8
SLAB_00
10
0.289
20
-28.824
30
0.0
0
VERTEX
8
SLAB_00
10
0.421
20
-31.943
30
0.0
0
VERTEX
8
SLAB_00
10
0.594
20
-35.124
30
0.0
0
VERTEX
8
SLAB_00
10
0.814
20
-38.370
30
0.0
0
VERTEX
8
SLAB_00
10
1.089
20
-41.683
30
0.0
0
VERTEX
8
SLAB_00
10
1.427
20
-45.066
30
0.0
0
VERTEX
8
SLAB_00
10
1.835
20
-48.520
30
0.0
0
VERTEX
8
SLAB_00
10
2.323
20
-52.045
30
0.0
0
VERTEX
8
SLAB_00
10
2.899
20
-55.642
30
0.0
0
VERTEX
8
SLAB_00
10
3.572
20
-59.309
30
0.0
0
VERTEX
8
SLAB_00
10
4.351
20
-63.044
30
0.0
0
VERTEX
8
SLAB_00
10
5.244
20
-66.846
30
0.0
0
VERTEX
8
SLAB_00
10
6.261
20
-70.710
30
0.0
0
VERTEX
8
SLAB_00
10
7.411
20
-74.634
30
0.0
0
VERTEX
8
SLAB_00
10
8.701
20
-78.611
30
0.0
0
VERTEX
8
SLAB_00
10
10.142
20
-82.638
30
0.0
0
VERTEX
8
SLAB_00
10
11.741
20
-86.706
30
0.0
0
VERTEX
8
SLAB_00
10
13.506
20
-90.810
30
0.0
0
VERTEX
8
SLAB_00
10
15.444
20
-94.942
30
0.0
0
VERTEX
8
SLAB_00
10
17.564
20
-99.092
30
0.0
0
VERTEX
8
SLAB_00
10
19.871
20
-103.252
30
0.0
0
VERTEX
8
SLAB_00
10
22.371
20
-107.412
30
0.0
0
VERTEX
8
SLAB_00
10
25.071
20
-111.561
30
0.0
0
VERTEX
8
SLAB_00
10
27.975
20
-115.689
30
0.0
0
VERTEX
8
SLAB_00
10
31.087
20
-119.784
30
0.0
0
VERTEX
8
SLAB_00
10
34.411
20
-123.834
30
0.0
0
VERTEX
8
SLAB_00
10
37.950
20
-127.827
30
0.0
0
VERTEX
8
SLAB_00
10
41.705
20
-131.749
30
0.0
0
VERTEX
8
SLAB_00
10
45.678
20
-135.587
30
0.0
0
VERTEX
8
SLAB_00
10
49.868
20
-139.329
30
0.0
0
VERTEX
8
SLAB_00
10
54.276
20
-142.959
30
0.0
0
VERTEX
8
SLAB_00
10
58.899
20
-146.465
30
0.0
0
VERTEX
8
SLAB_00
10
63.735
20
-149.833
30
0.0
0
VERTEX
8
SLAB_00
10
68.781
20
-153.049
30
0.0
0
VERTEX
8
SLAB_00
10
74.032
20
-156.098
30
0.0
0
VERTEX
8
SLAB_00
10
79.483
20
-158.967
30
0.0
0
VERTEX
8
SLAB_00
10
85.128
20
-161.642
30
0.0
0
VERTEX
8
SLAB_00
10
90.959
20
-164.110
30
0.0
0
VERTEX
8
SLAB_00
10
96.968
20
-166.359
30
0.0
0
VERTEX
8
SLAB_00
10
103.147
20
-168.374
30
0.0
0
VERTEX
8
SLAB_00
10
109.484
20
-170.144
30
0.0
0
VERTEX
8
SLAB_00
10
115.970
20
-171.657
30
0.0
0
VERTEX
8
SLAB_00
10
122.593
20
-172.902
30
0.0
0
VERTEX
8
SLAB_00
10
129.339
20
-173.868
30
0.0
0
VERTEX
8
SLAB_00
10
136.197
20
-174.546
30
0.0
0
VERTEX
8
SLAB_00
10
143.151
20
-174.925
30
0.0
0
VERTEX
8
SLAB_00
10
150.187
20
-174.998
30
0.0
0
VERTEX
8
SLAB_00
10
157.290
20
-174.757
30
0.0
0
VERTEX
8
SLAB_00
10
164.444
20
-174.195
30
0.0
0
VERTEX
8
SLAB_00
10
171.632
20
-173.307
30
0.0
0
VERTEX
8
SLAB_00
10
178.838
20
-172.087
30
0.0
0
VERTEX
8
SLAB_00
10
186.043
20
-170.531
30
0.0
0
VERTEX
8
SLAB_00
10
193.231
20
-168.637
30
0.0
0
VERTEX
8
SLAB_00
10
200.382
20
-166.403
30
0.0
0
VERTEX
8
SLAB_00
10
207.480
20
-163.829
30
0.0
0
VERTEX
8
SLAB_00
10
214.506
20
-160.913
30
0.0
0
VERTEX
8
SLAB_00
10
221.440
20
-157.659
30
0.0
0
VERTEX
8
SLAB_00
10
228.266
20
-154.069
30
0.0
0
VERTEX
8
SLAB_00
10
234.963
20
-150.145
30
0.0
0
VERTEX
8
SLAB_00
10
241.514
20
-145.893
30
0.0
0
VERTEX
8
SLAB_00
10
247.902
20
-141.320
30
0.0
0
VERTEX
8
SLAB_00
10
254.107
20
-136.431
30
0.0
0
VERTEX
8
SLAB_00
10
260.113
20
-131.235
30
0.0
0
VERTEX
8
SLAB_00
10
265.902
20
-125.741
30
0.0
0
VERTEX
8
SLAB_00
10
271.458
20
-119.959
30
0.0
0
VERTEX
8
SLAB_00
10
276.765
20
-113.901
30
0.0
0
VERTEX
8
SLAB_00
10
281.808
20
-107.578
30
0.0
0
VERTEX
8
SLAB_00
10
286.571
20
-101.003
30
0.0
0
VERTEX
8
SLAB_00
10
291.041
20
-94.191
30
0.0
0
VERTEX
8
SLAB_00
10
295.204
20
-87.157
30
0.0
0
VERTEX
8
SLAB_00
10
299.049
20
-79.915
30
0.0
0
VERTEX
8
SLAB_00
10
302.563
20
-72.483
30
0.0
0
VERTEX
8
SLAB_00
10
305.737
20
-64.877
30
0.0
0
VERTEX
8
SLAB_00
10
308.560
20
-57.115
30
0.0
0
VERTEX
8
SLAB_00
10
311.024
20
-49.215
30
0.0
0
VERTEX
8
SLAB_00
10
313.122
20
-41.197
30
0.0
0
VERTEX
8
SLAB_00
10
314.847
20
-33.078
30
0.0
0
VERTEX
8
SLAB_00
10
316.194
20
-24.879
30
0.0
0
VERTEX
8
SLAB_00
10
317.159
20
-16.620
30
0.0
0
VERTEX
8
SLAB_00
10
317.740
20
-8.320
30
0.0
0
SEQEND
8
SLAB_00
0
TEXT
8
TEXT
10
0.000
20
189.998
30
0.0
40
8.0
1
32: s'=+681 D=350
0
CIRCLE
8
DOWEL
10
15.000
20
18.000
30
0.0
40
3.250
0
TEXT
8
DOWEL
10
20.000
20
16.000
30
0.0
40
3.0
1
A
0
CIRCLE
8
DOWEL
10
15.000
20
-18.000
30
0.0
40
3.250
0
TEXT
8
DOWEL
10
20.000
20
-20.000
30
0.0
40
3.0
1
B
0
CIRCLE
8
DOWEL
10
45.000
20
18.000
30
0.0
40
3.250
0
TEXT
8
DOWEL
10
50.000
20
16.000
30
0.0
40
3.0
1
C
0
CIRCLE
8
DOWEL
10
45.000
20
-18.000
30
0.0
40
3.250
0
TEXT
8
DOWEL
10
50.000
20
-20.000
30
0.0
40
3.0
1
D
0
ENDSEC
0
EOF