0
SECTION
2
HEADER
9
$ACADVER
1
AC1009
9
$INSUNITS
70
4
0
ENDSEC
0
SECTION
2
TABLES
0
TABLE
2
LAYER
70
4
0
LAYER
2
0
70
0
62
7
6
CONTINUOUS
0
LAYER
2
TEXT
70
0
62
1
6
CONTINUOUS
0
LAYER
2
DOWEL
70
0
62
5
6
CONTINUOUS
0
LAYER
2
SLAB_00
70
0
62
2
6
CONTINUOUS
0
ENDTAB
0
ENDSEC
0
SECTION
2
ENTITIES
0
POLYLINE
8
SLAB_00
66
1
70
1
10
0.0
20
0.0
30
0.0
0
VERTEX
8
SLAB_00
10
270.652
20
0.000
30
0.0
0
VERTEX
8
SLAB_00
10
270.487
20
7.083
30
0.0
0
VERTEX
8
SLAB_00
10
269.993
20
14.148
30
0.0
0
VERTEX
8
SLAB_00
10
269.171
20
21.179
30
0.0
0
VERTEX
8
SLAB_00
10
268.025
20
28.159
30
0.0
0
VERTEX
8
SLAB_00
10
266.556
20
35.070
30
0.0
0
VERTEX
8
SLAB_00
10
264.770
20
41.896
30
0.0
0
VERTEX
8
SLAB_00
10
262.672
20
48.621
30
0.0
0
VERTEX
8
SLAB_00
10
260.269
20
55.229
30
0.0
0
VERTEX
8
SLAB_00
10
257.568
20
61.704
30
0.0
0
VERTEX
8
SLAB_00
10
254.576
20
68.031
30
0.0
0
VERTEX
8
SLAB_00
10
251.303
20
74.195
30
0.0
0
VERTEX
8
SLAB_00
10
247.759
20
80.184
30
0.0
0
VERTEX
8
SLAB_00
10
243.954
20
85.983
30
0.0
0
VERTEX
8
SLAB_00
10
239.899
20
91.579
30
0.0
0
VERTEX
8
SLAB_00
10
235.606
20
96.962
30
0.0
0
VERTEX
8
SLAB_00
10
231.088
20
102.119
30
0.0
0
VERTEX
8
SLAB_00
10
226.358
20
107.041
30
0.0
0
VERTEX
8
SLAB_00
10
221.430
20
111.718
30
0.0
0
VERTEX
8
SLAB_00
10
216.318
20
116.142
30
0.0
0
VERTEX
8
SLAB_00
10
211.035
20
120.303
30
0.0
0
VERTEX
8
SLAB_00
10
205.598
20
124.197
30
0.0
0
VERTEX
8
SLAB_00
10
200.021
20
127.816
30
0.0
0
VERTEX
8
SLAB_00
10
194.319
20
131.156
30
0.0
0
VERTEX
8
SLAB_00
10
188.509
20
134.213
30
0.0
0
VERTEX
8
SLAB_00
10
182.606
20
136.983
30
0.0
0
VERTEX
8
SLAB_00
10
176.625
20
139.465
30
0.0
0
VERTEX
8
SLAB_00
10
170.583
20
141.657
30
0.0
0
VERTEX
8
SLAB_00
10
164.494
20
143.558
30
0.0
0
VERTEX
8
SLAB_00
10
158.376
20
145.171
30
0.0
0
VERTEX
8
SLAB_00
10
152.242
20
146.495
30
0.0
0
VERTEX
8
SLAB_00
10
146.108
20
147.533
30
0.0
0
VERTEX
8
SLAB_00
10
139.989
20
148.290
30
0.0
0
VERTEX
8
SLAB_00
10
133.899
20
148.768
30
0.0
0
VERTEX
8
SLAB_00
10
127.852
20
148.973
30
0.0
0
VERTEX
8
SLAB_00
10
121.862
20
148.911
30
0.0
0
VERTEX
8
SLAB_00
10
115.942
20
148.588
30
0.0
0
VERTEX
8
SLAB_00
10
110.105
20
148.012
30
0.0
0
VERTEX
8
SLAB_00
10
104.361
20
147.189
30
0.0
0
VERTEX
8
SLAB_00
10
98.724
20
146.129
30
0.0
0
VERTEX
8
SLAB_00
10
93.202
20
144.841
30
0.0
0
VERTEX
8
SLAB_00
10
87.807
20
143.334
30
0.0
0
VERTEX
8
SLAB_00
10
82.548
20
141.619
30
0.0
0
VERTEX
8
SLAB_00
10
77.432
20
139.705
30
0.0
0
VERTEX
8
SLAB_00
10
72.468
20
137.604
30
0.0
0
VERTEX
8
SLAB_00
10
67.663
20
135.326
30
0.0
0
VERTEX
8
SLAB_00
10
63.023
20
132.884
30
0.0
0
VERTEX
8
SLAB_00
10
58.552
20
130.288
30
0.0
0
VERTEX
8
SLAB_00
10
54.257
20
127.551
30
0.0
0
VERTEX
8
SLAB_00
10
50.140
20
124.684
30
0.0
0
VERTEX
8
SLAB_00
10
46.204
20
121.699
30
0.0
0
VERTEX
8
SLAB_00
10
42.452
20
118.608
30
0.0
0
VERTEX
8
SLAB_00
10
38.885
20
115.423
30
0.0
0
VERTEX
8
SLAB_00
10
35.503
20
112.156
30
0.0
0
VERTEX
8
SLAB_00
10
32.306
20
108.817
30
0.0
0
VERTEX
8
SLAB_00
10
29.294
20
105.418
30
0.0
0
VERTEX
8
SLAB_00
10
26.464
20
101.971
30
0.0
0
VERTEX
8
SLAB_00
10
23.815
20
98.485
30
0.0
0
VERTEX
8
SLAB_00
10
21.343
20
94.971
30
0.0
0
VERTEX
8
SLAB_00
10
19.044
20
91.438
30
0.0
0
VERTEX
8
SLAB_00
10
16.916
20
87.897
30
0.0
0
VERTEX
8
SLAB_00
10
14.952
20
84.355
30
0.0
0
VERTEX
8
SLAB_00
10
13.148
20
80.822
30
0.0
0
VERTEX
8
SLAB_00
10
11.497
20
77.305
30
0.0
0
VERTEX
8
SLAB_00
10
9.995
20
73.812
30
0.0
0
VERTEX
8
SLAB_00
10
8.634
20
70.348
30
0.0
0
VERTEX
8
SLAB_00
10
7.407
20
66.921
30
0.0
0
VERTEX
8
SLAB_00
10
6.308
20
63.535
30
0.0
0
VERTEX
8
SLAB_00
10
5.330
20
60.194
30
0.0
0
VERTEX
8
SLAB_00
10
4.464
20
56.905
30
0.0
0
VERTEX
8
SLAB_00
10
3.704
20
53.668
30
0.0
0
VERTEX
8
SLAB_00
10
3.041
20
50.488
30
0.0
0
VERTEX
8
SLAB_00
10
2.468
20
47.367
30
0.0
0
VERTEX
8
SLAB_00
10
1.978
20
44.305
30
0.0
0
VERTEX
8
SLAB_00
10
1.562
20
41.304
30
0.0
0
VERTEX
8
SLAB_00
10
1.214
20
38.364
30
0.0
0
VERTEX
8
SLAB_00
10
0.927
20
35.484
30
0.0
0
VERTEX
8
SLAB_00
10
0.693
20
32.663
30
0.0
0
VERTEX
8
SLAB_00
10
0.506
20
29.900
30
0.0
0
VERTEX
8
SLAB_00
10
0.359
20
27.193
30
0.0
0
VERTEX
8
SLAB_00
10
0.246
20
24.538
30
0.0
0
VERTEX
8
SLAB_00
10
0.162
20
21.932
30
0.0
0
VERTEX
8
SLAB_00
10
0.102
20
19.373
30
0.0
0
VERTEX
8
SLAB_00
10
0.060
20
16.855
30
0.0
0
VERTEX
8
SLAB_00
10
0.032
20
14.375
30
0.0
0
VERTEX
8
SLAB_00
10
0.016
20
11.928
30
0.0
0
VERTEX
8
SLAB_00
10
0.006
20
9.509
30
0.0
0
VERTEX
8
SLAB_00
10
0.002
20
7.111
30
0.0
0
VERTEX
8
SLAB_00
10
0.000
20
4.731
30
0.0
0
VERTEX
8
SLAB_00
10
0.000
20
2.363
30
0.0
0
VERTEX
8
SLAB_00
10
0.000
20
0.000
30
0.0
0
VERTEX
8
SLAB_00
10
0.000
20
-2.363
30
0.0
0
VERTEX
8
SLAB_00
10
0.000
20
-4.731
30
0.0
0
VERTEX
8
SLAB_00
10
0.002
20
-7.111
30
0.0
0
VERTEX
8
SLAB_00
10
0.006
20
-9.509
30
0.0
0
VERTEX
8
SLAB_00
10
0.016
20
-11.928
30
0.0
0
VERTEX
8
SLAB_00
10
0.032
20
-14.375
30
0.0
0
VERTEX
8
SLAB_00
10
0.060
20
-16.855
30
0.0
0
VERTEX
8
SLAB_00
10
0.102
20
-19.373
30
0.0
0
VERTEX
8
SLAB_00
10
0.162
20
-21.932
30
0.0
0
VERTEX
8
SLAB_00
10
0.246
20
-24.538
30
0.0
0
VERTEX
8
SLAB_00
10
0.359
20
-27.193
30
0.0
0
VERTEX
8
SLAB_00
10
0.506
20
-29.900
30
0.0
0
VERTEX
8
SLAB_00
10
0.693
20
-32.663
30
0.0
0
VERTEX
8
SLAB_00
10
0.927
20
-35.484
30
0.0
0
VERTEX
8
SLAB_00
10
1.214
20
-38.364
30
0.0
0
VERTEX
8
SLAB_00
10
1.562
20
-41.304
30
0.0
0
VERTEX
8
SLAB_00
10
1.978
20
-44.305
30
0.0
0
VERTEX
8
SLAB_00
10
2.468
20
-47.367
30
0.0
0
VERTEX
8
SLAB_00
10
3.041
20
-50.488
30
0.0
0
VERTEX
8
SLAB_00
10
3.704
20
-53.668
30
0.0
0
VERTEX
8
SLAB_00
10
4.464
20
-56.905
30
0.0
0
VERTEX
8
SLAB_00
10
5.330
20
-60.194
30
0.0
0
VERTEX
8
SLAB_00
10
6.308
20
-63.535
30
0.0
0
VERTEX
8
SLAB_00
10
7.407
20
-66.921
30
0.0
0
VERTEX
8
SLAB_00
10
8.634
20
-70.348
30
0.0
0
VERTEX
8
SLAB_00
10
9.995
20
-73.812
30
0.0
0
VERTEX
8
SLAB_00
10
11.497
20
-77.305
30
0.0
0
VERTEX
8
SLAB_00
10
13.148
20
-80.822
30
0.0
0
VERTEX
8
SLAB_00
10
14.952
20
-84.355
30
0.0
0
VERTEX
8
SLAB_00
10
16.916
20
-87.897
30
0.0
0
VERTEX
8
SLAB_00
10
19.044
20
-91.438
30
0.0
0
VERTEX
8
SLAB_00
10
21.343
20
-94.971
30
0.0
0
VERTEX
8
SLAB_00
10
23.815
20
-98.485
30
0.0
0
VERTEX
8
SLAB_00
10
26.464
20
-101.971
30
0.0
0
VERTEX
8
SLAB_00
10
29.294
20
-105.418
30
0.0
0
VERTEX
8
SLAB_00
10
32.306
20
-108.817
30
0.0
0
VERTEX
8
SLAB_00
10
35.503
20
-112.156
30
0.0
0
VERTEX
8
SLAB_00
10
38.885
20
-115.423
30
0.0
0
VERTEX
8
SLAB_00
10
42.452
20
-118.608
30
0.0
0
VERTEX
8
SLAB_00
10
46.204
20
-121.699
30
0.0
0
VERTEX
8
SLAB_00
10
50.140
20
-124.684
30
0.0
0
VERTEX
8
SLAB_00
10
54.257
20
-127.551
30
0.0
0
VERTEX
8
SLAB_00
10
58.552
20
-130.288
30
0.0
0
VERTEX
8
SLAB_00
10
63.023
20
-132.884
30
0.0
0
VERTEX
8
SLAB_00
10
67.663
20
-135.326
30
0.0
0
VERTEX
8
SLAB_00
10
72.468
20
-137.604
30
0.0
0
VERTEX
8
SLAB_00
10
77.432
20
-139.705
30
0.0
0
VERTEX
8
SLAB_00
10
82.548
20
-141.619
30
0.0
0
VERTEX
8
SLAB_00
10
87.807
20
-143.334
30
0.0
0
VERTEX
8
SLAB_00
10
93.202
20
-144.841
30
0.0
0
VERTEX
8
SLAB_00
10
98.724
20
-146.129
30
0.0
0
VERTEX
8
SLAB_00
10
104.361
20
-147.189
30
0.0
0
VERTEX
8
SLAB_00
10
110.105
20
-148.012
30
0.0
0
VERTEX
8
SLAB_00
10
115.942
20
-148.588
30
0.0
0
VERTEX
8
SLAB_00
10
121.862
20
-148.911
30
0.0
0
VERTEX
8
SLAB_00
10
127.852
20
-148.973
30
0.0
0
VERTEX
8
SLAB_00
10
133.899
20
-148.768
30
0.0
0
VERTEX
8
SLAB_00
10
139.989
20
-148.290
30
0.0
0
VERTEX
8
SLAB_00
10
146.108
20
-147.533
30
0.0
0
VERTEX
8
SLAB_00
10
152.242
20
-146.495
30
0.0
0
VERTEX
8
SLAB_00
10
158.376
20
-145.171
30
0.0
0
VERTEX
8
SLAB_00
10
164.494
20
-143.558
30
0.0
0
VERTEX
8
SLAB_00
10
170.583
20
-141.657
30
0.0
0
VERTEX
8
SLAB_00
10
176.625
20
-139.465
30
0.0
0
VERTEX
8
SLAB_00
10
182.606
20
-136.983
30
0.0
0
VERTEX
8
SLAB_00
10
188.509
20
-134.213
30
0.0
0
VERTEX
8
SLAB_00
10
194.319
20
-131.156
30
0.0
0
VERTEX
8
SLAB_00
10
200.021
20
-127.816
30
0.0
0
VERTEX
8
SLAB_00
10
205.598
20
-124.197
30
0.0
0
VERTEX
8
SLAB_00
10
211.035
20
-120.303
30
0.0
0
VERTEX
8
SLAB_00
10
216.318
20
-116.142
30
0.0
0
VERTEX
8
SLAB_00
10
221.430
20
-111.718
30
0.0
0
VERTEX
8
SLAB_00
10
226.358
20
-107.041
30
0.0
0
VERTEX
8
SLAB_00
10
231.088
20
-102.119
30
0.0
0
VERTEX
8
SLAB_00
10
235.606
20
-96.962
30
0.0
0
VERTEX
8
SLAB_00
10
239.899
20
-91.579
30
0.0
0
VERTEX
8
SLAB_00
10
243.954
20
-85.983
30
0.0
0
VERTEX
8
SLAB_00
10
247.759
20
-80.184
30
0.0
0
VERTEX
8
SLAB_00
10
251.303
20
-74.195
30
0.0
0
VERTEX
8
SLAB_00
10
254.576
20
-68.031
30
0.0
0
VERTEX
8
SLAB_00
10
257.568
20
-61.704
30
0.0
0
VERTEX
8
SLAB_00
10
260.269
20
-55.229
30
0.0
0
VERTEX
8
SLAB_00
10
262.672
20
-48.621
30
0.0
0
VERTEX
8
SLAB_00
10
264.770
20
-41.896
30
0.0
0
VERTEX
8
SLAB_00
10
266.556
20
-35.070
30
0.0
0
VERTEX
8
SLAB_00
10
268.025
20
-28.159
30
0.0
0
VERTEX
8
SLAB_00
10
269.171
20
-21.179
30
0.0
0
VERTEX
8
SLAB_00
10
269.993
20
-14.148
30
0.0
0
VERTEX
8
SLAB_00
10
270.487
20
-7.083
30
0.0
0
SEQEND
8
SLAB_00
0
TEXT
8
TEXT
10
0.000
20
163.973
30
0.0
40
8.0
1
11: s'=+173 D=298
0
CIRCLE
8
DOWEL
10
15.000
20
18.000
30
0.0
40
3.250
0
TEXT
8
DOWEL
10
20.000
20
16.000
30
0.0
40
3.0
1
A
0
CIRCLE
8
DOWEL
10
15.000
20
-18.000
30
0.0
40
3.250
0
TEXT
8
DOWEL
10
20.000
20
-20.000
30
0.0
40
3.0
1
B
0
CIRCLE
8
DOWEL
10
45.000
20
18.000
30
0.0
40
3.250
0
TEXT
8
DOWEL
10
50.000
20
16.000
30
0.0
40
3.0
1
C
0
CIRCLE
8
DOWEL
10
45.000
20
-18.000
30
0.0
40
3.250
0
TEXT
8
DOWEL
10
50.000
20
-20.000
30
0.0
40
3.0
1
D
0
ENDSEC
0
EOF