0
SECTION
2
HEADER
9
$ACADVER
1
AC1009
9
$INSUNITS
70
4
0
ENDSEC
0
SECTION
2
TABLES
0
TABLE
2
LAYER
70
4
0
LAYER
2
0
70
0
62
7
6
CONTINUOUS
0
LAYER
2
TEXT
70
0
62
1
6
CONTINUOUS
0
LAYER
2
DOWEL
70
0
62
5
6
CONTINUOUS
0
LAYER
2
SLAB_00
70
0
62
2
6
CONTINUOUS
0
ENDTAB
0
ENDSEC
0
SECTION
2
ENTITIES
0
POLYLINE
8
SLAB_00
66
1
70
1
10
0.0
20
0.0
30
0.0
0
VERTEX
8
SLAB_00
10
326.636
20
0.000
30
0.0
0
VERTEX
8
SLAB_00
10
326.437
20
8.548
30
0.0
0
VERTEX
8
SLAB_00
10
325.841
20
17.075
30
0.0
0
VERTEX
8
SLAB_00
10
324.849
20
25.560
30
0.0
0
VERTEX
8
SLAB_00
10
323.465
20
33.984
30
0.0
0
VERTEX
8
SLAB_00
10
321.693
20
42.324
30
0.0
0
VERTEX
8
SLAB_00
10
319.538
20
50.563
30
0.0
0
VERTEX
8
SLAB_00
10
317.006
20
58.679
30
0.0
0
VERTEX
8
SLAB_00
10
314.106
20
66.653
30
0.0
0
VERTEX
8
SLAB_00
10
310.845
20
74.467
30
0.0
0
VERTEX
8
SLAB_00
10
307.235
20
82.103
30
0.0
0
VERTEX
8
SLAB_00
10
303.285
20
89.543
30
0.0
0
VERTEX
8
SLAB_00
10
299.007
20
96.770
30
0.0
0
VERTEX
8
SLAB_00
10
294.415
20
103.768
30
0.0
0
VERTEX
8
SLAB_00
10
289.522
20
110.522
30
0.0
0
VERTEX
8
SLAB_00
10
284.341
20
117.018
30
0.0
0
VERTEX
8
SLAB_00
10
278.889
20
123.243
30
0.0
0
VERTEX
8
SLAB_00
10
273.181
20
129.183
30
0.0
0
VERTEX
8
SLAB_00
10
267.233
20
134.827
30
0.0
0
VERTEX
8
SLAB_00
10
261.063
20
140.165
30
0.0
0
VERTEX
8
SLAB_00
10
254.688
20
145.188
30
0.0
0
VERTEX
8
SLAB_00
10
248.126
20
149.887
30
0.0
0
VERTEX
8
SLAB_00
10
241.395
20
154.255
30
0.0
0
VERTEX
8
SLAB_00
10
234.514
20
158.286
30
0.0
0
VERTEX
8
SLAB_00
10
227.502
20
161.975
30
0.0
0
VERTEX
8
SLAB_00
10
220.378
20
165.318
30
0.0
0
VERTEX
8
SLAB_00
10
213.160
20
168.313
30
0.0
0
VERTEX
8
SLAB_00
10
205.868
20
170.958
30
0.0
0
VERTEX
8
SLAB_00
10
198.520
20
173.253
30
0.0
0
VERTEX
8
SLAB_00
10
191.136
20
175.199
30
0.0
0
VERTEX
8
SLAB_00
10
183.733
20
176.797
30
0.0
0
VERTEX
8
SLAB_00
10
176.330
20
178.051
30
0.0
0
VERTEX
8
SLAB_00
10
168.945
20
178.964
30
0.0
0
VERTEX
8
SLAB_00
10
161.596
20
179.541
30
0.0
0
VERTEX
8
SLAB_00
10
154.298
20
179.789
30
0.0
0
VERTEX
8
SLAB_00
10
147.069
20
179.714
30
0.0
0
VERTEX
8
SLAB_00
10
139.925
20
179.324
30
0.0
0
VERTEX
8
SLAB_00
10
132.880
20
178.628
30
0.0
0
VERTEX
8
SLAB_00
10
125.949
20
177.635
30
0.0
0
VERTEX
8
SLAB_00
10
119.145
20
176.356
30
0.0
0
VERTEX
8
SLAB_00
10
112.481
20
174.802
30
0.0
0
VERTEX
8
SLAB_00
10
105.970
20
172.983
30
0.0
0
VERTEX
8
SLAB_00
10
99.623
20
170.912
30
0.0
0
VERTEX
8
SLAB_00
10
93.449
20
168.603
30
0.0
0
VERTEX
8
SLAB_00
10
87.458
20
166.067
30
0.0
0
VERTEX
8
SLAB_00
10
81.659
20
163.318
30
0.0
0
VERTEX
8
SLAB_00
10
76.059
20
160.371
30
0.0
0
VERTEX
8
SLAB_00
10
70.664
20
157.238
30
0.0
0
VERTEX
8
SLAB_00
10
65.480
20
153.935
30
0.0
0
VERTEX
8
SLAB_00
10
60.511
20
150.475
30
0.0
0
VERTEX
8
SLAB_00
10
55.762
20
146.872
30
0.0
0
VERTEX
8
SLAB_00
10
51.233
20
143.142
30
0.0
0
VERTEX
8
SLAB_00
10
46.928
20
139.299
30
0.0
0
VERTEX
8
SLAB_00
10
42.847
20
135.355
30
0.0
0
VERTEX
8
SLAB_00
10
38.989
20
131.326
30
0.0
0
VERTEX
8
SLAB_00
10
35.353
20
127.224
30
0.0
0
VERTEX
8
SLAB_00
10
31.938
20
123.063
30
0.0
0
VERTEX
8
SLAB_00
10
28.741
20
118.856
30
0.0
0
VERTEX
8
SLAB_00
10
25.757
20
114.615
30
0.0
0
VERTEX
8
SLAB_00
10
22.984
20
110.352
30
0.0
0
VERTEX
8
SLAB_00
10
20.415
20
106.078
30
0.0
0
VERTEX
8
SLAB_00
10
18.045
20
101.804
30
0.0
0
VERTEX
8
SLAB_00
10
15.867
20
97.540
30
0.0
0
VERTEX
8
SLAB_00
10
13.876
20
93.296
30
0.0
0
VERTEX
8
SLAB_00
10
12.062
20
89.080
30
0.0
0
VERTEX
8
SLAB_00
10
10.420
20
84.900
30
0.0
0
VERTEX
8
SLAB_00
10
8.940
20
80.763
30
0.0
0
VERTEX
8
SLAB_00
10
7.613
20
76.677
30
0.0
0
VERTEX
8
SLAB_00
10
6.432
20
72.646
30
0.0
0
VERTEX
8
SLAB_00
10
5.387
20
68.675
30
0.0
0
VERTEX
8
SLAB_00
10
4.470
20
64.770
30
0.0
0
VERTEX
8
SLAB_00
10
3.670
20
60.932
30
0.0
0
VERTEX
8
SLAB_00
10
2.978
20
57.165
30
0.0
0
VERTEX
8
SLAB_00
10
2.387
20
53.470
30
0.0
0
VERTEX
8
SLAB_00
10
1.885
20
49.848
30
0.0
0
VERTEX
8
SLAB_00
10
1.466
20
46.300
30
0.0
0
VERTEX
8
SLAB_00
10
1.119
20
42.824
30
0.0
0
VERTEX
8
SLAB_00
10
0.836
20
39.420
30
0.0
0
VERTEX
8
SLAB_00
10
0.610
20
36.085
30
0.0
0
VERTEX
8
SLAB_00
10
0.433
20
32.817
30
0.0
0
VERTEX
8
SLAB_00
10
0.297
20
29.613
30
0.0
0
VERTEX
8
SLAB_00
10
0.196
20
26.469
30
0.0
0
VERTEX
8
SLAB_00
10
0.123
20
23.380
30
0.0
0
VERTEX
8
SLAB_00
10
0.072
20
20.342
30
0.0
0
VERTEX
8
SLAB_00
10
0.039
20
17.349
30
0.0
0
VERTEX
8
SLAB_00
10
0.019
20
14.395
30
0.0
0
VERTEX
8
SLAB_00
10
0.008
20
11.475
30
0.0
0
VERTEX
8
SLAB_00
10
0.002
20
8.582
30
0.0
0
VERTEX
8
SLAB_00
10
0.000
20
5.710
30
0.0
0
VERTEX
8
SLAB_00
10
0.000
20
2.852
30
0.0
0
VERTEX
8
SLAB_00
10
0.000
20
0.000
30
0.0
0
VERTEX
8
SLAB_00
10
0.000
20
-2.852
30
0.0
0
VERTEX
8
SLAB_00
10
0.000
20
-5.710
30
0.0
0
VERTEX
8
SLAB_00
10
0.002
20
-8.582
30
0.0
0
VERTEX
8
SLAB_00
10
0.008
20
-11.475
30
0.0
0
VERTEX
8
SLAB_00
10
0.019
20
-14.395
30
0.0
0
VERTEX
8
SLAB_00
10
0.039
20
-17.349
30
0.0
0
VERTEX
8
SLAB_00
10
0.072
20
-20.342
30
0.0
0
VERTEX
8
SLAB_00
10
0.123
20
-23.380
30
0.0
0
VERTEX
8
SLAB_00
10
0.196
20
-26.469
30
0.0
0
VERTEX
8
SLAB_00
10
0.297
20
-29.613
30
0.0
0
VERTEX
8
SLAB_00
10
0.433
20
-32.817
30
0.0
0
VERTEX
8
SLAB_00
10
0.610
20
-36.085
30
0.0
0
VERTEX
8
SLAB_00
10
0.836
20
-39.420
30
0.0
0
VERTEX
8
SLAB_00
10
1.119
20
-42.824
30
0.0
0
VERTEX
8
SLAB_00
10
1.466
20
-46.300
30
0.0
0
VERTEX
8
SLAB_00
10
1.885
20
-49.848
30
0.0
0
VERTEX
8
SLAB_00
10
2.387
20
-53.470
30
0.0
0
VERTEX
8
SLAB_00
10
2.978
20
-57.165
30
0.0
0
VERTEX
8
SLAB_00
10
3.670
20
-60.932
30
0.0
0
VERTEX
8
SLAB_00
10
4.470
20
-64.770
30
0.0
0
VERTEX
8
SLAB_00
10
5.387
20
-68.675
30
0.0
0
VERTEX
8
SLAB_00
10
6.432
20
-72.646
30
0.0
0
VERTEX
8
SLAB_00
10
7.613
20
-76.677
30
0.0
0
VERTEX
8
SLAB_00
10
8.940
20
-80.763
30
0.0
0
VERTEX
8
SLAB_00
10
10.420
20
-84.900
30
0.0
0
VERTEX
8
SLAB_00
10
12.062
20
-89.080
30
0.0
0
VERTEX
8
SLAB_00
10
13.876
20
-93.296
30
0.0
0
VERTEX
8
SLAB_00
10
15.867
20
-97.540
30
0.0
0
VERTEX
8
SLAB_00
10
18.045
20
-101.804
30
0.0
0
VERTEX
8
SLAB_00
10
20.415
20
-106.078
30
0.0
0
VERTEX
8
SLAB_00
10
22.984
20
-110.352
30
0.0
0
VERTEX
8
SLAB_00
10
25.757
20
-114.615
30
0.0
0
VERTEX
8
SLAB_00
10
28.741
20
-118.856
30
0.0
0
VERTEX
8
SLAB_00
10
31.938
20
-123.063
30
0.0
0
VERTEX
8
SLAB_00
10
35.353
20
-127.224
30
0.0
0
VERTEX
8
SLAB_00
10
38.989
20
-131.326
30
0.0
0
VERTEX
8
SLAB_00
10
42.847
20
-135.355
30
0.0
0
VERTEX
8
SLAB_00
10
46.928
20
-139.299
30
0.0
0
VERTEX
8
SLAB_00
10
51.233
20
-143.142
30
0.0
0
VERTEX
8
SLAB_00
10
55.762
20
-146.872
30
0.0
0
VERTEX
8
SLAB_00
10
60.511
20
-150.475
30
0.0
0
VERTEX
8
SLAB_00
10
65.480
20
-153.935
30
0.0
0
VERTEX
8
SLAB_00
10
70.664
20
-157.238
30
0.0
0
VERTEX
8
SLAB_00
10
76.059
20
-160.371
30
0.0
0
VERTEX
8
SLAB_00
10
81.659
20
-163.318
30
0.0
0
VERTEX
8
SLAB_00
10
87.458
20
-166.067
30
0.0
0
VERTEX
8
SLAB_00
10
93.449
20
-168.603
30
0.0
0
VERTEX
8
SLAB_00
10
99.623
20
-170.912
30
0.0
0
VERTEX
8
SLAB_00
10
105.970
20
-172.983
30
0.0
0
VERTEX
8
SLAB_00
10
112.481
20
-174.802
30
0.0
0
VERTEX
8
SLAB_00
10
119.145
20
-176.356
30
0.0
0
VERTEX
8
SLAB_00
10
125.949
20
-177.635
30
0.0
0
VERTEX
8
SLAB_00
10
132.880
20
-178.628
30
0.0
0
VERTEX
8
SLAB_00
10
139.925
20
-179.324
30
0.0
0
VERTEX
8
SLAB_00
10
147.069
20
-179.714
30
0.0
0
VERTEX
8
SLAB_00
10
154.298
20
-179.789
30
0.0
0
VERTEX
8
SLAB_00
10
161.596
20
-179.541
30
0.0
0
VERTEX
8
SLAB_00
10
168.945
20
-178.964
30
0.0
0
VERTEX
8
SLAB_00
10
176.330
20
-178.051
30
0.0
0
VERTEX
8
SLAB_00
10
183.733
20
-176.797
30
0.0
0
VERTEX
8
SLAB_00
10
191.136
20
-175.199
30
0.0
0
VERTEX
8
SLAB_00
10
198.520
20
-173.253
30
0.0
0
VERTEX
8
SLAB_00
10
205.868
20
-170.958
30
0.0
0
VERTEX
8
SLAB_00
10
213.160
20
-168.313
30
0.0
0
VERTEX
8
SLAB_00
10
220.378
20
-165.318
30
0.0
0
VERTEX
8
SLAB_00
10
227.502
20
-161.975
30
0.0
0
VERTEX
8
SLAB_00
10
234.514
20
-158.286
30
0.0
0
VERTEX
8
SLAB_00
10
241.395
20
-154.255
30
0.0
0
VERTEX
8
SLAB_00
10
248.126
20
-149.887
30
0.0
0
VERTEX
8
SLAB_00
10
254.688
20
-145.188
30
0.0
0
VERTEX
8
SLAB_00
10
261.063
20
-140.165
30
0.0
0
VERTEX
8
SLAB_00
10
267.233
20
-134.827
30
0.0
0
VERTEX
8
SLAB_00
10
273.181
20
-129.183
30
0.0
0
VERTEX
8
SLAB_00
10
278.889
20
-123.243
30
0.0
0
VERTEX
8
SLAB_00
10
284.341
20
-117.018
30
0.0
0
VERTEX
8
SLAB_00
10
289.522
20
-110.522
30
0.0
0
VERTEX
8
SLAB_00
10
294.415
20
-103.768
30
0.0
0
VERTEX
8
SLAB_00
10
299.007
20
-96.770
30
0.0
0
VERTEX
8
SLAB_00
10
303.285
20
-89.543
30
0.0
0
VERTEX
8
SLAB_00
10
307.235
20
-82.103
30
0.0
0
VERTEX
8
SLAB_00
10
310.845
20
-74.467
30
0.0
0
VERTEX
8
SLAB_00
10
314.106
20
-66.653
30
0.0
0
VERTEX
8
SLAB_00
10
317.006
20
-58.679
30
0.0
0
VERTEX
8
SLAB_00
10
319.538
20
-50.563
30
0.0
0
VERTEX
8
SLAB_00
10
321.693
20
-42.324
30
0.0
0
VERTEX
8
SLAB_00
10
323.465
20
-33.984
30
0.0
0
VERTEX
8
SLAB_00
10
324.849
20
-25.560
30
0.0
0
VERTEX
8
SLAB_00
10
325.841
20
-17.075
30
0.0
0
VERTEX
8
SLAB_00
10
326.437
20
-8.548
30
0.0
0
SEQEND
8
SLAB_00
0
TEXT
8
TEXT
10
0.000
20
194.789
30
0.0
40
8.0
1
27: s'=+554 D=360
0
CIRCLE
8
DOWEL
10
15.000
20
18.000
30
0.0
40
3.250
0
TEXT
8
DOWEL
10
20.000
20
16.000
30
0.0
40
3.0
1
A
0
CIRCLE
8
DOWEL
10
15.000
20
-18.000
30
0.0
40
3.250
0
TEXT
8
DOWEL
10
20.000
20
-20.000
30
0.0
40
3.0
1
B
0
CIRCLE
8
DOWEL
10
45.000
20
18.000
30
0.0
40
3.250
0
TEXT
8
DOWEL
10
50.000
20
16.000
30
0.0
40
3.0
1
C
0
CIRCLE
8
DOWEL
10
45.000
20
-18.000
30
0.0
40
3.250
0
TEXT
8
DOWEL
10
50.000
20
-20.000
30
0.0
40
3.0
1
D
0
ENDSEC
0
EOF