0
SECTION
2
HEADER
9
$ACADVER
1
AC1009
9
$INSUNITS
70
4
0
ENDSEC
0
SECTION
2
TABLES
0
TABLE
2
LAYER
70
4
0
LAYER
2
0
70
0
62
7
6
CONTINUOUS
0
LAYER
2
TEXT
70
0
62
1
6
CONTINUOUS
0
LAYER
2
DOWEL
70
0
62
5
6
CONTINUOUS
0
LAYER
2
SLAB_00
70
0
62
2
6
CONTINUOUS
0
ENDTAB
0
ENDSEC
0
SECTION
2
ENTITIES
0
POLYLINE
8
SLAB_00
66
1
70
1
10
0.0
20
0.0
30
0.0
0
VERTEX
8
SLAB_00
10
325.832
20
0.000
30
0.0
0
VERTEX
8
SLAB_00
10
325.633
20
8.527
30
0.0
0
VERTEX
8
SLAB_00
10
325.038
20
17.033
30
0.0
0
VERTEX
8
SLAB_00
10
324.049
20
25.497
30
0.0
0
VERTEX
8
SLAB_00
10
322.668
20
33.900
30
0.0
0
VERTEX
8
SLAB_00
10
320.900
20
42.220
30
0.0
0
VERTEX
8
SLAB_00
10
318.750
20
50.438
30
0.0
0
VERTEX
8
SLAB_00
10
316.225
20
58.534
30
0.0
0
VERTEX
8
SLAB_00
10
313.332
20
66.489
30
0.0
0
VERTEX
8
SLAB_00
10
310.079
20
74.284
30
0.0
0
VERTEX
8
SLAB_00
10
306.478
20
81.901
30
0.0
0
VERTEX
8
SLAB_00
10
302.538
20
89.322
30
0.0
0
VERTEX
8
SLAB_00
10
298.271
20
96.531
30
0.0
0
VERTEX
8
SLAB_00
10
293.690
20
103.512
30
0.0
0
VERTEX
8
SLAB_00
10
288.808
20
110.250
30
0.0
0
VERTEX
8
SLAB_00
10
283.640
20
116.730
30
0.0
0
VERTEX
8
SLAB_00
10
278.202
20
122.939
30
0.0
0
VERTEX
8
SLAB_00
10
272.507
20
128.865
30
0.0
0
VERTEX
8
SLAB_00
10
266.574
20
134.495
30
0.0
0
VERTEX
8
SLAB_00
10
260.419
20
139.820
30
0.0
0
VERTEX
8
SLAB_00
10
254.060
20
144.830
30
0.0
0
VERTEX
8
SLAB_00
10
247.514
20
149.518
30
0.0
0
VERTEX
8
SLAB_00
10
240.800
20
153.875
30
0.0
0
VERTEX
8
SLAB_00
10
233.936
20
157.896
30
0.0
0
VERTEX
8
SLAB_00
10
226.941
20
161.576
30
0.0
0
VERTEX
8
SLAB_00
10
219.835
20
164.911
30
0.0
0
VERTEX
8
SLAB_00
10
212.635
20
167.898
30
0.0
0
VERTEX
8
SLAB_00
10
205.360
20
170.537
30
0.0
0
VERTEX
8
SLAB_00
10
198.031
20
172.826
30
0.0
0
VERTEX
8
SLAB_00
10
190.665
20
174.767
30
0.0
0
VERTEX
8
SLAB_00
10
183.280
20
176.361
30
0.0
0
VERTEX
8
SLAB_00
10
175.896
20
177.612
30
0.0
0
VERTEX
8
SLAB_00
10
168.529
20
178.523
30
0.0
0
VERTEX
8
SLAB_00
10
161.198
20
179.098
30
0.0
0
VERTEX
8
SLAB_00
10
153.918
20
179.346
30
0.0
0
VERTEX
8
SLAB_00
10
146.707
20
179.271
30
0.0
0
VERTEX
8
SLAB_00
10
139.580
20
178.882
30
0.0
0
VERTEX
8
SLAB_00
10
132.552
20
178.188
30
0.0
0
VERTEX
8
SLAB_00
10
125.638
20
177.198
30
0.0
0
VERTEX
8
SLAB_00
10
118.851
20
175.922
30
0.0
0
VERTEX
8
SLAB_00
10
112.204
20
174.371
30
0.0
0
VERTEX
8
SLAB_00
10
105.709
20
172.557
30
0.0
0
VERTEX
8
SLAB_00
10
99.377
20
170.491
30
0.0
0
VERTEX
8
SLAB_00
10
93.219
20
168.187
30
0.0
0
VERTEX
8
SLAB_00
10
87.243
20
165.658
30
0.0
0
VERTEX
8
SLAB_00
10
81.458
20
162.916
30
0.0
0
VERTEX
8
SLAB_00
10
75.871
20
159.975
30
0.0
0
VERTEX
8
SLAB_00
10
70.490
20
156.851
30
0.0
0
VERTEX
8
SLAB_00
10
65.319
20
153.555
30
0.0
0
VERTEX
8
SLAB_00
10
60.362
20
150.104
30
0.0
0
VERTEX
8
SLAB_00
10
55.624
20
146.511
30
0.0
0
VERTEX
8
SLAB_00
10
51.107
20
142.790
30
0.0
0
VERTEX
8
SLAB_00
10
46.812
20
138.955
30
0.0
0
VERTEX
8
SLAB_00
10
42.741
20
135.022
30
0.0
0
VERTEX
8
SLAB_00
10
38.893
20
131.002
30
0.0
0
VERTEX
8
SLAB_00
10
35.266
20
126.911
30
0.0
0
VERTEX
8
SLAB_00
10
31.860
20
122.760
30
0.0
0
VERTEX
8
SLAB_00
10
28.670
20
118.563
30
0.0
0
VERTEX
8
SLAB_00
10
25.694
20
114.333
30
0.0
0
VERTEX
8
SLAB_00
10
22.927
20
110.080
30
0.0
0
VERTEX
8
SLAB_00
10
20.364
20
105.817
30
0.0
0
VERTEX
8
SLAB_00
10
18.000
20
101.553
30
0.0
0
VERTEX
8
SLAB_00
10
15.828
20
97.300
30
0.0
0
VERTEX
8
SLAB_00
10
13.841
20
93.066
30
0.0
0
VERTEX
8
SLAB_00
10
12.033
20
88.860
30
0.0
0
VERTEX
8
SLAB_00
10
10.394
20
84.691
30
0.0
0
VERTEX
8
SLAB_00
10
8.918
20
80.564
30
0.0
0
VERTEX
8
SLAB_00
10
7.595
20
76.488
30
0.0
0
VERTEX
8
SLAB_00
10
6.416
20
72.467
30
0.0
0
VERTEX
8
SLAB_00
10
5.374
20
68.506
30
0.0
0
VERTEX
8
SLAB_00
10
4.459
20
64.610
30
0.0
0
VERTEX
8
SLAB_00
10
3.661
20
60.782
30
0.0
0
VERTEX
8
SLAB_00
10
2.971
20
57.024
30
0.0
0
VERTEX
8
SLAB_00
10
2.381
20
53.338
30
0.0
0
VERTEX
8
SLAB_00
10
1.881
20
49.725
30
0.0
0
VERTEX
8
SLAB_00
10
1.462
20
46.186
30
0.0
0
VERTEX
8
SLAB_00
10
1.116
20
42.718
30
0.0
0
VERTEX
8
SLAB_00
10
0.834
20
39.323
30
0.0
0
VERTEX
8
SLAB_00
10
0.609
20
35.996
30
0.0
0
VERTEX
8
SLAB_00
10
0.432
20
32.737
30
0.0
0
VERTEX
8
SLAB_00
10
0.296
20
29.540
30
0.0
0
VERTEX
8
SLAB_00
10
0.195
20
26.404
30
0.0
0
VERTEX
8
SLAB_00
10
0.122
20
23.323
30
0.0
0
VERTEX
8
SLAB_00
10
0.072
20
20.292
30
0.0
0
VERTEX
8
SLAB_00
10
0.039
20
17.306
30
0.0
0
VERTEX
8
SLAB_00
10
0.019
20
14.360
30
0.0
0
VERTEX
8
SLAB_00
10
0.008
20
11.447
30
0.0
0
VERTEX
8
SLAB_00
10
0.002
20
8.561
30
0.0
0
VERTEX
8
SLAB_00
10
0.000
20
5.696
30
0.0
0
VERTEX
8
SLAB_00
10
0.000
20
2.845
30
0.0
0
VERTEX
8
SLAB_00
10
0.000
20
0.000
30
0.0
0
VERTEX
8
SLAB_00
10
0.000
20
-2.845
30
0.0
0
VERTEX
8
SLAB_00
10
0.000
20
-5.696
30
0.0
0
VERTEX
8
SLAB_00
10
0.002
20
-8.561
30
0.0
0
VERTEX
8
SLAB_00
10
0.008
20
-11.447
30
0.0
0
VERTEX
8
SLAB_00
10
0.019
20
-14.360
30
0.0
0
VERTEX
8
SLAB_00
10
0.039
20
-17.306
30
0.0
0
VERTEX
8
SLAB_00
10
0.072
20
-20.292
30
0.0
0
VERTEX
8
SLAB_00
10
0.122
20
-23.323
30
0.0
0
VERTEX
8
SLAB_00
10
0.195
20
-26.404
30
0.0
0
VERTEX
8
SLAB_00
10
0.296
20
-29.540
30
0.0
0
VERTEX
8
SLAB_00
10
0.432
20
-32.737
30
0.0
0
VERTEX
8
SLAB_00
10
0.609
20
-35.996
30
0.0
0
VERTEX
8
SLAB_00
10
0.834
20
-39.323
30
0.0
0
VERTEX
8
SLAB_00
10
1.116
20
-42.718
30
0.0
0
VERTEX
8
SLAB_00
10
1.462
20
-46.186
30
0.0
0
VERTEX
8
SLAB_00
10
1.881
20
-49.725
30
0.0
0
VERTEX
8
SLAB_00
10
2.381
20
-53.338
30
0.0
0
VERTEX
8
SLAB_00
10
2.971
20
-57.024
30
0.0
0
VERTEX
8
SLAB_00
10
3.661
20
-60.782
30
0.0
0
VERTEX
8
SLAB_00
10
4.459
20
-64.610
30
0.0
0
VERTEX
8
SLAB_00
10
5.374
20
-68.506
30
0.0
0
VERTEX
8
SLAB_00
10
6.416
20
-72.467
30
0.0
0
VERTEX
8
SLAB_00
10
7.595
20
-76.488
30
0.0
0
VERTEX
8
SLAB_00
10
8.918
20
-80.564
30
0.0
0
VERTEX
8
SLAB_00
10
10.394
20
-84.691
30
0.0
0
VERTEX
8
SLAB_00
10
12.033
20
-88.860
30
0.0
0
VERTEX
8
SLAB_00
10
13.841
20
-93.066
30
0.0
0
VERTEX
8
SLAB_00
10
15.828
20
-97.300
30
0.0
0
VERTEX
8
SLAB_00
10
18.000
20
-101.553
30
0.0
0
VERTEX
8
SLAB_00
10
20.364
20
-105.817
30
0.0
0
VERTEX
8
SLAB_00
10
22.927
20
-110.080
30
0.0
0
VERTEX
8
SLAB_00
10
25.694
20
-114.333
30
0.0
0
VERTEX
8
SLAB_00
10
28.670
20
-118.563
30
0.0
0
VERTEX
8
SLAB_00
10
31.860
20
-122.760
30
0.0
0
VERTEX
8
SLAB_00
10
35.266
20
-126.911
30
0.0
0
VERTEX
8
SLAB_00
10
38.893
20
-131.002
30
0.0
0
VERTEX
8
SLAB_00
10
42.741
20
-135.022
30
0.0
0
VERTEX
8
SLAB_00
10
46.812
20
-138.955
30
0.0
0
VERTEX
8
SLAB_00
10
51.107
20
-142.790
30
0.0
0
VERTEX
8
SLAB_00
10
55.624
20
-146.511
30
0.0
0
VERTEX
8
SLAB_00
10
60.362
20
-150.104
30
0.0
0
VERTEX
8
SLAB_00
10
65.319
20
-153.555
30
0.0
0
VERTEX
8
SLAB_00
10
70.490
20
-156.851
30
0.0
0
VERTEX
8
SLAB_00
10
75.871
20
-159.975
30
0.0
0
VERTEX
8
SLAB_00
10
81.458
20
-162.916
30
0.0
0
VERTEX
8
SLAB_00
10
87.243
20
-165.658
30
0.0
0
VERTEX
8
SLAB_00
10
93.219
20
-168.187
30
0.0
0
VERTEX
8
SLAB_00
10
99.377
20
-170.491
30
0.0
0
VERTEX
8
SLAB_00
10
105.709
20
-172.557
30
0.0
0
VERTEX
8
SLAB_00
10
112.204
20
-174.371
30
0.0
0
VERTEX
8
SLAB_00
10
118.851
20
-175.922
30
0.0
0
VERTEX
8
SLAB_00
10
125.638
20
-177.198
30
0.0
0
VERTEX
8
SLAB_00
10
132.552
20
-178.188
30
0.0
0
VERTEX
8
SLAB_00
10
139.580
20
-178.882
30
0.0
0
VERTEX
8
SLAB_00
10
146.707
20
-179.271
30
0.0
0
VERTEX
8
SLAB_00
10
153.918
20
-179.346
30
0.0
0
VERTEX
8
SLAB_00
10
161.198
20
-179.098
30
0.0
0
VERTEX
8
SLAB_00
10
168.529
20
-178.523
30
0.0
0
VERTEX
8
SLAB_00
10
175.896
20
-177.612
30
0.0
0
VERTEX
8
SLAB_00
10
183.280
20
-176.361
30
0.0
0
VERTEX
8
SLAB_00
10
190.665
20
-174.767
30
0.0
0
VERTEX
8
SLAB_00
10
198.031
20
-172.826
30
0.0
0
VERTEX
8
SLAB_00
10
205.360
20
-170.537
30
0.0
0
VERTEX
8
SLAB_00
10
212.635
20
-167.898
30
0.0
0
VERTEX
8
SLAB_00
10
219.835
20
-164.911
30
0.0
0
VERTEX
8
SLAB_00
10
226.941
20
-161.576
30
0.0
0
VERTEX
8
SLAB_00
10
233.936
20
-157.896
30
0.0
0
VERTEX
8
SLAB_00
10
240.800
20
-153.875
30
0.0
0
VERTEX
8
SLAB_00
10
247.514
20
-149.518
30
0.0
0
VERTEX
8
SLAB_00
10
254.060
20
-144.830
30
0.0
0
VERTEX
8
SLAB_00
10
260.419
20
-139.820
30
0.0
0
VERTEX
8
SLAB_00
10
266.574
20
-134.495
30
0.0
0
VERTEX
8
SLAB_00
10
272.507
20
-128.865
30
0.0
0
VERTEX
8
SLAB_00
10
278.202
20
-122.939
30
0.0
0
VERTEX
8
SLAB_00
10
283.640
20
-116.730
30
0.0
0
VERTEX
8
SLAB_00
10
288.808
20
-110.250
30
0.0
0
VERTEX
8
SLAB_00
10
293.690
20
-103.512
30
0.0
0
VERTEX
8
SLAB_00
10
298.271
20
-96.531
30
0.0
0
VERTEX
8
SLAB_00
10
302.538
20
-89.322
30
0.0
0
VERTEX
8
SLAB_00
10
306.478
20
-81.901
30
0.0
0
VERTEX
8
SLAB_00
10
310.079
20
-74.284
30
0.0
0
VERTEX
8
SLAB_00
10
313.332
20
-66.489
30
0.0
0
VERTEX
8
SLAB_00
10
316.225
20
-58.534
30
0.0
0
VERTEX
8
SLAB_00
10
318.750
20
-50.438
30
0.0
0
VERTEX
8
SLAB_00
10
320.900
20
-42.220
30
0.0
0
VERTEX
8
SLAB_00
10
322.668
20
-33.900
30
0.0
0
VERTEX
8
SLAB_00
10
324.049
20
-25.497
30
0.0
0
VERTEX
8
SLAB_00
10
325.038
20
-17.033
30
0.0
0
VERTEX
8
SLAB_00
10
325.633
20
-8.527
30
0.0
0
SEQEND
8
SLAB_00
0
TEXT
8
TEXT
10
0.000
20
194.346
30
0.0
40
8.0
1
28: s'=+579 D=359
0
CIRCLE
8
DOWEL
10
15.000
20
18.000
30
0.0
40
3.250
0
TEXT
8
DOWEL
10
20.000
20
16.000
30
0.0
40
3.0
1
A
0
CIRCLE
8
DOWEL
10
15.000
20
-18.000
30
0.0
40
3.250
0
TEXT
8
DOWEL
10
20.000
20
-20.000
30
0.0
40
3.0
1
B
0
CIRCLE
8
DOWEL
10
45.000
20
18.000
30
0.0
40
3.250
0
TEXT
8
DOWEL
10
50.000
20
16.000
30
0.0
40
3.0
1
C
0
CIRCLE
8
DOWEL
10
45.000
20
-18.000
30
0.0
40
3.250
0
TEXT
8
DOWEL
10
50.000
20
-20.000
30
0.0
40
3.0
1
D
0
ENDSEC
0
EOF