0
SECTION
2
HEADER
9
$ACADVER
1
AC1009
9
$INSUNITS
70
4
0
ENDSEC
0
SECTION
2
TABLES
0
TABLE
2
LAYER
70
4
0
LAYER
2
0
70
0
62
7
6
CONTINUOUS
0
LAYER
2
TEXT
70
0
62
1
6
CONTINUOUS
0
LAYER
2
DOWEL
70
0
62
5
6
CONTINUOUS
0
LAYER
2
SLAB_00
70
0
62
2
6
CONTINUOUS
0
ENDTAB
0
ENDSEC
0
SECTION
2
ENTITIES
0
POLYLINE
8
SLAB_00
66
1
70
1
10
0.0
20
0.0
30
0.0
0
VERTEX
8
SLAB_00
10
311.262
20
0.000
30
0.0
0
VERTEX
8
SLAB_00
10
311.073
20
8.146
30
0.0
0
VERTEX
8
SLAB_00
10
310.504
20
16.271
30
0.0
0
VERTEX
8
SLAB_00
10
309.559
20
24.357
30
0.0
0
VERTEX
8
SLAB_00
10
308.240
20
32.384
30
0.0
0
VERTEX
8
SLAB_00
10
306.551
20
40.332
30
0.0
0
VERTEX
8
SLAB_00
10
304.498
20
48.183
30
0.0
0
VERTEX
8
SLAB_00
10
302.085
20
55.917
30
0.0
0
VERTEX
8
SLAB_00
10
299.321
20
63.516
30
0.0
0
VERTEX
8
SLAB_00
10
296.214
20
70.962
30
0.0
0
VERTEX
8
SLAB_00
10
292.774
20
78.238
30
0.0
0
VERTEX
8
SLAB_00
10
289.010
20
85.328
30
0.0
0
VERTEX
8
SLAB_00
10
284.934
20
92.215
30
0.0
0
VERTEX
8
SLAB_00
10
280.558
20
98.884
30
0.0
0
VERTEX
8
SLAB_00
10
275.894
20
105.320
30
0.0
0
VERTEX
8
SLAB_00
10
270.958
20
111.511
30
0.0
0
VERTEX
8
SLAB_00
10
265.762
20
117.442
30
0.0
0
VERTEX
8
SLAB_00
10
260.322
20
123.102
30
0.0
0
VERTEX
8
SLAB_00
10
254.655
20
128.481
30
0.0
0
VERTEX
8
SLAB_00
10
248.775
20
133.568
30
0.0
0
VERTEX
8
SLAB_00
10
242.700
20
138.354
30
0.0
0
VERTEX
8
SLAB_00
10
236.447
20
142.832
30
0.0
0
VERTEX
8
SLAB_00
10
230.033
20
146.995
30
0.0
0
VERTEX
8
SLAB_00
10
223.476
20
150.836
30
0.0
0
VERTEX
8
SLAB_00
10
216.794
20
154.351
30
0.0
0
VERTEX
8
SLAB_00
10
210.005
20
157.537
30
0.0
0
VERTEX
8
SLAB_00
10
203.127
20
160.391
30
0.0
0
VERTEX
8
SLAB_00
10
196.178
20
162.912
30
0.0
0
VERTEX
8
SLAB_00
10
189.176
20
165.099
30
0.0
0
VERTEX
8
SLAB_00
10
182.139
20
166.953
30
0.0
0
VERTEX
8
SLAB_00
10
175.085
20
168.476
30
0.0
0
VERTEX
8
SLAB_00
10
168.031
20
169.670
30
0.0
0
VERTEX
8
SLAB_00
10
160.993
20
170.540
30
0.0
0
VERTEX
8
SLAB_00
10
153.990
20
171.090
30
0.0
0
VERTEX
8
SLAB_00
10
147.036
20
171.326
30
0.0
0
VERTEX
8
SLAB_00
10
140.147
20
171.255
30
0.0
0
VERTEX
8
SLAB_00
10
133.339
20
170.883
30
0.0
0
VERTEX
8
SLAB_00
10
126.625
20
170.220
30
0.0
0
VERTEX
8
SLAB_00
10
120.020
20
169.274
30
0.0
0
VERTEX
8
SLAB_00
10
113.537
20
168.055
30
0.0
0
VERTEX
8
SLAB_00
10
107.187
20
166.574
30
0.0
0
VERTEX
8
SLAB_00
10
100.982
20
164.841
30
0.0
0
VERTEX
8
SLAB_00
10
94.934
20
162.868
30
0.0
0
VERTEX
8
SLAB_00
10
89.050
20
160.667
30
0.0
0
VERTEX
8
SLAB_00
10
83.342
20
158.250
30
0.0
0
VERTEX
8
SLAB_00
10
77.816
20
155.631
30
0.0
0
VERTEX
8
SLAB_00
10
72.479
20
152.822
30
0.0
0
VERTEX
8
SLAB_00
10
67.338
20
149.837
30
0.0
0
VERTEX
8
SLAB_00
10
62.398
20
146.689
30
0.0
0
VERTEX
8
SLAB_00
10
57.663
20
143.392
30
0.0
0
VERTEX
8
SLAB_00
10
53.137
20
139.959
30
0.0
0
VERTEX
8
SLAB_00
10
48.822
20
136.405
30
0.0
0
VERTEX
8
SLAB_00
10
44.719
20
132.742
30
0.0
0
VERTEX
8
SLAB_00
10
40.830
20
128.984
30
0.0
0
VERTEX
8
SLAB_00
10
37.154
20
125.145
30
0.0
0
VERTEX
8
SLAB_00
10
33.689
20
121.236
30
0.0
0
VERTEX
8
SLAB_00
10
30.435
20
117.271
30
0.0
0
VERTEX
8
SLAB_00
10
27.388
20
113.262
30
0.0
0
VERTEX
8
SLAB_00
10
24.545
20
109.221
30
0.0
0
VERTEX
8
SLAB_00
10
21.902
20
105.158
30
0.0
0
VERTEX
8
SLAB_00
10
19.454
20
101.085
30
0.0
0
VERTEX
8
SLAB_00
10
17.195
20
97.013
30
0.0
0
VERTEX
8
SLAB_00
10
15.120
20
92.949
30
0.0
0
VERTEX
8
SLAB_00
10
13.222
20
88.905
30
0.0
0
VERTEX
8
SLAB_00
10
11.495
20
84.887
30
0.0
0
VERTEX
8
SLAB_00
10
9.929
20
80.904
30
0.0
0
VERTEX
8
SLAB_00
10
8.519
20
76.962
30
0.0
0
VERTEX
8
SLAB_00
10
7.255
20
73.068
30
0.0
0
VERTEX
8
SLAB_00
10
6.130
20
69.226
30
0.0
0
VERTEX
8
SLAB_00
10
5.134
20
65.443
30
0.0
0
VERTEX
8
SLAB_00
10
4.259
20
61.721
30
0.0
0
VERTEX
8
SLAB_00
10
3.497
20
58.064
30
0.0
0
VERTEX
8
SLAB_00
10
2.838
20
54.474
30
0.0
0
VERTEX
8
SLAB_00
10
2.274
20
50.953
30
0.0
0
VERTEX
8
SLAB_00
10
1.797
20
47.502
30
0.0
0
VERTEX
8
SLAB_00
10
1.397
20
44.120
30
0.0
0
VERTEX
8
SLAB_00
10
1.066
20
40.808
30
0.0
0
VERTEX
8
SLAB_00
10
0.797
20
37.564
30
0.0
0
VERTEX
8
SLAB_00
10
0.582
20
34.387
30
0.0
0
VERTEX
8
SLAB_00
10
0.413
20
31.273
30
0.0
0
VERTEX
8
SLAB_00
10
0.283
20
28.220
30
0.0
0
VERTEX
8
SLAB_00
10
0.186
20
25.223
30
0.0
0
VERTEX
8
SLAB_00
10
0.117
20
22.280
30
0.0
0
VERTEX
8
SLAB_00
10
0.069
20
19.384
30
0.0
0
VERTEX
8
SLAB_00
10
0.037
20
16.532
30
0.0
0
VERTEX
8
SLAB_00
10
0.018
20
13.718
30
0.0
0
VERTEX
8
SLAB_00
10
0.007
20
10.935
30
0.0
0
VERTEX
8
SLAB_00
10
0.002
20
8.178
30
0.0
0
VERTEX
8
SLAB_00
10
0.000
20
5.441
30
0.0
0
VERTEX
8
SLAB_00
10
0.000
20
2.717
30
0.0
0
VERTEX
8
SLAB_00
10
0.000
20
0.000
30
0.0
0
VERTEX
8
SLAB_00
10
0.000
20
-2.717
30
0.0
0
VERTEX
8
SLAB_00
10
0.000
20
-5.441
30
0.0
0
VERTEX
8
SLAB_00
10
0.002
20
-8.178
30
0.0
0
VERTEX
8
SLAB_00
10
0.007
20
-10.935
30
0.0
0
VERTEX
8
SLAB_00
10
0.018
20
-13.718
30
0.0
0
VERTEX
8
SLAB_00
10
0.037
20
-16.532
30
0.0
0
VERTEX
8
SLAB_00
10
0.069
20
-19.384
30
0.0
0
VERTEX
8
SLAB_00
10
0.117
20
-22.280
30
0.0
0
VERTEX
8
SLAB_00
10
0.186
20
-25.223
30
0.0
0
VERTEX
8
SLAB_00
10
0.283
20
-28.220
30
0.0
0
VERTEX
8
SLAB_00
10
0.413
20
-31.273
30
0.0
0
VERTEX
8
SLAB_00
10
0.582
20
-34.387
30
0.0
0
VERTEX
8
SLAB_00
10
0.797
20
-37.564
30
0.0
0
VERTEX
8
SLAB_00
10
1.066
20
-40.808
30
0.0
0
VERTEX
8
SLAB_00
10
1.397
20
-44.120
30
0.0
0
VERTEX
8
SLAB_00
10
1.797
20
-47.502
30
0.0
0
VERTEX
8
SLAB_00
10
2.274
20
-50.953
30
0.0
0
VERTEX
8
SLAB_00
10
2.838
20
-54.474
30
0.0
0
VERTEX
8
SLAB_00
10
3.497
20
-58.064
30
0.0
0
VERTEX
8
SLAB_00
10
4.259
20
-61.721
30
0.0
0
VERTEX
8
SLAB_00
10
5.134
20
-65.443
30
0.0
0
VERTEX
8
SLAB_00
10
6.130
20
-69.226
30
0.0
0
VERTEX
8
SLAB_00
10
7.255
20
-73.068
30
0.0
0
VERTEX
8
SLAB_00
10
8.519
20
-76.962
30
0.0
0
VERTEX
8
SLAB_00
10
9.929
20
-80.904
30
0.0
0
VERTEX
8
SLAB_00
10
11.495
20
-84.887
30
0.0
0
VERTEX
8
SLAB_00
10
13.222
20
-88.905
30
0.0
0
VERTEX
8
SLAB_00
10
15.120
20
-92.949
30
0.0
0
VERTEX
8
SLAB_00
10
17.195
20
-97.013
30
0.0
0
VERTEX
8
SLAB_00
10
19.454
20
-101.085
30
0.0
0
VERTEX
8
SLAB_00
10
21.902
20
-105.158
30
0.0
0
VERTEX
8
SLAB_00
10
24.545
20
-109.221
30
0.0
0
VERTEX
8
SLAB_00
10
27.388
20
-113.262
30
0.0
0
VERTEX
8
SLAB_00
10
30.435
20
-117.271
30
0.0
0
VERTEX
8
SLAB_00
10
33.689
20
-121.236
30
0.0
0
VERTEX
8
SLAB_00
10
37.154
20
-125.145
30
0.0
0
VERTEX
8
SLAB_00
10
40.830
20
-128.984
30
0.0
0
VERTEX
8
SLAB_00
10
44.719
20
-132.742
30
0.0
0
VERTEX
8
SLAB_00
10
48.822
20
-136.405
30
0.0
0
VERTEX
8
SLAB_00
10
53.137
20
-139.959
30
0.0
0
VERTEX
8
SLAB_00
10
57.663
20
-143.392
30
0.0
0
VERTEX
8
SLAB_00
10
62.398
20
-146.689
30
0.0
0
VERTEX
8
SLAB_00
10
67.338
20
-149.837
30
0.0
0
VERTEX
8
SLAB_00
10
72.479
20
-152.822
30
0.0
0
VERTEX
8
SLAB_00
10
77.816
20
-155.631
30
0.0
0
VERTEX
8
SLAB_00
10
83.342
20
-158.250
30
0.0
0
VERTEX
8
SLAB_00
10
89.050
20
-160.667
30
0.0
0
VERTEX
8
SLAB_00
10
94.934
20
-162.868
30
0.0
0
VERTEX
8
SLAB_00
10
100.982
20
-164.841
30
0.0
0
VERTEX
8
SLAB_00
10
107.187
20
-166.574
30
0.0
0
VERTEX
8
SLAB_00
10
113.537
20
-168.055
30
0.0
0
VERTEX
8
SLAB_00
10
120.020
20
-169.274
30
0.0
0
VERTEX
8
SLAB_00
10
126.625
20
-170.220
30
0.0
0
VERTEX
8
SLAB_00
10
133.339
20
-170.883
30
0.0
0
VERTEX
8
SLAB_00
10
140.147
20
-171.255
30
0.0
0
VERTEX
8
SLAB_00
10
147.036
20
-171.326
30
0.0
0
VERTEX
8
SLAB_00
10
153.990
20
-171.090
30
0.0
0
VERTEX
8
SLAB_00
10
160.993
20
-170.540
30
0.0
0
VERTEX
8
SLAB_00
10
168.031
20
-169.670
30
0.0
0
VERTEX
8
SLAB_00
10
175.085
20
-168.476
30
0.0
0
VERTEX
8
SLAB_00
10
182.139
20
-166.953
30
0.0
0
VERTEX
8
SLAB_00
10
189.176
20
-165.099
30
0.0
0
VERTEX
8
SLAB_00
10
196.178
20
-162.912
30
0.0
0
VERTEX
8
SLAB_00
10
203.127
20
-160.391
30
0.0
0
VERTEX
8
SLAB_00
10
210.005
20
-157.537
30
0.0
0
VERTEX
8
SLAB_00
10
216.794
20
-154.351
30
0.0
0
VERTEX
8
SLAB_00
10
223.476
20
-150.836
30
0.0
0
VERTEX
8
SLAB_00
10
230.033
20
-146.995
30
0.0
0
VERTEX
8
SLAB_00
10
236.447
20
-142.832
30
0.0
0
VERTEX
8
SLAB_00
10
242.700
20
-138.354
30
0.0
0
VERTEX
8
SLAB_00
10
248.775
20
-133.568
30
0.0
0
VERTEX
8
SLAB_00
10
254.655
20
-128.481
30
0.0
0
VERTEX
8
SLAB_00
10
260.322
20
-123.102
30
0.0
0
VERTEX
8
SLAB_00
10
265.762
20
-117.442
30
0.0
0
VERTEX
8
SLAB_00
10
270.958
20
-111.511
30
0.0
0
VERTEX
8
SLAB_00
10
275.894
20
-105.320
30
0.0
0
VERTEX
8
SLAB_00
10
280.558
20
-98.884
30
0.0
0
VERTEX
8
SLAB_00
10
284.934
20
-92.215
30
0.0
0
VERTEX
8
SLAB_00
10
289.010
20
-85.328
30
0.0
0
VERTEX
8
SLAB_00
10
292.774
20
-78.238
30
0.0
0
VERTEX
8
SLAB_00
10
296.214
20
-70.962
30
0.0
0
VERTEX
8
SLAB_00
10
299.321
20
-63.516
30
0.0
0
VERTEX
8
SLAB_00
10
302.085
20
-55.917
30
0.0
0
VERTEX
8
SLAB_00
10
304.498
20
-48.183
30
0.0
0
VERTEX
8
SLAB_00
10
306.551
20
-40.332
30
0.0
0
VERTEX
8
SLAB_00
10
308.240
20
-32.384
30
0.0
0
VERTEX
8
SLAB_00
10
309.559
20
-24.357
30
0.0
0
VERTEX
8
SLAB_00
10
310.504
20
-16.271
30
0.0
0
VERTEX
8
SLAB_00
10
311.073
20
-8.146
30
0.0
0
SEQEND
8
SLAB_00
0
TEXT
8
TEXT
10
0.000
20
186.326
30
0.0
40
8.0
1
34: s'=+732 D=343
0
CIRCLE
8
DOWEL
10
15.000
20
18.000
30
0.0
40
3.250
0
TEXT
8
DOWEL
10
20.000
20
16.000
30
0.0
40
3.0
1
A
0
CIRCLE
8
DOWEL
10
15.000
20
-18.000
30
0.0
40
3.250
0
TEXT
8
DOWEL
10
20.000
20
-20.000
30
0.0
40
3.0
1
B
0
CIRCLE
8
DOWEL
10
45.000
20
18.000
30
0.0
40
3.250
0
TEXT
8
DOWEL
10
50.000
20
16.000
30
0.0
40
3.0
1
C
0
CIRCLE
8
DOWEL
10
45.000
20
-18.000
30
0.0
40
3.250
0
TEXT
8
DOWEL
10
50.000
20
-20.000
30
0.0
40
3.0
1
D
0
ENDSEC
0
EOF