0
SECTION
2
HEADER
9
$ACADVER
1
AC1009
9
$INSUNITS
70
4
0
ENDSEC
0
SECTION
2
TABLES
0
TABLE
2
LAYER
70
4
0
LAYER
2
0
70
0
62
7
6
CONTINUOUS
0
LAYER
2
TEXT
70
0
62
1
6
CONTINUOUS
0
LAYER
2
DOWEL
70
0
62
5
6
CONTINUOUS
0
LAYER
2
SLAB_00
70
0
62
2
6
CONTINUOUS
0
ENDTAB
0
ENDSEC
0
SECTION
2
ENTITIES
0
POLYLINE
8
SLAB_00
66
1
70
1
10
0.0
20
0.0
30
0.0
0
VERTEX
8
SLAB_00
10
189.021
20
0.000
30
0.0
0
VERTEX
8
SLAB_00
10
188.906
20
4.947
30
0.0
0
VERTEX
8
SLAB_00
10
188.561
20
9.881
30
0.0
0
VERTEX
8
SLAB_00
10
187.987
20
14.791
30
0.0
0
VERTEX
8
SLAB_00
10
187.186
20
19.666
30
0.0
0
VERTEX
8
SLAB_00
10
186.160
20
24.493
30
0.0
0
VERTEX
8
SLAB_00
10
184.913
20
29.260
30
0.0
0
VERTEX
8
SLAB_00
10
183.448
20
33.957
30
0.0
0
VERTEX
8
SLAB_00
10
181.770
20
38.571
30
0.0
0
VERTEX
8
SLAB_00
10
179.883
20
43.093
30
0.0
0
VERTEX
8
SLAB_00
10
177.794
20
47.512
30
0.0
0
VERTEX
8
SLAB_00
10
175.508
20
51.817
30
0.0
0
VERTEX
8
SLAB_00
10
173.032
20
56.000
30
0.0
0
VERTEX
8
SLAB_00
10
170.375
20
60.050
30
0.0
0
VERTEX
8
SLAB_00
10
167.543
20
63.958
30
0.0
0
VERTEX
8
SLAB_00
10
164.545
20
67.717
30
0.0
0
VERTEX
8
SLAB_00
10
161.390
20
71.319
30
0.0
0
VERTEX
8
SLAB_00
10
158.087
20
74.757
30
0.0
0
VERTEX
8
SLAB_00
10
154.645
20
78.023
30
0.0
0
VERTEX
8
SLAB_00
10
151.074
20
81.112
30
0.0
0
VERTEX
8
SLAB_00
10
147.385
20
84.019
30
0.0
0
VERTEX
8
SLAB_00
10
143.588
20
86.738
30
0.0
0
VERTEX
8
SLAB_00
10
139.693
20
89.266
30
0.0
0
VERTEX
8
SLAB_00
10
135.711
20
91.598
30
0.0
0
VERTEX
8
SLAB_00
10
131.653
20
93.733
30
0.0
0
VERTEX
8
SLAB_00
10
127.530
20
95.668
30
0.0
0
VERTEX
8
SLAB_00
10
123.353
20
97.401
30
0.0
0
VERTEX
8
SLAB_00
10
119.133
20
98.932
30
0.0
0
VERTEX
8
SLAB_00
10
114.881
20
100.260
30
0.0
0
VERTEX
8
SLAB_00
10
110.608
20
101.386
30
0.0
0
VERTEX
8
SLAB_00
10
106.324
20
102.311
30
0.0
0
VERTEX
8
SLAB_00
10
102.040
20
103.036
30
0.0
0
VERTEX
8
SLAB_00
10
97.767
20
103.564
30
0.0
0
VERTEX
8
SLAB_00
10
93.514
20
103.898
30
0.0
0
VERTEX
8
SLAB_00
10
89.291
20
104.042
30
0.0
0
VERTEX
8
SLAB_00
10
85.108
20
103.998
30
0.0
0
VERTEX
8
SLAB_00
10
80.973
20
103.773
30
0.0
0
VERTEX
8
SLAB_00
10
76.896
20
103.370
30
0.0
0
VERTEX
8
SLAB_00
10
72.885
20
102.796
30
0.0
0
VERTEX
8
SLAB_00
10
68.948
20
102.055
30
0.0
0
VERTEX
8
SLAB_00
10
65.092
20
101.156
30
0.0
0
VERTEX
8
SLAB_00
10
61.324
20
100.103
30
0.0
0
VERTEX
8
SLAB_00
10
57.651
20
98.905
30
0.0
0
VERTEX
8
SLAB_00
10
54.078
20
97.569
30
0.0
0
VERTEX
8
SLAB_00
10
50.611
20
96.101
30
0.0
0
VERTEX
8
SLAB_00
10
47.255
20
94.511
30
0.0
0
VERTEX
8
SLAB_00
10
44.014
20
92.805
30
0.0
0
VERTEX
8
SLAB_00
10
40.892
20
90.992
30
0.0
0
VERTEX
8
SLAB_00
10
37.893
20
89.080
30
0.0
0
VERTEX
8
SLAB_00
10
35.017
20
87.078
30
0.0
0
VERTEX
8
SLAB_00
10
32.269
20
84.994
30
0.0
0
VERTEX
8
SLAB_00
10
29.648
20
82.835
30
0.0
0
VERTEX
8
SLAB_00
10
27.157
20
80.611
30
0.0
0
VERTEX
8
SLAB_00
10
24.795
20
78.329
30
0.0
0
VERTEX
8
SLAB_00
10
22.562
20
75.997
30
0.0
0
VERTEX
8
SLAB_00
10
20.459
20
73.623
30
0.0
0
VERTEX
8
SLAB_00
10
18.482
20
71.215
30
0.0
0
VERTEX
8
SLAB_00
10
16.632
20
68.781
30
0.0
0
VERTEX
8
SLAB_00
10
14.906
20
66.327
30
0.0
0
VERTEX
8
SLAB_00
10
13.300
20
63.860
30
0.0
0
VERTEX
8
SLAB_00
10
11.814
20
61.386
30
0.0
0
VERTEX
8
SLAB_00
10
10.442
20
58.913
30
0.0
0
VERTEX
8
SLAB_00
10
9.182
20
56.446
30
0.0
0
VERTEX
8
SLAB_00
10
8.030
20
53.989
30
0.0
0
VERTEX
8
SLAB_00
10
6.980
20
51.550
30
0.0
0
VERTEX
8
SLAB_00
10
6.030
20
49.131
30
0.0
0
VERTEX
8
SLAB_00
10
5.173
20
46.737
30
0.0
0
VERTEX
8
SLAB_00
10
4.406
20
44.372
30
0.0
0
VERTEX
8
SLAB_00
10
3.722
20
42.039
30
0.0
0
VERTEX
8
SLAB_00
10
3.118
20
39.742
30
0.0
0
VERTEX
8
SLAB_00
10
2.587
20
37.482
30
0.0
0
VERTEX
8
SLAB_00
10
2.124
20
35.261
30
0.0
0
VERTEX
8
SLAB_00
10
1.724
20
33.081
30
0.0
0
VERTEX
8
SLAB_00
10
1.381
20
30.942
30
0.0
0
VERTEX
8
SLAB_00
10
1.091
20
28.847
30
0.0
0
VERTEX
8
SLAB_00
10
0.848
20
26.793
30
0.0
0
VERTEX
8
SLAB_00
10
0.647
20
24.782
30
0.0
0
VERTEX
8
SLAB_00
10
0.484
20
22.812
30
0.0
0
VERTEX
8
SLAB_00
10
0.353
20
20.882
30
0.0
0
VERTEX
8
SLAB_00
10
0.251
20
18.991
30
0.0
0
VERTEX
8
SLAB_00
10
0.172
20
17.137
30
0.0
0
VERTEX
8
SLAB_00
10
0.113
20
15.317
30
0.0
0
VERTEX
8
SLAB_00
10
0.071
20
13.530
30
0.0
0
VERTEX
8
SLAB_00
10
0.042
20
11.772
30
0.0
0
VERTEX
8
SLAB_00
10
0.023
20
10.040
30
0.0
0
VERTEX
8
SLAB_00
10
0.011
20
8.330
30
0.0
0
VERTEX
8
SLAB_00
10
0.004
20
6.641
30
0.0
0
VERTEX
8
SLAB_00
10
0.001
20
4.967
30
0.0
0
VERTEX
8
SLAB_00
10
0.000
20
3.304
30
0.0
0
VERTEX
8
SLAB_00
10
0.000
20
1.650
30
0.0
0
VERTEX
8
SLAB_00
10
0.000
20
0.000
30
0.0
0
VERTEX
8
SLAB_00
10
0.000
20
-1.650
30
0.0
0
VERTEX
8
SLAB_00
10
0.000
20
-3.304
30
0.0
0
VERTEX
8
SLAB_00
10
0.001
20
-4.967
30
0.0
0
VERTEX
8
SLAB_00
10
0.004
20
-6.641
30
0.0
0
VERTEX
8
SLAB_00
10
0.011
20
-8.330
30
0.0
0
VERTEX
8
SLAB_00
10
0.023
20
-10.040
30
0.0
0
VERTEX
8
SLAB_00
10
0.042
20
-11.772
30
0.0
0
VERTEX
8
SLAB_00
10
0.071
20
-13.530
30
0.0
0
VERTEX
8
SLAB_00
10
0.113
20
-15.317
30
0.0
0
VERTEX
8
SLAB_00
10
0.172
20
-17.137
30
0.0
0
VERTEX
8
SLAB_00
10
0.251
20
-18.991
30
0.0
0
VERTEX
8
SLAB_00
10
0.353
20
-20.882
30
0.0
0
VERTEX
8
SLAB_00
10
0.484
20
-22.812
30
0.0
0
VERTEX
8
SLAB_00
10
0.647
20
-24.782
30
0.0
0
VERTEX
8
SLAB_00
10
0.848
20
-26.793
30
0.0
0
VERTEX
8
SLAB_00
10
1.091
20
-28.847
30
0.0
0
VERTEX
8
SLAB_00
10
1.381
20
-30.942
30
0.0
0
VERTEX
8
SLAB_00
10
1.724
20
-33.081
30
0.0
0
VERTEX
8
SLAB_00
10
2.124
20
-35.261
30
0.0
0
VERTEX
8
SLAB_00
10
2.587
20
-37.482
30
0.0
0
VERTEX
8
SLAB_00
10
3.118
20
-39.742
30
0.0
0
VERTEX
8
SLAB_00
10
3.722
20
-42.039
30
0.0
0
VERTEX
8
SLAB_00
10
4.406
20
-44.372
30
0.0
0
VERTEX
8
SLAB_00
10
5.173
20
-46.737
30
0.0
0
VERTEX
8
SLAB_00
10
6.030
20
-49.131
30
0.0
0
VERTEX
8
SLAB_00
10
6.980
20
-51.550
30
0.0
0
VERTEX
8
SLAB_00
10
8.030
20
-53.989
30
0.0
0
VERTEX
8
SLAB_00
10
9.182
20
-56.446
30
0.0
0
VERTEX
8
SLAB_00
10
10.442
20
-58.913
30
0.0
0
VERTEX
8
SLAB_00
10
11.814
20
-61.386
30
0.0
0
VERTEX
8
SLAB_00
10
13.300
20
-63.860
30
0.0
0
VERTEX
8
SLAB_00
10
14.906
20
-66.327
30
0.0
0
VERTEX
8
SLAB_00
10
16.632
20
-68.781
30
0.0
0
VERTEX
8
SLAB_00
10
18.482
20
-71.215
30
0.0
0
VERTEX
8
SLAB_00
10
20.459
20
-73.623
30
0.0
0
VERTEX
8
SLAB_00
10
22.562
20
-75.997
30
0.0
0
VERTEX
8
SLAB_00
10
24.795
20
-78.329
30
0.0
0
VERTEX
8
SLAB_00
10
27.157
20
-80.611
30
0.0
0
VERTEX
8
SLAB_00
10
29.648
20
-82.835
30
0.0
0
VERTEX
8
SLAB_00
10
32.269
20
-84.994
30
0.0
0
VERTEX
8
SLAB_00
10
35.017
20
-87.078
30
0.0
0
VERTEX
8
SLAB_00
10
37.893
20
-89.080
30
0.0
0
VERTEX
8
SLAB_00
10
40.892
20
-90.992
30
0.0
0
VERTEX
8
SLAB_00
10
44.014
20
-92.805
30
0.0
0
VERTEX
8
SLAB_00
10
47.255
20
-94.511
30
0.0
0
VERTEX
8
SLAB_00
10
50.611
20
-96.101
30
0.0
0
VERTEX
8
SLAB_00
10
54.078
20
-97.569
30
0.0
0
VERTEX
8
SLAB_00
10
57.651
20
-98.905
30
0.0
0
VERTEX
8
SLAB_00
10
61.324
20
-100.103
30
0.0
0
VERTEX
8
SLAB_00
10
65.092
20
-101.156
30
0.0
0
VERTEX
8
SLAB_00
10
68.948
20
-102.055
30
0.0
0
VERTEX
8
SLAB_00
10
72.885
20
-102.796
30
0.0
0
VERTEX
8
SLAB_00
10
76.896
20
-103.370
30
0.0
0
VERTEX
8
SLAB_00
10
80.973
20
-103.773
30
0.0
0
VERTEX
8
SLAB_00
10
85.108
20
-103.998
30
0.0
0
VERTEX
8
SLAB_00
10
89.291
20
-104.042
30
0.0
0
VERTEX
8
SLAB_00
10
93.514
20
-103.898
30
0.0
0
VERTEX
8
SLAB_00
10
97.767
20
-103.564
30
0.0
0
VERTEX
8
SLAB_00
10
102.040
20
-103.036
30
0.0
0
VERTEX
8
SLAB_00
10
106.324
20
-102.311
30
0.0
0
VERTEX
8
SLAB_00
10
110.608
20
-101.386
30
0.0
0
VERTEX
8
SLAB_00
10
114.881
20
-100.260
30
0.0
0
VERTEX
8
SLAB_00
10
119.133
20
-98.932
30
0.0
0
VERTEX
8
SLAB_00
10
123.353
20
-97.401
30
0.0
0
VERTEX
8
SLAB_00
10
127.530
20
-95.668
30
0.0
0
VERTEX
8
SLAB_00
10
131.653
20
-93.733
30
0.0
0
VERTEX
8
SLAB_00
10
135.711
20
-91.598
30
0.0
0
VERTEX
8
SLAB_00
10
139.693
20
-89.266
30
0.0
0
VERTEX
8
SLAB_00
10
143.588
20
-86.738
30
0.0
0
VERTEX
8
SLAB_00
10
147.385
20
-84.019
30
0.0
0
VERTEX
8
SLAB_00
10
151.074
20
-81.112
30
0.0
0
VERTEX
8
SLAB_00
10
154.645
20
-78.023
30
0.0
0
VERTEX
8
SLAB_00
10
158.087
20
-74.757
30
0.0
0
VERTEX
8
SLAB_00
10
161.390
20
-71.319
30
0.0
0
VERTEX
8
SLAB_00
10
164.545
20
-67.717
30
0.0
0
VERTEX
8
SLAB_00
10
167.543
20
-63.958
30
0.0
0
VERTEX
8
SLAB_00
10
170.375
20
-60.050
30
0.0
0
VERTEX
8
SLAB_00
10
173.032
20
-56.000
30
0.0
0
VERTEX
8
SLAB_00
10
175.508
20
-51.817
30
0.0
0
VERTEX
8
SLAB_00
10
177.794
20
-47.512
30
0.0
0
VERTEX
8
SLAB_00
10
179.883
20
-43.093
30
0.0
0
VERTEX
8
SLAB_00
10
181.770
20
-38.571
30
0.0
0
VERTEX
8
SLAB_00
10
183.448
20
-33.957
30
0.0
0
VERTEX
8
SLAB_00
10
184.913
20
-29.260
30
0.0
0
VERTEX
8
SLAB_00
10
186.160
20
-24.493
30
0.0
0
VERTEX
8
SLAB_00
10
187.186
20
-19.666
30
0.0
0
VERTEX
8
SLAB_00
10
187.987
20
-14.791
30
0.0
0
VERTEX
8
SLAB_00
10
188.561
20
-9.881
30
0.0
0
VERTEX
8
SLAB_00
10
188.906
20
-4.947
30
0.0
0
SEQEND
8
SLAB_00
0
TEXT
8
TEXT
10
0.000
20
119.042
30
0.0
40
8.0
1
02: s'=-55 D=208
0
CIRCLE
8
DOWEL
10
15.000
20
18.000
30
0.0
40
3.250
0
TEXT
8
DOWEL
10
20.000
20
16.000
30
0.0
40
3.0
1
A
0
CIRCLE
8
DOWEL
10
15.000
20
-18.000
30
0.0
40
3.250
0
TEXT
8
DOWEL
10
20.000
20
-20.000
30
0.0
40
3.0
1
B
0
CIRCLE
8
DOWEL
10
45.000
20
18.000
30
0.0
40
3.250
0
TEXT
8
DOWEL
10
50.000
20
16.000
30
0.0
40
3.0
1
C
0
CIRCLE
8
DOWEL
10
45.000
20
-18.000
30
0.0
40
3.250
0
TEXT
8
DOWEL
10
50.000
20
-20.000
30
0.0
40
3.0
1
D
0
ENDSEC
0
EOF