0
SECTION
2
HEADER
9
$ACADVER
1
AC1009
9
$INSUNITS
70
4
0
ENDSEC
0
SECTION
2
TABLES
0
TABLE
2
LAYER
70
4
0
LAYER
2
0
70
0
62
7
6
CONTINUOUS
0
LAYER
2
TEXT
70
0
62
1
6
CONTINUOUS
0
LAYER
2
DOWEL
70
0
62
5
6
CONTINUOUS
0
LAYER
2
SLAB_00
70
0
62
2
6
CONTINUOUS
0
ENDTAB
0
ENDSEC
0
SECTION
2
ENTITIES
0
POLYLINE
8
SLAB_00
66
1
70
1
10
0.0
20
0.0
30
0.0
0
VERTEX
8
SLAB_00
10
292.862
20
0.000
30
0.0
0
VERTEX
8
SLAB_00
10
292.684
20
7.664
30
0.0
0
VERTEX
8
SLAB_00
10
292.149
20
15.309
30
0.0
0
VERTEX
8
SLAB_00
10
291.260
20
22.917
30
0.0
0
VERTEX
8
SLAB_00
10
290.019
20
30.470
30
0.0
0
VERTEX
8
SLAB_00
10
288.430
20
37.948
30
0.0
0
VERTEX
8
SLAB_00
10
286.497
20
45.334
30
0.0
0
VERTEX
8
SLAB_00
10
284.228
20
52.611
30
0.0
0
VERTEX
8
SLAB_00
10
281.627
20
59.761
30
0.0
0
VERTEX
8
SLAB_00
10
278.704
20
66.767
30
0.0
0
VERTEX
8
SLAB_00
10
275.467
20
73.613
30
0.0
0
VERTEX
8
SLAB_00
10
271.925
20
80.284
30
0.0
0
VERTEX
8
SLAB_00
10
268.090
20
86.764
30
0.0
0
VERTEX
8
SLAB_00
10
263.973
20
93.038
30
0.0
0
VERTEX
8
SLAB_00
10
259.585
20
99.094
30
0.0
0
VERTEX
8
SLAB_00
10
254.940
20
104.919
30
0.0
0
VERTEX
8
SLAB_00
10
250.052
20
110.500
30
0.0
0
VERTEX
8
SLAB_00
10
244.934
20
115.825
30
0.0
0
VERTEX
8
SLAB_00
10
239.601
20
120.886
30
0.0
0
VERTEX
8
SLAB_00
10
234.069
20
125.672
30
0.0
0
VERTEX
8
SLAB_00
10
228.353
20
130.176
30
0.0
0
VERTEX
8
SLAB_00
10
222.469
20
134.389
30
0.0
0
VERTEX
8
SLAB_00
10
216.435
20
138.305
30
0.0
0
VERTEX
8
SLAB_00
10
210.265
20
141.919
30
0.0
0
VERTEX
8
SLAB_00
10
203.978
20
145.227
30
0.0
0
VERTEX
8
SLAB_00
10
197.591
20
148.224
30
0.0
0
VERTEX
8
SLAB_00
10
191.119
20
150.910
30
0.0
0
VERTEX
8
SLAB_00
10
184.581
20
153.281
30
0.0
0
VERTEX
8
SLAB_00
10
177.993
20
155.339
30
0.0
0
VERTEX
8
SLAB_00
10
171.372
20
157.083
30
0.0
0
VERTEX
8
SLAB_00
10
164.735
20
158.516
30
0.0
0
VERTEX
8
SLAB_00
10
158.098
20
159.640
30
0.0
0
VERTEX
8
SLAB_00
10
151.476
20
160.459
30
0.0
0
VERTEX
8
SLAB_00
10
144.887
20
160.976
30
0.0
0
VERTEX
8
SLAB_00
10
138.344
20
161.198
30
0.0
0
VERTEX
8
SLAB_00
10
131.863
20
161.131
30
0.0
0
VERTEX
8
SLAB_00
10
125.457
20
160.782
30
0.0
0
VERTEX
8
SLAB_00
10
119.140
20
160.158
30
0.0
0
VERTEX
8
SLAB_00
10
112.925
20
159.268
30
0.0
0
VERTEX
8
SLAB_00
10
106.825
20
158.121
30
0.0
0
VERTEX
8
SLAB_00
10
100.851
20
156.727
30
0.0
0
VERTEX
8
SLAB_00
10
95.013
20
155.097
30
0.0
0
VERTEX
8
SLAB_00
10
89.322
20
153.240
30
0.0
0
VERTEX
8
SLAB_00
10
83.786
20
151.169
30
0.0
0
VERTEX
8
SLAB_00
10
78.415
20
148.896
30
0.0
0
VERTEX
8
SLAB_00
10
73.216
20
146.431
30
0.0
0
VERTEX
8
SLAB_00
10
68.194
20
143.788
30
0.0
0
VERTEX
8
SLAB_00
10
63.357
20
140.980
30
0.0
0
VERTEX
8
SLAB_00
10
58.709
20
138.018
30
0.0
0
VERTEX
8
SLAB_00
10
54.254
20
134.916
30
0.0
0
VERTEX
8
SLAB_00
10
49.996
20
131.686
30
0.0
0
VERTEX
8
SLAB_00
10
45.936
20
128.342
30
0.0
0
VERTEX
8
SLAB_00
10
42.076
20
124.895
30
0.0
0
VERTEX
8
SLAB_00
10
38.416
20
121.359
30
0.0
0
VERTEX
8
SLAB_00
10
34.957
20
117.747
30
0.0
0
VERTEX
8
SLAB_00
10
31.698
20
114.069
30
0.0
0
VERTEX
8
SLAB_00
10
28.636
20
110.339
30
0.0
0
VERTEX
8
SLAB_00
10
25.769
20
106.567
30
0.0
0
VERTEX
8
SLAB_00
10
23.094
20
102.764
30
0.0
0
VERTEX
8
SLAB_00
10
20.607
20
98.942
30
0.0
0
VERTEX
8
SLAB_00
10
18.304
20
95.110
30
0.0
0
VERTEX
8
SLAB_00
10
16.179
20
91.278
30
0.0
0
VERTEX
8
SLAB_00
10
14.227
20
87.455
30
0.0
0
VERTEX
8
SLAB_00
10
12.441
20
83.649
30
0.0
0
VERTEX
8
SLAB_00
10
10.815
20
79.869
30
0.0
0
VERTEX
8
SLAB_00
10
9.342
20
76.121
30
0.0
0
VERTEX
8
SLAB_00
10
8.015
20
72.412
30
0.0
0
VERTEX
8
SLAB_00
10
6.826
20
68.748
30
0.0
0
VERTEX
8
SLAB_00
10
5.767
20
65.134
30
0.0
0
VERTEX
8
SLAB_00
10
4.830
20
61.574
30
0.0
0
VERTEX
8
SLAB_00
10
4.007
20
58.072
30
0.0
0
VERTEX
8
SLAB_00
10
3.290
20
54.632
30
0.0
0
VERTEX
8
SLAB_00
10
2.671
20
51.254
30
0.0
0
VERTEX
8
SLAB_00
10
2.140
20
47.941
30
0.0
0
VERTEX
8
SLAB_00
10
1.691
20
44.694
30
0.0
0
VERTEX
8
SLAB_00
10
1.314
20
41.512
30
0.0
0
VERTEX
8
SLAB_00
10
1.003
20
38.396
30
0.0
0
VERTEX
8
SLAB_00
10
0.750
20
35.344
30
0.0
0
VERTEX
8
SLAB_00
10
0.547
20
32.354
30
0.0
0
VERTEX
8
SLAB_00
10
0.388
20
29.424
30
0.0
0
VERTEX
8
SLAB_00
10
0.266
20
26.551
30
0.0
0
VERTEX
8
SLAB_00
10
0.175
20
23.732
30
0.0
0
VERTEX
8
SLAB_00
10
0.110
20
20.963
30
0.0
0
VERTEX
8
SLAB_00
10
0.065
20
18.239
30
0.0
0
VERTEX
8
SLAB_00
10
0.035
20
15.555
30
0.0
0
VERTEX
8
SLAB_00
10
0.017
20
12.907
30
0.0
0
VERTEX
8
SLAB_00
10
0.007
20
10.289
30
0.0
0
VERTEX
8
SLAB_00
10
0.002
20
7.695
30
0.0
0
VERTEX
8
SLAB_00
10
0.000
20
5.120
30
0.0
0
VERTEX
8
SLAB_00
10
0.000
20
2.557
30
0.0
0
VERTEX
8
SLAB_00
10
0.000
20
0.000
30
0.0
0
VERTEX
8
SLAB_00
10
0.000
20
-2.557
30
0.0
0
VERTEX
8
SLAB_00
10
0.000
20
-5.120
30
0.0
0
VERTEX
8
SLAB_00
10
0.002
20
-7.695
30
0.0
0
VERTEX
8
SLAB_00
10
0.007
20
-10.289
30
0.0
0
VERTEX
8
SLAB_00
10
0.017
20
-12.907
30
0.0
0
VERTEX
8
SLAB_00
10
0.035
20
-15.555
30
0.0
0
VERTEX
8
SLAB_00
10
0.065
20
-18.239
30
0.0
0
VERTEX
8
SLAB_00
10
0.110
20
-20.963
30
0.0
0
VERTEX
8
SLAB_00
10
0.175
20
-23.732
30
0.0
0
VERTEX
8
SLAB_00
10
0.266
20
-26.551
30
0.0
0
VERTEX
8
SLAB_00
10
0.388
20
-29.424
30
0.0
0
VERTEX
8
SLAB_00
10
0.547
20
-32.354
30
0.0
0
VERTEX
8
SLAB_00
10
0.750
20
-35.344
30
0.0
0
VERTEX
8
SLAB_00
10
1.003
20
-38.396
30
0.0
0
VERTEX
8
SLAB_00
10
1.314
20
-41.512
30
0.0
0
VERTEX
8
SLAB_00
10
1.691
20
-44.694
30
0.0
0
VERTEX
8
SLAB_00
10
2.140
20
-47.941
30
0.0
0
VERTEX
8
SLAB_00
10
2.671
20
-51.254
30
0.0
0
VERTEX
8
SLAB_00
10
3.290
20
-54.632
30
0.0
0
VERTEX
8
SLAB_00
10
4.007
20
-58.072
30
0.0
0
VERTEX
8
SLAB_00
10
4.830
20
-61.574
30
0.0
0
VERTEX
8
SLAB_00
10
5.767
20
-65.134
30
0.0
0
VERTEX
8
SLAB_00
10
6.826
20
-68.748
30
0.0
0
VERTEX
8
SLAB_00
10
8.015
20
-72.412
30
0.0
0
VERTEX
8
SLAB_00
10
9.342
20
-76.121
30
0.0
0
VERTEX
8
SLAB_00
10
10.815
20
-79.869
30
0.0
0
VERTEX
8
SLAB_00
10
12.441
20
-83.649
30
0.0
0
VERTEX
8
SLAB_00
10
14.227
20
-87.455
30
0.0
0
VERTEX
8
SLAB_00
10
16.179
20
-91.278
30
0.0
0
VERTEX
8
SLAB_00
10
18.304
20
-95.110
30
0.0
0
VERTEX
8
SLAB_00
10
20.607
20
-98.942
30
0.0
0
VERTEX
8
SLAB_00
10
23.094
20
-102.764
30
0.0
0
VERTEX
8
SLAB_00
10
25.769
20
-106.567
30
0.0
0
VERTEX
8
SLAB_00
10
28.636
20
-110.339
30
0.0
0
VERTEX
8
SLAB_00
10
31.698
20
-114.069
30
0.0
0
VERTEX
8
SLAB_00
10
34.957
20
-117.747
30
0.0
0
VERTEX
8
SLAB_00
10
38.416
20
-121.359
30
0.0
0
VERTEX
8
SLAB_00
10
42.076
20
-124.895
30
0.0
0
VERTEX
8
SLAB_00
10
45.936
20
-128.342
30
0.0
0
VERTEX
8
SLAB_00
10
49.996
20
-131.686
30
0.0
0
VERTEX
8
SLAB_00
10
54.254
20
-134.916
30
0.0
0
VERTEX
8
SLAB_00
10
58.709
20
-138.018
30
0.0
0
VERTEX
8
SLAB_00
10
63.357
20
-140.980
30
0.0
0
VERTEX
8
SLAB_00
10
68.194
20
-143.788
30
0.0
0
VERTEX
8
SLAB_00
10
73.216
20
-146.431
30
0.0
0
VERTEX
8
SLAB_00
10
78.415
20
-148.896
30
0.0
0
VERTEX
8
SLAB_00
10
83.786
20
-151.169
30
0.0
0
VERTEX
8
SLAB_00
10
89.322
20
-153.240
30
0.0
0
VERTEX
8
SLAB_00
10
95.013
20
-155.097
30
0.0
0
VERTEX
8
SLAB_00
10
100.851
20
-156.727
30
0.0
0
VERTEX
8
SLAB_00
10
106.825
20
-158.121
30
0.0
0
VERTEX
8
SLAB_00
10
112.925
20
-159.268
30
0.0
0
VERTEX
8
SLAB_00
10
119.140
20
-160.158
30
0.0
0
VERTEX
8
SLAB_00
10
125.457
20
-160.782
30
0.0
0
VERTEX
8
SLAB_00
10
131.863
20
-161.131
30
0.0
0
VERTEX
8
SLAB_00
10
138.344
20
-161.198
30
0.0
0
VERTEX
8
SLAB_00
10
144.887
20
-160.976
30
0.0
0
VERTEX
8
SLAB_00
10
151.476
20
-160.459
30
0.0
0
VERTEX
8
SLAB_00
10
158.098
20
-159.640
30
0.0
0
VERTEX
8
SLAB_00
10
164.735
20
-158.516
30
0.0
0
VERTEX
8
SLAB_00
10
171.372
20
-157.083
30
0.0
0
VERTEX
8
SLAB_00
10
177.993
20
-155.339
30
0.0
0
VERTEX
8
SLAB_00
10
184.581
20
-153.281
30
0.0
0
VERTEX
8
SLAB_00
10
191.119
20
-150.910
30
0.0
0
VERTEX
8
SLAB_00
10
197.591
20
-148.224
30
0.0
0
VERTEX
8
SLAB_00
10
203.978
20
-145.227
30
0.0
0
VERTEX
8
SLAB_00
10
210.265
20
-141.919
30
0.0
0
VERTEX
8
SLAB_00
10
216.435
20
-138.305
30
0.0
0
VERTEX
8
SLAB_00
10
222.469
20
-134.389
30
0.0
0
VERTEX
8
SLAB_00
10
228.353
20
-130.176
30
0.0
0
VERTEX
8
SLAB_00
10
234.069
20
-125.672
30
0.0
0
VERTEX
8
SLAB_00
10
239.601
20
-120.886
30
0.0
0
VERTEX
8
SLAB_00
10
244.934
20
-115.825
30
0.0
0
VERTEX
8
SLAB_00
10
250.052
20
-110.500
30
0.0
0
VERTEX
8
SLAB_00
10
254.940
20
-104.919
30
0.0
0
VERTEX
8
SLAB_00
10
259.585
20
-99.094
30
0.0
0
VERTEX
8
SLAB_00
10
263.973
20
-93.038
30
0.0
0
VERTEX
8
SLAB_00
10
268.090
20
-86.764
30
0.0
0
VERTEX
8
SLAB_00
10
271.925
20
-80.284
30
0.0
0
VERTEX
8
SLAB_00
10
275.467
20
-73.613
30
0.0
0
VERTEX
8
SLAB_00
10
278.704
20
-66.767
30
0.0
0
VERTEX
8
SLAB_00
10
281.627
20
-59.761
30
0.0
0
VERTEX
8
SLAB_00
10
284.228
20
-52.611
30
0.0
0
VERTEX
8
SLAB_00
10
286.497
20
-45.334
30
0.0
0
VERTEX
8
SLAB_00
10
288.430
20
-37.948
30
0.0
0
VERTEX
8
SLAB_00
10
290.019
20
-30.470
30
0.0
0
VERTEX
8
SLAB_00
10
291.260
20
-22.917
30
0.0
0
VERTEX
8
SLAB_00
10
292.149
20
-15.309
30
0.0
0
VERTEX
8
SLAB_00
10
292.684
20
-7.664
30
0.0
0
SEQEND
8
SLAB_00
0
TEXT
8
TEXT
10
0.000
20
176.198
30
0.0
40
8.0
1
38: s'=+833 D=322
0
CIRCLE
8
DOWEL
10
15.000
20
18.000
30
0.0
40
3.250
0
TEXT
8
DOWEL
10
20.000
20
16.000
30
0.0
40
3.0
1
A
0
CIRCLE
8
DOWEL
10
15.000
20
-18.000
30
0.0
40
3.250
0
TEXT
8
DOWEL
10
20.000
20
-20.000
30
0.0
40
3.0
1
B
0
CIRCLE
8
DOWEL
10
45.000
20
18.000
30
0.0
40
3.250
0
TEXT
8
DOWEL
10
50.000
20
16.000
30
0.0
40
3.0
1
C
0
CIRCLE
8
DOWEL
10
45.000
20
-18.000
30
0.0
40
3.250
0
TEXT
8
DOWEL
10
50.000
20
-20.000
30
0.0
40
3.0
1
D
0
ENDSEC
0
EOF