0
SECTION
2
HEADER
9
$ACADVER
1
AC1009
9
$INSUNITS
70
4
0
ENDSEC
0
SECTION
2
TABLES
0
TABLE
2
LAYER
70
4
0
LAYER
2
0
70
0
62
7
6
CONTINUOUS
0
LAYER
2
TEXT
70
0
62
1
6
CONTINUOUS
0
LAYER
2
DOWEL
70
0
62
5
6
CONTINUOUS
0
LAYER
2
SLAB_00
70
0
62
2
6
CONTINUOUS
0
ENDTAB
0
ENDSEC
0
SECTION
2
ENTITIES
0
POLYLINE
8
SLAB_00
66
1
70
1
10
0.0
20
0.0
30
0.0
0
VERTEX
8
SLAB_00
10
110.868
20
0.000
30
0.0
0
VERTEX
8
SLAB_00
10
110.800
20
2.901
30
0.0
0
VERTEX
8
SLAB_00
10
110.598
20
5.796
30
0.0
0
VERTEX
8
SLAB_00
10
110.261
20
8.676
30
0.0
0
VERTEX
8
SLAB_00
10
109.792
20
11.535
30
0.0
0
VERTEX
8
SLAB_00
10
109.190
20
14.366
30
0.0
0
VERTEX
8
SLAB_00
10
108.458
20
17.162
30
0.0
0
VERTEX
8
SLAB_00
10
107.599
20
19.917
30
0.0
0
VERTEX
8
SLAB_00
10
106.615
20
22.624
30
0.0
0
VERTEX
8
SLAB_00
10
105.508
20
25.276
30
0.0
0
VERTEX
8
SLAB_00
10
104.282
20
27.868
30
0.0
0
VERTEX
8
SLAB_00
10
102.942
20
30.393
30
0.0
0
VERTEX
8
SLAB_00
10
101.490
20
32.846
30
0.0
0
VERTEX
8
SLAB_00
10
99.931
20
35.221
30
0.0
0
VERTEX
8
SLAB_00
10
98.270
20
37.514
30
0.0
0
VERTEX
8
SLAB_00
10
96.512
20
39.719
30
0.0
0
VERTEX
8
SLAB_00
10
94.661
20
41.831
30
0.0
0
VERTEX
8
SLAB_00
10
92.724
20
43.848
30
0.0
0
VERTEX
8
SLAB_00
10
90.705
20
45.763
30
0.0
0
VERTEX
8
SLAB_00
10
88.611
20
47.575
30
0.0
0
VERTEX
8
SLAB_00
10
86.447
20
49.280
30
0.0
0
VERTEX
8
SLAB_00
10
84.219
20
50.875
30
0.0
0
VERTEX
8
SLAB_00
10
81.935
20
52.358
30
0.0
0
VERTEX
8
SLAB_00
10
79.599
20
53.726
30
0.0
0
VERTEX
8
SLAB_00
10
77.219
20
54.978
30
0.0
0
VERTEX
8
SLAB_00
10
74.801
20
56.113
30
0.0
0
VERTEX
8
SLAB_00
10
72.351
20
57.129
30
0.0
0
VERTEX
8
SLAB_00
10
69.876
20
58.027
30
0.0
0
VERTEX
8
SLAB_00
10
67.382
20
58.806
30
0.0
0
VERTEX
8
SLAB_00
10
64.876
20
59.467
30
0.0
0
VERTEX
8
SLAB_00
10
62.363
20
60.009
30
0.0
0
VERTEX
8
SLAB_00
10
59.851
20
60.434
30
0.0
0
VERTEX
8
SLAB_00
10
57.344
20
60.744
30
0.0
0
VERTEX
8
SLAB_00
10
54.849
20
60.940
30
0.0
0
VERTEX
8
SLAB_00
10
52.372
20
61.024
30
0.0
0
VERTEX
8
SLAB_00
10
49.919
20
60.999
30
0.0
0
VERTEX
8
SLAB_00
10
47.494
20
60.867
30
0.0
0
VERTEX
8
SLAB_00
10
45.102
20
60.630
30
0.0
0
VERTEX
8
SLAB_00
10
42.750
20
60.293
30
0.0
0
VERTEX
8
SLAB_00
10
40.440
20
59.859
30
0.0
0
VERTEX
8
SLAB_00
10
38.179
20
59.332
30
0.0
0
VERTEX
8
SLAB_00
10
35.969
20
58.714
30
0.0
0
VERTEX
8
SLAB_00
10
33.814
20
58.012
30
0.0
0
VERTEX
8
SLAB_00
10
31.719
20
57.228
30
0.0
0
VERTEX
8
SLAB_00
10
29.685
20
56.367
30
0.0
0
VERTEX
8
SLAB_00
10
27.717
20
55.434
30
0.0
0
VERTEX
8
SLAB_00
10
25.816
20
54.433
30
0.0
0
VERTEX
8
SLAB_00
10
23.985
20
53.370
30
0.0
0
VERTEX
8
SLAB_00
10
22.225
20
52.249
30
0.0
0
VERTEX
8
SLAB_00
10
20.539
20
51.075
30
0.0
0
VERTEX
8
SLAB_00
10
18.927
20
49.852
30
0.0
0
VERTEX
8
SLAB_00
10
17.390
20
48.586
30
0.0
0
VERTEX
8
SLAB_00
10
15.928
20
47.281
30
0.0
0
VERTEX
8
SLAB_00
10
14.543
20
45.943
30
0.0
0
VERTEX
8
SLAB_00
10
13.234
20
44.575
30
0.0
0
VERTEX
8
SLAB_00
10
12.000
20
43.183
30
0.0
0
VERTEX
8
SLAB_00
10
10.841
20
41.771
30
0.0
0
VERTEX
8
SLAB_00
10
9.755
20
40.343
30
0.0
0
VERTEX
8
SLAB_00
10
8.743
20
38.903
30
0.0
0
VERTEX
8
SLAB_00
10
7.801
20
37.456
30
0.0
0
VERTEX
8
SLAB_00
10
6.929
20
36.005
30
0.0
0
VERTEX
8
SLAB_00
10
6.125
20
34.555
30
0.0
0
VERTEX
8
SLAB_00
10
5.386
20
33.107
30
0.0
0
VERTEX
8
SLAB_00
10
4.710
20
31.667
30
0.0
0
VERTEX
8
SLAB_00
10
4.094
20
30.236
30
0.0
0
VERTEX
8
SLAB_00
10
3.537
20
28.817
30
0.0
0
VERTEX
8
SLAB_00
10
3.034
20
27.413
30
0.0
0
VERTEX
8
SLAB_00
10
2.584
20
26.026
30
0.0
0
VERTEX
8
SLAB_00
10
2.183
20
24.658
30
0.0
0
VERTEX
8
SLAB_00
10
1.829
20
23.310
30
0.0
0
VERTEX
8
SLAB_00
10
1.517
20
21.984
30
0.0
0
VERTEX
8
SLAB_00
10
1.246
20
20.682
30
0.0
0
VERTEX
8
SLAB_00
10
1.011
20
19.403
30
0.0
0
VERTEX
8
SLAB_00
10
0.810
20
18.149
30
0.0
0
VERTEX
8
SLAB_00
10
0.640
20
16.920
30
0.0
0
VERTEX
8
SLAB_00
10
0.497
20
15.715
30
0.0
0
VERTEX
8
SLAB_00
10
0.380
20
14.535
30
0.0
0
VERTEX
8
SLAB_00
10
0.284
20
13.380
30
0.0
0
VERTEX
8
SLAB_00
10
0.207
20
12.248
30
0.0
0
VERTEX
8
SLAB_00
10
0.147
20
11.139
30
0.0
0
VERTEX
8
SLAB_00
10
0.101
20
10.051
30
0.0
0
VERTEX
8
SLAB_00
10
0.066
20
8.984
30
0.0
0
VERTEX
8
SLAB_00
10
0.042
20
7.936
30
0.0
0
VERTEX
8
SLAB_00
10
0.024
20
6.905
30
0.0
0
VERTEX
8
SLAB_00
10
0.013
20
5.889
30
0.0
0
VERTEX
8
SLAB_00
10
0.006
20
4.886
30
0.0
0
VERTEX
8
SLAB_00
10
0.003
20
3.895
30
0.0
0
VERTEX
8
SLAB_00
10
0.001
20
2.913
30
0.0
0
VERTEX
8
SLAB_00
10
0.000
20
1.938
30
0.0
0
VERTEX
8
SLAB_00
10
0.000
20
0.968
30
0.0
0
VERTEX
8
SLAB_00
10
0.000
20
0.000
30
0.0
0
VERTEX
8
SLAB_00
10
0.000
20
-0.968
30
0.0
0
VERTEX
8
SLAB_00
10
0.000
20
-1.938
30
0.0
0
VERTEX
8
SLAB_00
10
0.001
20
-2.913
30
0.0
0
VERTEX
8
SLAB_00
10
0.003
20
-3.895
30
0.0
0
VERTEX
8
SLAB_00
10
0.006
20
-4.886
30
0.0
0
VERTEX
8
SLAB_00
10
0.013
20
-5.889
30
0.0
0
VERTEX
8
SLAB_00
10
0.024
20
-6.905
30
0.0
0
VERTEX
8
SLAB_00
10
0.042
20
-7.936
30
0.0
0
VERTEX
8
SLAB_00
10
0.066
20
-8.984
30
0.0
0
VERTEX
8
SLAB_00
10
0.101
20
-10.051
30
0.0
0
VERTEX
8
SLAB_00
10
0.147
20
-11.139
30
0.0
0
VERTEX
8
SLAB_00
10
0.207
20
-12.248
30
0.0
0
VERTEX
8
SLAB_00
10
0.284
20
-13.380
30
0.0
0
VERTEX
8
SLAB_00
10
0.380
20
-14.535
30
0.0
0
VERTEX
8
SLAB_00
10
0.497
20
-15.715
30
0.0
0
VERTEX
8
SLAB_00
10
0.640
20
-16.920
30
0.0
0
VERTEX
8
SLAB_00
10
0.810
20
-18.149
30
0.0
0
VERTEX
8
SLAB_00
10
1.011
20
-19.403
30
0.0
0
VERTEX
8
SLAB_00
10
1.246
20
-20.682
30
0.0
0
VERTEX
8
SLAB_00
10
1.517
20
-21.984
30
0.0
0
VERTEX
8
SLAB_00
10
1.829
20
-23.310
30
0.0
0
VERTEX
8
SLAB_00
10
2.183
20
-24.658
30
0.0
0
VERTEX
8
SLAB_00
10
2.584
20
-26.026
30
0.0
0
VERTEX
8
SLAB_00
10
3.034
20
-27.413
30
0.0
0
VERTEX
8
SLAB_00
10
3.537
20
-28.817
30
0.0
0
VERTEX
8
SLAB_00
10
4.094
20
-30.236
30
0.0
0
VERTEX
8
SLAB_00
10
4.710
20
-31.667
30
0.0
0
VERTEX
8
SLAB_00
10
5.386
20
-33.107
30
0.0
0
VERTEX
8
SLAB_00
10
6.125
20
-34.555
30
0.0
0
VERTEX
8
SLAB_00
10
6.929
20
-36.005
30
0.0
0
VERTEX
8
SLAB_00
10
7.801
20
-37.456
30
0.0
0
VERTEX
8
SLAB_00
10
8.743
20
-38.903
30
0.0
0
VERTEX
8
SLAB_00
10
9.755
20
-40.343
30
0.0
0
VERTEX
8
SLAB_00
10
10.841
20
-41.771
30
0.0
0
VERTEX
8
SLAB_00
10
12.000
20
-43.183
30
0.0
0
VERTEX
8
SLAB_00
10
13.234
20
-44.575
30
0.0
0
VERTEX
8
SLAB_00
10
14.543
20
-45.943
30
0.0
0
VERTEX
8
SLAB_00
10
15.928
20
-47.281
30
0.0
0
VERTEX
8
SLAB_00
10
17.390
20
-48.586
30
0.0
0
VERTEX
8
SLAB_00
10
18.927
20
-49.852
30
0.0
0
VERTEX
8
SLAB_00
10
20.539
20
-51.075
30
0.0
0
VERTEX
8
SLAB_00
10
22.225
20
-52.249
30
0.0
0
VERTEX
8
SLAB_00
10
23.985
20
-53.370
30
0.0
0
VERTEX
8
SLAB_00
10
25.816
20
-54.433
30
0.0
0
VERTEX
8
SLAB_00
10
27.717
20
-55.434
30
0.0
0
VERTEX
8
SLAB_00
10
29.685
20
-56.367
30
0.0
0
VERTEX
8
SLAB_00
10
31.719
20
-57.228
30
0.0
0
VERTEX
8
SLAB_00
10
33.814
20
-58.012
30
0.0
0
VERTEX
8
SLAB_00
10
35.969
20
-58.714
30
0.0
0
VERTEX
8
SLAB_00
10
38.179
20
-59.332
30
0.0
0
VERTEX
8
SLAB_00
10
40.440
20
-59.859
30
0.0
0
VERTEX
8
SLAB_00
10
42.750
20
-60.293
30
0.0
0
VERTEX
8
SLAB_00
10
45.102
20
-60.630
30
0.0
0
VERTEX
8
SLAB_00
10
47.494
20
-60.867
30
0.0
0
VERTEX
8
SLAB_00
10
49.919
20
-60.999
30
0.0
0
VERTEX
8
SLAB_00
10
52.372
20
-61.024
30
0.0
0
VERTEX
8
SLAB_00
10
54.849
20
-60.940
30
0.0
0
VERTEX
8
SLAB_00
10
57.344
20
-60.744
30
0.0
0
VERTEX
8
SLAB_00
10
59.851
20
-60.434
30
0.0
0
VERTEX
8
SLAB_00
10
62.363
20
-60.009
30
0.0
0
VERTEX
8
SLAB_00
10
64.876
20
-59.467
30
0.0
0
VERTEX
8
SLAB_00
10
67.382
20
-58.806
30
0.0
0
VERTEX
8
SLAB_00
10
69.876
20
-58.027
30
0.0
0
VERTEX
8
SLAB_00
10
72.351
20
-57.129
30
0.0
0
VERTEX
8
SLAB_00
10
74.801
20
-56.113
30
0.0
0
VERTEX
8
SLAB_00
10
77.219
20
-54.978
30
0.0
0
VERTEX
8
SLAB_00
10
79.599
20
-53.726
30
0.0
0
VERTEX
8
SLAB_00
10
81.935
20
-52.358
30
0.0
0
VERTEX
8
SLAB_00
10
84.219
20
-50.875
30
0.0
0
VERTEX
8
SLAB_00
10
86.447
20
-49.280
30
0.0
0
VERTEX
8
SLAB_00
10
88.611
20
-47.575
30
0.0
0
VERTEX
8
SLAB_00
10
90.705
20
-45.763
30
0.0
0
VERTEX
8
SLAB_00
10
92.724
20
-43.848
30
0.0
0
VERTEX
8
SLAB_00
10
94.661
20
-41.831
30
0.0
0
VERTEX
8
SLAB_00
10
96.512
20
-39.719
30
0.0
0
VERTEX
8
SLAB_00
10
98.270
20
-37.514
30
0.0
0
VERTEX
8
SLAB_00
10
99.931
20
-35.221
30
0.0
0
VERTEX
8
SLAB_00
10
101.490
20
-32.846
30
0.0
0
VERTEX
8
SLAB_00
10
102.942
20
-30.393
30
0.0
0
VERTEX
8
SLAB_00
10
104.282
20
-27.868
30
0.0
0
VERTEX
8
SLAB_00
10
105.508
20
-25.276
30
0.0
0
VERTEX
8
SLAB_00
10
106.615
20
-22.624
30
0.0
0
VERTEX
8
SLAB_00
10
107.599
20
-19.917
30
0.0
0
VERTEX
8
SLAB_00
10
108.458
20
-17.162
30
0.0
0
VERTEX
8
SLAB_00
10
109.190
20
-14.366
30
0.0
0
VERTEX
8
SLAB_00
10
109.792
20
-11.535
30
0.0
0
VERTEX
8
SLAB_00
10
110.261
20
-8.676
30
0.0
0
VERTEX
8
SLAB_00
10
110.598
20
-5.796
30
0.0
0
VERTEX
8
SLAB_00
10
110.800
20
-2.901
30
0.0
0
SEQEND
8
SLAB_00
0
TEXT
8
TEXT
10
0.000
20
76.024
30
0.0
40
8.0
1
61: s'=+1417 D=122
0
CIRCLE
8
DOWEL
10
15.000
20
18.000
30
0.0
40
3.250
0
TEXT
8
DOWEL
10
20.000
20
16.000
30
0.0
40
3.0
1
A
0
CIRCLE
8
DOWEL
10
15.000
20
-18.000
30
0.0
40
3.250
0
TEXT
8
DOWEL
10
20.000
20
-20.000
30
0.0
40
3.0
1
B
0
CIRCLE
8
DOWEL
10
45.000
20
18.000
30
0.0
40
3.250
0
TEXT
8
DOWEL
10
50.000
20
16.000
30
0.0
40
3.0
1
C
0
CIRCLE
8
DOWEL
10
45.000
20
-18.000
30
0.0
40
3.250
0
TEXT
8
DOWEL
10
50.000
20
-20.000
30
0.0
40
3.0
1
D
0
ENDSEC
0
EOF