0
SECTION
2
HEADER
9
$ACADVER
1
AC1009
9
$INSUNITS
70
4
0
ENDSEC
0
SECTION
2
TABLES
0
TABLE
2
LAYER
70
4
0
LAYER
2
0
70
0
62
7
6
CONTINUOUS
0
LAYER
2
TEXT
70
0
62
1
6
CONTINUOUS
0
LAYER
2
DOWEL
70
0
62
5
6
CONTINUOUS
0
LAYER
2
SLAB_00
70
0
62
2
6
CONTINUOUS
0
ENDTAB
0
ENDSEC
0
SECTION
2
ENTITIES
0
POLYLINE
8
SLAB_00
66
1
70
1
10
0.0
20
0.0
30
0.0
0
VERTEX
8
SLAB_00
10
119.290
20
0.000
30
0.0
0
VERTEX
8
SLAB_00
10
119.217
20
3.122
30
0.0
0
VERTEX
8
SLAB_00
10
119.000
20
6.236
30
0.0
0
VERTEX
8
SLAB_00
10
118.637
20
9.335
30
0.0
0
VERTEX
8
SLAB_00
10
118.132
20
12.411
30
0.0
0
VERTEX
8
SLAB_00
10
117.485
20
15.457
30
0.0
0
VERTEX
8
SLAB_00
10
116.698
20
18.466
30
0.0
0
VERTEX
8
SLAB_00
10
115.773
20
21.430
30
0.0
0
VERTEX
8
SLAB_00
10
114.714
20
24.342
30
0.0
0
VERTEX
8
SLAB_00
10
113.523
20
27.196
30
0.0
0
VERTEX
8
SLAB_00
10
112.204
20
29.985
30
0.0
0
VERTEX
8
SLAB_00
10
110.762
20
32.702
30
0.0
0
VERTEX
8
SLAB_00
10
109.200
20
35.341
30
0.0
0
VERTEX
8
SLAB_00
10
107.523
20
37.897
30
0.0
0
VERTEX
8
SLAB_00
10
105.735
20
40.364
30
0.0
0
VERTEX
8
SLAB_00
10
103.844
20
42.736
30
0.0
0
VERTEX
8
SLAB_00
10
101.852
20
45.009
30
0.0
0
VERTEX
8
SLAB_00
10
99.768
20
47.179
30
0.0
0
VERTEX
8
SLAB_00
10
97.595
20
49.240
30
0.0
0
VERTEX
8
SLAB_00
10
95.342
20
51.189
30
0.0
0
VERTEX
8
SLAB_00
10
93.014
20
53.024
30
0.0
0
VERTEX
8
SLAB_00
10
90.617
20
54.740
30
0.0
0
VERTEX
8
SLAB_00
10
88.159
20
56.335
30
0.0
0
VERTEX
8
SLAB_00
10
85.646
20
57.807
30
0.0
0
VERTEX
8
SLAB_00
10
83.085
20
59.154
30
0.0
0
VERTEX
8
SLAB_00
10
80.484
20
60.375
30
0.0
0
VERTEX
8
SLAB_00
10
77.848
20
61.469
30
0.0
0
VERTEX
8
SLAB_00
10
75.184
20
62.435
30
0.0
0
VERTEX
8
SLAB_00
10
72.501
20
63.273
30
0.0
0
VERTEX
8
SLAB_00
10
69.804
20
63.984
30
0.0
0
VERTEX
8
SLAB_00
10
67.101
20
64.568
30
0.0
0
VERTEX
8
SLAB_00
10
64.397
20
65.025
30
0.0
0
VERTEX
8
SLAB_00
10
61.700
20
65.359
30
0.0
0
VERTEX
8
SLAB_00
10
59.016
20
65.570
30
0.0
0
VERTEX
8
SLAB_00
10
56.351
20
65.660
30
0.0
0
VERTEX
8
SLAB_00
10
53.711
20
65.633
30
0.0
0
VERTEX
8
SLAB_00
10
51.102
20
65.490
30
0.0
0
VERTEX
8
SLAB_00
10
48.529
20
65.236
30
0.0
0
VERTEX
8
SLAB_00
10
45.997
20
64.874
30
0.0
0
VERTEX
8
SLAB_00
10
43.513
20
64.407
30
0.0
0
VERTEX
8
SLAB_00
10
41.079
20
63.839
30
0.0
0
VERTEX
8
SLAB_00
10
38.701
20
63.175
30
0.0
0
VERTEX
8
SLAB_00
10
36.383
20
62.419
30
0.0
0
VERTEX
8
SLAB_00
10
34.128
20
61.575
30
0.0
0
VERTEX
8
SLAB_00
10
31.940
20
60.649
30
0.0
0
VERTEX
8
SLAB_00
10
29.823
20
59.645
30
0.0
0
VERTEX
8
SLAB_00
10
27.777
20
58.569
30
0.0
0
VERTEX
8
SLAB_00
10
25.807
20
57.424
30
0.0
0
VERTEX
8
SLAB_00
10
23.914
20
56.218
30
0.0
0
VERTEX
8
SLAB_00
10
22.099
20
54.954
30
0.0
0
VERTEX
8
SLAB_00
10
20.365
20
53.639
30
0.0
0
VERTEX
8
SLAB_00
10
18.711
20
52.277
30
0.0
0
VERTEX
8
SLAB_00
10
17.138
20
50.873
30
0.0
0
VERTEX
8
SLAB_00
10
15.648
20
49.433
30
0.0
0
VERTEX
8
SLAB_00
10
14.239
20
47.961
30
0.0
0
VERTEX
8
SLAB_00
10
12.911
20
46.463
30
0.0
0
VERTEX
8
SLAB_00
10
11.664
20
44.944
30
0.0
0
VERTEX
8
SLAB_00
10
10.496
20
43.407
30
0.0
0
VERTEX
8
SLAB_00
10
9.407
20
41.858
30
0.0
0
VERTEX
8
SLAB_00
10
8.394
20
40.301
30
0.0
0
VERTEX
8
SLAB_00
10
7.456
20
38.741
30
0.0
0
VERTEX
8
SLAB_00
10
6.590
20
37.180
30
0.0
0
VERTEX
8
SLAB_00
10
5.795
20
35.622
30
0.0
0
VERTEX
8
SLAB_00
10
5.067
20
34.072
30
0.0
0
VERTEX
8
SLAB_00
10
4.405
20
32.533
30
0.0
0
VERTEX
8
SLAB_00
10
3.805
20
31.006
30
0.0
0
VERTEX
8
SLAB_00
10
3.265
20
29.495
30
0.0
0
VERTEX
8
SLAB_00
10
2.780
20
28.003
30
0.0
0
VERTEX
8
SLAB_00
10
2.349
20
26.531
30
0.0
0
VERTEX
8
SLAB_00
10
1.968
20
25.081
30
0.0
0
VERTEX
8
SLAB_00
10
1.632
20
23.654
30
0.0
0
VERTEX
8
SLAB_00
10
1.340
20
22.253
30
0.0
0
VERTEX
8
SLAB_00
10
1.088
20
20.877
30
0.0
0
VERTEX
8
SLAB_00
10
0.872
20
19.528
30
0.0
0
VERTEX
8
SLAB_00
10
0.689
20
18.205
30
0.0
0
VERTEX
8
SLAB_00
10
0.535
20
16.909
30
0.0
0
VERTEX
8
SLAB_00
10
0.409
20
15.640
30
0.0
0
VERTEX
8
SLAB_00
10
0.305
20
14.396
30
0.0
0
VERTEX
8
SLAB_00
10
0.223
20
13.179
30
0.0
0
VERTEX
8
SLAB_00
10
0.158
20
11.985
30
0.0
0
VERTEX
8
SLAB_00
10
0.108
20
10.815
30
0.0
0
VERTEX
8
SLAB_00
10
0.071
20
9.667
30
0.0
0
VERTEX
8
SLAB_00
10
0.045
20
8.539
30
0.0
0
VERTEX
8
SLAB_00
10
0.026
20
7.429
30
0.0
0
VERTEX
8
SLAB_00
10
0.014
20
6.336
30
0.0
0
VERTEX
8
SLAB_00
10
0.007
20
5.257
30
0.0
0
VERTEX
8
SLAB_00
10
0.003
20
4.191
30
0.0
0
VERTEX
8
SLAB_00
10
0.001
20
3.134
30
0.0
0
VERTEX
8
SLAB_00
10
0.000
20
2.085
30
0.0
0
VERTEX
8
SLAB_00
10
0.000
20
1.041
30
0.0
0
VERTEX
8
SLAB_00
10
0.000
20
0.000
30
0.0
0
VERTEX
8
SLAB_00
10
0.000
20
-1.041
30
0.0
0
VERTEX
8
SLAB_00
10
0.000
20
-2.085
30
0.0
0
VERTEX
8
SLAB_00
10
0.001
20
-3.134
30
0.0
0
VERTEX
8
SLAB_00
10
0.003
20
-4.191
30
0.0
0
VERTEX
8
SLAB_00
10
0.007
20
-5.257
30
0.0
0
VERTEX
8
SLAB_00
10
0.014
20
-6.336
30
0.0
0
VERTEX
8
SLAB_00
10
0.026
20
-7.429
30
0.0
0
VERTEX
8
SLAB_00
10
0.045
20
-8.539
30
0.0
0
VERTEX
8
SLAB_00
10
0.071
20
-9.667
30
0.0
0
VERTEX
8
SLAB_00
10
0.108
20
-10.815
30
0.0
0
VERTEX
8
SLAB_00
10
0.158
20
-11.985
30
0.0
0
VERTEX
8
SLAB_00
10
0.223
20
-13.179
30
0.0
0
VERTEX
8
SLAB_00
10
0.305
20
-14.396
30
0.0
0
VERTEX
8
SLAB_00
10
0.409
20
-15.640
30
0.0
0
VERTEX
8
SLAB_00
10
0.535
20
-16.909
30
0.0
0
VERTEX
8
SLAB_00
10
0.689
20
-18.205
30
0.0
0
VERTEX
8
SLAB_00
10
0.872
20
-19.528
30
0.0
0
VERTEX
8
SLAB_00
10
1.088
20
-20.877
30
0.0
0
VERTEX
8
SLAB_00
10
1.340
20
-22.253
30
0.0
0
VERTEX
8
SLAB_00
10
1.632
20
-23.654
30
0.0
0
VERTEX
8
SLAB_00
10
1.968
20
-25.081
30
0.0
0
VERTEX
8
SLAB_00
10
2.349
20
-26.531
30
0.0
0
VERTEX
8
SLAB_00
10
2.780
20
-28.003
30
0.0
0
VERTEX
8
SLAB_00
10
3.265
20
-29.495
30
0.0
0
VERTEX
8
SLAB_00
10
3.805
20
-31.006
30
0.0
0
VERTEX
8
SLAB_00
10
4.405
20
-32.533
30
0.0
0
VERTEX
8
SLAB_00
10
5.067
20
-34.072
30
0.0
0
VERTEX
8
SLAB_00
10
5.795
20
-35.622
30
0.0
0
VERTEX
8
SLAB_00
10
6.590
20
-37.180
30
0.0
0
VERTEX
8
SLAB_00
10
7.456
20
-38.741
30
0.0
0
VERTEX
8
SLAB_00
10
8.394
20
-40.301
30
0.0
0
VERTEX
8
SLAB_00
10
9.407
20
-41.858
30
0.0
0
VERTEX
8
SLAB_00
10
10.496
20
-43.407
30
0.0
0
VERTEX
8
SLAB_00
10
11.664
20
-44.944
30
0.0
0
VERTEX
8
SLAB_00
10
12.911
20
-46.463
30
0.0
0
VERTEX
8
SLAB_00
10
14.239
20
-47.961
30
0.0
0
VERTEX
8
SLAB_00
10
15.648
20
-49.433
30
0.0
0
VERTEX
8
SLAB_00
10
17.138
20
-50.873
30
0.0
0
VERTEX
8
SLAB_00
10
18.711
20
-52.277
30
0.0
0
VERTEX
8
SLAB_00
10
20.365
20
-53.639
30
0.0
0
VERTEX
8
SLAB_00
10
22.099
20
-54.954
30
0.0
0
VERTEX
8
SLAB_00
10
23.914
20
-56.218
30
0.0
0
VERTEX
8
SLAB_00
10
25.807
20
-57.424
30
0.0
0
VERTEX
8
SLAB_00
10
27.777
20
-58.569
30
0.0
0
VERTEX
8
SLAB_00
10
29.823
20
-59.645
30
0.0
0
VERTEX
8
SLAB_00
10
31.940
20
-60.649
30
0.0
0
VERTEX
8
SLAB_00
10
34.128
20
-61.575
30
0.0
0
VERTEX
8
SLAB_00
10
36.383
20
-62.419
30
0.0
0
VERTEX
8
SLAB_00
10
38.701
20
-63.175
30
0.0
0
VERTEX
8
SLAB_00
10
41.079
20
-63.839
30
0.0
0
VERTEX
8
SLAB_00
10
43.513
20
-64.407
30
0.0
0
VERTEX
8
SLAB_00
10
45.997
20
-64.874
30
0.0
0
VERTEX
8
SLAB_00
10
48.529
20
-65.236
30
0.0
0
VERTEX
8
SLAB_00
10
51.102
20
-65.490
30
0.0
0
VERTEX
8
SLAB_00
10
53.711
20
-65.633
30
0.0
0
VERTEX
8
SLAB_00
10
56.351
20
-65.660
30
0.0
0
VERTEX
8
SLAB_00
10
59.016
20
-65.570
30
0.0
0
VERTEX
8
SLAB_00
10
61.700
20
-65.359
30
0.0
0
VERTEX
8
SLAB_00
10
64.397
20
-65.025
30
0.0
0
VERTEX
8
SLAB_00
10
67.101
20
-64.568
30
0.0
0
VERTEX
8
SLAB_00
10
69.804
20
-63.984
30
0.0
0
VERTEX
8
SLAB_00
10
72.501
20
-63.273
30
0.0
0
VERTEX
8
SLAB_00
10
75.184
20
-62.435
30
0.0
0
VERTEX
8
SLAB_00
10
77.848
20
-61.469
30
0.0
0
VERTEX
8
SLAB_00
10
80.484
20
-60.375
30
0.0
0
VERTEX
8
SLAB_00
10
83.085
20
-59.154
30
0.0
0
VERTEX
8
SLAB_00
10
85.646
20
-57.807
30
0.0
0
VERTEX
8
SLAB_00
10
88.159
20
-56.335
30
0.0
0
VERTEX
8
SLAB_00
10
90.617
20
-54.740
30
0.0
0
VERTEX
8
SLAB_00
10
93.014
20
-53.024
30
0.0
0
VERTEX
8
SLAB_00
10
95.342
20
-51.189
30
0.0
0
VERTEX
8
SLAB_00
10
97.595
20
-49.240
30
0.0
0
VERTEX
8
SLAB_00
10
99.768
20
-47.179
30
0.0
0
VERTEX
8
SLAB_00
10
101.852
20
-45.009
30
0.0
0
VERTEX
8
SLAB_00
10
103.844
20
-42.736
30
0.0
0
VERTEX
8
SLAB_00
10
105.735
20
-40.364
30
0.0
0
VERTEX
8
SLAB_00
10
107.523
20
-37.897
30
0.0
0
VERTEX
8
SLAB_00
10
109.200
20
-35.341
30
0.0
0
VERTEX
8
SLAB_00
10
110.762
20
-32.702
30
0.0
0
VERTEX
8
SLAB_00
10
112.204
20
-29.985
30
0.0
0
VERTEX
8
SLAB_00
10
113.523
20
-27.196
30
0.0
0
VERTEX
8
SLAB_00
10
114.714
20
-24.342
30
0.0
0
VERTEX
8
SLAB_00
10
115.773
20
-21.430
30
0.0
0
VERTEX
8
SLAB_00
10
116.698
20
-18.466
30
0.0
0
VERTEX
8
SLAB_00
10
117.485
20
-15.457
30
0.0
0
VERTEX
8
SLAB_00
10
118.132
20
-12.411
30
0.0
0
VERTEX
8
SLAB_00
10
118.637
20
-9.335
30
0.0
0
VERTEX
8
SLAB_00
10
119.000
20
-6.236
30
0.0
0
VERTEX
8
SLAB_00
10
119.217
20
-3.122
30
0.0
0
SEQEND
8
SLAB_00
0
TEXT
8
TEXT
10
0.000
20
80.660
30
0.0
40
8.0
1
60: s'=+1392 D=131
0
CIRCLE
8
DOWEL
10
15.000
20
18.000
30
0.0
40
3.250
0
TEXT
8
DOWEL
10
20.000
20
16.000
30
0.0
40
3.0
1
A
0
CIRCLE
8
DOWEL
10
15.000
20
-18.000
30
0.0
40
3.250
0
TEXT
8
DOWEL
10
20.000
20
-20.000
30
0.0
40
3.0
1
B
0
CIRCLE
8
DOWEL
10
45.000
20
18.000
30
0.0
40
3.250
0
TEXT
8
DOWEL
10
50.000
20
16.000
30
0.0
40
3.0
1
C
0
CIRCLE
8
DOWEL
10
45.000
20
-18.000
30
0.0
40
3.250
0
TEXT
8
DOWEL
10
50.000
20
-20.000
30
0.0
40
3.0
1
D
0
ENDSEC
0
EOF