0
SECTION
2
HEADER
9
$ACADVER
1
AC1009
9
$INSUNITS
70
4
0
ENDSEC
0
SECTION
2
TABLES
0
TABLE
2
LAYER
70
4
0
LAYER
2
0
70
0
62
7
6
CONTINUOUS
0
LAYER
2
TEXT
70
0
62
1
6
CONTINUOUS
0
LAYER
2
DOWEL
70
0
62
5
6
CONTINUOUS
0
LAYER
2
SLAB_00
70
0
62
2
6
CONTINUOUS
0
ENDTAB
0
ENDSEC
0
SECTION
2
ENTITIES
0
POLYLINE
8
SLAB_00
66
1
70
1
10
0.0
20
0.0
30
0.0
0
VERTEX
8
SLAB_00
10
287.285
20
0.000
30
0.0
0
VERTEX
8
SLAB_00
10
287.110
20
7.518
30
0.0
0
VERTEX
8
SLAB_00
10
286.585
20
15.018
30
0.0
0
VERTEX
8
SLAB_00
10
285.713
20
22.481
30
0.0
0
VERTEX
8
SLAB_00
10
284.496
20
29.889
30
0.0
0
VERTEX
8
SLAB_00
10
282.937
20
37.225
30
0.0
0
VERTEX
8
SLAB_00
10
281.041
20
44.471
30
0.0
0
VERTEX
8
SLAB_00
10
278.815
20
51.609
30
0.0
0
VERTEX
8
SLAB_00
10
276.264
20
58.623
30
0.0
0
VERTEX
8
SLAB_00
10
273.396
20
65.496
30
0.0
0
VERTEX
8
SLAB_00
10
270.221
20
72.212
30
0.0
0
VERTEX
8
SLAB_00
10
266.747
20
78.755
30
0.0
0
VERTEX
8
SLAB_00
10
262.985
20
85.111
30
0.0
0
VERTEX
8
SLAB_00
10
258.946
20
91.267
30
0.0
0
VERTEX
8
SLAB_00
10
254.642
20
97.207
30
0.0
0
VERTEX
8
SLAB_00
10
250.085
20
102.921
30
0.0
0
VERTEX
8
SLAB_00
10
245.290
20
108.395
30
0.0
0
VERTEX
8
SLAB_00
10
240.269
20
113.620
30
0.0
0
VERTEX
8
SLAB_00
10
235.038
20
118.584
30
0.0
0
VERTEX
8
SLAB_00
10
229.611
20
123.279
30
0.0
0
VERTEX
8
SLAB_00
10
224.004
20
127.697
30
0.0
0
VERTEX
8
SLAB_00
10
218.233
20
131.829
30
0.0
0
VERTEX
8
SLAB_00
10
212.313
20
135.671
30
0.0
0
VERTEX
8
SLAB_00
10
206.261
20
139.216
30
0.0
0
VERTEX
8
SLAB_00
10
200.094
20
142.461
30
0.0
0
VERTEX
8
SLAB_00
10
193.828
20
145.402
30
0.0
0
VERTEX
8
SLAB_00
10
187.479
20
148.036
30
0.0
0
VERTEX
8
SLAB_00
10
181.066
20
150.362
30
0.0
0
VERTEX
8
SLAB_00
10
174.603
20
152.381
30
0.0
0
VERTEX
8
SLAB_00
10
168.109
20
154.092
30
0.0
0
VERTEX
8
SLAB_00
10
161.598
20
155.498
30
0.0
0
VERTEX
8
SLAB_00
10
155.087
20
156.600
30
0.0
0
VERTEX
8
SLAB_00
10
148.592
20
157.403
30
0.0
0
VERTEX
8
SLAB_00
10
142.128
20
157.911
30
0.0
0
VERTEX
8
SLAB_00
10
135.709
20
158.129
30
0.0
0
VERTEX
8
SLAB_00
10
129.351
20
158.063
30
0.0
0
VERTEX
8
SLAB_00
10
123.067
20
157.720
30
0.0
0
VERTEX
8
SLAB_00
10
116.871
20
157.108
30
0.0
0
VERTEX
8
SLAB_00
10
110.775
20
156.235
30
0.0
0
VERTEX
8
SLAB_00
10
104.791
20
155.110
30
0.0
0
VERTEX
8
SLAB_00
10
98.930
20
153.742
30
0.0
0
VERTEX
8
SLAB_00
10
93.204
20
152.143
30
0.0
0
VERTEX
8
SLAB_00
10
87.621
20
150.322
30
0.0
0
VERTEX
8
SLAB_00
10
82.191
20
148.290
30
0.0
0
VERTEX
8
SLAB_00
10
76.922
20
146.060
30
0.0
0
VERTEX
8
SLAB_00
10
71.821
20
143.642
30
0.0
0
VERTEX
8
SLAB_00
10
66.896
20
141.050
30
0.0
0
VERTEX
8
SLAB_00
10
62.151
20
138.295
30
0.0
0
VERTEX
8
SLAB_00
10
57.591
20
135.389
30
0.0
0
VERTEX
8
SLAB_00
10
53.221
20
132.346
30
0.0
0
VERTEX
8
SLAB_00
10
49.044
20
129.178
30
0.0
0
VERTEX
8
SLAB_00
10
45.061
20
125.897
30
0.0
0
VERTEX
8
SLAB_00
10
41.274
20
122.517
30
0.0
0
VERTEX
8
SLAB_00
10
37.685
20
119.048
30
0.0
0
VERTEX
8
SLAB_00
10
34.292
20
115.504
30
0.0
0
VERTEX
8
SLAB_00
10
31.094
20
111.897
30
0.0
0
VERTEX
8
SLAB_00
10
28.090
20
108.237
30
0.0
0
VERTEX
8
SLAB_00
10
25.278
20
104.537
30
0.0
0
VERTEX
8
SLAB_00
10
22.654
20
100.807
30
0.0
0
VERTEX
8
SLAB_00
10
20.215
20
97.058
30
0.0
0
VERTEX
8
SLAB_00
10
17.955
20
93.299
30
0.0
0
VERTEX
8
SLAB_00
10
15.871
20
89.539
30
0.0
0
VERTEX
8
SLAB_00
10
13.956
20
85.789
30
0.0
0
VERTEX
8
SLAB_00
10
12.204
20
82.056
30
0.0
0
VERTEX
8
SLAB_00
10
10.609
20
78.348
30
0.0
0
VERTEX
8
SLAB_00
10
9.164
20
74.671
30
0.0
0
VERTEX
8
SLAB_00
10
7.863
20
71.033
30
0.0
0
VERTEX
8
SLAB_00
10
6.696
20
67.439
30
0.0
0
VERTEX
8
SLAB_00
10
5.657
20
63.894
30
0.0
0
VERTEX
8
SLAB_00
10
4.738
20
60.402
30
0.0
0
VERTEX
8
SLAB_00
10
3.931
20
56.967
30
0.0
0
VERTEX
8
SLAB_00
10
3.228
20
53.591
30
0.0
0
VERTEX
8
SLAB_00
10
2.620
20
50.278
30
0.0
0
VERTEX
8
SLAB_00
10
2.099
20
47.028
30
0.0
0
VERTEX
8
SLAB_00
10
1.658
20
43.843
30
0.0
0
VERTEX
8
SLAB_00
10
1.289
20
40.722
30
0.0
0
VERTEX
8
SLAB_00
10
0.984
20
37.665
30
0.0
0
VERTEX
8
SLAB_00
10
0.736
20
34.671
30
0.0
0
VERTEX
8
SLAB_00
10
0.537
20
31.738
30
0.0
0
VERTEX
8
SLAB_00
10
0.381
20
28.864
30
0.0
0
VERTEX
8
SLAB_00
10
0.261
20
26.046
30
0.0
0
VERTEX
8
SLAB_00
10
0.172
20
23.280
30
0.0
0
VERTEX
8
SLAB_00
10
0.108
20
20.563
30
0.0
0
VERTEX
8
SLAB_00
10
0.063
20
17.891
30
0.0
0
VERTEX
8
SLAB_00
10
0.034
20
15.259
30
0.0
0
VERTEX
8
SLAB_00
10
0.017
20
12.661
30
0.0
0
VERTEX
8
SLAB_00
10
0.007
20
10.093
30
0.0
0
VERTEX
8
SLAB_00
10
0.002
20
7.548
30
0.0
0
VERTEX
8
SLAB_00
10
0.000
20
5.022
30
0.0
0
VERTEX
8
SLAB_00
10
0.000
20
2.508
30
0.0
0
VERTEX
8
SLAB_00
10
0.000
20
0.000
30
0.0
0
VERTEX
8
SLAB_00
10
0.000
20
-2.508
30
0.0
0
VERTEX
8
SLAB_00
10
0.000
20
-5.022
30
0.0
0
VERTEX
8
SLAB_00
10
0.002
20
-7.548
30
0.0
0
VERTEX
8
SLAB_00
10
0.007
20
-10.093
30
0.0
0
VERTEX
8
SLAB_00
10
0.017
20
-12.661
30
0.0
0
VERTEX
8
SLAB_00
10
0.034
20
-15.259
30
0.0
0
VERTEX
8
SLAB_00
10
0.063
20
-17.891
30
0.0
0
VERTEX
8
SLAB_00
10
0.108
20
-20.563
30
0.0
0
VERTEX
8
SLAB_00
10
0.172
20
-23.280
30
0.0
0
VERTEX
8
SLAB_00
10
0.261
20
-26.046
30
0.0
0
VERTEX
8
SLAB_00
10
0.381
20
-28.864
30
0.0
0
VERTEX
8
SLAB_00
10
0.537
20
-31.738
30
0.0
0
VERTEX
8
SLAB_00
10
0.736
20
-34.671
30
0.0
0
VERTEX
8
SLAB_00
10
0.984
20
-37.665
30
0.0
0
VERTEX
8
SLAB_00
10
1.289
20
-40.722
30
0.0
0
VERTEX
8
SLAB_00
10
1.658
20
-43.843
30
0.0
0
VERTEX
8
SLAB_00
10
2.099
20
-47.028
30
0.0
0
VERTEX
8
SLAB_00
10
2.620
20
-50.278
30
0.0
0
VERTEX
8
SLAB_00
10
3.228
20
-53.591
30
0.0
0
VERTEX
8
SLAB_00
10
3.931
20
-56.967
30
0.0
0
VERTEX
8
SLAB_00
10
4.738
20
-60.402
30
0.0
0
VERTEX
8
SLAB_00
10
5.657
20
-63.894
30
0.0
0
VERTEX
8
SLAB_00
10
6.696
20
-67.439
30
0.0
0
VERTEX
8
SLAB_00
10
7.863
20
-71.033
30
0.0
0
VERTEX
8
SLAB_00
10
9.164
20
-74.671
30
0.0
0
VERTEX
8
SLAB_00
10
10.609
20
-78.348
30
0.0
0
VERTEX
8
SLAB_00
10
12.204
20
-82.056
30
0.0
0
VERTEX
8
SLAB_00
10
13.956
20
-85.789
30
0.0
0
VERTEX
8
SLAB_00
10
15.871
20
-89.539
30
0.0
0
VERTEX
8
SLAB_00
10
17.955
20
-93.299
30
0.0
0
VERTEX
8
SLAB_00
10
20.215
20
-97.058
30
0.0
0
VERTEX
8
SLAB_00
10
22.654
20
-100.807
30
0.0
0
VERTEX
8
SLAB_00
10
25.278
20
-104.537
30
0.0
0
VERTEX
8
SLAB_00
10
28.090
20
-108.237
30
0.0
0
VERTEX
8
SLAB_00
10
31.094
20
-111.897
30
0.0
0
VERTEX
8
SLAB_00
10
34.292
20
-115.504
30
0.0
0
VERTEX
8
SLAB_00
10
37.685
20
-119.048
30
0.0
0
VERTEX
8
SLAB_00
10
41.274
20
-122.517
30
0.0
0
VERTEX
8
SLAB_00
10
45.061
20
-125.897
30
0.0
0
VERTEX
8
SLAB_00
10
49.044
20
-129.178
30
0.0
0
VERTEX
8
SLAB_00
10
53.221
20
-132.346
30
0.0
0
VERTEX
8
SLAB_00
10
57.591
20
-135.389
30
0.0
0
VERTEX
8
SLAB_00
10
62.151
20
-138.295
30
0.0
0
VERTEX
8
SLAB_00
10
66.896
20
-141.050
30
0.0
0
VERTEX
8
SLAB_00
10
71.821
20
-143.642
30
0.0
0
VERTEX
8
SLAB_00
10
76.922
20
-146.060
30
0.0
0
VERTEX
8
SLAB_00
10
82.191
20
-148.290
30
0.0
0
VERTEX
8
SLAB_00
10
87.621
20
-150.322
30
0.0
0
VERTEX
8
SLAB_00
10
93.204
20
-152.143
30
0.0
0
VERTEX
8
SLAB_00
10
98.930
20
-153.742
30
0.0
0
VERTEX
8
SLAB_00
10
104.791
20
-155.110
30
0.0
0
VERTEX
8
SLAB_00
10
110.775
20
-156.235
30
0.0
0
VERTEX
8
SLAB_00
10
116.871
20
-157.108
30
0.0
0
VERTEX
8
SLAB_00
10
123.067
20
-157.720
30
0.0
0
VERTEX
8
SLAB_00
10
129.351
20
-158.063
30
0.0
0
VERTEX
8
SLAB_00
10
135.709
20
-158.129
30
0.0
0
VERTEX
8
SLAB_00
10
142.128
20
-157.911
30
0.0
0
VERTEX
8
SLAB_00
10
148.592
20
-157.403
30
0.0
0
VERTEX
8
SLAB_00
10
155.087
20
-156.600
30
0.0
0
VERTEX
8
SLAB_00
10
161.598
20
-155.498
30
0.0
0
VERTEX
8
SLAB_00
10
168.109
20
-154.092
30
0.0
0
VERTEX
8
SLAB_00
10
174.603
20
-152.381
30
0.0
0
VERTEX
8
SLAB_00
10
181.066
20
-150.362
30
0.0
0
VERTEX
8
SLAB_00
10
187.479
20
-148.036
30
0.0
0
VERTEX
8
SLAB_00
10
193.828
20
-145.402
30
0.0
0
VERTEX
8
SLAB_00
10
200.094
20
-142.461
30
0.0
0
VERTEX
8
SLAB_00
10
206.261
20
-139.216
30
0.0
0
VERTEX
8
SLAB_00
10
212.313
20
-135.671
30
0.0
0
VERTEX
8
SLAB_00
10
218.233
20
-131.829
30
0.0
0
VERTEX
8
SLAB_00
10
224.004
20
-127.697
30
0.0
0
VERTEX
8
SLAB_00
10
229.611
20
-123.279
30
0.0
0
VERTEX
8
SLAB_00
10
235.038
20
-118.584
30
0.0
0
VERTEX
8
SLAB_00
10
240.269
20
-113.620
30
0.0
0
VERTEX
8
SLAB_00
10
245.290
20
-108.395
30
0.0
0
VERTEX
8
SLAB_00
10
250.085
20
-102.921
30
0.0
0
VERTEX
8
SLAB_00
10
254.642
20
-97.207
30
0.0
0
VERTEX
8
SLAB_00
10
258.946
20
-91.267
30
0.0
0
VERTEX
8
SLAB_00
10
262.985
20
-85.111
30
0.0
0
VERTEX
8
SLAB_00
10
266.747
20
-78.755
30
0.0
0
VERTEX
8
SLAB_00
10
270.221
20
-72.212
30
0.0
0
VERTEX
8
SLAB_00
10
273.396
20
-65.496
30
0.0
0
VERTEX
8
SLAB_00
10
276.264
20
-58.623
30
0.0
0
VERTEX
8
SLAB_00
10
278.815
20
-51.609
30
0.0
0
VERTEX
8
SLAB_00
10
281.041
20
-44.471
30
0.0
0
VERTEX
8
SLAB_00
10
282.937
20
-37.225
30
0.0
0
VERTEX
8
SLAB_00
10
284.496
20
-29.889
30
0.0
0
VERTEX
8
SLAB_00
10
285.713
20
-22.481
30
0.0
0
VERTEX
8
SLAB_00
10
286.585
20
-15.018
30
0.0
0
VERTEX
8
SLAB_00
10
287.110
20
-7.518
30
0.0
0
SEQEND
8
SLAB_00
0
TEXT
8
TEXT
10
0.000
20
173.129
30
0.0
40
8.0
1
39: s'=+859 D=316
0
CIRCLE
8
DOWEL
10
15.000
20
18.000
30
0.0
40
3.250
0
TEXT
8
DOWEL
10
20.000
20
16.000
30
0.0
40
3.0
1
A
0
CIRCLE
8
DOWEL
10
15.000
20
-18.000
30
0.0
40
3.250
0
TEXT
8
DOWEL
10
20.000
20
-20.000
30
0.0
40
3.0
1
B
0
CIRCLE
8
DOWEL
10
45.000
20
18.000
30
0.0
40
3.250
0
TEXT
8
DOWEL
10
50.000
20
16.000
30
0.0
40
3.0
1
C
0
CIRCLE
8
DOWEL
10
45.000
20
-18.000
30
0.0
40
3.250
0
TEXT
8
DOWEL
10
50.000
20
-20.000
30
0.0
40
3.0
1
D
0
ENDSEC
0
EOF