0
SECTION
2
HEADER
9
$ACADVER
1
AC1009
9
$INSUNITS
70
4
0
ENDSEC
0
SECTION
2
TABLES
0
TABLE
2
LAYER
70
4
0
LAYER
2
0
70
0
62
7
6
CONTINUOUS
0
LAYER
2
TEXT
70
0
62
1
6
CONTINUOUS
0
LAYER
2
DOWEL
70
0
62
5
6
CONTINUOUS
0
LAYER
2
SLAB_00
70
0
62
2
6
CONTINUOUS
0
ENDTAB
0
ENDSEC
0
SECTION
2
ENTITIES
0
POLYLINE
8
SLAB_00
66
1
70
1
10
0.0
20
0.0
30
0.0
0
VERTEX
8
SLAB_00
10
171.644
20
0.000
30
0.0
0
VERTEX
8
SLAB_00
10
171.539
20
4.492
30
0.0
0
VERTEX
8
SLAB_00
10
171.226
20
8.973
30
0.0
0
VERTEX
8
SLAB_00
10
170.705
20
13.432
30
0.0
0
VERTEX
8
SLAB_00
10
169.978
20
17.858
30
0.0
0
VERTEX
8
SLAB_00
10
169.046
20
22.241
30
0.0
0
VERTEX
8
SLAB_00
10
167.914
20
26.570
30
0.0
0
VERTEX
8
SLAB_00
10
166.583
20
30.835
30
0.0
0
VERTEX
8
SLAB_00
10
165.059
20
35.025
30
0.0
0
VERTEX
8
SLAB_00
10
163.346
20
39.132
30
0.0
0
VERTEX
8
SLAB_00
10
161.449
20
43.144
30
0.0
0
VERTEX
8
SLAB_00
10
159.373
20
47.054
30
0.0
0
VERTEX
8
SLAB_00
10
157.125
20
50.851
30
0.0
0
VERTEX
8
SLAB_00
10
154.712
20
54.529
30
0.0
0
VERTEX
8
SLAB_00
10
152.141
20
58.078
30
0.0
0
VERTEX
8
SLAB_00
10
149.418
20
61.492
30
0.0
0
VERTEX
8
SLAB_00
10
146.553
20
64.763
30
0.0
0
VERTEX
8
SLAB_00
10
143.554
20
67.884
30
0.0
0
VERTEX
8
SLAB_00
10
140.428
20
70.850
30
0.0
0
VERTEX
8
SLAB_00
10
137.186
20
73.655
30
0.0
0
VERTEX
8
SLAB_00
10
133.836
20
76.295
30
0.0
0
VERTEX
8
SLAB_00
10
130.387
20
78.764
30
0.0
0
VERTEX
8
SLAB_00
10
126.850
20
81.059
30
0.0
0
VERTEX
8
SLAB_00
10
123.235
20
83.178
30
0.0
0
VERTEX
8
SLAB_00
10
119.550
20
85.116
30
0.0
0
VERTEX
8
SLAB_00
10
115.806
20
86.873
30
0.0
0
VERTEX
8
SLAB_00
10
112.013
20
88.447
30
0.0
0
VERTEX
8
SLAB_00
10
108.181
20
89.837
30
0.0
0
VERTEX
8
SLAB_00
10
104.320
20
91.043
30
0.0
0
VERTEX
8
SLAB_00
10
100.440
20
92.065
30
0.0
0
VERTEX
8
SLAB_00
10
96.550
20
92.905
30
0.0
0
VERTEX
8
SLAB_00
10
92.660
20
93.564
30
0.0
0
VERTEX
8
SLAB_00
10
88.779
20
94.043
30
0.0
0
VERTEX
8
SLAB_00
10
84.917
20
94.347
30
0.0
0
VERTEX
8
SLAB_00
10
81.082
20
94.477
30
0.0
0
VERTEX
8
SLAB_00
10
77.283
20
94.438
30
0.0
0
VERTEX
8
SLAB_00
10
73.529
20
94.233
30
0.0
0
VERTEX
8
SLAB_00
10
69.827
20
93.867
30
0.0
0
VERTEX
8
SLAB_00
10
66.185
20
93.345
30
0.0
0
VERTEX
8
SLAB_00
10
62.609
20
92.673
30
0.0
0
VERTEX
8
SLAB_00
10
59.108
20
91.856
30
0.0
0
VERTEX
8
SLAB_00
10
55.686
20
90.901
30
0.0
0
VERTEX
8
SLAB_00
10
52.351
20
89.813
30
0.0
0
VERTEX
8
SLAB_00
10
49.106
20
88.599
30
0.0
0
VERTEX
8
SLAB_00
10
45.958
20
87.266
30
0.0
0
VERTEX
8
SLAB_00
10
42.911
20
85.822
30
0.0
0
VERTEX
8
SLAB_00
10
39.968
20
84.273
30
0.0
0
VERTEX
8
SLAB_00
10
37.133
20
82.627
30
0.0
0
VERTEX
8
SLAB_00
10
34.409
20
80.891
30
0.0
0
VERTEX
8
SLAB_00
10
31.798
20
79.073
30
0.0
0
VERTEX
8
SLAB_00
10
29.302
20
77.180
30
0.0
0
VERTEX
8
SLAB_00
10
26.923
20
75.220
30
0.0
0
VERTEX
8
SLAB_00
10
24.660
20
73.200
30
0.0
0
VERTEX
8
SLAB_00
10
22.515
20
71.128
30
0.0
0
VERTEX
8
SLAB_00
10
20.488
20
69.010
30
0.0
0
VERTEX
8
SLAB_00
10
18.578
20
66.855
30
0.0
0
VERTEX
8
SLAB_00
10
16.783
20
64.669
30
0.0
0
VERTEX
8
SLAB_00
10
15.103
20
62.458
30
0.0
0
VERTEX
8
SLAB_00
10
13.535
20
60.229
30
0.0
0
VERTEX
8
SLAB_00
10
12.078
20
57.989
30
0.0
0
VERTEX
8
SLAB_00
10
10.728
20
55.743
30
0.0
0
VERTEX
8
SLAB_00
10
9.482
20
53.497
30
0.0
0
VERTEX
8
SLAB_00
10
8.338
20
51.256
30
0.0
0
VERTEX
8
SLAB_00
10
7.291
20
49.026
30
0.0
0
VERTEX
8
SLAB_00
10
6.339
20
46.810
30
0.0
0
VERTEX
8
SLAB_00
10
5.475
20
44.614
30
0.0
0
VERTEX
8
SLAB_00
10
4.698
20
42.440
30
0.0
0
VERTEX
8
SLAB_00
10
4.001
20
40.293
30
0.0
0
VERTEX
8
SLAB_00
10
3.380
20
38.175
30
0.0
0
VERTEX
8
SLAB_00
10
2.831
20
36.088
30
0.0
0
VERTEX
8
SLAB_00
10
2.349
20
34.036
30
0.0
0
VERTEX
8
SLAB_00
10
1.928
20
32.019
30
0.0
0
VERTEX
8
SLAB_00
10
1.565
20
30.040
30
0.0
0
VERTEX
8
SLAB_00
10
1.254
20
28.098
30
0.0
0
VERTEX
8
SLAB_00
10
0.991
20
26.195
30
0.0
0
VERTEX
8
SLAB_00
10
0.770
20
24.330
30
0.0
0
VERTEX
8
SLAB_00
10
0.588
20
22.504
30
0.0
0
VERTEX
8
SLAB_00
10
0.440
20
20.715
30
0.0
0
VERTEX
8
SLAB_00
10
0.321
20
18.962
30
0.0
0
VERTEX
8
SLAB_00
10
0.228
20
17.245
30
0.0
0
VERTEX
8
SLAB_00
10
0.156
20
15.562
30
0.0
0
VERTEX
8
SLAB_00
10
0.103
20
13.909
30
0.0
0
VERTEX
8
SLAB_00
10
0.064
20
12.286
30
0.0
0
VERTEX
8
SLAB_00
10
0.038
20
10.689
30
0.0
0
VERTEX
8
SLAB_00
10
0.020
20
9.117
30
0.0
0
VERTEX
8
SLAB_00
10
0.010
20
7.565
30
0.0
0
VERTEX
8
SLAB_00
10
0.004
20
6.030
30
0.0
0
VERTEX
8
SLAB_00
10
0.001
20
4.510
30
0.0
0
VERTEX
8
SLAB_00
10
0.000
20
3.001
30
0.0
0
VERTEX
8
SLAB_00
10
0.000
20
1.498
30
0.0
0
VERTEX
8
SLAB_00
10
0.000
20
0.000
30
0.0
0
VERTEX
8
SLAB_00
10
0.000
20
-1.498
30
0.0
0
VERTEX
8
SLAB_00
10
0.000
20
-3.001
30
0.0
0
VERTEX
8
SLAB_00
10
0.001
20
-4.510
30
0.0
0
VERTEX
8
SLAB_00
10
0.004
20
-6.030
30
0.0
0
VERTEX
8
SLAB_00
10
0.010
20
-7.565
30
0.0
0
VERTEX
8
SLAB_00
10
0.020
20
-9.117
30
0.0
0
VERTEX
8
SLAB_00
10
0.038
20
-10.689
30
0.0
0
VERTEX
8
SLAB_00
10
0.064
20
-12.286
30
0.0
0
VERTEX
8
SLAB_00
10
0.103
20
-13.909
30
0.0
0
VERTEX
8
SLAB_00
10
0.156
20
-15.562
30
0.0
0
VERTEX
8
SLAB_00
10
0.228
20
-17.245
30
0.0
0
VERTEX
8
SLAB_00
10
0.321
20
-18.962
30
0.0
0
VERTEX
8
SLAB_00
10
0.440
20
-20.715
30
0.0
0
VERTEX
8
SLAB_00
10
0.588
20
-22.504
30
0.0
0
VERTEX
8
SLAB_00
10
0.770
20
-24.330
30
0.0
0
VERTEX
8
SLAB_00
10
0.991
20
-26.195
30
0.0
0
VERTEX
8
SLAB_00
10
1.254
20
-28.098
30
0.0
0
VERTEX
8
SLAB_00
10
1.565
20
-30.040
30
0.0
0
VERTEX
8
SLAB_00
10
1.928
20
-32.019
30
0.0
0
VERTEX
8
SLAB_00
10
2.349
20
-34.036
30
0.0
0
VERTEX
8
SLAB_00
10
2.831
20
-36.088
30
0.0
0
VERTEX
8
SLAB_00
10
3.380
20
-38.175
30
0.0
0
VERTEX
8
SLAB_00
10
4.001
20
-40.293
30
0.0
0
VERTEX
8
SLAB_00
10
4.698
20
-42.440
30
0.0
0
VERTEX
8
SLAB_00
10
5.475
20
-44.614
30
0.0
0
VERTEX
8
SLAB_00
10
6.339
20
-46.810
30
0.0
0
VERTEX
8
SLAB_00
10
7.291
20
-49.026
30
0.0
0
VERTEX
8
SLAB_00
10
8.338
20
-51.256
30
0.0
0
VERTEX
8
SLAB_00
10
9.482
20
-53.497
30
0.0
0
VERTEX
8
SLAB_00
10
10.728
20
-55.743
30
0.0
0
VERTEX
8
SLAB_00
10
12.078
20
-57.989
30
0.0
0
VERTEX
8
SLAB_00
10
13.535
20
-60.229
30
0.0
0
VERTEX
8
SLAB_00
10
15.103
20
-62.458
30
0.0
0
VERTEX
8
SLAB_00
10
16.783
20
-64.669
30
0.0
0
VERTEX
8
SLAB_00
10
18.578
20
-66.855
30
0.0
0
VERTEX
8
SLAB_00
10
20.488
20
-69.010
30
0.0
0
VERTEX
8
SLAB_00
10
22.515
20
-71.128
30
0.0
0
VERTEX
8
SLAB_00
10
24.660
20
-73.200
30
0.0
0
VERTEX
8
SLAB_00
10
26.923
20
-75.220
30
0.0
0
VERTEX
8
SLAB_00
10
29.302
20
-77.180
30
0.0
0
VERTEX
8
SLAB_00
10
31.798
20
-79.073
30
0.0
0
VERTEX
8
SLAB_00
10
34.409
20
-80.891
30
0.0
0
VERTEX
8
SLAB_00
10
37.133
20
-82.627
30
0.0
0
VERTEX
8
SLAB_00
10
39.968
20
-84.273
30
0.0
0
VERTEX
8
SLAB_00
10
42.911
20
-85.822
30
0.0
0
VERTEX
8
SLAB_00
10
45.958
20
-87.266
30
0.0
0
VERTEX
8
SLAB_00
10
49.106
20
-88.599
30
0.0
0
VERTEX
8
SLAB_00
10
52.351
20
-89.813
30
0.0
0
VERTEX
8
SLAB_00
10
55.686
20
-90.901
30
0.0
0
VERTEX
8
SLAB_00
10
59.108
20
-91.856
30
0.0
0
VERTEX
8
SLAB_00
10
62.609
20
-92.673
30
0.0
0
VERTEX
8
SLAB_00
10
66.185
20
-93.345
30
0.0
0
VERTEX
8
SLAB_00
10
69.827
20
-93.867
30
0.0
0
VERTEX
8
SLAB_00
10
73.529
20
-94.233
30
0.0
0
VERTEX
8
SLAB_00
10
77.283
20
-94.438
30
0.0
0
VERTEX
8
SLAB_00
10
81.082
20
-94.477
30
0.0
0
VERTEX
8
SLAB_00
10
84.917
20
-94.347
30
0.0
0
VERTEX
8
SLAB_00
10
88.779
20
-94.043
30
0.0
0
VERTEX
8
SLAB_00
10
92.660
20
-93.564
30
0.0
0
VERTEX
8
SLAB_00
10
96.550
20
-92.905
30
0.0
0
VERTEX
8
SLAB_00
10
100.440
20
-92.065
30
0.0
0
VERTEX
8
SLAB_00
10
104.320
20
-91.043
30
0.0
0
VERTEX
8
SLAB_00
10
108.181
20
-89.837
30
0.0
0
VERTEX
8
SLAB_00
10
112.013
20
-88.447
30
0.0
0
VERTEX
8
SLAB_00
10
115.806
20
-86.873
30
0.0
0
VERTEX
8
SLAB_00
10
119.550
20
-85.116
30
0.0
0
VERTEX
8
SLAB_00
10
123.235
20
-83.178
30
0.0
0
VERTEX
8
SLAB_00
10
126.850
20
-81.059
30
0.0
0
VERTEX
8
SLAB_00
10
130.387
20
-78.764
30
0.0
0
VERTEX
8
SLAB_00
10
133.836
20
-76.295
30
0.0
0
VERTEX
8
SLAB_00
10
137.186
20
-73.655
30
0.0
0
VERTEX
8
SLAB_00
10
140.428
20
-70.850
30
0.0
0
VERTEX
8
SLAB_00
10
143.554
20
-67.884
30
0.0
0
VERTEX
8
SLAB_00
10
146.553
20
-64.763
30
0.0
0
VERTEX
8
SLAB_00
10
149.418
20
-61.492
30
0.0
0
VERTEX
8
SLAB_00
10
152.141
20
-58.078
30
0.0
0
VERTEX
8
SLAB_00
10
154.712
20
-54.529
30
0.0
0
VERTEX
8
SLAB_00
10
157.125
20
-50.851
30
0.0
0
VERTEX
8
SLAB_00
10
159.373
20
-47.054
30
0.0
0
VERTEX
8
SLAB_00
10
161.449
20
-43.144
30
0.0
0
VERTEX
8
SLAB_00
10
163.346
20
-39.132
30
0.0
0
VERTEX
8
SLAB_00
10
165.059
20
-35.025
30
0.0
0
VERTEX
8
SLAB_00
10
166.583
20
-30.835
30
0.0
0
VERTEX
8
SLAB_00
10
167.914
20
-26.570
30
0.0
0
VERTEX
8
SLAB_00
10
169.046
20
-22.241
30
0.0
0
VERTEX
8
SLAB_00
10
169.978
20
-17.858
30
0.0
0
VERTEX
8
SLAB_00
10
170.705
20
-13.432
30
0.0
0
VERTEX
8
SLAB_00
10
171.226
20
-8.973
30
0.0
0
VERTEX
8
SLAB_00
10
171.539
20
-4.492
30
0.0
0
SEQEND
8
SLAB_00
0
TEXT
8
TEXT
10
0.000
20
109.477
30
0.0
40
8.0
1
54: s'=+1239 D=189
0
CIRCLE
8
DOWEL
10
15.000
20
18.000
30
0.0
40
3.250
0
TEXT
8
DOWEL
10
20.000
20
16.000
30
0.0
40
3.0
1
A
0
CIRCLE
8
DOWEL
10
15.000
20
-18.000
30
0.0
40
3.250
0
TEXT
8
DOWEL
10
20.000
20
-20.000
30
0.0
40
3.0
1
B
0
CIRCLE
8
DOWEL
10
45.000
20
18.000
30
0.0
40
3.250
0
TEXT
8
DOWEL
10
50.000
20
16.000
30
0.0
40
3.0
1
C
0
CIRCLE
8
DOWEL
10
45.000
20
-18.000
30
0.0
40
3.250
0
TEXT
8
DOWEL
10
50.000
20
-20.000
30
0.0
40
3.0
1
D
0
ENDSEC
0
EOF