0
SECTION
2
HEADER
9
$ACADVER
1
AC1009
9
$INSUNITS
70
4
0
ENDSEC
0
SECTION
2
TABLES
0
TABLE
2
LAYER
70
4
0
LAYER
2
0
70
0
62
7
6
CONTINUOUS
0
LAYER
2
TEXT
70
0
62
1
6
CONTINUOUS
0
LAYER
2
DOWEL
70
0
62
5
6
CONTINUOUS
0
LAYER
2
SLAB_00
70
0
62
2
6
CONTINUOUS
0
ENDTAB
0
ENDSEC
0
SECTION
2
ENTITIES
0
POLYLINE
8
SLAB_00
66
1
70
1
10
0.0
20
0.0
30
0.0
0
VERTEX
8
SLAB_00
10
168.852
20
0.000
30
0.0
0
VERTEX
8
SLAB_00
10
168.749
20
4.419
30
0.0
0
VERTEX
8
SLAB_00
10
168.441
20
8.827
30
0.0
0
VERTEX
8
SLAB_00
10
167.928
20
13.213
30
0.0
0
VERTEX
8
SLAB_00
10
167.213
20
17.568
30
0.0
0
VERTEX
8
SLAB_00
10
166.297
20
21.879
30
0.0
0
VERTEX
8
SLAB_00
10
165.183
20
26.138
30
0.0
0
VERTEX
8
SLAB_00
10
163.874
20
30.333
30
0.0
0
VERTEX
8
SLAB_00
10
162.375
20
34.456
30
0.0
0
VERTEX
8
SLAB_00
10
160.689
20
38.495
30
0.0
0
VERTEX
8
SLAB_00
10
158.823
20
42.442
30
0.0
0
VERTEX
8
SLAB_00
10
156.781
20
46.288
30
0.0
0
VERTEX
8
SLAB_00
10
154.570
20
50.024
30
0.0
0
VERTEX
8
SLAB_00
10
152.196
20
53.642
30
0.0
0
VERTEX
8
SLAB_00
10
149.666
20
57.134
30
0.0
0
VERTEX
8
SLAB_00
10
146.988
20
60.492
30
0.0
0
VERTEX
8
SLAB_00
10
144.169
20
63.709
30
0.0
0
VERTEX
8
SLAB_00
10
141.219
20
66.780
30
0.0
0
VERTEX
8
SLAB_00
10
138.144
20
69.698
30
0.0
0
VERTEX
8
SLAB_00
10
134.954
20
72.457
30
0.0
0
VERTEX
8
SLAB_00
10
131.659
20
75.054
30
0.0
0
VERTEX
8
SLAB_00
10
128.267
20
77.483
30
0.0
0
VERTEX
8
SLAB_00
10
124.787
20
79.741
30
0.0
0
VERTEX
8
SLAB_00
10
121.230
20
81.825
30
0.0
0
VERTEX
8
SLAB_00
10
117.605
20
83.732
30
0.0
0
VERTEX
8
SLAB_00
10
113.923
20
85.460
30
0.0
0
VERTEX
8
SLAB_00
10
110.191
20
87.008
30
0.0
0
VERTEX
8
SLAB_00
10
106.422
20
88.376
30
0.0
0
VERTEX
8
SLAB_00
10
102.623
20
89.562
30
0.0
0
VERTEX
8
SLAB_00
10
98.806
20
90.568
30
0.0
0
VERTEX
8
SLAB_00
10
94.979
20
91.394
30
0.0
0
VERTEX
8
SLAB_00
10
91.153
20
92.042
30
0.0
0
VERTEX
8
SLAB_00
10
87.335
20
92.514
30
0.0
0
VERTEX
8
SLAB_00
10
83.536
20
92.812
30
0.0
0
VERTEX
8
SLAB_00
10
79.763
20
92.940
30
0.0
0
VERTEX
8
SLAB_00
10
76.026
20
92.902
30
0.0
0
VERTEX
8
SLAB_00
10
72.333
20
92.700
30
0.0
0
VERTEX
8
SLAB_00
10
68.691
20
92.340
30
0.0
0
VERTEX
8
SLAB_00
10
65.108
20
91.827
30
0.0
0
VERTEX
8
SLAB_00
10
61.591
20
91.166
30
0.0
0
VERTEX
8
SLAB_00
10
58.146
20
90.362
30
0.0
0
VERTEX
8
SLAB_00
10
54.781
20
89.422
30
0.0
0
VERTEX
8
SLAB_00
10
51.499
20
88.352
30
0.0
0
VERTEX
8
SLAB_00
10
48.308
20
87.158
30
0.0
0
VERTEX
8
SLAB_00
10
45.211
20
85.847
30
0.0
0
VERTEX
8
SLAB_00
10
42.213
20
84.426
30
0.0
0
VERTEX
8
SLAB_00
10
39.318
20
82.902
30
0.0
0
VERTEX
8
SLAB_00
10
36.529
20
81.283
30
0.0
0
VERTEX
8
SLAB_00
10
33.849
20
79.575
30
0.0
0
VERTEX
8
SLAB_00
10
31.281
20
77.787
30
0.0
0
VERTEX
8
SLAB_00
10
28.825
20
75.925
30
0.0
0
VERTEX
8
SLAB_00
10
26.485
20
73.996
30
0.0
0
VERTEX
8
SLAB_00
10
24.259
20
72.009
30
0.0
0
VERTEX
8
SLAB_00
10
22.149
20
69.971
30
0.0
0
VERTEX
8
SLAB_00
10
20.155
20
67.888
30
0.0
0
VERTEX
8
SLAB_00
10
18.276
20
65.768
30
0.0
0
VERTEX
8
SLAB_00
10
16.510
20
63.617
30
0.0
0
VERTEX
8
SLAB_00
10
14.857
20
61.442
30
0.0
0
VERTEX
8
SLAB_00
10
13.315
20
59.250
30
0.0
0
VERTEX
8
SLAB_00
10
11.881
20
57.046
30
0.0
0
VERTEX
8
SLAB_00
10
10.553
20
54.836
30
0.0
0
VERTEX
8
SLAB_00
10
9.328
20
52.627
30
0.0
0
VERTEX
8
SLAB_00
10
8.202
20
50.423
30
0.0
0
VERTEX
8
SLAB_00
10
7.173
20
48.229
30
0.0
0
VERTEX
8
SLAB_00
10
6.236
20
46.049
30
0.0
0
VERTEX
8
SLAB_00
10
5.386
20
43.888
30
0.0
0
VERTEX
8
SLAB_00
10
4.621
20
41.750
30
0.0
0
VERTEX
8
SLAB_00
10
3.936
20
39.637
30
0.0
0
VERTEX
8
SLAB_00
10
3.325
20
37.554
30
0.0
0
VERTEX
8
SLAB_00
10
2.785
20
35.501
30
0.0
0
VERTEX
8
SLAB_00
10
2.311
20
33.482
30
0.0
0
VERTEX
8
SLAB_00
10
1.897
20
31.498
30
0.0
0
VERTEX
8
SLAB_00
10
1.540
20
29.551
30
0.0
0
VERTEX
8
SLAB_00
10
1.234
20
27.641
30
0.0
0
VERTEX
8
SLAB_00
10
0.975
20
25.769
30
0.0
0
VERTEX
8
SLAB_00
10
0.758
20
23.934
30
0.0
0
VERTEX
8
SLAB_00
10
0.578
20
22.138
30
0.0
0
VERTEX
8
SLAB_00
10
0.432
20
20.378
30
0.0
0
VERTEX
8
SLAB_00
10
0.316
20
18.654
30
0.0
0
VERTEX
8
SLAB_00
10
0.224
20
16.965
30
0.0
0
VERTEX
8
SLAB_00
10
0.154
20
15.308
30
0.0
0
VERTEX
8
SLAB_00
10
0.101
20
13.683
30
0.0
0
VERTEX
8
SLAB_00
10
0.063
20
12.086
30
0.0
0
VERTEX
8
SLAB_00
10
0.037
20
10.516
30
0.0
0
VERTEX
8
SLAB_00
10
0.020
20
8.968
30
0.0
0
VERTEX
8
SLAB_00
10
0.010
20
7.442
30
0.0
0
VERTEX
8
SLAB_00
10
0.004
20
5.932
30
0.0
0
VERTEX
8
SLAB_00
10
0.001
20
4.437
30
0.0
0
VERTEX
8
SLAB_00
10
0.000
20
2.952
30
0.0
0
VERTEX
8
SLAB_00
10
0.000
20
1.474
30
0.0
0
VERTEX
8
SLAB_00
10
0.000
20
0.000
30
0.0
0
VERTEX
8
SLAB_00
10
0.000
20
-1.474
30
0.0
0
VERTEX
8
SLAB_00
10
0.000
20
-2.952
30
0.0
0
VERTEX
8
SLAB_00
10
0.001
20
-4.437
30
0.0
0
VERTEX
8
SLAB_00
10
0.004
20
-5.932
30
0.0
0
VERTEX
8
SLAB_00
10
0.010
20
-7.442
30
0.0
0
VERTEX
8
SLAB_00
10
0.020
20
-8.968
30
0.0
0
VERTEX
8
SLAB_00
10
0.037
20
-10.516
30
0.0
0
VERTEX
8
SLAB_00
10
0.063
20
-12.086
30
0.0
0
VERTEX
8
SLAB_00
10
0.101
20
-13.683
30
0.0
0
VERTEX
8
SLAB_00
10
0.154
20
-15.308
30
0.0
0
VERTEX
8
SLAB_00
10
0.224
20
-16.965
30
0.0
0
VERTEX
8
SLAB_00
10
0.316
20
-18.654
30
0.0
0
VERTEX
8
SLAB_00
10
0.432
20
-20.378
30
0.0
0
VERTEX
8
SLAB_00
10
0.578
20
-22.138
30
0.0
0
VERTEX
8
SLAB_00
10
0.758
20
-23.934
30
0.0
0
VERTEX
8
SLAB_00
10
0.975
20
-25.769
30
0.0
0
VERTEX
8
SLAB_00
10
1.234
20
-27.641
30
0.0
0
VERTEX
8
SLAB_00
10
1.540
20
-29.551
30
0.0
0
VERTEX
8
SLAB_00
10
1.897
20
-31.498
30
0.0
0
VERTEX
8
SLAB_00
10
2.311
20
-33.482
30
0.0
0
VERTEX
8
SLAB_00
10
2.785
20
-35.501
30
0.0
0
VERTEX
8
SLAB_00
10
3.325
20
-37.554
30
0.0
0
VERTEX
8
SLAB_00
10
3.936
20
-39.637
30
0.0
0
VERTEX
8
SLAB_00
10
4.621
20
-41.750
30
0.0
0
VERTEX
8
SLAB_00
10
5.386
20
-43.888
30
0.0
0
VERTEX
8
SLAB_00
10
6.236
20
-46.049
30
0.0
0
VERTEX
8
SLAB_00
10
7.173
20
-48.229
30
0.0
0
VERTEX
8
SLAB_00
10
8.202
20
-50.423
30
0.0
0
VERTEX
8
SLAB_00
10
9.328
20
-52.627
30
0.0
0
VERTEX
8
SLAB_00
10
10.553
20
-54.836
30
0.0
0
VERTEX
8
SLAB_00
10
11.881
20
-57.046
30
0.0
0
VERTEX
8
SLAB_00
10
13.315
20
-59.250
30
0.0
0
VERTEX
8
SLAB_00
10
14.857
20
-61.442
30
0.0
0
VERTEX
8
SLAB_00
10
16.510
20
-63.617
30
0.0
0
VERTEX
8
SLAB_00
10
18.276
20
-65.768
30
0.0
0
VERTEX
8
SLAB_00
10
20.155
20
-67.888
30
0.0
0
VERTEX
8
SLAB_00
10
22.149
20
-69.971
30
0.0
0
VERTEX
8
SLAB_00
10
24.259
20
-72.009
30
0.0
0
VERTEX
8
SLAB_00
10
26.485
20
-73.996
30
0.0
0
VERTEX
8
SLAB_00
10
28.825
20
-75.925
30
0.0
0
VERTEX
8
SLAB_00
10
31.281
20
-77.787
30
0.0
0
VERTEX
8
SLAB_00
10
33.849
20
-79.575
30
0.0
0
VERTEX
8
SLAB_00
10
36.529
20
-81.283
30
0.0
0
VERTEX
8
SLAB_00
10
39.318
20
-82.902
30
0.0
0
VERTEX
8
SLAB_00
10
42.213
20
-84.426
30
0.0
0
VERTEX
8
SLAB_00
10
45.211
20
-85.847
30
0.0
0
VERTEX
8
SLAB_00
10
48.308
20
-87.158
30
0.0
0
VERTEX
8
SLAB_00
10
51.499
20
-88.352
30
0.0
0
VERTEX
8
SLAB_00
10
54.781
20
-89.422
30
0.0
0
VERTEX
8
SLAB_00
10
58.146
20
-90.362
30
0.0
0
VERTEX
8
SLAB_00
10
61.591
20
-91.166
30
0.0
0
VERTEX
8
SLAB_00
10
65.108
20
-91.827
30
0.0
0
VERTEX
8
SLAB_00
10
68.691
20
-92.340
30
0.0
0
VERTEX
8
SLAB_00
10
72.333
20
-92.700
30
0.0
0
VERTEX
8
SLAB_00
10
76.026
20
-92.902
30
0.0
0
VERTEX
8
SLAB_00
10
79.763
20
-92.940
30
0.0
0
VERTEX
8
SLAB_00
10
83.536
20
-92.812
30
0.0
0
VERTEX
8
SLAB_00
10
87.335
20
-92.514
30
0.0
0
VERTEX
8
SLAB_00
10
91.153
20
-92.042
30
0.0
0
VERTEX
8
SLAB_00
10
94.979
20
-91.394
30
0.0
0
VERTEX
8
SLAB_00
10
98.806
20
-90.568
30
0.0
0
VERTEX
8
SLAB_00
10
102.623
20
-89.562
30
0.0
0
VERTEX
8
SLAB_00
10
106.422
20
-88.376
30
0.0
0
VERTEX
8
SLAB_00
10
110.191
20
-87.008
30
0.0
0
VERTEX
8
SLAB_00
10
113.923
20
-85.460
30
0.0
0
VERTEX
8
SLAB_00
10
117.605
20
-83.732
30
0.0
0
VERTEX
8
SLAB_00
10
121.230
20
-81.825
30
0.0
0
VERTEX
8
SLAB_00
10
124.787
20
-79.741
30
0.0
0
VERTEX
8
SLAB_00
10
128.267
20
-77.483
30
0.0
0
VERTEX
8
SLAB_00
10
131.659
20
-75.054
30
0.0
0
VERTEX
8
SLAB_00
10
134.954
20
-72.457
30
0.0
0
VERTEX
8
SLAB_00
10
138.144
20
-69.698
30
0.0
0
VERTEX
8
SLAB_00
10
141.219
20
-66.780
30
0.0
0
VERTEX
8
SLAB_00
10
144.169
20
-63.709
30
0.0
0
VERTEX
8
SLAB_00
10
146.988
20
-60.492
30
0.0
0
VERTEX
8
SLAB_00
10
149.666
20
-57.134
30
0.0
0
VERTEX
8
SLAB_00
10
152.196
20
-53.642
30
0.0
0
VERTEX
8
SLAB_00
10
154.570
20
-50.024
30
0.0
0
VERTEX
8
SLAB_00
10
156.781
20
-46.288
30
0.0
0
VERTEX
8
SLAB_00
10
158.823
20
-42.442
30
0.0
0
VERTEX
8
SLAB_00
10
160.689
20
-38.495
30
0.0
0
VERTEX
8
SLAB_00
10
162.375
20
-34.456
30
0.0
0
VERTEX
8
SLAB_00
10
163.874
20
-30.333
30
0.0
0
VERTEX
8
SLAB_00
10
165.183
20
-26.138
30
0.0
0
VERTEX
8
SLAB_00
10
166.297
20
-21.879
30
0.0
0
VERTEX
8
SLAB_00
10
167.213
20
-17.568
30
0.0
0
VERTEX
8
SLAB_00
10
167.928
20
-13.213
30
0.0
0
VERTEX
8
SLAB_00
10
168.441
20
-8.827
30
0.0
0
VERTEX
8
SLAB_00
10
168.749
20
-4.419
30
0.0
0
SEQEND
8
SLAB_00
0
TEXT
8
TEXT
10
0.000
20
107.940
30
0.0
40
8.0
1
00: s'=-106 D=186
0
CIRCLE
8
DOWEL
10
15.000
20
18.000
30
0.0
40
3.250
0
TEXT
8
DOWEL
10
20.000
20
16.000
30
0.0
40
3.0
1
A
0
CIRCLE
8
DOWEL
10
15.000
20
-18.000
30
0.0
40
3.250
0
TEXT
8
DOWEL
10
20.000
20
-20.000
30
0.0
40
3.0
1
B
0
CIRCLE
8
DOWEL
10
45.000
20
18.000
30
0.0
40
3.250
0
TEXT
8
DOWEL
10
50.000
20
16.000
30
0.0
40
3.0
1
C
0
CIRCLE
8
DOWEL
10
45.000
20
-18.000
30
0.0
40
3.250
0
TEXT
8
DOWEL
10
50.000
20
-20.000
30
0.0
40
3.0
1
D
0
ENDSEC
0
EOF