0
SECTION
2
HEADER
9
$ACADVER
1
AC1009
9
$INSUNITS
70
4
0
ENDSEC
0
SECTION
2
TABLES
0
TABLE
2
LAYER
70
4
0
LAYER
2
0
70
0
62
7
6
CONTINUOUS
0
LAYER
2
TEXT
70
0
62
1
6
CONTINUOUS
0
LAYER
2
DOWEL
70
0
62
5
6
CONTINUOUS
0
LAYER
2
SLAB_00
70
0
62
2
6
CONTINUOUS
0
ENDTAB
0
ENDSEC
0
SECTION
2
ENTITIES
0
POLYLINE
8
SLAB_00
66
1
70
1
10
0.0
20
0.0
30
0.0
0
VERTEX
8
SLAB_00
10
307.277
20
0.000
30
0.0
0
VERTEX
8
SLAB_00
10
307.089
20
8.041
30
0.0
0
VERTEX
8
SLAB_00
10
306.528
20
16.063
30
0.0
0
VERTEX
8
SLAB_00
10
305.596
20
24.045
30
0.0
0
VERTEX
8
SLAB_00
10
304.293
20
31.969
30
0.0
0
VERTEX
8
SLAB_00
10
302.626
20
39.816
30
0.0
0
VERTEX
8
SLAB_00
10
300.598
20
47.566
30
0.0
0
VERTEX
8
SLAB_00
10
298.217
20
55.201
30
0.0
0
VERTEX
8
SLAB_00
10
295.488
20
62.702
30
0.0
0
VERTEX
8
SLAB_00
10
292.421
20
70.053
30
0.0
0
VERTEX
8
SLAB_00
10
289.025
20
77.237
30
0.0
0
VERTEX
8
SLAB_00
10
285.309
20
84.235
30
0.0
0
VERTEX
8
SLAB_00
10
281.285
20
91.034
30
0.0
0
VERTEX
8
SLAB_00
10
276.965
20
97.618
30
0.0
0
VERTEX
8
SLAB_00
10
272.362
20
103.972
30
0.0
0
VERTEX
8
SLAB_00
10
267.488
20
110.083
30
0.0
0
VERTEX
8
SLAB_00
10
262.359
20
115.938
30
0.0
0
VERTEX
8
SLAB_00
10
256.989
20
121.526
30
0.0
0
VERTEX
8
SLAB_00
10
251.394
20
126.836
30
0.0
0
VERTEX
8
SLAB_00
10
245.589
20
131.858
30
0.0
0
VERTEX
8
SLAB_00
10
239.592
20
136.583
30
0.0
0
VERTEX
8
SLAB_00
10
233.419
20
141.003
30
0.0
0
VERTEX
8
SLAB_00
10
227.087
20
145.112
30
0.0
0
VERTEX
8
SLAB_00
10
220.614
20
148.904
30
0.0
0
VERTEX
8
SLAB_00
10
214.018
20
152.375
30
0.0
0
VERTEX
8
SLAB_00
10
207.316
20
155.520
30
0.0
0
VERTEX
8
SLAB_00
10
200.526
20
158.337
30
0.0
0
VERTEX
8
SLAB_00
10
193.666
20
160.826
30
0.0
0
VERTEX
8
SLAB_00
10
186.754
20
162.985
30
0.0
0
VERTEX
8
SLAB_00
10
179.807
20
164.815
30
0.0
0
VERTEX
8
SLAB_00
10
172.843
20
166.318
30
0.0
0
VERTEX
8
SLAB_00
10
165.879
20
167.498
30
0.0
0
VERTEX
8
SLAB_00
10
158.932
20
168.356
30
0.0
0
VERTEX
8
SLAB_00
10
152.018
20
168.899
30
0.0
0
VERTEX
8
SLAB_00
10
145.153
20
169.132
30
0.0
0
VERTEX
8
SLAB_00
10
138.353
20
169.062
30
0.0
0
VERTEX
8
SLAB_00
10
131.632
20
168.695
30
0.0
0
VERTEX
8
SLAB_00
10
125.004
20
168.041
30
0.0
0
VERTEX
8
SLAB_00
10
118.484
20
167.107
30
0.0
0
VERTEX
8
SLAB_00
10
112.083
20
165.903
30
0.0
0
VERTEX
8
SLAB_00
10
105.815
20
164.441
30
0.0
0
VERTEX
8
SLAB_00
10
99.689
20
162.730
30
0.0
0
VERTEX
8
SLAB_00
10
93.718
20
160.782
30
0.0
0
VERTEX
8
SLAB_00
10
87.910
20
158.610
30
0.0
0
VERTEX
8
SLAB_00
10
82.275
20
156.224
30
0.0
0
VERTEX
8
SLAB_00
10
76.819
20
153.638
30
0.0
0
VERTEX
8
SLAB_00
10
71.551
20
150.865
30
0.0
0
VERTEX
8
SLAB_00
10
66.476
20
147.918
30
0.0
0
VERTEX
8
SLAB_00
10
61.599
20
144.811
30
0.0
0
VERTEX
8
SLAB_00
10
56.925
20
141.556
30
0.0
0
VERTEX
8
SLAB_00
10
52.457
20
138.167
30
0.0
0
VERTEX
8
SLAB_00
10
48.197
20
134.658
30
0.0
0
VERTEX
8
SLAB_00
10
44.147
20
131.042
30
0.0
0
VERTEX
8
SLAB_00
10
40.307
20
127.333
30
0.0
0
VERTEX
8
SLAB_00
10
36.678
20
123.542
30
0.0
0
VERTEX
8
SLAB_00
10
33.258
20
119.684
30
0.0
0
VERTEX
8
SLAB_00
10
30.045
20
115.769
30
0.0
0
VERTEX
8
SLAB_00
10
27.037
20
111.812
30
0.0
0
VERTEX
8
SLAB_00
10
24.231
20
107.822
30
0.0
0
VERTEX
8
SLAB_00
10
21.622
20
103.812
30
0.0
0
VERTEX
8
SLAB_00
10
19.205
20
99.791
30
0.0
0
VERTEX
8
SLAB_00
10
16.975
20
95.770
30
0.0
0
VERTEX
8
SLAB_00
10
14.927
20
91.759
30
0.0
0
VERTEX
8
SLAB_00
10
13.053
20
87.766
30
0.0
0
VERTEX
8
SLAB_00
10
11.347
20
83.800
30
0.0
0
VERTEX
8
SLAB_00
10
9.802
20
79.868
30
0.0
0
VERTEX
8
SLAB_00
10
8.410
20
75.976
30
0.0
0
VERTEX
8
SLAB_00
10
7.162
20
72.132
30
0.0
0
VERTEX
8
SLAB_00
10
6.051
20
68.340
30
0.0
0
VERTEX
8
SLAB_00
10
5.068
20
64.605
30
0.0
0
VERTEX
8
SLAB_00
10
4.205
20
60.931
30
0.0
0
VERTEX
8
SLAB_00
10
3.452
20
57.321
30
0.0
0
VERTEX
8
SLAB_00
10
2.802
20
53.777
30
0.0
0
VERTEX
8
SLAB_00
10
2.245
20
50.301
30
0.0
0
VERTEX
8
SLAB_00
10
1.774
20
46.894
30
0.0
0
VERTEX
8
SLAB_00
10
1.379
20
43.555
30
0.0
0
VERTEX
8
SLAB_00
10
1.053
20
40.286
30
0.0
0
VERTEX
8
SLAB_00
10
0.787
20
37.083
30
0.0
0
VERTEX
8
SLAB_00
10
0.574
20
33.946
30
0.0
0
VERTEX
8
SLAB_00
10
0.407
20
30.872
30
0.0
0
VERTEX
8
SLAB_00
10
0.279
20
27.858
30
0.0
0
VERTEX
8
SLAB_00
10
0.184
20
24.900
30
0.0
0
VERTEX
8
SLAB_00
10
0.115
20
21.994
30
0.0
0
VERTEX
8
SLAB_00
10
0.068
20
19.136
30
0.0
0
VERTEX
8
SLAB_00
10
0.037
20
16.321
30
0.0
0
VERTEX
8
SLAB_00
10
0.018
20
13.542
30
0.0
0
VERTEX
8
SLAB_00
10
0.007
20
10.795
30
0.0
0
VERTEX
8
SLAB_00
10
0.002
20
8.074
30
0.0
0
VERTEX
8
SLAB_00
10
0.000
20
5.372
30
0.0
0
VERTEX
8
SLAB_00
10
0.000
20
2.683
30
0.0
0
VERTEX
8
SLAB_00
10
0.000
20
0.000
30
0.0
0
VERTEX
8
SLAB_00
10
0.000
20
-2.683
30
0.0
0
VERTEX
8
SLAB_00
10
0.000
20
-5.372
30
0.0
0
VERTEX
8
SLAB_00
10
0.002
20
-8.074
30
0.0
0
VERTEX
8
SLAB_00
10
0.007
20
-10.795
30
0.0
0
VERTEX
8
SLAB_00
10
0.018
20
-13.542
30
0.0
0
VERTEX
8
SLAB_00
10
0.037
20
-16.321
30
0.0
0
VERTEX
8
SLAB_00
10
0.068
20
-19.136
30
0.0
0
VERTEX
8
SLAB_00
10
0.115
20
-21.994
30
0.0
0
VERTEX
8
SLAB_00
10
0.184
20
-24.900
30
0.0
0
VERTEX
8
SLAB_00
10
0.279
20
-27.858
30
0.0
0
VERTEX
8
SLAB_00
10
0.407
20
-30.872
30
0.0
0
VERTEX
8
SLAB_00
10
0.574
20
-33.946
30
0.0
0
VERTEX
8
SLAB_00
10
0.787
20
-37.083
30
0.0
0
VERTEX
8
SLAB_00
10
1.053
20
-40.286
30
0.0
0
VERTEX
8
SLAB_00
10
1.379
20
-43.555
30
0.0
0
VERTEX
8
SLAB_00
10
1.774
20
-46.894
30
0.0
0
VERTEX
8
SLAB_00
10
2.245
20
-50.301
30
0.0
0
VERTEX
8
SLAB_00
10
2.802
20
-53.777
30
0.0
0
VERTEX
8
SLAB_00
10
3.452
20
-57.321
30
0.0
0
VERTEX
8
SLAB_00
10
4.205
20
-60.931
30
0.0
0
VERTEX
8
SLAB_00
10
5.068
20
-64.605
30
0.0
0
VERTEX
8
SLAB_00
10
6.051
20
-68.340
30
0.0
0
VERTEX
8
SLAB_00
10
7.162
20
-72.132
30
0.0
0
VERTEX
8
SLAB_00
10
8.410
20
-75.976
30
0.0
0
VERTEX
8
SLAB_00
10
9.802
20
-79.868
30
0.0
0
VERTEX
8
SLAB_00
10
11.347
20
-83.800
30
0.0
0
VERTEX
8
SLAB_00
10
13.053
20
-87.766
30
0.0
0
VERTEX
8
SLAB_00
10
14.927
20
-91.759
30
0.0
0
VERTEX
8
SLAB_00
10
16.975
20
-95.770
30
0.0
0
VERTEX
8
SLAB_00
10
19.205
20
-99.791
30
0.0
0
VERTEX
8
SLAB_00
10
21.622
20
-103.812
30
0.0
0
VERTEX
8
SLAB_00
10
24.231
20
-107.822
30
0.0
0
VERTEX
8
SLAB_00
10
27.037
20
-111.812
30
0.0
0
VERTEX
8
SLAB_00
10
30.045
20
-115.769
30
0.0
0
VERTEX
8
SLAB_00
10
33.258
20
-119.684
30
0.0
0
VERTEX
8
SLAB_00
10
36.678
20
-123.542
30
0.0
0
VERTEX
8
SLAB_00
10
40.307
20
-127.333
30
0.0
0
VERTEX
8
SLAB_00
10
44.147
20
-131.042
30
0.0
0
VERTEX
8
SLAB_00
10
48.197
20
-134.658
30
0.0
0
VERTEX
8
SLAB_00
10
52.457
20
-138.167
30
0.0
0
VERTEX
8
SLAB_00
10
56.925
20
-141.556
30
0.0
0
VERTEX
8
SLAB_00
10
61.599
20
-144.811
30
0.0
0
VERTEX
8
SLAB_00
10
66.476
20
-147.918
30
0.0
0
VERTEX
8
SLAB_00
10
71.551
20
-150.865
30
0.0
0
VERTEX
8
SLAB_00
10
76.819
20
-153.638
30
0.0
0
VERTEX
8
SLAB_00
10
82.275
20
-156.224
30
0.0
0
VERTEX
8
SLAB_00
10
87.910
20
-158.610
30
0.0
0
VERTEX
8
SLAB_00
10
93.718
20
-160.782
30
0.0
0
VERTEX
8
SLAB_00
10
99.689
20
-162.730
30
0.0
0
VERTEX
8
SLAB_00
10
105.815
20
-164.441
30
0.0
0
VERTEX
8
SLAB_00
10
112.083
20
-165.903
30
0.0
0
VERTEX
8
SLAB_00
10
118.484
20
-167.107
30
0.0
0
VERTEX
8
SLAB_00
10
125.004
20
-168.041
30
0.0
0
VERTEX
8
SLAB_00
10
131.632
20
-168.695
30
0.0
0
VERTEX
8
SLAB_00
10
138.353
20
-169.062
30
0.0
0
VERTEX
8
SLAB_00
10
145.153
20
-169.132
30
0.0
0
VERTEX
8
SLAB_00
10
152.018
20
-168.899
30
0.0
0
VERTEX
8
SLAB_00
10
158.932
20
-168.356
30
0.0
0
VERTEX
8
SLAB_00
10
165.879
20
-167.498
30
0.0
0
VERTEX
8
SLAB_00
10
172.843
20
-166.318
30
0.0
0
VERTEX
8
SLAB_00
10
179.807
20
-164.815
30
0.0
0
VERTEX
8
SLAB_00
10
186.754
20
-162.985
30
0.0
0
VERTEX
8
SLAB_00
10
193.666
20
-160.826
30
0.0
0
VERTEX
8
SLAB_00
10
200.526
20
-158.337
30
0.0
0
VERTEX
8
SLAB_00
10
207.316
20
-155.520
30
0.0
0
VERTEX
8
SLAB_00
10
214.018
20
-152.375
30
0.0
0
VERTEX
8
SLAB_00
10
220.614
20
-148.904
30
0.0
0
VERTEX
8
SLAB_00
10
227.087
20
-145.112
30
0.0
0
VERTEX
8
SLAB_00
10
233.419
20
-141.003
30
0.0
0
VERTEX
8
SLAB_00
10
239.592
20
-136.583
30
0.0
0
VERTEX
8
SLAB_00
10
245.589
20
-131.858
30
0.0
0
VERTEX
8
SLAB_00
10
251.394
20
-126.836
30
0.0
0
VERTEX
8
SLAB_00
10
256.989
20
-121.526
30
0.0
0
VERTEX
8
SLAB_00
10
262.359
20
-115.938
30
0.0
0
VERTEX
8
SLAB_00
10
267.488
20
-110.083
30
0.0
0
VERTEX
8
SLAB_00
10
272.362
20
-103.972
30
0.0
0
VERTEX
8
SLAB_00
10
276.965
20
-97.618
30
0.0
0
VERTEX
8
SLAB_00
10
281.285
20
-91.034
30
0.0
0
VERTEX
8
SLAB_00
10
285.309
20
-84.235
30
0.0
0
VERTEX
8
SLAB_00
10
289.025
20
-77.237
30
0.0
0
VERTEX
8
SLAB_00
10
292.421
20
-70.053
30
0.0
0
VERTEX
8
SLAB_00
10
295.488
20
-62.702
30
0.0
0
VERTEX
8
SLAB_00
10
298.217
20
-55.201
30
0.0
0
VERTEX
8
SLAB_00
10
300.598
20
-47.566
30
0.0
0
VERTEX
8
SLAB_00
10
302.626
20
-39.816
30
0.0
0
VERTEX
8
SLAB_00
10
304.293
20
-31.969
30
0.0
0
VERTEX
8
SLAB_00
10
305.596
20
-24.045
30
0.0
0
VERTEX
8
SLAB_00
10
306.528
20
-16.063
30
0.0
0
VERTEX
8
SLAB_00
10
307.089
20
-8.041
30
0.0
0
SEQEND
8
SLAB_00
0
TEXT
8
TEXT
10
0.000
20
184.132
30
0.0
40
8.0
1
35: s'=+757 D=338
0
CIRCLE
8
DOWEL
10
15.000
20
18.000
30
0.0
40
3.250
0
TEXT
8
DOWEL
10
20.000
20
16.000
30
0.0
40
3.0
1
A
0
CIRCLE
8
DOWEL
10
15.000
20
-18.000
30
0.0
40
3.250
0
TEXT
8
DOWEL
10
20.000
20
-20.000
30
0.0
40
3.0
1
B
0
CIRCLE
8
DOWEL
10
45.000
20
18.000
30
0.0
40
3.250
0
TEXT
8
DOWEL
10
50.000
20
16.000
30
0.0
40
3.0
1
C
0
CIRCLE
8
DOWEL
10
45.000
20
-18.000
30
0.0
40
3.250
0
TEXT
8
DOWEL
10
50.000
20
-20.000
30
0.0
40
3.0
1
D
0
ENDSEC
0
EOF