0
SECTION
2
HEADER
9
$ACADVER
1
AC1009
9
$INSUNITS
70
4
0
ENDSEC
0
SECTION
2
TABLES
0
TABLE
2
LAYER
70
4
0
LAYER
2
0
70
0
62
7
6
CONTINUOUS
0
LAYER
2
TEXT
70
0
62
1
6
CONTINUOUS
0
LAYER
2
DOWEL
70
0
62
5
6
CONTINUOUS
0
LAYER
2
SLAB_00
70
0
62
2
6
CONTINUOUS
0
ENDTAB
0
ENDSEC
0
SECTION
2
ENTITIES
0
POLYLINE
8
SLAB_00
66
1
70
1
10
0.0
20
0.0
30
0.0
0
VERTEX
8
SLAB_00
10
322.445
20
0.000
30
0.0
0
VERTEX
8
SLAB_00
10
322.249
20
8.438
30
0.0
0
VERTEX
8
SLAB_00
10
321.660
20
16.856
30
0.0
0
VERTEX
8
SLAB_00
10
320.681
20
25.232
30
0.0
0
VERTEX
8
SLAB_00
10
319.315
20
33.548
30
0.0
0
VERTEX
8
SLAB_00
10
317.565
20
41.781
30
0.0
0
VERTEX
8
SLAB_00
10
315.438
20
49.914
30
0.0
0
VERTEX
8
SLAB_00
10
312.939
20
57.926
30
0.0
0
VERTEX
8
SLAB_00
10
310.075
20
65.798
30
0.0
0
VERTEX
8
SLAB_00
10
306.857
20
73.512
30
0.0
0
VERTEX
8
SLAB_00
10
303.293
20
81.049
30
0.0
0
VERTEX
8
SLAB_00
10
299.394
20
88.394
30
0.0
0
VERTEX
8
SLAB_00
10
295.171
20
95.528
30
0.0
0
VERTEX
8
SLAB_00
10
290.638
20
102.437
30
0.0
0
VERTEX
8
SLAB_00
10
285.807
20
109.104
30
0.0
0
VERTEX
8
SLAB_00
10
280.693
20
115.517
30
0.0
0
VERTEX
8
SLAB_00
10
275.310
20
121.662
30
0.0
0
VERTEX
8
SLAB_00
10
269.675
20
127.525
30
0.0
0
VERTEX
8
SLAB_00
10
263.804
20
133.097
30
0.0
0
VERTEX
8
SLAB_00
10
257.713
20
138.367
30
0.0
0
VERTEX
8
SLAB_00
10
251.420
20
143.325
30
0.0
0
VERTEX
8
SLAB_00
10
244.942
20
147.964
30
0.0
0
VERTEX
8
SLAB_00
10
238.298
20
152.276
30
0.0
0
VERTEX
8
SLAB_00
10
231.505
20
156.255
30
0.0
0
VERTEX
8
SLAB_00
10
224.583
20
159.897
30
0.0
0
VERTEX
8
SLAB_00
10
217.550
20
163.197
30
0.0
0
VERTEX
8
SLAB_00
10
210.425
20
166.154
30
0.0
0
VERTEX
8
SLAB_00
10
203.226
20
168.765
30
0.0
0
VERTEX
8
SLAB_00
10
195.973
20
171.030
30
0.0
0
VERTEX
8
SLAB_00
10
188.683
20
172.951
30
0.0
0
VERTEX
8
SLAB_00
10
181.376
20
174.529
30
0.0
0
VERTEX
8
SLAB_00
10
174.068
20
175.766
30
0.0
0
VERTEX
8
SLAB_00
10
166.778
20
176.667
30
0.0
0
VERTEX
8
SLAB_00
10
159.522
20
177.237
30
0.0
0
VERTEX
8
SLAB_00
10
152.319
20
177.482
30
0.0
0
VERTEX
8
SLAB_00
10
145.183
20
177.408
30
0.0
0
VERTEX
8
SLAB_00
10
138.130
20
177.023
30
0.0
0
VERTEX
8
SLAB_00
10
131.175
20
176.336
30
0.0
0
VERTEX
8
SLAB_00
10
124.333
20
175.356
30
0.0
0
VERTEX
8
SLAB_00
10
117.616
20
174.093
30
0.0
0
VERTEX
8
SLAB_00
10
111.038
20
172.559
30
0.0
0
VERTEX
8
SLAB_00
10
104.611
20
170.763
30
0.0
0
VERTEX
8
SLAB_00
10
98.344
20
168.720
30
0.0
0
VERTEX
8
SLAB_00
10
92.250
20
166.439
30
0.0
0
VERTEX
8
SLAB_00
10
86.336
20
163.936
30
0.0
0
VERTEX
8
SLAB_00
10
80.611
20
161.223
30
0.0
0
VERTEX
8
SLAB_00
10
75.083
20
158.313
30
0.0
0
VERTEX
8
SLAB_00
10
69.757
20
155.221
30
0.0
0
VERTEX
8
SLAB_00
10
64.640
20
151.959
30
0.0
0
VERTEX
8
SLAB_00
10
59.735
20
148.544
30
0.0
0
VERTEX
8
SLAB_00
10
55.046
20
144.988
30
0.0
0
VERTEX
8
SLAB_00
10
50.576
20
141.306
30
0.0
0
VERTEX
8
SLAB_00
10
46.326
20
137.511
30
0.0
0
VERTEX
8
SLAB_00
10
42.297
20
133.618
30
0.0
0
VERTEX
8
SLAB_00
10
38.488
20
129.641
30
0.0
0
VERTEX
8
SLAB_00
10
34.900
20
125.592
30
0.0
0
VERTEX
8
SLAB_00
10
31.528
20
121.484
30
0.0
0
VERTEX
8
SLAB_00
10
28.372
20
117.331
30
0.0
0
VERTEX
8
SLAB_00
10
25.427
20
113.145
30
0.0
0
VERTEX
8
SLAB_00
10
22.689
20
108.936
30
0.0
0
VERTEX
8
SLAB_00
10
20.153
20
104.717
30
0.0
0
VERTEX
8
SLAB_00
10
17.813
20
100.498
30
0.0
0
VERTEX
8
SLAB_00
10
15.664
20
96.289
30
0.0
0
VERTEX
8
SLAB_00
10
13.698
20
92.099
30
0.0
0
VERTEX
8
SLAB_00
10
11.908
20
87.937
30
0.0
0
VERTEX
8
SLAB_00
10
10.286
20
83.810
30
0.0
0
VERTEX
8
SLAB_00
10
8.825
20
79.727
30
0.0
0
VERTEX
8
SLAB_00
10
7.516
20
75.693
30
0.0
0
VERTEX
8
SLAB_00
10
6.350
20
71.714
30
0.0
0
VERTEX
8
SLAB_00
10
5.318
20
67.794
30
0.0
0
VERTEX
8
SLAB_00
10
4.412
20
63.939
30
0.0
0
VERTEX
8
SLAB_00
10
3.623
20
60.150
30
0.0
0
VERTEX
8
SLAB_00
10
2.940
20
56.431
30
0.0
0
VERTEX
8
SLAB_00
10
2.356
20
52.784
30
0.0
0
VERTEX
8
SLAB_00
10
1.861
20
49.209
30
0.0
0
VERTEX
8
SLAB_00
10
1.447
20
45.706
30
0.0
0
VERTEX
8
SLAB_00
10
1.104
20
42.275
30
0.0
0
VERTEX
8
SLAB_00
10
0.826
20
38.914
30
0.0
0
VERTEX
8
SLAB_00
10
0.603
20
35.622
30
0.0
0
VERTEX
8
SLAB_00
10
0.427
20
32.396
30
0.0
0
VERTEX
8
SLAB_00
10
0.293
20
29.233
30
0.0
0
VERTEX
8
SLAB_00
10
0.193
20
26.129
30
0.0
0
VERTEX
8
SLAB_00
10
0.121
20
23.080
30
0.0
0
VERTEX
8
SLAB_00
10
0.071
20
20.081
30
0.0
0
VERTEX
8
SLAB_00
10
0.038
20
17.126
30
0.0
0
VERTEX
8
SLAB_00
10
0.019
20
14.211
30
0.0
0
VERTEX
8
SLAB_00
10
0.008
20
11.328
30
0.0
0
VERTEX
8
SLAB_00
10
0.002
20
8.472
30
0.0
0
VERTEX
8
SLAB_00
10
0.000
20
5.637
30
0.0
0
VERTEX
8
SLAB_00
10
0.000
20
2.815
30
0.0
0
VERTEX
8
SLAB_00
10
0.000
20
0.000
30
0.0
0
VERTEX
8
SLAB_00
10
0.000
20
-2.815
30
0.0
0
VERTEX
8
SLAB_00
10
0.000
20
-5.637
30
0.0
0
VERTEX
8
SLAB_00
10
0.002
20
-8.472
30
0.0
0
VERTEX
8
SLAB_00
10
0.008
20
-11.328
30
0.0
0
VERTEX
8
SLAB_00
10
0.019
20
-14.211
30
0.0
0
VERTEX
8
SLAB_00
10
0.038
20
-17.126
30
0.0
0
VERTEX
8
SLAB_00
10
0.071
20
-20.081
30
0.0
0
VERTEX
8
SLAB_00
10
0.121
20
-23.080
30
0.0
0
VERTEX
8
SLAB_00
10
0.193
20
-26.129
30
0.0
0
VERTEX
8
SLAB_00
10
0.293
20
-29.233
30
0.0
0
VERTEX
8
SLAB_00
10
0.427
20
-32.396
30
0.0
0
VERTEX
8
SLAB_00
10
0.603
20
-35.622
30
0.0
0
VERTEX
8
SLAB_00
10
0.826
20
-38.914
30
0.0
0
VERTEX
8
SLAB_00
10
1.104
20
-42.275
30
0.0
0
VERTEX
8
SLAB_00
10
1.447
20
-45.706
30
0.0
0
VERTEX
8
SLAB_00
10
1.861
20
-49.209
30
0.0
0
VERTEX
8
SLAB_00
10
2.356
20
-52.784
30
0.0
0
VERTEX
8
SLAB_00
10
2.940
20
-56.431
30
0.0
0
VERTEX
8
SLAB_00
10
3.623
20
-60.150
30
0.0
0
VERTEX
8
SLAB_00
10
4.412
20
-63.939
30
0.0
0
VERTEX
8
SLAB_00
10
5.318
20
-67.794
30
0.0
0
VERTEX
8
SLAB_00
10
6.350
20
-71.714
30
0.0
0
VERTEX
8
SLAB_00
10
7.516
20
-75.693
30
0.0
0
VERTEX
8
SLAB_00
10
8.825
20
-79.727
30
0.0
0
VERTEX
8
SLAB_00
10
10.286
20
-83.810
30
0.0
0
VERTEX
8
SLAB_00
10
11.908
20
-87.937
30
0.0
0
VERTEX
8
SLAB_00
10
13.698
20
-92.099
30
0.0
0
VERTEX
8
SLAB_00
10
15.664
20
-96.289
30
0.0
0
VERTEX
8
SLAB_00
10
17.813
20
-100.498
30
0.0
0
VERTEX
8
SLAB_00
10
20.153
20
-104.717
30
0.0
0
VERTEX
8
SLAB_00
10
22.689
20
-108.936
30
0.0
0
VERTEX
8
SLAB_00
10
25.427
20
-113.145
30
0.0
0
VERTEX
8
SLAB_00
10
28.372
20
-117.331
30
0.0
0
VERTEX
8
SLAB_00
10
31.528
20
-121.484
30
0.0
0
VERTEX
8
SLAB_00
10
34.900
20
-125.592
30
0.0
0
VERTEX
8
SLAB_00
10
38.488
20
-129.641
30
0.0
0
VERTEX
8
SLAB_00
10
42.297
20
-133.618
30
0.0
0
VERTEX
8
SLAB_00
10
46.326
20
-137.511
30
0.0
0
VERTEX
8
SLAB_00
10
50.576
20
-141.306
30
0.0
0
VERTEX
8
SLAB_00
10
55.046
20
-144.988
30
0.0
0
VERTEX
8
SLAB_00
10
59.735
20
-148.544
30
0.0
0
VERTEX
8
SLAB_00
10
64.640
20
-151.959
30
0.0
0
VERTEX
8
SLAB_00
10
69.757
20
-155.221
30
0.0
0
VERTEX
8
SLAB_00
10
75.083
20
-158.313
30
0.0
0
VERTEX
8
SLAB_00
10
80.611
20
-161.223
30
0.0
0
VERTEX
8
SLAB_00
10
86.336
20
-163.936
30
0.0
0
VERTEX
8
SLAB_00
10
92.250
20
-166.439
30
0.0
0
VERTEX
8
SLAB_00
10
98.344
20
-168.720
30
0.0
0
VERTEX
8
SLAB_00
10
104.611
20
-170.763
30
0.0
0
VERTEX
8
SLAB_00
10
111.038
20
-172.559
30
0.0
0
VERTEX
8
SLAB_00
10
117.616
20
-174.093
30
0.0
0
VERTEX
8
SLAB_00
10
124.333
20
-175.356
30
0.0
0
VERTEX
8
SLAB_00
10
131.175
20
-176.336
30
0.0
0
VERTEX
8
SLAB_00
10
138.130
20
-177.023
30
0.0
0
VERTEX
8
SLAB_00
10
145.183
20
-177.408
30
0.0
0
VERTEX
8
SLAB_00
10
152.319
20
-177.482
30
0.0
0
VERTEX
8
SLAB_00
10
159.522
20
-177.237
30
0.0
0
VERTEX
8
SLAB_00
10
166.778
20
-176.667
30
0.0
0
VERTEX
8
SLAB_00
10
174.068
20
-175.766
30
0.0
0
VERTEX
8
SLAB_00
10
181.376
20
-174.529
30
0.0
0
VERTEX
8
SLAB_00
10
188.683
20
-172.951
30
0.0
0
VERTEX
8
SLAB_00
10
195.973
20
-171.030
30
0.0
0
VERTEX
8
SLAB_00
10
203.226
20
-168.765
30
0.0
0
VERTEX
8
SLAB_00
10
210.425
20
-166.154
30
0.0
0
VERTEX
8
SLAB_00
10
217.550
20
-163.197
30
0.0
0
VERTEX
8
SLAB_00
10
224.583
20
-159.897
30
0.0
0
VERTEX
8
SLAB_00
10
231.505
20
-156.255
30
0.0
0
VERTEX
8
SLAB_00
10
238.298
20
-152.276
30
0.0
0
VERTEX
8
SLAB_00
10
244.942
20
-147.964
30
0.0
0
VERTEX
8
SLAB_00
10
251.420
20
-143.325
30
0.0
0
VERTEX
8
SLAB_00
10
257.713
20
-138.367
30
0.0
0
VERTEX
8
SLAB_00
10
263.804
20
-133.097
30
0.0
0
VERTEX
8
SLAB_00
10
269.675
20
-127.525
30
0.0
0
VERTEX
8
SLAB_00
10
275.310
20
-121.662
30
0.0
0
VERTEX
8
SLAB_00
10
280.693
20
-115.517
30
0.0
0
VERTEX
8
SLAB_00
10
285.807
20
-109.104
30
0.0
0
VERTEX
8
SLAB_00
10
290.638
20
-102.437
30
0.0
0
VERTEX
8
SLAB_00
10
295.171
20
-95.528
30
0.0
0
VERTEX
8
SLAB_00
10
299.394
20
-88.394
30
0.0
0
VERTEX
8
SLAB_00
10
303.293
20
-81.049
30
0.0
0
VERTEX
8
SLAB_00
10
306.857
20
-73.512
30
0.0
0
VERTEX
8
SLAB_00
10
310.075
20
-65.798
30
0.0
0
VERTEX
8
SLAB_00
10
312.939
20
-57.926
30
0.0
0
VERTEX
8
SLAB_00
10
315.438
20
-49.914
30
0.0
0
VERTEX
8
SLAB_00
10
317.565
20
-41.781
30
0.0
0
VERTEX
8
SLAB_00
10
319.315
20
-33.548
30
0.0
0
VERTEX
8
SLAB_00
10
320.681
20
-25.232
30
0.0
0
VERTEX
8
SLAB_00
10
321.660
20
-16.856
30
0.0
0
VERTEX
8
SLAB_00
10
322.249
20
-8.438
30
0.0
0
SEQEND
8
SLAB_00
0
TEXT
8
TEXT
10
0.000
20
192.482
30
0.0
40
8.0
1
21: s'=+427 D=355
0
CIRCLE
8
DOWEL
10
15.000
20
18.000
30
0.0
40
3.250
0
TEXT
8
DOWEL
10
20.000
20
16.000
30
0.0
40
3.0
1
A
0
CIRCLE
8
DOWEL
10
15.000
20
-18.000
30
0.0
40
3.250
0
TEXT
8
DOWEL
10
20.000
20
-20.000
30
0.0
40
3.0
1
B
0
CIRCLE
8
DOWEL
10
45.000
20
18.000
30
0.0
40
3.250
0
TEXT
8
DOWEL
10
50.000
20
16.000
30
0.0
40
3.0
1
C
0
CIRCLE
8
DOWEL
10
45.000
20
-18.000
30
0.0
40
3.250
0
TEXT
8
DOWEL
10
50.000
20
-20.000
30
0.0
40
3.0
1
D
0
ENDSEC
0
EOF