0
SECTION
2
HEADER
9
$ACADVER
1
AC1009
9
$INSUNITS
70
4
0
ENDSEC
0
SECTION
2
TABLES
0
TABLE
2
LAYER
70
4
0
LAYER
2
0
70
0
62
7
6
CONTINUOUS
0
LAYER
2
TEXT
70
0
62
1
6
CONTINUOUS
0
LAYER
2
DOWEL
70
0
62
5
6
CONTINUOUS
0
LAYER
2
SLAB_00
70
0
62
2
6
CONTINUOUS
0
ENDTAB
0
ENDSEC
0
SECTION
2
ENTITIES
0
POLYLINE
8
SLAB_00
66
1
70
1
10
0.0
20
0.0
30
0.0
0
VERTEX
8
SLAB_00
10
297.681
20
0.000
30
0.0
0
VERTEX
8
SLAB_00
10
297.499
20
7.790
30
0.0
0
VERTEX
8
SLAB_00
10
296.956
20
15.561
30
0.0
0
VERTEX
8
SLAB_00
10
296.052
20
23.294
30
0.0
0
VERTEX
8
SLAB_00
10
294.791
20
30.971
30
0.0
0
VERTEX
8
SLAB_00
10
293.175
20
38.572
30
0.0
0
VERTEX
8
SLAB_00
10
291.211
20
46.080
30
0.0
0
VERTEX
8
SLAB_00
10
288.904
20
53.477
30
0.0
0
VERTEX
8
SLAB_00
10
286.261
20
60.744
30
0.0
0
VERTEX
8
SLAB_00
10
283.289
20
67.866
30
0.0
0
VERTEX
8
SLAB_00
10
279.999
20
74.825
30
0.0
0
VERTEX
8
SLAB_00
10
276.399
20
81.605
30
0.0
0
VERTEX
8
SLAB_00
10
272.501
20
88.191
30
0.0
0
VERTEX
8
SLAB_00
10
268.316
20
94.569
30
0.0
0
VERTEX
8
SLAB_00
10
263.856
20
100.725
30
0.0
0
VERTEX
8
SLAB_00
10
259.135
20
106.645
30
0.0
0
VERTEX
8
SLAB_00
10
254.166
20
112.318
30
0.0
0
VERTEX
8
SLAB_00
10
248.964
20
117.731
30
0.0
0
VERTEX
8
SLAB_00
10
243.543
20
122.875
30
0.0
0
VERTEX
8
SLAB_00
10
237.920
20
127.740
30
0.0
0
VERTEX
8
SLAB_00
10
232.110
20
132.317
30
0.0
0
VERTEX
8
SLAB_00
10
226.130
20
136.600
30
0.0
0
VERTEX
8
SLAB_00
10
219.996
20
140.581
30
0.0
0
VERTEX
8
SLAB_00
10
213.725
20
144.254
30
0.0
0
VERTEX
8
SLAB_00
10
207.334
20
147.616
30
0.0
0
VERTEX
8
SLAB_00
10
200.842
20
150.663
30
0.0
0
VERTEX
8
SLAB_00
10
194.264
20
153.393
30
0.0
0
VERTEX
8
SLAB_00
10
187.618
20
155.803
30
0.0
0
VERTEX
8
SLAB_00
10
180.922
20
157.895
30
0.0
0
VERTEX
8
SLAB_00
10
174.192
20
159.668
30
0.0
0
VERTEX
8
SLAB_00
10
167.445
20
161.124
30
0.0
0
VERTEX
8
SLAB_00
10
160.699
20
162.267
30
0.0
0
VERTEX
8
SLAB_00
10
153.969
20
163.099
30
0.0
0
VERTEX
8
SLAB_00
10
147.271
20
163.625
30
0.0
0
VERTEX
8
SLAB_00
10
140.620
20
163.851
30
0.0
0
VERTEX
8
SLAB_00
10
134.032
20
163.782
30
0.0
0
VERTEX
8
SLAB_00
10
127.521
20
163.427
30
0.0
0
VERTEX
8
SLAB_00
10
121.100
20
162.793
30
0.0
0
VERTEX
8
SLAB_00
10
114.783
20
161.888
30
0.0
0
VERTEX
8
SLAB_00
10
108.583
20
160.723
30
0.0
0
VERTEX
8
SLAB_00
10
102.510
20
159.306
30
0.0
0
VERTEX
8
SLAB_00
10
96.576
20
157.648
30
0.0
0
VERTEX
8
SLAB_00
10
90.791
20
155.761
30
0.0
0
VERTEX
8
SLAB_00
10
85.165
20
153.656
30
0.0
0
VERTEX
8
SLAB_00
10
79.705
20
151.345
30
0.0
0
VERTEX
8
SLAB_00
10
74.420
20
148.840
30
0.0
0
VERTEX
8
SLAB_00
10
69.316
20
146.154
30
0.0
0
VERTEX
8
SLAB_00
10
64.400
20
143.299
30
0.0
0
VERTEX
8
SLAB_00
10
59.675
20
140.289
30
0.0
0
VERTEX
8
SLAB_00
10
55.147
20
137.135
30
0.0
0
VERTEX
8
SLAB_00
10
50.818
20
133.853
30
0.0
0
VERTEX
8
SLAB_00
10
46.692
20
130.453
30
0.0
0
VERTEX
8
SLAB_00
10
42.768
20
126.950
30
0.0
0
VERTEX
8
SLAB_00
10
39.048
20
123.356
30
0.0
0
VERTEX
8
SLAB_00
10
35.532
20
119.684
30
0.0
0
VERTEX
8
SLAB_00
10
32.219
20
115.946
30
0.0
0
VERTEX
8
SLAB_00
10
29.107
20
112.154
30
0.0
0
VERTEX
8
SLAB_00
10
26.193
20
108.320
30
0.0
0
VERTEX
8
SLAB_00
10
23.474
20
104.455
30
0.0
0
VERTEX
8
SLAB_00
10
20.946
20
100.570
30
0.0
0
VERTEX
8
SLAB_00
10
18.605
20
96.675
30
0.0
0
VERTEX
8
SLAB_00
10
16.445
20
92.780
30
0.0
0
VERTEX
8
SLAB_00
10
14.461
20
88.894
30
0.0
0
VERTEX
8
SLAB_00
10
12.646
20
85.025
30
0.0
0
VERTEX
8
SLAB_00
10
10.993
20
81.183
30
0.0
0
VERTEX
8
SLAB_00
10
9.496
20
77.374
30
0.0
0
VERTEX
8
SLAB_00
10
8.147
20
73.604
30
0.0
0
VERTEX
8
SLAB_00
10
6.938
20
69.879
30
0.0
0
VERTEX
8
SLAB_00
10
5.862
20
66.206
30
0.0
0
VERTEX
8
SLAB_00
10
4.910
20
62.587
30
0.0
0
VERTEX
8
SLAB_00
10
4.073
20
59.028
30
0.0
0
VERTEX
8
SLAB_00
10
3.344
20
55.530
30
0.0
0
VERTEX
8
SLAB_00
10
2.714
20
52.097
30
0.0
0
VERTEX
8
SLAB_00
10
2.175
20
48.730
30
0.0
0
VERTEX
8
SLAB_00
10
1.718
20
45.429
30
0.0
0
VERTEX
8
SLAB_00
10
1.336
20
42.195
30
0.0
0
VERTEX
8
SLAB_00
10
1.020
20
39.028
30
0.0
0
VERTEX
8
SLAB_00
10
0.762
20
35.925
30
0.0
0
VERTEX
8
SLAB_00
10
0.556
20
32.886
30
0.0
0
VERTEX
8
SLAB_00
10
0.395
20
29.908
30
0.0
0
VERTEX
8
SLAB_00
10
0.271
20
26.988
30
0.0
0
VERTEX
8
SLAB_00
10
0.178
20
24.123
30
0.0
0
VERTEX
8
SLAB_00
10
0.112
20
21.308
30
0.0
0
VERTEX
8
SLAB_00
10
0.066
20
18.539
30
0.0
0
VERTEX
8
SLAB_00
10
0.036
20
15.811
30
0.0
0
VERTEX
8
SLAB_00
10
0.017
20
13.119
30
0.0
0
VERTEX
8
SLAB_00
10
0.007
20
10.458
30
0.0
0
VERTEX
8
SLAB_00
10
0.002
20
7.822
30
0.0
0
VERTEX
8
SLAB_00
10
0.000
20
5.204
30
0.0
0
VERTEX
8
SLAB_00
10
0.000
20
2.599
30
0.0
0
VERTEX
8
SLAB_00
10
0.000
20
0.000
30
0.0
0
VERTEX
8
SLAB_00
10
0.000
20
-2.599
30
0.0
0
VERTEX
8
SLAB_00
10
0.000
20
-5.204
30
0.0
0
VERTEX
8
SLAB_00
10
0.002
20
-7.822
30
0.0
0
VERTEX
8
SLAB_00
10
0.007
20
-10.458
30
0.0
0
VERTEX
8
SLAB_00
10
0.017
20
-13.119
30
0.0
0
VERTEX
8
SLAB_00
10
0.036
20
-15.811
30
0.0
0
VERTEX
8
SLAB_00
10
0.066
20
-18.539
30
0.0
0
VERTEX
8
SLAB_00
10
0.112
20
-21.308
30
0.0
0
VERTEX
8
SLAB_00
10
0.178
20
-24.123
30
0.0
0
VERTEX
8
SLAB_00
10
0.271
20
-26.988
30
0.0
0
VERTEX
8
SLAB_00
10
0.395
20
-29.908
30
0.0
0
VERTEX
8
SLAB_00
10
0.556
20
-32.886
30
0.0
0
VERTEX
8
SLAB_00
10
0.762
20
-35.925
30
0.0
0
VERTEX
8
SLAB_00
10
1.020
20
-39.028
30
0.0
0
VERTEX
8
SLAB_00
10
1.336
20
-42.195
30
0.0
0
VERTEX
8
SLAB_00
10
1.718
20
-45.429
30
0.0
0
VERTEX
8
SLAB_00
10
2.175
20
-48.730
30
0.0
0
VERTEX
8
SLAB_00
10
2.714
20
-52.097
30
0.0
0
VERTEX
8
SLAB_00
10
3.344
20
-55.530
30
0.0
0
VERTEX
8
SLAB_00
10
4.073
20
-59.028
30
0.0
0
VERTEX
8
SLAB_00
10
4.910
20
-62.587
30
0.0
0
VERTEX
8
SLAB_00
10
5.862
20
-66.206
30
0.0
0
VERTEX
8
SLAB_00
10
6.938
20
-69.879
30
0.0
0
VERTEX
8
SLAB_00
10
8.147
20
-73.604
30
0.0
0
VERTEX
8
SLAB_00
10
9.496
20
-77.374
30
0.0
0
VERTEX
8
SLAB_00
10
10.993
20
-81.183
30
0.0
0
VERTEX
8
SLAB_00
10
12.646
20
-85.025
30
0.0
0
VERTEX
8
SLAB_00
10
14.461
20
-88.894
30
0.0
0
VERTEX
8
SLAB_00
10
16.445
20
-92.780
30
0.0
0
VERTEX
8
SLAB_00
10
18.605
20
-96.675
30
0.0
0
VERTEX
8
SLAB_00
10
20.946
20
-100.570
30
0.0
0
VERTEX
8
SLAB_00
10
23.474
20
-104.455
30
0.0
0
VERTEX
8
SLAB_00
10
26.193
20
-108.320
30
0.0
0
VERTEX
8
SLAB_00
10
29.107
20
-112.154
30
0.0
0
VERTEX
8
SLAB_00
10
32.219
20
-115.946
30
0.0
0
VERTEX
8
SLAB_00
10
35.532
20
-119.684
30
0.0
0
VERTEX
8
SLAB_00
10
39.048
20
-123.356
30
0.0
0
VERTEX
8
SLAB_00
10
42.768
20
-126.950
30
0.0
0
VERTEX
8
SLAB_00
10
46.692
20
-130.453
30
0.0
0
VERTEX
8
SLAB_00
10
50.818
20
-133.853
30
0.0
0
VERTEX
8
SLAB_00
10
55.147
20
-137.135
30
0.0
0
VERTEX
8
SLAB_00
10
59.675
20
-140.289
30
0.0
0
VERTEX
8
SLAB_00
10
64.400
20
-143.299
30
0.0
0
VERTEX
8
SLAB_00
10
69.316
20
-146.154
30
0.0
0
VERTEX
8
SLAB_00
10
74.420
20
-148.840
30
0.0
0
VERTEX
8
SLAB_00
10
79.705
20
-151.345
30
0.0
0
VERTEX
8
SLAB_00
10
85.165
20
-153.656
30
0.0
0
VERTEX
8
SLAB_00
10
90.791
20
-155.761
30
0.0
0
VERTEX
8
SLAB_00
10
96.576
20
-157.648
30
0.0
0
VERTEX
8
SLAB_00
10
102.510
20
-159.306
30
0.0
0
VERTEX
8
SLAB_00
10
108.583
20
-160.723
30
0.0
0
VERTEX
8
SLAB_00
10
114.783
20
-161.888
30
0.0
0
VERTEX
8
SLAB_00
10
121.100
20
-162.793
30
0.0
0
VERTEX
8
SLAB_00
10
127.521
20
-163.427
30
0.0
0
VERTEX
8
SLAB_00
10
134.032
20
-163.782
30
0.0
0
VERTEX
8
SLAB_00
10
140.620
20
-163.851
30
0.0
0
VERTEX
8
SLAB_00
10
147.271
20
-163.625
30
0.0
0
VERTEX
8
SLAB_00
10
153.969
20
-163.099
30
0.0
0
VERTEX
8
SLAB_00
10
160.699
20
-162.267
30
0.0
0
VERTEX
8
SLAB_00
10
167.445
20
-161.124
30
0.0
0
VERTEX
8
SLAB_00
10
174.192
20
-159.668
30
0.0
0
VERTEX
8
SLAB_00
10
180.922
20
-157.895
30
0.0
0
VERTEX
8
SLAB_00
10
187.618
20
-155.803
30
0.0
0
VERTEX
8
SLAB_00
10
194.264
20
-153.393
30
0.0
0
VERTEX
8
SLAB_00
10
200.842
20
-150.663
30
0.0
0
VERTEX
8
SLAB_00
10
207.334
20
-147.616
30
0.0
0
VERTEX
8
SLAB_00
10
213.725
20
-144.254
30
0.0
0
VERTEX
8
SLAB_00
10
219.996
20
-140.581
30
0.0
0
VERTEX
8
SLAB_00
10
226.130
20
-136.600
30
0.0
0
VERTEX
8
SLAB_00
10
232.110
20
-132.317
30
0.0
0
VERTEX
8
SLAB_00
10
237.920
20
-127.740
30
0.0
0
VERTEX
8
SLAB_00
10
243.543
20
-122.875
30
0.0
0
VERTEX
8
SLAB_00
10
248.964
20
-117.731
30
0.0
0
VERTEX
8
SLAB_00
10
254.166
20
-112.318
30
0.0
0
VERTEX
8
SLAB_00
10
259.135
20
-106.645
30
0.0
0
VERTEX
8
SLAB_00
10
263.856
20
-100.725
30
0.0
0
VERTEX
8
SLAB_00
10
268.316
20
-94.569
30
0.0
0
VERTEX
8
SLAB_00
10
272.501
20
-88.191
30
0.0
0
VERTEX
8
SLAB_00
10
276.399
20
-81.605
30
0.0
0
VERTEX
8
SLAB_00
10
279.999
20
-74.825
30
0.0
0
VERTEX
8
SLAB_00
10
283.289
20
-67.866
30
0.0
0
VERTEX
8
SLAB_00
10
286.261
20
-60.744
30
0.0
0
VERTEX
8
SLAB_00
10
288.904
20
-53.477
30
0.0
0
VERTEX
8
SLAB_00
10
291.211
20
-46.080
30
0.0
0
VERTEX
8
SLAB_00
10
293.175
20
-38.572
30
0.0
0
VERTEX
8
SLAB_00
10
294.791
20
-30.971
30
0.0
0
VERTEX
8
SLAB_00
10
296.052
20
-23.294
30
0.0
0
VERTEX
8
SLAB_00
10
296.956
20
-15.561
30
0.0
0
VERTEX
8
SLAB_00
10
297.499
20
-7.790
30
0.0
0
SEQEND
8
SLAB_00
0
TEXT
8
TEXT
10
0.000
20
178.851
30
0.0
40
8.0
1
15: s'=+275 D=328
0
CIRCLE
8
DOWEL
10
15.000
20
18.000
30
0.0
40
3.250
0
TEXT
8
DOWEL
10
20.000
20
16.000
30
0.0
40
3.0
1
A
0
CIRCLE
8
DOWEL
10
15.000
20
-18.000
30
0.0
40
3.250
0
TEXT
8
DOWEL
10
20.000
20
-20.000
30
0.0
40
3.0
1
B
0
CIRCLE
8
DOWEL
10
45.000
20
18.000
30
0.0
40
3.250
0
TEXT
8
DOWEL
10
50.000
20
16.000
30
0.0
40
3.0
1
C
0
CIRCLE
8
DOWEL
10
45.000
20
-18.000
30
0.0
40
3.250
0
TEXT
8
DOWEL
10
50.000
20
-20.000
30
0.0
40
3.0
1
D
0
ENDSEC
0
EOF