0
SECTION
2
HEADER
9
$ACADVER
1
AC1009
9
$INSUNITS
70
4
0
ENDSEC
0
SECTION
2
TABLES
0
TABLE
2
LAYER
70
4
0
LAYER
2
0
70
0
62
7
6
CONTINUOUS
0
LAYER
2
TEXT
70
0
62
1
6
CONTINUOUS
0
LAYER
2
DOWEL
70
0
62
5
6
CONTINUOUS
0
LAYER
2
SLAB_00
70
0
62
2
6
CONTINUOUS
0
ENDTAB
0
ENDSEC
0
SECTION
2
ENTITIES
0
POLYLINE
8
SLAB_00
66
1
70
1
10
0.0
20
0.0
30
0.0
0
VERTEX
8
SLAB_00
10
71.526
20
0.000
30
0.0
0
VERTEX
8
SLAB_00
10
71.482
20
1.872
30
0.0
0
VERTEX
8
SLAB_00
10
71.352
20
3.739
30
0.0
0
VERTEX
8
SLAB_00
10
71.135
20
5.597
30
0.0
0
VERTEX
8
SLAB_00
10
70.831
20
7.442
30
0.0
0
VERTEX
8
SLAB_00
10
70.443
20
9.268
30
0.0
0
VERTEX
8
SLAB_00
10
69.971
20
11.072
30
0.0
0
VERTEX
8
SLAB_00
10
69.417
20
12.849
30
0.0
0
VERTEX
8
SLAB_00
10
68.782
20
14.595
30
0.0
0
VERTEX
8
SLAB_00
10
68.068
20
16.307
30
0.0
0
VERTEX
8
SLAB_00
10
67.277
20
17.979
30
0.0
0
VERTEX
8
SLAB_00
10
66.412
20
19.608
30
0.0
0
VERTEX
8
SLAB_00
10
65.476
20
21.190
30
0.0
0
VERTEX
8
SLAB_00
10
64.470
20
22.723
30
0.0
0
VERTEX
8
SLAB_00
10
63.399
20
24.202
30
0.0
0
VERTEX
8
SLAB_00
10
62.264
20
25.624
30
0.0
0
VERTEX
8
SLAB_00
10
61.070
20
26.987
30
0.0
0
VERTEX
8
SLAB_00
10
59.820
20
28.288
30
0.0
0
VERTEX
8
SLAB_00
10
58.518
20
29.524
30
0.0
0
VERTEX
8
SLAB_00
10
57.167
20
30.693
30
0.0
0
VERTEX
8
SLAB_00
10
55.771
20
31.793
30
0.0
0
VERTEX
8
SLAB_00
10
54.334
20
32.822
30
0.0
0
VERTEX
8
SLAB_00
10
52.860
20
33.778
30
0.0
0
VERTEX
8
SLAB_00
10
51.353
20
34.661
30
0.0
0
VERTEX
8
SLAB_00
10
49.818
20
35.469
30
0.0
0
VERTEX
8
SLAB_00
10
48.258
20
36.201
30
0.0
0
VERTEX
8
SLAB_00
10
46.677
20
36.857
30
0.0
0
VERTEX
8
SLAB_00
10
45.080
20
37.436
30
0.0
0
VERTEX
8
SLAB_00
10
43.471
20
37.938
30
0.0
0
VERTEX
8
SLAB_00
10
41.854
20
38.365
30
0.0
0
VERTEX
8
SLAB_00
10
40.233
20
38.714
30
0.0
0
VERTEX
8
SLAB_00
10
38.612
20
38.989
30
0.0
0
VERTEX
8
SLAB_00
10
36.995
20
39.189
30
0.0
0
VERTEX
8
SLAB_00
10
35.386
20
39.315
30
0.0
0
VERTEX
8
SLAB_00
10
33.788
20
39.370
30
0.0
0
VERTEX
8
SLAB_00
10
32.205
20
39.353
30
0.0
0
VERTEX
8
SLAB_00
10
30.640
20
39.268
30
0.0
0
VERTEX
8
SLAB_00
10
29.098
20
39.115
30
0.0
0
VERTEX
8
SLAB_00
10
27.580
20
38.898
30
0.0
0
VERTEX
8
SLAB_00
10
26.090
20
38.618
30
0.0
0
VERTEX
8
SLAB_00
10
24.631
20
38.277
30
0.0
0
VERTEX
8
SLAB_00
10
23.205
20
37.879
30
0.0
0
VERTEX
8
SLAB_00
10
21.815
20
37.426
30
0.0
0
VERTEX
8
SLAB_00
10
20.463
20
36.920
30
0.0
0
VERTEX
8
SLAB_00
10
19.151
20
36.365
30
0.0
0
VERTEX
8
SLAB_00
10
17.881
20
35.763
30
0.0
0
VERTEX
8
SLAB_00
10
16.655
20
35.117
30
0.0
0
VERTEX
8
SLAB_00
10
15.474
20
34.431
30
0.0
0
VERTEX
8
SLAB_00
10
14.339
20
33.708
30
0.0
0
VERTEX
8
SLAB_00
10
13.251
20
32.950
30
0.0
0
VERTEX
8
SLAB_00
10
12.210
20
32.162
30
0.0
0
VERTEX
8
SLAB_00
10
11.219
20
31.345
30
0.0
0
VERTEX
8
SLAB_00
10
10.276
20
30.503
30
0.0
0
VERTEX
8
SLAB_00
10
9.382
20
29.640
30
0.0
0
VERTEX
8
SLAB_00
10
8.538
20
28.757
30
0.0
0
VERTEX
8
SLAB_00
10
7.742
20
27.859
30
0.0
0
VERTEX
8
SLAB_00
10
6.994
20
26.948
30
0.0
0
VERTEX
8
SLAB_00
10
6.294
20
26.027
30
0.0
0
VERTEX
8
SLAB_00
10
5.640
20
25.098
30
0.0
0
VERTEX
8
SLAB_00
10
5.033
20
24.165
30
0.0
0
VERTEX
8
SLAB_00
10
4.470
20
23.229
30
0.0
0
VERTEX
8
SLAB_00
10
3.951
20
22.293
30
0.0
0
VERTEX
8
SLAB_00
10
3.475
20
21.359
30
0.0
0
VERTEX
8
SLAB_00
10
3.038
20
20.430
30
0.0
0
VERTEX
8
SLAB_00
10
2.641
20
19.506
30
0.0
0
VERTEX
8
SLAB_00
10
2.282
20
18.591
30
0.0
0
VERTEX
8
SLAB_00
10
1.958
20
17.685
30
0.0
0
VERTEX
8
SLAB_00
10
1.667
20
16.790
30
0.0
0
VERTEX
8
SLAB_00
10
1.409
20
15.908
30
0.0
0
VERTEX
8
SLAB_00
10
1.180
20
15.038
30
0.0
0
VERTEX
8
SLAB_00
10
0.979
20
14.183
30
0.0
0
VERTEX
8
SLAB_00
10
0.804
20
13.343
30
0.0
0
VERTEX
8
SLAB_00
10
0.652
20
12.518
30
0.0
0
VERTEX
8
SLAB_00
10
0.523
20
11.709
30
0.0
0
VERTEX
8
SLAB_00
10
0.413
20
10.916
30
0.0
0
VERTEX
8
SLAB_00
10
0.321
20
10.139
30
0.0
0
VERTEX
8
SLAB_00
10
0.245
20
9.377
30
0.0
0
VERTEX
8
SLAB_00
10
0.183
20
8.632
30
0.0
0
VERTEX
8
SLAB_00
10
0.134
20
7.902
30
0.0
0
VERTEX
8
SLAB_00
10
0.095
20
7.186
30
0.0
0
VERTEX
8
SLAB_00
10
0.065
20
6.485
30
0.0
0
VERTEX
8
SLAB_00
10
0.043
20
5.796
30
0.0
0
VERTEX
8
SLAB_00
10
0.027
20
5.120
30
0.0
0
VERTEX
8
SLAB_00
10
0.016
20
4.454
30
0.0
0
VERTEX
8
SLAB_00
10
0.009
20
3.799
30
0.0
0
VERTEX
8
SLAB_00
10
0.004
20
3.152
30
0.0
0
VERTEX
8
SLAB_00
10
0.002
20
2.513
30
0.0
0
VERTEX
8
SLAB_00
10
0.001
20
1.879
30
0.0
0
VERTEX
8
SLAB_00
10
0.000
20
1.250
30
0.0
0
VERTEX
8
SLAB_00
10
0.000
20
0.624
30
0.0
0
VERTEX
8
SLAB_00
10
0.000
20
0.000
30
0.0
0
VERTEX
8
SLAB_00
10
0.000
20
-0.624
30
0.0
0
VERTEX
8
SLAB_00
10
0.000
20
-1.250
30
0.0
0
VERTEX
8
SLAB_00
10
0.001
20
-1.879
30
0.0
0
VERTEX
8
SLAB_00
10
0.002
20
-2.513
30
0.0
0
VERTEX
8
SLAB_00
10
0.004
20
-3.152
30
0.0
0
VERTEX
8
SLAB_00
10
0.009
20
-3.799
30
0.0
0
VERTEX
8
SLAB_00
10
0.016
20
-4.454
30
0.0
0
VERTEX
8
SLAB_00
10
0.027
20
-5.120
30
0.0
0
VERTEX
8
SLAB_00
10
0.043
20
-5.796
30
0.0
0
VERTEX
8
SLAB_00
10
0.065
20
-6.485
30
0.0
0
VERTEX
8
SLAB_00
10
0.095
20
-7.186
30
0.0
0
VERTEX
8
SLAB_00
10
0.134
20
-7.902
30
0.0
0
VERTEX
8
SLAB_00
10
0.183
20
-8.632
30
0.0
0
VERTEX
8
SLAB_00
10
0.245
20
-9.377
30
0.0
0
VERTEX
8
SLAB_00
10
0.321
20
-10.139
30
0.0
0
VERTEX
8
SLAB_00
10
0.413
20
-10.916
30
0.0
0
VERTEX
8
SLAB_00
10
0.523
20
-11.709
30
0.0
0
VERTEX
8
SLAB_00
10
0.652
20
-12.518
30
0.0
0
VERTEX
8
SLAB_00
10
0.804
20
-13.343
30
0.0
0
VERTEX
8
SLAB_00
10
0.979
20
-14.183
30
0.0
0
VERTEX
8
SLAB_00
10
1.180
20
-15.038
30
0.0
0
VERTEX
8
SLAB_00
10
1.409
20
-15.908
30
0.0
0
VERTEX
8
SLAB_00
10
1.667
20
-16.790
30
0.0
0
VERTEX
8
SLAB_00
10
1.958
20
-17.685
30
0.0
0
VERTEX
8
SLAB_00
10
2.282
20
-18.591
30
0.0
0
VERTEX
8
SLAB_00
10
2.641
20
-19.506
30
0.0
0
VERTEX
8
SLAB_00
10
3.038
20
-20.430
30
0.0
0
VERTEX
8
SLAB_00
10
3.475
20
-21.359
30
0.0
0
VERTEX
8
SLAB_00
10
3.951
20
-22.293
30
0.0
0
VERTEX
8
SLAB_00
10
4.470
20
-23.229
30
0.0
0
VERTEX
8
SLAB_00
10
5.033
20
-24.165
30
0.0
0
VERTEX
8
SLAB_00
10
5.640
20
-25.098
30
0.0
0
VERTEX
8
SLAB_00
10
6.294
20
-26.027
30
0.0
0
VERTEX
8
SLAB_00
10
6.994
20
-26.948
30
0.0
0
VERTEX
8
SLAB_00
10
7.742
20
-27.859
30
0.0
0
VERTEX
8
SLAB_00
10
8.538
20
-28.757
30
0.0
0
VERTEX
8
SLAB_00
10
9.382
20
-29.640
30
0.0
0
VERTEX
8
SLAB_00
10
10.276
20
-30.503
30
0.0
0
VERTEX
8
SLAB_00
10
11.219
20
-31.345
30
0.0
0
VERTEX
8
SLAB_00
10
12.210
20
-32.162
30
0.0
0
VERTEX
8
SLAB_00
10
13.251
20
-32.950
30
0.0
0
VERTEX
8
SLAB_00
10
14.339
20
-33.708
30
0.0
0
VERTEX
8
SLAB_00
10
15.474
20
-34.431
30
0.0
0
VERTEX
8
SLAB_00
10
16.655
20
-35.117
30
0.0
0
VERTEX
8
SLAB_00
10
17.881
20
-35.763
30
0.0
0
VERTEX
8
SLAB_00
10
19.151
20
-36.365
30
0.0
0
VERTEX
8
SLAB_00
10
20.463
20
-36.920
30
0.0
0
VERTEX
8
SLAB_00
10
21.815
20
-37.426
30
0.0
0
VERTEX
8
SLAB_00
10
23.205
20
-37.879
30
0.0
0
VERTEX
8
SLAB_00
10
24.631
20
-38.277
30
0.0
0
VERTEX
8
SLAB_00
10
26.090
20
-38.618
30
0.0
0
VERTEX
8
SLAB_00
10
27.580
20
-38.898
30
0.0
0
VERTEX
8
SLAB_00
10
29.098
20
-39.115
30
0.0
0
VERTEX
8
SLAB_00
10
30.640
20
-39.268
30
0.0
0
VERTEX
8
SLAB_00
10
32.205
20
-39.353
30
0.0
0
VERTEX
8
SLAB_00
10
33.788
20
-39.370
30
0.0
0
VERTEX
8
SLAB_00
10
35.386
20
-39.315
30
0.0
0
VERTEX
8
SLAB_00
10
36.995
20
-39.189
30
0.0
0
VERTEX
8
SLAB_00
10
38.612
20
-38.989
30
0.0
0
VERTEX
8
SLAB_00
10
40.233
20
-38.714
30
0.0
0
VERTEX
8
SLAB_00
10
41.854
20
-38.365
30
0.0
0
VERTEX
8
SLAB_00
10
43.471
20
-37.938
30
0.0
0
VERTEX
8
SLAB_00
10
45.080
20
-37.436
30
0.0
0
VERTEX
8
SLAB_00
10
46.677
20
-36.857
30
0.0
0
VERTEX
8
SLAB_00
10
48.258
20
-36.201
30
0.0
0
VERTEX
8
SLAB_00
10
49.818
20
-35.469
30
0.0
0
VERTEX
8
SLAB_00
10
51.353
20
-34.661
30
0.0
0
VERTEX
8
SLAB_00
10
52.860
20
-33.778
30
0.0
0
VERTEX
8
SLAB_00
10
54.334
20
-32.822
30
0.0
0
VERTEX
8
SLAB_00
10
55.771
20
-31.793
30
0.0
0
VERTEX
8
SLAB_00
10
57.167
20
-30.693
30
0.0
0
VERTEX
8
SLAB_00
10
58.518
20
-29.524
30
0.0
0
VERTEX
8
SLAB_00
10
59.820
20
-28.288
30
0.0
0
VERTEX
8
SLAB_00
10
61.070
20
-26.987
30
0.0
0
VERTEX
8
SLAB_00
10
62.264
20
-25.624
30
0.0
0
VERTEX
8
SLAB_00
10
63.399
20
-24.202
30
0.0
0
VERTEX
8
SLAB_00
10
64.470
20
-22.723
30
0.0
0
VERTEX
8
SLAB_00
10
65.476
20
-21.190
30
0.0
0
VERTEX
8
SLAB_00
10
66.412
20
-19.608
30
0.0
0
VERTEX
8
SLAB_00
10
67.277
20
-17.979
30
0.0
0
VERTEX
8
SLAB_00
10
68.068
20
-16.307
30
0.0
0
VERTEX
8
SLAB_00
10
68.782
20
-14.595
30
0.0
0
VERTEX
8
SLAB_00
10
69.417
20
-12.849
30
0.0
0
VERTEX
8
SLAB_00
10
69.971
20
-11.072
30
0.0
0
VERTEX
8
SLAB_00
10
70.443
20
-9.268
30
0.0
0
VERTEX
8
SLAB_00
10
70.831
20
-7.442
30
0.0
0
VERTEX
8
SLAB_00
10
71.135
20
-5.597
30
0.0
0
VERTEX
8
SLAB_00
10
71.352
20
-3.739
30
0.0
0
VERTEX
8
SLAB_00
10
71.482
20
-1.872
30
0.0
0
SEQEND
8
SLAB_00
0
TEXT
8
TEXT
10
0.000
20
54.370
30
0.0
40
8.0
1
66: s'=+1544 D=79
0
CIRCLE
8
DOWEL
10
15.000
20
18.000
30
0.0
40
3.250
0
TEXT
8
DOWEL
10
20.000
20
16.000
30
0.0
40
3.0
1
A
0
CIRCLE
8
DOWEL
10
15.000
20
-18.000
30
0.0
40
3.250
0
TEXT
8
DOWEL
10
20.000
20
-20.000
30
0.0
40
3.0
1
B
0
CIRCLE
8
DOWEL
10
45.000
20
18.000
30
0.0
40
3.250
0
TEXT
8
DOWEL
10
50.000
20
16.000
30
0.0
40
3.0
1
C
0
CIRCLE
8
DOWEL
10
45.000
20
-18.000
30
0.0
40
3.250
0
TEXT
8
DOWEL
10
50.000
20
-20.000
30
0.0
40
3.0
1
D
0
ENDSEC
0
EOF