0
SECTION
2
HEADER
9
$ACADVER
1
AC1009
9
$INSUNITS
70
4
0
ENDSEC
0
SECTION
2
TABLES
0
TABLE
2
LAYER
70
4
0
LAYER
2
0
70
0
62
7
6
CONTINUOUS
0
LAYER
2
TEXT
70
0
62
1
6
CONTINUOUS
0
LAYER
2
DOWEL
70
0
62
5
6
CONTINUOUS
0
LAYER
2
SLAB_00
70
0
62
2
6
CONTINUOUS
0
ENDTAB
0
ENDSEC
0
SECTION
2
ENTITIES
0
POLYLINE
8
SLAB_00
66
1
70
1
10
0.0
20
0.0
30
0.0
0
VERTEX
8
SLAB_00
10
319.772
20
0.000
30
0.0
0
VERTEX
8
SLAB_00
10
319.577
20
8.368
30
0.0
0
VERTEX
8
SLAB_00
10
318.993
20
16.716
30
0.0
0
VERTEX
8
SLAB_00
10
318.023
20
25.023
30
0.0
0
VERTEX
8
SLAB_00
10
316.667
20
33.269
30
0.0
0
VERTEX
8
SLAB_00
10
314.932
20
41.435
30
0.0
0
VERTEX
8
SLAB_00
10
312.822
20
49.500
30
0.0
0
VERTEX
8
SLAB_00
10
310.344
20
57.445
30
0.0
0
VERTEX
8
SLAB_00
10
307.504
20
65.252
30
0.0
0
VERTEX
8
SLAB_00
10
304.313
20
72.902
30
0.0
0
VERTEX
8
SLAB_00
10
300.778
20
80.377
30
0.0
0
VERTEX
8
SLAB_00
10
296.911
20
87.661
30
0.0
0
VERTEX
8
SLAB_00
10
292.724
20
94.736
30
0.0
0
VERTEX
8
SLAB_00
10
288.228
20
101.587
30
0.0
0
VERTEX
8
SLAB_00
10
283.437
20
108.200
30
0.0
0
VERTEX
8
SLAB_00
10
278.365
20
114.559
30
0.0
0
VERTEX
8
SLAB_00
10
273.028
20
120.653
30
0.0
0
VERTEX
8
SLAB_00
10
267.439
20
126.468
30
0.0
0
VERTEX
8
SLAB_00
10
261.617
20
131.994
30
0.0
0
VERTEX
8
SLAB_00
10
255.576
20
137.220
30
0.0
0
VERTEX
8
SLAB_00
10
249.335
20
142.137
30
0.0
0
VERTEX
8
SLAB_00
10
242.911
20
146.737
30
0.0
0
VERTEX
8
SLAB_00
10
236.322
20
151.013
30
0.0
0
VERTEX
8
SLAB_00
10
229.586
20
154.959
30
0.0
0
VERTEX
8
SLAB_00
10
222.721
20
158.571
30
0.0
0
VERTEX
8
SLAB_00
10
215.746
20
161.844
30
0.0
0
VERTEX
8
SLAB_00
10
208.680
20
164.776
30
0.0
0
VERTEX
8
SLAB_00
10
201.541
20
167.366
30
0.0
0
VERTEX
8
SLAB_00
10
194.348
20
169.612
30
0.0
0
VERTEX
8
SLAB_00
10
187.119
20
171.517
30
0.0
0
VERTEX
8
SLAB_00
10
179.872
20
173.082
30
0.0
0
VERTEX
8
SLAB_00
10
172.625
20
174.309
30
0.0
0
VERTEX
8
SLAB_00
10
165.395
20
175.202
30
0.0
0
VERTEX
8
SLAB_00
10
158.200
20
175.768
30
0.0
0
VERTEX
8
SLAB_00
10
151.056
20
176.010
30
0.0
0
VERTEX
8
SLAB_00
10
143.979
20
175.937
30
0.0
0
VERTEX
8
SLAB_00
10
136.984
20
175.555
30
0.0
0
VERTEX
8
SLAB_00
10
130.087
20
174.874
30
0.0
0
VERTEX
8
SLAB_00
10
123.302
20
173.902
30
0.0
0
VERTEX
8
SLAB_00
10
116.641
20
172.650
30
0.0
0
VERTEX
8
SLAB_00
10
110.117
20
171.128
30
0.0
0
VERTEX
8
SLAB_00
10
103.743
20
169.348
30
0.0
0
VERTEX
8
SLAB_00
10
97.529
20
167.321
30
0.0
0
VERTEX
8
SLAB_00
10
91.485
20
165.059
30
0.0
0
VERTEX
8
SLAB_00
10
85.620
20
162.577
30
0.0
0
VERTEX
8
SLAB_00
10
79.943
20
159.886
30
0.0
0
VERTEX
8
SLAB_00
10
74.460
20
157.000
30
0.0
0
VERTEX
8
SLAB_00
10
69.179
20
153.934
30
0.0
0
VERTEX
8
SLAB_00
10
64.104
20
150.700
30
0.0
0
VERTEX
8
SLAB_00
10
59.240
20
147.312
30
0.0
0
VERTEX
8
SLAB_00
10
54.590
20
143.786
30
0.0
0
VERTEX
8
SLAB_00
10
50.157
20
140.134
30
0.0
0
VERTEX
8
SLAB_00
10
45.942
20
136.371
30
0.0
0
VERTEX
8
SLAB_00
10
41.946
20
132.511
30
0.0
0
VERTEX
8
SLAB_00
10
38.169
20
128.566
30
0.0
0
VERTEX
8
SLAB_00
10
34.610
20
124.550
30
0.0
0
VERTEX
8
SLAB_00
10
31.267
20
120.477
30
0.0
0
VERTEX
8
SLAB_00
10
28.137
20
116.358
30
0.0
0
VERTEX
8
SLAB_00
10
25.216
20
112.207
30
0.0
0
VERTEX
8
SLAB_00
10
22.501
20
108.033
30
0.0
0
VERTEX
8
SLAB_00
10
19.986
20
103.849
30
0.0
0
VERTEX
8
SLAB_00
10
17.665
20
99.665
30
0.0
0
VERTEX
8
SLAB_00
10
15.534
20
95.491
30
0.0
0
VERTEX
8
SLAB_00
10
13.584
20
91.335
30
0.0
0
VERTEX
8
SLAB_00
10
11.809
20
87.208
30
0.0
0
VERTEX
8
SLAB_00
10
10.201
20
83.116
30
0.0
0
VERTEX
8
SLAB_00
10
8.752
20
79.066
30
0.0
0
VERTEX
8
SLAB_00
10
7.453
20
75.065
30
0.0
0
VERTEX
8
SLAB_00
10
6.297
20
71.119
30
0.0
0
VERTEX
8
SLAB_00
10
5.274
20
67.232
30
0.0
0
VERTEX
8
SLAB_00
10
4.376
20
63.408
30
0.0
0
VERTEX
8
SLAB_00
10
3.593
20
59.651
30
0.0
0
VERTEX
8
SLAB_00
10
2.916
20
55.963
30
0.0
0
VERTEX
8
SLAB_00
10
2.337
20
52.346
30
0.0
0
VERTEX
8
SLAB_00
10
1.846
20
48.801
30
0.0
0
VERTEX
8
SLAB_00
10
1.435
20
45.327
30
0.0
0
VERTEX
8
SLAB_00
10
1.095
20
41.924
30
0.0
0
VERTEX
8
SLAB_00
10
0.819
20
38.591
30
0.0
0
VERTEX
8
SLAB_00
10
0.598
20
35.327
30
0.0
0
VERTEX
8
SLAB_00
10
0.424
20
32.128
30
0.0
0
VERTEX
8
SLAB_00
10
0.291
20
28.991
30
0.0
0
VERTEX
8
SLAB_00
10
0.192
20
25.913
30
0.0
0
VERTEX
8
SLAB_00
10
0.120
20
22.889
30
0.0
0
VERTEX
8
SLAB_00
10
0.071
20
19.914
30
0.0
0
VERTEX
8
SLAB_00
10
0.038
20
16.984
30
0.0
0
VERTEX
8
SLAB_00
10
0.018
20
14.093
30
0.0
0
VERTEX
8
SLAB_00
10
0.008
20
11.234
30
0.0
0
VERTEX
8
SLAB_00
10
0.002
20
8.402
30
0.0
0
VERTEX
8
SLAB_00
10
0.000
20
5.590
30
0.0
0
VERTEX
8
SLAB_00
10
0.000
20
2.792
30
0.0
0
VERTEX
8
SLAB_00
10
0.000
20
0.000
30
0.0
0
VERTEX
8
SLAB_00
10
0.000
20
-2.792
30
0.0
0
VERTEX
8
SLAB_00
10
0.000
20
-5.590
30
0.0
0
VERTEX
8
SLAB_00
10
0.002
20
-8.402
30
0.0
0
VERTEX
8
SLAB_00
10
0.008
20
-11.234
30
0.0
0
VERTEX
8
SLAB_00
10
0.018
20
-14.093
30
0.0
0
VERTEX
8
SLAB_00
10
0.038
20
-16.984
30
0.0
0
VERTEX
8
SLAB_00
10
0.071
20
-19.914
30
0.0
0
VERTEX
8
SLAB_00
10
0.120
20
-22.889
30
0.0
0
VERTEX
8
SLAB_00
10
0.192
20
-25.913
30
0.0
0
VERTEX
8
SLAB_00
10
0.291
20
-28.991
30
0.0
0
VERTEX
8
SLAB_00
10
0.424
20
-32.128
30
0.0
0
VERTEX
8
SLAB_00
10
0.598
20
-35.327
30
0.0
0
VERTEX
8
SLAB_00
10
0.819
20
-38.591
30
0.0
0
VERTEX
8
SLAB_00
10
1.095
20
-41.924
30
0.0
0
VERTEX
8
SLAB_00
10
1.435
20
-45.327
30
0.0
0
VERTEX
8
SLAB_00
10
1.846
20
-48.801
30
0.0
0
VERTEX
8
SLAB_00
10
2.337
20
-52.346
30
0.0
0
VERTEX
8
SLAB_00
10
2.916
20
-55.963
30
0.0
0
VERTEX
8
SLAB_00
10
3.593
20
-59.651
30
0.0
0
VERTEX
8
SLAB_00
10
4.376
20
-63.408
30
0.0
0
VERTEX
8
SLAB_00
10
5.274
20
-67.232
30
0.0
0
VERTEX
8
SLAB_00
10
6.297
20
-71.119
30
0.0
0
VERTEX
8
SLAB_00
10
7.453
20
-75.065
30
0.0
0
VERTEX
8
SLAB_00
10
8.752
20
-79.066
30
0.0
0
VERTEX
8
SLAB_00
10
10.201
20
-83.116
30
0.0
0
VERTEX
8
SLAB_00
10
11.809
20
-87.208
30
0.0
0
VERTEX
8
SLAB_00
10
13.584
20
-91.335
30
0.0
0
VERTEX
8
SLAB_00
10
15.534
20
-95.491
30
0.0
0
VERTEX
8
SLAB_00
10
17.665
20
-99.665
30
0.0
0
VERTEX
8
SLAB_00
10
19.986
20
-103.849
30
0.0
0
VERTEX
8
SLAB_00
10
22.501
20
-108.033
30
0.0
0
VERTEX
8
SLAB_00
10
25.216
20
-112.207
30
0.0
0
VERTEX
8
SLAB_00
10
28.137
20
-116.358
30
0.0
0
VERTEX
8
SLAB_00
10
31.267
20
-120.477
30
0.0
0
VERTEX
8
SLAB_00
10
34.610
20
-124.550
30
0.0
0
VERTEX
8
SLAB_00
10
38.169
20
-128.566
30
0.0
0
VERTEX
8
SLAB_00
10
41.946
20
-132.511
30
0.0
0
VERTEX
8
SLAB_00
10
45.942
20
-136.371
30
0.0
0
VERTEX
8
SLAB_00
10
50.157
20
-140.134
30
0.0
0
VERTEX
8
SLAB_00
10
54.590
20
-143.786
30
0.0
0
VERTEX
8
SLAB_00
10
59.240
20
-147.312
30
0.0
0
VERTEX
8
SLAB_00
10
64.104
20
-150.700
30
0.0
0
VERTEX
8
SLAB_00
10
69.179
20
-153.934
30
0.0
0
VERTEX
8
SLAB_00
10
74.460
20
-157.000
30
0.0
0
VERTEX
8
SLAB_00
10
79.943
20
-159.886
30
0.0
0
VERTEX
8
SLAB_00
10
85.620
20
-162.577
30
0.0
0
VERTEX
8
SLAB_00
10
91.485
20
-165.059
30
0.0
0
VERTEX
8
SLAB_00
10
97.529
20
-167.321
30
0.0
0
VERTEX
8
SLAB_00
10
103.743
20
-169.348
30
0.0
0
VERTEX
8
SLAB_00
10
110.117
20
-171.128
30
0.0
0
VERTEX
8
SLAB_00
10
116.641
20
-172.650
30
0.0
0
VERTEX
8
SLAB_00
10
123.302
20
-173.902
30
0.0
0
VERTEX
8
SLAB_00
10
130.087
20
-174.874
30
0.0
0
VERTEX
8
SLAB_00
10
136.984
20
-175.555
30
0.0
0
VERTEX
8
SLAB_00
10
143.979
20
-175.937
30
0.0
0
VERTEX
8
SLAB_00
10
151.056
20
-176.010
30
0.0
0
VERTEX
8
SLAB_00
10
158.200
20
-175.768
30
0.0
0
VERTEX
8
SLAB_00
10
165.395
20
-175.202
30
0.0
0
VERTEX
8
SLAB_00
10
172.625
20
-174.309
30
0.0
0
VERTEX
8
SLAB_00
10
179.872
20
-173.082
30
0.0
0
VERTEX
8
SLAB_00
10
187.119
20
-171.517
30
0.0
0
VERTEX
8
SLAB_00
10
194.348
20
-169.612
30
0.0
0
VERTEX
8
SLAB_00
10
201.541
20
-167.366
30
0.0
0
VERTEX
8
SLAB_00
10
208.680
20
-164.776
30
0.0
0
VERTEX
8
SLAB_00
10
215.746
20
-161.844
30
0.0
0
VERTEX
8
SLAB_00
10
222.721
20
-158.571
30
0.0
0
VERTEX
8
SLAB_00
10
229.586
20
-154.959
30
0.0
0
VERTEX
8
SLAB_00
10
236.322
20
-151.013
30
0.0
0
VERTEX
8
SLAB_00
10
242.911
20
-146.737
30
0.0
0
VERTEX
8
SLAB_00
10
249.335
20
-142.137
30
0.0
0
VERTEX
8
SLAB_00
10
255.576
20
-137.220
30
0.0
0
VERTEX
8
SLAB_00
10
261.617
20
-131.994
30
0.0
0
VERTEX
8
SLAB_00
10
267.439
20
-126.468
30
0.0
0
VERTEX
8
SLAB_00
10
273.028
20
-120.653
30
0.0
0
VERTEX
8
SLAB_00
10
278.365
20
-114.559
30
0.0
0
VERTEX
8
SLAB_00
10
283.437
20
-108.200
30
0.0
0
VERTEX
8
SLAB_00
10
288.228
20
-101.587
30
0.0
0
VERTEX
8
SLAB_00
10
292.724
20
-94.736
30
0.0
0
VERTEX
8
SLAB_00
10
296.911
20
-87.661
30
0.0
0
VERTEX
8
SLAB_00
10
300.778
20
-80.377
30
0.0
0
VERTEX
8
SLAB_00
10
304.313
20
-72.902
30
0.0
0
VERTEX
8
SLAB_00
10
307.504
20
-65.252
30
0.0
0
VERTEX
8
SLAB_00
10
310.344
20
-57.445
30
0.0
0
VERTEX
8
SLAB_00
10
312.822
20
-49.500
30
0.0
0
VERTEX
8
SLAB_00
10
314.932
20
-41.435
30
0.0
0
VERTEX
8
SLAB_00
10
316.667
20
-33.269
30
0.0
0
VERTEX
8
SLAB_00
10
318.023
20
-25.023
30
0.0
0
VERTEX
8
SLAB_00
10
318.993
20
-16.716
30
0.0
0
VERTEX
8
SLAB_00
10
319.577
20
-8.368
30
0.0
0
SEQEND
8
SLAB_00
0
TEXT
8
TEXT
10
0.000
20
191.010
30
0.0
40
8.0
1
20: s'=+402 D=352
0
CIRCLE
8
DOWEL
10
15.000
20
18.000
30
0.0
40
3.250
0
TEXT
8
DOWEL
10
20.000
20
16.000
30
0.0
40
3.0
1
A
0
CIRCLE
8
DOWEL
10
15.000
20
-18.000
30
0.0
40
3.250
0
TEXT
8
DOWEL
10
20.000
20
-20.000
30
0.0
40
3.0
1
B
0
CIRCLE
8
DOWEL
10
45.000
20
18.000
30
0.0
40
3.250
0
TEXT
8
DOWEL
10
50.000
20
16.000
30
0.0
40
3.0
1
C
0
CIRCLE
8
DOWEL
10
45.000
20
-18.000
30
0.0
40
3.250
0
TEXT
8
DOWEL
10
50.000
20
-20.000
30
0.0
40
3.0
1
D
0
ENDSEC
0
EOF