0
SECTION
2
HEADER
9
$ACADVER
1
AC1009
9
$INSUNITS
70
4
0
ENDSEC
0
SECTION
2
TABLES
0
TABLE
2
LAYER
70
4
0
LAYER
2
0
70
0
62
7
6
CONTINUOUS
0
LAYER
2
TEXT
70
0
62
1
6
CONTINUOUS
0
LAYER
2
DOWEL
70
0
62
5
6
CONTINUOUS
0
LAYER
2
SLAB_00
70
0
62
2
6
CONTINUOUS
0
ENDTAB
0
ENDSEC
0
SECTION
2
ENTITIES
0
POLYLINE
8
SLAB_00
66
1
70
1
10
0.0
20
0.0
30
0.0
0
VERTEX
8
SLAB_00
10
94.507
20
0.000
30
0.0
0
VERTEX
8
SLAB_00
10
94.449
20
2.473
30
0.0
0
VERTEX
8
SLAB_00
10
94.277
20
4.940
30
0.0
0
VERTEX
8
SLAB_00
10
93.990
20
7.395
30
0.0
0
VERTEX
8
SLAB_00
10
93.589
20
9.833
30
0.0
0
VERTEX
8
SLAB_00
10
93.076
20
12.246
30
0.0
0
VERTEX
8
SLAB_00
10
92.453
20
14.629
30
0.0
0
VERTEX
8
SLAB_00
10
91.720
20
16.978
30
0.0
0
VERTEX
8
SLAB_00
10
90.881
20
19.285
30
0.0
0
VERTEX
8
SLAB_00
10
89.938
20
21.546
30
0.0
0
VERTEX
8
SLAB_00
10
88.893
20
23.755
30
0.0
0
VERTEX
8
SLAB_00
10
87.750
20
25.908
30
0.0
0
VERTEX
8
SLAB_00
10
86.513
20
27.999
30
0.0
0
VERTEX
8
SLAB_00
10
85.184
20
30.024
30
0.0
0
VERTEX
8
SLAB_00
10
83.768
20
31.978
30
0.0
0
VERTEX
8
SLAB_00
10
82.269
20
33.857
30
0.0
0
VERTEX
8
SLAB_00
10
80.692
20
35.658
30
0.0
0
VERTEX
8
SLAB_00
10
79.040
20
37.377
30
0.0
0
VERTEX
8
SLAB_00
10
77.319
20
39.010
30
0.0
0
VERTEX
8
SLAB_00
10
75.534
20
40.554
30
0.0
0
VERTEX
8
SLAB_00
10
73.690
20
42.008
30
0.0
0
VERTEX
8
SLAB_00
10
71.791
20
43.367
30
0.0
0
VERTEX
8
SLAB_00
10
69.843
20
44.631
30
0.0
0
VERTEX
8
SLAB_00
10
67.853
20
45.797
30
0.0
0
VERTEX
8
SLAB_00
10
65.824
20
46.865
30
0.0
0
VERTEX
8
SLAB_00
10
63.762
20
47.832
30
0.0
0
VERTEX
8
SLAB_00
10
61.674
20
48.699
30
0.0
0
VERTEX
8
SLAB_00
10
59.564
20
49.464
30
0.0
0
VERTEX
8
SLAB_00
10
57.438
20
50.128
30
0.0
0
VERTEX
8
SLAB_00
10
55.302
20
50.691
30
0.0
0
VERTEX
8
SLAB_00
10
53.160
20
51.153
30
0.0
0
VERTEX
8
SLAB_00
10
51.018
20
51.516
30
0.0
0
VERTEX
8
SLAB_00
10
48.881
20
51.780
30
0.0
0
VERTEX
8
SLAB_00
10
46.755
20
51.947
30
0.0
0
VERTEX
8
SLAB_00
10
44.644
20
52.019
30
0.0
0
VERTEX
8
SLAB_00
10
42.552
20
51.997
30
0.0
0
VERTEX
8
SLAB_00
10
40.485
20
51.884
30
0.0
0
VERTEX
8
SLAB_00
10
38.447
20
51.683
30
0.0
0
VERTEX
8
SLAB_00
10
36.441
20
51.396
30
0.0
0
VERTEX
8
SLAB_00
10
34.472
20
51.026
30
0.0
0
VERTEX
8
SLAB_00
10
32.545
20
50.576
30
0.0
0
VERTEX
8
SLAB_00
10
30.661
20
50.050
30
0.0
0
VERTEX
8
SLAB_00
10
28.824
20
49.451
30
0.0
0
VERTEX
8
SLAB_00
10
27.038
20
48.782
30
0.0
0
VERTEX
8
SLAB_00
10
25.305
20
48.049
30
0.0
0
VERTEX
8
SLAB_00
10
23.627
20
47.253
30
0.0
0
VERTEX
8
SLAB_00
10
22.006
20
46.400
30
0.0
0
VERTEX
8
SLAB_00
10
20.445
20
45.494
30
0.0
0
VERTEX
8
SLAB_00
10
18.945
20
44.538
30
0.0
0
VERTEX
8
SLAB_00
10
17.508
20
43.537
30
0.0
0
VERTEX
8
SLAB_00
10
16.134
20
42.495
30
0.0
0
VERTEX
8
SLAB_00
10
14.823
20
41.416
30
0.0
0
VERTEX
8
SLAB_00
10
13.578
20
40.304
30
0.0
0
VERTEX
8
SLAB_00
10
12.397
20
39.163
30
0.0
0
VERTEX
8
SLAB_00
10
11.281
20
37.997
30
0.0
0
VERTEX
8
SLAB_00
10
10.229
20
36.810
30
0.0
0
VERTEX
8
SLAB_00
10
9.241
20
35.606
30
0.0
0
VERTEX
8
SLAB_00
10
8.316
20
34.389
30
0.0
0
VERTEX
8
SLAB_00
10
7.452
20
33.162
30
0.0
0
VERTEX
8
SLAB_00
10
6.650
20
31.929
30
0.0
0
VERTEX
8
SLAB_00
10
5.907
20
30.692
30
0.0
0
VERTEX
8
SLAB_00
10
5.221
20
29.455
30
0.0
0
VERTEX
8
SLAB_00
10
4.591
20
28.222
30
0.0
0
VERTEX
8
SLAB_00
10
4.015
20
26.994
30
0.0
0
VERTEX
8
SLAB_00
10
3.490
20
25.774
30
0.0
0
VERTEX
8
SLAB_00
10
3.015
20
24.564
30
0.0
0
VERTEX
8
SLAB_00
10
2.587
20
23.367
30
0.0
0
VERTEX
8
SLAB_00
10
2.203
20
22.185
30
0.0
0
VERTEX
8
SLAB_00
10
1.861
20
21.019
30
0.0
0
VERTEX
8
SLAB_00
10
1.559
20
19.870
30
0.0
0
VERTEX
8
SLAB_00
10
1.293
20
18.740
30
0.0
0
VERTEX
8
SLAB_00
10
1.062
20
17.630
30
0.0
0
VERTEX
8
SLAB_00
10
0.862
20
16.540
30
0.0
0
VERTEX
8
SLAB_00
10
0.691
20
15.471
30
0.0
0
VERTEX
8
SLAB_00
10
0.546
20
14.423
30
0.0
0
VERTEX
8
SLAB_00
10
0.424
20
13.396
30
0.0
0
VERTEX
8
SLAB_00
10
0.324
20
12.390
30
0.0
0
VERTEX
8
SLAB_00
10
0.242
20
11.405
30
0.0
0
VERTEX
8
SLAB_00
10
0.177
20
10.441
30
0.0
0
VERTEX
8
SLAB_00
10
0.125
20
9.495
30
0.0
0
VERTEX
8
SLAB_00
10
0.086
20
8.568
30
0.0
0
VERTEX
8
SLAB_00
10
0.057
20
7.658
30
0.0
0
VERTEX
8
SLAB_00
10
0.035
20
6.765
30
0.0
0
VERTEX
8
SLAB_00
10
0.021
20
5.886
30
0.0
0
VERTEX
8
SLAB_00
10
0.011
20
5.020
30
0.0
0
VERTEX
8
SLAB_00
10
0.005
20
4.165
30
0.0
0
VERTEX
8
SLAB_00
10
0.002
20
3.320
30
0.0
0
VERTEX
8
SLAB_00
10
0.001
20
2.483
30
0.0
0
VERTEX
8
SLAB_00
10
0.000
20
1.652
30
0.0
0
VERTEX
8
SLAB_00
10
0.000
20
0.825
30
0.0
0
VERTEX
8
SLAB_00
10
0.000
20
0.000
30
0.0
0
VERTEX
8
SLAB_00
10
0.000
20
-0.825
30
0.0
0
VERTEX
8
SLAB_00
10
0.000
20
-1.652
30
0.0
0
VERTEX
8
SLAB_00
10
0.001
20
-2.483
30
0.0
0
VERTEX
8
SLAB_00
10
0.002
20
-3.320
30
0.0
0
VERTEX
8
SLAB_00
10
0.005
20
-4.165
30
0.0
0
VERTEX
8
SLAB_00
10
0.011
20
-5.020
30
0.0
0
VERTEX
8
SLAB_00
10
0.021
20
-5.886
30
0.0
0
VERTEX
8
SLAB_00
10
0.035
20
-6.765
30
0.0
0
VERTEX
8
SLAB_00
10
0.057
20
-7.658
30
0.0
0
VERTEX
8
SLAB_00
10
0.086
20
-8.568
30
0.0
0
VERTEX
8
SLAB_00
10
0.125
20
-9.495
30
0.0
0
VERTEX
8
SLAB_00
10
0.177
20
-10.441
30
0.0
0
VERTEX
8
SLAB_00
10
0.242
20
-11.405
30
0.0
0
VERTEX
8
SLAB_00
10
0.324
20
-12.390
30
0.0
0
VERTEX
8
SLAB_00
10
0.424
20
-13.396
30
0.0
0
VERTEX
8
SLAB_00
10
0.546
20
-14.423
30
0.0
0
VERTEX
8
SLAB_00
10
0.691
20
-15.471
30
0.0
0
VERTEX
8
SLAB_00
10
0.862
20
-16.540
30
0.0
0
VERTEX
8
SLAB_00
10
1.062
20
-17.630
30
0.0
0
VERTEX
8
SLAB_00
10
1.293
20
-18.740
30
0.0
0
VERTEX
8
SLAB_00
10
1.559
20
-19.870
30
0.0
0
VERTEX
8
SLAB_00
10
1.861
20
-21.019
30
0.0
0
VERTEX
8
SLAB_00
10
2.203
20
-22.185
30
0.0
0
VERTEX
8
SLAB_00
10
2.587
20
-23.367
30
0.0
0
VERTEX
8
SLAB_00
10
3.015
20
-24.564
30
0.0
0
VERTEX
8
SLAB_00
10
3.490
20
-25.774
30
0.0
0
VERTEX
8
SLAB_00
10
4.015
20
-26.994
30
0.0
0
VERTEX
8
SLAB_00
10
4.591
20
-28.222
30
0.0
0
VERTEX
8
SLAB_00
10
5.221
20
-29.455
30
0.0
0
VERTEX
8
SLAB_00
10
5.907
20
-30.692
30
0.0
0
VERTEX
8
SLAB_00
10
6.650
20
-31.929
30
0.0
0
VERTEX
8
SLAB_00
10
7.452
20
-33.162
30
0.0
0
VERTEX
8
SLAB_00
10
8.316
20
-34.389
30
0.0
0
VERTEX
8
SLAB_00
10
9.241
20
-35.606
30
0.0
0
VERTEX
8
SLAB_00
10
10.229
20
-36.810
30
0.0
0
VERTEX
8
SLAB_00
10
11.281
20
-37.997
30
0.0
0
VERTEX
8
SLAB_00
10
12.397
20
-39.163
30
0.0
0
VERTEX
8
SLAB_00
10
13.578
20
-40.304
30
0.0
0
VERTEX
8
SLAB_00
10
14.823
20
-41.416
30
0.0
0
VERTEX
8
SLAB_00
10
16.134
20
-42.495
30
0.0
0
VERTEX
8
SLAB_00
10
17.508
20
-43.537
30
0.0
0
VERTEX
8
SLAB_00
10
18.945
20
-44.538
30
0.0
0
VERTEX
8
SLAB_00
10
20.445
20
-45.494
30
0.0
0
VERTEX
8
SLAB_00
10
22.006
20
-46.400
30
0.0
0
VERTEX
8
SLAB_00
10
23.627
20
-47.253
30
0.0
0
VERTEX
8
SLAB_00
10
25.305
20
-48.049
30
0.0
0
VERTEX
8
SLAB_00
10
27.038
20
-48.782
30
0.0
0
VERTEX
8
SLAB_00
10
28.824
20
-49.451
30
0.0
0
VERTEX
8
SLAB_00
10
30.661
20
-50.050
30
0.0
0
VERTEX
8
SLAB_00
10
32.545
20
-50.576
30
0.0
0
VERTEX
8
SLAB_00
10
34.472
20
-51.026
30
0.0
0
VERTEX
8
SLAB_00
10
36.441
20
-51.396
30
0.0
0
VERTEX
8
SLAB_00
10
38.447
20
-51.683
30
0.0
0
VERTEX
8
SLAB_00
10
40.485
20
-51.884
30
0.0
0
VERTEX
8
SLAB_00
10
42.552
20
-51.997
30
0.0
0
VERTEX
8
SLAB_00
10
44.644
20
-52.019
30
0.0
0
VERTEX
8
SLAB_00
10
46.755
20
-51.947
30
0.0
0
VERTEX
8
SLAB_00
10
48.881
20
-51.780
30
0.0
0
VERTEX
8
SLAB_00
10
51.018
20
-51.516
30
0.0
0
VERTEX
8
SLAB_00
10
53.160
20
-51.153
30
0.0
0
VERTEX
8
SLAB_00
10
55.302
20
-50.691
30
0.0
0
VERTEX
8
SLAB_00
10
57.438
20
-50.128
30
0.0
0
VERTEX
8
SLAB_00
10
59.564
20
-49.464
30
0.0
0
VERTEX
8
SLAB_00
10
61.674
20
-48.699
30
0.0
0
VERTEX
8
SLAB_00
10
63.762
20
-47.832
30
0.0
0
VERTEX
8
SLAB_00
10
65.824
20
-46.865
30
0.0
0
VERTEX
8
SLAB_00
10
67.853
20
-45.797
30
0.0
0
VERTEX
8
SLAB_00
10
69.843
20
-44.631
30
0.0
0
VERTEX
8
SLAB_00
10
71.791
20
-43.367
30
0.0
0
VERTEX
8
SLAB_00
10
73.690
20
-42.008
30
0.0
0
VERTEX
8
SLAB_00
10
75.534
20
-40.554
30
0.0
0
VERTEX
8
SLAB_00
10
77.319
20
-39.010
30
0.0
0
VERTEX
8
SLAB_00
10
79.040
20
-37.377
30
0.0
0
VERTEX
8
SLAB_00
10
80.692
20
-35.658
30
0.0
0
VERTEX
8
SLAB_00
10
82.269
20
-33.857
30
0.0
0
VERTEX
8
SLAB_00
10
83.768
20
-31.978
30
0.0
0
VERTEX
8
SLAB_00
10
85.184
20
-30.024
30
0.0
0
VERTEX
8
SLAB_00
10
86.513
20
-27.999
30
0.0
0
VERTEX
8
SLAB_00
10
87.750
20
-25.908
30
0.0
0
VERTEX
8
SLAB_00
10
88.893
20
-23.755
30
0.0
0
VERTEX
8
SLAB_00
10
89.938
20
-21.546
30
0.0
0
VERTEX
8
SLAB_00
10
90.881
20
-19.285
30
0.0
0
VERTEX
8
SLAB_00
10
91.720
20
-16.978
30
0.0
0
VERTEX
8
SLAB_00
10
92.453
20
-14.629
30
0.0
0
VERTEX
8
SLAB_00
10
93.076
20
-12.246
30
0.0
0
VERTEX
8
SLAB_00
10
93.589
20
-9.833
30
0.0
0
VERTEX
8
SLAB_00
10
93.990
20
-7.395
30
0.0
0
VERTEX
8
SLAB_00
10
94.277
20
-4.940
30
0.0
0
VERTEX
8
SLAB_00
10
94.449
20
-2.473
30
0.0
0
SEQEND
8
SLAB_00
0
TEXT
8
TEXT
10
0.000
20
67.019
30
0.0
40
8.0
1
63: s'=+1468 D=104
0
CIRCLE
8
DOWEL
10
15.000
20
18.000
30
0.0
40
3.250
0
TEXT
8
DOWEL
10
20.000
20
16.000
30
0.0
40
3.0
1
A
0
CIRCLE
8
DOWEL
10
15.000
20
-18.000
30
0.0
40
3.250
0
TEXT
8
DOWEL
10
20.000
20
-20.000
30
0.0
40
3.0
1
B
0
CIRCLE
8
DOWEL
10
45.000
20
18.000
30
0.0
40
3.250
0
TEXT
8
DOWEL
10
50.000
20
16.000
30
0.0
40
3.0
1
C
0
CIRCLE
8
DOWEL
10
45.000
20
-18.000
30
0.0
40
3.250
0
TEXT
8
DOWEL
10
50.000
20
-20.000
30
0.0
40
3.0
1
D
0
ENDSEC
0
EOF