0
SECTION
2
HEADER
9
$ACADVER
1
AC1009
9
$INSUNITS
70
4
0
ENDSEC
0
SECTION
2
TABLES
0
TABLE
2
LAYER
70
4
0
LAYER
2
0
70
0
62
7
6
CONTINUOUS
0
LAYER
2
TEXT
70
0
62
1
6
CONTINUOUS
0
LAYER
2
DOWEL
70
0
62
5
6
CONTINUOUS
0
LAYER
2
SLAB_00
70
0
62
2
6
CONTINUOUS
0
ENDTAB
0
ENDSEC
0
SECTION
2
ENTITIES
0
POLYLINE
8
SLAB_00
66
1
70
1
10
0.0
20
0.0
30
0.0
0
VERTEX
8
SLAB_00
10
316.498
20
0.000
30
0.0
0
VERTEX
8
SLAB_00
10
316.305
20
8.283
30
0.0
0
VERTEX
8
SLAB_00
10
315.727
20
16.545
30
0.0
0
VERTEX
8
SLAB_00
10
314.766
20
24.767
30
0.0
0
VERTEX
8
SLAB_00
10
313.425
20
32.929
30
0.0
0
VERTEX
8
SLAB_00
10
311.708
20
41.011
30
0.0
0
VERTEX
8
SLAB_00
10
309.619
20
48.993
30
0.0
0
VERTEX
8
SLAB_00
10
307.166
20
56.857
30
0.0
0
VERTEX
8
SLAB_00
10
304.356
20
64.584
30
0.0
0
VERTEX
8
SLAB_00
10
301.197
20
72.156
30
0.0
0
VERTEX
8
SLAB_00
10
297.698
20
79.554
30
0.0
0
VERTEX
8
SLAB_00
10
293.871
20
86.763
30
0.0
0
VERTEX
8
SLAB_00
10
289.727
20
93.766
30
0.0
0
VERTEX
8
SLAB_00
10
285.277
20
100.547
30
0.0
0
VERTEX
8
SLAB_00
10
280.535
20
107.092
30
0.0
0
VERTEX
8
SLAB_00
10
275.515
20
113.386
30
0.0
0
VERTEX
8
SLAB_00
10
270.232
20
119.417
30
0.0
0
VERTEX
8
SLAB_00
10
264.701
20
125.173
30
0.0
0
VERTEX
8
SLAB_00
10
258.938
20
130.642
30
0.0
0
VERTEX
8
SLAB_00
10
252.959
20
135.815
30
0.0
0
VERTEX
8
SLAB_00
10
246.782
20
140.682
30
0.0
0
VERTEX
8
SLAB_00
10
240.424
20
145.235
30
0.0
0
VERTEX
8
SLAB_00
10
233.902
20
149.467
30
0.0
0
VERTEX
8
SLAB_00
10
227.235
20
153.373
30
0.0
0
VERTEX
8
SLAB_00
10
220.440
20
156.947
30
0.0
0
VERTEX
8
SLAB_00
10
213.537
20
160.187
30
0.0
0
VERTEX
8
SLAB_00
10
206.543
20
163.089
30
0.0
0
VERTEX
8
SLAB_00
10
199.478
20
165.652
30
0.0
0
VERTEX
8
SLAB_00
10
192.358
20
167.876
30
0.0
0
VERTEX
8
SLAB_00
10
185.203
20
169.761
30
0.0
0
VERTEX
8
SLAB_00
10
178.030
20
171.309
30
0.0
0
VERTEX
8
SLAB_00
10
170.857
20
172.524
30
0.0
0
VERTEX
8
SLAB_00
10
163.701
20
173.409
30
0.0
0
VERTEX
8
SLAB_00
10
156.580
20
173.968
30
0.0
0
VERTEX
8
SLAB_00
10
149.509
20
174.208
30
0.0
0
VERTEX
8
SLAB_00
10
142.505
20
174.135
30
0.0
0
VERTEX
8
SLAB_00
10
135.582
20
173.758
30
0.0
0
VERTEX
8
SLAB_00
10
128.755
20
173.083
30
0.0
0
VERTEX
8
SLAB_00
10
122.039
20
172.122
30
0.0
0
VERTEX
8
SLAB_00
10
115.447
20
170.882
30
0.0
0
VERTEX
8
SLAB_00
10
108.990
20
169.376
30
0.0
0
VERTEX
8
SLAB_00
10
102.681
20
167.614
30
0.0
0
VERTEX
8
SLAB_00
10
96.530
20
165.607
30
0.0
0
VERTEX
8
SLAB_00
10
90.548
20
163.369
30
0.0
0
VERTEX
8
SLAB_00
10
84.744
20
160.912
30
0.0
0
VERTEX
8
SLAB_00
10
79.124
20
158.249
30
0.0
0
VERTEX
8
SLAB_00
10
73.698
20
155.393
30
0.0
0
VERTEX
8
SLAB_00
10
68.471
20
152.357
30
0.0
0
VERTEX
8
SLAB_00
10
63.447
20
149.157
30
0.0
0
VERTEX
8
SLAB_00
10
58.633
20
145.804
30
0.0
0
VERTEX
8
SLAB_00
10
54.031
20
142.314
30
0.0
0
VERTEX
8
SLAB_00
10
49.643
20
138.699
30
0.0
0
VERTEX
8
SLAB_00
10
45.471
20
134.975
30
0.0
0
VERTEX
8
SLAB_00
10
41.517
20
131.154
30
0.0
0
VERTEX
8
SLAB_00
10
37.779
20
127.250
30
0.0
0
VERTEX
8
SLAB_00
10
34.256
20
123.275
30
0.0
0
VERTEX
8
SLAB_00
10
30.947
20
119.244
30
0.0
0
VERTEX
8
SLAB_00
10
27.849
20
115.167
30
0.0
0
VERTEX
8
SLAB_00
10
24.958
20
111.058
30
0.0
0
VERTEX
8
SLAB_00
10
22.270
20
106.927
30
0.0
0
VERTEX
8
SLAB_00
10
19.781
20
102.786
30
0.0
0
VERTEX
8
SLAB_00
10
17.485
20
98.644
30
0.0
0
VERTEX
8
SLAB_00
10
15.375
20
94.513
30
0.0
0
VERTEX
8
SLAB_00
10
13.445
20
90.400
30
0.0
0
VERTEX
8
SLAB_00
10
11.688
20
86.315
30
0.0
0
VERTEX
8
SLAB_00
10
10.096
20
82.264
30
0.0
0
VERTEX
8
SLAB_00
10
8.662
20
78.256
30
0.0
0
VERTEX
8
SLAB_00
10
7.377
20
74.297
30
0.0
0
VERTEX
8
SLAB_00
10
6.233
20
70.391
30
0.0
0
VERTEX
8
SLAB_00
10
5.220
20
66.544
30
0.0
0
VERTEX
8
SLAB_00
10
4.331
20
62.759
30
0.0
0
VERTEX
8
SLAB_00
10
3.556
20
59.041
30
0.0
0
VERTEX
8
SLAB_00
10
2.886
20
55.390
30
0.0
0
VERTEX
8
SLAB_00
10
2.313
20
51.810
30
0.0
0
VERTEX
8
SLAB_00
10
1.827
20
48.301
30
0.0
0
VERTEX
8
SLAB_00
10
1.420
20
44.863
30
0.0
0
VERTEX
8
SLAB_00
10
1.084
20
41.495
30
0.0
0
VERTEX
8
SLAB_00
10
0.810
20
38.196
30
0.0
0
VERTEX
8
SLAB_00
10
0.591
20
34.965
30
0.0
0
VERTEX
8
SLAB_00
10
0.420
20
31.799
30
0.0
0
VERTEX
8
SLAB_00
10
0.288
20
28.694
30
0.0
0
VERTEX
8
SLAB_00
10
0.190
20
25.648
30
0.0
0
VERTEX
8
SLAB_00
10
0.119
20
22.655
30
0.0
0
VERTEX
8
SLAB_00
10
0.070
20
19.711
30
0.0
0
VERTEX
8
SLAB_00
10
0.038
20
16.810
30
0.0
0
VERTEX
8
SLAB_00
10
0.018
20
13.949
30
0.0
0
VERTEX
8
SLAB_00
10
0.007
20
11.119
30
0.0
0
VERTEX
8
SLAB_00
10
0.002
20
8.316
30
0.0
0
VERTEX
8
SLAB_00
10
0.000
20
5.533
30
0.0
0
VERTEX
8
SLAB_00
10
0.000
20
2.763
30
0.0
0
VERTEX
8
SLAB_00
10
0.000
20
0.000
30
0.0
0
VERTEX
8
SLAB_00
10
0.000
20
-2.763
30
0.0
0
VERTEX
8
SLAB_00
10
0.000
20
-5.533
30
0.0
0
VERTEX
8
SLAB_00
10
0.002
20
-8.316
30
0.0
0
VERTEX
8
SLAB_00
10
0.007
20
-11.119
30
0.0
0
VERTEX
8
SLAB_00
10
0.018
20
-13.949
30
0.0
0
VERTEX
8
SLAB_00
10
0.038
20
-16.810
30
0.0
0
VERTEX
8
SLAB_00
10
0.070
20
-19.711
30
0.0
0
VERTEX
8
SLAB_00
10
0.119
20
-22.655
30
0.0
0
VERTEX
8
SLAB_00
10
0.190
20
-25.648
30
0.0
0
VERTEX
8
SLAB_00
10
0.288
20
-28.694
30
0.0
0
VERTEX
8
SLAB_00
10
0.420
20
-31.799
30
0.0
0
VERTEX
8
SLAB_00
10
0.591
20
-34.965
30
0.0
0
VERTEX
8
SLAB_00
10
0.810
20
-38.196
30
0.0
0
VERTEX
8
SLAB_00
10
1.084
20
-41.495
30
0.0
0
VERTEX
8
SLAB_00
10
1.420
20
-44.863
30
0.0
0
VERTEX
8
SLAB_00
10
1.827
20
-48.301
30
0.0
0
VERTEX
8
SLAB_00
10
2.313
20
-51.810
30
0.0
0
VERTEX
8
SLAB_00
10
2.886
20
-55.390
30
0.0
0
VERTEX
8
SLAB_00
10
3.556
20
-59.041
30
0.0
0
VERTEX
8
SLAB_00
10
4.331
20
-62.759
30
0.0
0
VERTEX
8
SLAB_00
10
5.220
20
-66.544
30
0.0
0
VERTEX
8
SLAB_00
10
6.233
20
-70.391
30
0.0
0
VERTEX
8
SLAB_00
10
7.377
20
-74.297
30
0.0
0
VERTEX
8
SLAB_00
10
8.662
20
-78.256
30
0.0
0
VERTEX
8
SLAB_00
10
10.096
20
-82.264
30
0.0
0
VERTEX
8
SLAB_00
10
11.688
20
-86.315
30
0.0
0
VERTEX
8
SLAB_00
10
13.445
20
-90.400
30
0.0
0
VERTEX
8
SLAB_00
10
15.375
20
-94.513
30
0.0
0
VERTEX
8
SLAB_00
10
17.485
20
-98.644
30
0.0
0
VERTEX
8
SLAB_00
10
19.781
20
-102.786
30
0.0
0
VERTEX
8
SLAB_00
10
22.270
20
-106.927
30
0.0
0
VERTEX
8
SLAB_00
10
24.958
20
-111.058
30
0.0
0
VERTEX
8
SLAB_00
10
27.849
20
-115.167
30
0.0
0
VERTEX
8
SLAB_00
10
30.947
20
-119.244
30
0.0
0
VERTEX
8
SLAB_00
10
34.256
20
-123.275
30
0.0
0
VERTEX
8
SLAB_00
10
37.779
20
-127.250
30
0.0
0
VERTEX
8
SLAB_00
10
41.517
20
-131.154
30
0.0
0
VERTEX
8
SLAB_00
10
45.471
20
-134.975
30
0.0
0
VERTEX
8
SLAB_00
10
49.643
20
-138.699
30
0.0
0
VERTEX
8
SLAB_00
10
54.031
20
-142.314
30
0.0
0
VERTEX
8
SLAB_00
10
58.633
20
-145.804
30
0.0
0
VERTEX
8
SLAB_00
10
63.447
20
-149.157
30
0.0
0
VERTEX
8
SLAB_00
10
68.471
20
-152.357
30
0.0
0
VERTEX
8
SLAB_00
10
73.698
20
-155.393
30
0.0
0
VERTEX
8
SLAB_00
10
79.124
20
-158.249
30
0.0
0
VERTEX
8
SLAB_00
10
84.744
20
-160.912
30
0.0
0
VERTEX
8
SLAB_00
10
90.548
20
-163.369
30
0.0
0
VERTEX
8
SLAB_00
10
96.530
20
-165.607
30
0.0
0
VERTEX
8
SLAB_00
10
102.681
20
-167.614
30
0.0
0
VERTEX
8
SLAB_00
10
108.990
20
-169.376
30
0.0
0
VERTEX
8
SLAB_00
10
115.447
20
-170.882
30
0.0
0
VERTEX
8
SLAB_00
10
122.039
20
-172.122
30
0.0
0
VERTEX
8
SLAB_00
10
128.755
20
-173.083
30
0.0
0
VERTEX
8
SLAB_00
10
135.582
20
-173.758
30
0.0
0
VERTEX
8
SLAB_00
10
142.505
20
-174.135
30
0.0
0
VERTEX
8
SLAB_00
10
149.509
20
-174.208
30
0.0
0
VERTEX
8
SLAB_00
10
156.580
20
-173.968
30
0.0
0
VERTEX
8
SLAB_00
10
163.701
20
-173.409
30
0.0
0
VERTEX
8
SLAB_00
10
170.857
20
-172.524
30
0.0
0
VERTEX
8
SLAB_00
10
178.030
20
-171.309
30
0.0
0
VERTEX
8
SLAB_00
10
185.203
20
-169.761
30
0.0
0
VERTEX
8
SLAB_00
10
192.358
20
-167.876
30
0.0
0
VERTEX
8
SLAB_00
10
199.478
20
-165.652
30
0.0
0
VERTEX
8
SLAB_00
10
206.543
20
-163.089
30
0.0
0
VERTEX
8
SLAB_00
10
213.537
20
-160.187
30
0.0
0
VERTEX
8
SLAB_00
10
220.440
20
-156.947
30
0.0
0
VERTEX
8
SLAB_00
10
227.235
20
-153.373
30
0.0
0
VERTEX
8
SLAB_00
10
233.902
20
-149.467
30
0.0
0
VERTEX
8
SLAB_00
10
240.424
20
-145.235
30
0.0
0
VERTEX
8
SLAB_00
10
246.782
20
-140.682
30
0.0
0
VERTEX
8
SLAB_00
10
252.959
20
-135.815
30
0.0
0
VERTEX
8
SLAB_00
10
258.938
20
-130.642
30
0.0
0
VERTEX
8
SLAB_00
10
264.701
20
-125.173
30
0.0
0
VERTEX
8
SLAB_00
10
270.232
20
-119.417
30
0.0
0
VERTEX
8
SLAB_00
10
275.515
20
-113.386
30
0.0
0
VERTEX
8
SLAB_00
10
280.535
20
-107.092
30
0.0
0
VERTEX
8
SLAB_00
10
285.277
20
-100.547
30
0.0
0
VERTEX
8
SLAB_00
10
289.727
20
-93.766
30
0.0
0
VERTEX
8
SLAB_00
10
293.871
20
-86.763
30
0.0
0
VERTEX
8
SLAB_00
10
297.698
20
-79.554
30
0.0
0
VERTEX
8
SLAB_00
10
301.197
20
-72.156
30
0.0
0
VERTEX
8
SLAB_00
10
304.356
20
-64.584
30
0.0
0
VERTEX
8
SLAB_00
10
307.166
20
-56.857
30
0.0
0
VERTEX
8
SLAB_00
10
309.619
20
-48.993
30
0.0
0
VERTEX
8
SLAB_00
10
311.708
20
-41.011
30
0.0
0
VERTEX
8
SLAB_00
10
313.425
20
-32.929
30
0.0
0
VERTEX
8
SLAB_00
10
314.766
20
-24.767
30
0.0
0
VERTEX
8
SLAB_00
10
315.727
20
-16.545
30
0.0
0
VERTEX
8
SLAB_00
10
316.305
20
-8.283
30
0.0
0
SEQEND
8
SLAB_00
0
TEXT
8
TEXT
10
0.000
20
189.208
30
0.0
40
8.0
1
19: s'=+376 D=348
0
CIRCLE
8
DOWEL
10
15.000
20
18.000
30
0.0
40
3.250
0
TEXT
8
DOWEL
10
20.000
20
16.000
30
0.0
40
3.0
1
A
0
CIRCLE
8
DOWEL
10
15.000
20
-18.000
30
0.0
40
3.250
0
TEXT
8
DOWEL
10
20.000
20
-20.000
30
0.0
40
3.0
1
B
0
CIRCLE
8
DOWEL
10
45.000
20
18.000
30
0.0
40
3.250
0
TEXT
8
DOWEL
10
50.000
20
16.000
30
0.0
40
3.0
1
C
0
CIRCLE
8
DOWEL
10
45.000
20
-18.000
30
0.0
40
3.250
0
TEXT
8
DOWEL
10
50.000
20
-20.000
30
0.0
40
3.0
1
D
0
ENDSEC
0
EOF