0
SECTION
2
HEADER
9
$ACADVER
1
AC1009
9
$INSUNITS
70
4
0
ENDSEC
0
SECTION
2
TABLES
0
TABLE
2
LAYER
70
4
0
LAYER
2
0
70
0
62
7
6
CONTINUOUS
0
LAYER
2
TEXT
70
0
62
1
6
CONTINUOUS
0
LAYER
2
DOWEL
70
0
62
5
6
CONTINUOUS
0
LAYER
2
SLAB_00
70
0
62
2
6
CONTINUOUS
0
ENDTAB
0
ENDSEC
0
SECTION
2
ENTITIES
0
POLYLINE
8
SLAB_00
66
1
70
1
10
0.0
20
0.0
30
0.0
0
VERTEX
8
SLAB_00
10
278.096
20
0.000
30
0.0
0
VERTEX
8
SLAB_00
10
277.927
20
7.278
30
0.0
0
VERTEX
8
SLAB_00
10
277.419
20
14.537
30
0.0
0
VERTEX
8
SLAB_00
10
276.575
20
21.762
30
0.0
0
VERTEX
8
SLAB_00
10
275.397
20
28.933
30
0.0
0
VERTEX
8
SLAB_00
10
273.887
20
36.035
30
0.0
0
VERTEX
8
SLAB_00
10
272.052
20
43.049
30
0.0
0
VERTEX
8
SLAB_00
10
269.897
20
49.959
30
0.0
0
VERTEX
8
SLAB_00
10
267.428
20
56.748
30
0.0
0
VERTEX
8
SLAB_00
10
264.652
20
63.401
30
0.0
0
VERTEX
8
SLAB_00
10
261.578
20
69.902
30
0.0
0
VERTEX
8
SLAB_00
10
258.215
20
76.236
30
0.0
0
VERTEX
8
SLAB_00
10
254.573
20
82.389
30
0.0
0
VERTEX
8
SLAB_00
10
250.663
20
88.348
30
0.0
0
VERTEX
8
SLAB_00
10
246.497
20
94.098
30
0.0
0
VERTEX
8
SLAB_00
10
242.086
20
99.629
30
0.0
0
VERTEX
8
SLAB_00
10
237.444
20
104.928
30
0.0
0
VERTEX
8
SLAB_00
10
232.584
20
109.986
30
0.0
0
VERTEX
8
SLAB_00
10
227.521
20
114.791
30
0.0
0
VERTEX
8
SLAB_00
10
222.267
20
119.336
30
0.0
0
VERTEX
8
SLAB_00
10
216.840
20
123.612
30
0.0
0
VERTEX
8
SLAB_00
10
211.253
20
127.613
30
0.0
0
VERTEX
8
SLAB_00
10
205.522
20
131.332
30
0.0
0
VERTEX
8
SLAB_00
10
199.664
20
134.764
30
0.0
0
VERTEX
8
SLAB_00
10
193.694
20
137.905
30
0.0
0
VERTEX
8
SLAB_00
10
187.628
20
140.751
30
0.0
0
VERTEX
8
SLAB_00
10
181.483
20
143.301
30
0.0
0
VERTEX
8
SLAB_00
10
175.275
20
145.553
30
0.0
0
VERTEX
8
SLAB_00
10
169.019
20
147.507
30
0.0
0
VERTEX
8
SLAB_00
10
162.732
20
149.163
30
0.0
0
VERTEX
8
SLAB_00
10
156.429
20
150.524
30
0.0
0
VERTEX
8
SLAB_00
10
150.127
20
151.591
30
0.0
0
VERTEX
8
SLAB_00
10
143.839
20
152.369
30
0.0
0
VERTEX
8
SLAB_00
10
137.582
20
152.860
30
0.0
0
VERTEX
8
SLAB_00
10
131.369
20
153.071
30
0.0
0
VERTEX
8
SLAB_00
10
125.214
20
153.007
30
0.0
0
VERTEX
8
SLAB_00
10
119.131
20
152.675
30
0.0
0
VERTEX
8
SLAB_00
10
113.133
20
152.083
30
0.0
0
VERTEX
8
SLAB_00
10
107.232
20
151.238
30
0.0
0
VERTEX
8
SLAB_00
10
101.439
20
150.149
30
0.0
0
VERTEX
8
SLAB_00
10
95.766
20
148.825
30
0.0
0
VERTEX
8
SLAB_00
10
90.222
20
147.277
30
0.0
0
VERTEX
8
SLAB_00
10
84.818
20
145.514
30
0.0
0
VERTEX
8
SLAB_00
10
79.562
20
143.547
30
0.0
0
VERTEX
8
SLAB_00
10
74.461
20
141.388
30
0.0
0
VERTEX
8
SLAB_00
10
69.524
20
139.048
30
0.0
0
VERTEX
8
SLAB_00
10
64.756
20
136.539
30
0.0
0
VERTEX
8
SLAB_00
10
60.163
20
133.872
30
0.0
0
VERTEX
8
SLAB_00
10
55.749
20
131.059
30
0.0
0
VERTEX
8
SLAB_00
10
51.519
20
128.113
30
0.0
0
VERTEX
8
SLAB_00
10
47.475
20
125.046
30
0.0
0
VERTEX
8
SLAB_00
10
43.620
20
121.871
30
0.0
0
VERTEX
8
SLAB_00
10
39.954
20
118.598
30
0.0
0
VERTEX
8
SLAB_00
10
36.479
20
115.241
30
0.0
0
VERTEX
8
SLAB_00
10
33.195
20
111.810
30
0.0
0
VERTEX
8
SLAB_00
10
30.100
20
108.318
30
0.0
0
VERTEX
8
SLAB_00
10
27.192
20
104.775
30
0.0
0
VERTEX
8
SLAB_00
10
24.470
20
101.194
30
0.0
0
VERTEX
8
SLAB_00
10
21.930
20
97.583
30
0.0
0
VERTEX
8
SLAB_00
10
19.568
20
93.953
30
0.0
0
VERTEX
8
SLAB_00
10
17.381
20
90.314
30
0.0
0
VERTEX
8
SLAB_00
10
15.363
20
86.676
30
0.0
0
VERTEX
8
SLAB_00
10
13.509
20
83.045
30
0.0
0
VERTEX
8
SLAB_00
10
11.814
20
79.432
30
0.0
0
VERTEX
8
SLAB_00
10
10.270
20
75.842
30
0.0
0
VERTEX
8
SLAB_00
10
8.871
20
72.283
30
0.0
0
VERTEX
8
SLAB_00
10
7.611
20
68.761
30
0.0
0
VERTEX
8
SLAB_00
10
6.482
20
65.282
30
0.0
0
VERTEX
8
SLAB_00
10
5.476
20
61.850
30
0.0
0
VERTEX
8
SLAB_00
10
4.587
20
58.470
30
0.0
0
VERTEX
8
SLAB_00
10
3.805
20
55.145
30
0.0
0
VERTEX
8
SLAB_00
10
3.124
20
51.877
30
0.0
0
VERTEX
8
SLAB_00
10
2.536
20
48.670
30
0.0
0
VERTEX
8
SLAB_00
10
2.032
20
45.524
30
0.0
0
VERTEX
8
SLAB_00
10
1.605
20
42.440
30
0.0
0
VERTEX
8
SLAB_00
10
1.248
20
39.419
30
0.0
0
VERTEX
8
SLAB_00
10
0.953
20
36.460
30
0.0
0
VERTEX
8
SLAB_00
10
0.712
20
33.562
30
0.0
0
VERTEX
8
SLAB_00
10
0.520
20
30.723
30
0.0
0
VERTEX
8
SLAB_00
10
0.369
20
27.941
30
0.0
0
VERTEX
8
SLAB_00
10
0.253
20
25.213
30
0.0
0
VERTEX
8
SLAB_00
10
0.167
20
22.536
30
0.0
0
VERTEX
8
SLAB_00
10
0.104
20
19.906
30
0.0
0
VERTEX
8
SLAB_00
10
0.061
20
17.319
30
0.0
0
VERTEX
8
SLAB_00
10
0.033
20
14.771
30
0.0
0
VERTEX
8
SLAB_00
10
0.016
20
12.256
30
0.0
0
VERTEX
8
SLAB_00
10
0.007
20
9.770
30
0.0
0
VERTEX
8
SLAB_00
10
0.002
20
7.307
30
0.0
0
VERTEX
8
SLAB_00
10
0.000
20
4.862
30
0.0
0
VERTEX
8
SLAB_00
10
0.000
20
2.428
30
0.0
0
VERTEX
8
SLAB_00
10
0.000
20
0.000
30
0.0
0
VERTEX
8
SLAB_00
10
0.000
20
-2.428
30
0.0
0
VERTEX
8
SLAB_00
10
0.000
20
-4.862
30
0.0
0
VERTEX
8
SLAB_00
10
0.002
20
-7.307
30
0.0
0
VERTEX
8
SLAB_00
10
0.007
20
-9.770
30
0.0
0
VERTEX
8
SLAB_00
10
0.016
20
-12.256
30
0.0
0
VERTEX
8
SLAB_00
10
0.033
20
-14.771
30
0.0
0
VERTEX
8
SLAB_00
10
0.061
20
-17.319
30
0.0
0
VERTEX
8
SLAB_00
10
0.104
20
-19.906
30
0.0
0
VERTEX
8
SLAB_00
10
0.167
20
-22.536
30
0.0
0
VERTEX
8
SLAB_00
10
0.253
20
-25.213
30
0.0
0
VERTEX
8
SLAB_00
10
0.369
20
-27.941
30
0.0
0
VERTEX
8
SLAB_00
10
0.520
20
-30.723
30
0.0
0
VERTEX
8
SLAB_00
10
0.712
20
-33.562
30
0.0
0
VERTEX
8
SLAB_00
10
0.953
20
-36.460
30
0.0
0
VERTEX
8
SLAB_00
10
1.248
20
-39.419
30
0.0
0
VERTEX
8
SLAB_00
10
1.605
20
-42.440
30
0.0
0
VERTEX
8
SLAB_00
10
2.032
20
-45.524
30
0.0
0
VERTEX
8
SLAB_00
10
2.536
20
-48.670
30
0.0
0
VERTEX
8
SLAB_00
10
3.124
20
-51.877
30
0.0
0
VERTEX
8
SLAB_00
10
3.805
20
-55.145
30
0.0
0
VERTEX
8
SLAB_00
10
4.587
20
-58.470
30
0.0
0
VERTEX
8
SLAB_00
10
5.476
20
-61.850
30
0.0
0
VERTEX
8
SLAB_00
10
6.482
20
-65.282
30
0.0
0
VERTEX
8
SLAB_00
10
7.611
20
-68.761
30
0.0
0
VERTEX
8
SLAB_00
10
8.871
20
-72.283
30
0.0
0
VERTEX
8
SLAB_00
10
10.270
20
-75.842
30
0.0
0
VERTEX
8
SLAB_00
10
11.814
20
-79.432
30
0.0
0
VERTEX
8
SLAB_00
10
13.509
20
-83.045
30
0.0
0
VERTEX
8
SLAB_00
10
15.363
20
-86.676
30
0.0
0
VERTEX
8
SLAB_00
10
17.381
20
-90.314
30
0.0
0
VERTEX
8
SLAB_00
10
19.568
20
-93.953
30
0.0
0
VERTEX
8
SLAB_00
10
21.930
20
-97.583
30
0.0
0
VERTEX
8
SLAB_00
10
24.470
20
-101.194
30
0.0
0
VERTEX
8
SLAB_00
10
27.192
20
-104.775
30
0.0
0
VERTEX
8
SLAB_00
10
30.100
20
-108.318
30
0.0
0
VERTEX
8
SLAB_00
10
33.195
20
-111.810
30
0.0
0
VERTEX
8
SLAB_00
10
36.479
20
-115.241
30
0.0
0
VERTEX
8
SLAB_00
10
39.954
20
-118.598
30
0.0
0
VERTEX
8
SLAB_00
10
43.620
20
-121.871
30
0.0
0
VERTEX
8
SLAB_00
10
47.475
20
-125.046
30
0.0
0
VERTEX
8
SLAB_00
10
51.519
20
-128.113
30
0.0
0
VERTEX
8
SLAB_00
10
55.749
20
-131.059
30
0.0
0
VERTEX
8
SLAB_00
10
60.163
20
-133.872
30
0.0
0
VERTEX
8
SLAB_00
10
64.756
20
-136.539
30
0.0
0
VERTEX
8
SLAB_00
10
69.524
20
-139.048
30
0.0
0
VERTEX
8
SLAB_00
10
74.461
20
-141.388
30
0.0
0
VERTEX
8
SLAB_00
10
79.562
20
-143.547
30
0.0
0
VERTEX
8
SLAB_00
10
84.818
20
-145.514
30
0.0
0
VERTEX
8
SLAB_00
10
90.222
20
-147.277
30
0.0
0
VERTEX
8
SLAB_00
10
95.766
20
-148.825
30
0.0
0
VERTEX
8
SLAB_00
10
101.439
20
-150.149
30
0.0
0
VERTEX
8
SLAB_00
10
107.232
20
-151.238
30
0.0
0
VERTEX
8
SLAB_00
10
113.133
20
-152.083
30
0.0
0
VERTEX
8
SLAB_00
10
119.131
20
-152.675
30
0.0
0
VERTEX
8
SLAB_00
10
125.214
20
-153.007
30
0.0
0
VERTEX
8
SLAB_00
10
131.369
20
-153.071
30
0.0
0
VERTEX
8
SLAB_00
10
137.582
20
-152.860
30
0.0
0
VERTEX
8
SLAB_00
10
143.839
20
-152.369
30
0.0
0
VERTEX
8
SLAB_00
10
150.127
20
-151.591
30
0.0
0
VERTEX
8
SLAB_00
10
156.429
20
-150.524
30
0.0
0
VERTEX
8
SLAB_00
10
162.732
20
-149.163
30
0.0
0
VERTEX
8
SLAB_00
10
169.019
20
-147.507
30
0.0
0
VERTEX
8
SLAB_00
10
175.275
20
-145.553
30
0.0
0
VERTEX
8
SLAB_00
10
181.483
20
-143.301
30
0.0
0
VERTEX
8
SLAB_00
10
187.628
20
-140.751
30
0.0
0
VERTEX
8
SLAB_00
10
193.694
20
-137.905
30
0.0
0
VERTEX
8
SLAB_00
10
199.664
20
-134.764
30
0.0
0
VERTEX
8
SLAB_00
10
205.522
20
-131.332
30
0.0
0
VERTEX
8
SLAB_00
10
211.253
20
-127.613
30
0.0
0
VERTEX
8
SLAB_00
10
216.840
20
-123.612
30
0.0
0
VERTEX
8
SLAB_00
10
222.267
20
-119.336
30
0.0
0
VERTEX
8
SLAB_00
10
227.521
20
-114.791
30
0.0
0
VERTEX
8
SLAB_00
10
232.584
20
-109.986
30
0.0
0
VERTEX
8
SLAB_00
10
237.444
20
-104.928
30
0.0
0
VERTEX
8
SLAB_00
10
242.086
20
-99.629
30
0.0
0
VERTEX
8
SLAB_00
10
246.497
20
-94.098
30
0.0
0
VERTEX
8
SLAB_00
10
250.663
20
-88.348
30
0.0
0
VERTEX
8
SLAB_00
10
254.573
20
-82.389
30
0.0
0
VERTEX
8
SLAB_00
10
258.215
20
-76.236
30
0.0
0
VERTEX
8
SLAB_00
10
261.578
20
-69.902
30
0.0
0
VERTEX
8
SLAB_00
10
264.652
20
-63.401
30
0.0
0
VERTEX
8
SLAB_00
10
267.428
20
-56.748
30
0.0
0
VERTEX
8
SLAB_00
10
269.897
20
-49.959
30
0.0
0
VERTEX
8
SLAB_00
10
272.052
20
-43.049
30
0.0
0
VERTEX
8
SLAB_00
10
273.887
20
-36.035
30
0.0
0
VERTEX
8
SLAB_00
10
275.397
20
-28.933
30
0.0
0
VERTEX
8
SLAB_00
10
276.575
20
-21.762
30
0.0
0
VERTEX
8
SLAB_00
10
277.419
20
-14.537
30
0.0
0
VERTEX
8
SLAB_00
10
277.927
20
-7.278
30
0.0
0
SEQEND
8
SLAB_00
0
TEXT
8
TEXT
10
0.000
20
168.071
30
0.0
40
8.0
1
12: s'=+198 D=306
0
CIRCLE
8
DOWEL
10
15.000
20
18.000
30
0.0
40
3.250
0
TEXT
8
DOWEL
10
20.000
20
16.000
30
0.0
40
3.0
1
A
0
CIRCLE
8
DOWEL
10
15.000
20
-18.000
30
0.0
40
3.250
0
TEXT
8
DOWEL
10
20.000
20
-20.000
30
0.0
40
3.0
1
B
0
CIRCLE
8
DOWEL
10
45.000
20
18.000
30
0.0
40
3.250
0
TEXT
8
DOWEL
10
50.000
20
16.000
30
0.0
40
3.0
1
C
0
CIRCLE
8
DOWEL
10
45.000
20
-18.000
30
0.0
40
3.250
0
TEXT
8
DOWEL
10
50.000
20
-20.000
30
0.0
40
3.0
1
D
0
ENDSEC
0
EOF