0
SECTION
2
HEADER
9
$ACADVER
1
AC1009
9
$INSUNITS
70
4
0
ENDSEC
0
SECTION
2
TABLES
0
TABLE
2
LAYER
70
4
0
LAYER
2
0
70
0
62
7
6
CONTINUOUS
0
LAYER
2
TEXT
70
0
62
1
6
CONTINUOUS
0
LAYER
2
DOWEL
70
0
62
5
6
CONTINUOUS
0
LAYER
2
SLAB_00
70
0
62
2
6
CONTINUOUS
0
ENDTAB
0
ENDSEC
0
SECTION
2
ENTITIES
0
POLYLINE
8
SLAB_00
66
1
70
1
10
0.0
20
0.0
30
0.0
0
VERTEX
8
SLAB_00
10
198.978
20
0.000
30
0.0
0
VERTEX
8
SLAB_00
10
198.856
20
5.207
30
0.0
0
VERTEX
8
SLAB_00
10
198.493
20
10.402
30
0.0
0
VERTEX
8
SLAB_00
10
197.889
20
15.571
30
0.0
0
VERTEX
8
SLAB_00
10
197.046
20
20.702
30
0.0
0
VERTEX
8
SLAB_00
10
195.966
20
25.783
30
0.0
0
VERTEX
8
SLAB_00
10
194.653
20
30.801
30
0.0
0
VERTEX
8
SLAB_00
10
193.111
20
35.745
30
0.0
0
VERTEX
8
SLAB_00
10
191.344
20
40.603
30
0.0
0
VERTEX
8
SLAB_00
10
189.358
20
45.363
30
0.0
0
VERTEX
8
SLAB_00
10
187.159
20
50.015
30
0.0
0
VERTEX
8
SLAB_00
10
184.753
20
54.547
30
0.0
0
VERTEX
8
SLAB_00
10
182.147
20
58.949
30
0.0
0
VERTEX
8
SLAB_00
10
179.349
20
63.213
30
0.0
0
VERTEX
8
SLAB_00
10
176.368
20
67.327
30
0.0
0
VERTEX
8
SLAB_00
10
173.212
20
71.284
30
0.0
0
VERTEX
8
SLAB_00
10
169.891
20
75.076
30
0.0
0
VERTEX
8
SLAB_00
10
166.414
20
78.695
30
0.0
0
VERTEX
8
SLAB_00
10
162.791
20
82.133
30
0.0
0
VERTEX
8
SLAB_00
10
159.032
20
85.385
30
0.0
0
VERTEX
8
SLAB_00
10
155.148
20
88.444
30
0.0
0
VERTEX
8
SLAB_00
10
151.151
20
91.307
30
0.0
0
VERTEX
8
SLAB_00
10
147.051
20
93.968
30
0.0
0
VERTEX
8
SLAB_00
10
142.859
20
96.423
30
0.0
0
VERTEX
8
SLAB_00
10
138.588
20
98.671
30
0.0
0
VERTEX
8
SLAB_00
10
134.248
20
100.707
30
0.0
0
VERTEX
8
SLAB_00
10
129.851
20
102.532
30
0.0
0
VERTEX
8
SLAB_00
10
125.409
20
104.143
30
0.0
0
VERTEX
8
SLAB_00
10
120.933
20
105.541
30
0.0
0
VERTEX
8
SLAB_00
10
116.434
20
106.726
30
0.0
0
VERTEX
8
SLAB_00
10
111.925
20
107.700
30
0.0
0
VERTEX
8
SLAB_00
10
107.415
20
108.463
30
0.0
0
VERTEX
8
SLAB_00
10
102.917
20
109.019
30
0.0
0
VERTEX
8
SLAB_00
10
98.440
20
109.371
30
0.0
0
VERTEX
8
SLAB_00
10
93.994
20
109.522
30
0.0
0
VERTEX
8
SLAB_00
10
89.591
20
109.476
30
0.0
0
VERTEX
8
SLAB_00
10
85.238
20
109.239
30
0.0
0
VERTEX
8
SLAB_00
10
80.947
20
108.815
30
0.0
0
VERTEX
8
SLAB_00
10
76.724
20
108.210
30
0.0
0
VERTEX
8
SLAB_00
10
72.580
20
107.431
30
0.0
0
VERTEX
8
SLAB_00
10
68.520
20
106.484
30
0.0
0
VERTEX
8
SLAB_00
10
64.554
20
105.376
30
0.0
0
VERTEX
8
SLAB_00
10
60.687
20
104.115
30
0.0
0
VERTEX
8
SLAB_00
10
56.926
20
102.708
30
0.0
0
VERTEX
8
SLAB_00
10
53.277
20
101.163
30
0.0
0
VERTEX
8
SLAB_00
10
49.744
20
99.489
30
0.0
0
VERTEX
8
SLAB_00
10
46.333
20
97.693
30
0.0
0
VERTEX
8
SLAB_00
10
43.046
20
95.785
30
0.0
0
VERTEX
8
SLAB_00
10
39.888
20
93.773
30
0.0
0
VERTEX
8
SLAB_00
10
36.862
20
91.665
30
0.0
0
VERTEX
8
SLAB_00
10
33.968
20
89.471
30
0.0
0
VERTEX
8
SLAB_00
10
31.210
20
87.198
30
0.0
0
VERTEX
8
SLAB_00
10
28.587
20
84.857
30
0.0
0
VERTEX
8
SLAB_00
10
26.101
20
82.454
30
0.0
0
VERTEX
8
SLAB_00
10
23.751
20
80.000
30
0.0
0
VERTEX
8
SLAB_00
10
21.536
20
77.501
30
0.0
0
VERTEX
8
SLAB_00
10
19.456
20
74.967
30
0.0
0
VERTEX
8
SLAB_00
10
17.508
20
72.404
30
0.0
0
VERTEX
8
SLAB_00
10
15.691
20
69.820
30
0.0
0
VERTEX
8
SLAB_00
10
14.001
20
67.223
30
0.0
0
VERTEX
8
SLAB_00
10
12.436
20
64.620
30
0.0
0
VERTEX
8
SLAB_00
10
10.992
20
62.016
30
0.0
0
VERTEX
8
SLAB_00
10
9.666
20
59.419
30
0.0
0
VERTEX
8
SLAB_00
10
8.453
20
56.833
30
0.0
0
VERTEX
8
SLAB_00
10
7.348
20
54.265
30
0.0
0
VERTEX
8
SLAB_00
10
6.347
20
51.718
30
0.0
0
VERTEX
8
SLAB_00
10
5.446
20
49.199
30
0.0
0
VERTEX
8
SLAB_00
10
4.638
20
46.709
30
0.0
0
VERTEX
8
SLAB_00
10
3.918
20
44.254
30
0.0
0
VERTEX
8
SLAB_00
10
3.282
20
41.835
30
0.0
0
VERTEX
8
SLAB_00
10
2.723
20
39.456
30
0.0
0
VERTEX
8
SLAB_00
10
2.235
20
37.118
30
0.0
0
VERTEX
8
SLAB_00
10
1.814
20
34.823
30
0.0
0
VERTEX
8
SLAB_00
10
1.454
20
32.572
30
0.0
0
VERTEX
8
SLAB_00
10
1.149
20
30.366
30
0.0
0
VERTEX
8
SLAB_00
10
0.893
20
28.204
30
0.0
0
VERTEX
8
SLAB_00
10
0.682
20
26.087
30
0.0
0
VERTEX
8
SLAB_00
10
0.510
20
24.013
30
0.0
0
VERTEX
8
SLAB_00
10
0.372
20
21.982
30
0.0
0
VERTEX
8
SLAB_00
10
0.264
20
19.991
30
0.0
0
VERTEX
8
SLAB_00
10
0.181
20
18.040
30
0.0
0
VERTEX
8
SLAB_00
10
0.119
20
16.124
30
0.0
0
VERTEX
8
SLAB_00
10
0.075
20
14.243
30
0.0
0
VERTEX
8
SLAB_00
10
0.044
20
12.392
30
0.0
0
VERTEX
8
SLAB_00
10
0.024
20
10.568
30
0.0
0
VERTEX
8
SLAB_00
10
0.011
20
8.769
30
0.0
0
VERTEX
8
SLAB_00
10
0.005
20
6.990
30
0.0
0
VERTEX
8
SLAB_00
10
0.001
20
5.228
30
0.0
0
VERTEX
8
SLAB_00
10
0.000
20
3.478
30
0.0
0
VERTEX
8
SLAB_00
10
0.000
20
1.737
30
0.0
0
VERTEX
8
SLAB_00
10
0.000
20
0.000
30
0.0
0
VERTEX
8
SLAB_00
10
0.000
20
-1.737
30
0.0
0
VERTEX
8
SLAB_00
10
0.000
20
-3.478
30
0.0
0
VERTEX
8
SLAB_00
10
0.001
20
-5.228
30
0.0
0
VERTEX
8
SLAB_00
10
0.005
20
-6.990
30
0.0
0
VERTEX
8
SLAB_00
10
0.011
20
-8.769
30
0.0
0
VERTEX
8
SLAB_00
10
0.024
20
-10.568
30
0.0
0
VERTEX
8
SLAB_00
10
0.044
20
-12.392
30
0.0
0
VERTEX
8
SLAB_00
10
0.075
20
-14.243
30
0.0
0
VERTEX
8
SLAB_00
10
0.119
20
-16.124
30
0.0
0
VERTEX
8
SLAB_00
10
0.181
20
-18.040
30
0.0
0
VERTEX
8
SLAB_00
10
0.264
20
-19.991
30
0.0
0
VERTEX
8
SLAB_00
10
0.372
20
-21.982
30
0.0
0
VERTEX
8
SLAB_00
10
0.510
20
-24.013
30
0.0
0
VERTEX
8
SLAB_00
10
0.682
20
-26.087
30
0.0
0
VERTEX
8
SLAB_00
10
0.893
20
-28.204
30
0.0
0
VERTEX
8
SLAB_00
10
1.149
20
-30.366
30
0.0
0
VERTEX
8
SLAB_00
10
1.454
20
-32.572
30
0.0
0
VERTEX
8
SLAB_00
10
1.814
20
-34.823
30
0.0
0
VERTEX
8
SLAB_00
10
2.235
20
-37.118
30
0.0
0
VERTEX
8
SLAB_00
10
2.723
20
-39.456
30
0.0
0
VERTEX
8
SLAB_00
10
3.282
20
-41.835
30
0.0
0
VERTEX
8
SLAB_00
10
3.918
20
-44.254
30
0.0
0
VERTEX
8
SLAB_00
10
4.638
20
-46.709
30
0.0
0
VERTEX
8
SLAB_00
10
5.446
20
-49.199
30
0.0
0
VERTEX
8
SLAB_00
10
6.347
20
-51.718
30
0.0
0
VERTEX
8
SLAB_00
10
7.348
20
-54.265
30
0.0
0
VERTEX
8
SLAB_00
10
8.453
20
-56.833
30
0.0
0
VERTEX
8
SLAB_00
10
9.666
20
-59.419
30
0.0
0
VERTEX
8
SLAB_00
10
10.992
20
-62.016
30
0.0
0
VERTEX
8
SLAB_00
10
12.436
20
-64.620
30
0.0
0
VERTEX
8
SLAB_00
10
14.001
20
-67.223
30
0.0
0
VERTEX
8
SLAB_00
10
15.691
20
-69.820
30
0.0
0
VERTEX
8
SLAB_00
10
17.508
20
-72.404
30
0.0
0
VERTEX
8
SLAB_00
10
19.456
20
-74.967
30
0.0
0
VERTEX
8
SLAB_00
10
21.536
20
-77.501
30
0.0
0
VERTEX
8
SLAB_00
10
23.751
20
-80.000
30
0.0
0
VERTEX
8
SLAB_00
10
26.101
20
-82.454
30
0.0
0
VERTEX
8
SLAB_00
10
28.587
20
-84.857
30
0.0
0
VERTEX
8
SLAB_00
10
31.210
20
-87.198
30
0.0
0
VERTEX
8
SLAB_00
10
33.968
20
-89.471
30
0.0
0
VERTEX
8
SLAB_00
10
36.862
20
-91.665
30
0.0
0
VERTEX
8
SLAB_00
10
39.888
20
-93.773
30
0.0
0
VERTEX
8
SLAB_00
10
43.046
20
-95.785
30
0.0
0
VERTEX
8
SLAB_00
10
46.333
20
-97.693
30
0.0
0
VERTEX
8
SLAB_00
10
49.744
20
-99.489
30
0.0
0
VERTEX
8
SLAB_00
10
53.277
20
-101.163
30
0.0
0
VERTEX
8
SLAB_00
10
56.926
20
-102.708
30
0.0
0
VERTEX
8
SLAB_00
10
60.687
20
-104.115
30
0.0
0
VERTEX
8
SLAB_00
10
64.554
20
-105.376
30
0.0
0
VERTEX
8
SLAB_00
10
68.520
20
-106.484
30
0.0
0
VERTEX
8
SLAB_00
10
72.580
20
-107.431
30
0.0
0
VERTEX
8
SLAB_00
10
76.724
20
-108.210
30
0.0
0
VERTEX
8
SLAB_00
10
80.947
20
-108.815
30
0.0
0
VERTEX
8
SLAB_00
10
85.238
20
-109.239
30
0.0
0
VERTEX
8
SLAB_00
10
89.591
20
-109.476
30
0.0
0
VERTEX
8
SLAB_00
10
93.994
20
-109.522
30
0.0
0
VERTEX
8
SLAB_00
10
98.440
20
-109.371
30
0.0
0
VERTEX
8
SLAB_00
10
102.917
20
-109.019
30
0.0
0
VERTEX
8
SLAB_00
10
107.415
20
-108.463
30
0.0
0
VERTEX
8
SLAB_00
10
111.925
20
-107.700
30
0.0
0
VERTEX
8
SLAB_00
10
116.434
20
-106.726
30
0.0
0
VERTEX
8
SLAB_00
10
120.933
20
-105.541
30
0.0
0
VERTEX
8
SLAB_00
10
125.409
20
-104.143
30
0.0
0
VERTEX
8
SLAB_00
10
129.851
20
-102.532
30
0.0
0
VERTEX
8
SLAB_00
10
134.248
20
-100.707
30
0.0
0
VERTEX
8
SLAB_00
10
138.588
20
-98.671
30
0.0
0
VERTEX
8
SLAB_00
10
142.859
20
-96.423
30
0.0
0
VERTEX
8
SLAB_00
10
147.051
20
-93.968
30
0.0
0
VERTEX
8
SLAB_00
10
151.151
20
-91.307
30
0.0
0
VERTEX
8
SLAB_00
10
155.148
20
-88.444
30
0.0
0
VERTEX
8
SLAB_00
10
159.032
20
-85.385
30
0.0
0
VERTEX
8
SLAB_00
10
162.791
20
-82.133
30
0.0
0
VERTEX
8
SLAB_00
10
166.414
20
-78.695
30
0.0
0
VERTEX
8
SLAB_00
10
169.891
20
-75.076
30
0.0
0
VERTEX
8
SLAB_00
10
173.212
20
-71.284
30
0.0
0
VERTEX
8
SLAB_00
10
176.368
20
-67.327
30
0.0
0
VERTEX
8
SLAB_00
10
179.349
20
-63.213
30
0.0
0
VERTEX
8
SLAB_00
10
182.147
20
-58.949
30
0.0
0
VERTEX
8
SLAB_00
10
184.753
20
-54.547
30
0.0
0
VERTEX
8
SLAB_00
10
187.159
20
-50.015
30
0.0
0
VERTEX
8
SLAB_00
10
189.358
20
-45.363
30
0.0
0
VERTEX
8
SLAB_00
10
191.344
20
-40.603
30
0.0
0
VERTEX
8
SLAB_00
10
193.111
20
-35.745
30
0.0
0
VERTEX
8
SLAB_00
10
194.653
20
-30.801
30
0.0
0
VERTEX
8
SLAB_00
10
195.966
20
-25.783
30
0.0
0
VERTEX
8
SLAB_00
10
197.046
20
-20.702
30
0.0
0
VERTEX
8
SLAB_00
10
197.889
20
-15.571
30
0.0
0
VERTEX
8
SLAB_00
10
198.493
20
-10.402
30
0.0
0
VERTEX
8
SLAB_00
10
198.856
20
-5.207
30
0.0
0
SEQEND
8
SLAB_00
0
TEXT
8
TEXT
10
0.000
20
124.522
30
0.0
40
8.0
1
03: s'=-30 D=219
0
CIRCLE
8
DOWEL
10
15.000
20
18.000
30
0.0
40
3.250
0
TEXT
8
DOWEL
10
20.000
20
16.000
30
0.0
40
3.0
1
A
0
CIRCLE
8
DOWEL
10
15.000
20
-18.000
30
0.0
40
3.250
0
TEXT
8
DOWEL
10
20.000
20
-20.000
30
0.0
40
3.0
1
B
0
CIRCLE
8
DOWEL
10
45.000
20
18.000
30
0.0
40
3.250
0
TEXT
8
DOWEL
10
50.000
20
16.000
30
0.0
40
3.0
1
C
0
CIRCLE
8
DOWEL
10
45.000
20
-18.000
30
0.0
40
3.250
0
TEXT
8
DOWEL
10
50.000
20
-20.000
30
0.0
40
3.0
1
D
0
ENDSEC
0
EOF