0
SECTION
2
HEADER
9
$ACADVER
1
AC1009
9
$INSUNITS
70
4
0
ENDSEC
0
SECTION
2
TABLES
0
TABLE
2
LAYER
70
4
0
LAYER
2
0
70
0
62
7
6
CONTINUOUS
0
LAYER
2
TEXT
70
0
62
1
6
CONTINUOUS
0
LAYER
2
DOWEL
70
0
62
5
6
CONTINUOUS
0
LAYER
2
SLAB_00
70
0
62
2
6
CONTINUOUS
0
ENDTAB
0
ENDSEC
0
SECTION
2
ENTITIES
0
POLYLINE
8
SLAB_00
66
1
70
1
10
0.0
20
0.0
30
0.0
0
VERTEX
8
SLAB_00
10
154.015
20
0.000
30
0.0
0
VERTEX
8
SLAB_00
10
153.921
20
4.030
30
0.0
0
VERTEX
8
SLAB_00
10
153.640
20
8.051
30
0.0
0
VERTEX
8
SLAB_00
10
153.172
20
12.052
30
0.0
0
VERTEX
8
SLAB_00
10
152.519
20
16.024
30
0.0
0
VERTEX
8
SLAB_00
10
151.684
20
19.957
30
0.0
0
VERTEX
8
SLAB_00
10
150.667
20
23.841
30
0.0
0
VERTEX
8
SLAB_00
10
149.474
20
27.668
30
0.0
0
VERTEX
8
SLAB_00
10
148.106
20
31.428
30
0.0
0
VERTEX
8
SLAB_00
10
146.569
20
35.113
30
0.0
0
VERTEX
8
SLAB_00
10
144.866
20
38.713
30
0.0
0
VERTEX
8
SLAB_00
10
143.004
20
42.221
30
0.0
0
VERTEX
8
SLAB_00
10
140.987
20
45.629
30
0.0
0
VERTEX
8
SLAB_00
10
138.822
20
48.928
30
0.0
0
VERTEX
8
SLAB_00
10
136.514
20
52.113
30
0.0
0
VERTEX
8
SLAB_00
10
134.072
20
55.176
30
0.0
0
VERTEX
8
SLAB_00
10
131.501
20
58.111
30
0.0
0
VERTEX
8
SLAB_00
10
128.809
20
60.912
30
0.0
0
VERTEX
8
SLAB_00
10
126.005
20
63.573
30
0.0
0
VERTEX
8
SLAB_00
10
123.095
20
66.090
30
0.0
0
VERTEX
8
SLAB_00
10
120.090
20
68.459
30
0.0
0
VERTEX
8
SLAB_00
10
116.995
20
70.674
30
0.0
0
VERTEX
8
SLAB_00
10
113.822
20
72.734
30
0.0
0
VERTEX
8
SLAB_00
10
110.577
20
74.635
30
0.0
0
VERTEX
8
SLAB_00
10
107.271
20
76.374
30
0.0
0
VERTEX
8
SLAB_00
10
103.912
20
77.950
30
0.0
0
VERTEX
8
SLAB_00
10
100.508
20
79.363
30
0.0
0
VERTEX
8
SLAB_00
10
97.070
20
80.610
30
0.0
0
VERTEX
8
SLAB_00
10
93.606
20
81.692
30
0.0
0
VERTEX
8
SLAB_00
10
90.124
20
82.609
30
0.0
0
VERTEX
8
SLAB_00
10
86.633
20
83.363
30
0.0
0
VERTEX
8
SLAB_00
10
83.143
20
83.954
30
0.0
0
VERTEX
8
SLAB_00
10
79.661
20
84.384
30
0.0
0
VERTEX
8
SLAB_00
10
76.195
20
84.657
30
0.0
0
VERTEX
8
SLAB_00
10
72.754
20
84.773
30
0.0
0
VERTEX
8
SLAB_00
10
69.346
20
84.738
30
0.0
0
VERTEX
8
SLAB_00
10
65.977
20
84.554
30
0.0
0
VERTEX
8
SLAB_00
10
62.655
20
84.226
30
0.0
0
VERTEX
8
SLAB_00
10
59.387
20
83.758
30
0.0
0
VERTEX
8
SLAB_00
10
56.179
20
83.155
30
0.0
0
VERTEX
8
SLAB_00
10
53.037
20
82.422
30
0.0
0
VERTEX
8
SLAB_00
10
49.967
20
81.564
30
0.0
0
VERTEX
8
SLAB_00
10
46.974
20
80.588
30
0.0
0
VERTEX
8
SLAB_00
10
44.063
20
79.499
30
0.0
0
VERTEX
8
SLAB_00
10
41.238
20
78.303
30
0.0
0
VERTEX
8
SLAB_00
10
38.504
20
77.007
30
0.0
0
VERTEX
8
SLAB_00
10
35.863
20
75.617
30
0.0
0
VERTEX
8
SLAB_00
10
33.319
20
74.140
30
0.0
0
VERTEX
8
SLAB_00
10
30.875
20
72.583
30
0.0
0
VERTEX
8
SLAB_00
10
28.532
20
70.951
30
0.0
0
VERTEX
8
SLAB_00
10
26.293
20
69.253
30
0.0
0
VERTEX
8
SLAB_00
10
24.157
20
67.494
30
0.0
0
VERTEX
8
SLAB_00
10
22.127
20
65.682
30
0.0
0
VERTEX
8
SLAB_00
10
20.203
20
63.822
30
0.0
0
VERTEX
8
SLAB_00
10
18.384
20
61.922
30
0.0
0
VERTEX
8
SLAB_00
10
16.670
20
59.988
30
0.0
0
VERTEX
8
SLAB_00
10
15.059
20
58.026
30
0.0
0
VERTEX
8
SLAB_00
10
13.552
20
56.043
30
0.0
0
VERTEX
8
SLAB_00
10
12.145
20
54.043
30
0.0
0
VERTEX
8
SLAB_00
10
10.837
20
52.033
30
0.0
0
VERTEX
8
SLAB_00
10
9.626
20
50.018
30
0.0
0
VERTEX
8
SLAB_00
10
8.508
20
48.002
30
0.0
0
VERTEX
8
SLAB_00
10
7.482
20
45.992
30
0.0
0
VERTEX
8
SLAB_00
10
6.543
20
43.991
30
0.0
0
VERTEX
8
SLAB_00
10
5.688
20
42.003
30
0.0
0
VERTEX
8
SLAB_00
10
4.913
20
40.032
30
0.0
0
VERTEX
8
SLAB_00
10
4.215
20
38.081
30
0.0
0
VERTEX
8
SLAB_00
10
3.590
20
36.154
30
0.0
0
VERTEX
8
SLAB_00
10
3.033
20
34.254
30
0.0
0
VERTEX
8
SLAB_00
10
2.540
20
32.382
30
0.0
0
VERTEX
8
SLAB_00
10
2.108
20
30.540
30
0.0
0
VERTEX
8
SLAB_00
10
1.730
20
28.730
30
0.0
0
VERTEX
8
SLAB_00
10
1.404
20
26.954
30
0.0
0
VERTEX
8
SLAB_00
10
1.125
20
25.212
30
0.0
0
VERTEX
8
SLAB_00
10
0.889
20
23.504
30
0.0
0
VERTEX
8
SLAB_00
10
0.691
20
21.831
30
0.0
0
VERTEX
8
SLAB_00
10
0.528
20
20.192
30
0.0
0
VERTEX
8
SLAB_00
10
0.394
20
18.587
30
0.0
0
VERTEX
8
SLAB_00
10
0.288
20
17.015
30
0.0
0
VERTEX
8
SLAB_00
10
0.204
20
15.474
30
0.0
0
VERTEX
8
SLAB_00
10
0.140
20
13.963
30
0.0
0
VERTEX
8
SLAB_00
10
0.092
20
12.481
30
0.0
0
VERTEX
8
SLAB_00
10
0.058
20
11.024
30
0.0
0
VERTEX
8
SLAB_00
10
0.034
20
9.592
30
0.0
0
VERTEX
8
SLAB_00
10
0.018
20
8.180
30
0.0
0
VERTEX
8
SLAB_00
10
0.009
20
6.788
30
0.0
0
VERTEX
8
SLAB_00
10
0.004
20
5.411
30
0.0
0
VERTEX
8
SLAB_00
10
0.001
20
4.047
30
0.0
0
VERTEX
8
SLAB_00
10
0.000
20
2.692
30
0.0
0
VERTEX
8
SLAB_00
10
0.000
20
1.345
30
0.0
0
VERTEX
8
SLAB_00
10
0.000
20
0.000
30
0.0
0
VERTEX
8
SLAB_00
10
0.000
20
-1.345
30
0.0
0
VERTEX
8
SLAB_00
10
0.000
20
-2.692
30
0.0
0
VERTEX
8
SLAB_00
10
0.001
20
-4.047
30
0.0
0
VERTEX
8
SLAB_00
10
0.004
20
-5.411
30
0.0
0
VERTEX
8
SLAB_00
10
0.009
20
-6.788
30
0.0
0
VERTEX
8
SLAB_00
10
0.018
20
-8.180
30
0.0
0
VERTEX
8
SLAB_00
10
0.034
20
-9.592
30
0.0
0
VERTEX
8
SLAB_00
10
0.058
20
-11.024
30
0.0
0
VERTEX
8
SLAB_00
10
0.092
20
-12.481
30
0.0
0
VERTEX
8
SLAB_00
10
0.140
20
-13.963
30
0.0
0
VERTEX
8
SLAB_00
10
0.204
20
-15.474
30
0.0
0
VERTEX
8
SLAB_00
10
0.288
20
-17.015
30
0.0
0
VERTEX
8
SLAB_00
10
0.394
20
-18.587
30
0.0
0
VERTEX
8
SLAB_00
10
0.528
20
-20.192
30
0.0
0
VERTEX
8
SLAB_00
10
0.691
20
-21.831
30
0.0
0
VERTEX
8
SLAB_00
10
0.889
20
-23.504
30
0.0
0
VERTEX
8
SLAB_00
10
1.125
20
-25.212
30
0.0
0
VERTEX
8
SLAB_00
10
1.404
20
-26.954
30
0.0
0
VERTEX
8
SLAB_00
10
1.730
20
-28.730
30
0.0
0
VERTEX
8
SLAB_00
10
2.108
20
-30.540
30
0.0
0
VERTEX
8
SLAB_00
10
2.540
20
-32.382
30
0.0
0
VERTEX
8
SLAB_00
10
3.033
20
-34.254
30
0.0
0
VERTEX
8
SLAB_00
10
3.590
20
-36.154
30
0.0
0
VERTEX
8
SLAB_00
10
4.215
20
-38.081
30
0.0
0
VERTEX
8
SLAB_00
10
4.913
20
-40.032
30
0.0
0
VERTEX
8
SLAB_00
10
5.688
20
-42.003
30
0.0
0
VERTEX
8
SLAB_00
10
6.543
20
-43.991
30
0.0
0
VERTEX
8
SLAB_00
10
7.482
20
-45.992
30
0.0
0
VERTEX
8
SLAB_00
10
8.508
20
-48.002
30
0.0
0
VERTEX
8
SLAB_00
10
9.626
20
-50.018
30
0.0
0
VERTEX
8
SLAB_00
10
10.837
20
-52.033
30
0.0
0
VERTEX
8
SLAB_00
10
12.145
20
-54.043
30
0.0
0
VERTEX
8
SLAB_00
10
13.552
20
-56.043
30
0.0
0
VERTEX
8
SLAB_00
10
15.059
20
-58.026
30
0.0
0
VERTEX
8
SLAB_00
10
16.670
20
-59.988
30
0.0
0
VERTEX
8
SLAB_00
10
18.384
20
-61.922
30
0.0
0
VERTEX
8
SLAB_00
10
20.203
20
-63.822
30
0.0
0
VERTEX
8
SLAB_00
10
22.127
20
-65.682
30
0.0
0
VERTEX
8
SLAB_00
10
24.157
20
-67.494
30
0.0
0
VERTEX
8
SLAB_00
10
26.293
20
-69.253
30
0.0
0
VERTEX
8
SLAB_00
10
28.532
20
-70.951
30
0.0
0
VERTEX
8
SLAB_00
10
30.875
20
-72.583
30
0.0
0
VERTEX
8
SLAB_00
10
33.319
20
-74.140
30
0.0
0
VERTEX
8
SLAB_00
10
35.863
20
-75.617
30
0.0
0
VERTEX
8
SLAB_00
10
38.504
20
-77.007
30
0.0
0
VERTEX
8
SLAB_00
10
41.238
20
-78.303
30
0.0
0
VERTEX
8
SLAB_00
10
44.063
20
-79.499
30
0.0
0
VERTEX
8
SLAB_00
10
46.974
20
-80.588
30
0.0
0
VERTEX
8
SLAB_00
10
49.967
20
-81.564
30
0.0
0
VERTEX
8
SLAB_00
10
53.037
20
-82.422
30
0.0
0
VERTEX
8
SLAB_00
10
56.179
20
-83.155
30
0.0
0
VERTEX
8
SLAB_00
10
59.387
20
-83.758
30
0.0
0
VERTEX
8
SLAB_00
10
62.655
20
-84.226
30
0.0
0
VERTEX
8
SLAB_00
10
65.977
20
-84.554
30
0.0
0
VERTEX
8
SLAB_00
10
69.346
20
-84.738
30
0.0
0
VERTEX
8
SLAB_00
10
72.754
20
-84.773
30
0.0
0
VERTEX
8
SLAB_00
10
76.195
20
-84.657
30
0.0
0
VERTEX
8
SLAB_00
10
79.661
20
-84.384
30
0.0
0
VERTEX
8
SLAB_00
10
83.143
20
-83.954
30
0.0
0
VERTEX
8
SLAB_00
10
86.633
20
-83.363
30
0.0
0
VERTEX
8
SLAB_00
10
90.124
20
-82.609
30
0.0
0
VERTEX
8
SLAB_00
10
93.606
20
-81.692
30
0.0
0
VERTEX
8
SLAB_00
10
97.070
20
-80.610
30
0.0
0
VERTEX
8
SLAB_00
10
100.508
20
-79.363
30
0.0
0
VERTEX
8
SLAB_00
10
103.912
20
-77.950
30
0.0
0
VERTEX
8
SLAB_00
10
107.271
20
-76.374
30
0.0
0
VERTEX
8
SLAB_00
10
110.577
20
-74.635
30
0.0
0
VERTEX
8
SLAB_00
10
113.822
20
-72.734
30
0.0
0
VERTEX
8
SLAB_00
10
116.995
20
-70.674
30
0.0
0
VERTEX
8
SLAB_00
10
120.090
20
-68.459
30
0.0
0
VERTEX
8
SLAB_00
10
123.095
20
-66.090
30
0.0
0
VERTEX
8
SLAB_00
10
126.005
20
-63.573
30
0.0
0
VERTEX
8
SLAB_00
10
128.809
20
-60.912
30
0.0
0
VERTEX
8
SLAB_00
10
131.501
20
-58.111
30
0.0
0
VERTEX
8
SLAB_00
10
134.072
20
-55.176
30
0.0
0
VERTEX
8
SLAB_00
10
136.514
20
-52.113
30
0.0
0
VERTEX
8
SLAB_00
10
138.822
20
-48.928
30
0.0
0
VERTEX
8
SLAB_00
10
140.987
20
-45.629
30
0.0
0
VERTEX
8
SLAB_00
10
143.004
20
-42.221
30
0.0
0
VERTEX
8
SLAB_00
10
144.866
20
-38.713
30
0.0
0
VERTEX
8
SLAB_00
10
146.569
20
-35.113
30
0.0
0
VERTEX
8
SLAB_00
10
148.106
20
-31.428
30
0.0
0
VERTEX
8
SLAB_00
10
149.474
20
-27.668
30
0.0
0
VERTEX
8
SLAB_00
10
150.667
20
-23.841
30
0.0
0
VERTEX
8
SLAB_00
10
151.684
20
-19.957
30
0.0
0
VERTEX
8
SLAB_00
10
152.519
20
-16.024
30
0.0
0
VERTEX
8
SLAB_00
10
153.172
20
-12.052
30
0.0
0
VERTEX
8
SLAB_00
10
153.640
20
-8.051
30
0.0
0
VERTEX
8
SLAB_00
10
153.921
20
-4.030
30
0.0
0
SEQEND
8
SLAB_00
0
TEXT
8
TEXT
10
0.000
20
99.773
30
0.0
40
8.0
1
56: s'=+1290 D=170
0
CIRCLE
8
DOWEL
10
15.000
20
18.000
30
0.0
40
3.250
0
TEXT
8
DOWEL
10
20.000
20
16.000
30
0.0
40
3.0
1
A
0
CIRCLE
8
DOWEL
10
15.000
20
-18.000
30
0.0
40
3.250
0
TEXT
8
DOWEL
10
20.000
20
-20.000
30
0.0
40
3.0
1
B
0
CIRCLE
8
DOWEL
10
45.000
20
18.000
30
0.0
40
3.250
0
TEXT
8
DOWEL
10
50.000
20
16.000
30
0.0
40
3.0
1
C
0
CIRCLE
8
DOWEL
10
45.000
20
-18.000
30
0.0
40
3.250
0
TEXT
8
DOWEL
10
50.000
20
-20.000
30
0.0
40
3.0
1
D
0
ENDSEC
0
EOF