0
SECTION
2
HEADER
9
$ACADVER
1
AC1009
9
$INSUNITS
70
4
0
ENDSEC
0
SECTION
2
TABLES
0
TABLE
2
LAYER
70
4
0
LAYER
2
0
70
0
62
7
6
CONTINUOUS
0
LAYER
2
TEXT
70
0
62
1
6
CONTINUOUS
0
LAYER
2
DOWEL
70
0
62
5
6
CONTINUOUS
0
LAYER
2
SLAB_00
70
0
62
2
6
CONTINUOUS
0
ENDTAB
0
ENDSEC
0
SECTION
2
ENTITIES
0
POLYLINE
8
SLAB_00
66
1
70
1
10
0.0
20
0.0
30
0.0
0
VERTEX
8
SLAB_00
10
298.063
20
0.000
30
0.0
0
VERTEX
8
SLAB_00
10
297.882
20
7.800
30
0.0
0
VERTEX
8
SLAB_00
10
297.338
20
15.581
30
0.0
0
VERTEX
8
SLAB_00
10
296.433
20
23.324
30
0.0
0
VERTEX
8
SLAB_00
10
295.169
20
31.011
30
0.0
0
VERTEX
8
SLAB_00
10
293.552
20
38.622
30
0.0
0
VERTEX
8
SLAB_00
10
291.585
20
46.140
30
0.0
0
VERTEX
8
SLAB_00
10
289.275
20
53.546
30
0.0
0
VERTEX
8
SLAB_00
10
286.628
20
60.822
30
0.0
0
VERTEX
8
SLAB_00
10
283.653
20
67.953
30
0.0
0
VERTEX
8
SLAB_00
10
280.359
20
74.921
30
0.0
0
VERTEX
8
SLAB_00
10
276.754
20
81.710
30
0.0
0
VERTEX
8
SLAB_00
10
272.851
20
88.305
30
0.0
0
VERTEX
8
SLAB_00
10
268.661
20
94.691
30
0.0
0
VERTEX
8
SLAB_00
10
264.195
20
100.854
30
0.0
0
VERTEX
8
SLAB_00
10
259.468
20
106.782
30
0.0
0
VERTEX
8
SLAB_00
10
254.492
20
112.462
30
0.0
0
VERTEX
8
SLAB_00
10
249.283
20
117.882
30
0.0
0
VERTEX
8
SLAB_00
10
243.856
20
123.033
30
0.0
0
VERTEX
8
SLAB_00
10
238.226
20
127.904
30
0.0
0
VERTEX
8
SLAB_00
10
232.408
20
132.488
30
0.0
0
VERTEX
8
SLAB_00
10
226.420
20
136.775
30
0.0
0
VERTEX
8
SLAB_00
10
220.278
20
140.761
30
0.0
0
VERTEX
8
SLAB_00
10
213.999
20
144.440
30
0.0
0
VERTEX
8
SLAB_00
10
207.601
20
147.806
30
0.0
0
VERTEX
8
SLAB_00
10
201.100
20
150.857
30
0.0
0
VERTEX
8
SLAB_00
10
194.513
20
153.590
30
0.0
0
VERTEX
8
SLAB_00
10
187.859
20
156.003
30
0.0
0
VERTEX
8
SLAB_00
10
181.154
20
158.098
30
0.0
0
VERTEX
8
SLAB_00
10
174.416
20
159.873
30
0.0
0
VERTEX
8
SLAB_00
10
167.661
20
161.331
30
0.0
0
VERTEX
8
SLAB_00
10
160.905
20
162.475
30
0.0
0
VERTEX
8
SLAB_00
10
154.167
20
163.308
30
0.0
0
VERTEX
8
SLAB_00
10
147.460
20
163.835
30
0.0
0
VERTEX
8
SLAB_00
10
140.801
20
164.061
30
0.0
0
VERTEX
8
SLAB_00
10
134.204
20
163.993
30
0.0
0
VERTEX
8
SLAB_00
10
127.685
20
163.637
30
0.0
0
VERTEX
8
SLAB_00
10
121.256
20
163.002
30
0.0
0
VERTEX
8
SLAB_00
10
114.931
20
162.096
30
0.0
0
VERTEX
8
SLAB_00
10
108.722
20
160.929
30
0.0
0
VERTEX
8
SLAB_00
10
102.642
20
159.510
30
0.0
0
VERTEX
8
SLAB_00
10
96.700
20
157.851
30
0.0
0
VERTEX
8
SLAB_00
10
90.908
20
155.962
30
0.0
0
VERTEX
8
SLAB_00
10
85.274
20
153.854
30
0.0
0
VERTEX
8
SLAB_00
10
79.808
20
151.540
30
0.0
0
VERTEX
8
SLAB_00
10
74.516
20
149.032
30
0.0
0
VERTEX
8
SLAB_00
10
69.405
20
146.342
30
0.0
0
VERTEX
8
SLAB_00
10
64.482
20
143.483
30
0.0
0
VERTEX
8
SLAB_00
10
59.752
20
140.469
30
0.0
0
VERTEX
8
SLAB_00
10
55.218
20
137.312
30
0.0
0
VERTEX
8
SLAB_00
10
50.884
20
134.024
30
0.0
0
VERTEX
8
SLAB_00
10
46.751
20
130.621
30
0.0
0
VERTEX
8
SLAB_00
10
42.823
20
127.113
30
0.0
0
VERTEX
8
SLAB_00
10
39.099
20
123.515
30
0.0
0
VERTEX
8
SLAB_00
10
35.578
20
119.838
30
0.0
0
VERTEX
8
SLAB_00
10
32.261
20
116.095
30
0.0
0
VERTEX
8
SLAB_00
10
29.144
20
112.298
30
0.0
0
VERTEX
8
SLAB_00
10
26.227
20
108.459
30
0.0
0
VERTEX
8
SLAB_00
10
23.504
20
104.589
30
0.0
0
VERTEX
8
SLAB_00
10
20.973
20
100.699
30
0.0
0
VERTEX
8
SLAB_00
10
18.629
20
96.799
30
0.0
0
VERTEX
8
SLAB_00
10
16.466
20
92.899
30
0.0
0
VERTEX
8
SLAB_00
10
14.479
20
89.008
30
0.0
0
VERTEX
8
SLAB_00
10
12.662
20
85.135
30
0.0
0
VERTEX
8
SLAB_00
10
11.007
20
81.287
30
0.0
0
VERTEX
8
SLAB_00
10
9.508
20
77.473
30
0.0
0
VERTEX
8
SLAB_00
10
8.158
20
73.698
30
0.0
0
VERTEX
8
SLAB_00
10
6.947
20
69.969
30
0.0
0
VERTEX
8
SLAB_00
10
5.870
20
66.291
30
0.0
0
VERTEX
8
SLAB_00
10
4.916
20
62.668
30
0.0
0
VERTEX
8
SLAB_00
10
4.079
20
59.104
30
0.0
0
VERTEX
8
SLAB_00
10
3.349
20
55.602
30
0.0
0
VERTEX
8
SLAB_00
10
2.718
20
52.164
30
0.0
0
VERTEX
8
SLAB_00
10
2.178
20
48.792
30
0.0
0
VERTEX
8
SLAB_00
10
1.721
20
45.488
30
0.0
0
VERTEX
8
SLAB_00
10
1.337
20
42.250
30
0.0
0
VERTEX
8
SLAB_00
10
1.021
20
39.078
30
0.0
0
VERTEX
8
SLAB_00
10
0.763
20
35.972
30
0.0
0
VERTEX
8
SLAB_00
10
0.557
20
32.929
30
0.0
0
VERTEX
8
SLAB_00
10
0.395
20
29.947
30
0.0
0
VERTEX
8
SLAB_00
10
0.271
20
27.023
30
0.0
0
VERTEX
8
SLAB_00
10
0.178
20
24.154
30
0.0
0
VERTEX
8
SLAB_00
10
0.112
20
21.335
30
0.0
0
VERTEX
8
SLAB_00
10
0.066
20
18.562
30
0.0
0
VERTEX
8
SLAB_00
10
0.036
20
15.831
30
0.0
0
VERTEX
8
SLAB_00
10
0.017
20
13.136
30
0.0
0
VERTEX
8
SLAB_00
10
0.007
20
10.472
30
0.0
0
VERTEX
8
SLAB_00
10
0.002
20
7.832
30
0.0
0
VERTEX
8
SLAB_00
10
0.000
20
5.211
30
0.0
0
VERTEX
8
SLAB_00
10
0.000
20
2.602
30
0.0
0
VERTEX
8
SLAB_00
10
0.000
20
0.000
30
0.0
0
VERTEX
8
SLAB_00
10
0.000
20
-2.602
30
0.0
0
VERTEX
8
SLAB_00
10
0.000
20
-5.211
30
0.0
0
VERTEX
8
SLAB_00
10
0.002
20
-7.832
30
0.0
0
VERTEX
8
SLAB_00
10
0.007
20
-10.472
30
0.0
0
VERTEX
8
SLAB_00
10
0.017
20
-13.136
30
0.0
0
VERTEX
8
SLAB_00
10
0.036
20
-15.831
30
0.0
0
VERTEX
8
SLAB_00
10
0.066
20
-18.562
30
0.0
0
VERTEX
8
SLAB_00
10
0.112
20
-21.335
30
0.0
0
VERTEX
8
SLAB_00
10
0.178
20
-24.154
30
0.0
0
VERTEX
8
SLAB_00
10
0.271
20
-27.023
30
0.0
0
VERTEX
8
SLAB_00
10
0.395
20
-29.947
30
0.0
0
VERTEX
8
SLAB_00
10
0.557
20
-32.929
30
0.0
0
VERTEX
8
SLAB_00
10
0.763
20
-35.972
30
0.0
0
VERTEX
8
SLAB_00
10
1.021
20
-39.078
30
0.0
0
VERTEX
8
SLAB_00
10
1.337
20
-42.250
30
0.0
0
VERTEX
8
SLAB_00
10
1.721
20
-45.488
30
0.0
0
VERTEX
8
SLAB_00
10
2.178
20
-48.792
30
0.0
0
VERTEX
8
SLAB_00
10
2.718
20
-52.164
30
0.0
0
VERTEX
8
SLAB_00
10
3.349
20
-55.602
30
0.0
0
VERTEX
8
SLAB_00
10
4.079
20
-59.104
30
0.0
0
VERTEX
8
SLAB_00
10
4.916
20
-62.668
30
0.0
0
VERTEX
8
SLAB_00
10
5.870
20
-66.291
30
0.0
0
VERTEX
8
SLAB_00
10
6.947
20
-69.969
30
0.0
0
VERTEX
8
SLAB_00
10
8.158
20
-73.698
30
0.0
0
VERTEX
8
SLAB_00
10
9.508
20
-77.473
30
0.0
0
VERTEX
8
SLAB_00
10
11.007
20
-81.287
30
0.0
0
VERTEX
8
SLAB_00
10
12.662
20
-85.135
30
0.0
0
VERTEX
8
SLAB_00
10
14.479
20
-89.008
30
0.0
0
VERTEX
8
SLAB_00
10
16.466
20
-92.899
30
0.0
0
VERTEX
8
SLAB_00
10
18.629
20
-96.799
30
0.0
0
VERTEX
8
SLAB_00
10
20.973
20
-100.699
30
0.0
0
VERTEX
8
SLAB_00
10
23.504
20
-104.589
30
0.0
0
VERTEX
8
SLAB_00
10
26.227
20
-108.459
30
0.0
0
VERTEX
8
SLAB_00
10
29.144
20
-112.298
30
0.0
0
VERTEX
8
SLAB_00
10
32.261
20
-116.095
30
0.0
0
VERTEX
8
SLAB_00
10
35.578
20
-119.838
30
0.0
0
VERTEX
8
SLAB_00
10
39.099
20
-123.515
30
0.0
0
VERTEX
8
SLAB_00
10
42.823
20
-127.113
30
0.0
0
VERTEX
8
SLAB_00
10
46.751
20
-130.621
30
0.0
0
VERTEX
8
SLAB_00
10
50.884
20
-134.024
30
0.0
0
VERTEX
8
SLAB_00
10
55.218
20
-137.312
30
0.0
0
VERTEX
8
SLAB_00
10
59.752
20
-140.469
30
0.0
0
VERTEX
8
SLAB_00
10
64.482
20
-143.483
30
0.0
0
VERTEX
8
SLAB_00
10
69.405
20
-146.342
30
0.0
0
VERTEX
8
SLAB_00
10
74.516
20
-149.032
30
0.0
0
VERTEX
8
SLAB_00
10
79.808
20
-151.540
30
0.0
0
VERTEX
8
SLAB_00
10
85.274
20
-153.854
30
0.0
0
VERTEX
8
SLAB_00
10
90.908
20
-155.962
30
0.0
0
VERTEX
8
SLAB_00
10
96.700
20
-157.851
30
0.0
0
VERTEX
8
SLAB_00
10
102.642
20
-159.510
30
0.0
0
VERTEX
8
SLAB_00
10
108.722
20
-160.929
30
0.0
0
VERTEX
8
SLAB_00
10
114.931
20
-162.096
30
0.0
0
VERTEX
8
SLAB_00
10
121.256
20
-163.002
30
0.0
0
VERTEX
8
SLAB_00
10
127.685
20
-163.637
30
0.0
0
VERTEX
8
SLAB_00
10
134.204
20
-163.993
30
0.0
0
VERTEX
8
SLAB_00
10
140.801
20
-164.061
30
0.0
0
VERTEX
8
SLAB_00
10
147.460
20
-163.835
30
0.0
0
VERTEX
8
SLAB_00
10
154.167
20
-163.308
30
0.0
0
VERTEX
8
SLAB_00
10
160.905
20
-162.475
30
0.0
0
VERTEX
8
SLAB_00
10
167.661
20
-161.331
30
0.0
0
VERTEX
8
SLAB_00
10
174.416
20
-159.873
30
0.0
0
VERTEX
8
SLAB_00
10
181.154
20
-158.098
30
0.0
0
VERTEX
8
SLAB_00
10
187.859
20
-156.003
30
0.0
0
VERTEX
8
SLAB_00
10
194.513
20
-153.590
30
0.0
0
VERTEX
8
SLAB_00
10
201.100
20
-150.857
30
0.0
0
VERTEX
8
SLAB_00
10
207.601
20
-147.806
30
0.0
0
VERTEX
8
SLAB_00
10
213.999
20
-144.440
30
0.0
0
VERTEX
8
SLAB_00
10
220.278
20
-140.761
30
0.0
0
VERTEX
8
SLAB_00
10
226.420
20
-136.775
30
0.0
0
VERTEX
8
SLAB_00
10
232.408
20
-132.488
30
0.0
0
VERTEX
8
SLAB_00
10
238.226
20
-127.904
30
0.0
0
VERTEX
8
SLAB_00
10
243.856
20
-123.033
30
0.0
0
VERTEX
8
SLAB_00
10
249.283
20
-117.882
30
0.0
0
VERTEX
8
SLAB_00
10
254.492
20
-112.462
30
0.0
0
VERTEX
8
SLAB_00
10
259.468
20
-106.782
30
0.0
0
VERTEX
8
SLAB_00
10
264.195
20
-100.854
30
0.0
0
VERTEX
8
SLAB_00
10
268.661
20
-94.691
30
0.0
0
VERTEX
8
SLAB_00
10
272.851
20
-88.305
30
0.0
0
VERTEX
8
SLAB_00
10
276.754
20
-81.710
30
0.0
0
VERTEX
8
SLAB_00
10
280.359
20
-74.921
30
0.0
0
VERTEX
8
SLAB_00
10
283.653
20
-67.953
30
0.0
0
VERTEX
8
SLAB_00
10
286.628
20
-60.822
30
0.0
0
VERTEX
8
SLAB_00
10
289.275
20
-53.546
30
0.0
0
VERTEX
8
SLAB_00
10
291.585
20
-46.140
30
0.0
0
VERTEX
8
SLAB_00
10
293.552
20
-38.622
30
0.0
0
VERTEX
8
SLAB_00
10
295.169
20
-31.011
30
0.0
0
VERTEX
8
SLAB_00
10
296.433
20
-23.324
30
0.0
0
VERTEX
8
SLAB_00
10
297.338
20
-15.581
30
0.0
0
VERTEX
8
SLAB_00
10
297.882
20
-7.800
30
0.0
0
SEQEND
8
SLAB_00
0
TEXT
8
TEXT
10
0.000
20
179.061
30
0.0
40
8.0
1
37: s'=+808 D=328
0
CIRCLE
8
DOWEL
10
15.000
20
18.000
30
0.0
40
3.250
0
TEXT
8
DOWEL
10
20.000
20
16.000
30
0.0
40
3.0
1
A
0
CIRCLE
8
DOWEL
10
15.000
20
-18.000
30
0.0
40
3.250
0
TEXT
8
DOWEL
10
20.000
20
-20.000
30
0.0
40
3.0
1
B
0
CIRCLE
8
DOWEL
10
45.000
20
18.000
30
0.0
40
3.250
0
TEXT
8
DOWEL
10
50.000
20
16.000
30
0.0
40
3.0
1
C
0
CIRCLE
8
DOWEL
10
45.000
20
-18.000
30
0.0
40
3.250
0
TEXT
8
DOWEL
10
50.000
20
-20.000
30
0.0
40
3.0
1
D
0
ENDSEC
0
EOF