0
SECTION
2
HEADER
9
$ACADVER
1
AC1009
9
$INSUNITS
70
4
0
ENDSEC
0
SECTION
2
TABLES
0
TABLE
2
LAYER
70
4
0
LAYER
2
0
70
0
62
7
6
CONTINUOUS
0
LAYER
2
TEXT
70
0
62
1
6
CONTINUOUS
0
LAYER
2
DOWEL
70
0
62
5
6
CONTINUOUS
0
LAYER
2
SLAB_00
70
0
62
2
6
CONTINUOUS
0
ENDTAB
0
ENDSEC
0
SECTION
2
ENTITIES
0
POLYLINE
8
SLAB_00
66
1
70
1
10
0.0
20
0.0
30
0.0
0
VERTEX
8
SLAB_00
10
326.772
20
0.000
30
0.0
0
VERTEX
8
SLAB_00
10
326.573
20
8.551
30
0.0
0
VERTEX
8
SLAB_00
10
325.976
20
17.082
30
0.0
0
VERTEX
8
SLAB_00
10
324.984
20
25.571
30
0.0
0
VERTEX
8
SLAB_00
10
323.599
20
33.998
30
0.0
0
VERTEX
8
SLAB_00
10
321.826
20
42.342
30
0.0
0
VERTEX
8
SLAB_00
10
319.670
20
50.584
30
0.0
0
VERTEX
8
SLAB_00
10
317.137
20
58.703
30
0.0
0
VERTEX
8
SLAB_00
10
314.236
20
66.681
30
0.0
0
VERTEX
8
SLAB_00
10
310.974
20
74.498
30
0.0
0
VERTEX
8
SLAB_00
10
307.362
20
82.137
30
0.0
0
VERTEX
8
SLAB_00
10
303.410
20
89.580
30
0.0
0
VERTEX
8
SLAB_00
10
299.131
20
96.810
30
0.0
0
VERTEX
8
SLAB_00
10
294.537
20
103.811
30
0.0
0
VERTEX
8
SLAB_00
10
289.641
20
110.568
30
0.0
0
VERTEX
8
SLAB_00
10
284.459
20
117.067
30
0.0
0
VERTEX
8
SLAB_00
10
279.004
20
123.294
30
0.0
0
VERTEX
8
SLAB_00
10
273.294
20
129.236
30
0.0
0
VERTEX
8
SLAB_00
10
267.343
20
134.883
30
0.0
0
VERTEX
8
SLAB_00
10
261.171
20
140.223
30
0.0
0
VERTEX
8
SLAB_00
10
254.793
20
145.248
30
0.0
0
VERTEX
8
SLAB_00
10
248.228
20
149.949
30
0.0
0
VERTEX
8
SLAB_00
10
241.495
20
154.319
30
0.0
0
VERTEX
8
SLAB_00
10
234.611
20
158.351
30
0.0
0
VERTEX
8
SLAB_00
10
227.596
20
162.042
30
0.0
0
VERTEX
8
SLAB_00
10
220.469
20
165.387
30
0.0
0
VERTEX
8
SLAB_00
10
213.248
20
168.383
30
0.0
0
VERTEX
8
SLAB_00
10
205.953
20
171.029
30
0.0
0
VERTEX
8
SLAB_00
10
198.602
20
173.325
30
0.0
0
VERTEX
8
SLAB_00
10
191.215
20
175.272
30
0.0
0
VERTEX
8
SLAB_00
10
183.809
20
176.870
30
0.0
0
VERTEX
8
SLAB_00
10
176.403
20
178.124
30
0.0
0
VERTEX
8
SLAB_00
10
169.015
20
179.038
30
0.0
0
VERTEX
8
SLAB_00
10
161.663
20
179.615
30
0.0
0
VERTEX
8
SLAB_00
10
154.362
20
179.863
30
0.0
0
VERTEX
8
SLAB_00
10
147.130
20
179.788
30
0.0
0
VERTEX
8
SLAB_00
10
139.983
20
179.398
30
0.0
0
VERTEX
8
SLAB_00
10
132.935
20
178.702
30
0.0
0
VERTEX
8
SLAB_00
10
126.001
20
177.709
30
0.0
0
VERTEX
8
SLAB_00
10
119.194
20
176.429
30
0.0
0
VERTEX
8
SLAB_00
10
112.528
20
174.874
30
0.0
0
VERTEX
8
SLAB_00
10
106.014
20
173.055
30
0.0
0
VERTEX
8
SLAB_00
10
99.664
20
170.983
30
0.0
0
VERTEX
8
SLAB_00
10
93.488
20
168.672
30
0.0
0
VERTEX
8
SLAB_00
10
87.494
20
166.136
30
0.0
0
VERTEX
8
SLAB_00
10
81.693
20
163.386
30
0.0
0
VERTEX
8
SLAB_00
10
76.090
20
160.437
30
0.0
0
VERTEX
8
SLAB_00
10
70.693
20
157.303
30
0.0
0
VERTEX
8
SLAB_00
10
65.507
20
153.998
30
0.0
0
VERTEX
8
SLAB_00
10
60.536
20
150.537
30
0.0
0
VERTEX
8
SLAB_00
10
55.785
20
146.933
30
0.0
0
VERTEX
8
SLAB_00
10
51.254
20
143.202
30
0.0
0
VERTEX
8
SLAB_00
10
46.947
20
139.356
30
0.0
0
VERTEX
8
SLAB_00
10
42.864
20
135.411
30
0.0
0
VERTEX
8
SLAB_00
10
39.005
20
131.380
30
0.0
0
VERTEX
8
SLAB_00
10
35.368
20
127.277
30
0.0
0
VERTEX
8
SLAB_00
10
31.951
20
123.114
30
0.0
0
VERTEX
8
SLAB_00
10
28.753
20
118.906
30
0.0
0
VERTEX
8
SLAB_00
10
25.768
20
114.663
30
0.0
0
VERTEX
8
SLAB_00
10
22.993
20
110.398
30
0.0
0
VERTEX
8
SLAB_00
10
20.423
20
106.122
30
0.0
0
VERTEX
8
SLAB_00
10
18.052
20
101.846
30
0.0
0
VERTEX
8
SLAB_00
10
15.874
20
97.581
30
0.0
0
VERTEX
8
SLAB_00
10
13.881
20
93.335
30
0.0
0
VERTEX
8
SLAB_00
10
12.067
20
89.117
30
0.0
0
VERTEX
8
SLAB_00
10
10.424
20
84.935
30
0.0
0
VERTEX
8
SLAB_00
10
8.943
20
80.797
30
0.0
0
VERTEX
8
SLAB_00
10
7.617
20
76.708
30
0.0
0
VERTEX
8
SLAB_00
10
6.435
20
72.676
30
0.0
0
VERTEX
8
SLAB_00
10
5.390
20
68.704
30
0.0
0
VERTEX
8
SLAB_00
10
4.471
20
64.796
30
0.0
0
VERTEX
8
SLAB_00
10
3.671
20
60.957
30
0.0
0
VERTEX
8
SLAB_00
10
2.980
20
57.188
30
0.0
0
VERTEX
8
SLAB_00
10
2.388
20
53.492
30
0.0
0
VERTEX
8
SLAB_00
10
1.886
20
49.869
30
0.0
0
VERTEX
8
SLAB_00
10
1.466
20
46.319
30
0.0
0
VERTEX
8
SLAB_00
10
1.119
20
42.842
30
0.0
0
VERTEX
8
SLAB_00
10
0.837
20
39.436
30
0.0
0
VERTEX
8
SLAB_00
10
0.611
20
36.100
30
0.0
0
VERTEX
8
SLAB_00
10
0.433
20
32.831
30
0.0
0
VERTEX
8
SLAB_00
10
0.297
20
29.626
30
0.0
0
VERTEX
8
SLAB_00
10
0.196
20
26.480
30
0.0
0
VERTEX
8
SLAB_00
10
0.123
20
23.390
30
0.0
0
VERTEX
8
SLAB_00
10
0.072
20
20.350
30
0.0
0
VERTEX
8
SLAB_00
10
0.039
20
17.356
30
0.0
0
VERTEX
8
SLAB_00
10
0.019
20
14.401
30
0.0
0
VERTEX
8
SLAB_00
10
0.008
20
11.480
30
0.0
0
VERTEX
8
SLAB_00
10
0.002
20
8.586
30
0.0
0
VERTEX
8
SLAB_00
10
0.000
20
5.712
30
0.0
0
VERTEX
8
SLAB_00
10
0.000
20
2.853
30
0.0
0
VERTEX
8
SLAB_00
10
0.000
20
0.000
30
0.0
0
VERTEX
8
SLAB_00
10
0.000
20
-2.853
30
0.0
0
VERTEX
8
SLAB_00
10
0.000
20
-5.712
30
0.0
0
VERTEX
8
SLAB_00
10
0.002
20
-8.586
30
0.0
0
VERTEX
8
SLAB_00
10
0.008
20
-11.480
30
0.0
0
VERTEX
8
SLAB_00
10
0.019
20
-14.401
30
0.0
0
VERTEX
8
SLAB_00
10
0.039
20
-17.356
30
0.0
0
VERTEX
8
SLAB_00
10
0.072
20
-20.350
30
0.0
0
VERTEX
8
SLAB_00
10
0.123
20
-23.390
30
0.0
0
VERTEX
8
SLAB_00
10
0.196
20
-26.480
30
0.0
0
VERTEX
8
SLAB_00
10
0.297
20
-29.626
30
0.0
0
VERTEX
8
SLAB_00
10
0.433
20
-32.831
30
0.0
0
VERTEX
8
SLAB_00
10
0.611
20
-36.100
30
0.0
0
VERTEX
8
SLAB_00
10
0.837
20
-39.436
30
0.0
0
VERTEX
8
SLAB_00
10
1.119
20
-42.842
30
0.0
0
VERTEX
8
SLAB_00
10
1.466
20
-46.319
30
0.0
0
VERTEX
8
SLAB_00
10
1.886
20
-49.869
30
0.0
0
VERTEX
8
SLAB_00
10
2.388
20
-53.492
30
0.0
0
VERTEX
8
SLAB_00
10
2.980
20
-57.188
30
0.0
0
VERTEX
8
SLAB_00
10
3.671
20
-60.957
30
0.0
0
VERTEX
8
SLAB_00
10
4.471
20
-64.796
30
0.0
0
VERTEX
8
SLAB_00
10
5.390
20
-68.704
30
0.0
0
VERTEX
8
SLAB_00
10
6.435
20
-72.676
30
0.0
0
VERTEX
8
SLAB_00
10
7.617
20
-76.708
30
0.0
0
VERTEX
8
SLAB_00
10
8.943
20
-80.797
30
0.0
0
VERTEX
8
SLAB_00
10
10.424
20
-84.935
30
0.0
0
VERTEX
8
SLAB_00
10
12.067
20
-89.117
30
0.0
0
VERTEX
8
SLAB_00
10
13.881
20
-93.335
30
0.0
0
VERTEX
8
SLAB_00
10
15.874
20
-97.581
30
0.0
0
VERTEX
8
SLAB_00
10
18.052
20
-101.846
30
0.0
0
VERTEX
8
SLAB_00
10
20.423
20
-106.122
30
0.0
0
VERTEX
8
SLAB_00
10
22.993
20
-110.398
30
0.0
0
VERTEX
8
SLAB_00
10
25.768
20
-114.663
30
0.0
0
VERTEX
8
SLAB_00
10
28.753
20
-118.906
30
0.0
0
VERTEX
8
SLAB_00
10
31.951
20
-123.114
30
0.0
0
VERTEX
8
SLAB_00
10
35.368
20
-127.277
30
0.0
0
VERTEX
8
SLAB_00
10
39.005
20
-131.380
30
0.0
0
VERTEX
8
SLAB_00
10
42.864
20
-135.411
30
0.0
0
VERTEX
8
SLAB_00
10
46.947
20
-139.356
30
0.0
0
VERTEX
8
SLAB_00
10
51.254
20
-143.202
30
0.0
0
VERTEX
8
SLAB_00
10
55.785
20
-146.933
30
0.0
0
VERTEX
8
SLAB_00
10
60.536
20
-150.537
30
0.0
0
VERTEX
8
SLAB_00
10
65.507
20
-153.998
30
0.0
0
VERTEX
8
SLAB_00
10
70.693
20
-157.303
30
0.0
0
VERTEX
8
SLAB_00
10
76.090
20
-160.437
30
0.0
0
VERTEX
8
SLAB_00
10
81.693
20
-163.386
30
0.0
0
VERTEX
8
SLAB_00
10
87.494
20
-166.136
30
0.0
0
VERTEX
8
SLAB_00
10
93.488
20
-168.672
30
0.0
0
VERTEX
8
SLAB_00
10
99.664
20
-170.983
30
0.0
0
VERTEX
8
SLAB_00
10
106.014
20
-173.055
30
0.0
0
VERTEX
8
SLAB_00
10
112.528
20
-174.874
30
0.0
0
VERTEX
8
SLAB_00
10
119.194
20
-176.429
30
0.0
0
VERTEX
8
SLAB_00
10
126.001
20
-177.709
30
0.0
0
VERTEX
8
SLAB_00
10
132.935
20
-178.702
30
0.0
0
VERTEX
8
SLAB_00
10
139.983
20
-179.398
30
0.0
0
VERTEX
8
SLAB_00
10
147.130
20
-179.788
30
0.0
0
VERTEX
8
SLAB_00
10
154.362
20
-179.863
30
0.0
0
VERTEX
8
SLAB_00
10
161.663
20
-179.615
30
0.0
0
VERTEX
8
SLAB_00
10
169.015
20
-179.038
30
0.0
0
VERTEX
8
SLAB_00
10
176.403
20
-178.124
30
0.0
0
VERTEX
8
SLAB_00
10
183.809
20
-176.870
30
0.0
0
VERTEX
8
SLAB_00
10
191.215
20
-175.272
30
0.0
0
VERTEX
8
SLAB_00
10
198.602
20
-173.325
30
0.0
0
VERTEX
8
SLAB_00
10
205.953
20
-171.029
30
0.0
0
VERTEX
8
SLAB_00
10
213.248
20
-168.383
30
0.0
0
VERTEX
8
SLAB_00
10
220.469
20
-165.387
30
0.0
0
VERTEX
8
SLAB_00
10
227.596
20
-162.042
30
0.0
0
VERTEX
8
SLAB_00
10
234.611
20
-158.351
30
0.0
0
VERTEX
8
SLAB_00
10
241.495
20
-154.319
30
0.0
0
VERTEX
8
SLAB_00
10
248.228
20
-149.949
30
0.0
0
VERTEX
8
SLAB_00
10
254.793
20
-145.248
30
0.0
0
VERTEX
8
SLAB_00
10
261.171
20
-140.223
30
0.0
0
VERTEX
8
SLAB_00
10
267.343
20
-134.883
30
0.0
0
VERTEX
8
SLAB_00
10
273.294
20
-129.236
30
0.0
0
VERTEX
8
SLAB_00
10
279.004
20
-123.294
30
0.0
0
VERTEX
8
SLAB_00
10
284.459
20
-117.067
30
0.0
0
VERTEX
8
SLAB_00
10
289.641
20
-110.568
30
0.0
0
VERTEX
8
SLAB_00
10
294.537
20
-103.811
30
0.0
0
VERTEX
8
SLAB_00
10
299.131
20
-96.810
30
0.0
0
VERTEX
8
SLAB_00
10
303.410
20
-89.580
30
0.0
0
VERTEX
8
SLAB_00
10
307.362
20
-82.137
30
0.0
0
VERTEX
8
SLAB_00
10
310.974
20
-74.498
30
0.0
0
VERTEX
8
SLAB_00
10
314.236
20
-66.681
30
0.0
0
VERTEX
8
SLAB_00
10
317.137
20
-58.703
30
0.0
0
VERTEX
8
SLAB_00
10
319.670
20
-50.584
30
0.0
0
VERTEX
8
SLAB_00
10
321.826
20
-42.342
30
0.0
0
VERTEX
8
SLAB_00
10
323.599
20
-33.998
30
0.0
0
VERTEX
8
SLAB_00
10
324.984
20
-25.571
30
0.0
0
VERTEX
8
SLAB_00
10
325.976
20
-17.082
30
0.0
0
VERTEX
8
SLAB_00
10
326.573
20
-8.551
30
0.0
0
SEQEND
8
SLAB_00
0
TEXT
8
TEXT
10
0.000
20
194.863
30
0.0
40
8.0
1
24: s'=+503 D=360
0
CIRCLE
8
DOWEL
10
15.000
20
18.000
30
0.0
40
3.250
0
TEXT
8
DOWEL
10
20.000
20
16.000
30
0.0
40
3.0
1
A
0
CIRCLE
8
DOWEL
10
15.000
20
-18.000
30
0.0
40
3.250
0
TEXT
8
DOWEL
10
20.000
20
-20.000
30
0.0
40
3.0
1
B
0
CIRCLE
8
DOWEL
10
45.000
20
18.000
30
0.0
40
3.250
0
TEXT
8
DOWEL
10
50.000
20
16.000
30
0.0
40
3.0
1
C
0
CIRCLE
8
DOWEL
10
45.000
20
-18.000
30
0.0
40
3.250
0
TEXT
8
DOWEL
10
50.000
20
-20.000
30
0.0
40
3.0
1
D
0
ENDSEC
0
EOF