0
SECTION
2
HEADER
9
$ACADVER
1
AC1009
9
$INSUNITS
70
4
0
ENDSEC
0
SECTION
2
TABLES
0
TABLE
2
LAYER
70
4
0
LAYER
2
0
70
0
62
7
6
CONTINUOUS
0
LAYER
2
TEXT
70
0
62
1
6
CONTINUOUS
0
LAYER
2
DOWEL
70
0
62
5
6
CONTINUOUS
0
LAYER
2
SLAB_00
70
0
62
2
6
CONTINUOUS
0
ENDTAB
0
ENDSEC
0
SECTION
2
ENTITIES
0
POLYLINE
8
SLAB_00
66
1
70
1
10
0.0
20
0.0
30
0.0
0
VERTEX
8
SLAB_00
10
262.796
20
0.000
30
0.0
0
VERTEX
8
SLAB_00
10
262.636
20
6.877
30
0.0
0
VERTEX
8
SLAB_00
10
262.156
20
13.738
30
0.0
0
VERTEX
8
SLAB_00
10
261.358
20
20.565
30
0.0
0
VERTEX
8
SLAB_00
10
260.245
20
27.342
30
0.0
0
VERTEX
8
SLAB_00
10
258.819
20
34.052
30
0.0
0
VERTEX
8
SLAB_00
10
257.085
20
40.680
30
0.0
0
VERTEX
8
SLAB_00
10
255.048
20
47.210
30
0.0
0
VERTEX
8
SLAB_00
10
252.714
20
53.626
30
0.0
0
VERTEX
8
SLAB_00
10
250.091
20
59.913
30
0.0
0
VERTEX
8
SLAB_00
10
247.186
20
66.056
30
0.0
0
VERTEX
8
SLAB_00
10
244.009
20
72.042
30
0.0
0
VERTEX
8
SLAB_00
10
240.567
20
77.856
30
0.0
0
VERTEX
8
SLAB_00
10
236.872
20
83.487
30
0.0
0
VERTEX
8
SLAB_00
10
232.935
20
88.921
30
0.0
0
VERTEX
8
SLAB_00
10
228.767
20
94.148
30
0.0
0
VERTEX
8
SLAB_00
10
224.381
20
99.155
30
0.0
0
VERTEX
8
SLAB_00
10
219.788
20
103.934
30
0.0
0
VERTEX
8
SLAB_00
10
215.003
20
108.476
30
0.0
0
VERTEX
8
SLAB_00
10
210.039
20
112.770
30
0.0
0
VERTEX
8
SLAB_00
10
204.909
20
116.811
30
0.0
0
VERTEX
8
SLAB_00
10
199.630
20
120.592
30
0.0
0
VERTEX
8
SLAB_00
10
194.215
20
124.106
30
0.0
0
VERTEX
8
SLAB_00
10
188.679
20
127.349
30
0.0
0
VERTEX
8
SLAB_00
10
183.037
20
130.317
30
0.0
0
VERTEX
8
SLAB_00
10
177.305
20
133.007
30
0.0
0
VERTEX
8
SLAB_00
10
171.498
20
135.417
30
0.0
0
VERTEX
8
SLAB_00
10
165.631
20
137.545
30
0.0
0
VERTEX
8
SLAB_00
10
159.720
20
139.391
30
0.0
0
VERTEX
8
SLAB_00
10
153.779
20
140.957
30
0.0
0
VERTEX
8
SLAB_00
10
147.823
20
142.243
30
0.0
0
VERTEX
8
SLAB_00
10
141.867
20
143.251
30
0.0
0
VERTEX
8
SLAB_00
10
135.925
20
143.986
30
0.0
0
VERTEX
8
SLAB_00
10
130.012
20
144.450
30
0.0
0
VERTEX
8
SLAB_00
10
124.141
20
144.649
30
0.0
0
VERTEX
8
SLAB_00
10
118.325
20
144.589
30
0.0
0
VERTEX
8
SLAB_00
10
112.577
20
144.275
30
0.0
0
VERTEX
8
SLAB_00
10
106.909
20
143.715
30
0.0
0
VERTEX
8
SLAB_00
10
101.332
20
142.917
30
0.0
0
VERTEX
8
SLAB_00
10
95.858
20
141.888
30
0.0
0
VERTEX
8
SLAB_00
10
90.497
20
140.637
30
0.0
0
VERTEX
8
SLAB_00
10
85.259
20
139.174
30
0.0
0
VERTEX
8
SLAB_00
10
80.152
20
137.508
30
0.0
0
VERTEX
8
SLAB_00
10
75.185
20
135.650
30
0.0
0
VERTEX
8
SLAB_00
10
70.365
20
133.609
30
0.0
0
VERTEX
8
SLAB_00
10
65.699
20
131.398
30
0.0
0
VERTEX
8
SLAB_00
10
61.193
20
129.027
30
0.0
0
VERTEX
8
SLAB_00
10
56.853
20
126.506
30
0.0
0
VERTEX
8
SLAB_00
10
52.682
20
123.848
30
0.0
0
VERTEX
8
SLAB_00
10
48.684
20
121.065
30
0.0
0
VERTEX
8
SLAB_00
10
44.863
20
118.167
30
0.0
0
VERTEX
8
SLAB_00
10
41.220
20
115.166
30
0.0
0
VERTEX
8
SLAB_00
10
37.756
20
112.073
30
0.0
0
VERTEX
8
SLAB_00
10
34.472
20
108.900
30
0.0
0
VERTEX
8
SLAB_00
10
31.368
20
105.658
30
0.0
0
VERTEX
8
SLAB_00
10
28.444
20
102.358
30
0.0
0
VERTEX
8
SLAB_00
10
25.696
20
99.011
30
0.0
0
VERTEX
8
SLAB_00
10
23.124
20
95.626
30
0.0
0
VERTEX
8
SLAB_00
10
20.723
20
92.214
30
0.0
0
VERTEX
8
SLAB_00
10
18.492
20
88.784
30
0.0
0
VERTEX
8
SLAB_00
10
16.425
20
85.346
30
0.0
0
VERTEX
8
SLAB_00
10
14.518
20
81.907
30
0.0
0
VERTEX
8
SLAB_00
10
12.766
20
78.476
30
0.0
0
VERTEX
8
SLAB_00
10
11.164
20
75.061
30
0.0
0
VERTEX
8
SLAB_00
10
9.705
20
71.669
30
0.0
0
VERTEX
8
SLAB_00
10
8.383
20
68.306
30
0.0
0
VERTEX
8
SLAB_00
10
7.192
20
64.978
30
0.0
0
VERTEX
8
SLAB_00
10
6.125
20
61.690
30
0.0
0
VERTEX
8
SLAB_00
10
5.175
20
58.447
30
0.0
0
VERTEX
8
SLAB_00
10
4.334
20
55.253
30
0.0
0
VERTEX
8
SLAB_00
10
3.596
20
52.111
30
0.0
0
VERTEX
8
SLAB_00
10
2.952
20
49.023
30
0.0
0
VERTEX
8
SLAB_00
10
2.396
20
45.992
30
0.0
0
VERTEX
8
SLAB_00
10
1.920
20
43.019
30
0.0
0
VERTEX
8
SLAB_00
10
1.517
20
40.105
30
0.0
0
VERTEX
8
SLAB_00
10
1.179
20
37.251
30
0.0
0
VERTEX
8
SLAB_00
10
0.900
20
34.454
30
0.0
0
VERTEX
8
SLAB_00
10
0.673
20
31.715
30
0.0
0
VERTEX
8
SLAB_00
10
0.491
20
29.032
30
0.0
0
VERTEX
8
SLAB_00
10
0.348
20
26.403
30
0.0
0
VERTEX
8
SLAB_00
10
0.239
20
23.826
30
0.0
0
VERTEX
8
SLAB_00
10
0.157
20
21.296
30
0.0
0
VERTEX
8
SLAB_00
10
0.099
20
18.811
30
0.0
0
VERTEX
8
SLAB_00
10
0.058
20
16.366
30
0.0
0
VERTEX
8
SLAB_00
10
0.031
20
13.958
30
0.0
0
VERTEX
8
SLAB_00
10
0.015
20
11.582
30
0.0
0
VERTEX
8
SLAB_00
10
0.006
20
9.233
30
0.0
0
VERTEX
8
SLAB_00
10
0.002
20
6.905
30
0.0
0
VERTEX
8
SLAB_00
10
0.000
20
4.594
30
0.0
0
VERTEX
8
SLAB_00
10
0.000
20
2.294
30
0.0
0
VERTEX
8
SLAB_00
10
0.000
20
0.000
30
0.0
0
VERTEX
8
SLAB_00
10
0.000
20
-2.294
30
0.0
0
VERTEX
8
SLAB_00
10
0.000
20
-4.594
30
0.0
0
VERTEX
8
SLAB_00
10
0.002
20
-6.905
30
0.0
0
VERTEX
8
SLAB_00
10
0.006
20
-9.233
30
0.0
0
VERTEX
8
SLAB_00
10
0.015
20
-11.582
30
0.0
0
VERTEX
8
SLAB_00
10
0.031
20
-13.958
30
0.0
0
VERTEX
8
SLAB_00
10
0.058
20
-16.366
30
0.0
0
VERTEX
8
SLAB_00
10
0.099
20
-18.811
30
0.0
0
VERTEX
8
SLAB_00
10
0.157
20
-21.296
30
0.0
0
VERTEX
8
SLAB_00
10
0.239
20
-23.826
30
0.0
0
VERTEX
8
SLAB_00
10
0.348
20
-26.403
30
0.0
0
VERTEX
8
SLAB_00
10
0.491
20
-29.032
30
0.0
0
VERTEX
8
SLAB_00
10
0.673
20
-31.715
30
0.0
0
VERTEX
8
SLAB_00
10
0.900
20
-34.454
30
0.0
0
VERTEX
8
SLAB_00
10
1.179
20
-37.251
30
0.0
0
VERTEX
8
SLAB_00
10
1.517
20
-40.105
30
0.0
0
VERTEX
8
SLAB_00
10
1.920
20
-43.019
30
0.0
0
VERTEX
8
SLAB_00
10
2.396
20
-45.992
30
0.0
0
VERTEX
8
SLAB_00
10
2.952
20
-49.023
30
0.0
0
VERTEX
8
SLAB_00
10
3.596
20
-52.111
30
0.0
0
VERTEX
8
SLAB_00
10
4.334
20
-55.253
30
0.0
0
VERTEX
8
SLAB_00
10
5.175
20
-58.447
30
0.0
0
VERTEX
8
SLAB_00
10
6.125
20
-61.690
30
0.0
0
VERTEX
8
SLAB_00
10
7.192
20
-64.978
30
0.0
0
VERTEX
8
SLAB_00
10
8.383
20
-68.306
30
0.0
0
VERTEX
8
SLAB_00
10
9.705
20
-71.669
30
0.0
0
VERTEX
8
SLAB_00
10
11.164
20
-75.061
30
0.0
0
VERTEX
8
SLAB_00
10
12.766
20
-78.476
30
0.0
0
VERTEX
8
SLAB_00
10
14.518
20
-81.907
30
0.0
0
VERTEX
8
SLAB_00
10
16.425
20
-85.346
30
0.0
0
VERTEX
8
SLAB_00
10
18.492
20
-88.784
30
0.0
0
VERTEX
8
SLAB_00
10
20.723
20
-92.214
30
0.0
0
VERTEX
8
SLAB_00
10
23.124
20
-95.626
30
0.0
0
VERTEX
8
SLAB_00
10
25.696
20
-99.011
30
0.0
0
VERTEX
8
SLAB_00
10
28.444
20
-102.358
30
0.0
0
VERTEX
8
SLAB_00
10
31.368
20
-105.658
30
0.0
0
VERTEX
8
SLAB_00
10
34.472
20
-108.900
30
0.0
0
VERTEX
8
SLAB_00
10
37.756
20
-112.073
30
0.0
0
VERTEX
8
SLAB_00
10
41.220
20
-115.166
30
0.0
0
VERTEX
8
SLAB_00
10
44.863
20
-118.167
30
0.0
0
VERTEX
8
SLAB_00
10
48.684
20
-121.065
30
0.0
0
VERTEX
8
SLAB_00
10
52.682
20
-123.848
30
0.0
0
VERTEX
8
SLAB_00
10
56.853
20
-126.506
30
0.0
0
VERTEX
8
SLAB_00
10
61.193
20
-129.027
30
0.0
0
VERTEX
8
SLAB_00
10
65.699
20
-131.398
30
0.0
0
VERTEX
8
SLAB_00
10
70.365
20
-133.609
30
0.0
0
VERTEX
8
SLAB_00
10
75.185
20
-135.650
30
0.0
0
VERTEX
8
SLAB_00
10
80.152
20
-137.508
30
0.0
0
VERTEX
8
SLAB_00
10
85.259
20
-139.174
30
0.0
0
VERTEX
8
SLAB_00
10
90.497
20
-140.637
30
0.0
0
VERTEX
8
SLAB_00
10
95.858
20
-141.888
30
0.0
0
VERTEX
8
SLAB_00
10
101.332
20
-142.917
30
0.0
0
VERTEX
8
SLAB_00
10
106.909
20
-143.715
30
0.0
0
VERTEX
8
SLAB_00
10
112.577
20
-144.275
30
0.0
0
VERTEX
8
SLAB_00
10
118.325
20
-144.589
30
0.0
0
VERTEX
8
SLAB_00
10
124.141
20
-144.649
30
0.0
0
VERTEX
8
SLAB_00
10
130.012
20
-144.450
30
0.0
0
VERTEX
8
SLAB_00
10
135.925
20
-143.986
30
0.0
0
VERTEX
8
SLAB_00
10
141.867
20
-143.251
30
0.0
0
VERTEX
8
SLAB_00
10
147.823
20
-142.243
30
0.0
0
VERTEX
8
SLAB_00
10
153.779
20
-140.957
30
0.0
0
VERTEX
8
SLAB_00
10
159.720
20
-139.391
30
0.0
0
VERTEX
8
SLAB_00
10
165.631
20
-137.545
30
0.0
0
VERTEX
8
SLAB_00
10
171.498
20
-135.417
30
0.0
0
VERTEX
8
SLAB_00
10
177.305
20
-133.007
30
0.0
0
VERTEX
8
SLAB_00
10
183.037
20
-130.317
30
0.0
0
VERTEX
8
SLAB_00
10
188.679
20
-127.349
30
0.0
0
VERTEX
8
SLAB_00
10
194.215
20
-124.106
30
0.0
0
VERTEX
8
SLAB_00
10
199.630
20
-120.592
30
0.0
0
VERTEX
8
SLAB_00
10
204.909
20
-116.811
30
0.0
0
VERTEX
8
SLAB_00
10
210.039
20
-112.770
30
0.0
0
VERTEX
8
SLAB_00
10
215.003
20
-108.476
30
0.0
0
VERTEX
8
SLAB_00
10
219.788
20
-103.934
30
0.0
0
VERTEX
8
SLAB_00
10
224.381
20
-99.155
30
0.0
0
VERTEX
8
SLAB_00
10
228.767
20
-94.148
30
0.0
0
VERTEX
8
SLAB_00
10
232.935
20
-88.921
30
0.0
0
VERTEX
8
SLAB_00
10
236.872
20
-83.487
30
0.0
0
VERTEX
8
SLAB_00
10
240.567
20
-77.856
30
0.0
0
VERTEX
8
SLAB_00
10
244.009
20
-72.042
30
0.0
0
VERTEX
8
SLAB_00
10
247.186
20
-66.056
30
0.0
0
VERTEX
8
SLAB_00
10
250.091
20
-59.913
30
0.0
0
VERTEX
8
SLAB_00
10
252.714
20
-53.626
30
0.0
0
VERTEX
8
SLAB_00
10
255.048
20
-47.210
30
0.0
0
VERTEX
8
SLAB_00
10
257.085
20
-40.680
30
0.0
0
VERTEX
8
SLAB_00
10
258.819
20
-34.052
30
0.0
0
VERTEX
8
SLAB_00
10
260.245
20
-27.342
30
0.0
0
VERTEX
8
SLAB_00
10
261.358
20
-20.565
30
0.0
0
VERTEX
8
SLAB_00
10
262.156
20
-13.738
30
0.0
0
VERTEX
8
SLAB_00
10
262.636
20
-6.877
30
0.0
0
SEQEND
8
SLAB_00
0
TEXT
8
TEXT
10
0.000
20
159.649
30
0.0
40
8.0
1
10: s'=+148 D=289
0
CIRCLE
8
DOWEL
10
15.000
20
18.000
30
0.0
40
3.250
0
TEXT
8
DOWEL
10
20.000
20
16.000
30
0.0
40
3.0
1
A
0
CIRCLE
8
DOWEL
10
15.000
20
-18.000
30
0.0
40
3.250
0
TEXT
8
DOWEL
10
20.000
20
-20.000
30
0.0
40
3.0
1
B
0
CIRCLE
8
DOWEL
10
45.000
20
18.000
30
0.0
40
3.250
0
TEXT
8
DOWEL
10
50.000
20
16.000
30
0.0
40
3.0
1
C
0
CIRCLE
8
DOWEL
10
45.000
20
-18.000
30
0.0
40
3.250
0
TEXT
8
DOWEL
10
50.000
20
-20.000
30
0.0
40
3.0
1
D
0
ENDSEC
0
EOF