0
SECTION
2
HEADER
9
$ACADVER
1
AC1009
9
$INSUNITS
70
4
0
ENDSEC
0
SECTION
2
TABLES
0
TABLE
2
LAYER
70
4
0
LAYER
2
0
70
0
62
7
6
CONTINUOUS
0
LAYER
2
TEXT
70
0
62
1
6
CONTINUOUS
0
LAYER
2
DOWEL
70
0
62
5
6
CONTINUOUS
0
LAYER
2
SLAB_00
70
0
62
2
6
CONTINUOUS
0
ENDTAB
0
ENDSEC
0
SECTION
2
ENTITIES
0
POLYLINE
8
SLAB_00
66
1
70
1
10
0.0
20
0.0
30
0.0
0
VERTEX
8
SLAB_00
10
312.636
20
0.000
30
0.0
0
VERTEX
8
SLAB_00
10
312.445
20
8.181
30
0.0
0
VERTEX
8
SLAB_00
10
311.875
20
16.343
30
0.0
0
VERTEX
8
SLAB_00
10
310.925
20
24.465
30
0.0
0
VERTEX
8
SLAB_00
10
309.601
20
32.527
30
0.0
0
VERTEX
8
SLAB_00
10
307.904
20
40.510
30
0.0
0
VERTEX
8
SLAB_00
10
305.841
20
48.395
30
0.0
0
VERTEX
8
SLAB_00
10
303.418
20
56.163
30
0.0
0
VERTEX
8
SLAB_00
10
300.642
20
63.796
30
0.0
0
VERTEX
8
SLAB_00
10
297.521
20
71.275
30
0.0
0
VERTEX
8
SLAB_00
10
294.066
20
78.584
30
0.0
0
VERTEX
8
SLAB_00
10
290.285
20
85.705
30
0.0
0
VERTEX
8
SLAB_00
10
286.191
20
92.622
30
0.0
0
VERTEX
8
SLAB_00
10
281.796
20
99.320
30
0.0
0
VERTEX
8
SLAB_00
10
277.112
20
105.785
30
0.0
0
VERTEX
8
SLAB_00
10
272.153
20
112.003
30
0.0
0
VERTEX
8
SLAB_00
10
266.935
20
117.960
30
0.0
0
VERTEX
8
SLAB_00
10
261.471
20
123.646
30
0.0
0
VERTEX
8
SLAB_00
10
255.778
20
129.048
30
0.0
0
VERTEX
8
SLAB_00
10
249.873
20
134.157
30
0.0
0
VERTEX
8
SLAB_00
10
243.771
20
138.965
30
0.0
0
VERTEX
8
SLAB_00
10
237.490
20
143.462
30
0.0
0
VERTEX
8
SLAB_00
10
231.048
20
147.643
30
0.0
0
VERTEX
8
SLAB_00
10
224.462
20
151.501
30
0.0
0
VERTEX
8
SLAB_00
10
217.750
20
155.032
30
0.0
0
VERTEX
8
SLAB_00
10
210.931
20
158.232
30
0.0
0
VERTEX
8
SLAB_00
10
204.023
20
161.099
30
0.0
0
VERTEX
8
SLAB_00
10
197.043
20
163.631
30
0.0
0
VERTEX
8
SLAB_00
10
190.011
20
165.827
30
0.0
0
VERTEX
8
SLAB_00
10
182.943
20
167.689
30
0.0
0
VERTEX
8
SLAB_00
10
175.858
20
169.219
30
0.0
0
VERTEX
8
SLAB_00
10
168.772
20
170.419
30
0.0
0
VERTEX
8
SLAB_00
10
161.704
20
171.293
30
0.0
0
VERTEX
8
SLAB_00
10
154.669
20
171.845
30
0.0
0
VERTEX
8
SLAB_00
10
147.685
20
172.082
30
0.0
0
VERTEX
8
SLAB_00
10
140.766
20
172.010
30
0.0
0
VERTEX
8
SLAB_00
10
133.927
20
171.637
30
0.0
0
VERTEX
8
SLAB_00
10
127.184
20
170.971
30
0.0
0
VERTEX
8
SLAB_00
10
120.550
20
170.021
30
0.0
0
VERTEX
8
SLAB_00
10
114.038
20
168.797
30
0.0
0
VERTEX
8
SLAB_00
10
107.660
20
167.309
30
0.0
0
VERTEX
8
SLAB_00
10
101.428
20
165.568
30
0.0
0
VERTEX
8
SLAB_00
10
95.353
20
163.587
30
0.0
0
VERTEX
8
SLAB_00
10
89.443
20
161.376
30
0.0
0
VERTEX
8
SLAB_00
10
83.710
20
158.949
30
0.0
0
VERTEX
8
SLAB_00
10
78.159
20
156.318
30
0.0
0
VERTEX
8
SLAB_00
10
72.799
20
153.497
30
0.0
0
VERTEX
8
SLAB_00
10
67.635
20
150.498
30
0.0
0
VERTEX
8
SLAB_00
10
62.673
20
147.336
30
0.0
0
VERTEX
8
SLAB_00
10
57.918
20
144.025
30
0.0
0
VERTEX
8
SLAB_00
10
53.371
20
140.577
30
0.0
0
VERTEX
8
SLAB_00
10
49.037
20
137.007
30
0.0
0
VERTEX
8
SLAB_00
10
44.917
20
133.328
30
0.0
0
VERTEX
8
SLAB_00
10
41.010
20
129.553
30
0.0
0
VERTEX
8
SLAB_00
10
37.318
20
125.697
30
0.0
0
VERTEX
8
SLAB_00
10
33.838
20
121.771
30
0.0
0
VERTEX
8
SLAB_00
10
30.569
20
117.788
30
0.0
0
VERTEX
8
SLAB_00
10
27.509
20
113.762
30
0.0
0
VERTEX
8
SLAB_00
10
24.653
20
109.702
30
0.0
0
VERTEX
8
SLAB_00
10
21.999
20
105.622
30
0.0
0
VERTEX
8
SLAB_00
10
19.540
20
101.531
30
0.0
0
VERTEX
8
SLAB_00
10
17.271
20
97.441
30
0.0
0
VERTEX
8
SLAB_00
10
15.187
20
93.360
30
0.0
0
VERTEX
8
SLAB_00
10
13.281
20
89.297
30
0.0
0
VERTEX
8
SLAB_00
10
11.545
20
85.261
30
0.0
0
VERTEX
8
SLAB_00
10
9.973
20
81.261
30
0.0
0
VERTEX
8
SLAB_00
10
8.556
20
77.301
30
0.0
0
VERTEX
8
SLAB_00
10
7.287
20
73.390
30
0.0
0
VERTEX
8
SLAB_00
10
6.157
20
69.532
30
0.0
0
VERTEX
8
SLAB_00
10
5.157
20
65.732
30
0.0
0
VERTEX
8
SLAB_00
10
4.278
20
61.993
30
0.0
0
VERTEX
8
SLAB_00
10
3.512
20
58.320
30
0.0
0
VERTEX
8
SLAB_00
10
2.851
20
54.715
30
0.0
0
VERTEX
8
SLAB_00
10
2.284
20
51.178
30
0.0
0
VERTEX
8
SLAB_00
10
1.805
20
47.711
30
0.0
0
VERTEX
8
SLAB_00
10
1.403
20
44.315
30
0.0
0
VERTEX
8
SLAB_00
10
1.071
20
40.988
30
0.0
0
VERTEX
8
SLAB_00
10
0.801
20
37.730
30
0.0
0
VERTEX
8
SLAB_00
10
0.584
20
34.538
30
0.0
0
VERTEX
8
SLAB_00
10
0.414
20
31.411
30
0.0
0
VERTEX
8
SLAB_00
10
0.284
20
28.344
30
0.0
0
VERTEX
8
SLAB_00
10
0.187
20
25.335
30
0.0
0
VERTEX
8
SLAB_00
10
0.117
20
22.378
30
0.0
0
VERTEX
8
SLAB_00
10
0.069
20
19.470
30
0.0
0
VERTEX
8
SLAB_00
10
0.037
20
16.605
30
0.0
0
VERTEX
8
SLAB_00
10
0.018
20
13.778
30
0.0
0
VERTEX
8
SLAB_00
10
0.007
20
10.983
30
0.0
0
VERTEX
8
SLAB_00
10
0.002
20
8.215
30
0.0
0
VERTEX
8
SLAB_00
10
0.000
20
5.465
30
0.0
0
VERTEX
8
SLAB_00
10
0.000
20
2.729
30
0.0
0
VERTEX
8
SLAB_00
10
0.000
20
0.000
30
0.0
0
VERTEX
8
SLAB_00
10
0.000
20
-2.729
30
0.0
0
VERTEX
8
SLAB_00
10
0.000
20
-5.465
30
0.0
0
VERTEX
8
SLAB_00
10
0.002
20
-8.215
30
0.0
0
VERTEX
8
SLAB_00
10
0.007
20
-10.983
30
0.0
0
VERTEX
8
SLAB_00
10
0.018
20
-13.778
30
0.0
0
VERTEX
8
SLAB_00
10
0.037
20
-16.605
30
0.0
0
VERTEX
8
SLAB_00
10
0.069
20
-19.470
30
0.0
0
VERTEX
8
SLAB_00
10
0.117
20
-22.378
30
0.0
0
VERTEX
8
SLAB_00
10
0.187
20
-25.335
30
0.0
0
VERTEX
8
SLAB_00
10
0.284
20
-28.344
30
0.0
0
VERTEX
8
SLAB_00
10
0.414
20
-31.411
30
0.0
0
VERTEX
8
SLAB_00
10
0.584
20
-34.538
30
0.0
0
VERTEX
8
SLAB_00
10
0.801
20
-37.730
30
0.0
0
VERTEX
8
SLAB_00
10
1.071
20
-40.988
30
0.0
0
VERTEX
8
SLAB_00
10
1.403
20
-44.315
30
0.0
0
VERTEX
8
SLAB_00
10
1.805
20
-47.711
30
0.0
0
VERTEX
8
SLAB_00
10
2.284
20
-51.178
30
0.0
0
VERTEX
8
SLAB_00
10
2.851
20
-54.715
30
0.0
0
VERTEX
8
SLAB_00
10
3.512
20
-58.320
30
0.0
0
VERTEX
8
SLAB_00
10
4.278
20
-61.993
30
0.0
0
VERTEX
8
SLAB_00
10
5.157
20
-65.732
30
0.0
0
VERTEX
8
SLAB_00
10
6.157
20
-69.532
30
0.0
0
VERTEX
8
SLAB_00
10
7.287
20
-73.390
30
0.0
0
VERTEX
8
SLAB_00
10
8.556
20
-77.301
30
0.0
0
VERTEX
8
SLAB_00
10
9.973
20
-81.261
30
0.0
0
VERTEX
8
SLAB_00
10
11.545
20
-85.261
30
0.0
0
VERTEX
8
SLAB_00
10
13.281
20
-89.297
30
0.0
0
VERTEX
8
SLAB_00
10
15.187
20
-93.360
30
0.0
0
VERTEX
8
SLAB_00
10
17.271
20
-97.441
30
0.0
0
VERTEX
8
SLAB_00
10
19.540
20
-101.531
30
0.0
0
VERTEX
8
SLAB_00
10
21.999
20
-105.622
30
0.0
0
VERTEX
8
SLAB_00
10
24.653
20
-109.702
30
0.0
0
VERTEX
8
SLAB_00
10
27.509
20
-113.762
30
0.0
0
VERTEX
8
SLAB_00
10
30.569
20
-117.788
30
0.0
0
VERTEX
8
SLAB_00
10
33.838
20
-121.771
30
0.0
0
VERTEX
8
SLAB_00
10
37.318
20
-125.697
30
0.0
0
VERTEX
8
SLAB_00
10
41.010
20
-129.553
30
0.0
0
VERTEX
8
SLAB_00
10
44.917
20
-133.328
30
0.0
0
VERTEX
8
SLAB_00
10
49.037
20
-137.007
30
0.0
0
VERTEX
8
SLAB_00
10
53.371
20
-140.577
30
0.0
0
VERTEX
8
SLAB_00
10
57.918
20
-144.025
30
0.0
0
VERTEX
8
SLAB_00
10
62.673
20
-147.336
30
0.0
0
VERTEX
8
SLAB_00
10
67.635
20
-150.498
30
0.0
0
VERTEX
8
SLAB_00
10
72.799
20
-153.497
30
0.0
0
VERTEX
8
SLAB_00
10
78.159
20
-156.318
30
0.0
0
VERTEX
8
SLAB_00
10
83.710
20
-158.949
30
0.0
0
VERTEX
8
SLAB_00
10
89.443
20
-161.376
30
0.0
0
VERTEX
8
SLAB_00
10
95.353
20
-163.587
30
0.0
0
VERTEX
8
SLAB_00
10
101.428
20
-165.568
30
0.0
0
VERTEX
8
SLAB_00
10
107.660
20
-167.309
30
0.0
0
VERTEX
8
SLAB_00
10
114.038
20
-168.797
30
0.0
0
VERTEX
8
SLAB_00
10
120.550
20
-170.021
30
0.0
0
VERTEX
8
SLAB_00
10
127.184
20
-170.971
30
0.0
0
VERTEX
8
SLAB_00
10
133.927
20
-171.637
30
0.0
0
VERTEX
8
SLAB_00
10
140.766
20
-172.010
30
0.0
0
VERTEX
8
SLAB_00
10
147.685
20
-172.082
30
0.0
0
VERTEX
8
SLAB_00
10
154.669
20
-171.845
30
0.0
0
VERTEX
8
SLAB_00
10
161.704
20
-171.293
30
0.0
0
VERTEX
8
SLAB_00
10
168.772
20
-170.419
30
0.0
0
VERTEX
8
SLAB_00
10
175.858
20
-169.219
30
0.0
0
VERTEX
8
SLAB_00
10
182.943
20
-167.689
30
0.0
0
VERTEX
8
SLAB_00
10
190.011
20
-165.827
30
0.0
0
VERTEX
8
SLAB_00
10
197.043
20
-163.631
30
0.0
0
VERTEX
8
SLAB_00
10
204.023
20
-161.099
30
0.0
0
VERTEX
8
SLAB_00
10
210.931
20
-158.232
30
0.0
0
VERTEX
8
SLAB_00
10
217.750
20
-155.032
30
0.0
0
VERTEX
8
SLAB_00
10
224.462
20
-151.501
30
0.0
0
VERTEX
8
SLAB_00
10
231.048
20
-147.643
30
0.0
0
VERTEX
8
SLAB_00
10
237.490
20
-143.462
30
0.0
0
VERTEX
8
SLAB_00
10
243.771
20
-138.965
30
0.0
0
VERTEX
8
SLAB_00
10
249.873
20
-134.157
30
0.0
0
VERTEX
8
SLAB_00
10
255.778
20
-129.048
30
0.0
0
VERTEX
8
SLAB_00
10
261.471
20
-123.646
30
0.0
0
VERTEX
8
SLAB_00
10
266.935
20
-117.960
30
0.0
0
VERTEX
8
SLAB_00
10
272.153
20
-112.003
30
0.0
0
VERTEX
8
SLAB_00
10
277.112
20
-105.785
30
0.0
0
VERTEX
8
SLAB_00
10
281.796
20
-99.320
30
0.0
0
VERTEX
8
SLAB_00
10
286.191
20
-92.622
30
0.0
0
VERTEX
8
SLAB_00
10
290.285
20
-85.705
30
0.0
0
VERTEX
8
SLAB_00
10
294.066
20
-78.584
30
0.0
0
VERTEX
8
SLAB_00
10
297.521
20
-71.275
30
0.0
0
VERTEX
8
SLAB_00
10
300.642
20
-63.796
30
0.0
0
VERTEX
8
SLAB_00
10
303.418
20
-56.163
30
0.0
0
VERTEX
8
SLAB_00
10
305.841
20
-48.395
30
0.0
0
VERTEX
8
SLAB_00
10
307.904
20
-40.510
30
0.0
0
VERTEX
8
SLAB_00
10
309.601
20
-32.527
30
0.0
0
VERTEX
8
SLAB_00
10
310.925
20
-24.465
30
0.0
0
VERTEX
8
SLAB_00
10
311.875
20
-16.343
30
0.0
0
VERTEX
8
SLAB_00
10
312.445
20
-8.181
30
0.0
0
SEQEND
8
SLAB_00
0
TEXT
8
TEXT
10
0.000
20
187.082
30
0.0
40
8.0
1
18: s'=+351 D=344
0
CIRCLE
8
DOWEL
10
15.000
20
18.000
30
0.0
40
3.250
0
TEXT
8
DOWEL
10
20.000
20
16.000
30
0.0
40
3.0
1
A
0
CIRCLE
8
DOWEL
10
15.000
20
-18.000
30
0.0
40
3.250
0
TEXT
8
DOWEL
10
20.000
20
-20.000
30
0.0
40
3.0
1
B
0
CIRCLE
8
DOWEL
10
45.000
20
18.000
30
0.0
40
3.250
0
TEXT
8
DOWEL
10
50.000
20
16.000
30
0.0
40
3.0
1
C
0
CIRCLE
8
DOWEL
10
45.000
20
-18.000
30
0.0
40
3.250
0
TEXT
8
DOWEL
10
50.000
20
-20.000
30
0.0
40
3.0
1
D
0
ENDSEC
0
EOF