0
SECTION
2
HEADER
9
$ACADVER
1
AC1009
9
$INSUNITS
70
4
0
ENDSEC
0
SECTION
2
TABLES
0
TABLE
2
LAYER
70
4
0
LAYER
2
0
70
0
62
7
6
CONTINUOUS
0
LAYER
2
TEXT
70
0
62
1
6
CONTINUOUS
0
LAYER
2
DOWEL
70
0
62
5
6
CONTINUOUS
0
LAYER
2
SLAB_00
70
0
62
2
6
CONTINUOUS
0
ENDTAB
0
ENDSEC
0
SECTION
2
ENTITIES
0
POLYLINE
8
SLAB_00
66
1
70
1
10
0.0
20
0.0
30
0.0
0
VERTEX
8
SLAB_00
10
145.228
20
0.000
30
0.0
0
VERTEX
8
SLAB_00
10
145.140
20
3.801
30
0.0
0
VERTEX
8
SLAB_00
10
144.875
20
7.592
30
0.0
0
VERTEX
8
SLAB_00
10
144.434
20
11.365
30
0.0
0
VERTEX
8
SLAB_00
10
143.819
20
15.110
30
0.0
0
VERTEX
8
SLAB_00
10
143.030
20
18.818
30
0.0
0
VERTEX
8
SLAB_00
10
142.072
20
22.481
30
0.0
0
VERTEX
8
SLAB_00
10
140.947
20
26.090
30
0.0
0
VERTEX
8
SLAB_00
10
139.657
20
29.635
30
0.0
0
VERTEX
8
SLAB_00
10
138.207
20
33.109
30
0.0
0
VERTEX
8
SLAB_00
10
136.602
20
36.504
30
0.0
0
VERTEX
8
SLAB_00
10
134.846
20
39.812
30
0.0
0
VERTEX
8
SLAB_00
10
132.944
20
43.026
30
0.0
0
VERTEX
8
SLAB_00
10
130.902
20
46.137
30
0.0
0
VERTEX
8
SLAB_00
10
128.727
20
49.140
30
0.0
0
VERTEX
8
SLAB_00
10
126.423
20
52.029
30
0.0
0
VERTEX
8
SLAB_00
10
123.999
20
54.796
30
0.0
0
VERTEX
8
SLAB_00
10
121.461
20
57.437
30
0.0
0
VERTEX
8
SLAB_00
10
118.817
20
59.947
30
0.0
0
VERTEX
8
SLAB_00
10
116.073
20
62.320
30
0.0
0
VERTEX
8
SLAB_00
10
113.239
20
64.553
30
0.0
0
VERTEX
8
SLAB_00
10
110.321
20
66.643
30
0.0
0
VERTEX
8
SLAB_00
10
107.329
20
68.585
30
0.0
0
VERTEX
8
SLAB_00
10
104.269
20
70.377
30
0.0
0
VERTEX
8
SLAB_00
10
101.152
20
72.017
30
0.0
0
VERTEX
8
SLAB_00
10
97.984
20
73.503
30
0.0
0
VERTEX
8
SLAB_00
10
94.775
20
74.835
30
0.0
0
VERTEX
8
SLAB_00
10
91.532
20
76.011
30
0.0
0
VERTEX
8
SLAB_00
10
88.266
20
77.032
30
0.0
0
VERTEX
8
SLAB_00
10
84.982
20
77.897
30
0.0
0
VERTEX
8
SLAB_00
10
81.691
20
78.607
30
0.0
0
VERTEX
8
SLAB_00
10
78.400
20
79.165
30
0.0
0
VERTEX
8
SLAB_00
10
75.116
20
79.570
30
0.0
0
VERTEX
8
SLAB_00
10
71.848
20
79.827
30
0.0
0
VERTEX
8
SLAB_00
10
68.604
20
79.937
30
0.0
0
VERTEX
8
SLAB_00
10
65.390
20
79.904
30
0.0
0
VERTEX
8
SLAB_00
10
62.213
20
79.731
30
0.0
0
VERTEX
8
SLAB_00
10
59.081
20
79.421
30
0.0
0
VERTEX
8
SLAB_00
10
55.999
20
78.980
30
0.0
0
VERTEX
8
SLAB_00
10
52.974
20
78.411
30
0.0
0
VERTEX
8
SLAB_00
10
50.011
20
77.720
30
0.0
0
VERTEX
8
SLAB_00
10
47.116
20
76.911
30
0.0
0
VERTEX
8
SLAB_00
10
44.294
20
75.991
30
0.0
0
VERTEX
8
SLAB_00
10
41.549
20
74.964
30
0.0
0
VERTEX
8
SLAB_00
10
38.886
20
73.836
30
0.0
0
VERTEX
8
SLAB_00
10
36.307
20
72.614
30
0.0
0
VERTEX
8
SLAB_00
10
33.817
20
71.304
30
0.0
0
VERTEX
8
SLAB_00
10
31.418
20
69.911
30
0.0
0
VERTEX
8
SLAB_00
10
29.114
20
68.442
30
0.0
0
VERTEX
8
SLAB_00
10
26.904
20
66.904
30
0.0
0
VERTEX
8
SLAB_00
10
24.793
20
65.302
30
0.0
0
VERTEX
8
SLAB_00
10
22.779
20
63.644
30
0.0
0
VERTEX
8
SLAB_00
10
20.865
20
61.935
30
0.0
0
VERTEX
8
SLAB_00
10
19.050
20
60.181
30
0.0
0
VERTEX
8
SLAB_00
10
17.335
20
58.390
30
0.0
0
VERTEX
8
SLAB_00
10
15.719
20
56.566
30
0.0
0
VERTEX
8
SLAB_00
10
14.200
20
54.716
30
0.0
0
VERTEX
8
SLAB_00
10
12.779
20
52.846
30
0.0
0
VERTEX
8
SLAB_00
10
11.452
20
50.960
30
0.0
0
VERTEX
8
SLAB_00
10
10.219
20
49.065
30
0.0
0
VERTEX
8
SLAB_00
10
9.077
20
47.164
30
0.0
0
VERTEX
8
SLAB_00
10
8.023
20
45.264
30
0.0
0
VERTEX
8
SLAB_00
10
7.055
20
43.368
30
0.0
0
VERTEX
8
SLAB_00
10
6.169
20
41.481
30
0.0
0
VERTEX
8
SLAB_00
10
5.363
20
39.606
30
0.0
0
VERTEX
8
SLAB_00
10
4.633
20
37.748
30
0.0
0
VERTEX
8
SLAB_00
10
3.975
20
35.909
30
0.0
0
VERTEX
8
SLAB_00
10
3.385
20
34.092
30
0.0
0
VERTEX
8
SLAB_00
10
2.860
20
32.300
30
0.0
0
VERTEX
8
SLAB_00
10
2.395
20
30.534
30
0.0
0
VERTEX
8
SLAB_00
10
1.987
20
28.798
30
0.0
0
VERTEX
8
SLAB_00
10
1.632
20
27.091
30
0.0
0
VERTEX
8
SLAB_00
10
1.324
20
25.417
30
0.0
0
VERTEX
8
SLAB_00
10
1.061
20
23.774
30
0.0
0
VERTEX
8
SLAB_00
10
0.838
20
22.163
30
0.0
0
VERTEX
8
SLAB_00
10
0.652
20
20.586
30
0.0
0
VERTEX
8
SLAB_00
10
0.497
20
19.040
30
0.0
0
VERTEX
8
SLAB_00
10
0.372
20
17.527
30
0.0
0
VERTEX
8
SLAB_00
10
0.271
20
16.044
30
0.0
0
VERTEX
8
SLAB_00
10
0.193
20
14.591
30
0.0
0
VERTEX
8
SLAB_00
10
0.132
20
13.167
30
0.0
0
VERTEX
8
SLAB_00
10
0.087
20
11.769
30
0.0
0
VERTEX
8
SLAB_00
10
0.054
20
10.395
30
0.0
0
VERTEX
8
SLAB_00
10
0.032
20
9.044
30
0.0
0
VERTEX
8
SLAB_00
10
0.017
20
7.714
30
0.0
0
VERTEX
8
SLAB_00
10
0.008
20
6.400
30
0.0
0
VERTEX
8
SLAB_00
10
0.003
20
5.102
30
0.0
0
VERTEX
8
SLAB_00
10
0.001
20
3.816
30
0.0
0
VERTEX
8
SLAB_00
10
0.000
20
2.539
30
0.0
0
VERTEX
8
SLAB_00
10
0.000
20
1.268
30
0.0
0
VERTEX
8
SLAB_00
10
0.000
20
0.000
30
0.0
0
VERTEX
8
SLAB_00
10
0.000
20
-1.268
30
0.0
0
VERTEX
8
SLAB_00
10
0.000
20
-2.539
30
0.0
0
VERTEX
8
SLAB_00
10
0.001
20
-3.816
30
0.0
0
VERTEX
8
SLAB_00
10
0.003
20
-5.102
30
0.0
0
VERTEX
8
SLAB_00
10
0.008
20
-6.400
30
0.0
0
VERTEX
8
SLAB_00
10
0.017
20
-7.714
30
0.0
0
VERTEX
8
SLAB_00
10
0.032
20
-9.044
30
0.0
0
VERTEX
8
SLAB_00
10
0.054
20
-10.395
30
0.0
0
VERTEX
8
SLAB_00
10
0.087
20
-11.769
30
0.0
0
VERTEX
8
SLAB_00
10
0.132
20
-13.167
30
0.0
0
VERTEX
8
SLAB_00
10
0.193
20
-14.591
30
0.0
0
VERTEX
8
SLAB_00
10
0.271
20
-16.044
30
0.0
0
VERTEX
8
SLAB_00
10
0.372
20
-17.527
30
0.0
0
VERTEX
8
SLAB_00
10
0.497
20
-19.040
30
0.0
0
VERTEX
8
SLAB_00
10
0.652
20
-20.586
30
0.0
0
VERTEX
8
SLAB_00
10
0.838
20
-22.163
30
0.0
0
VERTEX
8
SLAB_00
10
1.061
20
-23.774
30
0.0
0
VERTEX
8
SLAB_00
10
1.324
20
-25.417
30
0.0
0
VERTEX
8
SLAB_00
10
1.632
20
-27.091
30
0.0
0
VERTEX
8
SLAB_00
10
1.987
20
-28.798
30
0.0
0
VERTEX
8
SLAB_00
10
2.395
20
-30.534
30
0.0
0
VERTEX
8
SLAB_00
10
2.860
20
-32.300
30
0.0
0
VERTEX
8
SLAB_00
10
3.385
20
-34.092
30
0.0
0
VERTEX
8
SLAB_00
10
3.975
20
-35.909
30
0.0
0
VERTEX
8
SLAB_00
10
4.633
20
-37.748
30
0.0
0
VERTEX
8
SLAB_00
10
5.363
20
-39.606
30
0.0
0
VERTEX
8
SLAB_00
10
6.169
20
-41.481
30
0.0
0
VERTEX
8
SLAB_00
10
7.055
20
-43.368
30
0.0
0
VERTEX
8
SLAB_00
10
8.023
20
-45.264
30
0.0
0
VERTEX
8
SLAB_00
10
9.077
20
-47.164
30
0.0
0
VERTEX
8
SLAB_00
10
10.219
20
-49.065
30
0.0
0
VERTEX
8
SLAB_00
10
11.452
20
-50.960
30
0.0
0
VERTEX
8
SLAB_00
10
12.779
20
-52.846
30
0.0
0
VERTEX
8
SLAB_00
10
14.200
20
-54.716
30
0.0
0
VERTEX
8
SLAB_00
10
15.719
20
-56.566
30
0.0
0
VERTEX
8
SLAB_00
10
17.335
20
-58.390
30
0.0
0
VERTEX
8
SLAB_00
10
19.050
20
-60.181
30
0.0
0
VERTEX
8
SLAB_00
10
20.865
20
-61.935
30
0.0
0
VERTEX
8
SLAB_00
10
22.779
20
-63.644
30
0.0
0
VERTEX
8
SLAB_00
10
24.793
20
-65.302
30
0.0
0
VERTEX
8
SLAB_00
10
26.904
20
-66.904
30
0.0
0
VERTEX
8
SLAB_00
10
29.114
20
-68.442
30
0.0
0
VERTEX
8
SLAB_00
10
31.418
20
-69.911
30
0.0
0
VERTEX
8
SLAB_00
10
33.817
20
-71.304
30
0.0
0
VERTEX
8
SLAB_00
10
36.307
20
-72.614
30
0.0
0
VERTEX
8
SLAB_00
10
38.886
20
-73.836
30
0.0
0
VERTEX
8
SLAB_00
10
41.549
20
-74.964
30
0.0
0
VERTEX
8
SLAB_00
10
44.294
20
-75.991
30
0.0
0
VERTEX
8
SLAB_00
10
47.116
20
-76.911
30
0.0
0
VERTEX
8
SLAB_00
10
50.011
20
-77.720
30
0.0
0
VERTEX
8
SLAB_00
10
52.974
20
-78.411
30
0.0
0
VERTEX
8
SLAB_00
10
55.999
20
-78.980
30
0.0
0
VERTEX
8
SLAB_00
10
59.081
20
-79.421
30
0.0
0
VERTEX
8
SLAB_00
10
62.213
20
-79.731
30
0.0
0
VERTEX
8
SLAB_00
10
65.390
20
-79.904
30
0.0
0
VERTEX
8
SLAB_00
10
68.604
20
-79.937
30
0.0
0
VERTEX
8
SLAB_00
10
71.848
20
-79.827
30
0.0
0
VERTEX
8
SLAB_00
10
75.116
20
-79.570
30
0.0
0
VERTEX
8
SLAB_00
10
78.400
20
-79.165
30
0.0
0
VERTEX
8
SLAB_00
10
81.691
20
-78.607
30
0.0
0
VERTEX
8
SLAB_00
10
84.982
20
-77.897
30
0.0
0
VERTEX
8
SLAB_00
10
88.266
20
-77.032
30
0.0
0
VERTEX
8
SLAB_00
10
91.532
20
-76.011
30
0.0
0
VERTEX
8
SLAB_00
10
94.775
20
-74.835
30
0.0
0
VERTEX
8
SLAB_00
10
97.984
20
-73.503
30
0.0
0
VERTEX
8
SLAB_00
10
101.152
20
-72.017
30
0.0
0
VERTEX
8
SLAB_00
10
104.269
20
-70.377
30
0.0
0
VERTEX
8
SLAB_00
10
107.329
20
-68.585
30
0.0
0
VERTEX
8
SLAB_00
10
110.321
20
-66.643
30
0.0
0
VERTEX
8
SLAB_00
10
113.239
20
-64.553
30
0.0
0
VERTEX
8
SLAB_00
10
116.073
20
-62.320
30
0.0
0
VERTEX
8
SLAB_00
10
118.817
20
-59.947
30
0.0
0
VERTEX
8
SLAB_00
10
121.461
20
-57.437
30
0.0
0
VERTEX
8
SLAB_00
10
123.999
20
-54.796
30
0.0
0
VERTEX
8
SLAB_00
10
126.423
20
-52.029
30
0.0
0
VERTEX
8
SLAB_00
10
128.727
20
-49.140
30
0.0
0
VERTEX
8
SLAB_00
10
130.902
20
-46.137
30
0.0
0
VERTEX
8
SLAB_00
10
132.944
20
-43.026
30
0.0
0
VERTEX
8
SLAB_00
10
134.846
20
-39.812
30
0.0
0
VERTEX
8
SLAB_00
10
136.602
20
-36.504
30
0.0
0
VERTEX
8
SLAB_00
10
138.207
20
-33.109
30
0.0
0
VERTEX
8
SLAB_00
10
139.657
20
-29.635
30
0.0
0
VERTEX
8
SLAB_00
10
140.947
20
-26.090
30
0.0
0
VERTEX
8
SLAB_00
10
142.072
20
-22.481
30
0.0
0
VERTEX
8
SLAB_00
10
143.030
20
-18.818
30
0.0
0
VERTEX
8
SLAB_00
10
143.819
20
-15.110
30
0.0
0
VERTEX
8
SLAB_00
10
144.434
20
-11.365
30
0.0
0
VERTEX
8
SLAB_00
10
144.875
20
-7.592
30
0.0
0
VERTEX
8
SLAB_00
10
145.140
20
-3.801
30
0.0
0
SEQEND
8
SLAB_00
0
TEXT
8
TEXT
10
0.000
20
94.937
30
0.0
40
8.0
1
57: s'=+1316 D=160
0
CIRCLE
8
DOWEL
10
15.000
20
18.000
30
0.0
40
3.250
0
TEXT
8
DOWEL
10
20.000
20
16.000
30
0.0
40
3.0
1
A
0
CIRCLE
8
DOWEL
10
15.000
20
-18.000
30
0.0
40
3.250
0
TEXT
8
DOWEL
10
20.000
20
-20.000
30
0.0
40
3.0
1
B
0
CIRCLE
8
DOWEL
10
45.000
20
18.000
30
0.0
40
3.250
0
TEXT
8
DOWEL
10
50.000
20
16.000
30
0.0
40
3.0
1
C
0
CIRCLE
8
DOWEL
10
45.000
20
-18.000
30
0.0
40
3.250
0
TEXT
8
DOWEL
10
50.000
20
-20.000
30
0.0
40
3.0
1
D
0
ENDSEC
0
EOF