0
SECTION
2
HEADER
9
$ACADVER
1
AC1009
9
$INSUNITS
70
4
0
ENDSEC
0
SECTION
2
TABLES
0
TABLE
2
LAYER
70
4
0
LAYER
2
0
70
0
62
7
6
CONTINUOUS
0
LAYER
2
TEXT
70
0
62
1
6
CONTINUOUS
0
LAYER
2
DOWEL
70
0
62
5
6
CONTINUOUS
0
LAYER
2
SLAB_00
70
0
62
2
6
CONTINUOUS
0
ENDTAB
0
ENDSEC
0
SECTION
2
ENTITIES
0
POLYLINE
8
SLAB_00
66
1
70
1
10
0.0
20
0.0
30
0.0
0
VERTEX
8
SLAB_00
10
261.552
20
0.000
30
0.0
0
VERTEX
8
SLAB_00
10
261.393
20
6.845
30
0.0
0
VERTEX
8
SLAB_00
10
260.915
20
13.673
30
0.0
0
VERTEX
8
SLAB_00
10
260.121
20
20.467
30
0.0
0
VERTEX
8
SLAB_00
10
259.013
20
27.212
30
0.0
0
VERTEX
8
SLAB_00
10
257.593
20
33.891
30
0.0
0
VERTEX
8
SLAB_00
10
255.868
20
40.488
30
0.0
0
VERTEX
8
SLAB_00
10
253.840
20
46.986
30
0.0
0
VERTEX
8
SLAB_00
10
251.518
20
53.372
30
0.0
0
VERTEX
8
SLAB_00
10
248.907
20
59.629
30
0.0
0
VERTEX
8
SLAB_00
10
246.016
20
65.743
30
0.0
0
VERTEX
8
SLAB_00
10
242.853
20
71.701
30
0.0
0
VERTEX
8
SLAB_00
10
239.428
20
77.488
30
0.0
0
VERTEX
8
SLAB_00
10
235.751
20
83.092
30
0.0
0
VERTEX
8
SLAB_00
10
231.832
20
88.500
30
0.0
0
VERTEX
8
SLAB_00
10
227.684
20
93.702
30
0.0
0
VERTEX
8
SLAB_00
10
223.318
20
98.686
30
0.0
0
VERTEX
8
SLAB_00
10
218.747
20
103.442
30
0.0
0
VERTEX
8
SLAB_00
10
213.985
20
107.962
30
0.0
0
VERTEX
8
SLAB_00
10
209.044
20
112.237
30
0.0
0
VERTEX
8
SLAB_00
10
203.939
20
116.258
30
0.0
0
VERTEX
8
SLAB_00
10
198.685
20
120.021
30
0.0
0
VERTEX
8
SLAB_00
10
193.295
20
123.519
30
0.0
0
VERTEX
8
SLAB_00
10
187.786
20
126.746
30
0.0
0
VERTEX
8
SLAB_00
10
182.171
20
129.700
30
0.0
0
VERTEX
8
SLAB_00
10
176.466
20
132.377
30
0.0
0
VERTEX
8
SLAB_00
10
170.686
20
134.776
30
0.0
0
VERTEX
8
SLAB_00
10
164.847
20
136.894
30
0.0
0
VERTEX
8
SLAB_00
10
158.964
20
138.731
30
0.0
0
VERTEX
8
SLAB_00
10
153.051
20
140.289
30
0.0
0
VERTEX
8
SLAB_00
10
147.123
20
141.569
30
0.0
0
VERTEX
8
SLAB_00
10
141.195
20
142.573
30
0.0
0
VERTEX
8
SLAB_00
10
135.282
20
143.304
30
0.0
0
VERTEX
8
SLAB_00
10
129.397
20
143.766
30
0.0
0
VERTEX
8
SLAB_00
10
123.553
20
143.964
30
0.0
0
VERTEX
8
SLAB_00
10
117.765
20
143.904
30
0.0
0
VERTEX
8
SLAB_00
10
112.044
20
143.592
30
0.0
0
VERTEX
8
SLAB_00
10
106.403
20
143.035
30
0.0
0
VERTEX
8
SLAB_00
10
100.852
20
142.240
30
0.0
0
VERTEX
8
SLAB_00
10
95.404
20
141.216
30
0.0
0
VERTEX
8
SLAB_00
10
90.069
20
139.971
30
0.0
0
VERTEX
8
SLAB_00
10
84.855
20
138.515
30
0.0
0
VERTEX
8
SLAB_00
10
79.772
20
136.857
30
0.0
0
VERTEX
8
SLAB_00
10
74.829
20
135.007
30
0.0
0
VERTEX
8
SLAB_00
10
70.032
20
132.977
30
0.0
0
VERTEX
8
SLAB_00
10
65.388
20
130.776
30
0.0
0
VERTEX
8
SLAB_00
10
60.904
20
128.416
30
0.0
0
VERTEX
8
SLAB_00
10
56.584
20
125.907
30
0.0
0
VERTEX
8
SLAB_00
10
52.433
20
123.262
30
0.0
0
VERTEX
8
SLAB_00
10
48.454
20
120.492
30
0.0
0
VERTEX
8
SLAB_00
10
44.651
20
117.607
30
0.0
0
VERTEX
8
SLAB_00
10
41.025
20
114.620
30
0.0
0
VERTEX
8
SLAB_00
10
37.577
20
111.542
30
0.0
0
VERTEX
8
SLAB_00
10
34.309
20
108.385
30
0.0
0
VERTEX
8
SLAB_00
10
31.220
20
105.158
30
0.0
0
VERTEX
8
SLAB_00
10
28.309
20
101.874
30
0.0
0
VERTEX
8
SLAB_00
10
25.574
20
98.542
30
0.0
0
VERTEX
8
SLAB_00
10
23.014
20
95.173
30
0.0
0
VERTEX
8
SLAB_00
10
20.625
20
91.777
30
0.0
0
VERTEX
8
SLAB_00
10
18.404
20
88.364
30
0.0
0
VERTEX
8
SLAB_00
10
16.347
20
84.941
30
0.0
0
VERTEX
8
SLAB_00
10
14.449
20
81.519
30
0.0
0
VERTEX
8
SLAB_00
10
12.706
20
78.105
30
0.0
0
VERTEX
8
SLAB_00
10
11.111
20
74.706
30
0.0
0
VERTEX
8
SLAB_00
10
9.659
20
71.330
30
0.0
0
VERTEX
8
SLAB_00
10
8.344
20
67.983
30
0.0
0
VERTEX
8
SLAB_00
10
7.158
20
64.671
30
0.0
0
VERTEX
8
SLAB_00
10
6.096
20
61.398
30
0.0
0
VERTEX
8
SLAB_00
10
5.151
20
58.171
30
0.0
0
VERTEX
8
SLAB_00
10
4.314
20
54.991
30
0.0
0
VERTEX
8
SLAB_00
10
3.579
20
51.864
30
0.0
0
VERTEX
8
SLAB_00
10
2.938
20
48.791
30
0.0
0
VERTEX
8
SLAB_00
10
2.385
20
45.774
30
0.0
0
VERTEX
8
SLAB_00
10
1.911
20
42.816
30
0.0
0
VERTEX
8
SLAB_00
10
1.510
20
39.916
30
0.0
0
VERTEX
8
SLAB_00
10
1.174
20
37.074
30
0.0
0
VERTEX
8
SLAB_00
10
0.896
20
34.291
30
0.0
0
VERTEX
8
SLAB_00
10
0.670
20
31.565
30
0.0
0
VERTEX
8
SLAB_00
10
0.489
20
28.895
30
0.0
0
VERTEX
8
SLAB_00
10
0.347
20
26.278
30
0.0
0
VERTEX
8
SLAB_00
10
0.238
20
23.713
30
0.0
0
VERTEX
8
SLAB_00
10
0.157
20
21.195
30
0.0
0
VERTEX
8
SLAB_00
10
0.098
20
18.722
30
0.0
0
VERTEX
8
SLAB_00
10
0.058
20
16.289
30
0.0
0
VERTEX
8
SLAB_00
10
0.031
20
13.892
30
0.0
0
VERTEX
8
SLAB_00
10
0.015
20
11.527
30
0.0
0
VERTEX
8
SLAB_00
10
0.006
20
9.189
30
0.0
0
VERTEX
8
SLAB_00
10
0.002
20
6.872
30
0.0
0
VERTEX
8
SLAB_00
10
0.000
20
4.572
30
0.0
0
VERTEX
8
SLAB_00
10
0.000
20
2.283
30
0.0
0
VERTEX
8
SLAB_00
10
0.000
20
0.000
30
0.0
0
VERTEX
8
SLAB_00
10
0.000
20
-2.283
30
0.0
0
VERTEX
8
SLAB_00
10
0.000
20
-4.572
30
0.0
0
VERTEX
8
SLAB_00
10
0.002
20
-6.872
30
0.0
0
VERTEX
8
SLAB_00
10
0.006
20
-9.189
30
0.0
0
VERTEX
8
SLAB_00
10
0.015
20
-11.527
30
0.0
0
VERTEX
8
SLAB_00
10
0.031
20
-13.892
30
0.0
0
VERTEX
8
SLAB_00
10
0.058
20
-16.289
30
0.0
0
VERTEX
8
SLAB_00
10
0.098
20
-18.722
30
0.0
0
VERTEX
8
SLAB_00
10
0.157
20
-21.195
30
0.0
0
VERTEX
8
SLAB_00
10
0.238
20
-23.713
30
0.0
0
VERTEX
8
SLAB_00
10
0.347
20
-26.278
30
0.0
0
VERTEX
8
SLAB_00
10
0.489
20
-28.895
30
0.0
0
VERTEX
8
SLAB_00
10
0.670
20
-31.565
30
0.0
0
VERTEX
8
SLAB_00
10
0.896
20
-34.291
30
0.0
0
VERTEX
8
SLAB_00
10
1.174
20
-37.074
30
0.0
0
VERTEX
8
SLAB_00
10
1.510
20
-39.916
30
0.0
0
VERTEX
8
SLAB_00
10
1.911
20
-42.816
30
0.0
0
VERTEX
8
SLAB_00
10
2.385
20
-45.774
30
0.0
0
VERTEX
8
SLAB_00
10
2.938
20
-48.791
30
0.0
0
VERTEX
8
SLAB_00
10
3.579
20
-51.864
30
0.0
0
VERTEX
8
SLAB_00
10
4.314
20
-54.991
30
0.0
0
VERTEX
8
SLAB_00
10
5.151
20
-58.171
30
0.0
0
VERTEX
8
SLAB_00
10
6.096
20
-61.398
30
0.0
0
VERTEX
8
SLAB_00
10
7.158
20
-64.671
30
0.0
0
VERTEX
8
SLAB_00
10
8.344
20
-67.983
30
0.0
0
VERTEX
8
SLAB_00
10
9.659
20
-71.330
30
0.0
0
VERTEX
8
SLAB_00
10
11.111
20
-74.706
30
0.0
0
VERTEX
8
SLAB_00
10
12.706
20
-78.105
30
0.0
0
VERTEX
8
SLAB_00
10
14.449
20
-81.519
30
0.0
0
VERTEX
8
SLAB_00
10
16.347
20
-84.941
30
0.0
0
VERTEX
8
SLAB_00
10
18.404
20
-88.364
30
0.0
0
VERTEX
8
SLAB_00
10
20.625
20
-91.777
30
0.0
0
VERTEX
8
SLAB_00
10
23.014
20
-95.173
30
0.0
0
VERTEX
8
SLAB_00
10
25.574
20
-98.542
30
0.0
0
VERTEX
8
SLAB_00
10
28.309
20
-101.874
30
0.0
0
VERTEX
8
SLAB_00
10
31.220
20
-105.158
30
0.0
0
VERTEX
8
SLAB_00
10
34.309
20
-108.385
30
0.0
0
VERTEX
8
SLAB_00
10
37.577
20
-111.542
30
0.0
0
VERTEX
8
SLAB_00
10
41.025
20
-114.620
30
0.0
0
VERTEX
8
SLAB_00
10
44.651
20
-117.607
30
0.0
0
VERTEX
8
SLAB_00
10
48.454
20
-120.492
30
0.0
0
VERTEX
8
SLAB_00
10
52.433
20
-123.262
30
0.0
0
VERTEX
8
SLAB_00
10
56.584
20
-125.907
30
0.0
0
VERTEX
8
SLAB_00
10
60.904
20
-128.416
30
0.0
0
VERTEX
8
SLAB_00
10
65.388
20
-130.776
30
0.0
0
VERTEX
8
SLAB_00
10
70.032
20
-132.977
30
0.0
0
VERTEX
8
SLAB_00
10
74.829
20
-135.007
30
0.0
0
VERTEX
8
SLAB_00
10
79.772
20
-136.857
30
0.0
0
VERTEX
8
SLAB_00
10
84.855
20
-138.515
30
0.0
0
VERTEX
8
SLAB_00
10
90.069
20
-139.971
30
0.0
0
VERTEX
8
SLAB_00
10
95.404
20
-141.216
30
0.0
0
VERTEX
8
SLAB_00
10
100.852
20
-142.240
30
0.0
0
VERTEX
8
SLAB_00
10
106.403
20
-143.035
30
0.0
0
VERTEX
8
SLAB_00
10
112.044
20
-143.592
30
0.0
0
VERTEX
8
SLAB_00
10
117.765
20
-143.904
30
0.0
0
VERTEX
8
SLAB_00
10
123.553
20
-143.964
30
0.0
0
VERTEX
8
SLAB_00
10
129.397
20
-143.766
30
0.0
0
VERTEX
8
SLAB_00
10
135.282
20
-143.304
30
0.0
0
VERTEX
8
SLAB_00
10
141.195
20
-142.573
30
0.0
0
VERTEX
8
SLAB_00
10
147.123
20
-141.569
30
0.0
0
VERTEX
8
SLAB_00
10
153.051
20
-140.289
30
0.0
0
VERTEX
8
SLAB_00
10
158.964
20
-138.731
30
0.0
0
VERTEX
8
SLAB_00
10
164.847
20
-136.894
30
0.0
0
VERTEX
8
SLAB_00
10
170.686
20
-134.776
30
0.0
0
VERTEX
8
SLAB_00
10
176.466
20
-132.377
30
0.0
0
VERTEX
8
SLAB_00
10
182.171
20
-129.700
30
0.0
0
VERTEX
8
SLAB_00
10
187.786
20
-126.746
30
0.0
0
VERTEX
8
SLAB_00
10
193.295
20
-123.519
30
0.0
0
VERTEX
8
SLAB_00
10
198.685
20
-120.021
30
0.0
0
VERTEX
8
SLAB_00
10
203.939
20
-116.258
30
0.0
0
VERTEX
8
SLAB_00
10
209.044
20
-112.237
30
0.0
0
VERTEX
8
SLAB_00
10
213.985
20
-107.962
30
0.0
0
VERTEX
8
SLAB_00
10
218.747
20
-103.442
30
0.0
0
VERTEX
8
SLAB_00
10
223.318
20
-98.686
30
0.0
0
VERTEX
8
SLAB_00
10
227.684
20
-93.702
30
0.0
0
VERTEX
8
SLAB_00
10
231.832
20
-88.500
30
0.0
0
VERTEX
8
SLAB_00
10
235.751
20
-83.092
30
0.0
0
VERTEX
8
SLAB_00
10
239.428
20
-77.488
30
0.0
0
VERTEX
8
SLAB_00
10
242.853
20
-71.701
30
0.0
0
VERTEX
8
SLAB_00
10
246.016
20
-65.743
30
0.0
0
VERTEX
8
SLAB_00
10
248.907
20
-59.629
30
0.0
0
VERTEX
8
SLAB_00
10
251.518
20
-53.372
30
0.0
0
VERTEX
8
SLAB_00
10
253.840
20
-46.986
30
0.0
0
VERTEX
8
SLAB_00
10
255.868
20
-40.488
30
0.0
0
VERTEX
8
SLAB_00
10
257.593
20
-33.891
30
0.0
0
VERTEX
8
SLAB_00
10
259.013
20
-27.212
30
0.0
0
VERTEX
8
SLAB_00
10
260.121
20
-20.467
30
0.0
0
VERTEX
8
SLAB_00
10
260.915
20
-13.673
30
0.0
0
VERTEX
8
SLAB_00
10
261.393
20
-6.845
30
0.0
0
SEQEND
8
SLAB_00
0
TEXT
8
TEXT
10
0.000
20
158.964
30
0.0
40
8.0
1
43: s'=+960 D=288
0
CIRCLE
8
DOWEL
10
15.000
20
18.000
30
0.0
40
3.250
0
TEXT
8
DOWEL
10
20.000
20
16.000
30
0.0
40
3.0
1
A
0
CIRCLE
8
DOWEL
10
15.000
20
-18.000
30
0.0
40
3.250
0
TEXT
8
DOWEL
10
20.000
20
-20.000
30
0.0
40
3.0
1
B
0
CIRCLE
8
DOWEL
10
45.000
20
18.000
30
0.0
40
3.250
0
TEXT
8
DOWEL
10
50.000
20
16.000
30
0.0
40
3.0
1
C
0
CIRCLE
8
DOWEL
10
45.000
20
-18.000
30
0.0
40
3.250
0
TEXT
8
DOWEL
10
50.000
20
-20.000
30
0.0
40
3.0
1
D
0
ENDSEC
0
EOF