0
SECTION
2
HEADER
9
$ACADVER
1
AC1009
9
$INSUNITS
70
4
0
ENDSEC
0
SECTION
2
TABLES
0
TABLE
2
LAYER
70
4
0
LAYER
2
0
70
0
62
7
6
CONTINUOUS
0
LAYER
2
TEXT
70
0
62
1
6
CONTINUOUS
0
LAYER
2
DOWEL
70
0
62
5
6
CONTINUOUS
0
LAYER
2
SLAB_00
70
0
62
2
6
CONTINUOUS
0
ENDTAB
0
ENDSEC
0
SECTION
2
ENTITIES
0
POLYLINE
8
SLAB_00
66
1
70
1
10
0.0
20
0.0
30
0.0
0
VERTEX
8
SLAB_00
10
324.554
20
0.000
30
0.0
0
VERTEX
8
SLAB_00
10
324.357
20
8.493
30
0.0
0
VERTEX
8
SLAB_00
10
323.764
20
16.966
30
0.0
0
VERTEX
8
SLAB_00
10
322.779
20
25.397
30
0.0
0
VERTEX
8
SLAB_00
10
321.404
20
33.767
30
0.0
0
VERTEX
8
SLAB_00
10
319.642
20
42.055
30
0.0
0
VERTEX
8
SLAB_00
10
317.501
20
50.240
30
0.0
0
VERTEX
8
SLAB_00
10
314.985
20
58.305
30
0.0
0
VERTEX
8
SLAB_00
10
312.103
20
66.228
30
0.0
0
VERTEX
8
SLAB_00
10
308.864
20
73.992
30
0.0
0
VERTEX
8
SLAB_00
10
305.276
20
81.580
30
0.0
0
VERTEX
8
SLAB_00
10
301.352
20
88.972
30
0.0
0
VERTEX
8
SLAB_00
10
297.102
20
96.153
30
0.0
0
VERTEX
8
SLAB_00
10
292.539
20
103.107
30
0.0
0
VERTEX
8
SLAB_00
10
287.676
20
109.818
30
0.0
0
VERTEX
8
SLAB_00
10
282.529
20
116.273
30
0.0
0
VERTEX
8
SLAB_00
10
277.111
20
122.457
30
0.0
0
VERTEX
8
SLAB_00
10
271.439
20
128.359
30
0.0
0
VERTEX
8
SLAB_00
10
265.530
20
133.968
30
0.0
0
VERTEX
8
SLAB_00
10
259.399
20
139.272
30
0.0
0
VERTEX
8
SLAB_00
10
253.064
20
144.263
30
0.0
0
VERTEX
8
SLAB_00
10
246.544
20
148.932
30
0.0
0
VERTEX
8
SLAB_00
10
239.856
20
153.272
30
0.0
0
VERTEX
8
SLAB_00
10
233.019
20
157.277
30
0.0
0
VERTEX
8
SLAB_00
10
226.052
20
160.943
30
0.0
0
VERTEX
8
SLAB_00
10
218.973
20
164.265
30
0.0
0
VERTEX
8
SLAB_00
10
211.801
20
167.240
30
0.0
0
VERTEX
8
SLAB_00
10
204.555
20
169.869
30
0.0
0
VERTEX
8
SLAB_00
10
197.255
20
172.149
30
0.0
0
VERTEX
8
SLAB_00
10
189.917
20
174.082
30
0.0
0
VERTEX
8
SLAB_00
10
182.562
20
175.670
30
0.0
0
VERTEX
8
SLAB_00
10
175.206
20
176.916
30
0.0
0
VERTEX
8
SLAB_00
10
167.869
20
177.823
30
0.0
0
VERTEX
8
SLAB_00
10
160.566
20
178.396
30
0.0
0
VERTEX
8
SLAB_00
10
153.315
20
178.643
30
0.0
0
VERTEX
8
SLAB_00
10
146.132
20
178.568
30
0.0
0
VERTEX
8
SLAB_00
10
139.033
20
178.181
30
0.0
0
VERTEX
8
SLAB_00
10
132.033
20
177.489
30
0.0
0
VERTEX
8
SLAB_00
10
125.146
20
176.503
30
0.0
0
VERTEX
8
SLAB_00
10
118.385
20
175.232
30
0.0
0
VERTEX
8
SLAB_00
10
111.764
20
173.687
30
0.0
0
VERTEX
8
SLAB_00
10
105.295
20
171.880
30
0.0
0
VERTEX
8
SLAB_00
10
98.988
20
169.823
30
0.0
0
VERTEX
8
SLAB_00
10
92.853
20
167.528
30
0.0
0
VERTEX
8
SLAB_00
10
86.901
20
165.008
30
0.0
0
VERTEX
8
SLAB_00
10
81.139
20
162.277
30
0.0
0
VERTEX
8
SLAB_00
10
75.574
20
159.348
30
0.0
0
VERTEX
8
SLAB_00
10
70.214
20
156.236
30
0.0
0
VERTEX
8
SLAB_00
10
65.063
20
152.953
30
0.0
0
VERTEX
8
SLAB_00
10
60.126
20
149.516
30
0.0
0
VERTEX
8
SLAB_00
10
55.406
20
145.936
30
0.0
0
VERTEX
8
SLAB_00
10
50.907
20
142.230
30
0.0
0
VERTEX
8
SLAB_00
10
46.629
20
138.411
30
0.0
0
VERTEX
8
SLAB_00
10
42.574
20
134.492
30
0.0
0
VERTEX
8
SLAB_00
10
38.740
20
130.489
30
0.0
0
VERTEX
8
SLAB_00
10
35.128
20
126.413
30
0.0
0
VERTEX
8
SLAB_00
10
31.735
20
122.279
30
0.0
0
VERTEX
8
SLAB_00
10
28.558
20
118.099
30
0.0
0
VERTEX
8
SLAB_00
10
25.593
20
113.885
30
0.0
0
VERTEX
8
SLAB_00
10
22.837
20
109.649
30
0.0
0
VERTEX
8
SLAB_00
10
20.285
20
105.402
30
0.0
0
VERTEX
8
SLAB_00
10
17.930
20
101.155
30
0.0
0
VERTEX
8
SLAB_00
10
15.766
20
96.919
30
0.0
0
VERTEX
8
SLAB_00
10
13.787
20
92.701
30
0.0
0
VERTEX
8
SLAB_00
10
11.985
20
88.512
30
0.0
0
VERTEX
8
SLAB_00
10
10.353
20
84.359
30
0.0
0
VERTEX
8
SLAB_00
10
8.883
20
80.248
30
0.0
0
VERTEX
8
SLAB_00
10
7.565
20
76.188
30
0.0
0
VERTEX
8
SLAB_00
10
6.391
20
72.183
30
0.0
0
VERTEX
8
SLAB_00
10
5.353
20
68.238
30
0.0
0
VERTEX
8
SLAB_00
10
4.441
20
64.357
30
0.0
0
VERTEX
8
SLAB_00
10
3.646
20
60.544
30
0.0
0
VERTEX
8
SLAB_00
10
2.959
20
56.800
30
0.0
0
VERTEX
8
SLAB_00
10
2.372
20
53.129
30
0.0
0
VERTEX
8
SLAB_00
10
1.873
20
49.530
30
0.0
0
VERTEX
8
SLAB_00
10
1.456
20
46.005
30
0.0
0
VERTEX
8
SLAB_00
10
1.112
20
42.551
30
0.0
0
VERTEX
8
SLAB_00
10
0.831
20
39.169
30
0.0
0
VERTEX
8
SLAB_00
10
0.606
20
35.855
30
0.0
0
VERTEX
8
SLAB_00
10
0.430
20
32.608
30
0.0
0
VERTEX
8
SLAB_00
10
0.295
20
29.425
30
0.0
0
VERTEX
8
SLAB_00
10
0.194
20
26.300
30
0.0
0
VERTEX
8
SLAB_00
10
0.122
20
23.231
30
0.0
0
VERTEX
8
SLAB_00
10
0.072
20
20.212
30
0.0
0
VERTEX
8
SLAB_00
10
0.039
20
17.238
30
0.0
0
VERTEX
8
SLAB_00
10
0.019
20
14.304
30
0.0
0
VERTEX
8
SLAB_00
10
0.008
20
11.402
30
0.0
0
VERTEX
8
SLAB_00
10
0.002
20
8.528
30
0.0
0
VERTEX
8
SLAB_00
10
0.000
20
5.674
30
0.0
0
VERTEX
8
SLAB_00
10
0.000
20
2.833
30
0.0
0
VERTEX
8
SLAB_00
10
0.000
20
0.000
30
0.0
0
VERTEX
8
SLAB_00
10
0.000
20
-2.833
30
0.0
0
VERTEX
8
SLAB_00
10
0.000
20
-5.674
30
0.0
0
VERTEX
8
SLAB_00
10
0.002
20
-8.528
30
0.0
0
VERTEX
8
SLAB_00
10
0.008
20
-11.402
30
0.0
0
VERTEX
8
SLAB_00
10
0.019
20
-14.304
30
0.0
0
VERTEX
8
SLAB_00
10
0.039
20
-17.238
30
0.0
0
VERTEX
8
SLAB_00
10
0.072
20
-20.212
30
0.0
0
VERTEX
8
SLAB_00
10
0.122
20
-23.231
30
0.0
0
VERTEX
8
SLAB_00
10
0.194
20
-26.300
30
0.0
0
VERTEX
8
SLAB_00
10
0.295
20
-29.425
30
0.0
0
VERTEX
8
SLAB_00
10
0.430
20
-32.608
30
0.0
0
VERTEX
8
SLAB_00
10
0.606
20
-35.855
30
0.0
0
VERTEX
8
SLAB_00
10
0.831
20
-39.169
30
0.0
0
VERTEX
8
SLAB_00
10
1.112
20
-42.551
30
0.0
0
VERTEX
8
SLAB_00
10
1.456
20
-46.005
30
0.0
0
VERTEX
8
SLAB_00
10
1.873
20
-49.530
30
0.0
0
VERTEX
8
SLAB_00
10
2.372
20
-53.129
30
0.0
0
VERTEX
8
SLAB_00
10
2.959
20
-56.800
30
0.0
0
VERTEX
8
SLAB_00
10
3.646
20
-60.544
30
0.0
0
VERTEX
8
SLAB_00
10
4.441
20
-64.357
30
0.0
0
VERTEX
8
SLAB_00
10
5.353
20
-68.238
30
0.0
0
VERTEX
8
SLAB_00
10
6.391
20
-72.183
30
0.0
0
VERTEX
8
SLAB_00
10
7.565
20
-76.188
30
0.0
0
VERTEX
8
SLAB_00
10
8.883
20
-80.248
30
0.0
0
VERTEX
8
SLAB_00
10
10.353
20
-84.359
30
0.0
0
VERTEX
8
SLAB_00
10
11.985
20
-88.512
30
0.0
0
VERTEX
8
SLAB_00
10
13.787
20
-92.701
30
0.0
0
VERTEX
8
SLAB_00
10
15.766
20
-96.919
30
0.0
0
VERTEX
8
SLAB_00
10
17.930
20
-101.155
30
0.0
0
VERTEX
8
SLAB_00
10
20.285
20
-105.402
30
0.0
0
VERTEX
8
SLAB_00
10
22.837
20
-109.649
30
0.0
0
VERTEX
8
SLAB_00
10
25.593
20
-113.885
30
0.0
0
VERTEX
8
SLAB_00
10
28.558
20
-118.099
30
0.0
0
VERTEX
8
SLAB_00
10
31.735
20
-122.279
30
0.0
0
VERTEX
8
SLAB_00
10
35.128
20
-126.413
30
0.0
0
VERTEX
8
SLAB_00
10
38.740
20
-130.489
30
0.0
0
VERTEX
8
SLAB_00
10
42.574
20
-134.492
30
0.0
0
VERTEX
8
SLAB_00
10
46.629
20
-138.411
30
0.0
0
VERTEX
8
SLAB_00
10
50.907
20
-142.230
30
0.0
0
VERTEX
8
SLAB_00
10
55.406
20
-145.936
30
0.0
0
VERTEX
8
SLAB_00
10
60.126
20
-149.516
30
0.0
0
VERTEX
8
SLAB_00
10
65.063
20
-152.953
30
0.0
0
VERTEX
8
SLAB_00
10
70.214
20
-156.236
30
0.0
0
VERTEX
8
SLAB_00
10
75.574
20
-159.348
30
0.0
0
VERTEX
8
SLAB_00
10
81.139
20
-162.277
30
0.0
0
VERTEX
8
SLAB_00
10
86.901
20
-165.008
30
0.0
0
VERTEX
8
SLAB_00
10
92.853
20
-167.528
30
0.0
0
VERTEX
8
SLAB_00
10
98.988
20
-169.823
30
0.0
0
VERTEX
8
SLAB_00
10
105.295
20
-171.880
30
0.0
0
VERTEX
8
SLAB_00
10
111.764
20
-173.687
30
0.0
0
VERTEX
8
SLAB_00
10
118.385
20
-175.232
30
0.0
0
VERTEX
8
SLAB_00
10
125.146
20
-176.503
30
0.0
0
VERTEX
8
SLAB_00
10
132.033
20
-177.489
30
0.0
0
VERTEX
8
SLAB_00
10
139.033
20
-178.181
30
0.0
0
VERTEX
8
SLAB_00
10
146.132
20
-178.568
30
0.0
0
VERTEX
8
SLAB_00
10
153.315
20
-178.643
30
0.0
0
VERTEX
8
SLAB_00
10
160.566
20
-178.396
30
0.0
0
VERTEX
8
SLAB_00
10
167.869
20
-177.823
30
0.0
0
VERTEX
8
SLAB_00
10
175.206
20
-176.916
30
0.0
0
VERTEX
8
SLAB_00
10
182.562
20
-175.670
30
0.0
0
VERTEX
8
SLAB_00
10
189.917
20
-174.082
30
0.0
0
VERTEX
8
SLAB_00
10
197.255
20
-172.149
30
0.0
0
VERTEX
8
SLAB_00
10
204.555
20
-169.869
30
0.0
0
VERTEX
8
SLAB_00
10
211.801
20
-167.240
30
0.0
0
VERTEX
8
SLAB_00
10
218.973
20
-164.265
30
0.0
0
VERTEX
8
SLAB_00
10
226.052
20
-160.943
30
0.0
0
VERTEX
8
SLAB_00
10
233.019
20
-157.277
30
0.0
0
VERTEX
8
SLAB_00
10
239.856
20
-153.272
30
0.0
0
VERTEX
8
SLAB_00
10
246.544
20
-148.932
30
0.0
0
VERTEX
8
SLAB_00
10
253.064
20
-144.263
30
0.0
0
VERTEX
8
SLAB_00
10
259.399
20
-139.272
30
0.0
0
VERTEX
8
SLAB_00
10
265.530
20
-133.968
30
0.0
0
VERTEX
8
SLAB_00
10
271.439
20
-128.359
30
0.0
0
VERTEX
8
SLAB_00
10
277.111
20
-122.457
30
0.0
0
VERTEX
8
SLAB_00
10
282.529
20
-116.273
30
0.0
0
VERTEX
8
SLAB_00
10
287.676
20
-109.818
30
0.0
0
VERTEX
8
SLAB_00
10
292.539
20
-103.107
30
0.0
0
VERTEX
8
SLAB_00
10
297.102
20
-96.153
30
0.0
0
VERTEX
8
SLAB_00
10
301.352
20
-88.972
30
0.0
0
VERTEX
8
SLAB_00
10
305.276
20
-81.580
30
0.0
0
VERTEX
8
SLAB_00
10
308.864
20
-73.992
30
0.0
0
VERTEX
8
SLAB_00
10
312.103
20
-66.228
30
0.0
0
VERTEX
8
SLAB_00
10
314.985
20
-58.305
30
0.0
0
VERTEX
8
SLAB_00
10
317.501
20
-50.240
30
0.0
0
VERTEX
8
SLAB_00
10
319.642
20
-42.055
30
0.0
0
VERTEX
8
SLAB_00
10
321.404
20
-33.767
30
0.0
0
VERTEX
8
SLAB_00
10
322.779
20
-25.397
30
0.0
0
VERTEX
8
SLAB_00
10
323.764
20
-16.966
30
0.0
0
VERTEX
8
SLAB_00
10
324.357
20
-8.493
30
0.0
0
SEQEND
8
SLAB_00
0
TEXT
8
TEXT
10
0.000
20
193.643
30
0.0
40
8.0
1
29: s'=+605 D=357
0
CIRCLE
8
DOWEL
10
15.000
20
18.000
30
0.0
40
3.250
0
TEXT
8
DOWEL
10
20.000
20
16.000
30
0.0
40
3.0
1
A
0
CIRCLE
8
DOWEL
10
15.000
20
-18.000
30
0.0
40
3.250
0
TEXT
8
DOWEL
10
20.000
20
-20.000
30
0.0
40
3.0
1
B
0
CIRCLE
8
DOWEL
10
45.000
20
18.000
30
0.0
40
3.250
0
TEXT
8
DOWEL
10
50.000
20
16.000
30
0.0
40
3.0
1
C
0
CIRCLE
8
DOWEL
10
45.000
20
-18.000
30
0.0
40
3.250
0
TEXT
8
DOWEL
10
50.000
20
-20.000
30
0.0
40
3.0
1
D
0
ENDSEC
0
EOF