0
SECTION
2
HEADER
9
$ACADVER
1
AC1009
9
$INSUNITS
70
4
0
ENDSEC
0
SECTION
2
TABLES
0
TABLE
2
LAYER
70
4
0
LAYER
2
0
70
0
62
7
6
CONTINUOUS
0
LAYER
2
TEXT
70
0
62
1
6
CONTINUOUS
0
LAYER
2
DOWEL
70
0
62
5
6
CONTINUOUS
0
LAYER
2
SLAB_00
70
0
62
2
6
CONTINUOUS
0
ENDTAB
0
ENDSEC
0
SECTION
2
ENTITIES
0
POLYLINE
8
SLAB_00
66
1
70
1
10
0.0
20
0.0
30
0.0
0
VERTEX
8
SLAB_00
10
223.151
20
0.000
30
0.0
0
VERTEX
8
SLAB_00
10
223.015
20
5.840
30
0.0
0
VERTEX
8
SLAB_00
10
222.608
20
11.665
30
0.0
0
VERTEX
8
SLAB_00
10
221.930
20
17.462
30
0.0
0
VERTEX
8
SLAB_00
10
220.984
20
23.217
30
0.0
0
VERTEX
8
SLAB_00
10
219.774
20
28.915
30
0.0
0
VERTEX
8
SLAB_00
10
218.301
20
34.543
30
0.0
0
VERTEX
8
SLAB_00
10
216.572
20
40.088
30
0.0
0
VERTEX
8
SLAB_00
10
214.590
20
45.536
30
0.0
0
VERTEX
8
SLAB_00
10
212.363
20
50.874
30
0.0
0
VERTEX
8
SLAB_00
10
209.896
20
56.091
30
0.0
0
VERTEX
8
SLAB_00
10
207.198
20
61.174
30
0.0
0
VERTEX
8
SLAB_00
10
204.275
20
66.111
30
0.0
0
VERTEX
8
SLAB_00
10
201.138
20
70.892
30
0.0
0
VERTEX
8
SLAB_00
10
197.795
20
75.507
30
0.0
0
VERTEX
8
SLAB_00
10
194.256
20
79.945
30
0.0
0
VERTEX
8
SLAB_00
10
190.531
20
84.197
30
0.0
0
VERTEX
8
SLAB_00
10
186.631
20
88.255
30
0.0
0
VERTEX
8
SLAB_00
10
182.568
20
92.111
30
0.0
0
VERTEX
8
SLAB_00
10
178.352
20
95.758
30
0.0
0
VERTEX
8
SLAB_00
10
173.997
20
99.189
30
0.0
0
VERTEX
8
SLAB_00
10
169.514
20
102.400
30
0.0
0
VERTEX
8
SLAB_00
10
164.916
20
105.384
30
0.0
0
VERTEX
8
SLAB_00
10
160.215
20
108.138
30
0.0
0
VERTEX
8
SLAB_00
10
155.424
20
110.658
30
0.0
0
VERTEX
8
SLAB_00
10
150.557
20
112.942
30
0.0
0
VERTEX
8
SLAB_00
10
145.626
20
114.988
30
0.0
0
VERTEX
8
SLAB_00
10
140.644
20
116.795
30
0.0
0
VERTEX
8
SLAB_00
10
135.625
20
118.363
30
0.0
0
VERTEX
8
SLAB_00
10
130.580
20
119.692
30
0.0
0
VERTEX
8
SLAB_00
10
125.522
20
120.784
30
0.0
0
VERTEX
8
SLAB_00
10
120.465
20
121.640
30
0.0
0
VERTEX
8
SLAB_00
10
115.420
20
122.264
30
0.0
0
VERTEX
8
SLAB_00
10
110.399
20
122.658
30
0.0
0
VERTEX
8
SLAB_00
10
105.413
20
122.828
30
0.0
0
VERTEX
8
SLAB_00
10
100.475
20
122.776
30
0.0
0
VERTEX
8
SLAB_00
10
95.594
20
122.510
30
0.0
0
VERTEX
8
SLAB_00
10
90.781
20
122.035
30
0.0
0
VERTEX
8
SLAB_00
10
86.045
20
121.357
30
0.0
0
VERTEX
8
SLAB_00
10
81.397
20
120.483
30
0.0
0
VERTEX
8
SLAB_00
10
76.845
20
119.421
30
0.0
0
VERTEX
8
SLAB_00
10
72.397
20
118.178
30
0.0
0
VERTEX
8
SLAB_00
10
68.060
20
116.764
30
0.0
0
VERTEX
8
SLAB_00
10
63.842
20
115.186
30
0.0
0
VERTEX
8
SLAB_00
10
59.750
20
113.453
30
0.0
0
VERTEX
8
SLAB_00
10
55.788
20
111.575
30
0.0
0
VERTEX
8
SLAB_00
10
51.962
20
109.562
30
0.0
0
VERTEX
8
SLAB_00
10
48.276
20
107.422
30
0.0
0
VERTEX
8
SLAB_00
10
44.734
20
105.165
30
0.0
0
VERTEX
8
SLAB_00
10
41.340
20
102.801
30
0.0
0
VERTEX
8
SLAB_00
10
38.095
20
100.340
30
0.0
0
VERTEX
8
SLAB_00
10
35.001
20
97.792
30
0.0
0
VERTEX
8
SLAB_00
10
32.060
20
95.166
30
0.0
0
VERTEX
8
SLAB_00
10
29.272
20
92.472
30
0.0
0
VERTEX
8
SLAB_00
10
26.636
20
89.719
30
0.0
0
VERTEX
8
SLAB_00
10
24.153
20
86.917
30
0.0
0
VERTEX
8
SLAB_00
10
21.820
20
84.074
30
0.0
0
VERTEX
8
SLAB_00
10
19.635
20
81.200
30
0.0
0
VERTEX
8
SLAB_00
10
17.597
20
78.303
30
0.0
0
VERTEX
8
SLAB_00
10
15.702
20
75.390
30
0.0
0
VERTEX
8
SLAB_00
10
13.947
20
72.470
30
0.0
0
VERTEX
8
SLAB_00
10
12.328
20
69.551
30
0.0
0
VERTEX
8
SLAB_00
10
10.840
20
66.637
30
0.0
0
VERTEX
8
SLAB_00
10
9.480
20
63.738
30
0.0
0
VERTEX
8
SLAB_00
10
8.241
20
60.857
30
0.0
0
VERTEX
8
SLAB_00
10
7.119
20
58.002
30
0.0
0
VERTEX
8
SLAB_00
10
6.107
20
55.176
30
0.0
0
VERTEX
8
SLAB_00
10
5.201
20
52.384
30
0.0
0
VERTEX
8
SLAB_00
10
4.394
20
49.630
30
0.0
0
VERTEX
8
SLAB_00
10
3.681
20
46.917
30
0.0
0
VERTEX
8
SLAB_00
10
3.054
20
44.249
30
0.0
0
VERTEX
8
SLAB_00
10
2.507
20
41.627
30
0.0
0
VERTEX
8
SLAB_00
10
2.035
20
39.054
30
0.0
0
VERTEX
8
SLAB_00
10
1.631
20
36.529
30
0.0
0
VERTEX
8
SLAB_00
10
1.288
20
34.055
30
0.0
0
VERTEX
8
SLAB_00
10
1.001
20
31.631
30
0.0
0
VERTEX
8
SLAB_00
10
0.764
20
29.256
30
0.0
0
VERTEX
8
SLAB_00
10
0.571
20
26.931
30
0.0
0
VERTEX
8
SLAB_00
10
0.417
20
24.653
30
0.0
0
VERTEX
8
SLAB_00
10
0.296
20
22.420
30
0.0
0
VERTEX
8
SLAB_00
10
0.203
20
20.231
30
0.0
0
VERTEX
8
SLAB_00
10
0.134
20
18.083
30
0.0
0
VERTEX
8
SLAB_00
10
0.084
20
15.973
30
0.0
0
VERTEX
8
SLAB_00
10
0.049
20
13.897
30
0.0
0
VERTEX
8
SLAB_00
10
0.027
20
11.852
30
0.0
0
VERTEX
8
SLAB_00
10
0.013
20
9.835
30
0.0
0
VERTEX
8
SLAB_00
10
0.005
20
7.840
30
0.0
0
VERTEX
8
SLAB_00
10
0.002
20
5.863
30
0.0
0
VERTEX
8
SLAB_00
10
0.000
20
3.901
30
0.0
0
VERTEX
8
SLAB_00
10
0.000
20
1.948
30
0.0
0
VERTEX
8
SLAB_00
10
0.000
20
0.000
30
0.0
0
VERTEX
8
SLAB_00
10
0.000
20
-1.948
30
0.0
0
VERTEX
8
SLAB_00
10
0.000
20
-3.901
30
0.0
0
VERTEX
8
SLAB_00
10
0.002
20
-5.863
30
0.0
0
VERTEX
8
SLAB_00
10
0.005
20
-7.840
30
0.0
0
VERTEX
8
SLAB_00
10
0.013
20
-9.835
30
0.0
0
VERTEX
8
SLAB_00
10
0.027
20
-11.852
30
0.0
0
VERTEX
8
SLAB_00
10
0.049
20
-13.897
30
0.0
0
VERTEX
8
SLAB_00
10
0.084
20
-15.973
30
0.0
0
VERTEX
8
SLAB_00
10
0.134
20
-18.083
30
0.0
0
VERTEX
8
SLAB_00
10
0.203
20
-20.231
30
0.0
0
VERTEX
8
SLAB_00
10
0.296
20
-22.420
30
0.0
0
VERTEX
8
SLAB_00
10
0.417
20
-24.653
30
0.0
0
VERTEX
8
SLAB_00
10
0.571
20
-26.931
30
0.0
0
VERTEX
8
SLAB_00
10
0.764
20
-29.256
30
0.0
0
VERTEX
8
SLAB_00
10
1.001
20
-31.631
30
0.0
0
VERTEX
8
SLAB_00
10
1.288
20
-34.055
30
0.0
0
VERTEX
8
SLAB_00
10
1.631
20
-36.529
30
0.0
0
VERTEX
8
SLAB_00
10
2.035
20
-39.054
30
0.0
0
VERTEX
8
SLAB_00
10
2.507
20
-41.627
30
0.0
0
VERTEX
8
SLAB_00
10
3.054
20
-44.249
30
0.0
0
VERTEX
8
SLAB_00
10
3.681
20
-46.917
30
0.0
0
VERTEX
8
SLAB_00
10
4.394
20
-49.630
30
0.0
0
VERTEX
8
SLAB_00
10
5.201
20
-52.384
30
0.0
0
VERTEX
8
SLAB_00
10
6.107
20
-55.176
30
0.0
0
VERTEX
8
SLAB_00
10
7.119
20
-58.002
30
0.0
0
VERTEX
8
SLAB_00
10
8.241
20
-60.857
30
0.0
0
VERTEX
8
SLAB_00
10
9.480
20
-63.738
30
0.0
0
VERTEX
8
SLAB_00
10
10.840
20
-66.637
30
0.0
0
VERTEX
8
SLAB_00
10
12.328
20
-69.551
30
0.0
0
VERTEX
8
SLAB_00
10
13.947
20
-72.470
30
0.0
0
VERTEX
8
SLAB_00
10
15.702
20
-75.390
30
0.0
0
VERTEX
8
SLAB_00
10
17.597
20
-78.303
30
0.0
0
VERTEX
8
SLAB_00
10
19.635
20
-81.200
30
0.0
0
VERTEX
8
SLAB_00
10
21.820
20
-84.074
30
0.0
0
VERTEX
8
SLAB_00
10
24.153
20
-86.917
30
0.0
0
VERTEX
8
SLAB_00
10
26.636
20
-89.719
30
0.0
0
VERTEX
8
SLAB_00
10
29.272
20
-92.472
30
0.0
0
VERTEX
8
SLAB_00
10
32.060
20
-95.166
30
0.0
0
VERTEX
8
SLAB_00
10
35.001
20
-97.792
30
0.0
0
VERTEX
8
SLAB_00
10
38.095
20
-100.340
30
0.0
0
VERTEX
8
SLAB_00
10
41.340
20
-102.801
30
0.0
0
VERTEX
8
SLAB_00
10
44.734
20
-105.165
30
0.0
0
VERTEX
8
SLAB_00
10
48.276
20
-107.422
30
0.0
0
VERTEX
8
SLAB_00
10
51.962
20
-109.562
30
0.0
0
VERTEX
8
SLAB_00
10
55.788
20
-111.575
30
0.0
0
VERTEX
8
SLAB_00
10
59.750
20
-113.453
30
0.0
0
VERTEX
8
SLAB_00
10
63.842
20
-115.186
30
0.0
0
VERTEX
8
SLAB_00
10
68.060
20
-116.764
30
0.0
0
VERTEX
8
SLAB_00
10
72.397
20
-118.178
30
0.0
0
VERTEX
8
SLAB_00
10
76.845
20
-119.421
30
0.0
0
VERTEX
8
SLAB_00
10
81.397
20
-120.483
30
0.0
0
VERTEX
8
SLAB_00
10
86.045
20
-121.357
30
0.0
0
VERTEX
8
SLAB_00
10
90.781
20
-122.035
30
0.0
0
VERTEX
8
SLAB_00
10
95.594
20
-122.510
30
0.0
0
VERTEX
8
SLAB_00
10
100.475
20
-122.776
30
0.0
0
VERTEX
8
SLAB_00
10
105.413
20
-122.828
30
0.0
0
VERTEX
8
SLAB_00
10
110.399
20
-122.658
30
0.0
0
VERTEX
8
SLAB_00
10
115.420
20
-122.264
30
0.0
0
VERTEX
8
SLAB_00
10
120.465
20
-121.640
30
0.0
0
VERTEX
8
SLAB_00
10
125.522
20
-120.784
30
0.0
0
VERTEX
8
SLAB_00
10
130.580
20
-119.692
30
0.0
0
VERTEX
8
SLAB_00
10
135.625
20
-118.363
30
0.0
0
VERTEX
8
SLAB_00
10
140.644
20
-116.795
30
0.0
0
VERTEX
8
SLAB_00
10
145.626
20
-114.988
30
0.0
0
VERTEX
8
SLAB_00
10
150.557
20
-112.942
30
0.0
0
VERTEX
8
SLAB_00
10
155.424
20
-110.658
30
0.0
0
VERTEX
8
SLAB_00
10
160.215
20
-108.138
30
0.0
0
VERTEX
8
SLAB_00
10
164.916
20
-105.384
30
0.0
0
VERTEX
8
SLAB_00
10
169.514
20
-102.400
30
0.0
0
VERTEX
8
SLAB_00
10
173.997
20
-99.189
30
0.0
0
VERTEX
8
SLAB_00
10
178.352
20
-95.758
30
0.0
0
VERTEX
8
SLAB_00
10
182.568
20
-92.111
30
0.0
0
VERTEX
8
SLAB_00
10
186.631
20
-88.255
30
0.0
0
VERTEX
8
SLAB_00
10
190.531
20
-84.197
30
0.0
0
VERTEX
8
SLAB_00
10
194.256
20
-79.945
30
0.0
0
VERTEX
8
SLAB_00
10
197.795
20
-75.507
30
0.0
0
VERTEX
8
SLAB_00
10
201.138
20
-70.892
30
0.0
0
VERTEX
8
SLAB_00
10
204.275
20
-66.111
30
0.0
0
VERTEX
8
SLAB_00
10
207.198
20
-61.174
30
0.0
0
VERTEX
8
SLAB_00
10
209.896
20
-56.091
30
0.0
0
VERTEX
8
SLAB_00
10
212.363
20
-50.874
30
0.0
0
VERTEX
8
SLAB_00
10
214.590
20
-45.536
30
0.0
0
VERTEX
8
SLAB_00
10
216.572
20
-40.088
30
0.0
0
VERTEX
8
SLAB_00
10
218.301
20
-34.543
30
0.0
0
VERTEX
8
SLAB_00
10
219.774
20
-28.915
30
0.0
0
VERTEX
8
SLAB_00
10
220.984
20
-23.217
30
0.0
0
VERTEX
8
SLAB_00
10
221.930
20
-17.462
30
0.0
0
VERTEX
8
SLAB_00
10
222.608
20
-11.665
30
0.0
0
VERTEX
8
SLAB_00
10
223.015
20
-5.840
30
0.0
0
SEQEND
8
SLAB_00
0
TEXT
8
TEXT
10
0.000
20
137.828
30
0.0
40
8.0
1
48: s'=+1087 D=246
0
CIRCLE
8
DOWEL
10
15.000
20
18.000
30
0.0
40
3.250
0
TEXT
8
DOWEL
10
20.000
20
16.000
30
0.0
40
3.0
1
A
0
CIRCLE
8
DOWEL
10
15.000
20
-18.000
30
0.0
40
3.250
0
TEXT
8
DOWEL
10
20.000
20
-20.000
30
0.0
40
3.0
1
B
0
CIRCLE
8
DOWEL
10
45.000
20
18.000
30
0.0
40
3.250
0
TEXT
8
DOWEL
10
50.000
20
16.000
30
0.0
40
3.0
1
C
0
CIRCLE
8
DOWEL
10
45.000
20
-18.000
30
0.0
40
3.250
0
TEXT
8
DOWEL
10
50.000
20
-20.000
30
0.0
40
3.0
1
D
0
ENDSEC
0
EOF