<?xml version="1.0" encoding="UTF-8"?>
<!--
  clicky_side.svg - Clements 47 clicky-pen pitch-change mechanism, side elevation.
  1:1 scale, millimetres. Section view through the barrel to reveal the
  cam-click detent.

  Orientation:
    +x : along the string (horizontal)
    +y : DOWN (SVG convention).  In this drawing the plywood is vertical on the
         left, the clicky body sits against its OUTER face, and the shaft
         pushes to the RIGHT through a 6.5 mm clearance hole into the
         inter-plywood gap, where the paddle engages the string.

  Example string: B4 (#28), sharp paddle. Contact point at the string
  centerline on the right edge of the drawing.

  Mechanism choice: cam-click (ballpoint-pen style).  A barrel with internal
  splines guides a cammed plunger that rotates 30 deg per push, alternately
  latching on a crenellated stop (EXTENDED) or free to retract against the
  spring (RETRACTED).  Bistable with one spring - matches the "one click
  engages the string" spec and holds >= 2.8 N at the bass end without a
  continuous hold force.  Ball-detent was rejected because it is monostable
  and leaks torque; ratchet-cam latches positively.
-->
<svg xmlns="http://www.w3.org/2000/svg"
     width="220mm" height="150mm"
     viewBox="-30 -90 220 150">

  <defs>
    <!-- Arrow marker for dimension lines -->
    <marker id="arr" viewBox="0 0 8 8" refX="7" refY="4"
            markerWidth="6" markerHeight="6" orient="auto">
      <path d="M0,0 L8,4 L0,8 z" fill="#333"/>
    </marker>

    <!-- Hatch pattern for section cuts (plywood) -->
    <pattern id="hatchPly" patternUnits="userSpaceOnUse"
             width="1.4" height="1.4" patternTransform="rotate(45)">
      <line x1="0" y1="0" x2="0" y2="1.4" stroke="#8a6a3a" stroke-width="0.15"/>
    </pattern>

    <!-- Hatch pattern for section cuts (metal/plastic barrel) -->
    <pattern id="hatchMetal" patternUnits="userSpaceOnUse"
             width="1.2" height="1.2" patternTransform="rotate(45)">
      <line x1="0" y1="0" x2="0" y2="1.2" stroke="#555" stroke-width="0.12"/>
    </pattern>

    <!-- Hatch pattern for spring-section (coarser, orthogonal) -->
    <pattern id="hatchSpring" patternUnits="userSpaceOnUse"
             width="1.2" height="1.2" patternTransform="rotate(-45)">
      <line x1="0" y1="0" x2="0" y2="1.2" stroke="#444" stroke-width="0.12"/>
    </pattern>

    <style>
      .grid     { stroke:#eee;   stroke-width:0.08; fill:none; }
      .axis     { stroke:#bbb;   stroke-width:0.2;  fill:none;
                  stroke-dasharray:3,1.5,0.5,1.5; }
      .outline  { stroke:#222;   stroke-width:0.8;  fill:none; }
      .outline2 { stroke:#222;   stroke-width:0.5;  fill:none; }
      .hidden   { stroke:#444;   stroke-width:0.3;  fill:none;
                  stroke-dasharray:1.2,1.0; }
      .cl       { stroke:#7070a0; stroke-width:0.25; fill:none;
                  stroke-dasharray:4,1,0.3,1; }
      .dim      { stroke:#333;   stroke-width:0.3;  fill:none;
                  marker-start:url(#arr); marker-end:url(#arr); }
      .dimext   { stroke:#666;   stroke-width:0.2;  fill:none; }
      .strng    { stroke:#c00000; stroke-width:1.0; fill:none; }

      .ghost    { stroke:#222;   stroke-width:0.5;  fill:none;
                  stroke-dasharray:1.6,1.2; opacity:0.75; }

      .lbl      { font-family:sans-serif; font-size:3.2px;
                  fill:#111; font-weight:600; }
      .lblsm    { font-family:sans-serif; font-size:2.6px;
                  fill:#222; font-weight:600; }
      .dimtxt   { font-family:sans-serif; font-size:2.6px;
                  fill:#222; }
      .note     { font-family:sans-serif; font-size:2.3px;
                  fill:#444; }
      .title    { font-family:sans-serif; font-size:4.2px;
                  fill:#111; font-weight:700; }
    </style>
  </defs>

  <!-- ======================================================================
       TITLE BLOCK
       ====================================================================== -->
  <text class="title" x="-28" y="-83">
    Clements 47 - clicky-pen pitch mechanism, side section (1:1 mm)
  </text>
  <text class="note"  x="-28" y="-78.5">
    Cam-click (ballpoint-pen) detent.  Plywood sectioned; barrel sectioned on axis to show cam / spring / pusher.
  </text>
  <text class="note"  x="-28" y="-75">
    Example string: B4 sharp paddle.  Solid outlines = EXTENDED (latched, paddle engaged).  Dashed overlay = RETRACTED.
  </text>

  <!-- ======================================================================
       REFERENCE GRID (10 mm major, light)
       ====================================================================== -->
  <g class="grid">
    <path d="M-30,-70 H190 M-30,-60 H190 M-30,-50 H190 M-30,-40 H190
             M-30,-30 H190 M-30,-20 H190 M-30,-10 H190 M-30,0   H190
             M-30,10  H190 M-30,20  H190 M-30,30  H190 M-30,40  H190
             M-30,50  H190"/>
    <path d="M-30,-70 V50 M-20,-70 V50 M-10,-70 V50 M0,-70 V50
             M10,-70 V50 M20,-70 V50 M30,-70 V50 M40,-70 V50
             M50,-70 V50 M60,-70 V50 M70,-70 V50 M80,-70 V50
             M90,-70 V50 M100,-70 V50 M110,-70 V50 M120,-70 V50
             M130,-70 V50 M140,-70 V50 M150,-70 V50 M160,-70 V50
             M170,-70 V50 M180,-70 V50"/>
  </g>

  <!-- ======================================================================
       COORDINATE FRAME  (origin at the tail end of the barrel, on the axis)
       Axis runs left to right.
       ======================================================================

       Layout along +x:
         x = -5  ... 0     : (empty, for labels)
         x =  0  ... 16    : clicky barrel (L = 16 mm, OD = 12 mm)
         x = 16  ... 22    : north-plywood THICKNESS (6 mm)
         x = 22  ... ~47   : shaft extending into the 12.7 mm gap
         x = 47            : paddle body, nose pin, string
         x = 47.8          : nose tip (EXTENDED)
         (retracted state: shaft and paddle shifted 4 mm to the left)

       Axis y-span (barrel centerline at y = 0):
         OD/2 = 6 on either side of the axis.
  -->

  <!-- centre-line of the whole assembly -->
  <line class="cl" x1="-8" y1="0" x2="75" y2="0"/>
  <text class="lblsm" x="-8" y="-1.5">CL</text>

  <!-- ======================================================================
       PLYWOOD (north sheet) - sectioned.  6 mm thick.
       Drawn vertical, barrel passes through a 6.5 mm clearance hole.
       ====================================================================== -->
  <!-- Plywood outline, broken around the clearance hole -->
  <path class="outline"
        d="M 16,-40 L 16,-3.25
           M 16,3.25 L 16,40
           M 22,-40 L 22,-3.25
           M 22,3.25 L 22,40"/>
  <!-- Top and bottom edges of the plywood cutaway (break-lines) -->
  <path class="outline2"
        d="M 16,-40 L 22,-40
           M 16,40  L 22,40"/>

  <!-- Plywood hatch fill (sectioned) -->
  <path fill="url(#hatchPly)" stroke="none"
        d="M 16,-40 L 22,-40 L 22,-3.25 L 16,-3.25 Z
           M 16,3.25 L 22,3.25 L 22,40 L 16,40 Z"/>

  <!-- Clearance hole centerline (6.5 mm dia) -->
  <line class="cl" x1="14" y1="-3.25" x2="24" y2="-3.25"/>
  <line class="cl" x1="14" y1="3.25"  x2="24" y2="3.25"/>

  <!-- Plywood label -->
  <text class="lbl" x="17" y="36" transform="rotate(-90 17 36)">6 mm plywood (north sheet)</text>

  <!-- South plywood sheet 12.7 mm across the gap (shown on far right) -->
  <path class="outline"
        d="M 60.2,-40 L 60.2,40 M 66.2,-40 L 66.2,40
           M 60.2,-40 L 66.2,-40 M 60.2,40 L 66.2,40"/>
  <path fill="url(#hatchPly)" stroke="none"
        d="M 60.2,-40 L 66.2,-40 L 66.2,40 L 60.2,40 Z"/>
  <text class="lbl" x="61.2" y="36" transform="rotate(-90 61.2 36)">6 mm plywood (south sheet)</text>

  <!-- 12.7 mm inter-plywood gap callout -->
  <line class="dimext" x1="22"   y1="45" x2="22"   y2="48"/>
  <line class="dimext" x1="60.2" y1="45" x2="60.2" y2="48"/>
  <line class="dim"    x1="22"   y1="47" x2="60.2" y2="47"/>
  <text class="dimtxt" x="30" y="50.5">12.7 mm inter-plywood gap</text>

  <!-- 6 mm plywood thickness callout (north) -->
  <line class="dimext" x1="16" y1="-43" x2="16" y2="-46"/>
  <line class="dimext" x1="22" y1="-43" x2="22" y2="-46"/>
  <line class="dim"    x1="16" y1="-45" x2="22" y2="-45"/>
  <text class="dimtxt" x="16.5" y="-46.5">6 mm</text>

  <!-- 6.5 mm clearance-hole callout -->
  <line class="dimext" x1="14" y1="-3.25" x2="10" y2="-3.25"/>
  <line class="dimext" x1="14" y1="3.25"  x2="10" y2="3.25"/>
  <line class="dim"    x1="12" y1="-3.25" x2="12" y2="3.25"/>
  <text class="dimtxt" x="1"  y="0.5">6.5 mm clearance hole</text>

  <!-- ======================================================================
       CLICKY BARREL - outer shell (sectioned).  OD 12 mm, L 16 mm.
       Flush against the OUTER (left) face of the north plywood.
       Flange (13 mm OD x 1 mm) rests on the plywood face.
       ======================================================================
  -->
  <!-- Flange (1 mm thick) -->
  <path class="outline"
        d="M 15,-6.5 L 16,-6.5 L 16,-6  L 15,-6  Z
           M 15, 6.5 L 16, 6.5 L 16, 6   L 15, 6   Z"/>
  <path fill="url(#hatchMetal)" stroke="none"
        d="M 15,-6.5 L 16,-6.5 L 16,-6  L 15,-6  Z
           M 15, 6.5 L 16, 6.5 L 16, 6   L 15, 6   Z"/>

  <!-- Barrel wall - upper half (sectioned): OD 12, ID 10, L 16 -->
  <path class="outline"
        d="M 0,-6 L 16,-6 L 16,-5 L 0,-5 Z"/>
  <path fill="url(#hatchMetal)" stroke="none"
        d="M 0,-6 L 16,-6 L 16,-5 L 0,-5 Z"/>

  <!-- Barrel wall - lower half (sectioned) -->
  <path class="outline"
        d="M 0, 6 L 16, 6 L 16, 5 L 0, 5 Z"/>
  <path fill="url(#hatchMetal)" stroke="none"
        d="M 0, 6 L 16, 6 L 16, 5 L 0, 5 Z"/>

  <!-- Tail cap (closed end at x = 0): a thin disc integral with the barrel -->
  <path class="outline"
        d="M 0,-5 L 1,-5 L 1,5 L 0,5 Z"/>
  <path fill="url(#hatchMetal)" stroke="none"
        d="M 0,-5 L 1,-5 L 1,5 L 0,5 Z"/>

  <!-- Pusher (thumb button): protrudes 2 mm past the tail cap at rest,
       sinks to flush when clicked.  EXTENDED state = pusher 2 mm proud. -->
  <path class="outline"
        d="M -2,-4 L 0,-4 L 0,4 L -2,4 Z"/>
  <path fill="url(#hatchMetal)" stroke="none"
        d="M -2,-4 L 0,-4 L 0,4 L -2,4 Z"/>
  <text class="lblsm" x="-4.2" y="-5.5">pusher</text>

  <!-- CAM SLEEVE - inside the barrel, rides on splines.  A toothed ring
       whose crenellations seat on matching pins on the barrel ID when
       latched (EXTENDED), or clear them when pushed (RETRACTED).
       Drawn as two rectangles straddling the axis, with visible tooth
       profile facing +x.  L = 6 mm, OD 9.5 mm. -->
  <path class="outline"
        d="M 3,-4.75 L 9,-4.75 L 9,-3.25 L 3,-3.25 Z
           M 3, 4.75 L 9, 4.75 L 9, 3.25 L 3, 3.25 Z"/>
  <path fill="url(#hatchMetal)" stroke="none"
        d="M 3,-4.75 L 9,-4.75 L 9,-3.25 L 3,-3.25 Z
           M 3, 4.75 L 9, 4.75 L 9, 3.25 L 3, 3.25 Z"/>

  <!-- Crenellated stop teeth at the +x face of the cam sleeve -->
  <path class="outline2"
        d="M 9,-4.75 L 10,-4.25 L 9,-3.75 L 10,-3.25
           M 9, 4.75 L 10, 4.25 L 9, 3.75 L 10, 3.25"/>

  <!-- Barrel inner rib that the cam teeth latch against (two small bumps) -->
  <path class="outline2"
        d="M 10,-5 L 11,-4.25 L 10,-3.5
           M 10, 5 L 11, 4.25 L 10, 3.5"/>

  <!-- SPRING - compression spring between the cam sleeve (+x face of
       pusher/cam) and an internal shoulder at x = 16 (inner face of
       the flange wall).  Free length ~30 mm, installed length ~6 mm here
       when EXTENDED, 2 mm shorter (~10 mm more compression) when RETRACTED.
       Drawn as a zig-zag between the two end faces, wire 0.8, coil OD 7.5. -->
  <g class="outline2">
    <polyline points="9,-3.75 10.2,-2.3 9,-0.8 10.2,0.65 9,2.1 10.2,3.55 9,3.75"/>
    <polyline points="10.2,-2.3 11.5,-3.75 12.7,-2.3 14,-3.75 15.3,-2.3"/>
    <polyline points="10.2,0.65 11.5,2.1 12.7,0.65 14,2.1 15.3,0.65"/>
    <polyline points="10.2,3.55 11.5,2.1 12.7,3.55 14,2.1 15.3,3.55"/>
    <!-- closing strokes to the shoulder at x=15.5 -->
    <line x1="15.3" y1="-2.3" x2="15.5" y2="-2.3"/>
    <line x1="15.3" y1="0.65" x2="15.5" y2="0.65"/>
    <line x1="15.3" y1="3.55" x2="15.5" y2="3.55"/>
  </g>
  <text class="lblsm" x="10" y="-7.2">spring (wire 0.8, OD 7.5, Lf ~30)</text>

  <!-- ======================================================================
       SHAFT - OD 6 mm, passes through the 6.5 mm clearance hole.
       EXTENDED position: nose tip at x = 47.8 (= buffer centre + 0.6
       over-travel).  Length 31 mm from cam face to paddle face.
       ======================================================================
  -->
  <!-- Shaft solid (not sectioned; showing the outline only since it
       emerges from the hatched zone) -->
  <path class="outline"
        d="M 9,-3 L 46.5,-3 L 46.5,3 L 9,3 Z"/>
  <!-- Partial cross-hatch on the portion inside the barrel to indicate cut -->
  <path fill="url(#hatchMetal)" stroke="none"
        d="M 9,-3 L 16,-3 L 16,3 L 9,3 Z"/>

  <text class="lblsm" x="28" y="-4">shaft OD 6 mm</text>

  <!-- ======================================================================
       PADDLE (EXTENDED) - trapezoidal plate 16 x 5 mm in plan, 6 mm tall
       in the side view.  Nose pin r = 0.8 projecting 0.6 mm.
       Contact point coincides with the string centreline at x = 47.8.
       ====================================================================== -->
  <!-- Paddle plate (side view: we see it edge-on, 6 mm tall) -->
  <path class="outline"
        d="M 46.5,-3 L 46.8,-3 L 46.8,-2 L 47.0,-2
           L 47.0, 2 L 46.8, 2 L 46.8, 3 L 46.5,3 Z"/>
  <!-- Note: the paddle body extends +/-8 along the string axis, but this
       side view looks along the string so the paddle appears as a thin
       slab edge-on.  Its 6 mm height (into the gap) is the visible one. -->
  <path class="outline"
        d="M 46.5,-8 L 47.0,-8 L 47.0,8 L 46.5,8 Z" />

  <!-- Nose pin (half-round, r = 0.8 projecting 0.6) -->
  <path class="outline"
        d="M 47.0,-0.8 A 0.8 0.8 0 0 1 47.0,0.8
                 L 47.6,0.8
                 A 0.2 0.2 0 0 0 47.6,-0.8 Z"/>
  <text class="lblsm" x="49.5" y="-1.2">nose pin r=0.8</text>
  <text class="note"  x="49.5" y="1.5">projects 0.6 proud</text>

  <!-- String (pitch-circle point at x = 47.8) - 1 mm dia, normal to this
       view so it appears as a small red circle.  The paddle nose apex
       tangents the string at x = 47.8. -->
  <circle cx="47.8" cy="0" r="0.51" class="strng" fill="#c00000"/>
  <text class="lblsm" x="49.5" y="4">B4 string (1.02 dia)</text>

  <!-- Vertical string centerline hint -->
  <line class="cl" x1="47.8" y1="-14" x2="47.8" y2="14"/>

  <!-- ======================================================================
       RETRACTED OVERLAY (ghost: dashed)
       Shaft + paddle shifted -4 mm in x (stroke = 4 mm nominal).
       The cam sleeve would be slightly further left (-2 mm) since the
       cam-click geometry turns a 2 mm push into a 4 mm latch travel.
       ====================================================================== -->
  <g class="ghost">
    <!-- Pusher shifted +2 (click-sink: flush with tail cap) -->
    <path d="M 0,-4 L 2,-4 L 2,4 L 0,4 Z"/>
    <!-- Cam sleeve shifted -2 (free of the barrel rib, spring longer) -->
    <path d="M 1,-4.75 L 7,-4.75 L 7,-3.25 L 1,-3.25 Z
             M 1, 4.75 L 7, 4.75 L 7, 3.25 L 1, 3.25 Z"/>
    <!-- Shaft shifted -4 -->
    <path d="M 7,-3 L 42.5,-3 L 42.5,3 L 7,3 Z"/>
    <!-- Paddle body ghost (height slab edge-on) -->
    <path d="M 42.5,-8 L 43.0,-8 L 43.0,8 L 42.5,8 Z"/>
    <!-- Nose pin ghost -->
    <path d="M 43.0,-0.8 A 0.8 0.8 0 0 1 43.0,0.8
             L 43.6,0.8 A 0.2 0.2 0 0 0 43.6,-0.8 Z"/>
  </g>
  <text class="lblsm" x="35" y="-16">retracted (ghost)</text>
  <text class="note"  x="35" y="-13.5">air gap 3.0 mm between nose and string</text>

  <!-- 3 mm retracted air gap dimension -->
  <line class="dimext" x1="43.6" y1="-11" x2="43.6" y2="-8.5"/>
  <line class="dimext" x1="47.8" y1="-11" x2="47.8" y2="-8.5"/>
  <line class="dim"    x1="43.6" y1="-10" x2="47.8" y2="-10"/>
  <text class="dimtxt" x="44.4" y="-11.3">3.0 mm air gap</text>

  <!-- Over-travel past string centre (0.6 mm) -->
  <line class="dimext" x1="47.8" y1="11"  x2="47.8" y2="13.5"/>
  <line class="dimext" x1="47.6" y1="11"  x2="47.6" y2="13.5"/>
  <line class="dim"    x1="47.6" y1="12.5" x2="47.8" y2="12.5"/>
  <text class="dimtxt" x="48.4" y="12.8">0.6 over-travel</text>

  <!-- Stroke total 3.6-4.0 mm -->
  <line class="dimext" x1="43.6" y1="14"  x2="43.6" y2="16.5"/>
  <line class="dimext" x1="47.6" y1="14"  x2="47.6" y2="16.5"/>
  <line class="dim"    x1="43.6" y1="15.5" x2="47.6" y2="15.5"/>
  <text class="dimtxt" x="44.2" y="16.9">stroke = 4.0 mm</text>

  <!-- ======================================================================
       DIMENSIONS (barrel, shaft, paddle)
       ====================================================================== -->

  <!-- Barrel OD 12 mm (at x = 8) -->
  <line class="dimext" x1="8"  y1="-6"  x2="8"  y2="-12"/>
  <line class="dimext" x1="8"  y1="6"   x2="8"  y2="12"/>
  <line class="dim"    x1="8"  y1="-11" x2="8"  y2="11"/>
  <text class="dimtxt" x="9.2" y="-8.5">barrel OD 12 mm</text>

  <!-- Barrel ID 10 mm (at x = 5) -->
  <line class="dimext" x1="5"  y1="-5"  x2="5"  y2="-9"/>
  <line class="dimext" x1="5"  y1="5"   x2="5"  y2="9"/>
  <line class="dim"    x1="5"  y1="-8"  x2="5"  y2="8"/>
  <text class="dimtxt" x="-8" y="-6.6">ID 10</text>

  <!-- Barrel length 16 mm -->
  <line class="dimext" x1="0"  y1="7.5" x2="0"  y2="21"/>
  <line class="dimext" x1="16" y1="7.5" x2="16" y2="21"/>
  <line class="dim"    x1="0"  y1="20"  x2="16" y2="20"/>
  <text class="dimtxt" x="3.5" y="22.5">barrel L = 16 mm</text>

  <!-- Shaft OD 6 mm (at x = 35) -->
  <line class="dimext" x1="35" y1="-3"  x2="35" y2="-7"/>
  <line class="dimext" x1="35" y1="3"   x2="35" y2="7"/>
  <line class="dim"    x1="35" y1="-6"  x2="35" y2="6"/>
  <text class="dimtxt" x="36.5" y="-4.5">shaft OD 6</text>

  <!-- Shaft exposed length from plywood OUTER face to paddle (extended)
       = 47 - 16 = 31 mm (but 6 mm is in the plywood, so free span in gap
       = 47 - 22 = 25 mm).  Call out both. -->
  <line class="dimext" x1="16"   y1="24"  x2="16"   y2="27"/>
  <line class="dimext" x1="46.5" y1="24"  x2="46.5" y2="27"/>
  <line class="dim"    x1="16"   y1="26"  x2="46.5" y2="26"/>
  <text class="dimtxt" x="20" y="28.5">shaft 30.5 mm (outer face to paddle)</text>

  <line class="dimext" x1="22"   y1="30"  x2="22"   y2="33"/>
  <line class="dimext" x1="46.5" y1="30"  x2="46.5" y2="33"/>
  <line class="dim"    x1="22"   y1="32"  x2="46.5" y2="32"/>
  <text class="dimtxt" x="24" y="34.5">free span in gap: 24.5 mm</text>

  <!-- Paddle height (into gap) = 16 mm -->
  <line class="dimext" x1="47.5" y1="-8"   x2="55"  y2="-8"/>
  <line class="dimext" x1="47.5" y1="8"    x2="55"  y2="8"/>
  <line class="dim"    x1="54"   y1="-8"   x2="54"  y2="8"/>
  <text class="dimtxt" x="55.2" y="0">paddle 16 mm</text>
  <text class="note"   x="55.2" y="3">(along string, edge-on here)</text>

  <!-- Paddle width into gap = 5 mm -->
  <line class="dimext" x1="46.5" y1="-10.5" x2="46.5" y2="-13"/>
  <line class="dimext" x1="47.0" y1="-10.5" x2="47.0" y2="-13"/>
  <line class="dim"    x1="46.5" y1="-11.5" x2="47.0" y2="-11.5"/>
  <text class="dimtxt" x="41"    y="-12.5">paddle thickness 5</text>

  <!-- ======================================================================
       MECHANISM CALLOUTS (cam-click)
       ====================================================================== -->
  <g>
    <!-- Pointer to the crenellated teeth -->
    <line x1="10" y1="-4.25" x2="22" y2="-22" stroke="#333" stroke-width="0.25"/>
    <text class="lblsm" x="22" y="-23">crenellated stop (teeth)</text>
    <text class="note"  x="22" y="-20.5">barrel ID rib latches cam tooth at EXTENDED</text>

    <!-- Pointer to cam sleeve -->
    <line x1="6" y1="-3.25" x2="-5" y2="-18" stroke="#333" stroke-width="0.25"/>
    <text class="lblsm" x="-18" y="-19.5">cam sleeve</text>
    <text class="note"  x="-18" y="-17">rotates 30 deg per click;</text>
    <text class="note"  x="-18" y="-14.5">latches / releases on teeth</text>

    <!-- Pointer to spring -->
    <line x1="12.5" y1="3" x2="20" y2="22" stroke="#333" stroke-width="0.25"/>
    <text class="lblsm" x="20" y="23">compression spring</text>
    <text class="note"  x="20" y="25.5">wire 0.8, OD 7.5, Lf ~30 mm</text>
    <text class="note"  x="20" y="28">hold force &gt;= 2.8 N (ext.)</text>

    <!-- Pointer to pusher -->
    <line x1="-1" y1="0" x2="-15" y2="-10" stroke="#333" stroke-width="0.25"/>
    <text class="lblsm" x="-27" y="-11.5">pusher (thumb button)</text>
    <text class="note"  x="-27" y="-9">2 mm proud in EXT, flush in RET</text>
  </g>

  <!-- ======================================================================
       STATE LEGEND
       ====================================================================== -->
  <g transform="translate(110,-70)">
    <rect x="0" y="0" width="72" height="30" fill="#fff" stroke="#ccc"
          stroke-width="0.2"/>
    <text class="lbl"  x="2" y="4">States shown</text>

    <line class="outline"  x1="2"  y1="9"  x2="14" y2="9"/>
    <text class="lblsm" x="16" y="10">EXTENDED (solid)</text>
    <text class="note"  x="16" y="12.8">cam teeth latched on barrel rib;</text>
    <text class="note"  x="16" y="15.3">paddle nose 0.6 past string center.</text>

    <line class="ghost"    x1="2"  y1="19" x2="14" y2="19"/>
    <text class="lblsm" x="16" y="20">RETRACTED (dashed)</text>
    <text class="note"  x="16" y="22.8">cam teeth clear of rib;</text>
    <text class="note"  x="16" y="25.3">paddle nose 3.0 mm clear of string.</text>
  </g>

  <!-- ======================================================================
       DIMENSION TABLE (right side)
       ====================================================================== -->
  <g transform="translate(95, 36)">
    <rect x="0" y="0" width="90" height="14" fill="#fff" stroke="#ccc"
          stroke-width="0.2"/>
    <text class="lbl"  x="2" y="3.6">Key dimensions (mm)</text>
    <text class="note" x="2" y="6.6">barrel OD 12 / ID 10 / L 16 | shaft OD 6 | clearance hole 6.5</text>
    <text class="note" x="2" y="9">plywood 6 thick | inter-ply gap 12.7 | paddle 16 x 5 x 6 tall</text>
    <text class="note" x="2" y="11.4">nose pin r 0.8, proj 0.6 | stroke 4.0 (3.0 air + 0.6 over + 0.4 tol)</text>
    <text class="note" x="2" y="13.8">spring 0.8 wire / 7.5 OD / ~30 Lf | hold F &gt;= 2.8 N ext.</text>
  </g>

</svg>
