<?xml version="1.0" encoding="UTF-8"?>
<!--
  dual_clicky.svg - Clements 47 dual clicky-pen assembly.
  Proposed for the treble strings (notably F7, G7; possibly D7, E7) where
  the standard single-clicky design fails: the nat and sharp pitch points
  on the string sit only 3-4 mm apart and two independent Ø 6.5 mm
  drilled holes collide.

  Solution - a dual-clicky assembly with a shared base:
    * One quad-lobed mounting flange (screw ears) hosts both mechanisms.
    * Two pushers side-by-side on top (green), each operating
      independently.  Barrels are spaced so the Ø 12 mm outer diameters
      clear each other (centres 16 mm apart).
    * Two cam sleeves inside their own barrels (pink), each with a
      crenellated top.
    * Inside the shared flange, the two shafts converge from the
      16 mm barrel spacing down to the 3.4 mm string spacing at the
      paddle tips via a short angled taper.
    * A single oblong drill slot (Ø 6.5 mm x 10 mm oval) in the plywood
      carries both shafts through into the string gap.
    * Two paddles tangent to a single red string circle, one at the nat
      pitch point, the other at the sharp pitch point 3.4 mm south.

  Rendered-CAD style matches pedal/clicky_side.svg.  1:1 mm.  Origin at
  the centre of the shared flange, +x toward the sharp (south) side of
  the string, +y DOWN (SVG).
-->
<svg xmlns="http://www.w3.org/2000/svg"
     width="200mm" height="220mm"
     viewBox="-90 -115 200 220">

  <defs>
    <linearGradient id="gradGreen" x1="0" x2="1" y1="0" y2="0">
      <stop offset="0%"   stop-color="#2e7a33"/>
      <stop offset="45%"  stop-color="#5bbd5f"/>
      <stop offset="100%" stop-color="#2e7a33"/>
    </linearGradient>

    <linearGradient id="gradBarrel" x1="0" x2="1" y1="0" y2="0">
      <stop offset="0%"   stop-color="#b8b8b8"/>
      <stop offset="45%"  stop-color="#ececec"/>
      <stop offset="100%" stop-color="#b8b8b8"/>
    </linearGradient>

    <linearGradient id="gradPink" x1="0" x2="1" y1="0" y2="0">
      <stop offset="0%"   stop-color="#c88576"/>
      <stop offset="45%"  stop-color="#f4b0a0"/>
      <stop offset="100%" stop-color="#c88576"/>
    </linearGradient>

    <linearGradient id="gradFlange" x1="0" x2="1" y1="0" y2="0">
      <stop offset="0%"   stop-color="#283593"/>
      <stop offset="45%"  stop-color="#5c6bc0"/>
      <stop offset="100%" stop-color="#283593"/>
    </linearGradient>

    <linearGradient id="gradShaft" x1="0" x2="1" y1="0" y2="0">
      <stop offset="0%"   stop-color="#777"/>
      <stop offset="45%"  stop-color="#c5c5c5"/>
      <stop offset="100%" stop-color="#777"/>
    </linearGradient>

    <linearGradient id="gradPlyFace" x1="0" x2="1" y1="0" y2="0">
      <stop offset="0%"   stop-color="#b07a43"/>
      <stop offset="50%"  stop-color="#d49868"/>
      <stop offset="100%" stop-color="#b07a43"/>
    </linearGradient>

    <style>
      .out   { stroke:#333; stroke-width:0.6; fill:none; }
      .outf  { stroke:#333; stroke-width:0.4; fill:none; }
      .thin  { stroke:#555; stroke-width:0.3; fill:none; }
      .ghost { stroke:#333; stroke-width:0.45; fill:none;
               stroke-dasharray:1.4,1.0; opacity:0.75; }
      .cl    { stroke:#7070a0; stroke-width:0.25; fill:none;
               stroke-dasharray:3,1,0.3,1; }
      .lead  { stroke:#333; stroke-width:0.25; fill:none; }

      .title { font-family:sans-serif; font-size:4.2px;
               fill:#111; font-weight:700; }
      .cap   { font-family:sans-serif; font-size:2.6px; fill:#333; }
      .lbl   { font-family:sans-serif; font-size:2.9px;
               fill:#111; font-weight:600; }
      .dim   { font-family:sans-serif; font-size:2.6px; fill:#222; }
      .note  { font-family:sans-serif; font-size:2.3px; fill:#555; }
      .tag   { font-family:sans-serif; font-size:2.6px;
               fill:#2e7a33; font-weight:700; }
    </style>

    <marker id="arr" viewBox="0 0 8 8" refX="7" refY="4"
            markerWidth="6" markerHeight="6" orient="auto">
      <path d="M0,0 L8,4 L0,8 z" fill="#333"/>
    </marker>
  </defs>

  <!-- ======================================================================
       TITLE / CAPTION
       ====================================================================== -->
  <text class="title" x="-88" y="-108">
    Dual clicky pen - proposed for treble strings where nat/sharp pitch points collide
  </text>
  <text class="cap" x="-88" y="-103.5">
    Rendered-view elevation, 1:1 mm.  Side installed in the neck plywood.
  </text>
  <text class="cap" x="-88" y="-99.5">
    Shared flange hosts two independent clicky stacks.  Shafts converge
    inside the flange from 16 mm barrel spacing down to 3.4 mm at the paddle tips.
  </text>

  <!-- ======================================================================
       CENTRE LINES (one per stack)
         Left stack axis at x = -8 (nat),  right stack axis at x = +8 (sharp)
       ====================================================================== -->
  <line class="cl" x1="-8" y1="-95" x2="-8" y2="8"/>
  <line class="cl" x1=" 8" y1="-95" x2=" 8" y2="8"/>

  <!-- ======================================================================
       LEFT (NAT) CLICKY STACK
       ====================================================================== -->

  <!-- GREEN PUSHER (top).  OD 10 mm, H 20 mm proud + 12 mm into barrel -->
  <rect x="-13" y="-88" width="10" height="20"
        fill="url(#gradGreen)" stroke="#333" stroke-width="0.6"
        rx="0.6" ry="0.6"/>
  <ellipse cx="-8" cy="-88" rx="5" ry="1.3"
           fill="#7ed080" stroke="#333" stroke-width="0.5"/>
  <ellipse cx="-8" cy="-68" rx="5" ry="1.3"
           fill="#4CAF50" stroke="#333" stroke-width="0.4" opacity="0.85"/>
  <!-- Pusher segment inside barrel -->
  <rect x="-13" y="-68" width="10" height="12"
        fill="#4CAF50" fill-opacity="0.9"
        stroke="#333" stroke-width="0.35"/>

  <!-- PINK CAM SLEEVE (crenellated) -->
  <path d="M -12.2,-55
           L -11.2,-58 L -10.2,-55
           L -9.2,-58  L -8.2,-55
           L -7.2,-58  L -6.2,-55
           L -5.2,-58  L -4.2,-55
           L -3.8,-55  L -3.8,-35 L -12.2,-35 Z"
        fill="url(#gradPink)" stroke="#333" stroke-width="0.45"/>
  <rect x="-12.2" y="-35" width="8.4" height="28"
        fill="url(#gradPink)" stroke="#333" stroke-width="0.45"/>
  <path class="thin"
        d="M -12.2,-30 C -10.5,-24 -5.5,-22 -3.8,-16"
        stroke="#8a4a3c" stroke-width="0.35"/>
  <path class="thin"
        d="M -12.2,-18 C -10.5,-12 -5.5,-10 -3.8,-8"
        stroke="#8a4a3c" stroke-width="0.35"/>
  <ellipse cx="-8" cy="-7" rx="4.2" ry="1.1"
           fill="#c88576" stroke="#333" stroke-width="0.4"/>

  <!-- TRANSLUCENT GRAY BARREL.  OD 12, H 58. -->
  <rect x="-14" y="-58" width="12" height="58"
        fill="url(#gradBarrel)" fill-opacity="0.55"
        stroke="#333" stroke-width="0.7"
        rx="0.5" ry="0.5"/>
  <ellipse cx="-8" cy="-58" rx="6" ry="1.5"
           fill="#cfcfcf" fill-opacity="0.6"
           stroke="#333" stroke-width="0.55"/>
  <line x1="-11.2" y1="-57" x2="-11.2" y2="-1"
        stroke="#ffffff" stroke-width="0.35" opacity="0.55"/>
  <line x1="-4.8" y1="-57" x2="-4.8" y2="-1"
        stroke="#666666" stroke-width="0.35" opacity="0.4"/>
  <ellipse cx="-8" cy="0" rx="6" ry="1.5"
           fill="#b8b8b8" fill-opacity="0.7"
           stroke="#333" stroke-width="0.55"/>

  <!-- Stack tag -->
  <text class="tag" text-anchor="middle" x="-8" y="-92">nat</text>

  <!-- ======================================================================
       RIGHT (SHARP) CLICKY STACK
       ====================================================================== -->

  <!-- GREEN PUSHER (top) -->
  <rect x="3" y="-88" width="10" height="20"
        fill="url(#gradGreen)" stroke="#333" stroke-width="0.6"
        rx="0.6" ry="0.6"/>
  <ellipse cx="8" cy="-88" rx="5" ry="1.3"
           fill="#7ed080" stroke="#333" stroke-width="0.5"/>
  <ellipse cx="8" cy="-68" rx="5" ry="1.3"
           fill="#4CAF50" stroke="#333" stroke-width="0.4" opacity="0.85"/>
  <rect x="3" y="-68" width="10" height="12"
        fill="#4CAF50" fill-opacity="0.9"
        stroke="#333" stroke-width="0.35"/>

  <!-- PINK CAM SLEEVE -->
  <path d="M 3.8,-55
           L 4.8,-58  L 5.8,-55
           L 6.8,-58  L 7.8,-55
           L 8.8,-58  L 9.8,-55
           L 10.8,-58 L 11.8,-55
           L 12.2,-55 L 12.2,-35 L 3.8,-35 Z"
        fill="url(#gradPink)" stroke="#333" stroke-width="0.45"/>
  <rect x="3.8" y="-35" width="8.4" height="28"
        fill="url(#gradPink)" stroke="#333" stroke-width="0.45"/>
  <path class="thin"
        d="M 3.8,-30 C 5.5,-24 10.5,-22 12.2,-16"
        stroke="#8a4a3c" stroke-width="0.35"/>
  <path class="thin"
        d="M 3.8,-18 C 5.5,-12 10.5,-10 12.2,-8"
        stroke="#8a4a3c" stroke-width="0.35"/>
  <ellipse cx="8" cy="-7" rx="4.2" ry="1.1"
           fill="#c88576" stroke="#333" stroke-width="0.4"/>

  <!-- TRANSLUCENT GRAY BARREL -->
  <rect x="2" y="-58" width="12" height="58"
        fill="url(#gradBarrel)" fill-opacity="0.55"
        stroke="#333" stroke-width="0.7"
        rx="0.5" ry="0.5"/>
  <ellipse cx="8" cy="-58" rx="6" ry="1.5"
           fill="#cfcfcf" fill-opacity="0.6"
           stroke="#333" stroke-width="0.55"/>
  <line x1="4.8" y1="-57" x2="4.8" y2="-1"
        stroke="#ffffff" stroke-width="0.35" opacity="0.55"/>
  <line x1="11.2" y1="-57" x2="11.2" y2="-1"
        stroke="#666666" stroke-width="0.35" opacity="0.4"/>
  <ellipse cx="8" cy="0" rx="6" ry="1.5"
           fill="#b8b8b8" fill-opacity="0.7"
           stroke="#333" stroke-width="0.55"/>

  <!-- Stack tag -->
  <text class="tag" text-anchor="middle" x="8" y="-92">sharp</text>

  <!-- Pusher spacing callout (between the two pushers) -->
  <line x1="-8" y1="-95" x2="8" y2="-95"
        stroke="#333" stroke-width="0.3"
        marker-start="url(#arr)" marker-end="url(#arr)"/>
  <text class="dim" text-anchor="middle" x="0" y="-96.5">16 mm pusher spacing</text>

  <!-- ======================================================================
       SHARED QUAD-LOBED FLANGE
         Rectangular oblong footprint: 32 mm long (along string, x) x
         14 mm deep (across, foreshortened in side view).  4 mm thick.
         Four rounded screw ears at the corners.
       ====================================================================== -->

  <!-- Central oblong disc (seen edge-on, 4 mm thick, 32 mm long) -->
  <rect x="-16" y="0" width="32" height="4"
        fill="url(#gradFlange)" stroke="#333" stroke-width="0.5"/>

  <!-- Left-rear lobe (outer screw ear) -->
  <path d="M -16,0.5
           C -20,0.5 -23.5,1.0 -24,2
           C -23.5,3.0 -20,3.5 -16,3.5
           Z"
        fill="url(#gradFlange)" stroke="#333" stroke-width="0.5"/>
  <ellipse cx="-20.5" cy="2" rx="1.5" ry="0.9"
           fill="#1a237e" stroke="#111" stroke-width="0.3"/>
  <ellipse cx="-20.5" cy="2" rx="1.9" ry="1.1"
           fill="none" stroke="#1a237e" stroke-width="0.25" opacity="0.8"/>

  <!-- Right-rear lobe (outer screw ear) -->
  <path d="M 16,0.5
           C 20,0.5 23.5,1.0 24,2
           C 23.5,3.0 20,3.5 16,3.5
           Z"
        fill="url(#gradFlange)" stroke="#333" stroke-width="0.5"/>
  <ellipse cx="20.5" cy="2" rx="1.5" ry="0.9"
           fill="#1a237e" stroke="#111" stroke-width="0.3"/>
  <ellipse cx="20.5" cy="2" rx="1.9" ry="1.1"
           fill="none" stroke="#1a237e" stroke-width="0.25" opacity="0.8"/>

  <!-- Front-left lobe (foreshortened in front of the disc) -->
  <path d="M -14,3.8
           C -13,5.4 -5,5.4 -4,3.8 Z"
        fill="url(#gradFlange)" stroke="#333" stroke-width="0.5"/>
  <ellipse cx="-9" cy="4.8" rx="1.3" ry="0.5"
           fill="#1a237e" stroke="#111" stroke-width="0.25"/>

  <!-- Front-right lobe (foreshortened) -->
  <path d="M 4,3.8
           C 5,5.4 13,5.4 14,3.8 Z"
        fill="url(#gradFlange)" stroke="#333" stroke-width="0.5"/>
  <ellipse cx="9" cy="4.8" rx="1.3" ry="0.5"
           fill="#1a237e" stroke="#111" stroke-width="0.25"/>

  <!-- Top-of-flange outline -->
  <line class="outf" x1="-16" y1="0" x2="16" y2="0"/>

  <!-- Retaining ring / splined washer combined, one per stack -->
  <ellipse cx="-8" cy="5.2" rx="4.6" ry="1.1"
           fill="#c9c9c9" stroke="#333" stroke-width="0.4"/>
  <ellipse cx="8" cy="5.2" rx="4.6" ry="1.1"
           fill="#c9c9c9" stroke="#333" stroke-width="0.4"/>
  <g stroke="#555" stroke-width="0.2">
    <!-- nat washer teeth -->
    <line x1="-12.6" y1="5.2"  x2="-12.9" y2="5.2"/>
    <line x1="-11.5" y1="5.9"  x2="-11.7" y2="6.1"/>
    <line x1="-10.0" y1="6.25" x2="-10.1" y2="6.45"/>
    <line x1="-8.0"  y1="6.35" x2="-8.0"  y2="6.6"/>
    <line x1="-6.0"  y1="6.25" x2="-5.9"  y2="6.45"/>
    <line x1="-4.5"  y1="5.9"  x2="-4.3"  y2="6.1"/>
    <line x1="-3.4"  y1="5.2"  x2="-3.1"  y2="5.2"/>
    <!-- sharp washer teeth -->
    <line x1="3.4"   y1="5.2"  x2="3.1"  y2="5.2"/>
    <line x1="4.5"   y1="5.9"  x2="4.3"  y2="6.1"/>
    <line x1="6.0"   y1="6.25" x2="5.9"  y2="6.45"/>
    <line x1="8.0"   y1="6.35" x2="8.0"  y2="6.6"/>
    <line x1="10.0"  y1="6.25" x2="10.1" y2="6.45"/>
    <line x1="11.5"  y1="5.9"  x2="11.7" y2="6.1"/>
    <line x1="12.6"  y1="5.2"  x2="12.9" y2="5.2"/>
  </g>

  <!-- ======================================================================
       PLYWOOD SHEETS (side section).  6 mm thick each, 12.7 mm gap.
         NORTH sheet: y = 6 .. 12
         SOUTH sheet: y = 24.7 .. 30.7
       Shared drill slot: oblong Ø 6.5 x 10 long centred at x = 0,
       straddling the two shaft exits at x = -1.7 and x = +1.7.
       ====================================================================== -->
  <!-- North plywood, cut around the shared slot -->
  <path d="M -60,6   L -5,6   M 5,6   L 60,6
           M -60,12  L  60,12
           M -60,6   L -60,12
           M  60,6   L  60,12"
        class="out"/>
  <rect x="-60" y="6" width="55" height="6"
        fill="url(#gradPlyFace)" stroke="none" opacity="0.85"/>
  <rect x="5" y="6" width="55" height="6"
        fill="url(#gradPlyFace)" stroke="none" opacity="0.85"/>
  <!-- Slot cut edges -->
  <line x1="-5" y1="6"  x2="-5" y2="12" class="out"/>
  <line x1=" 5" y1="6"  x2=" 5" y2="12" class="out"/>

  <!-- South plywood (solid - paddles stop above it) -->
  <rect x="-60" y="24.7" width="120" height="6"
        fill="url(#gradPlyFace)" stroke="#8b4513" stroke-width="0.5"
        opacity="0.85"/>

  <!-- Wood grain hints -->
  <g stroke="#9a6a3a" stroke-width="0.2" opacity="0.4">
    <line x1="-58" y1="7.5"  x2="-7"   y2="7.5"/>
    <line x1="-58" y1="9.0"  x2="-7"   y2="9.0"/>
    <line x1="-58" y1="10.5" x2="-7"   y2="10.5"/>
    <line x1="  7" y1="7.5"  x2="58"   y2="7.5"/>
    <line x1="  7" y1="9.0"  x2="58"   y2="9.0"/>
    <line x1="  7" y1="10.5" x2="58"   y2="10.5"/>
    <line x1="-58" y1="26.2" x2="58"   y2="26.2"/>
    <line x1="-58" y1="28.0" x2="58"   y2="28.0"/>
    <line x1="-58" y1="29.6" x2="58"   y2="29.6"/>
  </g>

  <!-- ======================================================================
       SHAFTS (extended state) + PADDLES
         Inside the flange (y 0 .. 6) each shaft converges from its
         barrel axis (x = -/+8) to the exit x at the base (x = -/+1.7)
         via a short angled taper.
         From the flange exit (y = 6) down through the shared drill slot
         (y 6 .. 12) and into the gap, the two shafts run vertically at
         x = -1.7 (nat) and x = +1.7 (sharp), 3.4 mm apart.
       ====================================================================== -->

  <!-- NAT shaft: converging taper inside flange (y 0 .. 6) -->
  <path d="M -11,0 L -5,0 L -0.7,6 L -2.7,6 Z"
        fill="url(#gradShaft)" stroke="#333" stroke-width="0.45"/>
  <!-- NAT shaft: straight section from flange through plywood into gap -->
  <rect x="-2.7" y="6" width="2" height="16"
        fill="url(#gradShaft)" stroke="#333" stroke-width="0.45"/>

  <!-- SHARP shaft: converging taper inside flange -->
  <path d="M 5,0 L 11,0 L 2.7,6 L 0.7,6 Z"
        fill="url(#gradShaft)" stroke="#333" stroke-width="0.45"/>
  <!-- SHARP shaft: straight section -->
  <rect x="0.7" y="6" width="2" height="16"
        fill="url(#gradShaft)" stroke="#333" stroke-width="0.45"/>

  <!-- NAT paddle (trapezoidal, tangent to string at nat pitch point) -->
  <!-- Paddle is 16 mm along the string (perpendicular to the page in
       real geometry, so we see it end-on as a narrower plate).  In the
       companion clicky_side view the paddle reads as a 16 mm horizontal
       span; here we are viewing across the string, so each paddle
       appears as a 6 mm x 2 mm face.  We still show the trapezoidal
       silhouette for style. -->
  <path d="M -5.0,22 L -4.2,24 L 0.8,24 L 1.6,22 Z"
        fill="#d0c090" stroke="#333" stroke-width="0.5"/>
  <rect x="-5.0" y="22" width="6.6" height="0.5"
        fill="#a08060" stroke="#333" stroke-width="0.3"/>
  <!-- NAT nose pin -->
  <circle cx="-1.7" cy="24.2" r="0.7"
          fill="#b0907a" stroke="#333" stroke-width="0.2"/>

  <!-- SHARP paddle -->
  <path d="M -1.6,22 L -0.8,24 L 4.2,24 L 5.0,22 Z"
        fill="#d0c090" stroke="#333" stroke-width="0.5"/>
  <rect x="-1.6" y="22" width="6.6" height="0.5"
        fill="#a08060" stroke="#333" stroke-width="0.3"/>
  <!-- SHARP nose pin -->
  <circle cx="1.7" cy="24.2" r="0.7"
          fill="#b0907a" stroke="#333" stroke-width="0.2"/>

  <!-- STRING: one red circle, viewed end-on at the pitch point.
       The string passes through both pitch points; here we draw it at
       the mid-point (x = 0) with the nat/sharp paddles tangent on
       either side.  In the physical harp the nat and sharp "points" are
       different points along the SAME string, 3.4 mm apart; in this
       end-on view we show both paddle noses touching the string. -->
  <circle cx="-1.7" cy="25.0" r="0.55"
          fill="#c00000" stroke="#700000" stroke-width="0.15"/>
  <circle cx="1.7" cy="25.0" r="0.55"
          fill="#c00000" stroke="#700000" stroke-width="0.15"/>
  <!-- Connecting line to indicate "same string, two pitch points" -->
  <line x1="-1.7" y1="25.0" x2="1.7" y2="25.0"
        stroke="#c00000" stroke-width="0.3" opacity="0.5"/>

  <!-- Spacing callout between paddle noses -->
  <line x1="-1.7" y1="27.5" x2="1.7" y2="27.5"
        stroke="#333" stroke-width="0.3"
        marker-start="url(#arr)" marker-end="url(#arr)"/>
  <text class="dim" text-anchor="middle" x="0" y="29.8">3.4 mm spacing</text>

  <!-- ======================================================================
       RETRACTED GHOSTS (dashed, 4 mm stroke each)
       ====================================================================== -->
  <g class="ghost">
    <!-- NAT shaft retracted -->
    <rect x="-2.7" y="6" width="2" height="12" fill="none"/>
    <path d="M -5.0,18 L -4.2,20 L 0.8,20 L 1.6,18 Z"/>
    <circle cx="-1.7" cy="20.2" r="0.7"/>
    <!-- SHARP shaft retracted -->
    <rect x="0.7" y="6" width="2" height="12" fill="none"/>
    <path d="M -1.6,18 L -0.8,20 L 4.2,20 L 5.0,18 Z"/>
    <circle cx="1.7" cy="20.2" r="0.7"/>
  </g>
  <text class="note" x="7" y="19.5">both retracted (3 mm air gap)</text>

  <!-- 4 mm stroke callout -->
  <line x1="-10" y1="20" x2="-10" y2="24"
        stroke="#333" stroke-width="0.3"
        marker-start="url(#arr)" marker-end="url(#arr)"/>
  <text class="dim" x="-18" y="23">stroke 4 mm</text>

  <!-- ======================================================================
       LABELS / LEADER LINES
       ====================================================================== -->

  <!-- Dual pushers title (single callout spanning both) -->
  <line class="lead" x1="13" y1="-80" x2="38" y2="-80"/>
  <text class="lbl"  x="39" y="-79">dual pushers (nat | sharp)</text>
  <text class="note" x="39" y="-76.5">independent click per pitch; OD 10 mm each</text>

  <!-- Barrel label -->
  <line class="lead" x1="14" y1="-40" x2="38" y2="-40"/>
  <text class="lbl"  x="39" y="-39">two translucent barrels, OD 12 mm each</text>
  <text class="note" x="39" y="-36.5">share a wall; 16 mm centre-to-centre</text>

  <!-- Cam sleeves label (left side) -->
  <line class="lead" x1="-12.2" y1="-48" x2="-38" y2="-48"/>
  <text class="lbl"  x="-85" y="-49">two pink cam sleeves</text>
  <text class="note" x="-85" y="-46.5">each crenellated; click cycles</text>
  <text class="note" x="-85" y="-44">extend / retract per stack</text>

  <!-- Shared flange label -->
  <line class="lead" x1="-24" y1="2.5" x2="-38" y2="-4"/>
  <text class="lbl"  x="-85" y="-5">shared flange (blue, 32 x 14 mm)</text>
  <text class="note" x="-85" y="-2.5">quad-lobed: 4 x M2.5 screws into plywood</text>

  <!-- Converging shafts label -->
  <line class="lead" x1="-6" y1="3" x2="-38" y2="10"/>
  <text class="lbl"  x="-85" y="11">shafts converge inside flange</text>
  <text class="note" x="-85" y="13.5">16 mm -&gt; 3.4 mm over 6 mm thickness</text>

  <!-- Shared drill slot label -->
  <line class="lead" x1="-5" y1="9" x2="-38" y2="19"/>
  <text class="lbl"  x="-85" y="20">shared drill slot (Ø 6.5 x 10 mm)</text>
  <text class="note" x="-85" y="22.5">single oblong carries both shafts</text>
  <text class="note" x="-85" y="25">vs. two colliding Ø 6.5 holes</text>

  <!-- Paddles label -->
  <line class="lead" x1="-5" y1="23" x2="-38" y2="34"/>
  <text class="lbl"  x="-85" y="35">nat paddle | sharp paddle</text>
  <text class="note" x="-85" y="37.5">each tangent to string; nose r 0.8</text>

  <!-- Plywood labels -->
  <line class="lead" x1="-35" y1="9" x2="40" y2="-4"/>
  <text class="lbl"  x="41" y="-3">6 mm plywood (north sheet)</text>
  <text class="note" x="41" y="-0.5">outer face carries shared flange</text>

  <line class="lead" x1="-35" y1="27.7" x2="40" y2="42"/>
  <text class="lbl"  x="41" y="43">6 mm plywood (south sheet)</text>

  <!-- Gap callout -->
  <line x1="48" y1="12"   x2="48" y2="24.7"
        stroke="#333" stroke-width="0.3"
        marker-start="url(#arr)" marker-end="url(#arr)"/>
  <text class="dim" x="50" y="19">12.7 mm gap</text>

  <!-- Plywood thickness callout (north) -->
  <line x1="-65" y1="6"  x2="-65" y2="12"
        stroke="#333" stroke-width="0.3"
        marker-start="url(#arr)" marker-end="url(#arr)"/>
  <text class="dim" x="-76" y="9.5">6 mm</text>

  <!-- Overall flange length callout -->
  <line x1="-24" y1="-6" x2="24" y2="-6"
        stroke="#333" stroke-width="0.3"
        marker-start="url(#arr)" marker-end="url(#arr)"/>
  <text class="dim" text-anchor="middle" x="0" y="-7.5">flange OAL 48 mm (w/ ears)</text>

  <!-- Barrel OD callout on the left stack -->
  <line x1="-20" y1="-30" x2="-14" y2="-30"
        stroke="#333" stroke-width="0.3"
        marker-end="url(#arr)"/>
  <line x1="-4" y1="-30" x2="-2" y2="-30"
        stroke="#333" stroke-width="0.3"
        marker-end="url(#arr)"/>
  <text class="dim" x="-28" y="-31.5">OD 12</text>

  <!-- String label -->
  <line class="lead" x1="5.5" y1="25.0" x2="22" y2="40"/>
  <text class="lbl"  x="23" y="41">string (1 mm dia, end-on)</text>
  <text class="note" x="23" y="43.5">SAME string, two pitch points</text>
  <text class="note" x="23" y="46">(nat / sharp) 3.4 mm apart at G7</text>

  <!-- Footprint reassurance note -->
  <text class="note" x="-88" y="56">
    Footprint: 48 mm along string (incl. screw ears) x 14 mm across.
  </text>
  <text class="note" x="-88" y="59">
    Fits within the 17 mm treble string pitch in the cross-string
    direction; along-string length uses unused space between adjacent strings.
  </text>

</svg>
